<?xml version="1.0" encoding="UTF-8"?>
<svg id="Layer_1" data-name="Layer 1" xmlns="http://www.w3.org/2000/svg" viewBox="0 0 333 248">
  <defs>
    <style>
      .cls-1 {
        fill: #f2f2f2;
      }

      .cls-1, .cls-2, .cls-3, .cls-4, .cls-5, .cls-6, .cls-7, .cls-8, .cls-9 {
        stroke-width: 0px;
      }

      .cls-2 {
        fill: #495182;
      }

      .cls-3 {
        fill: #2f2e41;
      }

      .cls-4 {
        fill: #3f3d56;
      }

      .cls-5 {
        fill: #ccc;
      }

      .cls-6 {
        fill: #db3545;
      }

      .cls-7 {
        fill: #bac1e2;
      }

      .cls-8 {
        fill: #ffb8b8;
      }

      .cls-9 {
        fill: #e7e9f9;
      }
    </style>
  </defs>
  <rect class="cls-9" width="333" height="248"/>
  <g>
    <circle class="cls-8" cx="96.72" cy="83.83" r="8.13"/>
    <polygon class="cls-8" points="69.24 181.27 71.3 184.77 85.77 178.49 82.73 173.33 69.24 181.27"/>
    <path class="cls-3" d="M69.86,179.7l4.05,6.89h0c1.43,2.42.62,5.55-1.81,6.97,0,0,0,0,0,0l-.14.08-6.64-11.28,4.53-2.67Z"/>
    <polygon class="cls-8" points="93.1 193.87 97.16 193.87 99.09 178.21 93.1 178.21 93.1 193.87"/>
    <path class="cls-3" d="M92.06,192.54h7.99s0,0,0,0c2.81,0,5.09,2.28,5.09,5.09h0v.17h-13.09s0-5.26,0-5.26Z"/>
    <path class="cls-3" d="M76.78,184.38c-.47,0-.92-.23-1.2-.61l-3.91-5.32c-.49-.66-.35-1.59.32-2.08.02-.01.04-.03.06-.04l17.42-11.63-10.51-27.63,22.48,1.85.76,23.75c.14,4.41-2.15,8.53-5.97,10.73l-18.68,10.78c-.23.13-.48.2-.74.2Z"/>
    <path class="cls-3" d="M93.22,190.69c-.8,0-1.46-.64-1.49-1.44l-.82-23.13,10.2-.54-.81,23.3c-.02.76-.63,1.39-1.39,1.43l-5.59.37s-.07,0-.1,0Z"/>
    <path class="cls-6" d="M104.02,143.52c-2.59,0-11.66-2.92-14.81-3.96-.47.38-3.06,2.31-6.08,1.96-1.86-.22-3.5-1.27-4.87-3.13-3.03-4.11.71-21.73,4.38-35.8,1.53-5.91,7.46-9.55,13.42-8.24h0c4.24.94,7.58,4.19,8.64,8.4.69,2.81.1,6.12-.34,8.54-.2,1.14-.37,2.03-.31,2.47.21,1.7,1.4,28.43.64,29.58-.08.12-.32.18-.67.18Z"/>
    <path class="cls-8" d="M94.53,143.57c1.58-1.17,1.9-3.4.73-4.98-.13-.17-.26-.32-.42-.47l.16-32.39-7.63,1.27,2.24,31.44c-1.25,1.53-1.03,3.78.49,5.03,1.28,1.05,3.11,1.09,4.42.09Z"/>
    <path class="cls-2" d="M96.3,126.53h-8.22c-.82,0-1.48-.66-1.49-1.48l-.2-22.28c-.03-3.22,2.56-5.85,5.77-5.88,3.22-.03,5.85,2.56,5.88,5.77,0,.04,0,.08,0,.12l-.26,22.27c-.01.81-.67,1.47-1.49,1.47Z"/>
    <path class="cls-3" d="M94.65,91.93c-3.72,0-7.23-2.94-7.88-6.6-.23-1.44-.13-2.91.3-4.31,1.81-6.13,8.24-9.63,14.37-7.82.51.15,1.01.34,1.5.56,1,.45,1.98,1.1,2.43,2.09s.17,2.38-.83,2.83c-.65.29-1.47.15-2.05.57-.83.6-.62,1.88-.25,2.84s.79,2.11.17,2.93c-.58.76-1.74.74-2.65.45s-1.81-.77-2.76-.67c-1.39.14-2.38,1.52-2.57,2.9-.18,1.38.25,2.76.68,4.09l-.47.14Z"/>
    <path class="cls-5" d="M132.63,198.11H47.21c-.18,0-.33-.15-.33-.33s.15-.33.33-.33h85.41c.18,0,.33.15.33.33s-.15.33-.33.33Z"/>
    <path class="cls-1" d="M278.54,158.67H121.9c-2.23,0-4.03-1.81-4.03-4.03V58.05c0-1.63,1.32-2.95,2.95-2.95h158.75c1.66,0,3,1.35,3.01,3.01v96.54c0,2.23-1.81,4.03-4.03,4.03Z"/>
    <path class="cls-7" d="M273.48,153.58H127.49c-2.14,0-3.88-1.63-3.88-3.63v-84.11c0-1.49,1.29-2.7,2.88-2.7h147.95c1.61,0,2.92,1.23,2.92,2.74v84.07c0,2-1.74,3.63-3.88,3.63Z"/>
    <path class="cls-4" d="M282.52,58.55H117.81v-2.05c0-2.23,1.81-4.04,4.05-4.05h156.62c2.23,0,4.04,1.81,4.05,4.05v2.05Z"/>
    <circle class="cls-7" cx="125.16" cy="55.51" r="1.05"/>
    <circle class="cls-7" cx="129.14" cy="55.51" r="1.05"/>
    <circle class="cls-7" cx="133.11" cy="55.51" r="1.05"/>
    <path class="cls-5" d="M197.02,81.53h-28.55c-.89,0-1.6-.72-1.6-1.61,0-.89.72-1.6,1.6-1.6h28.55c.89,0,1.61.72,1.61,1.6s-.72,1.61-1.6,1.61h0Z"/>
    <path class="cls-5" d="M232.5,81.53h-28.55c-.89,0-1.6-.72-1.6-1.61,0-.89.72-1.6,1.6-1.6h28.55c.89,0,1.61.72,1.61,1.6,0,.89-.72,1.61-1.6,1.61h0Z"/>
    <path class="cls-5" d="M232.5,87.61h-49.67c-.89,0-1.61-.72-1.61-1.61s.72-1.61,1.61-1.61h49.67c.89,0,1.6.72,1.6,1.61s-.72,1.61-1.6,1.61Z"/>
    <path class="cls-5" d="M197.02,75.36h-28.55c-.89,0-1.6-.72-1.6-1.61,0-.88.72-1.6,1.6-1.6h28.55c.89,0,1.61.72,1.61,1.6s-.72,1.61-1.6,1.61c0,0,0,0,0,0Z"/>
    <path class="cls-5" d="M212.73,75.45h-8.11c-.89,0-1.6-.72-1.6-1.61,0-.89.72-1.6,1.6-1.6h8.11c.89,0,1.61.72,1.61,1.6,0,.89-.72,1.61-1.6,1.61h0Z"/>
    <path class="cls-5" d="M176.58,87.61h-8.11c-.89,0-1.6-.72-1.6-1.61,0-.88.72-1.6,1.6-1.6h8.11c.89,0,1.61.72,1.61,1.6s-.72,1.61-1.6,1.61h0Z"/>
    <path class="cls-5" d="M197.02,138.48h-28.55c-.89,0-1.61-.72-1.61-1.61s.72-1.61,1.61-1.61h28.55c.89,0,1.61.72,1.61,1.61s-.72,1.61-1.61,1.61h0Z"/>
    <path class="cls-5" d="M232.5,138.48h-28.55c-.89,0-1.61-.72-1.61-1.61s.72-1.61,1.61-1.61h28.55c.89,0,1.61.72,1.61,1.61s-.72,1.61-1.61,1.61Z"/>
    <path class="cls-5" d="M232.5,144.57h-49.67c-.89,0-1.61-.72-1.61-1.61s.72-1.6,1.61-1.6h49.67c.89,0,1.61.72,1.61,1.6,0,.89-.72,1.61-1.6,1.61h0Z"/>
    <path class="cls-5" d="M197.02,132.32h-28.55c-.89,0-1.61-.72-1.61-1.61s.72-1.61,1.61-1.61h28.55c.89,0,1.61.72,1.61,1.61s-.72,1.61-1.61,1.61Z"/>
    <path class="cls-5" d="M212.73,132.4h-8.11c-.89,0-1.61-.72-1.61-1.61s.72-1.61,1.61-1.61h8.11c.89,0,1.61.72,1.61,1.61s-.72,1.61-1.61,1.61Z"/>
    <path class="cls-5" d="M176.58,144.57h-8.11c-.89,0-1.61-.72-1.61-1.61s.72-1.6,1.61-1.6h8.11c.89,0,1.61.72,1.61,1.6,0,.89-.72,1.61-1.6,1.61h0Z"/>
    <path class="cls-6" d="M189.56,121.25c-.61,0-1.19-.24-1.62-.66l-10.73-10.6c-.88-.87-.89-2.28-.02-3.16,0,0,.01-.01.02-.02l10.69-10.56c.93-.91,2.41-.91,3.33.01h0c.92.92.92,2.42,0,3.35l-7.94,7.94c-.52.52-.52,1.35,0,1.87l7.9,7.9c.9.9.9,2.36,0,3.26-.43.43-1.02.68-1.63.68h0Z"/>
    <path class="cls-6" d="M206.66,121.25c-1.27,0-2.3-1.03-2.31-2.3,0-.61.24-1.2.68-1.63l7.9-7.9c.52-.52.52-1.35,0-1.87l-7.94-7.94c-.92-.92-.93-2.42,0-3.34,0,0,0,0,0,0h0c.92-.92,2.41-.92,3.33-.01l10.69,10.56c.88.87.89,2.28.02,3.16,0,0-.01.01-.02.02l-10.73,10.6c-.43.43-1.01.66-1.62.66Z"/>
  </g>
</svg>