<?xml version="1.0" encoding="UTF-8"?>
<svg id="Layer_1" data-name="Layer 1" xmlns="http://www.w3.org/2000/svg" viewBox="0 0 333 248">
  <defs>
    <style>
      .cls-1 {
        fill: #f2f2f2;
      }

      .cls-1, .cls-2, .cls-3, .cls-4, .cls-5, .cls-6, .cls-7, .cls-8, .cls-9 {
        stroke-width: 0px;
      }

      .cls-2 {
        fill: #495182;
      }

      .cls-3 {
        fill: #2f2e41;
      }

      .cls-4 {
        fill: #3f3d56;
      }

      .cls-5 {
        fill: #ccc;
      }

      .cls-6 {
        fill: #db3545;
      }

      .cls-7 {
        fill: #bac1e2;
      }

      .cls-8 {
        fill: #edb7ae;
      }

      .cls-9 {
        fill: #e7e9f9;
      }
    </style>
  </defs>
  <rect class="cls-9" width="333" height="248"/>
  <g>
    <path class="cls-1" d="M239.77,187.73l4.63-1.47c.58-2.49.54-5.08-.11-7.55-1.86,4.14-7.32,5.15-10.44,8.46-1.95,2.1-2.84,4.98-2.41,7.81l-.97,3.31c4.61-.39,8.81-2.79,11.51-6.55.74-1.05,1.34-2.19,1.79-3.39-1.98-.2-3.99-.63-3.99-.63Z"/>
    <path class="cls-1" d="M234.81,181.61l3.49-3.38c-.59-2.48-1.78-4.79-3.47-6.7.18,4.54-4.26,7.88-5.57,12.22-.81,2.75-.32,5.72,1.32,8.07l.6,3.4c3.95-2.41,6.65-6.42,7.38-10.99.19-1.27.22-2.55.09-3.83-1.86.7-3.86,1.22-3.86,1.22Z"/>
    <path class="cls-4" d="M211.6,59.25H80.99c-.29,0-.51-.24-.51-.53,0-.28.23-.5.51-.51h130.61c.29,0,.51.24.51.53,0,.28-.23.5-.51.51Z"/>
    <ellipse class="cls-6" cx="89.88" cy="52.45" rx="3.04" ry="3.11"/>
    <ellipse class="cls-6" cx="100.4" cy="52.45" rx="3.04" ry="3.11"/>
    <ellipse class="cls-7" cx="110.91" cy="52.45" rx="3.04" ry="3.11"/>
    <path class="cls-4" d="M205.27,50.11h-7.47c-.31,0-.56.26-.55.58,0,.3.25.55.55.55h7.47c.31,0,.56-.26.55-.58,0-.3-.25-.55-.55-.55Z"/>
    <path class="cls-4" d="M205.27,52.23h-7.47c-.31,0-.56.26-.55.58,0,.3.25.55.55.55h7.47c.31,0,.56-.26.55-.58,0-.3-.25-.55-.55-.55Z"/>
    <path class="cls-4" d="M205.27,54.35h-7.47c-.31,0-.56.26-.55.58,0,.3.25.55.55.55h7.47c.31,0,.56-.26.55-.58,0-.3-.25-.55-.55-.55Z"/>
    <circle class="cls-7" cx="90.6" cy="76.59" r="3.76"/>
    <path class="cls-7" d="M186.43,84.93h-98.47c-.62,0-1.12-.5-1.12-1.12s.5-1.12,1.12-1.12h98.47c.62,0,1.12.5,1.12,1.12s-.5,1.12-1.12,1.12Z"/>
    <path class="cls-7" d="M160.6,89.36h-72.65c-.62,0-1.12-.5-1.12-1.12,0-.62.5-1.12,1.12-1.12h72.65c.62,0,1.12.5,1.12,1.12,0,.62-.5,1.12-1.12,1.12h0Z"/>
    <circle class="cls-6" cx="90.6" cy="135.33" r="3.76"/>
    <path class="cls-7" d="M186.43,143.67h-98.47c-.62,0-1.12-.5-1.12-1.12s.5-1.12,1.12-1.12h98.47c.65.04,1.16.56,1.18,1.21-.04.61-.56,1.07-1.17,1.03,0,0,0,0,0,0Z"/>
    <path class="cls-7" d="M160.6,148.09h-72.65c-.62,0-1.12-.5-1.12-1.12s.5-1.12,1.12-1.12h72.65c.62,0,1.12.5,1.12,1.12s-.5,1.12-1.12,1.12Z"/>
    <circle class="cls-7" cx="90.6" cy="103.75" r="3.76"/>
    <path class="cls-7" d="M186.43,112.08h-98.47c-.62,0-1.12-.5-1.12-1.12s.5-1.12,1.12-1.12h98.47c.62,0,1.12.5,1.12,1.12s-.5,1.12-1.12,1.12Z"/>
    <path class="cls-7" d="M172.72,116.51h-84.76c-.62,0-1.12-.5-1.12-1.12,0-.62.5-1.12,1.12-1.12h84.76c.62,0,1.12.5,1.12,1.12,0,.62-.5,1.12-1.12,1.12Z"/>
    <path class="cls-7" d="M166.97,120.94h-79.01c-.62,0-1.12-.5-1.12-1.12,0-.62.5-1.12,1.12-1.12h79.01c.62,0,1.12.5,1.12,1.12,0,.62-.5,1.12-1.12,1.12h0Z"/>
    <circle class="cls-2" cx="168.6" cy="142.61" r="27.87"/>
    <circle class="cls-4" cx="168.56" cy="148.35" r="3.98"/>
    <circle class="cls-2" cx="168.56" cy="148.35" r="1.84"/>
    <path class="cls-7" d="M175.95,157.22h-14.7c-3.03,0-5.49-2.46-5.49-5.49v-6.74c0-3.03,2.46-5.49,5.49-5.49h14.7c3.03,0,5.49,2.46,5.49,5.49v6.74c0,3.03-2.46,5.49-5.49,5.49ZM161.25,140.07c-2.71,0-4.91,2.2-4.92,4.92v6.74c0,2.71,2.2,4.91,4.92,4.92h14.7c2.71,0,4.91-2.2,4.92-4.92v-6.74c0-2.71-2.2-4.91-4.92-4.92h-14.7Z"/>
    <path class="cls-4" d="M160.38,153.56h13.05c2.85,0,5.16-2.31,5.16-5.16h0v-5.64c0-.63-.12-1.25-.34-1.83,1.29.97,2.05,2.49,2.05,4.11v5.64c0,2.85-2.31,5.16-5.16,5.16h-13.05c-2.14,0-4.06-1.33-4.82-3.33.89.68,1.99,1.05,3.11,1.05Z"/>
    <polygon class="cls-8" points="200.34 194.97 197.14 194.97 195.61 182.6 200.35 182.6 200.34 194.97"/>
    <path class="cls-3" d="M200.46,198.32h-9.86v-.13c0-2.12,1.72-3.84,3.84-3.84h0l1.8-1.37,3.36,1.37h.86s0,3.96,0,3.96Z"/>
    <polygon class="cls-8" points="223.04 194.97 226.24 194.97 227.77 182.6 223.04 182.6 223.04 194.97"/>
    <path class="cls-3" d="M222.92,198.32h9.86v-.13c0-2.12-1.72-3.84-3.84-3.84h0l-1.8-1.37-3.36,1.37h-.86s0,3.96,0,3.96Z"/>
    <path class="cls-3" d="M195.47,173.51c.05-.71.42-4.61.42-4.61l.9-8.28,1.59-21.94.1-1.44,8.33-1.6,5.69-2.73,6.77,2.16,5.27,1.98s0,.85.05,1.87c.05,1.34.15,2.98.37,3.4.38.75.28,4.8.28,4.8,0,0,.37,8.23.85,9.13s.57,2.78.42,3.16.47,10.26.47,10.26c0,0,1.57,17.48.59,20.12s-4.72.91-4.72.91c0,0,.18-.7-.9-1.04s-4.38-25.12-4.38-25.12c0,0-.61-5.08-1.18-6.54s-1.08-5.55-1.08-5.55c0,0-3.48-6.77-3.53-8.28,0,0-.46-1.41-.89.14s-1.7,5.27-1.7,5.27l-1.24,4.56-1.46,6.82-.94,5.74s-1.41,7.62-1.64,7.95,0,7.29,0,7.29c0,0-1.09,5.93-2.63,6.96-1.54,1.04-5.63.02-5.63.02,0,0-.24-14.7-.19-15.41Z"/>
    <polygon class="cls-3" points="199.02 117.23 200.88 122.81 198.59 125.52 199.6 126.56 198.85 128.02 196.92 143.36 207.53 147.39 211.1 142.91 213.92 147.39 226.19 144.39 223.06 124.83 223.06 123.55 222.18 121.08 222.18 115.85 224.51 100.29 217.54 97.85 214.21 95.21 213.14 98.92 208.55 98.11 208.43 95.32 204.92 98.64 201.96 99.48 198.42 100.29 197.97 101.42 198.87 101.19 198.72 115.86 199.02 117.23"/>
    <path class="cls-8" d="M195.85,137.63l1.78-17.24.47-7.1-4.99-.9s.2,5.07-.46,7.94c-.64,2.83-.09,16.93-.05,17.3-1,.89-1.08,2.43-.19,3.43s2.43,1.08,3.43.19c1-.89,1.08-2.43.19-3.43-.06-.07-.12-.13-.19-.19h0Z"/>
    <path class="cls-3" d="M190.99,123.96l1.39.29,4.76.99.26.05.56-2.23.65-.69,1.24-6.5.07-.34,1.87-4.01,1.3-12.04-4.82.87s-.05.05-.07.08c-.69.78-1.19,1.88-1.99,2.97-2.63,3.57-4.64,12.26-4.56,17.02,0,.08-.08.16-.17.25-.92.85-1.12,2.23-.48,3.3Z"/>
    <path class="cls-8" d="M226.85,137.63l-1.78-17.24-.47-7.1,4.99-.9s-.2,5.07.46,7.94c.64,2.83.09,16.93.05,17.3,1,.89,1.08,2.43.19,3.43-.89,1-2.43,1.08-3.43.19-1-.89-1.08-2.43-.19-3.43.06-.07.12-.13.19-.19h0Z"/>
    <path class="cls-3" d="M231.72,123.96l-1.39.29-4.76.99-.26.05-.56-2.23-.65-.69-1.24-6.5-.07-.34-1.87-4.01.43-12.04,3.1.87s.05.05.07.08c.69.78,1.19,1.88,1.99,2.97,2.63,3.57,4.64,12.26,4.56,17.02,0,.08.08.16.17.25.92.85,1.12,2.23.48,3.3Z"/>
    <path class="cls-7" d="M206.16,101.26l2.27-5.94,5.79-.11,1.92,6.05,6.9,38.56s-21.14,5.89-20.93-1.19c.23-7.44,1.24-17.33,1.24-17.33l2.81-20.04Z"/>
    <circle class="cls-8" cx="211.19" cy="86.84" r="6.82"/>
    <path class="cls-3" d="M203.97,81.9c1.11-1.21,2.5-3.42,6.7-4.35,5.2-1.15,7.65,3.55,6.34,3.62,3.83,1.16,1.37,9.09.27,8.42,0,0-.02-.01-.03-.02-1.19-.88-1.97-2.21-2.16-3.68l-.21-1.88c-.03,1.53-1.59,1.73-3.18,1.17.19-.68.73-1.21,1.41-1.39-1.11,1.01-2.52,1.62-4.02,1.75.16-.77.64-1.44,1.33-1.83l-.06-.06c-.62.52-1.34.93-2.11,1.19-.88.25-1.93.12-2.53-.57-.16-.19-.28-.41-.36-.65.13,1.21-.68,2.59-1.31,2.35-.52-.1-.83-3.27-.09-4.08Z"/>
    <path class="cls-5" d="M252.52,198.32c0,.19-.15.34-.34.34h-80.59c-.19,0-.34-.15-.34-.34s.15-.34.34-.34h80.58c.19,0,.34.15.34.34h0Z"/>
    <path class="cls-4" d="M168.83,127.5c-2.73,0-5.12,1.23-6.48,3.09,1.45-1.06,3.2-1.62,4.99-1.6,4.22,0,7.66,2.96,7.66,6.59v3.02h1.48v-4.5c0-3.63-3.43-6.59-7.66-6.59Z"/>
    <path class="cls-7" d="M177.5,140.14h-17.8v-5.24c0-4.23,3.99-7.66,8.9-7.66s8.9,3.44,8.9,7.66v5.24ZM160.27,139.57h16.65v-4.66c0-3.91-3.73-7.09-8.33-7.09s-8.33,3.18-8.33,7.09v4.66Z"/>
    <path class="cls-7" d="M173.16,138.14h-9.12c-.85,0-1.55-.69-1.55-1.55v-2.08c0-2.91,2.74-5.27,6.11-5.27s6.11,2.36,6.11,5.27v2.08c0,.85-.69,1.55-1.55,1.55ZM168.6,129.82c-3.05,0-5.53,2.11-5.53,4.7v2.08c0,.54.44.97.97.97h9.12c.54,0,.97-.44.97-.97v-2.08c0-2.59-2.48-4.7-5.53-4.7h0Z"/>
  </g>
</svg>