<?xml version="1.0" encoding="UTF-8"?>
<svg id="Layer_1" data-name="Layer 1" xmlns="http://www.w3.org/2000/svg" xmlns:xlink="http://www.w3.org/1999/xlink" viewBox="0 0 661.23 100.66">
  <defs>
    <style>
      .cls-1 {
        clip-path: url(#clippath);
      }

      .cls-2 {
        fill: none;
      }

      .cls-2, .cls-3, .cls-4, .cls-5 {
        stroke-width: 0px;
      }

      .cls-3 {
        fill: url(#linear-gradient);
      }

      .cls-6 {
        clip-path: url(#clippath-1);
      }

      .cls-4 {
        fill: url(#linear-gradient-2);
      }

      .cls-5 {
        fill: #fff;
      }
    </style>
    <clipPath id="clippath">
      <path class="cls-2" d="m26.36,26.83c-.07-.13-.07-.29,0-.41l3.46-6c.08-.14.28-.14.36,0l14.38,24.91c.08.14-.02.31-.18.31H15.63c-.16,0-.26-.17-.18-.31l3.46-6c.07-.13.21-.21.36-.21h14.19l-7.09-12.29Zm24.46,42.37l7.1,12.29c.07.13.21.21.36.21h6.93c.16,0,.26-.17.18-.31l-14.38-24.91c-.08-.14-.28-.14-.36,0l-14.38,24.91c-.08.14.02.31.18.31h6.93c.15,0,.28-.08.36-.21l7.1-12.29Zm7.1-52.4l-7.1,12.29-7.1-12.29c-.07-.13-.21-.21-.36-.21h-6.93c-.16,0-.26.17-.18.31l14.38,24.91c.08.14.28.14.36,0l14.38-24.91c.08-.14-.02-.31-.18-.31h-6.93c-.15,0-.28.08-.36.21Zm-13.53,35.86H15.63c-.16,0-.26.17-.18.31l3.46,6c.07.13.21.21.36.21h14.19l-7.09,12.29c-.07.13-.07.29,0,.41l3.46,6c.08.14.28.14.36,0l14.38-24.91c.08-.14-.02-.31-.18-.31Zm49.03,0h-.08s-36.08,0-36.08,0c-.16,0-.26.17-.18.31l14.38,24.91c.08.14.28.14.36,0l3.46-6c.07-.13.07-.29,0-.41l-7.1-12.29h24.11c-4.52,18.7-21.4,32.64-41.47,32.64-11.4,0-22.11-4.44-30.17-12.5-8.06-8.06-12.5-18.77-12.5-30.17,0-23.53,19.14-42.67,42.67-42.67,11.4,0,22.11,4.44,30.17,12.5,5.64,5.64,9.5,12.58,11.31,20.15h-24.12l7.08-12.26c.07-.13.07-.29,0-.41l-3.46-6c-.08-.14-.28-.14-.36,0l-14.37,24.88c-.08.14.02.31.18.31h36.14c3.43,0,6-3.15,5.31-6.52h0c-1.91-9.24-6.47-17.73-13.3-24.56C76.17,5.33,63.89.24,50.83.24,23.87.24,1.93,22.18,1.93,49.14c0,0,0,0,0,0,0,13.06,5.09,25.34,14.32,34.58,9.24,9.24,21.52,14.32,34.58,14.32,23.53,0,43.23-16.7,47.87-38.87,0-.02,0-.04.01-.07.69-3.33-1.88-6.45-5.29-6.45Z"/>
    </clipPath>
    <linearGradient id="linear-gradient" x1="72.58" y1="92.46" x2="30.55" y2="10.75" gradientUnits="userSpaceOnUse">
      <stop offset="0" stop-color="#d61e41"/>
      <stop offset=".28" stop-color="#ed1847"/>
      <stop offset=".97" stop-color="#f47c6f"/>
    </linearGradient>
    <clipPath id="clippath-1">
      <path class="cls-2" d="m26.23,26.73c-.07-.13-.07-.28,0-.41l3.44-5.96c.08-.14.28-.14.36,0l14.29,24.76c.08.14-.02.31-.18.31H15.55c-.16,0-.26-.17-.18-.31l3.44-5.96c.07-.13.21-.21.36-.21h14.1l-7.05-12.21Zm24.31,42.11l7.05,12.22c.07.13.21.21.36.21h6.89c.16,0,.26-.17.18-.31l-14.3-24.76c-.08-.14-.28-.14-.36,0l-14.3,24.76c-.08.14.02.31.18.31h6.89c.15,0,.28-.08.36-.21l7.05-12.22Zm7.05-52.08l-7.05,12.22-7.05-12.22c-.07-.13-.21-.21-.36-.21h-6.89c-.16,0-.26.17-.18.31l14.3,24.76c.08.14.28.14.36,0l14.3-24.76c.08-.14-.02-.31-.18-.31h-6.89c-.15,0-.28.08-.36.21Zm-13.45,35.63H15.55c-.16,0-.26.17-.18.31l3.44,5.96c.07.13.21.21.36.21h14.1l-7.05,12.21c-.07.13-.07.28,0,.41l3.44,5.96c.08.14.28.14.36,0l14.29-24.76c.08-.14-.02-.31-.18-.31Zm48.73,0h-.08s-35.86,0-35.86,0c-.16,0-.26.17-.18.31l14.29,24.76c.08.14.28.14.36,0l3.44-5.96c.07-.13.07-.28,0-.41l-7.05-12.21h23.96c-4.5,18.59-21.26,32.44-41.21,32.44-11.33,0-21.98-4.41-29.99-12.42-8.01-8.01-12.42-18.66-12.42-29.99,0-23.38,19.02-42.41,42.41-42.41,11.33,0,21.98,4.41,29.99,12.42,5.61,5.61,9.44,12.51,11.24,20.02h-23.97l7.04-12.19c.07-.13.07-.28,0-.41l-3.44-5.96c-.08-.14-.28-.14-.36,0l-14.28,24.73c-.08.14.02.31.18.31h35.91c3.41,0,5.97-3.13,5.28-6.48h0c-1.9-9.18-6.43-17.62-13.22-24.41C75.73,5.36,63.52.3,50.54.3,23.75.31,1.94,22.11,1.94,48.91c0,0,0,0,0,0,0,12.98,5.06,25.19,14.23,34.37,9.18,9.18,21.38,14.24,34.37,14.24,23.38,0,42.96-16.6,47.57-38.63,0-.02,0-.04.01-.06.69-3.31-1.87-6.41-5.26-6.41Z"/>
    </clipPath>
    <linearGradient id="linear-gradient-2" x1="72.15" y1="91.95" x2="30.38" y2="10.75" xlink:href="#linear-gradient"/>
  </defs>
  <g class="cls-1">
    <rect class="cls-3" x="1.58" width="97.4" height="98.22"/>
  </g>
  <g>
    <g>
      <path class="cls-5" d="m132.67,77.56h2.82l6.41,17.98h-2.09l-1.47-4.21h-8.48l-1.47,4.21h-2.07l6.36-17.98Zm-2.37,12.05h7.53l-3.59-10.35h-.37l-3.57,10.35Z"/>
      <path class="cls-5" d="m164.27,80.31h-5.94v15.24h-3.14v-15.24h-5.94v-2.72h15.01v2.72Z"/>
      <path class="cls-5" d="m175.94,94.97c-1.82.55-3.42.87-5.34.87-4.44,0-6.78-2.19-6.78-7.11s2.42-7.11,6.46-7.11c4.76,0,5.91,3.14,5.91,6.53v1.4h-9.15c.02,2.62,1.6,3.62,4.29,3.62,1.27,0,3.12-.37,4.61-.85v2.64Zm-2.87-7.63c-.02-1.5-.45-3.29-2.97-3.29-2.07,0-3.12,1.47-3.12,3.29h6.09Z"/>
      <path class="cls-5" d="m190.46,92.55v2.67c-1.42.42-2.74.62-4.29.62-3.29,0-6.78-1.5-6.78-7.11s3.49-7.11,6.78-7.11c1.55,0,2.87.2,4.29.62v2.69c-1.25-.4-2.52-.62-3.82-.62-2.67,0-4.14,1.35-4.14,4.41,0,2.62,1.25,4.44,4.14,4.44,1.3,0,2.57-.25,3.82-.62Z"/>
      <path class="cls-5" d="m202.68,95.55v-9.33c0-1.17-.62-1.8-1.8-1.8s-2.54.6-3.97,1.35v9.78h-3.07v-19.03h3.07v6.86c1.72-1,3.39-1.72,4.86-1.72,2.47,0,3.97,1.22,3.97,3.99v9.9h-3.07Z"/>
      <path class="cls-5" d="m209.98,95.55v-17.96h6.36c4.89,0,8.4,2.99,8.4,9s-3.52,8.95-8.4,8.95h-6.36Zm6.01-15.24h-2.87v12.52h2.87c3.64,0,5.54-2.59,5.54-6.23s-1.9-6.28-5.54-6.28Z"/>
      <path class="cls-5" d="m239.64,94.97c-1.82.55-3.42.87-5.34.87-4.44,0-6.78-2.19-6.78-7.11s2.42-7.11,6.46-7.11c4.76,0,5.91,3.14,5.91,6.53v1.4h-9.15c.02,2.62,1.6,3.62,4.29,3.62,1.27,0,3.12-.37,4.61-.85v2.64Zm-2.87-7.63c-.02-1.5-.45-3.29-2.97-3.29-2.07,0-3.12,1.47-3.12,3.29h6.09Z"/>
      <path class="cls-5" d="m251.81,95.55v-9.35c0-1.17-.57-1.8-1.87-1.8-1.07,0-2.27.55-3.57,1.37v9.78h-3.07v-13.62h2.87v1.52h.1c1.47-1,3.07-1.82,4.69-1.82s2.89.62,3.49,1.97c1.7-1.17,3.32-1.97,5.01-1.97,2.27,0,3.89,1.2,3.89,4.04v9.88h-3.07v-9.35c0-1.17-.55-1.8-1.85-1.8-.85,0-2.44.55-3.59,1.37v9.78h-3.04Z"/>
      <path class="cls-5" d="m273.45,81.63c3.74,0,6.86,2.09,6.86,7.11s-3.12,7.11-6.86,7.11-6.83-2.05-6.83-7.11,3.09-7.11,6.83-7.11Zm.03,11.6c2.59,0,3.67-1.67,3.67-4.49s-1.07-4.46-3.67-4.46-3.72,1.67-3.72,4.46,1.1,4.49,3.72,4.49Z"/>
      <path class="cls-5" d="m293.98,92.55v2.67c-1.42.42-2.74.62-4.29.62-3.29,0-6.78-1.5-6.78-7.11s3.49-7.11,6.78-7.11c1.55,0,2.87.2,4.29.62v2.69c-1.25-.4-2.52-.62-3.82-.62-2.67,0-4.14,1.35-4.14,4.41,0,2.62,1.25,4.44,4.14,4.44,1.3,0,2.57-.25,3.82-.62Z"/>
      <path class="cls-5" d="m305.43,85.02c-1.8.27-3.19.9-5.01,1.7v8.83h-3.04v-13.62h2.89v2.29c1.47-.95,3.02-2.24,5.16-2.37v3.17Z"/>
      <path class="cls-5" d="m316.15,87.29v-1.02c0-1.25-.75-2.09-2.97-2.09-1.17,0-3.09.22-4.46.62v-2.59c1.67-.35,3.74-.57,5.19-.57,3.32,0,5.31,1.62,5.31,4.84v9.08h-2.62l-.22-1.52h-.1c-1.47,1.07-2.99,1.7-4.46,1.7-2.32,0-4.24-1.37-4.24-4.21,0-2.62,1.9-4.21,5.09-4.21h3.49Zm0,2.17h-3.04c-1.67,0-2.44.65-2.44,1.82,0,1.27.9,1.9,2.14,1.9,1.17,0,2.44-.52,3.34-1.17v-2.54Z"/>
      <path class="cls-5" d="m333.78,92.55v2.67c-1.42.42-2.74.62-4.29.62-3.29,0-6.78-1.5-6.78-7.11s3.49-7.11,6.78-7.11c1.55,0,2.87.2,4.29.62v2.69c-1.25-.4-2.52-.62-3.82-.62-2.67,0-4.14,1.35-4.14,4.41,0,2.62,1.25,4.44,4.14,4.44,1.3,0,2.57-.25,3.82-.62Z"/>
      <path class="cls-5" d="m339.84,100.66l1.7-5.11h-1.3c-1.45-4.54-2.92-9.08-4.39-13.62h3.34c1.05,3.42,2.07,6.88,3.12,10.33h.22c1.07-3.44,2.12-6.91,3.19-10.33h3.27l-5.96,18.73h-3.19Z"/>
      <path class="cls-5" d="m365.68,77.29c1.35,0,2.89.17,4.56.57v1.82c-1.32-.37-2.97-.67-4.29-.67-3.77,0-6.31,2-6.31,7.48s2.74,7.63,6.16,7.63c1.4,0,3.02-.25,4.46-.75v1.8c-1.57.47-3.29.67-4.56.67-5.56,0-8.06-3.59-8.06-9.3s2.59-9.25,8.03-9.25Z"/>
      <path class="cls-5" d="m379.05,81.8c3.32,0,6.58,1.77,6.58,7.03s-3.27,7.01-6.58,7.01-6.58-1.75-6.58-7.01,3.24-7.03,6.58-7.03Zm.02,12.42c3.17,0,4.64-2.09,4.64-5.39s-1.47-5.39-4.64-5.39-4.69,2.12-4.69,5.39,1.47,5.39,4.69,5.39Z"/>
      <path class="cls-5" d="m409.4,85.72v9.83h-1.85v-9.63c0-1.52-.8-2.39-2.52-2.39-1.3,0-2.87.67-4.71,1.82.02.35.02.7.02,1.05v9.15h-1.85v-9.63c0-1.52-.77-2.39-2.49-2.39-1.42,0-2.79.62-4.69,1.8v10.23h-1.85v-13.44h1.75v1.7c1.52-.95,3.44-1.97,5.31-1.97,1.75,0,2.99.7,3.54,2.12,1.7-1.15,3.62-2.12,5.51-2.12,2.37,0,3.82,1.25,3.82,3.89Z"/>
      <path class="cls-5" d="m413.91,100.66v-18.56h1.85v1.6c1.8-1.25,3.52-1.9,5.14-1.9,2.59,0,4.84,1.9,4.84,6.71,0,5.34-2.57,7.28-6.36,7.28-1.07,0-2.52-.2-3.62-.47v5.34h-1.85Zm6.46-17.18c-1.3,0-2.89.57-4.61,1.77v8.48c1.15.25,2.47.5,3.49.5,3.14,0,4.54-2.07,4.54-5.61s-1.42-5.14-3.42-5.14Z"/>
      <path class="cls-5" d="m437.5,87.79v-1.62c0-1.65-.92-2.74-3.29-2.74-1.17,0-2.99.22-4.46.62v-1.65c1.5-.35,3.49-.6,4.86-.6,2.97,0,4.76,1.5,4.76,4.46v9.28h-1.6l-.15-1.75c-1.57,1.1-3.24,1.87-4.86,1.87-2.22,0-4.17-1.17-4.17-3.89s1.92-3.99,4.71-3.99h4.19Zm0,1.37h-4.02c-2.02,0-2.99.95-2.99,2.52s1.12,2.44,2.79,2.44c1.4,0,3.12-.82,4.21-1.75v-3.22Z"/>
      <path class="cls-5" d="m453.24,95.55v-9.63c0-1.5-.75-2.42-2.49-2.42-1.42,0-3.22.77-5.04,1.82v10.23h-1.85v-13.44h1.75v1.7c1.97-1.12,3.92-2,5.64-2,2.54,0,3.84,1.35,3.84,3.79v9.95h-1.85Z"/>
      <path class="cls-5" d="m463.69,95.55h-.97l-4.46-13.44h2.02l3.69,11.47h.32l3.69-11.47h2.02l-6.04,18.56h-1.97l1.7-5.11Z"/>
    </g>
    <g>
      <path class="cls-5" d="m143.57,4.91c4,0,8.13.4,12.8,1.6v7.67c-2.93-.93-7.6-2-11.27-2-9.33,0-15.06,4.67-15.06,17.26,0,13.4,6.73,17.8,14.6,17.8,3.73,0,8.13-.87,11.87-2.33v7.53c-4.2,1.47-9.2,2.07-12.87,2.07-15,0-22.2-9.27-22.2-24.86s7.6-24.73,22.13-24.73Z"/>
      <path class="cls-5" d="m180.35,16.51c10,0,18.33,5.6,18.33,19s-8.33,19-18.33,19-18.26-5.47-18.26-19,8.27-19,18.26-19Zm.07,31c6.93,0,9.8-4.47,9.8-12s-2.87-11.93-9.8-11.93-9.93,4.47-9.93,11.93,2.93,12,9.93,12Z"/>
      <path class="cls-5" d="m263.69,52.17c-4.87,1.47-9.13,2.33-14.26,2.33-11.87,0-18.13-5.87-18.13-19s6.47-19,17.26-19c12.73,0,15.8,8.4,15.8,17.46v3.73h-24.46c.07,7,4.27,9.67,11.47,9.67,3.4,0,8.33-1,12.33-2.27v7.07Zm-7.67-20.4c-.07-4-1.2-8.8-7.93-8.8-5.53,0-8.33,3.93-8.33,8.8h16.27Z"/>
      <path class="cls-5" d="m281.05,53.7h-8.13V2.84h8.13v50.86Z"/>
      <path class="cls-5" d="m299.61,53.7h-8.13V2.84h8.13v50.86Z"/>
      <path class="cls-5" d="m318.16,12.38h-8.4V4.24h8.4v8.13Zm-.07,41.33h-8.2V17.31h8.2v36.4Z"/>
      <path class="cls-5" d="m342.47,16.51h22.8l-2.8,6.6h-7.14c1.8,1.53,2.87,3.87,2.87,6.8,0,9.4-7.87,12.13-15.8,12.13-1.53,0-3.13-.07-4.6-.27-.6.8-1.07,1.8-1.07,3,0,1.47.8,2.6,2.87,2.6h10.87c5.8,0,11.2,1.73,11.2,9.27,0,7.93-7.2,11.53-19.73,11.53-10.73,0-15.66-2.93-15.66-8.73,0-3.27,1.4-6.4,6.13-8v-.33c-1.93-1.13-2.87-3.13-2.87-4.8,0-2.13,1.13-4.6,3.4-6.33-3.73-1.8-6.13-5.27-6.13-10.27,0-8.2,5.93-13.2,15.66-13.2Zm-2.47,37.13c-3.2.47-5.33,1.93-5.33,4.8,0,3.27,2.8,4,8.33,4,6.67,0,10.2-1.13,10.2-5,0-2.53-1.73-3.8-4.53-3.8h-8.67Zm2.6-30.8c-5.33,0-7.47,2.67-7.47,6.8s2.13,6.67,7.47,6.67,7.4-2.47,7.4-6.73-2.2-6.73-7.4-6.73Z"/>
      <path class="cls-5" d="m399.9,52.17c-4.87,1.47-9.13,2.33-14.27,2.33-11.87,0-18.13-5.87-18.13-19s6.47-19,17.26-19c12.73,0,15.8,8.4,15.8,17.46v3.73h-24.46c.07,7,4.27,9.67,11.47,9.67,3.4,0,8.33-1,12.33-2.27v7.07Zm-7.67-20.4c-.07-4-1.2-8.8-7.93-8.8-5.53,0-8.33,3.93-8.33,8.8h16.26Z"/>
      <path class="cls-5" d="m432.59,53.7v-22.54c0-5.42-3.02-7.26-6.55-7.26-3,0-5.25.57-8.92,2.57v27.22h-8.13V17.31h7.6s0,3.22,0,3.21c3.43-2.31,7.85-4.01,11.92-4.01,6.6,0,12.22,2.8,12.22,13.38v23.81h-8.13Z"/>
      <path class="cls-5" d="m216.77,23.21v18.07c0,3.72.62,6.33,3.99,6.33,1.38,0,3.1-.55,4.54-1.1l1.1,6.06c-2.06,1.24-5.16,2-7.98,2-6.88,0-9.84-4.13-9.84-12.11v-19.24h-5.92v-6.83h5.92V6.67l8.19-3.92v13.63h8.81v6.83h-8.81Z"/>
      <path class="cls-5" d="m460.74,23.21v18.07c0,3.72.62,6.33,3.99,6.33,1.38,0,3.1-.55,4.54-1.1l1.1,6.06c-2.06,1.24-5.16,2-7.98,2-6.88,0-9.84-4.13-9.84-12.11v-19.24h-5.92v-6.83h5.92V6.67l8.19-3.92v13.63h8.81v6.83h-8.81Z"/>
    </g>
    <g class="cls-6">
      <rect class="cls-4" x="1.6" y=".07" width="96.8" height="97.62"/>
    </g>
  </g>
</svg>