<?xml version="1.0" encoding="utf-8"?>
<!-- Generator: Adobe Illustrator 27.7.0, SVG Export Plug-In . SVG Version: 6.00 Build 0)  -->
<svg version="1.1" id="Component_45_1" xmlns="http://www.w3.org/2000/svg" xmlns:xlink="http://www.w3.org/1999/xlink" x="0px"
	 y="0px" viewBox="0 0 1920 752" style="enable-background:new 0 0 1920 752;" xml:space="preserve">
<style type="text/css">
	.st0{clip-path:url(#SVGID_00000145763434537446282740000016429027058072263834_);fill:#042670;}
	.st1{clip-path:url(#SVGID_00000145763434537446282740000016429027058072263834_);fill:#042771;}
	.st2{clip-path:url(#SVGID_00000145763434537446282740000016429027058072263834_);fill:#052772;}
	.st3{clip-path:url(#SVGID_00000145763434537446282740000016429027058072263834_);fill:#052773;}
	.st4{clip-path:url(#SVGID_00000145763434537446282740000016429027058072263834_);fill:#052874;}
	.st5{clip-path:url(#SVGID_00000145763434537446282740000016429027058072263834_);fill:#052875;}
	.st6{clip-path:url(#SVGID_00000145763434537446282740000016429027058072263834_);fill:#062876;}
	.st7{clip-path:url(#SVGID_00000145763434537446282740000016429027058072263834_);fill:#062977;}
	.st8{clip-path:url(#SVGID_00000145763434537446282740000016429027058072263834_);fill:#062978;}
	.st9{clip-path:url(#SVGID_00000145763434537446282740000016429027058072263834_);fill:#072979;}
	.st10{clip-path:url(#SVGID_00000145763434537446282740000016429027058072263834_);fill:#072A7A;}
	.st11{clip-path:url(#SVGID_00000145763434537446282740000016429027058072263834_);fill:#072A7B;}
	.st12{clip-path:url(#SVGID_00000145763434537446282740000016429027058072263834_);fill:#072A7C;}
	.st13{clip-path:url(#SVGID_00000145763434537446282740000016429027058072263834_);fill:#082B7D;}
	.st14{clip-path:url(#SVGID_00000145763434537446282740000016429027058072263834_);fill:#082B7E;}
	.st15{clip-path:url(#SVGID_00000145763434537446282740000016429027058072263834_);fill:#082B7F;}
	.st16{clip-path:url(#SVGID_00000145763434537446282740000016429027058072263834_);fill:#092C80;}
	.st17{clip-path:url(#SVGID_00000145763434537446282740000016429027058072263834_);fill:#092C81;}
	.st18{clip-path:url(#SVGID_00000145763434537446282740000016429027058072263834_);fill:#092C82;}
	.st19{clip-path:url(#SVGID_00000145763434537446282740000016429027058072263834_);fill:#092D83;}
	.st20{fill:#FFFFFF;}
	.st21{fill:#6CDD6C;}
	.st22{fill:#50AA50;}
	.st23{fill:#405B91;}
	.st24{fill:#415B91;}
	.st25{fill-rule:evenodd;clip-rule:evenodd;fill:#B6D0FB;}
	.st26{fill:#B6D0FB;}
	.st27{fill:#3F5B91;}
	.st28{fill:#D7E7FF;}
	.st29{enable-background:new    ;}
	.st30{fill:#173CB4;}
	.st31{fill:#000F2B;}
</style>
<g id="Rectangle_2267">
	<g>
		<defs>
			<rect id="SVGID_1_" width="1920" height="471"/>
		</defs>
		<clipPath id="SVGID_00000103222643272707460380000005762149096087352228_">
			<use xlink:href="#SVGID_1_"  style="overflow:visible;"/>
		</clipPath>
		<polygon style="clip-path:url(#SVGID_00000103222643272707460380000005762149096087352228_);fill:#042670;" points="1920,22.6 
			1596.4,0 1920,0 		"/>
		<polygon style="clip-path:url(#SVGID_00000103222643272707460380000005762149096087352228_);fill:#042771;" points="1920,53.9 
			1148.5,0 1596.4,0 1920,22.6 		"/>
		<polygon style="clip-path:url(#SVGID_00000103222643272707460380000005762149096087352228_);fill:#052772;" points="1920,85.2 
			700.6,0 1148.5,0 1920,53.9 		"/>
		<polygon style="clip-path:url(#SVGID_00000103222643272707460380000005762149096087352228_);fill:#052773;" points="1920,116.5 
			252.7,0 700.6,0 1920,85.2 		"/>
		<polygon style="clip-path:url(#SVGID_00000103222643272707460380000005762149096087352228_);fill:#052874;" points="1920,147.8 
			0,13.6 0,0 252.7,0 1920,116.5 		"/>
		<polygon style="clip-path:url(#SVGID_00000103222643272707460380000005762149096087352228_);fill:#052875;" points="1920,179.1 
			0,44.9 0,13.6 1920,147.8 		"/>
		<polygon style="clip-path:url(#SVGID_00000103222643272707460380000005762149096087352228_);fill:#062876;" points="1920,210.3 
			0,76.2 0,44.9 1920,179.1 		"/>
		<polygon style="clip-path:url(#SVGID_00000103222643272707460380000005762149096087352228_);fill:#062977;" points="1920,241.6 
			0,107.5 0,76.2 1920,210.3 		"/>
		<polygon style="clip-path:url(#SVGID_00000103222643272707460380000005762149096087352228_);fill:#062978;" points="1920,272.9 
			0,138.8 0,107.5 1920,241.6 		"/>
		<polygon style="clip-path:url(#SVGID_00000103222643272707460380000005762149096087352228_);fill:#072979;" points="1920,304.2 
			0,170.1 0,138.8 1920,272.9 		"/>
		<polygon style="clip-path:url(#SVGID_00000103222643272707460380000005762149096087352228_);fill:#072A7A;" points="1920,335.5 
			0,201.4 0,170.1 1920,304.2 		"/>
		<polygon style="clip-path:url(#SVGID_00000103222643272707460380000005762149096087352228_);fill:#072A7B;" points="1920,366.8 
			0,232.7 0,201.4 1920,335.5 		"/>
		<polygon style="clip-path:url(#SVGID_00000103222643272707460380000005762149096087352228_);fill:#072A7C;" points="1920,398.1 
			0,264 0,232.7 1920,366.8 		"/>
		<polygon style="clip-path:url(#SVGID_00000103222643272707460380000005762149096087352228_);fill:#082B7D;" points="1920,429.4 
			0,295.3 0,264 1920,398.1 		"/>
		<polygon style="clip-path:url(#SVGID_00000103222643272707460380000005762149096087352228_);fill:#082B7E;" points="1920,460.7 
			0,326.5 0,295.3 1920,429.4 		"/>
		<polygon style="clip-path:url(#SVGID_00000103222643272707460380000005762149096087352228_);fill:#082B7F;" points="1619.9,471 
			0,357.8 0,326.5 1920,460.7 1920,471 		"/>
		<polygon style="clip-path:url(#SVGID_00000103222643272707460380000005762149096087352228_);fill:#092C80;" points="1172,471 
			0,389.1 0,357.8 1619.9,471 		"/>
		<polygon style="clip-path:url(#SVGID_00000103222643272707460380000005762149096087352228_);fill:#092C81;" points="724.1,471 
			0,420.4 0,389.1 1172,471 		"/>
		<polygon style="clip-path:url(#SVGID_00000103222643272707460380000005762149096087352228_);fill:#092C82;" points="276.1,471 
			0,451.7 0,420.4 724.1,471 		"/>
		<polygon style="clip-path:url(#SVGID_00000103222643272707460380000005762149096087352228_);fill:#092D83;" points="0,451.7 
			276.1,471 0,471 		"/>
	</g>
</g>
<g id="Rectangle_2306">
	<path class="st20" d="M662,149h560c40.3,0,73,32.7,73,73v286c0,40.3-32.7,73-73,73H662c-40.3,0-73-32.7-73-73V222
		C589,181.7,621.7,149,662,149z"/>
</g>
<g id="OBJECTS" transform="translate(662 228)">
	<g id="Group_3385">
		<g id="Group_3323" transform="translate(348.555 333.592)">
			<g id="Group_3322" transform="translate(5.556)">
				<g id="Path_84998">
					<path class="st21" d="M21,6.5C20.4,4,18.5,1.9,16.1,1c-2.5-0.8-5.6,0.4-6.3,2.9C7.5,2,4,3.5,2.2,5.8C-0.7,9.5,1.5,15.7,2,16.1
						c0.6,0.3,1.3,0.4,2,0.4l22-0.1c2-0.1,4-0.5,5.9-1c3.8-1.5,6.3-7.9,3.9-11.2c-1.6-2.2-4.9-2.7-7.5-1.8C25.6,3.2,23.1,4.6,21,6.5
						"/>
				</g>
				<g id="Path_84999">
					<path class="st22" d="M3.7,17.2c-0.7,0-1.5-0.1-2.1-0.5c-0.9-0.8-3.1-7.4,0-11.4c1.3-1.6,3.1-2.7,5.1-3c0.9-0.1,1.8,0,2.7,0.5
						c0.5-0.9,1.3-1.6,2.2-2.1c1.5-0.8,3.1-0.9,4.7-0.4c2.3,0.9,4.2,2.7,5.1,5c2-1.6,4.2-2.9,6.7-3.8c2.6-0.8,6.3-0.5,8.3,2.1
						c1.2,1.8,1.4,4.1,0.7,6.1c-0.8,2.9-2.7,5.3-4.9,6.1c-2,0.6-4,1-6.1,1.1L4,17.1L3.7,17.2L3.7,17.2z M7.3,3.7c-0.1,0-0.3,0-0.4,0
						C5.3,4,3.8,4.9,2.8,6.2C0.2,9.5,2.1,15,2.5,15.6c0.5,0.1,0.9,0.2,1.4,0.1l22-0.1c1.9-0.1,3.8-0.5,5.6-1c2-1.1,3.5-2.9,4-5.2
						C36.1,7.8,35.9,6,35,4.5c-1.5-2.1-4.6-2.3-6.7-1.6c-2.6,0.9-4.9,2.3-7,4.1c-0.2,0.2-0.4,0.2-0.7,0.2c-0.2-0.1-0.4-0.3-0.5-0.5
						c-0.6-2.3-2.2-4.2-4.5-5.1c-1.2-0.4-2.5-0.2-3.6,0.3c-0.9,0.4-1.5,1.2-1.8,2.1c-0.1,0.2-0.3,0.4-0.5,0.5S9.2,4.5,9,4.4
						C8.7,3.9,8.1,3.7,7.3,3.7L7.3,3.7z"/>
				</g>
			</g>
			<g id="Path_85000">
				<path class="st22" d="M3.5,5.7C2.8,6.9,2.6,8.3,2.7,9.6c0.1,0.7,1.2,0.7,1.1,0C3.7,8.5,3.9,7.3,4.4,6.3C4.7,5.6,3.8,5.1,3.5,5.7
					L3.5,5.7z"/>
			</g>
			<g id="Path_85001">
				<path class="st22" d="M0.3,6.6C0,7.8-0.1,9.1,0.2,10.3c0.1,0.7,1.2,0.4,1-0.3C1,9,1,7.9,1.3,6.9c0.1-0.3-0.1-0.6-0.4-0.7
					C0.6,6.2,0.4,6.3,0.3,6.6L0.3,6.6L0.3,6.6z"/>
			</g>
			<g id="Path_85002">
				<path class="st22" d="M6.4,4.4c0.3,0,0.5-0.3,0.5-0.6S6.7,3.3,6.4,3.3S5.9,3.6,5.9,3.9C5.9,4.1,6.1,4.4,6.4,4.4z"/>
			</g>
			<g id="Path_85003">
				<path class="st22" d="M9.5,9.6v1c0,0.3,0.3,0.5,0.6,0.5s0.5-0.2,0.5-0.5v-1c0-0.3-0.3-0.5-0.6-0.5S9.5,9.4,9.5,9.6L9.5,9.6z"/>
			</g>
			<g id="Path_85004">
				<path class="st22" d="M27.9,11.3v0.5c0,0.3,0.3,0.5,0.6,0.5c0.3,0,0.5-0.2,0.5-0.5v-0.5c0-0.3-0.3-0.5-0.6-0.5
					C28.1,10.8,27.9,11.1,27.9,11.3z"/>
			</g>
			<g id="Path_85005">
				<path class="st22" d="M25.8,10l0.2,0.2c0.2,0.2,0.6,0.2,0.8,0c0.2-0.2,0.2-0.5,0-0.7l-0.2-0.2c-0.2-0.2-0.6-0.2-0.8,0
					C25.7,9.5,25.7,9.8,25.8,10z"/>
			</g>
		</g>
		<g id="Path_85006">
			<path class="st23" d="M64.9,319.6H28c-0.8,0-1.5-0.7-1.5-1.5s0.7-1.5,1.5-1.5h36.9c0.8,0,1.5,0.7,1.5,1.5
				C66.4,319,65.7,319.6,64.9,319.6L64.9,319.6z"/>
		</g>
		<g id="Path_85007">
			<path class="st20" d="M389.6,191.7h-1c0-0.9-0.7-1.6-1.6-1.6s-1.6,0.7-1.6,1.6h-1c0-1.5,1.2-2.6,2.7-2.6
				C388.4,189.2,389.5,190.3,389.6,191.7L389.6,191.7z"/>
		</g>
		<g id="Path_85008">
			<path class="st20" d="M393.3,130.4h-1c0-0.9-0.7-1.6-1.6-1.6s-1.6,0.7-1.6,1.6h-1c0-1.5,1.2-2.6,2.7-2.6
				C392.2,127.9,393.3,129,393.3,130.4L393.3,130.4z"/>
		</g>
		<g id="Path_85009">
			<path class="st24" d="M262.3,343.5h-50.1l0.9-2c3.3-7.8,3.6-14.5,3.1-22.1l-0.1-1.5l42.2-0.1v1.4c0,4.9,1.4,16.1,3.4,22.4
				L262.3,343.5L262.3,343.5z M216.5,340.6h41.9c-1.6-6.6-2.6-13.2-2.9-20l-36.3,0.1C219.4,327.5,219,333.7,216.5,340.6L216.5,340.6
				z"/>
		</g>
		<g id="Path_85010">
			<path class="st24" d="M197.7,320.6c-38,0-68.9-0.2-70.2-0.7c-3.3-1.2-7.5-5.7-7.6-8.9c-0.1-6.9-0.4-16.4-0.8-27.3
				c-1-33-2.5-78.1-0.6-103.1c0.3-4.5,4.1-8,8.6-8.1h0.1l219.3,0.3c4.7,0.1,8.4,3.9,8.5,8.5c0.2,7.3,0.4,14.8,0.6,22.3
				c1,31.6,2,64.4-1.5,95.3c-0.1,1.2-0.2,2.6-0.3,4c-0.3,6.5-0.7,14.6-9,16.2C340.9,320.1,259.7,320.6,197.7,320.6L197.7,320.6z
				 M127.2,174.9c-3.3,0-6.1,2.6-6.3,5.9c-1.8,24.9-0.4,69.9,0.6,102.8c0.3,10.9,0.6,20.4,0.8,27.3c0,2,3.4,5.8,6,6.7
				c4.7,1,210.9,0.3,216.2-0.8c6.6-1.3,6.9-7.8,7.2-14c0.1-1.5,0.1-2.9,0.3-4.1c3.5-30.8,2.5-63.4,1.4-95c-0.2-7.6-0.5-15-0.6-22.3
				c0-3.4-2.8-6.2-6.2-6.2L127.2,174.9L127.2,174.9L127.2,174.9z"/>
		</g>
		<g id="Path_85011">
			<path class="st25" d="M340.5,180.5l-206.7-0.3c-3.7-0.1-6.8,2.5-7.1,5.8c-2.3,27.7,0.8,85.4,1.3,108.6c0,2.3,3.7,5.7,6.4,6.5
				c3.1,1,199.5,0.2,204.3-0.6c8.6-1.5,7.2-10.3,7.9-16c4.1-31.9,1.6-66.7,0.8-97.9C347.3,183.2,344.3,180.5,340.5,180.5
				L340.5,180.5z"/>
		</g>
		<g id="Path_85012">
			<path class="st24" d="M280.2,351.4h-86c-3-0.1-5.3-2.5-5.2-5.5c0.1-2.8,2.4-5.1,5.2-5.2h86c3,0.1,5.3,2.5,5.2,5.5
				C285.3,349.1,283,351.4,280.2,351.4L280.2,351.4z M194.2,343.1c-1.7,0.1-2.9,1.5-2.9,3.1c0.1,1.5,1.3,2.8,2.9,2.9h86
				c1.7-0.1,2.9-1.5,2.9-3.1c-0.1-1.5-1.3-2.8-2.9-2.9H194.2z"/>
		</g>
		<g id="Group_3324" transform="translate(131.406 306.459)">
			<g id="Path_85013">
				<path class="st24" d="M2.9,6c3.9,0,3.9-6,0-6S-1,6,2.9,6z"/>
			</g>
			<g id="Path_85014">
				<path class="st24" d="M15,6c3.9,0,3.9-6,0-6S11.1,6,15,6z"/>
			</g>
			<g id="Path_85015">
				<path class="st24" d="M27.1,6c3.9,0,3.9-6,0-6S23.2,6,27.1,6z"/>
			</g>
		</g>
		<g id="Path_85016">
			<path class="st24" d="M237.2,178.7c0.8,0,1.4-0.7,1.4-1.4s-0.6-1.4-1.4-1.4c-0.8,0-1.4,0.7-1.4,1.4S236.4,178.6,237.2,178.7z"/>
		</g>
		<g id="Group_3325" transform="translate(447.611 308.307)">
			<g id="Path_85017">
				<path class="st26" d="M32.1,37.4H2.4L13.8,0h6.8L32.1,37.4z"/>
			</g>
			<g id="Rectangle_2268">
				<rect x="0" y="37.4" class="st26" width="34.5" height="4.3"/>
			</g>
			<g id="Path_85018">
				<path class="st24" d="M5.3,28.1l-2.9,9.4H32l-2.8-9.4H5.3z"/>
			</g>
			<g id="Path_85019">
				<path class="st24" d="M8.1,18.7h18.2l-2.8-9.4H11L8.1,18.7z"/>
			</g>
		</g>
		<g id="Path_85020">
			<path class="st26" d="M491.8,349.8h6.6v-25.5h33.7v25.5h6.6v-25.5h7V304h-5.6v-1.9h-9.6v1.9h-29.9v-1.9H491v1.9h-6.1v20.3h6.8
				L491.8,349.8L491.8,349.8z M543.5,306.1L543.5,306.1l-4,16.1h-7.2l4.1-16.1H543.5L543.5,306.1z M524.7,322.2h-7.2l4.1-16.1h7.2
				L524.7,322.2z M509.9,322.2h-7.2l4.1-16.1h7.2L509.9,322.2z M491.9,306.1h7.2l-4.1,16.1h-7.2L491.9,306.1z"/>
		</g>
		<g id="Group_3326" transform="translate(139.079 69.652)">
			<g id="Path_85021">
				<path class="st26" d="M29.4,31.3l2-2c0.4-0.4,0.4-1,0-1.4l0,0l-1.7-1.7c-0.4-0.4-0.5-1.1-0.2-1.6l1.4-3.4c0.2-0.6,0.7-1,1.3-1
					h2.4c0.6,0,1-0.5,1-1v-2.8c0-0.6-0.5-1-1-1h-2.4c-0.6,0-1.1-0.4-1.3-1L29.4,11c-0.3-0.5-0.2-1.2,0.2-1.6l1.7-1.7
					c0.4-0.4,0.4-1,0-1.4l0,0l-2-2c-0.4-0.4-1-0.4-1.4,0L26.2,6c-0.4,0.4-1.1,0.5-1.6,0.2l-3.4-1.4c-0.6-0.2-1-0.7-1-1.3V1
					c0-0.6-0.5-1-1-1h-2.8c-0.6,0-1,0.5-1,1v2.4c0,0.6-0.4,1.1-1,1.3L11,6.2C10.5,6.5,9.8,6.4,9.4,6L7.6,4.2c-0.4-0.4-1-0.4-1.4,0
					l0,0l-2,2c-0.4,0.4-0.4,1,0,1.4l0,0l1.7,1.7c0.4,0.4,0.5,1.1,0.2,1.6l-1.4,3.4c-0.2,0.6-0.7,1-1.3,1H1c-0.6,0-1,0.4-1,1l0,0v2.8
					c0,0.6,0.5,1,1,1h2.4c0.6,0,1.1,0.4,1.3,1l1.4,3.4c0.3,0.5,0.2,1.2-0.2,1.6l-1.7,1.7c-0.4,0.4-0.4,1,0,1.4l0,0l2,2
					c0.4,0.4,1,0.4,1.4,0l0,0l1.7-1.7c0.4-0.4,1.1-0.5,1.6-0.2l3.4,1.4c0.6,0.2,1,0.7,1,1.3v2.4c0,0.6,0.5,1,1,1h2.8
					c0.6,0,1-0.5,1-1V32c0-0.6,0.4-1.1,1-1.3l3.4-1.4c0.5-0.3,1.2-0.2,1.6,0.2l1.7,1.7C28.3,31.7,28.9,31.7,29.4,31.3
					C29.3,31.3,29.3,31.3,29.4,31.3L29.4,31.3z M17.8,25.9c-4.5,0-8.2-3.6-8.1-8.2c0-4.5,3.6-8.1,8.2-8.1c4.5,0,8.1,3.6,8.1,8.1
					C25.9,22.2,22.3,25.9,17.8,25.9z"/>
			</g>
			<g id="Path_85022">
				<path class="st26" d="M48.2,39l-0.5-1.7c-0.1-0.3-0.5-0.5-0.8-0.4l-1.4,0.4c-0.4,0.1-0.7,0-1-0.3l-1.4-1.8
					c-0.2-0.3-0.3-0.7-0.2-1l0.7-1.3c0.2-0.3,0.1-0.7-0.3-0.9l-1.5-0.8c-0.3-0.2-0.7,0-0.9,0.3l0,0l-0.7,1.3
					c-0.2,0.3-0.6,0.5-0.9,0.4L37.1,33c-0.4,0-0.7-0.3-0.8-0.6L35.8,31c-0.1-0.3-0.4-0.5-0.8-0.4l0,0l-1.7,0.5
					c-0.3,0.1-0.5,0.5-0.4,0.8l0.4,1.4c0.1,0.4,0,0.7-0.3,1l-1.8,1.4c-0.3,0.3-0.7,0.3-1,0.2L29,35.1c-0.3-0.2-0.7-0.1-0.8,0.2l0,0
					l-0.8,1.5c-0.2,0.3,0,0.7,0.3,0.9l1.3,0.7c0.3,0.2,0.5,0.5,0.4,0.9l-0.2,2.3c0,0.4-0.3,0.7-0.6,0.8l-1.4,0.4
					c-0.3,0.1-0.5,0.4-0.4,0.8l0,0l0.5,1.7c0.1,0.3,0.4,0.5,0.8,0.4l0,0l1.4-0.4c0.4-0.1,0.7,0,1,0.3l1.4,1.8c0.3,0.3,0.3,0.7,0.2,1
					l-0.7,1.3c-0.2,0.3,0,0.7,0.3,0.9l0,0l1.5,0.8c0.3,0.2,0.7,0,0.9-0.3l0.7-1.3c0.2-0.3,0.5-0.5,0.9-0.4l2.3,0.2
					c0.4,0,0.7,0.3,0.8,0.6l0.4,1.4c0.1,0.3,0.4,0.5,0.8,0.4l0,0l1.7-0.5c0.3-0.1,0.5-0.5,0.4-0.8l-0.4-1.4c-0.1-0.4,0-0.7,0.4-1
					l1.8-1.4c0.3-0.3,0.7-0.3,1-0.2l1.3,0.7c0.3,0.2,0.7,0.1,0.8-0.2l0,0l0.8-1.5c0.2-0.3,0-0.7-0.3-0.9l0,0l-1.3-0.7
					c-0.3-0.2-0.5-0.5-0.4-0.9l0.2-2.3c0-0.4,0.3-0.7,0.6-0.8l1.4-0.4C48.1,39.7,48.3,39.3,48.2,39L48.2,39L48.2,39z M41.9,43.7
					c2.1,0,3.7-1.7,3.7-3.7c0-2.1-1.7-3.7-3.7-3.7S38.2,38,38.2,40C38.1,42,39.8,43.7,41.9,43.7L41.9,43.7z"/>
			</g>
		</g>
		<g id="Path_85023">
			<path class="st23" d="M269.7,140.5h-45.6c-0.8,0-1.5-0.7-1.5-1.5s0.7-1.5,1.5-1.5h45.6c0.8,0,1.5,0.7,1.5,1.5
				C271.2,139.9,270.5,140.5,269.7,140.5L269.7,140.5z"/>
		</g>
		<g id="Path_85024">
			<path class="st23" d="M176.8,161.3h-73.7c-0.8,0-1.5-0.7-1.5-1.5s0.7-1.5,1.5-1.5h73.7c0.8,0,1.5,0.7,1.5,1.5
				S177.6,161.3,176.8,161.3L176.8,161.3z"/>
		</g>
		<g id="Path_85025">
			<path class="st23" d="M530.3,200.5h-73.7c-0.8,0-1.5-0.7-1.5-1.5s0.7-1.5,1.5-1.5h73.7c0.8,0,1.5,0.7,1.5,1.5
				S531.1,200.5,530.3,200.5L530.3,200.5z"/>
		</g>
		<g id="Path_85026">
			<path class="st23" d="M559.3,352.9H1.5c-0.8,0-1.5-0.7-1.5-1.5s0.7-1.5,1.5-1.5h557.9c0.8,0,1.5,0.7,1.5,1.5
				C560.8,352.2,560.1,352.9,559.3,352.9z"/>
		</g>
		<g id="Group_3327" transform="translate(332.351 122.29)">
			<g id="Path_85027">
				<path class="st26" d="M22.3,0c-6.5,0-11.7,5.2-11.7,11.7c0,2.1,0.6,4.1,1.6,5.9l0.2,0.3L0.6,29.8C0.2,30.2,0,30.7,0,31.2
					c0,0.7,0.4,1.4,0.9,1.8c0.5,0.6,1.2,0.9,2,1c0.5,0,1-0.2,1.4-0.5l11.8-11.8l0.3,0.2c5.6,3.3,12.8,1.4,16-4.2s1.4-12.8-4.2-16
					C26.5,0.6,24.4,0,22.3,0L22.3,0z M22.3,19.9c-4.5,0-8.2-3.7-8.2-8.2s3.7-8.2,8.2-8.2l0,0c4.5,0,8.2,3.7,8.2,8.2
					S26.9,19.9,22.3,19.9z"/>
			</g>
			<g id="Path_85028">
				<path class="st26" d="M18,13.4h8.5v-2.2H18V13.4z"/>
			</g>
		</g>
		<g id="Group_3328" transform="translate(135.747 235.449)">
			<g id="Path_85029">
				<path class="st23" d="M1.5,114.8c-0.8,0-1.5-0.7-1.5-1.5l0,0V1.5C0,0.7,0.7,0,1.5,0S3,0.7,3,1.5v111.8
					C2.9,114.1,2.3,114.8,1.5,114.8L1.5,114.8z"/>
			</g>
			<g id="Path_85030">
				<path class="st23" d="M27.5,114.8c-0.8,0-1.5-0.7-1.5-1.5l0,0V1.5C26,0.7,26.7,0,27.5,0S29,0.7,29,1.5v111.8
					C28.9,114.1,28.3,114.8,27.5,114.8L27.5,114.8z"/>
			</g>
			<g id="Path_85031">
				<path class="st23" d="M27.5,10.5h-26C0.7,10.5,0,9.9,0,9.1s0.7-1.5,1.5-1.5h26c0.8,0,1.5,0.7,1.5,1.5S28.3,10.5,27.5,10.5z"/>
			</g>
			<g id="Path_85032">
				<path class="st23" d="M27.5,23.3h-26c-0.8,0-1.5-0.7-1.5-1.5s0.7-1.5,1.5-1.5h26c0.8,0,1.5,0.7,1.5,1.5S28.3,23.3,27.5,23.3z"/>
			</g>
			<g id="Path_85033">
				<path class="st23" d="M27.5,36.1h-26c-0.8,0-1.5-0.7-1.5-1.5s0.7-1.5,1.5-1.5h26c0.8,0,1.5,0.7,1.5,1.5S28.3,36.1,27.5,36.1z"/>
			</g>
			<g id="Path_85034">
				<path class="st23" d="M27.5,48.9h-26c-0.8,0-1.5-0.7-1.5-1.5S0.7,46,1.5,46h26c0.8,0,1.5,0.7,1.5,1.5S28.3,48.9,27.5,48.9z"/>
			</g>
			<g id="Path_85035">
				<path class="st23" d="M27.5,61.7h-26C0.7,61.7,0,61,0,60.2s0.7-1.5,1.5-1.5h26c0.8,0,1.5,0.7,1.5,1.5S28.3,61.7,27.5,61.7z"/>
			</g>
			<g id="Path_85036">
				<path class="st23" d="M27.5,74.4h-26C0.7,74.4,0,73.8,0,73s0.7-1.5,1.5-1.5h26c0.8,0,1.5,0.7,1.5,1.5S28.3,74.4,27.5,74.4z"/>
			</g>
			<g id="Path_85037">
				<path class="st23" d="M27.5,87.2h-26c-0.8,0-1.5-0.7-1.5-1.5s0.7-1.5,1.5-1.5h26c0.8,0,1.5,0.7,1.5,1.5S28.3,87.2,27.5,87.2z"/>
			</g>
			<g id="Path_85038">
				<path class="st23" d="M27.5,100h-26C0.7,100,0,99.3,0,98.5S0.7,97,1.5,97h26c0.8,0,1.5,0.7,1.5,1.5S28.3,100,27.5,100z"/>
			</g>
		</g>
		<g id="Group_3329" transform="translate(97.518 233.755)">
			<g id="Path_85039">
				<path class="st23" d="M4.3,8.6c-0.8,0-1.5-0.7-1.5-1.5l0,0V1.5C2.8,0.7,3.5,0,4.3,0s1.5,0.7,1.5,1.5v5.7
					C5.8,7.9,5.1,8.6,4.3,8.6L4.3,8.6z"/>
			</g>
			<g id="Path_85040">
				<path class="st23" d="M7.1,5.7H1.5C0.7,5.7,0,5.1,0,4.3s0.7-1.5,1.5-1.5h5.7c0.8,0,1.5,0.7,1.5,1.5S7.9,5.7,7.1,5.7L7.1,5.7z"/>
			</g>
		</g>
		<g id="Group_3330" transform="translate(228.125 31.507)">
			<g id="Path_85041">
				<path class="st23" d="M4.3,8.6c-0.8,0-1.5-0.7-1.5-1.5l0,0V1.5C2.8,0.7,3.5,0,4.3,0s1.5,0.7,1.5,1.5v5.7
					C5.7,7.9,5.1,8.6,4.3,8.6L4.3,8.6L4.3,8.6z"/>
			</g>
			<g id="Path_85042">
				<path class="st23" d="M7.1,5.7H1.5C0.7,5.7,0,5.1,0,4.3s0.7-1.5,1.5-1.5h5.7c0.8,0,1.5,0.7,1.5,1.5C8.6,5.1,7.9,5.7,7.1,5.7
					L7.1,5.7z"/>
			</g>
		</g>
		<g id="Group_3331" transform="translate(271.309 326.445)">
			<g id="Path_85043">
				<path class="st23" d="M6.9,6.4c-0.1,0-0.3,0-0.4-0.1L1.1,4.8c-0.8-0.2-1.2-1-1-1.8s1-1.2,1.8-1l5.4,1.6c0.8,0.2,1.2,1,1,1.8
					C8.1,6,7.5,6.4,6.9,6.4L6.9,6.4z"/>
			</g>
			<g id="Path_85044">
				<path class="st23" d="M3.4,8.3c-0.1,0-0.3,0-0.4-0.1C2.2,8,1.8,7.2,2,6.4l0,0L3.5,1c0.2-0.8,1-1.2,1.8-1s1.2,1,1,1.8L4.8,7.3
					C4.6,7.9,4,8.3,3.4,8.3L3.4,8.3z"/>
			</g>
		</g>
		<g id="Group_3332" transform="translate(242.757 155.643)">
			<g id="Path_85045">
				<path class="st23" d="M6.9,6.4c-0.1,0-0.3,0-0.4-0.1L1.1,4.8c-0.8-0.2-1.2-1-1-1.8s1-1.2,1.8-1l5.4,1.6c0.8,0.2,1.2,1,1,1.8
					C8.1,6,7.5,6.4,6.9,6.4L6.9,6.4z"/>
			</g>
			<g id="Path_85046">
				<path class="st23" d="M3.4,8.3c-0.1,0-0.3,0-0.4-0.1C2.2,8,1.8,7.2,2,6.4l0,0L3.6,1c0.2-0.8,1-1.2,1.8-1s1.2,1,1,1.8L4.8,7.3
					C4.6,7.9,4,8.3,3.4,8.3L3.4,8.3z"/>
			</g>
		</g>
		<g id="Group_3337" transform="translate(217.294 79.985)">
			<g id="Ellipse_75">
				<circle class="st26" cx="28.5" cy="28.5" r="20.2"/>
			</g>
			<g id="Group_3333" transform="translate(12.833 12.842)">
				<g id="Ellipse_76">
					<circle class="st20" cx="15.7" cy="15.7" r="15.1"/>
				</g>
				<g id="Path_85047">
					<path class="st23" d="M15.7,31.4C7,31.4,0,24.4,0,15.7S7,0,15.7,0s15.7,7,15.7,15.7l0,0C31.4,24.4,24.4,31.4,15.7,31.4z
						 M15.7,1.2c-8,0-14.5,6.5-14.5,14.5s6.5,14.5,14.5,14.5s14.5-6.5,14.5-14.5l0,0C30.2,7.7,23.7,1.2,15.7,1.2z"/>
				</g>
			</g>
			<g id="Group_3334" transform="translate(27.929 20.25)">
				<g id="Path_85048">
					<path class="st23" d="M0.6,8.9C0.3,8.9,0,8.6,0,8.3V0.6C0,0.3,0.3,0,0.6,0s0.6,0.3,0.6,0.6v7.7C1.2,8.6,0.9,8.9,0.6,8.9z"/>
				</g>
				<g id="Path_85049">
					<path class="st23" d="M9.6,8.9h-9C0.3,8.9,0,8.6,0,8.3C0,8,0.3,7.7,0.6,7.7h9c0.3,0,0.6,0.3,0.6,0.6C10.2,8.6,9.9,8.9,9.6,8.9z
						"/>
				</g>
			</g>
			<g id="Group_3335" transform="translate(14.514 14.523)">
				<g id="Path_85050">
					<path class="st23" d="M14.6,0.6c0,0.3-0.3,0.6-0.6,0.6s-0.6-0.3-0.6-0.6S13.7,0,14,0S14.6,0.3,14.6,0.6L14.6,0.6z"/>
				</g>
				<g id="Path_85051">
					<path class="st23" d="M23.9,5c-0.2,0.2-0.6,0.2-0.8,0s-0.2-0.6,0-0.8s0.6-0.2,0.8,0l0,0C24.1,4.3,24.2,4.7,23.9,5
						C23.9,4.9,23.9,5,23.9,5z"/>
				</g>
				<g id="Path_85052">
					<path class="st23" d="M27.4,14.6c-0.3,0-0.6-0.3-0.6-0.6s0.3-0.6,0.6-0.6c0.3,0,0.6,0.3,0.6,0.6S27.7,14.6,27.4,14.6L27.4,14.6
						z"/>
				</g>
				<g id="Path_85053">
					<path class="st23" d="M23.1,23.9c-0.2-0.2-0.2-0.6,0-0.8l0,0c0.2-0.2,0.6-0.2,0.8,0c0.2,0.2,0.2,0.6,0,0.8
						C23.7,24.1,23.3,24.1,23.1,23.9z"/>
				</g>
				<g id="Path_85054">
					<path class="st23" d="M13.4,27.4c0-0.3,0.3-0.6,0.6-0.6s0.6,0.3,0.6,0.6c0,0.3-0.3,0.6-0.6,0.6S13.4,27.7,13.4,27.4L13.4,27.4z
						"/>
				</g>
				<g id="Path_85055">
					<path class="st23" d="M4.1,23.1c0.2-0.2,0.6-0.2,0.8,0l0,0c0.2,0.2,0.2,0.6,0,0.8c-0.2,0.2-0.6,0.2-0.8,0
						C3.9,23.7,3.9,23.3,4.1,23.1L4.1,23.1z"/>
				</g>
				<g id="Ellipse_77">
					<circle class="st23" cx="0.6" cy="14" r="0.6"/>
				</g>
				<g id="Path_85056">
					<path class="st23" d="M5,4.1c0.2,0.2,0.2,0.6,0,0.8c-0.2,0.2-0.6,0.2-0.8,0S4,4.3,4.2,4.1C4.4,3.9,4.7,3.9,5,4.1z"/>
				</g>
			</g>
			<g id="Group_3336" transform="translate(48.976 19.648)">
				<g id="Path_85057">
					<path class="st23" d="M9.1,1.2H0.6C0.3,1.2,0,0.9,0,0.6S0.3,0,0.6,0h8.5c0.3,0,0.6,0.3,0.6,0.6C9.6,0.9,9.4,1.2,9.1,1.2z"/>
				</g>
				<g id="Path_85058">
					<path class="st23" d="M9.1,17.8H0.6c-0.3,0-0.6-0.3-0.6-0.6c0-0.3,0.3-0.6,0.6-0.6h8.5c0.3,0,0.6,0.3,0.6,0.6
						C9.6,17.5,9.4,17.8,9.1,17.8z"/>
				</g>
				<g id="Path_85059">
					<path class="st23" d="M19.6,9.5H3.8c-0.3,0-0.6-0.3-0.6-0.6s0.3-0.6,0.6-0.6h15.8c0.3,0,0.6,0.3,0.6,0.6S19.9,9.5,19.6,9.5
						L19.6,9.5z"/>
				</g>
			</g>
		</g>
		<g id="Group_3340" transform="translate(303.392 326.302)">
			<g id="Group_3338">
				<g id="Rectangle_2269">
					<rect x="0.7" y="0.7" class="st20" width="9.4" height="9.4"/>
				</g>
				<g id="Path_85060">
					<path class="st24" d="M10.8,10.8H0V0h10.8V10.8z M1.5,9.4h7.9v-8H1.5V9.4z"/>
				</g>
			</g>
			<g id="Group_3339" transform="translate(12.855 1.61)">
				<g id="Path_85061">
					<path class="st23" d="M9.1,1.2H0.6C0.3,1.2,0,0.9,0,0.6S0.3,0,0.6,0l0,0h8.5c0.3,0,0.6,0.3,0.6,0.6S9.4,1.2,9.1,1.2L9.1,1.2z"
						/>
				</g>
				<g id="Path_85062">
					<path class="st23" d="M12.3,7.6H0.8C0.4,7.6,0,7.3,0,7s0.4-0.6,0.8-0.6h11.5C12.7,6.4,13,6.7,13,7S12.7,7.6,12.3,7.6z"/>
				</g>
				<g id="Path_85063">
					<path class="st23" d="M16.4,4.2H0.6C0.3,4.2,0,3.9,0,3.6S0.3,3,0.6,3l0,0h15.8C16.7,3,17,3.3,17,3.6S16.7,4.2,16.4,4.2z"/>
				</g>
			</g>
		</g>
		<g id="Group_3343" transform="translate(78.866 188.987)">
			<g id="Group_3341" transform="translate(19.058)">
				<g id="Rectangle_2270">
					<rect x="0.7" y="0.7" class="st20" width="9.4" height="9.4"/>
				</g>
				<g id="Path_85064">
					<path class="st24" d="M10.8,10.8H0V0h10.8V10.8z M1.5,9.4h7.9V1.5H1.5V9.4z"/>
				</g>
			</g>
			<g id="Group_3342" transform="translate(0 1.61)">
				<g id="Path_85065">
					<path class="st23" d="M7.9,1.2h8.5c0.3,0,0.6-0.3,0.6-0.6S16.7,0,16.4,0H7.9C7.6,0,7.4,0.3,7.4,0.6S7.6,1.2,7.9,1.2z"/>
				</g>
				<g id="Path_85066">
					<path class="st23" d="M4.8,7.6h11.5C16.7,7.6,17,7.3,17,7s-0.3-0.6-0.8-0.6H4.8C4.3,6.4,4,6.7,4,7S4.3,7.6,4.8,7.6z"/>
				</g>
				<g id="Path_85067">
					<path class="st23" d="M0.6,4.2h15.8c0.3,0,0.6-0.3,0.6-0.6S16.7,3,16.4,3H0.6C0.3,3,0,3.3,0,3.6S0.3,4.2,0.6,4.2z"/>
				</g>
			</g>
		</g>
		<g id="Group_3344" transform="translate(368.094 211.21)">
			<g id="Rectangle_2271">
				<rect x="15.9" y="13.7" class="st27" width="2.9" height="124.9"/>
			</g>
			<g id="Rectangle_2272">
				<path class="st26" d="M14.6,0h5.6c3.4,0,6.1,2.8,6.1,6.2v16.5c0,3.4-2.8,6.1-6.1,6.1h-5.6c-3.4,0-6.2-2.8-6.2-6.1V6.1
					C8.5,2.8,11.2,0,14.6,0z"/>
			</g>
			<g id="Path_85068">
				<path class="st27" d="M29.1,20.4c1,0.2,2,0.3,3.1,0.5c0.7,0.1,1-0.9,0.3-1.1c-1-0.2-2-0.3-3.1-0.5
					C28.7,19.3,28.4,20.3,29.1,20.4z"/>
			</g>
			<g id="Path_85069">
				<path class="st27" d="M29,13.8c0.8-0.1,1.6-0.2,2.4-0.1c0.7,0.1,0.7-1,0-1.1c-0.9-0.1-1.8,0-2.7,0.1C28,12.8,28.3,13.9,29,13.8
					L29,13.8z"/>
			</g>
			<g id="Path_85070">
				<path class="st27" d="M28.6,7.7c0.8-0.3,1.6-0.6,2.4-0.9c0.6-0.3,0.4-1.3-0.3-1.1c-0.8,0.3-1.6,0.6-2.4,0.9
					C27.7,6.9,28,8,28.6,7.7z"/>
			</g>
			<g id="Path_85071">
				<path class="st27" d="M1.9,21.4c0.8-0.1,1.6-0.3,2.4-0.6C5,20.6,4.7,19.5,4,19.7c-0.8,0.3-1.6,0.5-2.4,0.6
					C1,20.5,1.3,21.5,1.9,21.4z"/>
			</g>
			<g id="Path_85072">
				<path class="st27" d="M0.5,13.7c1,0,2,0.2,3,0.4c0.3,0.1,0.6-0.1,0.7-0.4c0.1-0.3-0.1-0.5-0.4-0.6c-1.1-0.3-2.1-0.5-3.2-0.5
					c-0.3,0-0.5,0.3-0.5,0.6C0,13.5,0.2,13.7,0.5,13.7L0.5,13.7L0.5,13.7z"/>
			</g>
			<g id="Path_85073">
				<path class="st27" d="M1.5,4.7l2.4,0.8c0.7,0.2,1-0.8,0.3-1.1L1.8,3.7C1.1,3.5,0.8,4.5,1.5,4.7z"/>
			</g>
			<g id="Path_85074">
				<path class="st23" d="M10.6,140.3l1.9-16.7H22l2.2,16.5L10.6,140.3z"/>
			</g>
		</g>
		<g id="Group_3350" transform="translate(72.144 261.628)">
			<g id="Group_3349" transform="translate(0 1.53)">
				<g id="Group_3345" transform="translate(3.531)">
					<g id="Path_85075">
						<path class="st21" d="M36.5,8.4c-0.4-2.7-2.3-9.5-6.4-7.3c-6.7,3.5,1.4,16.8-6.7,19.2c-0.4-5.3-1.6-9-4-8.8
							c-4.9,0.4-3.6,11.9-3.7,14.5s-0.2,5.2-0.3,7.9C9.5,35,10.7,19.8,7.2,17.7c-5.5-3.3-6.7,4-6.5,7.4C1,30.8,2.5,37.7,7.9,40.7
							c2.2,1.3,4.8,1.9,7.3,1.9c-0.1,4.5,0.2,9,0.9,13.5h0.1l0,0l3.3,0.2v0.1c0,0.6,0.5,1.1,1.2,1.1c0.6,0,1-0.5,1.1-1.1
							c0-2.8,1.7-16.3,1.9-27.8c2.8,0.2,5.5-0.6,7.7-2.2C36.9,22.2,37.5,14.7,36.5,8.4z"/>
					</g>
					<g id="Path_85076">
						<path class="st22" d="M20.5,57.9c-0.3,0-0.7-0.1-0.9-0.3c-0.3-0.2-0.6-0.5-0.7-0.9l-2.4-0.1h-0.9l-0.1-0.5
							c-0.7-4.3-1-8.6-0.9-12.9c-2.5-0.1-4.9-0.8-7-2C1.8,38,0.3,30.6,0,25.1c-0.1-2.2,0.4-6.9,2.9-8.4c1.3-0.8,2.8-0.6,4.6,0.4
							c1.7,1,2.4,4.1,3.1,7.7c1,4.9,1.9,8.4,4.2,8.5l0.1-1.2C15,30,15.1,28,15.2,26c0-0.4,0-1,0-1.8c-0.2-4.5-0.4-13,4.3-13.4
							c0.7-0.1,1.4,0.2,2,0.6c1.3,1.1,2.2,3.7,2.6,7.9c3-1.3,2.8-4.8,2.7-8.8c-0.2-4-0.4-8.2,3.2-10.1c1-0.6,2.2-0.7,3.3-0.1
							c3,1.5,4,7.3,4.1,7.9l0,0c0.8,4.8,1.1,13.7-5.4,18.5c-2.2,1.6-4.8,2.4-7.5,2.4c-0.2,7.5-0.9,15.8-1.5,21.3
							c-0.3,2.8-0.5,4.9-0.5,5.8c0,0.6-0.3,1.2-0.9,1.5C21.1,57.9,20.8,57.9,20.5,57.9L20.5,57.9z M16.6,55.4l3.5,0.2v0.6
							c0,0.3,0.1,0.4,0.2,0.4c0.2,0.1,0.4,0.1,0.6,0c0.1-0.1,0.2-0.2,0.2-0.4c0-1,0.2-3,0.5-5.9c0.5-5.7,1.3-14.2,1.5-21.8v-0.7
							l0.7,0.1c2.6,0.2,5.2-0.6,7.3-2.1c6-4.4,5.7-12.7,4.9-17.3l0,0c-0.3-2-1.5-6-3.4-7c-0.7-0.3-1.5-0.3-2.1,0.1
							c-2.9,1.5-2.7,5.1-2.5,8.9c0.2,4.2,0.4,8.9-4.3,10.3L22.8,21l-0.1-0.8c-0.4-5.3-1.4-7.2-2.2-7.8c-0.3-0.3-0.7-0.4-1.1-0.4
							c-3.6,0.3-3.3,8.3-3.2,12.1c0,0.8,0,1.4,0,1.8c-0.1,2-0.2,4.1-0.3,6.2l0.1,2.3l-0.5,0.1c-4,0.7-5.1-4.6-6.1-9.4
							c-0.6-3-1.3-6.2-2.5-6.9c-1.3-0.8-2.5-1-3.3-0.4c-1.8,1.1-2.4,5-2.3,7.2c0.2,5.3,1.6,12.1,6.8,15.1c2.1,1.2,4.5,1.9,7,1.8
							l0.7-0.1v0.7C15.7,46.9,15.9,51.1,16.6,55.4L16.6,55.4z"/>
					</g>
				</g>
				<g id="Path_85077">
					<path class="st24" d="M33.6,86.9H10c-1.2,0-2.3-0.8-2.5-2L2.1,57.3l2.2-0.4l5.4,27.6c0,0.1,0.1,0.2,0.3,0.2h23.6
						c0.1,0,0.2-0.1,0.3-0.2l5.3-27.6l2.2,0.4l-5.3,27.6C35.9,86,34.9,86.9,33.6,86.9L33.6,86.9z"/>
				</g>
				<g id="Group_3348" transform="translate(0 47.278)">
					<g id="Group_3346" transform="translate(0.518 0.504)">
						<g id="Path_85078">
							<path class="st26" d="M1.8,0.6H41c0.7,0,1.2,0.7,1.2,1.6v6c0,0.9-0.5,1.6-1.2,1.6H1.8c-0.7,0-1.2-0.7-1.2-1.6v-6
								C0.6,1.4,1.2,0.6,1.8,0.6z"/>
						</g>
						<g id="Path_85079">
							<path class="st23" d="M41.1,10.5H1.8C0.7,10.4-0.1,9.4,0,8.2v-6C-0.1,1.1,0.7,0.1,1.8,0H41c1.1,0.1,1.9,1.1,1.8,2.3v6
								C43,9.4,42.2,10.4,41.1,10.5z M1.8,1.2c-0.3,0-0.6,0.4-0.6,1v6c0,0.6,0.3,1,0.6,1H41c0.3,0,0.6-0.4,0.6-1v-6
								c0-0.6-0.3-1-0.6-1C41,1.2,1.8,1.2,1.8,1.2z"/>
						</g>
					</g>
					<g id="Group_3347">
						<g id="Path_85080">
							<path class="st26" d="M41.6,10.9H2.4c-1.1-0.1-1.8-1.1-1.7-2.2v-6c-0.1-1.1,0.7-2,1.7-2.2h39.2c1.1,0.1,1.8,1.1,1.7,2.2v6
								C43.4,9.8,42.7,10.8,41.6,10.9z M2.4,1.7C2,1.7,1.7,2.1,1.7,2.8v6c0,0.7,0.4,1.1,0.7,1.1h39.2c0.3,0,0.7-0.5,0.7-1.1v-6
								c0-0.7-0.4-1.1-0.7-1.1L2.4,1.7z"/>
						</g>
						<g id="Path_85081">
							<path class="st23" d="M41.6,11.5H2.4C0.9,11.4-0.1,10.2,0,8.8v-6C-0.1,1.4,0.9,0.1,2.4,0h39.2C43,0.1,44.1,1.4,44,2.8v6
								C44,10.2,43,11.4,41.6,11.5z M2.4,2.3C2.3,2.4,2.3,2.6,2.3,2.8v6c0,0.2,0,0.4,0.2,0.5h39.2c0.1-0.2,0.1-0.4,0.1-0.5v-6
								c0-0.2,0-0.4-0.2-0.5L2.4,2.3L2.4,2.3z"/>
						</g>
					</g>
				</g>
			</g>
			<g id="Path_85082">
				<path class="st22" d="M6.6,26.5l1.9,0.3c0.7,0.1,0.7-1,0-1.1l-1.9-0.3C5.9,25.3,5.9,26.4,6.6,26.5z"/>
			</g>
			<g id="Path_85083">
				<path class="st22" d="M9.5,17.9v1c0,0.3,0.3,0.5,0.6,0.5s0.5-0.2,0.5-0.5v-1c0-0.3-0.3-0.5-0.6-0.5S9.5,17.7,9.5,17.9z"/>
			</g>
			<g id="Path_85084">
				<path class="st22" d="M13.2,27.9c0.5-0.3,0.9-0.5,1.4-0.8c0.3-0.2,0.3-0.5,0.2-0.7c-0.2-0.2-0.5-0.3-0.7-0.2
					c-0.5,0.3-0.9,0.5-1.4,0.8c-0.3,0.2-0.3,0.5-0.2,0.7C12.7,28,13,28.1,13.2,27.9z"/>
			</g>
			<g id="Path_85085">
				<path class="st22" d="M7.6,40.5c0.6-0.4,1.1-0.8,1.7-1.2s0-1.3-0.5-0.9s-1.1,0.8-1.7,1.2S7.1,40.9,7.6,40.5z"/>
			</g>
			<g id="Path_85086">
				<path class="st22" d="M3.6,31.1c0.4,0.2,0.8,0.3,1.2,0.5c0.7,0.3,0.9-0.8,0.3-1.1c-0.4-0.2-0.8-0.3-1.2-0.5
					C3.2,29.8,2.9,30.9,3.6,31.1z"/>
			</g>
			<g id="Path_85087">
				<path class="st22" d="M11.5,36.2c0.2,0,0.4,0.1,0.6,0.3c0.4,0.5,1.2-0.2,0.8-0.8c-0.3-0.4-0.8-0.6-1.3-0.7
					C10.8,35,10.8,36.1,11.5,36.2L11.5,36.2z"/>
			</g>
			<g id="Path_85088">
				<path class="st22" d="M13.9,41.3c-0.1,0.7,0,1.5,0.3,2.1s1.2,0.1,0.9-0.5c-0.2-0.4-0.2-0.9-0.2-1.3C15,40.9,14,40.6,13.9,41.3
					L13.9,41.3z"/>
			</g>
			<g id="Path_85089">
				<path class="st22" d="M19.5,41.5l1,0.3c0.3,0.1,0.6-0.1,0.7-0.4c0.1-0.3-0.1-0.5-0.4-0.6l-1-0.3c-0.3-0.1-0.6,0.1-0.7,0.4
					C19.1,41.1,19.3,41.4,19.5,41.5z"/>
			</g>
			<g id="Path_85090">
				<path class="st22" d="M23,30.8c-0.1,0.6,0.2,1.2,0.7,1.6c0.5,0.4,1.3-0.3,0.8-0.8c-0.3-0.2-0.4-0.5-0.3-0.8
					C24.2,30.1,23.1,30.1,23,30.8L23,30.8z"/>
			</g>
			<g id="Path_85091">
				<path class="st22" d="M21.6,23c-0.3,0.4-0.4,0.9-0.3,1.4c0.1,0.7,1.2,0.4,1.1-0.3c0-0.2,0-0.4,0.2-0.5C23,23,22.1,22.4,21.6,23
					L21.6,23L21.6,23z"/>
			</g>
			<g id="Path_85092">
				<path class="st22" d="M27.6,26.2v1c0,0.3,0.3,0.5,0.6,0.5c0.3,0,0.5-0.2,0.5-0.5v-1c0-0.3-0.3-0.5-0.6-0.5
					C27.9,25.7,27.6,25.9,27.6,26.2z"/>
			</g>
			<g id="Path_85093">
				<path class="st22" d="M17.5,24.5c0.2,0.2,0.5,0.3,0.7,0.5c0.6,0.4,1.1-0.5,0.5-0.9c-0.2-0.2-0.5-0.3-0.7-0.5
					C17.4,23.1,16.9,24.1,17.5,24.5z"/>
			</g>
			<g id="Path_85094">
				<path class="st22" d="M19.3,15.4c0.2,0.2,0.3,0.5,0.3,0.8c0.1,0.7,1.1,0.7,1.1,0c0-0.6-0.3-1.2-0.7-1.6
					C19.6,14.1,18.9,14.9,19.3,15.4L19.3,15.4L19.3,15.4z"/>
			</g>
			<g id="Path_85095">
				<path class="st22" d="M22.1,12.1v1.5c0,0.3,0.3,0.5,0.6,0.5c0.3,0,0.5-0.2,0.5-0.5v-1.5c0-0.3-0.3-0.5-0.6-0.5
					S22.1,11.9,22.1,12.1z"/>
			</g>
			<g id="Path_85096">
				<path class="st22" d="M28.8,18.5c0.2,0.2,0.3,0.3,0.5,0.5c0.5,0.5,1.3-0.3,0.8-0.8c-0.2-0.2-0.3-0.3-0.5-0.5
					C29.1,17.3,28.3,18,28.8,18.5z"/>
			</g>
			<g id="Path_85097">
				<path class="st22" d="M29.9,12.1l1.4,0.1c0.7,0,0.7-1.1,0-1.1L29.9,11C29.2,10.9,29.2,12,29.9,12.1L29.9,12.1z"/>
			</g>
			<g id="Path_85098">
				<path class="st22" d="M31.4,3.3l1,1c0.2,0.2,0.6,0.2,0.8,0s0.2-0.5,0-0.7l-1-1c-0.2-0.2-0.6-0.2-0.8,0
					C31.2,2.8,31.2,3.1,31.4,3.3z"/>
			</g>
			<g id="Path_85099">
				<path class="st22" d="M35.6,0.5v1.7c0,0.3,0.3,0.5,0.6,0.5s0.5-0.2,0.5-0.5V0.5c0-0.3-0.3-0.5-0.6-0.5S35.6,0.2,35.6,0.5z"/>
			</g>
			<g id="Path_85100">
				<path class="st22" d="M37.6,10.7c0.2-0.2,0.3-0.5,0.5-0.7c0.4-0.6-0.6-1.1-0.9-0.5c-0.2,0.2-0.3,0.5-0.5,0.7
					C36.3,10.8,37.2,11.3,37.6,10.7z"/>
			</g>
			<g id="Path_85101">
				<path class="st22" d="M33.9,21.4c0.4-0.2,0.8-0.3,1.2-0.5c0.6-0.3,0.4-1.3-0.3-1.1c-0.4,0.2-0.8,0.3-1.2,0.5
					C33,20.6,33.2,21.7,33.9,21.4z"/>
			</g>
			<g id="Path_85102">
				<path class="st22" d="M38.7,19.9c0.4-0.1,0.8-0.2,1.2-0.3c0.7-0.1,0.4-1.2-0.3-1.1c-0.4,0.1-0.8,0.2-1.2,0.3
					C37.7,19,38,20,38.7,19.9z"/>
			</g>
			<g id="Path_85103">
				<path class="st22" d="M35.6,25v0.2c0,0.3,0.3,0.5,0.6,0.5s0.5-0.2,0.5-0.5V25c0-0.3-0.3-0.5-0.6-0.5S35.6,24.7,35.6,25z"/>
			</g>
			<g id="Path_85104">
				<path class="st22" d="M26.3,41.6c0.2-0.2,0.5-0.3,0.7-0.5c0.6-0.4,0-1.3-0.5-0.9c-0.2,0.2-0.5,0.3-0.7,0.5
					C25.1,41.1,25.7,42,26.3,41.6z"/>
			</g>
			<g id="Path_85105">
				<path class="st22" d="M25.6,45.7c0.4-0.4,0.9-0.7,1.5-0.8c0.7-0.2,0.4-1.2-0.3-1.1c-0.7,0.2-1.4,0.5-2,1.1
					C24.4,45.4,25.1,46.1,25.6,45.7L25.6,45.7z"/>
			</g>
			<g id="Path_85106">
				<path class="st22" d="M21.1,46.3c0.1,0.2,0.2,0.3,0.3,0.5c0.3,0.6,1.3,0.1,0.9-0.5c-0.1-0.2-0.2-0.3-0.3-0.5
					C21.8,45.1,20.8,45.7,21.1,46.3z"/>
			</g>
			<g id="Path_85107">
				<path class="st22" d="M17,47.5c0.6,0.3,1.2,0.4,1.9,0.3c0.7-0.1,0.4-1.2-0.3-1.1c-0.4,0.1-0.7,0-1-0.2
					C16.9,46.2,16.4,47.2,17,47.5z"/>
			</g>
			<g id="Path_85108">
				<path class="st22" d="M26,37.2c0.7-0.1,1.5-0.2,2.2-0.3s0.7-1.2,0-1.1c-0.7,0.1-1.5,0.2-2.2,0.3C25.3,36.1,25.3,37.2,26,37.2z"
					/>
			</g>
		</g>
		<g id="Group_3351" transform="translate(189.14 204.312)">
			<g id="Path_85109">
				<path class="st28" d="M6.6,46.7C18.3,36.1,30,25.5,41.7,14.9c1.7-1.6-0.8-4.1-2.6-2.6C27.4,23,15.7,33.6,4,44.2
					C2.3,45.7,4.8,48.3,6.6,46.7z"/>
			</g>
			<g id="Path_85110">
				<path class="st28" d="M46.3,63C58,52.4,69.7,41.8,81.5,31.2c1.7-1.6-0.8-4.1-2.6-2.6C67.2,39.2,55.5,49.8,43.7,60.4
					C42,62,44.6,64.5,46.3,63z"/>
			</g>
			<g id="Path_85111">
				<path class="st28" d="M3.1,75C27.7,51,52.3,27,76.8,3.1c1.7-1.6-0.9-4.2-2.6-2.6c-24.6,24-49.1,47.9-73.7,71.9
					C-1.1,74,1.4,76.6,3.1,75L3.1,75z"/>
			</g>
		</g>
		<g id="Group_3384" transform="translate(241.202)">
			<g id="Group_3352" transform="translate(56.463 55.789)">
				<g id="Rectangle_2273">
					<rect x="5.7" y="0" class="st24" width="1.6" height="101.4"/>
				</g>
				<g id="Path_85112">
					<path class="st24" d="M12.9,101.4c0,3.6-2.9,6.4-6.4,6.4c-3.6,0-6.4-2.9-6.4-6.4C0,97.9,2.9,95,6.4,95l0,0
						C10,95,12.9,97.9,12.9,101.4z"/>
				</g>
				<g id="Path_85113">
					<path class="st24" d="M6.5,123c-1.4,0-2.7-0.6-3.7-1.6c-1.1-1.1-1.6-2.7-1.5-4.2c0-0.5,0.4-0.9,0.9-0.9s0.9,0.4,0.9,0.9l0,0
						c-0.1,1.1,0.3,2.2,1,3c0.7,0.6,1.6,1,2.5,1.1c2.4,0,4.4-2,4.4-4.4s-1.9-4.4-4.4-4.4c-0.5,0-0.9-0.4-0.9-0.8l0,0V107
						c0-0.5,0.4-0.9,0.9-0.9s0.9,0.4,0.9,0.9l0,0v3.9c3.3,0.5,5.6,3.5,5.1,6.9C12.1,120.8,9.6,123,6.5,123L6.5,123z"/>
				</g>
			</g>
			<g id="Group_3358" transform="translate(0 176.072)">
				<g id="Path_85114">
					<path class="st24" d="M29.2,6.7c-0.4-0.1-0.7-0.5-0.6-0.9c0.1-0.3,0.3-0.6,0.7-0.6L64.1,0c0.4,0,0.8,0.3,0.9,0.7
						s-0.2,0.8-0.7,0.9L29.4,6.7H29.2L29.2,6.7z"/>
				</g>
				<g id="Path_85115">
					<path class="st24" d="M96.1,18.3c-0.1,0-0.2,0-0.2-0.1L63.8,1.5c-0.4-0.2-0.5-0.7-0.3-1.1s0.7-0.5,1.1-0.3l0,0l32.1,16.7
						c0.4,0.2,0.5,0.7,0.3,1.1C96.8,18.2,96.4,18.4,96.1,18.3L96.1,18.3z"/>
				</g>
				<g id="Group_3353" transform="translate(0 3.652)">
					<g id="Rectangle_2274">
						<path class="st20" d="M17.1,1l90,15.6c3.2,0.6,5.3,3.6,4.8,6.8l-9.3,53.8c-0.6,3.2-3.6,5.3-6.8,4.8l-90-15.6
							c-3.2-0.6-5.3-3.6-4.8-6.8l9.3-53.8C10.9,2.6,13.9,0.5,17.1,1z"/>
					</g>
					<g id="Path_85116">
						<path class="st24" d="M94.6,82.7c-0.6,0-1.1,0-1.7-0.1L8.2,67.9C3,67-0.5,62,0.4,56.8l0,0L8.8,8.2C9.7,3,14.7-0.5,19.9,0.4
							l84.8,14.7c5.2,0.9,8.7,5.9,7.8,11.1l0,0l-8.4,48.5C103.3,79.4,99.3,82.7,94.6,82.7L94.6,82.7z M18.3,2.4
							c-3.6,0-6.7,2.6-7.3,6.2L2.6,57.1c-0.7,4,2,7.9,6,8.6l84.8,14.7c4,0.7,7.9-2,8.6-6l8.4-48.5c0.3-1.9-0.1-3.9-1.2-5.5
							s-2.9-2.7-4.8-3.1L19.6,2.5C19.2,2.5,18.7,2.4,18.3,2.4L18.3,2.4z"/>
					</g>
				</g>
				<g id="Group_3354" transform="translate(5.095 9.219)">
					<g id="Rectangle_2275">
						<path class="st26" d="M13.5,0.9l85.3,14.8c2,0.4,3.4,2.3,3.1,4.3l-8.3,47.8c-0.4,2-2.3,3.4-4.3,3.1L3.9,56.1
							c-2-0.4-3.4-2.3-3.1-4.3L9.2,3.9C9.5,1.9,11.5,0.5,13.5,0.9z"/>
					</g>
					<g id="Path_85117">
						<path class="st23" d="M88.5,71.8c-0.4,0-0.8,0-1.1-0.1l-82-14.2c-3.6-0.6-5.9-4-5.3-7.5l0,0L7.8,5.4c0.6-3.6,4-5.9,7.6-5.3
							l81.9,14.2c3.6,0.6,5.9,4,5.3,7.6l-7.7,44.5C94.4,69.5,91.7,71.8,88.5,71.8L88.5,71.8z M87.7,69.6c2.4,0.4,4.6-1.2,5-3.5l0,0
							l7.7-44.5c0.4-2.4-1.2-4.6-3.5-5L15,2.3c-2.4-0.4-4.6,1.2-5,3.5L2.2,50.3c-0.4,2.4,1.2,4.6,3.5,5l0,0L87.7,69.6L87.7,69.6z"/>
					</g>
				</g>
				<g id="Group_3355" transform="translate(52.206 52.376)">
					<g id="Path_85118">
						<path class="st20" d="M1.6,20.7L22.9,1.2l11.8,25.3L1.6,20.7z"/>
					</g>
					<g id="Path_85119">
						<path class="st24" d="M35.9,27.4L0,21.2L23.1,0L35.9,27.4L35.9,27.4z M3.2,20.3l30.3,5.3L22.6,2.4L3.2,20.3z"/>
					</g>
				</g>
				<g id="Group_3356" transform="translate(10.085 29.971)">
					<g id="Path_85120">
						<path class="st20" d="M1.6,35.8L39.3,1.2L60.2,46L1.6,35.8z"/>
					</g>
					<g id="Path_85121">
						<path class="st24" d="M61.5,47L0,36.3L39.6,0L61.5,47z M3.2,35.4L59,45.1L39.1,2.4L3.2,35.4L3.2,35.4z"/>
					</g>
				</g>
				<g id="Group_3357" transform="translate(83.132 30.845)">
					<g id="Path_85122">
						<path class="st20" d="M11.2,6.9c-0.5,2.9-3.2,4.8-6.1,4.3C2.2,10.7,0.3,8,0.8,5.1S4,0.3,6.9,0.8S11.7,4,11.2,6.9z"/>
					</g>
					<g id="Path_85123">
						<path class="st24" d="M6,12c-0.3,0-0.7,0-1-0.1C1.7,11.4-0.5,8.3,0.1,5c0.3-1.6,1.2-3,2.5-3.9C5.3-0.8,9-0.2,10.9,2.5l0,0
							c1.9,2.7,1.3,6.5-1.5,8.4C8.5,11.6,7.2,12,6,12L6,12z M6,1.5c-2.5,0-4.6,2-4.6,4.5s2,4.6,4.5,4.6c2.2,0,4.1-1.6,4.5-3.8l0,0
							C10.9,4.3,9.2,2,6.8,1.5l0,0C6.5,1.5,6.2,1.5,6,1.5L6,1.5z"/>
					</g>
				</g>
			</g>
			<g id="Rectangle_2276">
				<rect x="49.1" y="52.4" class="st26" width="79.2" height="8.7"/>
			</g>
			<g id="Group_3383" transform="translate(78.879)">
				<g id="Group_3379">
					<g id="Group_3376">
						<g id="Group_3369" transform="translate(91.836)">
							<g id="Path_85124">
								<path class="st24" d="M26.3,232.5H0V0.1h26.3V232.5z M2.6,229.9h21.1V2.7H2.6V229.9L2.6,229.9z"/>
							</g>
							<g id="Group_3359" transform="translate(0.322)">
								<g id="Path_85125">
									<path class="st24" d="M25.6,25.6H0V0h25.6V25.6z M2.6,23H23V2.6H2.6V23z"/>
								</g>
								<g id="Rectangle_2277">
									
										<rect x="11.5" y="-3.4" transform="matrix(0.7071 -0.7071 0.7071 0.7071 -5.329 12.8451)" class="st24" width="2.6" height="32.5"/>
								</g>
								<g id="Rectangle_2278">
									
										<rect x="-3.4" y="11.5" transform="matrix(0.7071 -0.7071 0.7071 0.7071 -5.2835 12.8198)" class="st24" width="32.5" height="2.6"/>
								</g>
							</g>
							<g id="Group_3360" transform="translate(0.322 22.993)">
								<g id="Path_85126">
									<path class="st24" d="M25.6,25.6H0V0h25.6V25.6z M2.6,23H23V2.6H2.6V23z"/>
								</g>
								<g id="Rectangle_2279">
									
										<rect x="11.5" y="-3.5" transform="matrix(0.7071 -0.7071 0.7071 0.7071 -5.2922 12.7744)" class="st24" width="2.6" height="32.5"/>
								</g>
								<g id="Rectangle_2280">
									
										<rect x="-3.4" y="11.5" transform="matrix(0.7071 -0.7071 0.7071 0.7071 -5.2761 12.8198)" class="st24" width="32.5" height="2.6"/>
								</g>
							</g>
							<g id="Group_3361" transform="translate(0.322 45.958)">
								<g id="Path_85127">
									<path class="st24" d="M25.6,25.6H0V0h25.6V25.6z M2.6,23H23V2.6H2.6V23z"/>
								</g>
								<g id="Rectangle_2281">
									
										<rect x="11.5" y="-3.4" transform="matrix(0.7071 -0.7071 0.7071 0.7071 -5.3281 12.8393)" class="st24" width="2.6" height="32.5"/>
								</g>
								<g id="Rectangle_2282">
									
										<rect x="-3.4" y="11.5" transform="matrix(0.7071 -0.7071 0.7071 0.7071 -5.2943 12.814)" class="st24" width="32.5" height="2.6"/>
								</g>
							</g>
							<g id="Group_3362" transform="translate(0.322 68.966)">
								<g id="Path_85128">
									<path class="st24" d="M25.6,25.6H0V0h25.6V25.6z M2.6,23H23V2.6H2.6V23z"/>
								</g>
								<g id="Rectangle_2283">
									
										<rect x="11.5" y="-3.5" transform="matrix(0.7071 -0.7071 0.7071 0.7071 -5.2918 12.7798)" class="st24" width="2.6" height="32.5"/>
								</g>
								<g id="Rectangle_2284">
									
										<rect x="-3.4" y="11.5" transform="matrix(0.7071 -0.7071 0.7071 0.7071 -5.2752 12.8256)" class="st24" width="32.5" height="2.6"/>
								</g>
							</g>
							<g id="Group_3363" transform="translate(0.322 91.945)">
								<g id="Path_85129">
									<path class="st24" d="M25.6,25.6H0V0h25.6V25.6z M2.6,23H23V2.6H2.6V23z"/>
								</g>
								<g id="Rectangle_2285">
									
										<rect x="11.5" y="-3.4" transform="matrix(0.7071 -0.7071 0.7071 0.7071 -5.3277 12.8447)" class="st24" width="2.6" height="32.5"/>
								</g>
								<g id="Rectangle_2286">
									
										<rect x="-3.4" y="11.5" transform="matrix(0.7071 -0.7071 0.7071 0.7071 -5.2852 12.8197)" class="st24" width="32.5" height="2.6"/>
								</g>
							</g>
							<g id="Group_3364" transform="translate(0.322 114.924)">
								<g id="Path_85130">
									<path class="st24" d="M25.6,25.6H0V0h25.6V25.6L25.6,25.6z M2.6,23H23V2.6H2.6V23z"/>
								</g>
								<g id="Rectangle_2287">
									
										<rect x="11.5" y="-3.4" transform="matrix(0.7071 -0.7071 0.7071 0.7071 -5.326 12.8389)" class="st24" width="2.6" height="32.5"/>
								</g>
								<g id="Rectangle_2288">
									
										<rect x="-3.4" y="11.5" transform="matrix(0.7071 -0.7071 0.7071 0.7071 -5.2918 12.814)" class="st24" width="32.5" height="2.6"/>
								</g>
							</g>
							<g id="Group_3365" transform="translate(0.322 137.917)">
								<g id="Path_85131">
									<path class="st24" d="M25.6,25.6H0V0h25.6V25.6z M2.6,23H23V2.6H2.6V23z"/>
								</g>
								<g id="Rectangle_2289">
									
										<rect x="11.5" y="-3.5" transform="matrix(0.7071 -0.7071 0.7071 0.7071 -5.2976 12.7798)" class="st24" width="2.6" height="32.5"/>
								</g>
								<g id="Rectangle_2290">
									
										<rect x="-3.4" y="11.5" transform="matrix(0.7071 -0.7071 0.7071 0.7071 -5.2844 12.8139)" class="st24" width="32.5" height="2.6"/>
								</g>
							</g>
							<g id="Group_3366" transform="translate(0.322 160.896)">
								<g id="Path_85132">
									<path class="st24" d="M25.6,25.6H0V0h25.6V25.6z M2.6,23H23V2.6H2.6V23z"/>
								</g>
								<g id="Rectangle_2291">
									
										<rect x="11.5" y="-3.5" transform="matrix(0.7071 -0.7071 0.7071 0.7071 -5.2959 12.774)" class="st24" width="2.6" height="32.5"/>
								</g>
								<g id="Rectangle_2292">
									
										<rect x="-3.4" y="11.5" transform="matrix(0.7071 -0.7071 0.7071 0.7071 -5.291 12.8197)" class="st24" width="32.5" height="2.6"/>
								</g>
							</g>
							<g id="Group_3367" transform="translate(0.322 183.889)">
								<g id="Path_85133">
									<path class="st24" d="M25.6,25.6H0V0h25.6V25.6L25.6,25.6z M2.6,23H23V2.6H2.6V23z"/>
								</g>
								<g id="Rectangle_2293">
									
										<rect x="11.5" y="-3.5" transform="matrix(0.7071 -0.7071 0.7071 0.7071 -5.2947 12.7802)" class="st24" width="2.6" height="32.5"/>
								</g>
								<g id="Rectangle_2294">
									
										<rect x="-3.4" y="11.5" transform="matrix(0.7071 -0.7071 0.7071 0.7071 -5.2839 12.8201)" class="st24" width="32.5" height="2.6"/>
								</g>
							</g>
							<g id="Group_3368" transform="translate(0.322 206.869)">
								<g id="Path_85134">
									<path class="st24" d="M25.6,25.6H0V0h25.6V25.6L25.6,25.6z M2.6,23H23V2.6H2.6V23z"/>
								</g>
								<g id="Rectangle_2295">
									
										<rect x="11.5" y="-3.5" transform="matrix(0.7071 -0.7071 0.7071 0.7071 -5.2955 12.7802)" class="st24" width="2.6" height="32.5"/>
								</g>
								<g id="Rectangle_2296">
									
										<rect x="-3.4" y="11.5" transform="matrix(0.7072 -0.707 0.707 0.7072 -5.2811 12.8156)" class="st24" width="32.5" height="2.6"/>
								</g>
							</g>
						</g>
						<g id="Group_3375" transform="translate(0 22.629)">
							<g id="Group_3370" transform="translate(137.907)">
								<g id="Path_85135">
									<path class="st24" d="M25.6,25.6H0V0h25.6V25.6z M2.6,23H23V2.6H2.6V23z"/>
								</g>
								<g id="Rectangle_2297">
									
										<rect x="-3.5" y="11.5" transform="matrix(0.707 -0.7072 0.7072 0.707 -5.3481 12.7768)" class="st24" width="32.5" height="2.6"/>
								</g>
								<g id="Rectangle_2298">
									
										<rect x="11.5" y="-3.4" transform="matrix(0.7071 -0.7071 0.7071 0.7071 -5.3277 12.8322)" class="st24" width="2.6" height="32.5"/>
								</g>
							</g>
							<g id="Group_3371" transform="translate(114.928)">
								<g id="Path_85136">
									<path class="st24" d="M25.6,25.6H0V0h25.6V25.6z M2.6,23H23V2.6H2.6V23z"/>
								</g>
								<g id="Rectangle_2299">
									
										<rect x="-3.5" y="11.5" transform="matrix(0.707 -0.7072 0.7072 0.707 -5.3447 12.7785)" class="st24" width="32.5" height="2.6"/>
								</g>
								<g id="Rectangle_2300">
									
										<rect x="11.5" y="-3.4" transform="matrix(0.7071 -0.7071 0.7071 0.7071 -5.3219 12.8256)" class="st24" width="2.6" height="32.5"/>
								</g>
							</g>
							<g id="Path_85137">
								<path class="st24" d="M117.6,25.6H91.9V0h25.6L117.6,25.6L117.6,25.6z M94.6,23h20.3V2.6H94.6V23z"/>
							</g>
							<g id="Group_3372" transform="translate(68.955)">
								<g id="Path_85138">
									<path class="st24" d="M25.6,25.6H0V0h25.6V25.6z M2.6,23H23V2.6H2.6V23z"/>
								</g>
								<g id="Rectangle_2301">
									
										<rect x="-3.4" y="11.5" transform="matrix(0.7071 -0.7071 0.7071 0.7071 -5.274 12.8094)" class="st24" width="32.5" height="2.6"/>
								</g>
								<g id="Rectangle_2302">
									
										<rect x="11.5" y="-3.4" transform="matrix(0.7071 -0.7071 0.7071 0.7071 -5.3277 12.8264)" class="st24" width="2.6" height="32.5"/>
								</g>
							</g>
							<g id="Group_3373" transform="translate(45.976)">
								<g id="Path_85139">
									<path class="st24" d="M25.6,25.6H0V0h25.6V25.6z M2.6,23H23V2.6H2.6V23z"/>
								</g>
								<g id="Rectangle_2303">
									
										<rect x="-3.5" y="11.5" transform="matrix(0.7071 -0.7071 0.7071 0.7071 -5.3389 12.7735)" class="st24" width="32.5" height="2.6"/>
								</g>
								<g id="Rectangle_2304">
									
										<rect x="11.5" y="-3.4" transform="matrix(0.7071 -0.7071 0.7071 0.7071 -5.3219 12.8281)" class="st24" width="2.6" height="32.5"/>
								</g>
							</g>
							<g id="Group_3374">
								<g id="Path_85140">
									<path class="st24" d="M48.6,25.6H23V0h25.6V25.6z M25.6,23H46V2.6H25.6V23z"/>
								</g>
								<g id="Path_85141">
									<path class="st24" d="M24.3,25.6h-23c-0.5,0-1-0.3-1.2-0.8S0,23.7,0.4,23.4l23-23l1.9,1.9L4.5,23h19.3L46.3,0.4l1.9,1.9
										l-23,23C25,25.5,24.6,25.6,24.3,25.6L24.3,25.6z"/>
								</g>
								<g id="Rectangle_2305">
									
										<rect x="34.5" y="-3.4" transform="matrix(0.7071 -0.7071 0.7071 0.7071 1.4216 29.0919)" class="st24" width="2.6" height="32.5"/>
								</g>
							</g>
						</g>
					</g>
					<g id="Group_3377" transform="translate(91.836 232.466)">
						<g id="Path_85142">
							<path class="st24" d="M26.3,25.6H0V0h26.3V25.6z M2.7,23h20.9V2.6H2.7V23z"/>
						</g>
						<g id="Path_85143">
							<path class="st24" d="M24,25.2L0.4,2.2l1.9-1.9l23.6,23L24,25.2z"/>
						</g>
						<g id="Path_85144">
							<path class="st24" d="M2.3,25.2l-1.9-1.9L24,0.4l2,1.8L2.3,25.2z"/>
						</g>
					</g>
					<g id="Group_3378" transform="translate(91.836 324.397)">
						<g id="Path_85145">
							<path class="st24" d="M26.3,25.6H0V0h26.3V25.6z M2.7,23h20.9V2.6H2.7V23z"/>
						</g>
						<g id="Path_85146">
							<path class="st24" d="M24,25.2L0.4,2.2l1.9-1.8l23.6,23L24,25.2z"/>
						</g>
						<g id="Path_85147">
							<path class="st24" d="M2.3,25.2l-1.9-1.9L24,0.4l2,1.8L2.3,25.2z"/>
						</g>
					</g>
				</g>
				<g id="Group_3380" transform="translate(91.836 253.275)">
					<g id="Path_85148">
						<path class="st24" d="M26.3,25.6H0V0h26.3V25.6z M2.7,23h20.9V2.6H2.7V23z"/>
					</g>
					<g id="Path_85149">
						<path class="st24" d="M24,25.2L0.4,2.2l1.9-1.9l23.6,23L24,25.2z"/>
					</g>
					<g id="Path_85150">
						<path class="st24" d="M2.3,25.2l-1.9-1.9L24,0.4l1.9,1.9L2.3,25.2z"/>
					</g>
				</g>
				<g id="Group_3381" transform="translate(91.836 276.254)">
					<g id="Path_85151">
						<path class="st24" d="M26.3,25.6H0V0h26.3V25.6z M2.7,23h20.9V2.6H2.7V23z"/>
					</g>
					<g id="Path_85152">
						<path class="st24" d="M24,25.2L0.4,2.2l1.9-1.9l23.6,23L24,25.2z"/>
					</g>
					<g id="Path_85153">
						<path class="st24" d="M2.3,25.2l-1.9-1.9L24,0.4l2,1.8L2.3,25.2z"/>
					</g>
				</g>
				<g id="Group_3382" transform="translate(91.836 299.233)">
					<g id="Path_85154">
						<path class="st24" d="M26.3,25.6H0V0h26.3V25.6z M2.7,23h20.9V2.6H2.7V23z"/>
					</g>
					<g id="Path_85155">
						<path class="st24" d="M24,25.2L0.4,2.3l1.9-1.9l23.6,23L24,25.2z"/>
					</g>
					<g id="Path_85156">
						<path class="st24" d="M2.3,25.2l-1.9-1.9L24,0.4l2,1.9L2.3,25.2z"/>
					</g>
				</g>
			</g>
		</g>
		<g id="Path_85157">
			<path class="st23" d="M144.4,139.4c2.8,0,2.8-4.4,0-4.4S141.6,139.4,144.4,139.4z"/>
		</g>
		<g id="Path_85158">
			<path class="st23" d="M380.6,93.9c2.8,0,2.8-4.4,0-4.4S377.8,93.9,380.6,93.9z"/>
		</g>
		<g id="Path_85159">
			<path class="st23" d="M478.4,249.8h1c1.2,0,2.2-1,2.2-2.2s-1-2.2-2.2-2.2h-1c-1.2,0-2.2,1-2.2,2.2
				C476.2,248.8,477.2,249.8,478.4,249.8z"/>
		</g>
		<g id="Path_85160">
			<path class="st23" d="M58.2,281.7c2.8,0,2.8-4.4,0-4.4S55.4,281.7,58.2,281.7z"/>
		</g>
		<g id="Path_85161">
			<path class="st23" d="M266.4,72.6c2.8,0,2.8-4.4,0-4.4S263.5,72.6,266.4,72.6z"/>
		</g>
	</g>
</g>
<g class="st29">
	<g>
		<path class="st30" d="M808.3,642.1h17v4.8H814v4.6h9.5v4.6H814v8.9h-5.7V642.1z"/>
	</g>
	<g>
		<path class="st30" d="M825.1,656.8c0-4.9,3.4-8.6,8.4-8.6c2.3,0,4.2,0.8,5.6,2c2,1.8,2.9,4.6,2.9,8h-11.8c0.3,2.2,1.5,3.6,3.7,3.6
			c1.4,0,2.3-0.6,2.7-1.6h5.1c-0.4,1.5-1.3,2.9-2.8,3.9c-1.4,1-3,1.5-5.1,1.5C828.4,665.5,825.1,661.7,825.1,656.8z M836.7,655
			c-0.2-2-1.4-3.2-3.1-3.2c-2,0-3,1.2-3.4,3.2H836.7z"/>
	</g>
	<g>
		<path class="st30" d="M843,660.4c0-3.6,2.9-4.7,6.3-5.2c3.1-0.4,4.2-0.7,4.2-1.8s-0.7-1.8-2.2-1.8c-1.7,0-2.5,0.7-2.7,2.1h-4.8
			c0.1-3,2.5-5.6,7.4-5.6c2.5,0,4.1,0.4,5.3,1.3c1.4,1,2.1,2.6,2.1,4.7v8.3c0,1.3,0.1,2,0.6,2.3v0.2h-5.1c-0.3-0.4-0.4-1-0.5-1.8
			h-0.1c-1,1.4-2.4,2.2-4.9,2.2C845.3,665.4,843,663.7,843,660.4z M853.6,659.1v-2c-0.7,0.4-1.6,0.6-2.7,0.9c-2,0.4-2.8,1-2.8,2.2
			c0,1.3,1,1.8,2.2,1.8C852.2,662.1,853.6,660.9,853.6,659.1z"/>
	</g>
	<g>
		<path class="st30" d="M862,660.7v-8.8h-2.2v-3.3h2.2v-5.2h5.1v5.2h3v3.3h-3v7.7c0,1.3,0.7,1.6,1.8,1.6c0.4,0,1,0,1.2,0v3.8
			c-0.4,0.1-1.4,0.3-2.8,0.3C864.2,665.2,862,664.2,862,660.7z"/>
	</g>
	<g>
		<path class="st30" d="M871.9,659.4v-10.8h5.2v9.7c0,1.8,0.8,2.8,2.5,2.8c1.8,0,2.9-1.3,2.9-3.3v-9.2h5.2V665h-5v-2h-0.1
			c-1.2,1.6-2.6,2.5-4.9,2.5C873.8,665.5,871.9,663,871.9,659.4z"/>
	</g>
	<g>
		<path class="st30" d="M890.1,648.6h5v2.6h0.1c1.2-2,2.5-2.8,4.5-2.8c0.5,0,0.8,0,1,0.1v4.5h-0.1c-3.2-0.4-5.2,1.1-5.2,4.7v7.4
			h-5.2L890.1,648.6L890.1,648.6z"/>
	</g>
	<g>
		<path class="st30" d="M901.3,656.8c0-4.9,3.4-8.6,8.4-8.6c2.3,0,4.2,0.8,5.6,2c2,1.8,2.9,4.6,2.9,8h-11.8c0.3,2.2,1.5,3.6,3.7,3.6
			c1.4,0,2.3-0.6,2.7-1.6h5.1c-0.4,1.5-1.3,2.9-2.8,3.9c-1.4,1-3,1.5-5.1,1.5C904.6,665.5,901.3,661.7,901.3,656.8z M912.9,655
			c-0.2-2-1.4-3.2-3.1-3.2c-2,0-3,1.2-3.4,3.2H912.9z"/>
	</g>
	<g>
		<path class="st30" d="M924.9,642.1h5.2v4.2h-5.2V642.1z M924.9,648.6h5.2V665h-5.2V648.6z"/>
	</g>
	<g>
		<path class="st30" d="M931.6,659.7h4.9c0.2,1.6,1.3,2.4,3,2.4c1.6,0,2.6-0.6,2.6-1.6c0-1.5-2-1.6-4.2-2c-2.8-0.5-5.9-1.2-5.9-5.1
			c0-3.5,3.2-5.2,7.1-5.2c4.6,0,7.1,2,7.4,5.2h-4.8c-0.2-1.5-1.2-1.9-2.6-1.9c-1.3,0-2.3,0.5-2.3,1.5c0,1.2,1.9,1.3,3.9,1.7
			c2.9,0.5,6.3,1.2,6.3,5.4c0,3.6-3.2,5.4-7.5,5.4C934.8,665.5,931.8,663.3,931.6,659.7z"/>
	</g>
	<g>
		<path class="st30" d="M953.7,642.1h5.2v4.2h-5.2V642.1z M953.7,648.6h5.2V665h-5.2V648.6z"/>
	</g>
	<g>
		<path class="st30" d="M961.4,648.6h5v2.2h0.1c1.2-1.8,2.8-2.7,5.1-2.7c3.6,0,5.7,2.6,5.7,6.2V665h-5.2v-9.6c0-1.7-0.9-2.9-2.6-2.9
			c-1.7,0-2.9,1.4-2.9,3.5v9.1h-5.2L961.4,648.6L961.4,648.6z"/>
	</g>
	<g>
		<path class="st30" d="M984.6,648.6h5v2h0.1c1.1-1.5,2.7-2.5,5-2.5c4.4,0,7,3.7,7,8.7c0,5.3-2.8,8.7-7.1,8.7
			c-2.1,0-3.6-0.8-4.6-2.2h-0.1v7.1h-5.2v-21.8H984.6z M996.4,657c0-2.8-1.1-4.7-3.3-4.7c-2.3,0-3.4,2-3.4,4.7s1.3,4.5,3.5,4.5
			C995.2,661.5,996.4,659.8,996.4,657z"/>
	</g>
	<g>
		<path class="st30" d="M1003.4,648.6h5v2.6h0.1c1.2-2,2.5-2.8,4.5-2.8c0.5,0,0.8,0,1,0.1v4.5h-0.1c-3.2-0.4-5.2,1.1-5.2,4.7v7.4
			h-5.2L1003.4,648.6L1003.4,648.6z"/>
	</g>
	<g>
		<path class="st30" d="M1014.6,656.8c0-4.9,3.5-8.7,8.8-8.7s8.7,3.7,8.7,8.7s-3.5,8.7-8.7,8.7
			C1018.2,665.5,1014.6,661.8,1014.6,656.8z M1026.9,656.8c0-3-1.2-5-3.5-5s-3.5,2-3.5,5s1.2,5,3.5,5
			C1025.7,661.8,1026.9,659.8,1026.9,656.8z"/>
	</g>
	<g>
		<path class="st30" d="M1033.5,665.4h5.1c0.3,0.9,1.2,1.6,2.9,1.6c2.2,0,3.1-1.2,3.1-3.1v-1.6h-0.1c-1,1.1-2.2,1.9-4.2,1.9
			c-3.7,0-7.1-2.8-7.1-7.8c0-4.8,2.8-8.2,6.9-8.2c2.2,0,3.6,0.9,4.6,2.2h0.1v-1.8h5v14.8c0,2.5-0.9,4.3-2.2,5.4
			c-1.4,1.3-3.6,1.8-6,1.8C1037,670.7,1034,668.8,1033.5,665.4z M1044.8,656.1c0-2.2-1.2-4.1-3.3-4.1c-2,0-3.2,1.6-3.2,4.1
			s1.3,4.1,3.2,4.1C1043.8,660.2,1044.8,658.4,1044.8,656.1z"/>
	</g>
	<g>
		<path class="st30" d="M1052.2,648.6h5v2.6h0.1c1.2-2,2.5-2.8,4.5-2.8c0.5,0,0.8,0,1,0.1v4.5h-0.1c-3.2-0.4-5.2,1.1-5.2,4.7v7.4
			h-5.2v-16.5H1052.2z"/>
	</g>
	<g>
		<path class="st30" d="M1063.4,656.8c0-4.9,3.4-8.6,8.4-8.6c2.3,0,4.2,0.8,5.6,2c2,1.8,2.9,4.6,2.9,8h-11.8
			c0.3,2.2,1.5,3.6,3.7,3.6c1.4,0,2.3-0.6,2.7-1.6h5.1c-0.4,1.5-1.3,2.9-2.8,3.9c-1.4,1-3,1.5-5.1,1.5
			C1066.7,665.5,1063.4,661.7,1063.4,656.8z M1075,655c-0.2-2-1.4-3.2-3.1-3.2c-2,0-3,1.2-3.4,3.2H1075z"/>
	</g>
	<g>
		<path class="st30" d="M1081.1,659.7h4.9c0.2,1.6,1.3,2.4,3,2.4c1.6,0,2.6-0.6,2.6-1.6c0-1.5-2-1.6-4.2-2c-2.8-0.5-5.9-1.2-5.9-5.1
			c0-3.5,3.2-5.2,7.1-5.2c4.6,0,7.1,2,7.4,5.2h-4.8c-0.2-1.5-1.2-1.9-2.6-1.9c-1.3,0-2.3,0.5-2.3,1.5c0,1.2,1.9,1.3,3.9,1.7
			c2.9,0.5,6.3,1.2,6.3,5.4c0,3.6-3.2,5.4-7.5,5.4C1084.2,665.5,1081.2,663.3,1081.1,659.7z"/>
	</g>
	<g>
		<path class="st30" d="M1097.4,659.7h4.9c0.2,1.6,1.3,2.4,3,2.4c1.6,0,2.6-0.6,2.6-1.6c0-1.5-2-1.6-4.2-2c-2.8-0.5-5.9-1.2-5.9-5.1
			c0-3.5,3.2-5.2,7.1-5.2c4.6,0,7.1,2,7.4,5.2h-4.8c-0.2-1.5-1.2-1.9-2.6-1.9c-1.3,0-2.3,0.5-2.3,1.5c0,1.2,1.9,1.3,3.9,1.7
			c2.9,0.5,6.3,1.2,6.3,5.4c0,3.6-3.2,5.4-7.5,5.4C1100.5,665.5,1097.5,663.3,1097.4,659.7z"/>
	</g>
</g>
<g class="st29">
	<g>
		<path class="st31" d="M833.2,709.2h2.1c0.3,2.9,2.1,4.4,5.3,4.4c2.4,0,4.1-1.1,4.1-3.2c0-2.4-2.1-2.9-5.1-3.6
			c-3-0.7-5.6-1.5-5.6-4.8c0-2.8,2.4-4.5,5.8-4.5c4.3,0,6.1,2.2,6.5,5.4h-2c-0.3-2.4-1.9-3.7-4.4-3.7c-2.3,0-3.9,1-3.9,2.8
			c0,1.9,1.9,2.5,4.5,3c3.3,0.7,6.4,1.5,6.4,5.4c0,3.2-2.6,5-6.3,5C835.7,715.3,833.4,712.6,833.2,709.2z"/>
	</g>
	<g>
		<path class="st31" d="M849.1,697.8h1.9v2.4h-1.9V697.8z M849.1,702.6h1.9V715h-1.9V702.6z"/>
	</g>
	<g>
		<path class="st31" d="M852.9,702.6h1.8v-3.9h1.9v3.9h2.4v1.6h-2.4v8.1c0,0.9,0.5,1.2,1.2,1.2c0.4,0,0.8-0.1,1-0.2h0.1v1.7
			c-0.5,0.1-1,0.2-1.6,0.2c-1.6,0-2.7-0.6-2.7-2.4v-8.5h-1.8L852.9,702.6L852.9,702.6z"/>
	</g>
	<g>
		<path class="st31" d="M860.2,708.8c0-3.6,2.4-6.5,5.9-6.5c3.7,0,5.7,2.9,5.7,7h-9.6c0.1,2.5,1.5,4.4,4,4.4c1.8,0,3-0.9,3.4-2.5
			h1.9c-0.6,2.7-2.5,4.2-5.3,4.2C862.4,715.3,860.2,712.4,860.2,708.8z M862.2,707.8h7.5c-0.1-2.5-1.4-4-3.6-4
			C863.8,703.8,862.5,705.5,862.2,707.8z"/>
	</g>
	<g>
		<path class="st31" d="M877.5,697.8h1.9v2.4h-1.9V697.8z M877.5,702.6h1.9V715h-1.9V702.6z"/>
	</g>
	<g>
		<path class="st31" d="M881.3,711h2c0.3,2.2,1.7,2.8,3.6,2.8c2,0,2.9-0.9,2.9-2c0-1.4-1-1.8-3.2-2.2c-2.4-0.5-4.6-1-4.6-3.7
			c0-2.1,1.6-3.4,4.5-3.4c3.1,0,4.6,1.5,4.9,3.9h-2c-0.2-1.6-1.1-2.4-2.9-2.4c-1.8,0-2.5,0.8-2.5,1.8c0,1.3,1.2,1.6,3.3,2
			c2.5,0.5,4.6,1.1,4.6,3.9c0,2.5-2,3.8-4.9,3.8C883.4,715.4,881.5,713.8,881.3,711z"/>
	</g>
	<g>
		<path class="st31" d="M905.3,715v-1.7l0,0c-0.9,1.2-1.9,2-3.7,2c-2.5,0-4.2-1.5-4.2-4.1v-8.6h1.9v8.5c0,1.6,1,2.5,2.8,2.5
			c2,0,3.2-1.5,3.2-3.5v-7.6h1.9V715H905.3z"/>
	</g>
	<g>
		<path class="st31" d="M911.8,704.2L911.8,704.2c0.9-1.2,2.2-1.9,4-1.9c2.6,0,4.2,1.4,4.2,4v8.7h-2v-8.5c0-1.6-1.1-2.5-2.8-2.5
			c-2,0-3.4,1.4-3.4,3.4v7.6h-1.9v-12.4h1.9V704.2z"/>
	</g>
	<g>
		<path class="st31" d="M921.8,708.8c0-4.1,2.4-6.5,5.4-6.5c1.8,0,3.1,0.9,3.9,2l0,0v-6.5h1.9V715h-1.9v-1.5l0,0
			c-0.9,1.2-2.1,1.9-3.8,1.9C923.9,715.4,921.8,712.8,921.8,708.8z M931.3,708.9c0-2.9-1.4-4.9-4-4.9c-2.4,0-3.6,2.1-3.6,4.9
			c0,2.8,1.2,4.9,3.6,4.9C930.2,713.7,931.3,711.7,931.3,708.9z"/>
	</g>
	<g>
		<path class="st31" d="M935.1,708.8c0-3.6,2.4-6.5,5.9-6.5c3.7,0,5.7,2.9,5.7,7h-9.6c0.1,2.5,1.5,4.4,4,4.4c1.8,0,3-0.9,3.4-2.5
			h1.9c-0.6,2.7-2.5,4.2-5.3,4.2C937.3,715.3,935.1,712.4,935.1,708.8z M937.1,707.8h7.5c-0.1-2.5-1.4-4-3.6-4
			C938.7,703.8,937.4,705.5,937.1,707.8z"/>
	</g>
	<g>
		<path class="st31" d="M950.5,704.7L950.5,704.7c0.8-1.2,2.1-2.2,3.7-2.2c0.4,0,0.6,0,0.8,0.1v1.9l0,0c-0.3-0.1-0.5-0.1-0.9-0.1
			c-1.9,0-3.6,1.4-3.6,3.8v6.9h-1.9v-12.4h1.9V704.7z"/>
	</g>
	<g>
		<path class="st31" d="M959.9,708.8c0-3.6,2.3-6.5,6-6.5c2.9,0,4.9,1.7,5.3,4.3h-2c-0.3-1.7-1.5-2.7-3.3-2.7c-2.6,0-4,2.2-4,4.9
			s1.4,4.9,4,4.9c2,0,3.2-1.2,3.4-3.1h1.9c-0.3,3-2.2,4.7-5.3,4.7C962.2,715.3,959.9,712.4,959.9,708.8z"/>
	</g>
	<g>
		<path class="st31" d="M972.4,708.8c0-3.6,2.3-6.5,6-6.5s6,2.9,6,6.5s-2.3,6.5-6,6.5S972.4,712.4,972.4,708.8z M982.4,708.8
			c0-2.7-1.3-4.9-4-4.9c-2.6,0-4,2.2-4,4.9s1.4,4.9,4,4.9S982.4,711.5,982.4,708.8z"/>
	</g>
	<g>
		<path class="st31" d="M988.3,704.2L988.3,704.2c0.9-1.2,2.2-1.9,4-1.9c2.6,0,4.2,1.4,4.2,4v8.7h-1.9v-8.5c0-1.6-1.1-2.5-2.8-2.5
			c-2,0-3.4,1.4-3.4,3.4v7.6h-1.9v-12.4h1.9L988.3,704.2L988.3,704.2z"/>
	</g>
	<g>
		<path class="st31" d="M998.2,711h2c0.3,2.2,1.7,2.8,3.6,2.8c2,0,2.9-0.9,2.9-2c0-1.4-1-1.8-3.2-2.2c-2.4-0.5-4.6-1-4.6-3.7
			c0-2.1,1.6-3.4,4.5-3.4c3.1,0,4.6,1.5,4.9,3.9h-2c-0.2-1.6-1.1-2.4-2.9-2.4c-1.8,0-2.5,0.8-2.5,1.8c0,1.3,1.2,1.6,3.3,2
			c2.5,0.5,4.6,1.1,4.6,3.9c0,2.5-2,3.8-4.9,3.8C1000.3,715.4,998.4,713.8,998.2,711z"/>
	</g>
	<g>
		<path class="st31" d="M1009.4,702.6h1.8v-3.9h1.9v3.9h2.4v1.6h-2.4v8.1c0,0.9,0.5,1.2,1.2,1.2c0.4,0,0.8-0.1,1-0.2h0.1v1.7
			c-0.5,0.1-1,0.2-1.6,0.2c-1.6,0-2.7-0.6-2.7-2.4v-8.5h-1.8L1009.4,702.6L1009.4,702.6z"/>
	</g>
	<g>
		<path class="st31" d="M1019.5,704.7L1019.5,704.7c0.8-1.2,2.1-2.2,3.7-2.2c0.4,0,0.6,0,0.8,0.1v1.9h-0.1c-0.3-0.1-0.5-0.1-0.9-0.1
			c-1.9,0-3.6,1.4-3.6,3.8v6.9h-1.9v-12.4h1.9L1019.5,704.7L1019.5,704.7z"/>
	</g>
	<g>
		<path class="st31" d="M1033.7,715v-1.7l0,0c-0.9,1.2-1.9,2-3.7,2c-2.5,0-4.2-1.5-4.2-4.1v-8.6h1.9v8.5c0,1.6,1,2.5,2.8,2.5
			c2,0,3.2-1.5,3.2-3.5v-7.6h1.9V715H1033.7z"/>
	</g>
	<g>
		<path class="st31" d="M1037.6,708.8c0-3.6,2.3-6.5,6-6.5c2.9,0,4.9,1.7,5.3,4.3h-2c-0.3-1.7-1.5-2.7-3.3-2.7c-2.6,0-4,2.2-4,4.9
			s1.4,4.9,4,4.9c2,0,3.2-1.2,3.4-3.1h1.9c-0.3,3-2.2,4.7-5.3,4.7C1039.9,715.3,1037.6,712.4,1037.6,708.8z"/>
	</g>
	<g>
		<path class="st31" d="M1050,702.6h1.8v-3.9h1.9v3.9h2.4v1.6h-2.4v8.1c0,0.9,0.5,1.2,1.2,1.2c0.4,0,0.8-0.1,1-0.2h0.1v1.7
			c-0.5,0.1-1,0.2-1.6,0.2c-1.6,0-2.7-0.6-2.7-2.4v-8.5h-1.8L1050,702.6L1050,702.6z"/>
	</g>
	<g>
		<path class="st31" d="M1058.1,697.8h1.9v2.4h-1.9V697.8z M1058.1,702.6h1.9V715h-1.9V702.6z"/>
	</g>
	<g>
		<path class="st31" d="M1062,708.8c0-3.6,2.3-6.5,6-6.5s6,2.9,6,6.5s-2.3,6.5-6,6.5S1062,712.4,1062,708.8z M1072,708.8
			c0-2.7-1.3-4.9-4-4.9c-2.6,0-4,2.2-4,4.9s1.4,4.9,4,4.9C1070.7,713.7,1072,711.5,1072,708.8z"/>
	</g>
	<g>
		<path class="st31" d="M1077.9,704.2L1077.9,704.2c0.9-1.2,2.2-1.9,4-1.9c2.6,0,4.2,1.4,4.2,4v8.7h-1.9v-8.5c0-1.6-1.1-2.5-2.8-2.5
			c-2,0-3.4,1.4-3.4,3.4v7.6h-1.9v-12.4h1.9L1077.9,704.2L1077.9,704.2z"/>
	</g>
</g>
<g class="st29">
	<g>
		<path class="st31" d="M778.7,740.8c0-4.1,2.4-6.5,5.4-6.5c1.8,0,3.1,0.9,3.9,2l0,0v-6.5h1.9V747H788v-1.5l0,0
			c-0.9,1.2-2.1,1.9-3.8,1.9C780.8,747.4,778.7,744.8,778.7,740.8z M788.2,740.9c0-2.9-1.4-4.9-4-4.9c-2.4,0-3.6,2.1-3.6,4.9
			c0,2.8,1.2,4.9,3.6,4.9C787,745.7,788.2,743.7,788.2,740.9z"/>
	</g>
	<g>
		<path class="st31" d="M792,740.8c0-3.6,2.4-6.5,5.9-6.5c3.7,0,5.7,2.9,5.7,7H794c0.1,2.5,1.5,4.4,4,4.4c1.8,0,3-0.9,3.4-2.5h1.9
			c-0.6,2.7-2.5,4.2-5.3,4.2C794.2,747.3,792,744.4,792,740.8z M794,739.8h7.5c-0.1-2.5-1.4-4-3.6-4
			C795.6,735.8,794.3,737.5,794,739.8z"/>
	</g>
	<g>
		<path class="st31" d="M804,734.6h2.1l2.6,7.9c0.4,1.1,0.8,2.6,0.8,2.6l0,0c0,0,0.5-1.5,0.8-2.6l2.6-7.9h2l-4.5,12.4h-2.2
			L804,734.6z"/>
	</g>
	<g>
		<path class="st31" d="M815.4,740.8c0-3.6,2.4-6.5,5.9-6.5c3.7,0,5.7,2.9,5.7,7h-9.6c0.1,2.5,1.5,4.4,4,4.4c1.8,0,3-0.9,3.4-2.5
			h1.9c-0.6,2.7-2.5,4.2-5.3,4.2C817.6,747.3,815.4,744.4,815.4,740.8z M817.4,739.8h7.5c-0.1-2.5-1.4-4-3.6-4
			C818.9,735.8,817.7,737.5,817.4,739.8z"/>
	</g>
	<g>
		<path class="st31" d="M828.9,729.8h1.9V747h-1.9V729.8z"/>
	</g>
	<g>
		<path class="st31" d="M832.9,740.8c0-3.6,2.3-6.5,6-6.5s6,2.9,6,6.5s-2.3,6.5-6,6.5S832.9,744.4,832.9,740.8z M842.9,740.8
			c0-2.7-1.3-4.9-4-4.9s-4,2.2-4,4.9s1.4,4.9,4,4.9S842.9,743.5,842.9,740.8z"/>
	</g>
	<g>
		<path class="st31" d="M846.8,734.6h1.9v1.8l0,0c0.9-1.3,2.2-2,4-2c3.1,0,5.3,2.4,5.3,6.5c0,4-2,6.5-5.4,6.5
			c-1.7,0-2.9-0.5-3.9-1.8l0,0v5.4h-1.9L846.8,734.6L846.8,734.6z M856.1,740.9c0-2.8-1.2-4.9-3.5-4.9c-2.7,0-4,2.2-4,4.9
			s1.1,4.9,3.9,4.9C854.9,745.7,856.1,743.7,856.1,740.9z"/>
	</g>
	<g>
		<path class="st31" d="M859.3,740.8c0-3.6,2.4-6.5,5.9-6.5c3.7,0,5.7,2.9,5.7,7h-9.6c0.1,2.5,1.5,4.4,4,4.4c1.8,0,3-0.9,3.4-2.5
			h1.9c-0.6,2.7-2.5,4.2-5.3,4.2C861.6,747.3,859.3,744.4,859.3,740.8z M861.4,739.8h7.5c-0.1-2.5-1.4-4-3.6-4
			C862.9,735.8,861.7,737.5,861.4,739.8z"/>
	</g>
	<g>
		<path class="st31" d="M872.1,740.8c0-4.1,2.4-6.5,5.4-6.5c1.8,0,3.1,0.9,3.9,2l0,0v-6.5h1.9V747h-1.9v-1.5l0,0
			c-0.9,1.2-2.1,1.9-3.8,1.9C874.2,747.4,872.1,744.8,872.1,740.8z M881.6,740.9c0-2.9-1.4-4.9-4-4.9c-2.4,0-3.6,2.1-3.6,4.9
			c0,2.8,1.2,4.9,3.6,4.9C880.5,745.7,881.6,743.7,881.6,740.9z"/>
	</g>
	<g>
		<path class="st31" d="M891.9,745.4L891.9,745.4v1.6H890v-17.2h1.9v6.5l0,0c0.9-1.3,2.2-2.1,4-2.1c3.1,0,5.3,2.4,5.3,6.5
			c0,4-2,6.5-5.4,6.5C894.1,747.4,892.9,746.8,891.9,745.4z M899.2,740.9c0-2.8-1.1-4.9-3.5-4.9c-2.7,0-4,2.2-4,4.9
			c0,2.8,1.3,4.9,3.9,4.9C898.1,745.7,899.2,743.7,899.2,740.9z"/>
	</g>
	<g>
		<path class="st31" d="M902.7,750.8v-1.7h0.1c0.3,0.1,0.7,0.3,1.3,0.3c0.8,0,1.4-0.3,1.8-1.5l0.5-1.2l-4.8-12h2.1l2.9,7.7
			c0.4,1,0.8,2.4,0.8,2.4l0,0c0,0,0.4-1.4,0.8-2.4l2.8-7.7h2.1l-5.3,13.4c-1,2.6-2,3.1-3.5,3.1C903.7,751.1,903.2,751.1,902.7,750.8
			z"/>
	</g>
	<g>
		<path class="st31" d="M917.6,729.8h13.6v1.9h-5.7V747h-2.2v-15.3h-5.7L917.6,729.8L917.6,729.8z"/>
	</g>
	<g>
		<path class="st31" d="M929.7,740.8c0-3.6,2.4-6.5,5.9-6.5c3.7,0,5.7,2.9,5.7,7h-9.6c0.1,2.5,1.5,4.4,4,4.4c1.8,0,3-0.9,3.4-2.5
			h1.9c-0.6,2.7-2.5,4.2-5.3,4.2C931.9,747.3,929.7,744.4,929.7,740.8z M931.8,739.8h7.5c-0.1-2.5-1.4-4-3.6-4
			C933.3,735.8,932.1,737.5,931.8,739.8z"/>
	</g>
	<g>
		<path class="st31" d="M942.5,740.8c0-3.6,2.3-6.5,6-6.5c2.9,0,4.9,1.7,5.3,4.3h-2c-0.3-1.7-1.5-2.7-3.3-2.7c-2.6,0-4,2.2-4,4.9
			s1.4,4.9,4,4.9c2,0,3.2-1.2,3.4-3.1h1.9c-0.3,3-2.2,4.7-5.3,4.7C944.8,747.3,942.5,744.4,942.5,740.8z"/>
	</g>
	<g>
		<path class="st31" d="M957.6,736.2L957.6,736.2c0.9-1.2,2.2-1.9,4-1.9c2.6,0,4.2,1.4,4.2,4v8.7h-1.9v-8.5c0-1.6-1.1-2.5-2.8-2.5
			c-2,0-3.4,1.4-3.4,3.4v7.6h-1.9v-17.2h1.9L957.6,736.2L957.6,736.2z"/>
	</g>
	<g>
		<path class="st31" d="M967.7,740.8c0-4.1,2.4-6.5,5.4-6.5c1.8,0,3.1,0.9,3.9,2l0,0v-6.5h1.9V747H977v-1.5l0,0
			c-0.9,1.2-2.1,1.9-3.8,1.9C969.8,747.4,967.7,744.8,967.7,740.8z M977.2,740.9c0-2.9-1.4-4.9-4-4.9c-2.4,0-3.6,2.1-3.6,4.9
			c0,2.8,1.2,4.9,3.6,4.9C976,745.7,977.2,743.7,977.2,740.9z"/>
	</g>
	<g>
		<path class="st31" d="M980.9,740.8c0-3.6,2.4-6.5,5.9-6.5c3.7,0,5.7,2.9,5.7,7h-9.6c0.1,2.5,1.5,4.4,4,4.4c1.8,0,3-0.9,3.4-2.5
			h1.9c-0.6,2.7-2.5,4.2-5.3,4.2C983.1,747.3,980.9,744.4,980.9,740.8z M983,739.8h7.5c-0.1-2.5-1.4-4-3.6-4
			C984.5,735.8,983.3,737.5,983,739.8z"/>
	</g>
	<g>
		<path class="st31" d="M994.4,734.6h1.9v1.8l0,0c0.8-1.2,2.1-2.1,3.6-2.1s2.7,0.8,3.2,2.2l0,0c0.8-1.4,2.3-2.2,3.8-2.2
			c2.2,0,3.8,1.4,3.8,4v8.7h-1.9v-8.6c0-1.5-1-2.4-2.3-2.4c-1.6,0-3,1.4-3,3.3v7.7h-1.9v-8.6c0-1.5-0.9-2.4-2.1-2.4
			c-1.5,0-3.2,1.4-3.2,3.3v7.7h-1.9L994.4,734.6L994.4,734.6z"/>
	</g>
	<g>
		<path class="st31" d="M1012.8,740.8c0-3.6,2.3-6.5,6-6.5s6,2.9,6,6.5s-2.3,6.5-6,6.5C1015.1,747.3,1012.8,744.4,1012.8,740.8z
			 M1022.8,740.8c0-2.7-1.3-4.9-4-4.9c-2.6,0-4,2.2-4,4.9s1.4,4.9,4,4.9C1021.4,745.7,1022.8,743.5,1022.8,740.8z"/>
	</g>
	<g>
		<path class="st31" d="M1026,740.8c0-3.6,2.3-6.5,6-6.5c2.9,0,4.9,1.7,5.3,4.3h-2c-0.3-1.7-1.5-2.7-3.3-2.7c-2.6,0-4,2.2-4,4.9
			s1.4,4.9,4,4.9c2,0,3.2-1.2,3.4-3.1h1.9c-0.3,3-2.2,4.7-5.3,4.7C1028.3,747.3,1026,744.4,1026,740.8z"/>
	</g>
	<g>
		<path class="st31" d="M1041.1,736.7L1041.1,736.7c0.8-1.2,2.1-2.2,3.7-2.2c0.4,0,0.6,0,0.8,0.1v1.9h-0.1c-0.3-0.1-0.5-0.1-0.9-0.1
			c-1.9,0-3.6,1.4-3.6,3.8v6.9h-1.9v-12.4h1.9L1041.1,736.7L1041.1,736.7z"/>
	</g>
	<g>
		<path class="st31" d="M1054.5,745.3L1054.5,745.3c-0.8,1-2,2-4.2,2c-2.4,0-4.2-1.1-4.2-3.5c0-2.9,2.3-3.5,5.4-4
			c1.8-0.3,3-0.4,3-1.8c0-1.4-1-2.2-2.8-2.2c-2,0-3,0.9-3.1,2.7h-1.9c0.1-2.4,1.7-4.2,4.9-4.2c2.6,0,4.6,1,4.6,3.9v5.9
			c0,1,0.2,1.6,1.3,1.3h0.1v1.4c-0.2,0.1-0.6,0.2-1.1,0.2C1055.4,747.1,1054.7,746.5,1054.5,745.3z M1054.6,742.4v-2.1
			c-0.6,0.4-1.8,0.7-2.8,0.9c-1.9,0.4-3.5,0.7-3.5,2.5c0,1.7,1.3,2,2.6,2C1053.4,745.8,1054.6,743.9,1054.6,742.4z"/>
	</g>
	<g>
		<path class="st31" d="M1058.4,740.8c0-3.6,2.3-6.5,6-6.5c2.9,0,4.9,1.7,5.3,4.3h-2c-0.3-1.7-1.5-2.7-3.3-2.7c-2.6,0-4,2.2-4,4.9
			s1.4,4.9,4,4.9c2,0,3.2-1.2,3.4-3.1h1.9c-0.3,3-2.2,4.7-5.3,4.7C1060.8,747.3,1058.4,744.4,1058.4,740.8z"/>
	</g>
	<g>
		<path class="st31" d="M1071.4,750.8v-1.7h0.1c0.3,0.1,0.7,0.3,1.3,0.3c0.8,0,1.4-0.3,1.8-1.5l0.5-1.2l-4.8-12h2.1l2.9,7.7
			c0.4,1,0.8,2.4,0.8,2.4l0,0c0,0,0.4-1.4,0.8-2.4l2.8-7.7h2.1l-5.3,13.4c-1,2.6-2,3.1-3.5,3.1
			C1072.4,751.1,1072,751.1,1071.4,750.8z"/>
	</g>
	<g>
		<path class="st31" d="M1086.4,729.8h13.6v1.9h-5.7V747h-2.2v-15.3h-5.7L1086.4,729.8L1086.4,729.8z"/>
	</g>
	<g>
		<path class="st31" d="M1098.5,740.8c0-3.6,2.4-6.5,5.9-6.5c3.7,0,5.7,2.9,5.7,7h-9.6c0.1,2.5,1.5,4.4,4,4.4c1.8,0,3-0.9,3.4-2.5
			h1.9c-0.6,2.7-2.5,4.2-5.3,4.2C1100.7,747.3,1098.5,744.4,1098.5,740.8z M1100.5,739.8h7.5c-0.1-2.5-1.4-4-3.6-4
			C1102,735.8,1100.8,737.5,1100.5,739.8z"/>
	</g>
	<g>
		<path class="st31" d="M1119.6,745.3L1119.6,745.3c-0.8,1-2,2-4.2,2c-2.4,0-4.2-1.1-4.2-3.5c0-2.9,2.3-3.5,5.4-4
			c1.8-0.3,3-0.4,3-1.8c0-1.4-1-2.2-2.8-2.2c-2,0-3,0.9-3.1,2.7h-1.9c0.1-2.4,1.7-4.2,4.9-4.2c2.6,0,4.6,1,4.6,3.9v5.9
			c0,1,0.2,1.6,1.3,1.3h0.1v1.4c-0.2,0.1-0.6,0.2-1.1,0.2C1120.4,747.1,1119.7,746.5,1119.6,745.3z M1119.6,742.4v-2.1
			c-0.6,0.4-1.8,0.7-2.8,0.9c-1.9,0.4-3.5,0.7-3.5,2.5c0,1.7,1.3,2,2.6,2C1118.4,745.8,1119.6,743.9,1119.6,742.4z"/>
	</g>
	<g>
		<path class="st31" d="M1124.2,734.6h1.9v1.8l0,0c0.8-1.2,2.1-2.1,3.6-2.1s2.7,0.8,3.2,2.2l0,0c0.8-1.4,2.3-2.2,3.8-2.2
			c2.2,0,3.8,1.4,3.8,4v8.7h-1.9v-8.6c0-1.5-1-2.4-2.3-2.4c-1.6,0-3,1.4-3,3.3v7.7h-1.9v-8.6c0-1.5-0.9-2.4-2.1-2.4
			c-1.5,0-3.2,1.4-3.2,3.3v7.7h-1.9V734.6z"/>
	</g>
</g>
</svg>
