<svg xmlns="http://www.w3.org/2000/svg" width="58.612" height="59.616" viewBox="0 0 58.612 59.616">
  <path id="process_6624309" d="M20.46.415A16.147,16.147,0,0,0,9.042,27.98a16.346,16.346,0,0,0,1.425,1.268,3.5,3.5,0,0,1,1.394,2.876V34.87a6.176,6.176,0,0,0,6.169,6.169h4.859a6.176,6.176,0,0,0,6.169-6.169V32.124a3.5,3.5,0,0,1,1.394-2.876,16.363,16.363,0,0,0,1.425-1.268A16.147,16.147,0,0,0,20.46.415Zm0,16.713a.967.967,0,1,1,.967-.967.967.967,0,0,1-.967.967Zm5.93,13.708a6.691,6.691,0,0,0-.126,1.288v.264H14.655v-.264a6.691,6.691,0,0,0-.126-1.288Zm-3.5,7.408H18.031a3.379,3.379,0,0,1-3.36-3.062H26.249A3.379,3.379,0,0,1,22.889,38.244ZM29.9,26a13.516,13.516,0,0,1-1.181,1.051,6.671,6.671,0,0,0-1.012.99l-.047,0h-5.8v-8.39a3.762,3.762,0,1,0-2.795,0v8.389h-5.8l-.047,0a6.667,6.667,0,0,0-1.012-.99A13.532,13.532,0,0,1,11.018,26,13.353,13.353,0,1,1,29.9,26ZM61.779,47.611a1.4,1.4,0,0,0,1.145-1.374V41.113a1.4,1.4,0,0,0-1.145-1.374l-2.37-.436q-.17-.461-.376-.907L60.4,36.412a1.4,1.4,0,0,0-.162-1.782l-3.623-3.623a1.4,1.4,0,0,0-1.782-.162l-1.984,1.368q-.446-.206-.907-.376l-.435-2.37a1.4,1.4,0,0,0-1.374-1.145H45.011a1.4,1.4,0,0,0-1.374,1.145L43.2,31.838q-.461.17-.907.376L40.31,30.846a1.4,1.4,0,0,0-1.781.162l-3.623,3.623a1.4,1.4,0,0,0-.162,1.781L36.112,38.4q-.206.446-.376.907l-2.37.435a1.4,1.4,0,0,0-1.145,1.374v5.123a1.4,1.4,0,0,0,1.145,1.374l2.37.435q.17.461.376.907l-1.368,1.984a1.4,1.4,0,0,0,.162,1.782l3.623,3.623a1.4,1.4,0,0,0,1.782.162l1.984-1.368q.446.206.907.376l.435,2.37a1.4,1.4,0,0,0,1.374,1.145h5.123a1.4,1.4,0,0,0,1.374-1.145l.435-2.37q.461-.17.907-.376L54.834,56.5a1.4,1.4,0,0,0,1.781-.162l3.623-3.623a1.4,1.4,0,0,0,.162-1.781l-1.368-1.984q.205-.446.376-.907ZM58.09,45.447A1.4,1.4,0,0,0,57,46.429a9.77,9.77,0,0,1-.814,1.963,1.4,1.4,0,0,0,.075,1.466l1.177,1.707-1.977,1.977-1.707-1.177a1.4,1.4,0,0,0-1.466-.075,9.76,9.76,0,0,1-1.963.813,1.4,1.4,0,0,0-.983,1.089l-.374,2.039H46.175L45.8,54.192a1.4,1.4,0,0,0-.983-1.089,9.773,9.773,0,0,1-1.963-.814,1.4,1.4,0,0,0-1.466.075l-1.707,1.178-1.976-1.977,1.177-1.707a1.4,1.4,0,0,0,.075-1.466,9.774,9.774,0,0,1-.814-1.963,1.4,1.4,0,0,0-1.089-.983l-2.039-.374v-2.8l2.039-.374a1.4,1.4,0,0,0,1.089-.983,9.778,9.778,0,0,1,.814-1.963,1.4,1.4,0,0,0-.075-1.466l-1.177-1.707,1.977-1.977,1.707,1.177a1.4,1.4,0,0,0,1.466.075,9.762,9.762,0,0,1,1.963-.814,1.4,1.4,0,0,0,.983-1.089l.374-2.039h2.8l.374,2.039a1.4,1.4,0,0,0,.983,1.089,9.76,9.76,0,0,1,1.963.814,1.4,1.4,0,0,0,1.466-.075l1.707-1.177,1.977,1.977-1.177,1.707a1.4,1.4,0,0,0-.075,1.466A9.77,9.77,0,0,1,57,40.919a1.4,1.4,0,0,0,1.089.983l2.039.374v2.8Zm-10.518-8.6A6.824,6.824,0,1,0,54.4,43.674a6.824,6.824,0,0,0-6.824-6.824Zm0,10.854a4.03,4.03,0,1,1,4.03-4.03,4.03,4.03,0,0,1-4.03,4.03ZM9.213,46.63V40.547a1.4,1.4,0,1,1,2.795,0V46.63a4.706,4.706,0,0,0,4.7,4.7H26.92l-2.862-2.716a1.4,1.4,0,0,1,1.924-2.027l5.6,5.311a1.4,1.4,0,0,1,0,2.027l-5.6,5.311a1.4,1.4,0,0,1-1.924-2.027l3.25-3.084h-10.6A7.5,7.5,0,0,1,9.213,46.63ZM43.65,2.415l-3.056,2.9h9.934a7.5,7.5,0,0,1,7.5,7.5V26.524a1.4,1.4,0,1,1-2.795,0V12.81a4.706,4.706,0,0,0-4.7-4.7H40.594l3.056,2.9a1.4,1.4,0,1,1-1.924,2.027l-5.6-5.311a1.4,1.4,0,0,1,0-2.027l5.6-5.31A1.4,1.4,0,0,1,43.65,2.416Z" transform="translate(-4.312 -0.005)"/>
</svg>
