<svg xmlns="http://www.w3.org/2000/svg" width="30.511" height="40.682" viewBox="0 0 30.511 40.682">
  <g id="lock" transform="translate(-64)">
    <g id="Group_2993" data-name="Group 2993" transform="translate(64)">
      <path id="Path_84677" data-name="Path 84677" d="M93.664,15.256H91.121v-3.39a11.866,11.866,0,0,0-23.731,0v3.39H64.848A.847.847,0,0,0,64,16.1V37.292a3.393,3.393,0,0,0,3.39,3.39H91.121a3.393,3.393,0,0,0,3.39-3.39V16.1A.847.847,0,0,0,93.664,15.256Zm-11.87,17.7a.848.848,0,0,1-.843.941h-3.39a.848.848,0,0,1-.843-.941l.535-4.808a3.353,3.353,0,0,1-1.387-2.726,3.39,3.39,0,1,1,6.78,0,3.353,3.353,0,0,1-1.387,2.726Zm4.243-17.7H72.475v-3.39a6.78,6.78,0,0,1,13.561,0Z" transform="translate(-64)" fill="#000f2b"/>
    </g>
  </g>
</svg>
