<svg xmlns="http://www.w3.org/2000/svg" width="49.062" height="49.062" viewBox="0 0 49.062 49.062">
  <path id="customer-service_1168331" d="M44.7,18.778h0a20.215,20.215,0,0,0-40.327,0h0A4.37,4.37,0,0,0,0,23.143v7.57a4.37,4.37,0,0,0,4.365,4.366H12.94V20.215a11.591,11.591,0,1,1,23.182,0V35.078h3.01v1.537a6.7,6.7,0,0,1-6.695,6.695H31a4.321,4.321,0,0,0-4.067-2.877H22.133a4.314,4.314,0,1,0,0,8.629h4.795A4.321,4.321,0,0,0,31,46.185h1.441a9.581,9.581,0,0,0,9.57-9.57V35.079H44.7a4.37,4.37,0,0,0,4.365-4.366v-7.57A4.37,4.37,0,0,0,44.7,18.778ZM26.928,46.187H22.133a1.44,1.44,0,1,1,0-2.879h4.795a1.44,1.44,0,1,1,0,2.879ZM10.065,32.2h-5.7a1.492,1.492,0,0,1-1.491-1.49v-7.57a1.492,1.492,0,0,1,1.491-1.491h5.7ZM24.531,5.749A14.486,14.486,0,0,0,10.136,18.778H7.25a17.34,17.34,0,0,1,34.561,0H38.925A14.486,14.486,0,0,0,24.531,5.749ZM46.187,30.713A1.493,1.493,0,0,1,44.7,32.2H39V21.653h5.7a1.492,1.492,0,0,1,1.491,1.491Zm0,0"/>
</svg>
