<svg id="Component_26_7" data-name="Component 26 – 7" xmlns="http://www.w3.org/2000/svg" xmlns:xlink="http://www.w3.org/1999/xlink" width="1920" height="690" viewBox="0 0 1920 690">
  <defs>
    <linearGradient id="linear-gradient" x1="0.5" x2="0.097" y2="1.372" gradientUnits="objectBoundingBox">
      <stop offset="0" stop-color="#173cb4"/>
      <stop offset="1" stop-color="#009dff"/>
    </linearGradient>
    <linearGradient id="linear-gradient-2" x1="0.455" y1="0.5" x2="0.011" y2="0.5" gradientUnits="objectBoundingBox">
      <stop offset="0" stop-color="#8018b7"/>
      <stop offset="1" stop-color="#173cb4" stop-opacity="0"/>
    </linearGradient>
    <linearGradient id="linear-gradient-3" x1="0.455" y1="0.5" x2="0.011" y2="0.5" gradientUnits="objectBoundingBox">
      <stop offset="0" stop-color="#009dff"/>
      <stop offset="1" stop-color="#173cb4" stop-opacity="0"/>
    </linearGradient>
    <linearGradient id="linear-gradient-4" x1="0.455" y1="0.5" x2="0.011" y2="0.5" gradientUnits="objectBoundingBox">
      <stop offset="0" stop-color="#8630fc"/>
      <stop offset="1" stop-color="#173cb4" stop-opacity="0"/>
    </linearGradient>
    <linearGradient id="linear-gradient-5" x1="-0.056" y1="1.121" x2="1" gradientUnits="objectBoundingBox">
      <stop offset="0" stop-color="#173cb4" stop-opacity="0.255"/>
      <stop offset="1" stop-color="#009dff" stop-opacity="0.09"/>
    </linearGradient>
  </defs>
  <g id="Group_2987" data-name="Group 2987" transform="translate(0 -107)">
    <g id="Path_84674" data-name="Path 84674" transform="translate(0 107)" fill="url(#linear-gradient)">
      <path d="M 1919.5 689.5 L 0.5 689.5 L 0.5 0.5 L 1919.5 0.5 L 1919.5 689.5 Z" stroke="none"/>
      <path d="M 1 1 L 1 689 L 1919 689 L 1919 1 L 1 1 M 0 0 L 1920 0 L 1920 690 L 0 690 L 0 0 Z" stroke="none" fill="#707070"/>
    </g>
    <g id="Button" transform="translate(263 624)">
      <rect id="Placement_Area" data-name="Placement Area" width="108" height="48" fill="red" opacity="0"/>
      <rect id="Background" width="141" height="48" rx="10" fill="#002262"/>
      <text id="Text" transform="translate(30 30)" fill="#fff" font-size="18" font-family="AdobeClean-Bold, Adobe Clean" font-weight="700"><tspan x="0" y="0">Read More..</tspan></text>
    </g>
  </g>
  <path id="Union_7" data-name="Union 7" d="M564.154,110.06,498.306,219.386H0V0H498.306Z" transform="translate(1168.387 6.391) rotate(90)" fill="url(#linear-gradient-2)"/>
  <path id="Union_8" data-name="Union 8" d="M564.154,110.06,498.306,219.386H0V0H498.306Z" transform="translate(1417.387 6.391) rotate(90)" fill="url(#linear-gradient-3)"/>
  <path id="Union_9" data-name="Union 9" d="M564.154,110.06,498.306,219.386H0V0H498.306Z" transform="translate(1659 6.391) rotate(90)" fill="url(#linear-gradient-4)"/>
  <text id="We_are_Experts_in_Delivering_Identity_Solutions" data-name="We are Experts in Delivering
Identity Solutions" transform="translate(263 195)" fill="#fff" font-size="48" font-family="NHaasGroteskDSPro-65Md, Neue Haas Grotesk Display Pro" font-weight="500"><tspan x="0" y="45">We are Experts in Delivering</tspan><tspan x="0" y="103">Identity Solutions</tspan></text>
  <text id="Embark_on_a_captivating_carousel_showcasing_our_IDM_prowess._Explore_cutting-edge_solutions_like_multi-factor_authentication_role-based_access_control_and_more._Elevate_your_identity_security_with_us." data-name="Embark on a captivating carousel showcasing our IDM prowess. Explore cutting-edge solutions like multi-factor authentication, role-based access control, and more. Elevate your identity security with us." transform="translate(263 325)" fill="#fff" font-size="22" font-family="NHaasGroteskTXPro-55Rg, Neue Haas Grotesk Text Pro" opacity="0.9"><tspan x="0" y="22">Embark on a captivating carousel showcasing our </tspan><tspan x="0" y="54">IDM prowess. Explore cutting-edge solutions like </tspan><tspan x="0" y="86">multi-factor authentication, role-based access control, </tspan><tspan x="0" y="118">and more. Elevate your identity security with us.</tspan></text>
  <rect id="Rectangle_2182" data-name="Rectangle 2182" width="201" height="566" transform="translate(0 58)" fill="none"/>
  <rect id="Rectangle_2183" data-name="Rectangle 2183" width="201" height="566" transform="translate(1719 58)" fill="none"/>
  <rect id="Rectangle_2244" data-name="Rectangle 2244" width="155" height="518" transform="translate(49 79)" fill="none"/>
  <rect id="Rectangle_2245" data-name="Rectangle 2245" width="155" height="518" transform="translate(1714 86)" fill="none"/>
  <g id="Rectangle_2254" data-name="Rectangle 2254" transform="translate(907 150)" stroke="#00b1ff" stroke-width="1" fill="url(#linear-gradient-5)">
    <rect width="794" height="356" rx="69" stroke="none"/>
    <rect x="0.5" y="0.5" width="793" height="355" rx="68.5" fill="none"/>
  </g>
  <g id="Group_3264" data-name="Group 3264" transform="translate(0 -213)">
    <path id="Union_3" data-name="Union 3" d="M564.154,110.06,498.306,219.386H0V0H498.306Z" transform="translate(1168.387 219.391) rotate(90)" fill="url(#linear-gradient-2)"/>
    <path id="Union_5" data-name="Union 5" d="M564.154,110.06,498.306,219.386H0V0H498.306Z" transform="translate(1417.387 219.391) rotate(90)" fill="url(#linear-gradient-3)"/>
    <path id="Union_6" data-name="Union 6" d="M564.154,110.06,498.306,219.386H0V0H498.306Z" transform="translate(1659 219.391) rotate(90)" fill="url(#linear-gradient-4)"/>
    <text id="Modernize_your_Identity_security_posture_with_our_comprehensive_set_of_IAM_and_IGA_solutions." data-name="Modernize your Identity security posture with our comprehensive set of IAM and IGA solutions." transform="translate(1219 501)" fill="#fff" font-size="18" font-family="NHaasGroteskDSPro-65Md, Neue Haas Grotesk Display Pro" font-weight="500"><tspan x="0" y="17">Modernize your Identity </tspan><tspan x="0" y="41">security posture with </tspan><tspan x="0" y="65">our comprehensive set </tspan><tspan x="0" y="89">of IAM and IGA </tspan></text>
    <text id="Modernize_your_Identity_security_posture_with_our_comprehensive_set_of_IAM_and_IGA_solutions.-2" data-name="Modernize your Identity security posture with our comprehensive set of IAM and IGA solutions." transform="translate(970 501)" fill="#fff" font-size="18" font-family="NHaasGroteskDSPro-65Md, Neue Haas Grotesk Display Pro" font-weight="500"><tspan x="0" y="17">Modernize your Identity </tspan><tspan x="0" y="41">security posture with </tspan><tspan x="0" y="65">our comprehensive set </tspan><tspan x="0" y="89">of IAM and IGA </tspan></text>
    <text id="Modernize_your_Identity_security_posture_with_our_comprehensive_set_of_IAM_and_IGA_solutions.-3" data-name="Modernize your Identity security posture with our comprehensive set of IAM and IGA solutions." transform="translate(1456.613 501)" fill="#fff" font-size="18" font-family="NHaasGroteskDSPro-65Md, Neue Haas Grotesk Display Pro" font-weight="500"><tspan x="0" y="17">Modernize your Identity </tspan><tspan x="0" y="41">security posture with </tspan><tspan x="0" y="65">our comprehensive set </tspan><tspan x="0" y="89">of IAM and IGA </tspan></text>
    <text id="Utilities_Accelerators" data-name="Utilities &amp;
Accelerators" transform="translate(973 448)" fill="#fff" font-size="32" font-family="NHaasGroteskDSPro-65Md, Neue Haas Grotesk Display Pro" font-weight="500"><tspan x="0" y="0">Utilities &amp;</tspan><tspan x="0" y="32">Accelerators</tspan></text>
    <text id="Tailored_solutions" data-name="Tailored 
solutions" transform="translate(1219 408)" fill="#fff" font-size="32" font-family="NHaasGroteskDSPro-65Md, Neue Haas Grotesk Display Pro" font-weight="500"><tspan x="0" y="30">Tailored </tspan><tspan x="0" y="70">solutions</tspan></text>
    <text id="how_we_deliver" data-name="how we 
deliver" transform="translate(1457.613 403)" fill="#fff" font-size="32" font-family="NHaasGroteskDSPro-65Md, Neue Haas Grotesk Display Pro" font-weight="500"><tspan x="0" y="30">how we </tspan><tspan x="0" y="70">deliver</tspan></text>
    <circle id="Ellipse_67" data-name="Ellipse 67" cx="47.5" cy="47.5" r="47.5" transform="translate(1009 655)" fill="#002262"/>
    <circle id="Ellipse_68" data-name="Ellipse 68" cx="47.5" cy="47.5" r="47.5" transform="translate(1260 655)" fill="#002262"/>
    <circle id="Ellipse_69" data-name="Ellipse 69" cx="47.5" cy="47.5" r="47.5" transform="translate(1502 655)" fill="#002262"/>
    <g id="lock" transform="translate(977.244 679)">
      <g id="Group_2993" data-name="Group 2993" transform="translate(64)">
        <path id="Path_84677" data-name="Path 84677" d="M93.664,15.256H91.121v-3.39a11.866,11.866,0,0,0-23.731,0v3.39H64.848A.847.847,0,0,0,64,16.1V37.292a3.393,3.393,0,0,0,3.39,3.39H91.121a3.393,3.393,0,0,0,3.39-3.39V16.1A.847.847,0,0,0,93.664,15.256Zm-11.87,17.7a.848.848,0,0,1-.843.941h-3.39a.848.848,0,0,1-.843-.941l.535-4.808a3.353,3.353,0,0,1-1.387-2.726,3.39,3.39,0,1,1,6.78,0,3.353,3.353,0,0,1-1.387,2.726Zm4.243-17.7H72.475v-3.39a6.78,6.78,0,0,1,13.561,0Z" transform="translate(-64)" fill="#fff"/>
      </g>
    </g>
    <g id="lock-2" data-name="lock" transform="translate(1228.244 679)">
      <g id="Group_2993-2" data-name="Group 2993" transform="translate(64)">
        <path id="Path_84677-2" data-name="Path 84677" d="M93.664,15.256H91.121v-3.39a11.866,11.866,0,0,0-23.731,0v3.39H64.848A.847.847,0,0,0,64,16.1V37.292a3.393,3.393,0,0,0,3.39,3.39H91.121a3.393,3.393,0,0,0,3.39-3.39V16.1A.847.847,0,0,0,93.664,15.256Zm-11.87,17.7a.848.848,0,0,1-.843.941h-3.39a.848.848,0,0,1-.843-.941l.535-4.808a3.353,3.353,0,0,1-1.387-2.726,3.39,3.39,0,1,1,6.78,0,3.353,3.353,0,0,1-1.387,2.726Zm4.243-17.7H72.475v-3.39a6.78,6.78,0,0,1,13.561,0Z" transform="translate(-64)" fill="#fff"/>
      </g>
    </g>
    <g id="lock-3" data-name="lock" transform="translate(1470.244 679)">
      <g id="Group_2993-3" data-name="Group 2993" transform="translate(64)">
        <path id="Path_84677-3" data-name="Path 84677" d="M93.664,15.256H91.121v-3.39a11.866,11.866,0,0,0-23.731,0v3.39H64.848A.847.847,0,0,0,64,16.1V37.292a3.393,3.393,0,0,0,3.39,3.39H91.121a3.393,3.393,0,0,0,3.39-3.39V16.1A.847.847,0,0,0,93.664,15.256Zm-11.87,17.7a.848.848,0,0,1-.843.941h-3.39a.848.848,0,0,1-.843-.941l.535-4.808a3.353,3.353,0,0,1-1.387-2.726,3.39,3.39,0,1,1,6.78,0,3.353,3.353,0,0,1-1.387,2.726Zm4.243-17.7H72.475v-3.39a6.78,6.78,0,0,1,13.561,0Z" transform="translate(-64)" fill="#fff"/>
      </g>
    </g>
  </g>
</svg>
