<?xml version="1.0" encoding="utf-8"?>
<!-- Generator: Adobe Illustrator 28.1.0, SVG Export Plug-In . SVG Version: 6.00 Build 0)  -->
<svg version="1.1" id="Layer_1" xmlns="http://www.w3.org/2000/svg" xmlns:xlink="http://www.w3.org/1999/xlink" x="0px" y="0px"
	 viewBox="0 0 330 248" style="enable-background:new 0 0 330 248;" xml:space="preserve">
<style type="text/css">
	.st0{fill-rule:evenodd;clip-rule:evenodd;fill:#C1C4D6;}
	.st1{fill-rule:evenodd;clip-rule:evenodd;fill:#DBE3F3;}
	
		.st2{clip-path:url(#SVGID_00000047754771280694253300000006712844499674378386_);fill:url(#SVGID_00000122702013972824604230000013809745471617046205_);}
	.st3{fill-rule:evenodd;clip-rule:evenodd;fill:#929CCF;}
	
		.st4{clip-path:url(#SVGID_00000169525252316361823350000010393844884537358270_);fill:url(#SVGID_00000018234584004548604780000016379280786566037946_);}
	
		.st5{clip-path:url(#SVGID_00000129200021756363823460000006483449928023806373_);fill:url(#SVGID_00000021817487434840031970000016898195332496742039_);}
	
		.st6{clip-path:url(#SVGID_00000065065806659650266700000006796910259704478121_);fill:url(#SVGID_00000138531279679978575790000005367936659852268201_);}
	.st7{fill-rule:evenodd;clip-rule:evenodd;fill:#F0F3FA;}
	
		.st8{clip-path:url(#SVGID_00000130636736793673315560000017161195283355649683_);fill:url(#SVGID_00000091708683772517835610000007499267727237359530_);}
	.st9{fill-rule:evenodd;clip-rule:evenodd;fill:#355399;}
	.st10{fill-rule:evenodd;clip-rule:evenodd;fill:#F7ABAD;}
	.st11{fill:#F7ABAD;}
	.st12{fill:#F59396;}
	.st13{fill-rule:evenodd;clip-rule:evenodd;fill:#2A468A;}
	.st14{fill-rule:evenodd;clip-rule:evenodd;fill:#F49224;}
	.st15{fill-rule:evenodd;clip-rule:evenodd;fill:#E16F74;}
	.st16{fill-rule:evenodd;clip-rule:evenodd;fill:#EDF8FE;}
	.st17{fill-rule:evenodd;clip-rule:evenodd;fill:#F9AA8F;}
	.st18{fill-rule:evenodd;clip-rule:evenodd;fill:#223B74;}
	.st19{fill-rule:evenodd;clip-rule:evenodd;fill:#7583C0;}
	.st20{fill:#7583C0;}
	.st21{fill:#929CCF;}
	.st22{fill-rule:evenodd;clip-rule:evenodd;fill:#F8BDBE;}
	.st23{fill-rule:evenodd;clip-rule:evenodd;fill:#FFFFFF;}
	.st24{fill-rule:evenodd;clip-rule:evenodd;fill:#1F3F7A;}
	.st25{fill-rule:evenodd;clip-rule:evenodd;fill:#8AA6D6;}
</style>
<g>
	<rect class="st0" width="330" height="248"/>
	<path class="st1" d="M240.4,89.8l-1.6-1c-0.6-0.4-0.9-1.2-0.7-2c0.5-1.4,0.7-2.9,0.8-4.4c0.1-0.8,0.6-1.4,1.4-1.6l1.8-0.4
		c0.9-0.2,1.6-1.1,1.4-2.1l-0.7-3.5c-0.2-0.9-1.1-1.6-2.1-1.4l-1.8,0.4c-0.8,0.2-1.5-0.2-1.9-0.9c-0.7-1.3-1.5-2.5-2.5-3.7
		c-0.5-0.6-0.6-1.4-0.1-2.1l1-1.6c0.5-0.8,0.3-1.9-0.5-2.4l-3-2c-0.8-0.5-1.9-0.3-2.4,0.5l-1,1.6c-0.4,0.6-1.2,0.9-2,0.7
		c-1.4-0.5-2.9-0.7-4.4-0.8c-0.8-0.1-1.4-0.6-1.6-1.4l-0.4-1.8c-0.2-0.9-1.1-1.6-2.1-1.4l-3.5,0.7c-0.9,0.2-1.6,1.1-1.4,2.1l0.4,1.8
		c0.2,0.8-0.2,1.5-0.9,1.9c-1.3,0.7-2.5,1.5-3.7,2.5c-0.6,0.5-1.4,0.6-2.1,0.1l-1.6-1c-0.8-0.5-1.9-0.3-2.4,0.5l-2,3
		c-0.5,0.8-0.3,1.9,0.5,2.4l1.6,1c0.6,0.4,0.9,1.2,0.7,2c-0.5,1.4-0.7,2.9-0.8,4.4c-0.1,0.8-0.6,1.4-1.4,1.6l-1.8,0.4
		c-0.9,0.2-1.6,1.1-1.4,2.1l0.7,3.5c0.2,0.9,1.1,1.6,2.1,1.4l1.8-0.4c0.8-0.2,1.5,0.2,1.9,0.9c0.7,1.3,1.5,2.5,2.5,3.7
		c0.5,0.6,0.6,1.4,0.1,2.1l-1,1.6c-0.5,0.8-0.3,1.9,0.5,2.4l3,2c0.8,0.5,1.9,0.3,2.4-0.5l1-1.6c0.4-0.6,1.2-0.9,2-0.7
		c1.4,0.5,2.9,0.7,4.4,0.8c0.8,0.1,1.4,0.6,1.6,1.4l0.4,1.8c0.2,0.9,1.1,1.6,2.1,1.4l3.5-0.7c0.9-0.2,1.6-1.1,1.4-2.1l-0.4-1.8
		c-0.2-0.8,0.2-1.5,0.9-1.9c1.3-0.7,2.5-1.5,3.7-2.5c0.6-0.5,1.4-0.6,2.1-0.1l1.6,1c0.8,0.5,1.9,0.3,2.4-0.5l2-3
		C241.4,91.4,241.2,90.3,240.4,89.8 M228,87.8c-2.8,3-7.2,3.9-10.9,2.2c-6.1-2.7-7.7-10.6-3.2-15.5c2.8-3,7.2-3.9,10.9-2.2
		C231,75.1,232.6,82.9,228,87.8z"/>
	<g>
		<defs>
			<path id="SVGID_1_" d="M146.3,77.8h56.6c5.2,0,9.4,4.5,9.4,10.1v125.2c0,5.5-4.2,10.1-9.4,10.1h-56.6c-5.2,0-9.4-4.5-9.4-10.1
				V87.9C136.9,82.4,141.1,77.8,146.3,77.8"/>
		</defs>
		<clipPath id="SVGID_00000086676736119939967320000016021846925334641071_">
			<use xlink:href="#SVGID_1_"  style="overflow:visible;"/>
		</clipPath>
		
			<linearGradient id="SVGID_00000121994852864375980920000007063740064761904535_" gradientUnits="userSpaceOnUse" x1="174.618" y1="187.4939" x2="174.6191" y2="30.8963">
			<stop  offset="0" style="stop-color:#929CCF"/>
			<stop  offset="1" style="stop-color:#EBF7FE"/>
		</linearGradient>
		
			<rect x="136.9" y="77.8" style="clip-path:url(#SVGID_00000086676736119939967320000016021846925334641071_);fill:url(#SVGID_00000121994852864375980920000007063740064761904535_);" width="75.4" height="145.4"/>
	</g>
	<path class="st3" d="M150.3,77.8h56.6c5.2,0,9.4,4.5,9.4,10.1v125.2c0,5.5-4.2,10.1-9.4,10.1h-56.6c-5.2,0-9.4-4.5-9.4-10.1V87.9
		C140.9,82.4,145.1,77.8,150.3,77.8"/>
	<g>
		<defs>
			<path id="SVGID_00000105418448486920565170000018113360836396682629_" d="M149.9,85c-2.7,0-5,2.3-5,5.2v121.7
				c0,2.8,2.3,5.2,5,5.2h57.5c2.7,0,5-2.3,5-5.2V90.2c0-2.8-2.3-5.2-5-5.2h-3.8h-5h-39.8h-0.9H149.9z"/>
		</defs>
		<clipPath id="SVGID_00000093173909015351979360000000277643074115508405_">
			<use xlink:href="#SVGID_00000105418448486920565170000018113360836396682629_"  style="overflow:visible;"/>
		</clipPath>
		
			<linearGradient id="SVGID_00000029761484780532490330000005141483286188642949_" gradientUnits="userSpaceOnUse" x1="178.5907" y1="340.4977" x2="178.5929" y2="98.4278">
			<stop  offset="0" style="stop-color:#929CCF"/>
			<stop  offset="1" style="stop-color:#FFFFFF"/>
		</linearGradient>
		
			<rect x="144.8" y="85" style="clip-path:url(#SVGID_00000093173909015351979360000000277643074115508405_);fill:url(#SVGID_00000029761484780532490330000005141483286188642949_);" width="67.5" height="132"/>
	</g>
	<g>
		<defs>
			<path id="SVGID_00000015315014307952122960000005610961039690090403_" d="M176.5,186.7h4.8c3.5,0,6.4,2.9,6.4,6.4v4.8
				c0,3.5-2.9,6.4-6.4,6.4h-4.8c-3.5,0-6.4-2.9-6.4-6.4v-4.8C170.1,189.6,172.9,186.7,176.5,186.7 M196.5,186.7h4.8
				c3.5,0,6.4,2.9,6.4,6.4v4.8c0,3.5-2.9,6.4-6.4,6.4h-4.8c-3.5,0-6.4-2.9-6.4-6.4v-4.8C190.1,189.6,193,186.7,196.5,186.7z
				 M156.4,186.7h4.8c3.5,0,6.4,2.9,6.4,6.4v4.8c0,3.5-2.9,6.4-6.4,6.4h-4.8c-3.5,0-6.4-2.9-6.4-6.4v-4.8
				C150,189.6,152.9,186.7,156.4,186.7z M176.5,167h4.8c3.5,0,6.4,2.9,6.4,6.4v4.8c0,3.5-2.9,6.4-6.4,6.4h-4.8
				c-3.5,0-6.4-2.9-6.4-6.4v-4.8C170.1,169.9,172.9,167,176.5,167z M196.5,167h4.8c3.5,0,6.4,2.9,6.4,6.4v4.8c0,3.5-2.9,6.4-6.4,6.4
				h-4.8c-3.5,0-6.4-2.9-6.4-6.4v-4.8C190.1,169.9,193,167,196.5,167z M156.4,167h4.8c3.5,0,6.4,2.9,6.4,6.4v4.8
				c0,3.5-2.9,6.4-6.4,6.4h-4.8c-3.5,0-6.4-2.9-6.4-6.4v-4.8C150,169.9,152.9,167,156.4,167z M176.5,147.3h4.8
				c3.5,0,6.4,2.9,6.4,6.4v4.8c0,3.5-2.9,6.4-6.4,6.4h-4.8c-3.5,0-6.4-2.9-6.4-6.4v-4.8C170.1,150.1,172.9,147.3,176.5,147.3z
				 M196.5,147.3h4.8c3.5,0,6.4,2.9,6.4,6.4v4.8c0,3.5-2.9,6.4-6.4,6.4h-4.8c-3.5,0-6.4-2.9-6.4-6.4v-4.8
				C190.1,150.1,193,147.3,196.5,147.3z M156.4,147.3h4.8c3.5,0,6.4,2.9,6.4,6.4v4.8c0,3.5-2.9,6.4-6.4,6.4h-4.8
				c-3.5,0-6.4-2.9-6.4-6.4v-4.8C150,150.1,152.9,147.3,156.4,147.3z M176.5,127.5h4.8c3.5,0,6.4,2.9,6.4,6.4v4.8
				c0,3.5-2.9,6.4-6.4,6.4h-4.8c-3.5,0-6.4-2.9-6.4-6.4v-4.8C170.1,130.4,172.9,127.5,176.5,127.5z M196.5,127.5h4.8
				c3.5,0,6.4,2.9,6.4,6.4v4.8c0,3.5-2.9,6.4-6.4,6.4h-4.8c-3.5,0-6.4-2.9-6.4-6.4v-4.8C190.1,130.4,193,127.5,196.5,127.5z
				 M156.4,127.5h4.8c3.5,0,6.4,2.9,6.4,6.4v4.8c0,3.5-2.9,6.4-6.4,6.4h-4.8c-3.5,0-6.4-2.9-6.4-6.4v-4.8
				C150,130.4,152.9,127.5,156.4,127.5z M176.5,107.8h4.8c3.5,0,6.4,2.9,6.4,6.4v4.8c0,3.5-2.9,6.4-6.4,6.4h-4.8
				c-3.5,0-6.4-2.9-6.4-6.4v-4.8C170.1,110.7,172.9,107.8,176.5,107.8z M196.5,107.8h4.8c3.5,0,6.4,2.9,6.4,6.4v4.8
				c0,3.5-2.9,6.4-6.4,6.4h-4.8c-3.5,0-6.4-2.9-6.4-6.4v-4.8C190.1,110.7,193,107.8,196.5,107.8z M156.4,107.8h4.8
				c3.5,0,6.4,2.9,6.4,6.4v4.8c0,3.5-2.9,6.4-6.4,6.4h-4.8c-3.5,0-6.4-2.9-6.4-6.4v-4.8C150,110.7,152.9,107.8,156.4,107.8z"/>
		</defs>
		<clipPath id="SVGID_00000174595948819336587250000004523424617546998192_">
			<use xlink:href="#SVGID_00000015315014307952122960000005610961039690090403_"  style="overflow:visible;"/>
		</clipPath>
		
			<linearGradient id="SVGID_00000044889660982161005010000013377064112077303951_" gradientUnits="userSpaceOnUse" x1="178.8596" y1="262.1995" x2="178.8596" y2="89.8321">
			<stop  offset="0" style="stop-color:#929CCF"/>
			<stop  offset="1" style="stop-color:#FFFFFF"/>
		</linearGradient>
		
			<rect x="150" y="107.8" style="clip-path:url(#SVGID_00000174595948819336587250000004523424617546998192_);fill:url(#SVGID_00000044889660982161005010000013377064112077303951_);" width="57.6" height="96.5"/>
	</g>
	<path class="st3" d="M185.9,87.7h-13.4c-0.5,0-0.9,0.4-0.9,0.9v0c0,0.5,0.4,0.9,0.9,0.9h13.4c0.5,0,0.9-0.4,0.9-0.9v0
		C186.8,88.1,186.4,87.7,185.9,87.7"/>
	<path class="st3" d="M208.2,87.3L208.2,87.3c-0.6,0-1,0.5-1,1v0.1c0,0.6,0.5,1,1,1h0c0.6,0,1-0.5,1-1v-0.1
		C209.2,87.8,208.8,87.3,208.2,87.3"/>
	<path class="st3" d="M167.1,139.8h18.7h5.4v0c3.1,0.3,5.5,3,5.5,6.1v22.1c0,3.4-2.8,6.1-6.2,6.1h-27.8c-3.4,0-6.2-2.8-6.2-6.1V146
		c0-3,2.3-5.6,5.2-6.1l0.4-0.1H167.1z"/>
	<path class="st3" d="M186.7,145.5l0-15.9c0-0.1,0-0.2,0-0.4c0-0.1,0-0.2,0-0.4v0h0c-0.2-4.1-3.7-7.4-7.9-7.4c-4.2,0-7.8,3.2-8,7.4
		v0.4l0,15.8h-4.6l0-16.2l0-0.1c0.3-6.7,5.9-11.8,12.5-11.8c6.6,0,12.2,5.1,12.5,11.8l0,0c0,0.2,0,0.4,0,0.6c0,0.1,0,0.3,0,0.4
		l0,15.8H186.7z"/>
	<g>
		<defs>
			<path id="SVGID_00000011726141397140552450000018377149020571482768_" d="M171,139.8h18.7h5.4v0c3.1,0.3,5.5,3,5.5,6.1v22.1
				c0,3.4-2.8,6.1-6.2,6.1h-27.8c-3.4,0-6.2-2.8-6.2-6.1V146c0-3,2.3-5.6,5.2-6.1l0.5-0.1H171z"/>
		</defs>
		<clipPath id="SVGID_00000170965687549348346260000005072418247588164535_">
			<use xlink:href="#SVGID_00000011726141397140552450000018377149020571482768_"  style="overflow:visible;"/>
		</clipPath>
		
			<linearGradient id="SVGID_00000093891603572641365470000003901798391244372387_" gradientUnits="userSpaceOnUse" x1="180.5239" y1="165.7382" x2="180.5239" y2="128.7511">
			<stop  offset="0" style="stop-color:#929CCF"/>
			<stop  offset="1" style="stop-color:#EBF7FE"/>
		</linearGradient>
		
			<rect x="160.4" y="139.8" style="clip-path:url(#SVGID_00000170965687549348346260000005072418247588164535_);fill:url(#SVGID_00000093891603572641365470000003901798391244372387_);" width="40.3" height="34.3"/>
	</g>
	<path class="st7" d="M172.2,142.1h16.3h4.7v0c2.7,0.3,4.8,2.6,4.8,5.3v19.2c0,2.9-2.4,5.3-5.4,5.3h-24.2c-3,0-5.4-2.4-5.4-5.3
		v-19.2c0-2.6,2-4.9,4.6-5.3v-0.1H172.2z"/>
	<path class="st3" d="M175.3,153.2c0-2.6,2.1-4.6,4.6-4.6c0.2,0,0.4,0,0.5,0c2.3,0.3,4.1,2.2,4.1,4.6c0,1.8-1,3.3-2.5,4.1
		c0,2.6,0,5.1,0,7.7c-0.3,0.6-1,1-1.6,1.1c-1,0.2-2.1-0.2-2.7-1.1v-7.7C176.3,156.5,175.3,155,175.3,153.2"/>
	<g>
		<defs>
			<path id="SVGID_00000155836993930450136750000012784183832596977342_" d="M59.8,156.3c-12,32.6-7.7,66.3,36.9,67
				c7.9,0.1,9,0.1,21.6-0.7c7.5-0.5,18.1-5,21-11.4c1.9-4.3,1.6-8.5,0.3-13.2c-1.9-7.2-7-14.8-18.9-18c-5.9-1.6-12.5-6.8-14.3-10.4
				c-5.7-11.5-4.5-32.8-22.4-34.3C72.7,134.4,64.3,144.1,59.8,156.3"/>
		</defs>
		<clipPath id="SVGID_00000093898992896932417530000004987650968796322475_">
			<use xlink:href="#SVGID_00000155836993930450136750000012784183832596977342_"  style="overflow:visible;"/>
		</clipPath>
		
			<linearGradient id="SVGID_00000035507974468803277810000017224653257865104777_" gradientUnits="userSpaceOnUse" x1="94.5248" y1="201.7178" x2="94.5248" y2="106.8408">
			<stop  offset="0" style="stop-color:#929CCF"/>
			<stop  offset="1" style="stop-color:#EBF7FE"/>
		</linearGradient>
		
			<rect x="47.8" y="134.4" style="clip-path:url(#SVGID_00000093898992896932417530000004987650968796322475_);fill:url(#SVGID_00000035507974468803277810000017224653257865104777_);" width="93.4" height="89"/>
	</g>
	<path class="st3" d="M59.8,156.3c-12,32.6-9.6,67.5,32.6,67c4.5,0,10.3-0.2,15.9,0c12.9,0.5,25.5-1.1,30.7-11.4
		c-11.2,10.5-33.6,11.8-51.1,4.6c-13.9-5.7-24.6-17.3-25.8-30.8c-1.5-18,4-37.1,6.1-43.6C64.6,145.8,61.8,150.8,59.8,156.3"/>
	<path class="st3" d="M84.9,148.5c0,0-0.3,0.4,0.2,6.1c0.3,3.5,3.5,9.7,3.8,13.3c0.4,5.6-2.1,12.9-3.4,15c-3.4,5.5-5.9,9.3-5.9,9.3
		c4.6-0.9,28.5,0.1,32.3,3c5.8,4.5,7.2,14.5,7.3,14.3c0.3-0.4,3.9-15.9,1.7-22.5c-1.8-5.5-9.5-2.5-9.5-2.5l-10.3-14.6L84.9,148.5z"
		/>
	<path class="st9" d="M110,124.7c-0.9,3.7-2.6,13.9-1,17.3c1.3,2.8,0,6.7-0.6,7c-0.6,0.3-7.1,2.3-8.7,2.4
		c-1.6,0.1-10.4-7.5-10.4-7.5l-0.4-7.9L110,124.7z"/>
	<path class="st10" d="M107.5,147.5c1.3,2.8,2.1,12.4,2.5,19.3c0.1,1.4,7,6.8,4.4-9.2c-0.6-4-2.2-15.1-7.3-17.7
		C106.6,139.5,105.7,144.8,107.5,147.5"/>
	<path class="st11" d="M114.8,173.1c5.1,1.3,7.9-5,14.8-0.3l12.4,27.7c2.3,1.2,3.3,1.2,6.3,0.6c0.9-0.2,1.6-0.4,2.8,0.4
		c0,0,0.1,0.1,0.1,0.1c0.3,0.3,0.2,0.9-0.2,1.1l-10.2,4.6c-0.5,0.2-0.7-0.1-1-0.5c0-0.1-0.1-0.1-0.1-0.2
		c-4.4-10.9-13.1-17.3-15.6-25.4c0,0-7.5,4.6-12.3,4.7c-6.9,0.1-11.8-4.4-11.9-4.7C99.8,180.7,114.8,173.1,114.8,173.1"/>
	<path class="st12" d="M126.9,172.6c-4.1,1.6-0.8,6.6-0.8,6.6c2,1.5,1.9,8.3,5.9,14.7c-0.1-0.1-3.9-4.7-4.8-5.8
		c-8.8-10.7-11,2.1-23.9-0.7c-6-1.3,1.3-8.7,1.3-9C104.5,177.9,126.9,172.6,126.9,172.6"/>
	<path class="st11" d="M114.8,175.8c2.4,2.4-1.5,2.2,0.8,2.4c1.5,0.2-12.1,8.4-9.8,9.5c0.6,0.3,10.3-2.7,16-6.8
		c4-1.6,5.4,4.2,5.3,7.1c-0.1,6.9-2.8,20-3.8,27.6c1.5,2.3,1.9,2.7,5,3.7c0.9,0.3,1.6,0.5,2.2,1.8c0,0,0,0.1,0,0.1
		c0.1,0.5-0.3,0.9-0.8,0.9l-10.3-1.2c-0.5-0.1-0.9-0.5-1-1c0-0.1,0-0.2,0-0.2c-0.3-1.4-0.3-2.6,0.4-4.9c1.2-8.6-1.4-16.7-0.2-26.2
		c0.1-0.8-5.6,0.1-11.3-0.3c-3.6-0.3-6.8-0.8-9.9-3.4c0,0,8.9-13.1,9-13.6C106.5,170.8,114.8,175.8,114.8,175.8"/>
	<path class="st13" d="M127.7,218.9c0,0,4.4,1.9,4.1,3.1c-0.5,2.3-13.9,0.8-14.2-0.8c-0.1-0.7,0-3.4,0.6-4.1
		C118.7,216.5,123.5,220,127.7,218.9"/>
	<path class="st13" d="M110.7,166.6c0.4,5.2,14.3-1,18.9,6.2c-6.3-2.1-11.6,5.8-17.3,11.2c-4.6,4.3-15.1,7.1-19.7,2.1
		c-2.7-2.9-3.5-8.2-0.5-18.1C94.3,163.1,109.9,163.5,110.7,166.6"/>
	<path class="st13" d="M147.9,201c0,0,4.7-1.1,5,0c0.7,2.3-10.7,8.8-12.3,7.7c-0.6-0.4-2.3-3.4-2.1-4.4
		C138.6,203.5,144.7,204.2,147.9,201"/>
	<path class="st14" d="M87.8,141.2c-2.1,8.7,5.9,9.9,4,27.4c6.4,0.9,15.1,1,20.6-0.4c-0.9-6.4,0.5-12.3,0.8-15.8
		c0.4-5.3-2.5-9.7-4.8-12.1C105.6,137.6,91.4,135.9,87.8,141.2"/>
	<path class="st10" d="M103.6,137.2l-0.5,2.1l0.2,0.3c0.8,1.6-1.2,3.8-2.5,3.4c-3.4-0.8-5.3-4.3-3.8-5.5l0.6-0.4l0.9-2.9
		c-0.2-0.1-1.2-1.1-1.6-1.4c-0.3-0.2-0.7-1.1-0.5-1.9c0.2-0.8,1.3-0.2,1.3-0.2c-0.9-2.4-2.1-4.4,0.5-5.6c2.6-1.2,7.8-0.9,7.8-0.9
		l3.2-0.2c-0.7,0.9-1.1,3.1-1,5.4C108.5,132.8,106.5,136.6,103.6,137.2"/>
	<path class="st15" d="M99.8,135c0.5,1.9,1.1,3.9,3.3,4.3l0.5-2.1C102.6,137.1,101.7,136.7,99.8,135"/>
	<path class="st13" d="M119.6,168.7H99v0.4c0,0.2,0.2,0.4,0.4,0.4h20c0.2,0,0.4-0.2,0.4-0.4V168.7z"/>
	<path class="st13" d="M128.2,155.5H112c-0.6,0-1,0.5-1.2,1.2l-2.2,11.9H127l2.2-12.1C129.3,156,128.8,155.5,128.2,155.5"/>
	<path class="st3" d="M128.6,155.5h-16.3c-0.6,0-1,0.5-1.2,1.2l-2.2,11.9c-0.1,0.4,0.4,0.8,0.8,0.8h16.9c0.4,0,0.7-0.4,0.8-0.8
		l0.1-0.7l2.1-11.4C129.7,156,129.1,155.5,128.6,155.5"/>
	<path class="st16" d="M120,161.7c-0.4-0.1-0.8,0.2-0.9,0.7c-0.1,0.5,0.1,0.9,0.5,1c0.4,0.1,0.8-0.2,0.9-0.7S120.4,161.8,120,161.7"
		/>
	<path class="st10" d="M88.1,141.4c-3.4,3.3-1.9,12,1.4,18.7c1.9,3.8,6.2,7.4,8.7,8.5c4,1.8,8.3,0.8,10.2,0.8
		c-0.3-0.8-1.4-1.7-3.2-2.2c-1.5-0.4-2.8,0.1-3.7-0.6c-5.3-4-7.6-7.7-8-13.3c-0.3-4-1.7-8.5-3.9-11
		C89.5,141.9,88.5,141.1,88.1,141.4"/>
	<path class="st9" d="M109.2,128.8c2.4-1.6,2.1-5.5-1.6-7.5c-3.1-1.7-6-1.4-7.9-0.5c-4.4,2-4.3,6.2-7.2,10.2c-2.2,3-6.4,3.7-8.3,5.9
		c-2.5,2.9-2.6,6.1-1.4,8.9c0,0,0.4-1.6,2.6-2.8c-2,4,0.8,7.8,1.4,8.5c-1.7-8.5,1.2-11,9.8-13.3c2-1,2.3-2.8,2.5-4.6
		C99.7,124.4,104.7,131.9,109.2,128.8"/>
	<polygon class="st17" points="256.5,217.1 256,212.5 260.6,212.6 260.6,217.9 	"/>
	<path class="st3" d="M256.2,216.7c-0.9,3.2-3.4,4.6-1.8,6.6h8.4c0,0,0-0.1,0-0.1c0.1-0.3,0.5-0.4,0.2-1.4c-0.5-1.9-1.9-4.7-2.4-4.8
		C259.8,216.6,258.4,217.4,256.2,216.7"/>
	<path class="st18" d="M253.9,221.7L253.9,221.7l0,0.3c0,0.5,0.2,0.9,0.6,1.2h8.3c0.6-0.6,0.4-1.2,0.3-1.5L253.9,221.7z"/>
	<path class="st9" d="M242.3,153.4l4.9,20.1l2.5,11.9l5.6,29.1c0,0,1.2,0.5,3.1,0.4c1.9-0.1,2.8-0.4,2.8-0.4c0-8.6,0-19.5-0.9-30.5
		c-0.8-9.2,2.2-14.1,1.6-24.2c-0.2-3-3.4-11.5-3.3-11.4L242.3,153.4z"/>
	<polygon class="st17" points="236.1,217.1 236.1,212.3 240.7,212.4 240.2,217.9 	"/>
	<path class="st3" d="M235.8,216.1c-2.3,2.7-7.2,3.3-9.3,4c-1.7,0.5-2.5,2.4-1.2,3.2h15.8c0,0,0-0.1,0-0.1c0.2-0.8,0.8-6.3-0.8-6.2
		C239.3,217,238.1,217.2,235.8,216.1"/>
	<path class="st18" d="M224.7,221.7L224.7,221.7l0,0.3c0,0.5,0.2,0.9,0.6,1.2h15.8c0,0,0-0.1,0-0.1c0-0.2,0.2-0.9,0.2-1.4
		L224.7,221.7z"/>
	<path class="st9" d="M235.7,152.3l-0.5,7.6c-1.5,15.4-0.8,35.2,0.5,54.5c0,0,2.2,0.5,4.1,0.4c1.9-0.1,1.5-0.3,1.5-0.3l4.4-31.7
		c0,0,1-7.2,3.3-12.8c1.7-4.1,3.8-5.2,3.5-9.9c-0.3-4.9,0.1-8.7-0.6-10.4c-0.7-1.7-4-1-4-1L235.7,152.3z"/>
	<path class="st18" d="M244.7,189.9l1-7.1c0,0,0.5-3.9,1.8-8.2v0l-0.9-6.7l-1.9,16.9L244.7,189.9z"/>
	<path class="st3" d="M244.1,127.2c-2.5,5.6-4.4,11.2-11.7,12.3c-5.2,0.2-14.5-3.1-13.8-4.8c0.7-1.9-2.4-2.6,0.5-2.6
		c3.9-0.1,11.7,0,12.6-0.1c0.8-0.1,5.4-12,12-14.4C244.3,117.3,245.9,124.5,244.1,127.2"/>
	<path class="st10" d="M210,132.2c0.1,0.2,0.2,0.6,0.4,0.9c0.8,1.1,3,2.7,7.7,2c0.2,0,0.8,0,1.1,0c0.1-0.5,0.2-1.9-0.3-3.1
		C217.1,132.1,209.2,131.3,210,132.2"/>
	<path class="st19" d="M241.2,133.2c-1.7,2.7-4.3,5.6-8.8,6.4c-2.9,0.1-6.1-0.6-9.6-1.8c3.4-0.6,6.4,0.9,9.7-0.1
		c3-0.9,8.3-9.3,8.3-9.3S240.7,132,241.2,133.2"/>
	<path class="st3" d="M263.4,138.9c-0.9,5.6-1.8,14.6-1,21.5c-11.4,2.1-20.6,0.9-27.5-1.2c0.7-8.5,2.7-34.8,8.8-41.5
		c7.5-2.2,15.9-1.3,20.1,2.5c0.6,0.5,1.2,1.3,1.9,2.2v20.5C264.7,141.6,263.9,140.2,263.4,138.9"/>
	<path class="st20" d="M248.2,116.7c2.6-0.5,5.7-1,9.8,0.5c-0.9,5.1-4.1,5.7-6.6,5.6C248.1,122.7,246.8,119.7,248.2,116.7"/>
	<path class="st19" d="M260.3,150.8c0,0-10,0.6-11.8,0.3c-1.8-0.3-2.5-0.8-2.5-0.8c-1.7,0.4-3.1,0.4-4.2,0.2c-0.9-0.2-3-1.4-1.5-2
		l4.1-1.8l9.2-0.4l5.5,0.3l1.9,1.8L260.3,150.8z"/>
	<path class="st19" d="M259.4,130.3c0,0-0.7,6.8-1.3,8.9c-0.8,2.9-9,3.8-10.7,7.1l14.2,1.4c0,0,3-5.1,2.7-6.5
		C264,139.9,259.4,130.3,259.4,130.3"/>
	<path class="st19" d="M261.2,160.6c-10.4,1.7-19,0.7-25.5-1.1c1.5,0.2,3.6,0.5,6.9,0.7c7.8,0.5,16.3-0.4,17.3-2.2
		c0.4-0.8,0.8-19.2,1.7-23.7c0.6,1.8,1.1,3,1.9,4.7c-0.8,5.7-1.8,15.2-1,21.5C262,160.5,261.6,160.5,261.2,160.6L261.2,160.6z"/>
	<path class="st10" d="M246.6,111.3c0.7,1.6,1.7,2.8,2.9,3.4l-0.1,2.2c-2.7,4.5,6.3,6.5,6.6,0.1l-0.5-0.5l0-3.2c0.2,0,1.6-0.7,2-0.8
		c0.4-0.1,1-0.9,1.1-1.7c0.1-0.8-1.2-0.6-1.2-0.6c1.6-2.1,3.5-3.7,1.2-5.7c-2.2-2-7.4-3.3-7.4-3.3l-3.1-1.2c0.4,1.1,0,4.5-0.9,6.7
		C246.4,108.7,245.7,109.2,246.6,111.3"/>
	<path class="st15" d="M254.1,113.8c-1.1,1.7-2.4,3.5-4.6,3.2l0.1-2.2C250.5,114.9,251.5,114.9,254.1,113.8"/>
	<path class="st21" d="M260.1,127c1.9-3.3,4.1-7.8,5.9-4c3.4,7.3,3.1,21.9,0.2,24.8c-2.9,2.9-17,3.4-18.4,2.5
		c-1.6-1.1-2.8-3-0.2-4.4c1.6-1,3.5-1.2,6.2-1.7c4.2-0.7,5.7-1.5,6.1-5.2C260.4,134.9,258.3,130.1,260.1,127"/>
	<path class="st22" d="M245.1,145.7c-0.5-0.4-2.4-2.2-3.1-2.2c-0.3,0-0.3,0.1-0.3,0.2c0,0.2,0.1,0.5,0.3,0.6
		c0.3,0.3,0.5,1.2,0.7,1.4c-2.2,1.6-5.8,0.8-5.7,2.3c0.2,0.2,1.7,1.1,2,1.4c1,1,1.6,1.4,6.9,0.2c0.2-0.1,0.9-0.1,1.2-0.1
		c0.1-0.5,0.1-1.9-0.6-3.1L245.1,145.7z"/>
	<path class="st19" d="M205.3,117.9H222c0.7,0,1.1,0.6,1.2,1.3l1,5.8l1.1,6.4h-19l-2.2-12.4C204.2,118.4,204.7,117.9,205.3,117.9"/>
	<path class="st19" d="M205.6,117.9h16.7c0.7,0,1.1,0.6,1.2,1.3l2.1,12h0l0.1,0.9c0.1,0.5-0.4,0.9-0.8,0.9h-17.3
		c-0.5,0-0.8-0.4-0.8-0.9l-0.1-0.7l-2.2-12.4C204.5,118.4,205.1,117.9,205.6,117.9"/>
	<path class="st23" d="M225.4,131.7l0.1,0.5c0,0.2-0.2,0.4-0.4,0.4h-17.3c-0.2,0-0.4-0.3-0.4-0.5l-0.1-0.7l-2.2-12.4
		c-0.1-0.3,0.3-0.6,0.6-0.6h16.7c0.5,0,0.7,0.5,0.8,0.9L225.4,131.7L225.4,131.7z"/>
	<path class="st19" d="M206.3,131.2h28v0.9c0,0.5-0.4,0.9-0.9,0.9h-26.3c-0.5,0-0.9-0.4-0.9-0.9V131.2z"/>
	<rect x="210.5" y="131.6" class="st24" width="2.3" height="0.8"/>
	<rect x="211.6" y="121.2" class="st25" width="10.3" height="0.4"/>
	<rect x="211.9" y="122.7" class="st25" width="10.3" height="0.4"/>
	<rect x="212.2" y="124.2" class="st25" width="10.3" height="0.4"/>
	<rect x="212.6" y="125.7" class="st25" width="10.3" height="0.4"/>
	<rect x="212.9" y="127.2" class="st25" width="10.3" height="0.4"/>
	<rect x="213.2" y="128.7" class="st25" width="10.3" height="0.4"/>
	<path class="st9" d="M260.9,104.5c0.5-1.8,0-3.7-1.8-5.1c-3.7-2.9-6.8-1.3-8.2-0.9c-0.9,0.2-1.6,0.2-2.5,0.4
		c-2.3,0.5-2.5,5.3-0.8,6.9c0.2,0.2,0.4-2,0.6-1.9c0.2,0.2,0.4,0.3,0.6,0.5c2.7,1.4,5.1-0.1,6.6,1.8c0.8,0.9,0.7,2.2-0.2,4.3
		c-0.3,0.6-0.6,1,0.4,0.6c0.5-0.2,2-0.7,2.3-0.5c0.6,0.5,0.3,1.5-0.2,1.8c-0.2,0.1-0.6,0.4-0.6,0.4
		C261.5,111.8,262.5,105.8,260.9,104.5"/>
	<path class="st1" d="M120.9,109.4l-0.6-0.4c-0.3-0.2-0.4-0.5-0.3-0.8c0.2-0.6,0.3-1.1,0.3-1.7c0-0.3,0.2-0.6,0.5-0.6l0.7-0.1
		c0.4-0.1,0.6-0.4,0.5-0.8l-0.3-1.4c-0.1-0.4-0.4-0.6-0.8-0.5l-0.7,0.1c-0.3,0.1-0.6-0.1-0.7-0.4c-0.3-0.5-0.6-1-1-1.5
		c-0.2-0.2-0.2-0.6-0.1-0.8l0.4-0.6c0.2-0.3,0.1-0.7-0.2-1l-1.2-0.8c-0.3-0.2-0.7-0.1-1,0.2l-0.4,0.6c-0.2,0.3-0.5,0.4-0.8,0.3
		c-0.6-0.2-1.1-0.3-1.7-0.3c-0.3,0-0.6-0.2-0.6-0.5l-0.1-0.7c-0.1-0.4-0.4-0.6-0.8-0.5l-1.4,0.3c-0.4,0.1-0.6,0.4-0.5,0.8l0.1,0.7
		c0.1,0.3-0.1,0.6-0.4,0.7c-0.5,0.3-1,0.6-1.5,1c-0.2,0.2-0.6,0.2-0.8,0.1l-0.6-0.4c-0.3-0.2-0.7-0.1-1,0.2l-0.8,1.2
		c-0.2,0.3-0.1,0.7,0.2,1l0.6,0.4c0.3,0.2,0.4,0.5,0.3,0.8c-0.2,0.6-0.3,1.1-0.3,1.7c0,0.3-0.2,0.6-0.5,0.6l-0.7,0.1
		c-0.4,0.1-0.6,0.4-0.5,0.8l0.3,1.4c0.1,0.4,0.4,0.6,0.8,0.5l0.7-0.1c0.3-0.1,0.6,0.1,0.7,0.4c0.3,0.5,0.6,1,1,1.5
		c0.2,0.2,0.2,0.6,0.1,0.8l-0.4,0.6c-0.2,0.3-0.1,0.7,0.2,1l1.2,0.8c0.3,0.2,0.7,0.1,1-0.2l0.4-0.6c0.2-0.3,0.5-0.4,0.8-0.3
		c0.6,0.2,1.1,0.3,1.7,0.3c0.3,0,0.6,0.2,0.6,0.5l0.1,0.7c0.1,0.4,0.4,0.6,0.8,0.5l1.4-0.3c0.4-0.1,0.6-0.4,0.5-0.8l-0.1-0.7
		c-0.1-0.3,0.1-0.6,0.4-0.7c0.5-0.3,1-0.6,1.5-1c0.2-0.2,0.6-0.2,0.8-0.1l0.6,0.4c0.3,0.2,0.7,0.1,1-0.2l0.8-1.2
		C121.3,110,121.2,109.6,120.9,109.4 M116,108.6c-1.1,1.2-2.9,1.5-4.3,0.9c-2.4-1.1-3-4.2-1.2-6.1c1.1-1.2,2.9-1.5,4.3-0.9
		C117.2,103.6,117.8,106.7,116,108.6z"/>
</g>
</svg>
