<?xml version="1.0" encoding="utf-8"?>
<!-- Generator: Adobe Illustrator 28.0.0, SVG Export Plug-In . SVG Version: 6.00 Build 0)  -->
<svg version="1.1" id="Layer_1" xmlns="http://www.w3.org/2000/svg" xmlns:xlink="http://www.w3.org/1999/xlink" x="0px" y="0px"
	 viewBox="0 0 687.2 120" style="enable-background:new 0 0 687.2 120;" xml:space="preserve">
<style type="text/css">
	.st0{display:none;}
	.st1{display:inline;}
	.st2{fill:#010101;}
	
		.st3{clip-path:url(#SVGID_00000091001879392966766150000018030916331187489965_);fill:url(#SVGID_00000023266801395177356470000002436089565997660319_);}
	
		.st4{clip-path:url(#SVGID_00000179616211411135388630000016876446114978965130_);fill:url(#SVGID_00000087409701699915964780000012031690767366503042_);}
	.st5{fill:#FFFFFF;}
	.st6{clip-path:url(#SVGID_00000155132710084347895170000001109306273783831190_);fill:#FFFFFF;}
	.st7{clip-path:url(#SVGID_00000106141694909131060730000015770268937049251507_);fill:#FFFFFF;}
	.st8{clip-path:url(#SVGID_00000162330349546184841840000005680900509583219350_);fill:#FFFFFF;}
	.st9{clip-path:url(#SVGID_00000180353754602248584740000004081904587870501775_);fill:#FFFFFF;}
</style>
<g class="st0">
	<g class="st1">
		<path class="st2" d="M155.1,35.6c4.1,0,8.4,0.4,13.2,1.7v7.9c-3-1-7.8-2.1-11.6-2.1c-9.6,0-15.6,4.8-15.6,17.8
			c0,13.8,7,18.4,15.1,18.4c3.9,0,8.4-0.9,12.3-2.4v7.8c-4.3,1.5-9.5,2.1-13.3,2.1c-15.5,0-22.9-9.6-22.9-25.7
			C132.3,45.5,140.1,35.6,155.1,35.6z"/>
		<path class="st2" d="M193.1,47.6c10.3,0,18.9,5.8,18.9,19.6s-8.6,19.6-18.9,19.6c-10.3,0-18.9-5.6-18.9-19.6
			C174.2,53.3,182.8,47.6,193.1,47.6z M193.2,79.6c7.2,0,10.1-4.6,10.1-12.4c0-7.7-3-12.3-10.1-12.3c-7.2,0-10.3,4.6-10.3,12.3
			C182.9,75,185.9,79.6,193.2,79.6z"/>
		<path class="st2" d="M279.2,84.4c-5,1.5-9.4,2.4-14.7,2.4c-12.3,0-18.7-6.1-18.7-19.6c0-13.1,6.7-19.6,17.8-19.6
			c13.1,0,16.3,8.7,16.3,18v3.9h-25.3c0.1,7.2,4.4,10,11.8,10c3.5,0,8.6-1,12.7-2.3v7.2H279.2z M271.2,63.4
			c-0.1-4.1-1.2-9.1-8.2-9.1c-5.7,0-8.6,4.1-8.6,9.1H271.2z"/>
		<path class="st2" d="M297.1,86h-8.4V33.5h8.4V86z"/>
		<path class="st2" d="M316.2,86h-8.4V33.5h8.4V86z"/>
		<path class="st2" d="M335.4,43.4h-8.7V35h8.7V43.4z M335.3,86h-8.5V48.4h8.5V86z"/>
		<path class="st2" d="M360.5,47.6c4.3,0,23.5,0,23.5,0l-2.9,6.8c0,0-4.8,0-7.4,0c1.9,1.6,3,4,3,7c0,9.7-8.1,12.5-16.3,12.5
			c-1.6,0-3.2-0.1-4.7-0.3c-0.6,0.8-1.1,1.9-1.1,3.1c0,1.5,0.8,2.7,3,2.7h11.2c6,0,11.6,1.8,11.6,9.6c0,8.2-7.4,11.9-20.4,11.9
			c-11.1,0-16.2-3-16.2-9c0-3.4,1.4-6.6,6.3-8.3v-0.3c-2-1.2-3-3.2-3-5c0-2.2,1.2-4.7,3.5-6.5c-3.9-1.9-6.3-5.4-6.3-10.6
			C344.3,52.8,350.4,47.6,360.5,47.6z M357.9,86c-3.3,0.5-5.5,2-5.5,5c0,3.4,2.9,4.1,8.6,4.1c6.9,0,10.5-1.2,10.5-5.2
			c0-2.6-1.8-3.9-4.7-3.9H357.9z M360.6,54.2c-5.5,0-7.7,2.8-7.7,7s2.2,6.9,7.7,6.9c5.4,0,7.6-2.5,7.6-7
			C368.3,56.9,366,54.2,360.6,54.2z"/>
		<path class="st2" d="M419.8,84.4c-5,1.5-9.4,2.4-14.7,2.4c-12.3,0-18.7-6.1-18.7-19.6c0-13.1,6.7-19.6,17.8-19.6
			c13.1,0,16.3,8.7,16.3,18v3.9h-25.3c0.1,7.2,4.4,10,11.8,10c3.5,0,8.6-1,12.7-2.3v7.2H419.8z M411.9,63.4
			c-0.1-4.1-1.2-9.1-8.2-9.1c-5.7,0-8.6,4.1-8.6,9.1H411.9z"/>
		<path class="st2" d="M453.5,86V62.8c0-5.6-3.1-7.5-6.8-7.5c-3.1,0-5.4,0.6-9.2,2.7v28h-8.4V48.4h7.8v3.3c3.5-2.4,8.1-4.1,12.3-4.1
			c6.8,0,12.6,2.9,12.6,13.8V86H453.5z"/>
		<path class="st2" d="M230.7,54.5v18.7c0,3.8,0.6,6.5,4.1,6.5c1.4,0,3.2-0.6,4.7-1.1l1.1,6.3c-2.1,1.3-5.3,2.1-8.2,2.1
			c-7.1,0-10.2-4.3-10.2-12.5v-20h-6.1v-7.1h6.1v-10l8.5-4v14.1h9.1v7.1L230.7,54.5L230.7,54.5z"/>
		<path class="st2" d="M482.6,54.5v18.7c0,3.8,0.6,6.5,4.1,6.5c1.4,0,3.2-0.6,4.7-1.1l1.1,6.3c-2.1,1.3-5.3,2.1-8.2,2.1
			c-7.1,0-10.2-4.3-10.2-12.5v-20H468v-7.1h6.1v-10l8.5-4v14.1h9.1v7.1L482.6,54.5L482.6,54.5z"/>
	</g>
	<g class="st1">
		<g>
			<defs>
				<path id="SVGID_1_" d="M36.6,36.9c-0.1-0.1-0.1-0.3,0-0.4l3.5-6c0.1-0.1,0.3-0.1,0.4,0l14.4,24.9c0.1,0.1,0,0.3-0.2,0.3H25.9
					c-0.2,0-0.3-0.2-0.2-0.3l3.5-6c0.1-0.1,0.2-0.2,0.4-0.2h14.2L36.6,36.9z M61.1,79.3l7.1,12.3c0.1,0.1,0.2,0.2,0.4,0.2h6.9
					c0.2,0,0.3-0.2,0.2-0.3l-14.4-25c-0.1-0.1-0.3-0.1-0.4,0L46.5,91.4c-0.1,0.1,0,0.3,0.2,0.3h6.9c0.1,0,0.3-0.1,0.4-0.2L61.1,79.3
					z M68.2,26.9l-7.1,12.3L54,26.9c-0.1-0.1-0.2-0.2-0.4-0.2h-6.9c-0.2,0-0.3,0.2-0.2,0.3l14.4,24.9c0.1,0.1,0.3,0.1,0.4,0L75.6,27
					c0.1-0.1,0-0.3-0.2-0.3h-6.9C68.4,26.6,68.2,26.7,68.2,26.9z M54.6,62.7H25.9c-0.2,0-0.3,0.2-0.2,0.3l3.5,6
					c0.1,0.1,0.2,0.2,0.4,0.2h14.2l-7.1,12.3c-0.1,0.1-0.1,0.3,0,0.4l3.5,6c0.1,0.1,0.3,0.1,0.4,0L54.8,63
					C54.9,62.9,54.8,62.7,54.6,62.7z M103.7,62.7L103.7,62.7H67.5c-0.2,0-0.3,0.2-0.2,0.3l14.4,24.9c0.1,0.1,0.3,0.1,0.4,0l3.5-6
					c0.1-0.1,0.1-0.3,0-0.4l-7.1-12.3h24.1c-4.5,18.7-21.4,32.6-41.5,32.6c-11.4,0-22.1-4.4-30.2-12.5S18.4,70.5,18.4,59.1
					c0-23.5,19.1-42.7,42.7-42.7c11.4,0,22.1,4.4,30.2,12.5c5.6,5.6,9.5,12.6,11.3,20.1H78.4l7.1-12.3c0.1-0.1,0.1-0.3,0-0.4l-3.5-6
					c-0.1-0.1-0.3-0.1-0.4,0L67.3,55.4c-0.1,0.1,0,0.3,0.2,0.3h36.1h0.1c3.4,0,6-3.2,5.3-6.5l0,0c-1.9-9.2-6.5-17.7-13.3-24.6
					c-9.2-9.2-21.5-14.3-34.6-14.3c-27,0-48.9,21.9-48.9,48.9l0,0c0,13.1,5.1,25.3,14.3,34.6c9.2,9.2,21.5,14.3,34.6,14.3
					c23.5,0,43.2-16.7,47.9-38.9c0,0,0,0,0-0.1C109.7,65.8,107.1,62.7,103.7,62.7z"/>
			</defs>
			<clipPath id="SVGID_00000093881643849766004320000013754963784926672561_">
				<use xlink:href="#SVGID_1_"  style="overflow:visible;"/>
			</clipPath>
			
				<linearGradient id="SVGID_00000057108514632339675220000000659632294871937681_" gradientUnits="userSpaceOnUse" x1="82.7877" y1="19.4709" x2="40.7579" y2="101.1802" gradientTransform="matrix(1 0 0 -1 0 122)">
				<stop  offset="1.146489e-03" style="stop-color:#D61E41"/>
				<stop  offset="0.2783" style="stop-color:#ED1847"/>
				<stop  offset="0.9728" style="stop-color:#F47C6F"/>
			</linearGradient>
			
				<rect x="11.8" y="10.1" style="clip-path:url(#SVGID_00000093881643849766004320000013754963784926672561_);fill:url(#SVGID_00000057108514632339675220000000659632294871937681_);" width="97.4" height="98.2"/>
		</g>
	</g>
</g>
<g>
	<g>
		<g>
			<defs>
				<path id="SVGID_00000114051598340832585460000012466313458999569025_" d="M82.5,35.1c0.1-0.1,0.3-0.1,0.4,0l6.1,3.5
					c0.1,0.1,0.1,0.3,0,0.4L63.8,53.5c-0.1,0.1-0.3,0-0.3-0.2V24.2c0-0.2,0.2-0.3,0.3-0.2l6.1,3.5c0.1,0.1,0.2,0.2,0.2,0.4v14.4
					L82.5,35.1z M39.6,59.8L27.2,67c-0.1,0.1-0.2,0.2-0.2,0.4v7c0,0.2,0.2,0.3,0.3,0.2L52.5,60c0.1-0.1,0.1-0.3,0-0.4L27.3,45.1
					c-0.1-0.1-0.3,0-0.3,0.2v7c0,0.1,0.1,0.3,0.2,0.4L39.6,59.8z M92.6,67l-12.4-7.2l12.4-7.2c0.1-0.1,0.2-0.2,0.2-0.4v-7
					c0-0.2-0.2-0.3-0.3-0.2L67.3,59.6c-0.1,0.1-0.1,0.3,0,0.4l25.2,14.6c0.1,0.1,0.3,0,0.3-0.2v-7C92.9,67.2,92.8,67.1,92.6,67z
					 M56.4,53.3V24.2c0-0.2-0.2-0.3-0.3-0.2L50,27.5c-0.1,0.1-0.2,0.2-0.2,0.4v14.4l-12.4-7.2c-0.1-0.1-0.3-0.1-0.4,0l-6.1,3.5
					c-0.1,0.1-0.1,0.3,0,0.4l25.2,14.6C56.2,53.6,56.4,53.5,56.4,53.3z M56.4,102.9L56.4,102.9V66.3c0-0.2-0.2-0.3-0.3-0.2
					L30.8,80.7c-0.1,0.1-0.1,0.3,0,0.4l6.1,3.5c0.1,0.1,0.3,0.1,0.4,0l12.4-7.2v24.4c-18.9-4.6-33-21.6-33-42
					c0-11.5,4.5-22.4,12.6-30.5c8.2-8.2,19-12.6,30.5-12.6c23.8,0,43.2,19.4,43.2,43.2c0,11.5-4.5,22.4-12.6,30.5
					c-5.7,5.7-12.7,9.6-20.4,11.4V77.4l12.4,7.2c0.1,0.1,0.3,0.1,0.4,0L89,81c0.1-0.1,0.1-0.3,0-0.4L63.8,66.1
					c-0.1-0.1-0.3,0-0.3,0.2v36.5v0.1c0,3.5,3.2,6.1,6.6,5.4l0,0c9.3-1.9,17.9-6.5,24.8-13.5c9.3-9.3,14.5-21.8,14.5-35
					c0-27.3-22.2-49.5-49.5-49.5l0,0c-13.2,0-25.6,5.1-35,14.5c-9.3,9.3-14.5,21.8-14.5,35c0,23.8,16.9,43.7,39.3,48.4
					c0,0,0,0,0.1,0C53.2,109,56.4,106.4,56.4,102.9z"/>
			</defs>
			<clipPath id="SVGID_00000016796301066450327410000014824086394819386543_">
				<use xlink:href="#SVGID_00000114051598340832585460000012466313458999569025_"  style="overflow:visible;"/>
			</clipPath>
			
				<linearGradient id="SVGID_00000181770086883110460840000008158509246633638812_" gradientUnits="userSpaceOnUse" x1="82.4481" y1="16.1614" x2="41.287" y2="100.9288" gradientTransform="matrix(1 0 0 -1 0 122)">
				<stop  offset="0.2203" style="stop-color:#416DB5"/>
				<stop  offset="0.5601" style="stop-color:#4194CD"/>
				<stop  offset="0.857" style="stop-color:#40B6E2"/>
				<stop  offset="1" style="stop-color:#3EC5EC"/>
			</linearGradient>
			
				<rect x="10.2" y="10.1" style="clip-path:url(#SVGID_00000016796301066450327410000014824086394819386543_);fill:url(#SVGID_00000181770086883110460840000008158509246633638812_);" width="99.3" height="98.4"/>
		</g>
	</g>
	<g>
		<polygon class="st5" points="179,34.4 138.5,34.4 135.1,42 153.6,42 153.6,84.8 162.4,84.8 162.4,42 179,42 		"/>
		<g>
			<g>
				<path id="SVGID_00000160192060633306345620000003423895893954260887_" class="st5" d="M192.5,45.7c-11.3,0-18.1,6.6-18.1,19.9
					c0,13.8,6.6,19.9,19,19.9c5.4,0,9.9-0.9,15-2.4v-7.4c-4.2,1.3-9.4,2.4-12.9,2.4c-7.6,0-12-2.8-12-10.1h25.7v-4
					C209.1,54.5,205.9,45.7,192.5,45.7z M183.3,61.7c0-5.1,2.9-9.2,8.7-9.2c7.1,0,8.3,5,8.3,9.2H183.3z"/>
			</g>
			<g>
				<defs>
					<path id="SVGID_00000141441963446710161640000004683317344209240981_" d="M192.5,45.7c-11.3,0-18.1,6.6-18.1,19.9
						c0,13.8,6.6,19.9,19,19.9c5.4,0,9.9-0.9,15-2.4v-7.4c-4.2,1.3-9.4,2.4-12.9,2.4c-7.6,0-12-2.8-12-10.1h25.7v-4
						C209.1,54.5,205.9,45.7,192.5,45.7z M183.3,61.7c0-5.1,2.9-9.2,8.7-9.2c7.1,0,8.3,5,8.3,9.2H183.3z"/>
				</defs>
				<use xlink:href="#SVGID_00000141441963446710161640000004683317344209240981_"  style="overflow:visible;fill:#FFFFFF;"/>
				<clipPath id="SVGID_00000090277431320799897630000003000884057953958528_">
					<use xlink:href="#SVGID_00000141441963446710161640000004683317344209240981_"  style="overflow:visible;"/>
				</clipPath>
				<path style="clip-path:url(#SVGID_00000090277431320799897630000003000884057953958528_);fill:#FFFFFF;" d="M192.2,52.5
					c-5.8,0-8.7,4.1-8.7,9.2h17.1C200.4,57.5,199.3,52.5,192.2,52.5z"/>
			</g>
		</g>
		<path class="st5" d="M215.7,65.7c0,15.7,10.1,19.9,19.4,19.9c4.3,0,8-0.6,12-1.7v-7.5c-3.5,1-7.1,1.7-10.7,1.7
			c-8.1,0-11.6-5.1-11.6-12.5c0-8.6,4.1-12.4,11.6-12.4c3.6,0,7.2,0.6,10.7,1.7v-7.6c-4-1.2-7.7-1.7-12-1.7
			C225.8,45.7,215.7,50,215.7,65.7z"/>
		<g>
			<g>
				<path id="SVGID_00000050629583536405637150000017202287086442997127_" class="st5" d="M316,34.4h-17.8v50.4H316
					c13.7,0,23.6-8.3,23.6-25.1S329.7,34.4,316,34.4z M315,77.1h-8V42h8c10.2,0,15.5,7.4,15.5,17.6S325.2,77.1,315,77.1z"/>
			</g>
			<g>
				<defs>
					<path id="SVGID_00000150809403143107545490000010262287030784704942_" d="M316,34.4h-17.8v50.4H316c13.7,0,23.6-8.3,23.6-25.1
						S329.7,34.4,316,34.4z M315,77.1h-8V42h8c10.2,0,15.5,7.4,15.5,17.6S325.2,77.1,315,77.1z"/>
				</defs>
				<use xlink:href="#SVGID_00000150809403143107545490000010262287030784704942_"  style="overflow:visible;fill:#FFFFFF;"/>
				<clipPath id="SVGID_00000093895589524273396830000006538223635849325232_">
					<use xlink:href="#SVGID_00000150809403143107545490000010262287030784704942_"  style="overflow:visible;"/>
				</clipPath>
				<path style="clip-path:url(#SVGID_00000093895589524273396830000006538223635849325232_);fill:#FFFFFF;" d="M315,42h-8v35.1h8
					c10.2,0,15.5-7.3,15.5-17.5S325.2,42,315,42z"/>
			</g>
		</g>
		<g>
			<g>
				<path id="SVGID_00000098220647123066889600000012988074829975153796_" class="st5" d="M364,45.7c-11.3,0-18.1,6.6-18.1,19.9
					c0,13.8,6.6,19.9,19,19.9c5.4,0,9.9-0.9,15-2.4v-7.4c-4.2,1.3-9.4,2.4-12.9,2.4c-7.6,0-12-2.8-12-10.1h25.7v-4
					C380.5,54.5,377.3,45.7,364,45.7z M354.7,61.7c0-5.1,2.9-9.2,8.7-9.2c7.1,0,8.3,5,8.3,9.2H354.7z"/>
			</g>
			<g>
				<defs>
					<path id="SVGID_00000032615781939409824960000016286677923422633647_" d="M364,45.7c-11.3,0-18.1,6.6-18.1,19.9
						c0,13.8,6.6,19.9,19,19.9c5.4,0,9.9-0.9,15-2.4v-7.4c-4.2,1.3-9.4,2.4-12.9,2.4c-7.6,0-12-2.8-12-10.1h25.7v-4
						C380.5,54.5,377.3,45.7,364,45.7z M354.7,61.7c0-5.1,2.9-9.2,8.7-9.2c7.1,0,8.3,5,8.3,9.2H354.7z"/>
				</defs>
				<use xlink:href="#SVGID_00000032615781939409824960000016286677923422633647_"  style="overflow:visible;fill:#FFFFFF;"/>
				<clipPath id="SVGID_00000174589253261067332880000016899965301728919428_">
					<use xlink:href="#SVGID_00000032615781939409824960000016286677923422633647_"  style="overflow:visible;"/>
				</clipPath>
				<path style="clip-path:url(#SVGID_00000174589253261067332880000016899965301728919428_);fill:#FFFFFF;" d="M363.5,52.5
					c-5.8,0-8.7,4.1-8.7,9.2h17.1C371.7,57.5,370.5,52.5,363.5,52.5z"/>
			</g>
		</g>
		<g>
			<g>
				<path id="SVGID_00000042712610109302541560000010678131750090700965_" class="st5" d="M467.1,45.7c-10.5,0-19.2,5.8-19.2,19.9
					c0,14.2,8.7,19.9,19.2,19.9s19.2-5.9,19.2-19.9S477.6,45.7,467.1,45.7z M467.2,78.2c-7.3,0-10.4-4.7-10.4-12.6
					c0-7.8,3.1-12.5,10.4-12.5s10.3,4.7,10.3,12.5C477.4,73.6,474.4,78.2,467.2,78.2z"/>
			</g>
			<g>
				<defs>
					<path id="SVGID_00000050628964121976140320000005218924405504634270_" d="M467.1,45.7c-10.5,0-19.2,5.8-19.2,19.9
						c0,14.2,8.7,19.9,19.2,19.9s19.2-5.9,19.2-19.9S477.6,45.7,467.1,45.7z M467.2,78.2c-7.3,0-10.4-4.7-10.4-12.6
						c0-7.8,3.1-12.5,10.4-12.5s10.3,4.7,10.3,12.5C477.4,73.6,474.4,78.2,467.2,78.2z"/>
				</defs>
				<use xlink:href="#SVGID_00000050628964121976140320000005218924405504634270_"  style="overflow:visible;fill:#FFFFFF;"/>
				<clipPath id="SVGID_00000013875272230492283510000010379505443682557352_">
					<use xlink:href="#SVGID_00000050628964121976140320000005218924405504634270_"  style="overflow:visible;"/>
				</clipPath>
				<path style="clip-path:url(#SVGID_00000013875272230492283510000010379505443682557352_);fill:#FFFFFF;" d="M467.2,53.1
					c-7.3,0-10.4,4.7-10.4,12.5c0,7.9,3.1,12.6,10.4,12.6s10.3-4.7,10.3-12.6C477.4,57.8,474.4,53.1,467.2,53.1z"/>
			</g>
		</g>
		<path class="st5" d="M492.7,65.7c0,15.7,9.8,19.9,19,19.9c4.3,0,8-0.6,12-1.7v-7.5c-3.5,1-7.1,1.7-10.7,1.7
			c-8.1,0-11.6-5.1-11.6-12.5c0-8.6,4.1-12.4,11.6-12.4c3.6,0,7.2,0.6,10.7,1.7v-7.6c-4-1.2-7.7-1.7-12-1.7
			C502.5,45.7,492.7,50,492.7,65.7z"/>
		<g>
			<g>
				<path id="SVGID_00000088091792390478290180000016956247627935500694_" class="st5" d="M573.7,45.7c-3.3,0-12.1,0-12.1,0v7.2
					c0,0,7.4,0,10.1,0c6.2,0,8.3,2.4,8.3,5.9v3.5c0,0-4.4-0.7-8.5-0.5c-8.5,0.4-13.3,4.3-13.3,11.6c0,8,4.8,12.2,15.5,12.2
					c10.1,0,14.3-2,14.9-2.2V60.2C588.6,51.2,583,45.7,573.7,45.7z M580,78.2c0,0-1.5,0.7-6.3,0.6c-4.9-0.1-7.6-2.1-7.6-5.7
					c0-3.3,3.1-4.9,7.5-4.9c3.6,0,6.5,0.7,6.5,0.7v9.3H580z"/>
			</g>
		</g>
		<path class="st5" d="M595.4,65.7c0,15.7,9.8,19.9,19,19.9c4.3,0,8-0.6,12-1.7v-7.5c-3.5,1-7.1,1.7-10.7,1.7
			c-8.1,0-11.6-5.1-11.6-12.5c0-8.6,4.1-12.4,11.6-12.4c3.6,0,7.2,0.6,10.7,1.7v-7.6c-4-1.2-7.7-1.7-12-1.7
			C605.2,45.7,595.4,50,595.4,65.7z"/>
		<g>
			<polygon class="st5" points="651.5,80.2 640.7,46.5 631.4,46.5 643.6,84.8 650,84.8 645.3,99.4 654.6,99.4 671.5,46.5 
				662.2,46.5 			"/>
		</g>
		<g>
			<path class="st5" d="M555.9,45.7v7.2h-4.6c-4.6,0-9,1.8-10.3,8v24h-8.6V46.3h8.6v4.8c1.9-5,6.5-5.5,10.7-5.5h4.2V45.7z"/>
		</g>
		<path class="st5" d="M410.5,84.8V60.3c0-4.7-2.2-7-6.1-7c-2.6,0-4.7,0.9-6.9,2.6v28.8h-8.8V46.3h8.2v3.3l0,0c3.4-2.8,6.8-4,10.6-4
			c4.3,0,7.4,1.6,9.4,4.7c3.1-2.6,7-4.7,11.9-4.7c6,0,12.3,3.1,12.3,13.8v25.2h-8.8V60.5c0-4-1.7-7.2-6.1-7.2
			c-2.8,0-5.3,1.2-7.1,2.9c0.1,0.8,0.2,2.7,0.2,4.2v24.4H410.5z"/>
		<path class="st5" d="M264.4,84.8h-8.8V35.2l8.8-4.2v18.1c2.7-1.9,6.7-3.4,10.9-3.4c5.5,0,12.2,2.8,12.2,14.4v24.6h-8.8V61
			c0-4.9-2.1-7.7-6.3-7.7c-3.4,0-5.9,1.2-7.9,2.6v28.9H264.4z"/>
	</g>
</g>
</svg>
