<?xml version="1.0" encoding="UTF-8"?><svg id="Layer_1" xmlns="http://www.w3.org/2000/svg" viewBox="0 0 32 32"><defs><style>.cls-1{stroke-width:0px;}</style></defs><path class="cls-1" d="m29.05,2.01h-14.06c-1.62,0-2.95,1.32-2.95,2.95v9.02l-2.61-1.3c-.09-.04-.18-.09-.27-.12.77-.8,1.24-1.88,1.24-3.08,0-2.45-2-4.45-4.45-4.45S1.51,7.02,1.51,9.47c0,1.33.59,2.53,1.52,3.35-1.72.97-3.03,2.85-3.03,5.19v3.01c0,1.3.84,2.4,2.01,2.79v5.24c0,.52.42.94.94.94h6.02c.52,0,.94-.42.94-.94v-10.53l3,1.5c1.15.57,2.71.23,3.41-1.08h3.36l-3.56,9.79c-.18.49.07,1.02.56,1.2.56.2,1.05-.15,1.2-.56l3.79-10.43h.66l3.83,10.43c.15.4.64.76,1.2.56.49-.18.74-.72.56-1.2l-3.59-9.79h4.72c1.59,0,2.95-1.28,2.95-2.95V4.95c0-1.66-1.35-2.95-2.95-2.95ZM3.38,9.47c0-1.42,1.16-2.58,2.58-2.58s2.58,1.16,2.58,2.58-1.16,2.58-2.58,2.58-2.58-1.16-2.58-2.58Zm11.34,8.47s0,.01,0,.02c-.06.18-.21.33-.39.4-.19.08-.4.07-.58-.02-1.78-.89-4.36-2.18-4.36-2.18-.62-.31-1.36.14-1.36.84v11.11H3.88v-5.09c0-.52-.42-.94-.94-.94-.59,0-1.07-.48-1.07-1.07v-3.01c0-2.29,1.87-4.08,4.08-4.08h.83c.63,0,1.26.15,1.82.43,0,0,4.65,2.31,5.83,2.9.25.13.37.42.28.69Zm15.41-1.94c0,.29-.11.56-.31.76-.2.2-.48.31-.76.31h-12.53s0-.01,0-.02l2.33-4.65c.23-.46.04-1.03-.42-1.26-.46-.23-1.03-.04-1.26.42l-1.98,3.97c-.37-.18-.8-.4-1.26-.63V4.95c0-.59.48-1.07,1.07-1.07h14.06c.28,0,.56.11.76.31.2.2.31.47.31.76v11.05Z"/><path class="cls-1" d="m27.05,6.02h-10.04c-.52,0-.94.42-.94.94s.42.94.94.94h10.04c.52,0,.94-.42.94-.94s-.42-.94-.94-.94Z"/><path class="cls-1" d="m27.05,9.54h-5.02c-.52,0-.94.42-.94.94s.42.94.94.94h5.02c.52,0,.94-.42.94-.94s-.42-.94-.94-.94Z"/><path class="cls-1" d="m27.05,13.05h-5.02c-.52,0-.94.42-.94.94s.42.94.94.94h5.02c.52,0,.94-.42.94-.94s-.42-.94-.94-.94Z"/></svg>