<?xml version="1.0" encoding="UTF-8"?><svg id="Layer_1" xmlns="http://www.w3.org/2000/svg" viewBox="0 0 614 568"><defs><style>.cls-1{fill:#8018b7;}.cls-1,.cls-2,.cls-3,.cls-4{stroke-width:0px;}.cls-2{fill:#fff;}.cls-3{fill:#009dff;}.cls-4{fill:#f152ae;}</style></defs><path class="cls-1" d="m289.52,38.88c4.96-2.86,11.06-2.86,16.02.01l102.85,59.56c4.93,2.86,7.97,8.12,7.98,13.83l.15,118.85c0,5.72-3.04,11.02-8,13.88l-102.62,59.25c-4.96,2.86-11.06,2.86-16.02-.01l-102.85-59.56c-4.93-2.86-7.97-8.12-7.98-13.83l-.15-118.85c0-5.72,3.04-11.02,8-13.88l102.62-59.25Z"/><path class="cls-3" d="m169.97,263.78c4.95-2.86,11.04-2.86,15.99,0l102.56,59.14c4.96,2.86,8.01,8.15,8.01,13.87l-.06,118.39c0,5.71-3.05,10.99-8,13.85l-102.66,59.27c-4.95,2.86-11.04,2.86-15.99,0l-102.56-59.14c-4.96-2.86-8.01-8.15-8.01-13.87l.06-118.39c0-5.71,3.05-10.99,8-13.85l102.66-59.27Z"/><path class="cls-4" d="m426.68,256.44c4.96-2.86,11.06-2.86,16.02.01l102.85,59.56c4.93,2.86,7.97,8.12,7.98,13.83l.15,118.85c0,5.72-3.04,11.02-8,13.88l-102.62,59.25c-4.96,2.86-11.06,2.86-16.02-.01l-102.85-59.56c-4.93-2.86-7.97-8.12-7.98-13.83l-.15-118.85c0-5.72,3.04-11.02,8-13.88l102.62-59.25Z"/><path class="cls-2" d="m113.11,394.09c5.15,0,8.9-2.59,8.9-7.23,0-4.93-3.84-6.05-8.54-7.07-3.39-.74-4.99-1.28-4.99-3.14,0-1.63,1.63-2.69,4.13-2.69s4.16,1.15,4.42,3.46h4.45c-.35-4.61-3.68-7.14-8.83-7.14s-8.77,2.34-8.77,6.85c0,4.77,3.74,5.86,7.84,6.78,3.49.8,5.66,1.25,5.66,3.49,0,2.11-2.08,2.94-4.45,2.94-3.26,0-4.83-1.09-5.15-3.84h-4.54c.16,4.83,3.68,7.58,9.89,7.58Z"/><path class="cls-2" d="m134.87,390.28c-4.19,0-6.34-3.55-6.34-8.1s2.14-8.13,6.34-8.13,6.24,3.55,6.24,8.13-2.05,8.1-6.24,8.1Zm-.03,3.81c6.75,0,11.01-5.06,11.01-11.9s-4.26-11.94-11.01-11.94-11.04,5.09-11.04,11.94,4.29,11.9,11.04,11.9Z"/><path class="cls-2" d="m158.39,394.06c3.17,0,5.38-.96,6.94-2.43,1.54-1.44,2.4-3.39,2.53-5.41h-4.54c-.29,2.4-2.21,4.03-4.93,4.03-3.84,0-6.27-3.36-6.27-8.03s2.02-8.06,6.24-8.06c2.69,0,4.42,1.5,4.83,3.81h4.61c-.48-4.35-3.81-7.71-9.44-7.71-6.75,0-10.98,5.18-10.98,11.97s4.58,11.84,11.01,11.84Z"/><rect class="cls-2" x="174.97" y="383.79" width="8.67" height="3.74"/><path class="cls-2" d="m192.12,390.92c-1.54,0-2.56-.54-2.56-2.08s1.12-2.05,3.39-2.56c1.09-.26,2.27-.51,3.04-.96v2.46c0,1.6-1.38,3.14-3.87,3.14Zm4.35,2.66h4.19v-.16c-.38-.29-.58-1.02-.58-2.27v-8.35c0-3.84-1.98-6.05-6.91-6.05s-6.94,2.53-7.07,5.41h3.87c.13-1.57,1.12-2.3,3.17-2.3,1.82,0,2.75.77,2.75,1.95,0,1.25-1.25,1.47-3.97,1.86-3.65.51-6.59,1.66-6.59,5.28,0,3.26,2.37,5.02,5.73,5.02,2.82,0,4-.96,4.83-2.21h.06c.1.74.26,1.5.51,1.82Z"/><path class="cls-2" d="m209.5,394.06c4.1,0,6.91-1.98,6.91-5.28,0-3.84-3.04-4.61-5.79-5.18-2.34-.48-4.51-.61-4.51-2.02,0-1.18,1.12-1.82,2.82-1.82,1.86,0,2.98.64,3.17,2.4h3.94c-.32-3.3-2.72-5.44-7.04-5.44-3.74,0-6.69,1.7-6.69,5.25s2.88,4.38,5.82,4.96c2.24.45,4.32.61,4.32,2.18,0,1.15-1.09,1.89-3.01,1.89s-3.3-.83-3.58-2.72h-4.03c.26,3.49,2.91,5.79,7.68,5.79Z"/><rect class="cls-2" x="218.2" y="383.79" width="8.67" height="3.74"/><path class="cls-2" d="m235.35,390.92c-1.54,0-2.56-.54-2.56-2.08s1.12-2.05,3.39-2.56c1.09-.26,2.27-.51,3.04-.96v2.46c0,1.6-1.38,3.14-3.87,3.14Zm4.35,2.66h4.19v-.16c-.38-.29-.58-1.02-.58-2.27v-8.35c0-3.84-1.98-6.05-6.91-6.05s-6.94,2.53-7.07,5.41h3.87c.13-1.57,1.12-2.3,3.17-2.3,1.82,0,2.75.77,2.75,1.95,0,1.25-1.25,1.47-3.97,1.86-3.65.51-6.59,1.66-6.59,5.28,0,3.26,2.37,5.02,5.73,5.02,2.82,0,4-.96,4.83-2.21h.06c.1.74.26,1.5.51,1.82Z"/><rect class="cls-2" x="245.75" y="383.79" width="8.67" height="3.74"/><path class="cls-2" d="m136.44,430.09c5.15,0,8.9-2.59,8.9-7.23,0-4.93-3.84-6.05-8.54-7.07-3.39-.74-4.99-1.28-4.99-3.14,0-1.63,1.63-2.69,4.13-2.69s4.16,1.15,4.42,3.46h4.45c-.35-4.61-3.68-7.14-8.83-7.14s-8.77,2.34-8.77,6.85c0,4.77,3.74,5.86,7.84,6.78,3.49.8,5.66,1.25,5.66,3.49,0,2.11-2.08,2.94-4.45,2.94-3.26,0-4.83-1.09-5.15-3.84h-4.54c.16,4.83,3.68,7.58,9.89,7.58Z"/><path class="cls-2" d="m155.13,416.08c1.98,0,3.36,1.44,3.49,3.52h-7.3c.38-2.14,1.5-3.52,3.81-3.52Zm.35,13.98c4.22,0,6.82-2.46,7.42-5.38h-4.29c-.48,1.25-1.47,2.02-3.17,2.02-2.46,0-3.87-1.57-4.19-4.1h11.9c0-5.86-2.82-9.89-8.1-9.89-4.8,0-8.1,3.78-8.1,8.64s3.07,8.7,8.51,8.7Z"/><path class="cls-2" d="m169.37,413.16h-4.19v16.42h4.35v-8c0-3.46,2.05-4.96,4.9-4.67h.1v-3.81c-.26-.1-.54-.13-1.02-.13-1.92,0-3.04.96-4.03,2.82h-.1v-2.62Z"/><path class="cls-2" d="m181.08,429.58h4.16l5.73-16.42h-4.35l-2.69,8.51c-.48,1.57-.7,2.62-.7,2.62h-.06s-.26-1.06-.74-2.62l-2.62-8.51h-4.42l5.7,16.42Z"/><path class="cls-2" d="m192.44,410.6h4.35v-3.9h-4.35v3.9Zm0,18.98h4.35v-16.42h-4.35v16.42Z"/><path class="cls-2" d="m207.22,430.06c4.38,0,7.1-2.78,7.39-6.27h-4.19c-.29,1.86-1.54,2.78-3.3,2.78-2.66,0-3.9-2.08-3.9-5.18s1.34-5.18,3.97-5.18c1.6,0,2.72,1.09,3.01,2.53h4.26c-.58-3.55-3.2-6.02-7.46-6.02-4.99,0-8.19,3.78-8.19,8.67s3.23,8.67,8.42,8.67Z"/><path class="cls-2" d="m223.86,416.08c1.98,0,3.36,1.44,3.49,3.52h-7.3c.38-2.14,1.5-3.52,3.81-3.52Zm.35,13.98c4.22,0,6.82-2.46,7.42-5.38h-4.29c-.48,1.25-1.47,2.02-3.17,2.02-2.46,0-3.87-1.57-4.19-4.1h11.9c0-5.86-2.82-9.89-8.1-9.89-4.8,0-8.1,3.78-8.1,8.64s3.07,8.7,8.51,8.7Z"/><path class="cls-2" d="m234.69,168.58h4.26v-13.12c0-1.86-.19-4.74-.19-4.74h.06s.51,2.69.99,4.35l3.84,13.5h4.45l3.94-13.5c.48-1.66.99-4.35.99-4.35h.06s-.19,2.88-.19,4.74v13.12h4.32v-22.88h-6.62l-3.23,11.49c-.8,2.88-1.41,6.18-1.41,6.18h-.06s-.64-3.3-1.44-6.18l-3.23-11.49h-6.53v22.88Z"/><path class="cls-2" d="m266.37,165.92c-1.54,0-2.56-.54-2.56-2.08s1.12-2.05,3.39-2.56c1.09-.26,2.27-.51,3.04-.96v2.46c0,1.6-1.38,3.14-3.87,3.14Zm4.35,2.66h4.19v-.16c-.38-.29-.58-1.02-.58-2.27v-8.35c0-3.84-1.98-6.05-6.91-6.05s-6.94,2.53-7.07,5.41h3.87c.13-1.57,1.12-2.3,3.17-2.3,1.82,0,2.75.77,2.75,1.95,0,1.25-1.25,1.47-3.97,1.86-3.65.51-6.59,1.66-6.59,5.28,0,3.26,2.37,5.02,5.73,5.02,2.82,0,4-.96,4.83-2.21h.06c.1.74.26,1.5.51,1.82Z"/><path class="cls-2" d="m281.34,152.16h-4.26v16.42h4.35v-9.31c0-2.24,1.41-3.78,3.33-3.78s2.85,1.25,2.85,3.01v10.08h4.35v-10.72c0-3.58-2.27-6.14-5.66-6.14-2.24,0-3.74.93-4.86,2.69h-.1v-2.24Z"/><path class="cls-2" d="m300.64,165.92c-1.54,0-2.56-.54-2.56-2.08s1.12-2.05,3.39-2.56c1.09-.26,2.27-.51,3.04-.96v2.46c0,1.6-1.38,3.14-3.87,3.14Zm4.35,2.66h4.19v-.16c-.38-.29-.58-1.02-.58-2.27v-8.35c0-3.84-1.98-6.05-6.91-6.05s-6.94,2.53-7.07,5.41h3.87c.13-1.57,1.12-2.3,3.17-2.3,1.82,0,2.75.77,2.75,1.95,0,1.25-1.25,1.47-3.97,1.86-3.65.51-6.59,1.66-6.59,5.28,0,3.26,2.37,5.02,5.73,5.02,2.82,0,4-.96,4.83-2.21h.06c.1.74.26,1.5.51,1.82Z"/><path class="cls-2" d="m318.53,164.1c-2.24,0-3.71-1.63-3.71-4.42s1.47-4.48,3.68-4.48c2.62,0,3.9,2.05,3.9,4.45s-1.12,4.45-3.87,4.45Zm.06,10.08c2.43,0,4.54-.58,5.92-1.86,1.22-1.12,1.95-2.69,1.95-4.99v-15.17h-4.19v1.73h-.06c-.99-1.38-2.5-2.18-4.54-2.18-4.16,0-7.1,3.14-7.1,8.03s3.58,7.84,7.23,7.84c2.08,0,3.33-.83,4.29-1.92h.1v1.79c0,2.24-1.18,3.42-3.65,3.42-2.02,0-2.94-.8-3.3-1.82h-4.32c.45,3.2,3.2,5.12,7.68,5.12Z"/><path class="cls-2" d="m336.64,155.08c1.98,0,3.36,1.44,3.49,3.52h-7.3c.38-2.14,1.5-3.52,3.81-3.52Zm.35,13.98c4.22,0,6.82-2.46,7.42-5.38h-4.29c-.48,1.25-1.47,2.02-3.17,2.02-2.46,0-3.87-1.57-4.19-4.1h11.9c0-5.86-2.82-9.89-8.1-9.89-4.8,0-8.1,3.78-8.1,8.64s3.07,8.7,8.51,8.7Z"/><path class="cls-2" d="m353.79,165.41c-2.24,0-3.49-1.86-3.49-5.02s1.22-5.15,3.62-5.15c2.78,0,3.81,2.11,3.81,5.25s-1.34,4.93-3.94,4.93Zm-.96,3.65c2.3,0,3.94-1.06,4.9-2.62h.06v2.14h4.19v-22.88h-4.35v8.45h-.1c-.9-1.38-2.34-2.43-4.64-2.43-4.1,0-7.01,3.55-7.01,8.67s2.82,8.67,6.94,8.67Z"/><path class="cls-2" d="m275.78,205.09c5.15,0,8.9-2.59,8.9-7.23,0-4.93-3.84-6.05-8.54-7.07-3.39-.74-4.99-1.28-4.99-3.14,0-1.63,1.63-2.69,4.13-2.69s4.16,1.15,4.42,3.46h4.45c-.35-4.61-3.68-7.14-8.83-7.14s-8.77,2.34-8.77,6.85c0,4.77,3.74,5.86,7.84,6.78,3.49.8,5.66,1.25,5.66,3.49,0,2.11-2.08,2.94-4.45,2.94-3.26,0-4.83-1.09-5.15-3.84h-4.54c.16,4.83,3.68,7.58,9.89,7.58Z"/><path class="cls-2" d="m297.54,201.28c-4.19,0-6.34-3.55-6.34-8.1s2.14-8.13,6.34-8.13,6.24,3.55,6.24,8.13-2.05,8.1-6.24,8.1Zm-.03,3.81c6.75,0,11.01-5.06,11.01-11.9s-4.26-11.94-11.01-11.94-11.04,5.09-11.04,11.94,4.29,11.9,11.04,11.9Z"/><path class="cls-2" d="m321.06,205.06c3.17,0,5.38-.96,6.94-2.43,1.54-1.44,2.4-3.39,2.53-5.41h-4.54c-.29,2.4-2.21,4.03-4.93,4.03-3.84,0-6.27-3.36-6.27-8.03s2.02-8.06,6.24-8.06c2.69,0,4.42,1.5,4.83,3.81h4.61c-.48-4.35-3.81-7.71-9.44-7.71-6.75,0-10.98,5.18-10.98,11.97s4.58,11.84,11.01,11.84Z"/><path class="cls-2" d="m358.32,374.06c4.38,0,7.1-2.78,7.39-6.27h-4.19c-.29,1.86-1.54,2.78-3.3,2.78-2.66,0-3.9-2.08-3.9-5.18s1.34-5.18,3.97-5.18c1.6,0,2.72,1.09,3.01,2.53h4.26c-.58-3.55-3.2-6.02-7.46-6.02-4.99,0-8.19,3.78-8.19,8.67s3.23,8.67,8.42,8.67Z"/><path class="cls-2" d="m382.16,373.58v-16.42h-4.35v9.47c0,2.18-1.25,3.71-3.3,3.71-1.86,0-2.72-1.06-2.72-2.98v-10.21h-4.32v10.94c0,3.58,2.05,5.92,5.7,5.92,2.3,0,3.58-.86,4.7-2.37h.1v1.92h4.19Z"/><path class="cls-2" d="m391.64,374.06c4.1,0,6.91-1.98,6.91-5.28,0-3.84-3.04-4.61-5.79-5.18-2.34-.48-4.51-.61-4.51-2.02,0-1.18,1.12-1.82,2.82-1.82,1.86,0,2.98.64,3.17,2.4h3.94c-.32-3.3-2.72-5.44-7.04-5.44-3.74,0-6.69,1.7-6.69,5.25s2.88,4.38,5.82,4.96c2.24.45,4.32.61,4.32,2.18,0,1.15-1.09,1.89-3.01,1.89s-3.3-.83-3.58-2.72h-4.03c.26,3.49,2.91,5.79,7.68,5.79Z"/><path class="cls-2" d="m399.22,360.04h2.27v9.63c0,3.1,2.34,3.94,4.45,3.94,1.73,0,2.72-.06,2.72-.06v-3.2s-.74.03-1.28.03c-.96,0-1.63-.42-1.63-1.63v-8.7h2.82v-2.88h-2.82v-5.12h-4.26v5.12h-2.27v2.88Z"/><path class="cls-2" d="m418.42,370.73c-2.69,0-4.16-2.14-4.16-5.34s1.47-5.38,4.16-5.38,4.16,2.18,4.16,5.38-1.5,5.34-4.16,5.34Zm0,3.33c5.09,0,8.58-3.78,8.58-8.67s-3.49-8.67-8.58-8.67-8.58,3.78-8.58,8.67,3.49,8.67,8.58,8.67Z"/><path class="cls-2" d="m429.01,373.58h4.35v-9.54c0-2.18,1.18-3.58,2.94-3.58,1.6,0,2.53.96,2.53,2.82v10.3h4.35v-9.54c0-2.18,1.12-3.58,2.94-3.58,1.6,0,2.53.96,2.53,2.82v10.3h4.35v-11.04c0-3.58-1.95-5.82-5.41-5.82-2.08,0-3.81,1.09-4.93,2.88h-.06c-.8-1.73-2.46-2.88-4.54-2.88-2.27,0-3.87,1.15-4.77,2.66h-.1v-2.21h-4.19v16.42Z"/><path class="cls-2" d="m455.7,354.6h4.35v-3.9h-4.35v3.9Zm0,18.98h4.35v-16.42h-4.35v16.42Z"/><polygon class="cls-2" points="462.32 373.58 476.24 373.58 476.24 370.09 467.57 370.09 467.57 370 475.83 360.65 475.83 357.16 463.28 357.16 463.28 360.59 470.77 360.59 470.77 360.68 462.32 370.25 462.32 373.58"/><path class="cls-2" d="m485.27,360.08c1.98,0,3.36,1.44,3.49,3.52h-7.3c.38-2.14,1.5-3.52,3.81-3.52Zm.35,13.98c4.22,0,6.82-2.46,7.42-5.38h-4.29c-.48,1.25-1.47,2.02-3.17,2.02-2.46,0-3.87-1.57-4.19-4.1h11.9c0-5.86-2.82-9.89-8.1-9.89-4.8,0-8.1,3.78-8.1,8.64s3.07,8.7,8.51,8.7Z"/><path class="cls-2" d="m502.42,370.41c-2.24,0-3.49-1.86-3.49-5.02s1.22-5.15,3.62-5.15c2.78,0,3.81,2.11,3.81,5.25s-1.34,4.93-3.94,4.93Zm-.96,3.65c2.3,0,3.94-1.06,4.9-2.62h.06v2.14h4.19v-22.88h-4.35v8.45h-.1c-.9-1.38-2.34-2.43-4.64-2.43-4.1,0-7.01,3.55-7.01,8.67s2.82,8.67,6.94,8.67Z"/><path class="cls-2" d="m408.28,410.09c5.15,0,8.9-2.59,8.9-7.23,0-4.93-3.84-6.05-8.54-7.07-3.39-.74-4.99-1.28-4.99-3.14,0-1.63,1.63-2.69,4.13-2.69s4.16,1.15,4.42,3.46h4.45c-.35-4.61-3.68-7.14-8.83-7.14s-8.77,2.34-8.77,6.85c0,4.77,3.74,5.86,7.84,6.78,3.49.8,5.66,1.25,5.66,3.49,0,2.11-2.08,2.94-4.45,2.94-3.26,0-4.83-1.09-5.15-3.84h-4.54c.16,4.83,3.68,7.58,9.89,7.58Z"/><path class="cls-2" d="m430.04,406.28c-4.19,0-6.34-3.55-6.34-8.1s2.14-8.13,6.34-8.13,6.24,3.55,6.24,8.13-2.05,8.1-6.24,8.1Zm-.03,3.81c6.75,0,11.01-5.06,11.01-11.9s-4.26-11.94-11.01-11.94-11.04,5.09-11.04,11.94,4.29,11.9,11.04,11.9Z"/><path class="cls-2" d="m453.56,410.06c3.17,0,5.38-.96,6.94-2.43,1.54-1.44,2.4-3.39,2.53-5.41h-4.54c-.29,2.4-2.21,4.03-4.93,4.03-3.84,0-6.27-3.36-6.27-8.03s2.02-8.06,6.24-8.06c2.69,0,4.42,1.5,4.83,3.81h4.61c-.48-4.35-3.81-7.71-9.44-7.71-6.75,0-10.98,5.18-10.98,11.97s4.58,11.84,11.01,11.84Z"/><path class="cls-2" d="m381.04,445.58h4.26v-13.12c0-1.86-.19-4.74-.19-4.74h.06s.51,2.69.99,4.35l3.84,13.5h4.45l3.94-13.5c.48-1.66.99-4.35.99-4.35h.06s-.19,2.88-.19,4.74v13.12h4.32v-22.88h-6.62l-3.23,11.49c-.8,2.88-1.41,6.18-1.41,6.18h-.06s-.64-3.3-1.44-6.18l-3.23-11.49h-6.53v22.88Z"/><path class="cls-2" d="m414.52,442.73c-2.69,0-4.16-2.14-4.16-5.34s1.47-5.38,4.16-5.38,4.16,2.18,4.16,5.38-1.5,5.34-4.16,5.34Zm0,3.33c5.09,0,8.58-3.78,8.58-8.67s-3.49-8.67-8.58-8.67-8.58,3.78-8.58,8.67,3.49,8.67,8.58,8.67Z"/><path class="cls-2" d="m432.21,442.41c-2.24,0-3.49-1.86-3.49-5.02s1.22-5.15,3.62-5.15c2.78,0,3.81,2.11,3.81,5.25s-1.34,4.93-3.94,4.93Zm-.96,3.65c2.3,0,3.94-1.06,4.9-2.62h.06v2.14h4.19v-22.88h-4.35v8.45h-.1c-.9-1.38-2.34-2.43-4.64-2.43-4.1,0-7.01,3.55-7.01,8.67s2.82,8.67,6.94,8.67Z"/><path class="cls-2" d="m450.58,432.08c1.98,0,3.36,1.44,3.49,3.52h-7.3c.38-2.14,1.5-3.52,3.81-3.52Zm.35,13.98c4.22,0,6.82-2.46,7.42-5.38h-4.29c-.48,1.25-1.47,2.02-3.17,2.02-2.46,0-3.87-1.57-4.19-4.1h11.9c0-5.86-2.82-9.89-8.1-9.89-4.8,0-8.1,3.78-8.1,8.64s3.07,8.7,8.51,8.7Z"/><rect class="cls-2" x="460.69" y="422.7" width="4.35" height="22.88"/><path class="cls-2" d="m474.58,446.06c4.1,0,6.91-1.98,6.91-5.28,0-3.84-3.04-4.61-5.79-5.18-2.34-.48-4.51-.61-4.51-2.02,0-1.18,1.12-1.82,2.82-1.82,1.86,0,2.98.64,3.17,2.4h3.94c-.32-3.3-2.72-5.44-7.04-5.44-3.74,0-6.69,1.7-6.69,5.25s2.88,4.38,5.82,4.96c2.24.45,4.32.61,4.32,2.18,0,1.15-1.09,1.89-3.01,1.89s-3.3-.83-3.58-2.72h-4.03c.26,3.49,2.91,5.79,7.68,5.79Z"/></svg>