<?xml version="1.0" encoding="UTF-8"?>
<svg id="Solutions_Outline" data-name="Solutions Outline" xmlns="http://www.w3.org/2000/svg" xmlns:xlink="http://www.w3.org/1999/xlink" viewBox="0 0 1101.8 800">
  <defs>
    <style>
      .cls-1 {
        fill: url(#linear-gradient);
      }

      .cls-1, .cls-2, .cls-3, .cls-4, .cls-5, .cls-6, .cls-7, .cls-8, .cls-9, .cls-10, .cls-11, .cls-12, .cls-13, .cls-14, .cls-15, .cls-16, .cls-17 {
        stroke-width: 0px;
      }

      .cls-2 {
        fill: url(#linear-gradient-11);
      }

      .cls-3 {
        fill: url(#linear-gradient-12);
      }

      .cls-4 {
        fill: url(#linear-gradient-13);
      }

      .cls-5 {
        fill: url(#linear-gradient-10);
      }

      .cls-6 {
        fill: url(#linear-gradient-16);
      }

      .cls-7 {
        fill: url(#linear-gradient-15);
      }

      .cls-8 {
        fill: url(#linear-gradient-14);
      }

      .cls-9 {
        fill: url(#linear-gradient-4);
      }

      .cls-10 {
        fill: url(#linear-gradient-2);
      }

      .cls-11 {
        fill: url(#linear-gradient-3);
      }

      .cls-12 {
        fill: url(#linear-gradient-8);
      }

      .cls-13 {
        fill: url(#linear-gradient-9);
      }

      .cls-14 {
        fill: url(#linear-gradient-7);
      }

      .cls-15 {
        fill: url(#linear-gradient-5);
      }

      .cls-16 {
        fill: url(#linear-gradient-6);
      }

      .cls-18 {
        fill: none;
        stroke: #00b1ff;
      }

      .cls-17 {
        fill: #fff;
      }
    </style>
    <linearGradient id="linear-gradient" x1="196.71" y1="797.05" x2="198.17" y2="795.49" gradientTransform="translate(-41320.92 331891.44) scale(212.23 -416.36)" gradientUnits="userSpaceOnUse">
      <stop offset="0" stop-color="#173cb4" stop-opacity=".25"/>
      <stop offset="1" stop-color="#009dff" stop-opacity=".09"/>
    </linearGradient>
    <linearGradient id="linear-gradient-2" x1="196.11" y1="795.06" x2="197.07" y2="795.06" gradientTransform="translate(-43595.26 155065.83) scale(224.22 -194.17)" gradientUnits="userSpaceOnUse">
      <stop offset="0" stop-color="#645aff" stop-opacity=".8"/>
      <stop offset="1" stop-color="#00aaa2"/>
    </linearGradient>
    <linearGradient id="linear-gradient-3" x1="344.35" y1="687.53" x2="559.31" y2="687.53" gradientUnits="userSpaceOnUse">
      <stop offset=".38" stop-color="#1518b7" stop-opacity="0"/>
      <stop offset="1" stop-color="#5315b7"/>
    </linearGradient>
    <linearGradient id="linear-gradient-4" x1="314.06" y1="441.71" x2="619.37" y2="441.71" gradientUnits="userSpaceOnUse">
      <stop offset="0" stop-color="#645aff" stop-opacity=".8"/>
      <stop offset="1" stop-color="#8000f6"/>
    </linearGradient>
    <linearGradient id="linear-gradient-5" x1="279.85" y1="441.71" x2="585.16" y2="441.71" gradientUnits="userSpaceOnUse">
      <stop offset=".36" stop-color="#173cb4" stop-opacity="0"/>
      <stop offset="1" stop-color="#4318b7"/>
    </linearGradient>
    <linearGradient id="linear-gradient-6" x1="197.24" y1="795.55" x2="196.53" y2="795.55" gradientTransform="translate(-68498.12 113752.47) scale(349.05 -142.43)" gradientUnits="userSpaceOnUse">
      <stop offset="0" stop-color="#4318b7"/>
      <stop offset="1" stop-color="#173cb4" stop-opacity="0"/>
    </linearGradient>
    <linearGradient id="linear-gradient-7" x1="559.43" y1="299.38" x2="864.74" y2="299.38" gradientUnits="userSpaceOnUse">
      <stop offset="0" stop-color="#6482ff"/>
      <stop offset="1" stop-color="#645aff" stop-opacity=".8"/>
    </linearGradient>
    <linearGradient id="linear-gradient-8" x1="593.92" y1="299.38" x2="899.23" y2="299.38" gradientUnits="userSpaceOnUse">
      <stop offset="0" stop-color="#5315b7"/>
      <stop offset="1" stop-color="#173cb4" stop-opacity="0"/>
    </linearGradient>
    <linearGradient id="linear-gradient-9" x1="314.23" y1="158.72" x2="619.54" y2="158.72" gradientUnits="userSpaceOnUse">
      <stop offset="0" stop-color="#f6a5ac" stop-opacity=".8"/>
      <stop offset="1" stop-color="#f641ac"/>
    </linearGradient>
    <linearGradient id="linear-gradient-10" x1="559.43" y1="586.16" x2="864.74" y2="586.16" gradientUnits="userSpaceOnUse">
      <stop offset="0" stop-color="#22c3fd" stop-opacity=".8"/>
      <stop offset="1" stop-color="#226afd"/>
    </linearGradient>
    <linearGradient id="linear-gradient-11" x1="592.02" y1="586.16" x2="897.32" y2="586.16" gradientUnits="userSpaceOnUse">
      <stop offset="0" stop-color="#1518b7"/>
      <stop offset="1" stop-color="#173cb4" stop-opacity="0"/>
    </linearGradient>
    <linearGradient id="linear-gradient-12" x1="278.63" y1="158.72" x2="583.94" y2="158.72" gradientUnits="userSpaceOnUse">
      <stop offset=".43" stop-color="#173cb4" stop-opacity="0"/>
      <stop offset="1" stop-color="#8018b7"/>
    </linearGradient>
    <linearGradient id="linear-gradient-13" x1="197.61" y1="795.83" x2="198.28" y2="795.83" gradientTransform="translate(-68133.02 113651.27) scale(349.05 -142.43)" xlink:href="#linear-gradient-8"/>
    <linearGradient id="linear-gradient-14" x1="197.15" y1="796.1" x2="196.54" y2="796.1" gradientTransform="translate(-68498.12 113548.47) scale(349.05 -142.43)" gradientUnits="userSpaceOnUse">
      <stop offset="0" stop-color="#8018b7"/>
      <stop offset="1" stop-color="#173cb4" stop-opacity="0"/>
    </linearGradient>
    <linearGradient id="linear-gradient-15" x1="197.58" y1="795.25" x2="198.27" y2="795.26" gradientTransform="translate(-68133.02 113855.27) scale(349.05 -142.43)" xlink:href="#linear-gradient-11"/>
    <linearGradient id="linear-gradient-16" x1="198.14" y1="798.53" x2="196.74" y2="798.56" gradientTransform="translate(64322.83 -80188.92) rotate(-180) scale(324.11 -101.28)" gradientUnits="userSpaceOnUse">
      <stop offset="0" stop-color="#1518b7" stop-opacity="0"/>
      <stop offset="1" stop-color="#5115b7" stop-opacity=".97"/>
      <stop offset="1" stop-color="#5315b7"/>
    </linearGradient>
  </defs>
  <g id="Rectangle_2235" data-name="Rectangle 2235">
    <rect class="cls-1" x="446.62" y="93.85" width="293.94" height="576.66" rx="95.57" ry="95.57"/>
    <rect class="cls-18" x="447.31" y="94.54" width="292.55" height="575.28" rx="94.87" ry="94.87"/>
  </g>
  <path id="Path_84773" data-name="Path 84773" class="cls-10" d="m435.48,782.02h96.52c3.89,0,7.49-2.08,9.44-5.45l48.26-83.58c1.95-3.37,1.95-7.53,0-10.9l-48.26-83.59c-1.95-3.37-5.54-5.45-9.44-5.45h-96.52c-3.89,0-7.49,2.08-9.44,5.45l-48.26,83.59c-1.95,3.37-1.95,7.53,0,10.9l48.26,83.58c1.95,3.37,5.54,5.45,9.44,5.45Z"/>
  <path id="Path_84773-2" data-name="Path 84773" class="cls-11" d="m403.33,782.02h97c3.74,0,7.2-2,9.07-5.24l48.5-84c1.87-3.24,1.87-7.24,0-10.48l-48.5-84.01c-1.87-3.24-5.33-5.24-9.08-5.24h-97c-3.74,0-7.2,2-9.08,5.24l-48.5,84.01c-1.87,3.24-1.87,7.24,0,10.48l48.5,84c1.87,3.24,5.33,5.24,9.07,5.24Z"/>
  <path class="cls-9" d="m538.04,308.17h-142.65c-3.57,0-6.87,1.91-8.66,5l-71.33,123.54c-1.79,3.09-1.79,6.91,0,10l71.33,123.54c1.79,3.09,5.09,5,8.66,5h142.65c3.57,0,6.87-1.91,8.66-5l71.33-123.54c1.79-3.09,1.79-6.91,0-10l-71.33-123.54c-1.79-3.09-5.09-5-8.66-5Z"/>
  <path class="cls-15" d="m503.83,308.17h-142.65c-3.57,0-6.87,1.91-8.66,5l-71.33,123.54c-1.79,3.09-1.79,6.91,0,10l71.33,123.54c1.79,3.09,5.09,5,8.66,5h142.65c3.57,0,6.87-1.91,8.66-5l71.33-123.54c1.79-3.09,1.79-6.91,0-10l-71.33-123.54c-1.79-3.09-5.09-5-8.66-5Z"/>
  <path id="Union_4" data-name="Union 4" class="cls-16" d="m582.94,448.36l-49.31,85.9c-2.22,3.86-6.32,6.24-10.77,6.24H115.46c-6.86,0-12.42-5.56-12.42-12.42v-172.42c0-6.86,5.56-12.42,12.42-12.42h407.38c4.46,0,8.58,2.39,10.79,6.27l49.33,86.52c2.18,3.83,2.17,8.52-.02,12.34Z"/>
  <g>
    <path class="cls-17" d="m201.5,401.05h4.85l8.15,23.12h-4.88l-1.55-4.92h-8.34l-1.52,4.92h-4.75l8.05-23.12Zm-.68,14.61h6.11l-2.07-6.66c-.39-1.23-.94-3.56-.94-3.56h-.06s-.58,2.33-.97,3.56l-2.07,6.66Z"/>
    <path class="cls-17" d="m214.63,415.89c0-4.95,3.23-8.76,8.28-8.76,4.3,0,6.95,2.49,7.53,6.08h-4.3c-.29-1.46-1.42-2.55-3.04-2.55-2.65,0-4.01,2.04-4.01,5.24s1.26,5.24,3.94,5.24c1.78,0,3.04-.94,3.33-2.81h4.24c-.29,3.52-3.04,6.34-7.47,6.34-5.24,0-8.5-3.82-8.5-8.76Z"/>
    <path class="cls-17" d="m231.7,415.89c0-4.95,3.23-8.76,8.28-8.76,4.3,0,6.95,2.49,7.53,6.08h-4.3c-.29-1.46-1.42-2.55-3.04-2.55-2.65,0-4.01,2.04-4.01,5.24s1.26,5.24,3.94,5.24c1.78,0,3.04-.94,3.33-2.81h4.24c-.29,3.52-3.04,6.34-7.47,6.34-5.24,0-8.5-3.82-8.5-8.76Z"/>
    <path class="cls-17" d="m248.77,415.86c0-4.92,3.33-8.73,8.18-8.73,5.34,0,8.18,4.07,8.18,9.99h-12.03c.32,2.55,1.75,4.14,4.24,4.14,1.71,0,2.72-.78,3.2-2.04h4.33c-.61,2.94-3.23,5.43-7.5,5.43-5.5,0-8.6-3.85-8.6-8.79Zm4.4-1.78h7.37c-.13-2.1-1.52-3.56-3.52-3.56-2.33,0-3.46,1.39-3.85,3.56Z"/>
    <path class="cls-17" d="m266.14,418.8h4.07c.29,1.91,1.65,2.75,3.62,2.75s3.04-.74,3.04-1.91c0-1.58-2.1-1.75-4.36-2.2-2.97-.58-5.88-1.39-5.88-5.01s2.97-5.3,6.76-5.3c4.36,0,6.79,2.17,7.11,5.5h-3.98c-.19-1.78-1.33-2.42-3.2-2.42-1.71,0-2.85.65-2.85,1.84,0,1.42,2.2,1.55,4.56,2.04,2.78.58,5.85,1.36,5.85,5.24,0,3.33-2.85,5.33-6.98,5.33-4.82,0-7.5-2.33-7.76-5.85Z"/>
    <path class="cls-17" d="m281.82,418.8h4.07c.29,1.91,1.65,2.75,3.62,2.75s3.04-.74,3.04-1.91c0-1.58-2.1-1.75-4.36-2.2-2.97-.58-5.88-1.39-5.88-5.01s2.97-5.3,6.76-5.3c4.36,0,6.79,2.17,7.11,5.5h-3.98c-.19-1.78-1.33-2.42-3.2-2.42-1.71,0-2.85.65-2.85,1.84,0,1.42,2.2,1.55,4.56,2.04,2.78.58,5.85,1.36,5.85,5.24,0,3.33-2.85,5.33-6.98,5.33-4.82,0-7.5-2.33-7.76-5.85Z"/>
    <path class="cls-17" d="m195.13,442.2h6.6l3.27,11.61c.81,2.91,1.46,6.24,1.46,6.24h.06s.61-3.33,1.42-6.24l3.27-11.61h6.69v23.12h-4.37v-13.26c0-1.88.19-4.79.19-4.79h-.06s-.52,2.72-1,4.4l-3.98,13.64h-4.49l-3.88-13.64c-.48-1.68-1-4.4-1-4.4h-.06s.19,2.91.19,4.79v13.26h-4.3v-23.12Z"/>
    <path class="cls-17" d="m231.02,463.48h-.06c-.84,1.26-2.04,2.23-4.88,2.23-3.4,0-5.79-1.78-5.79-5.08,0-3.65,2.97-4.82,6.66-5.33,2.75-.39,4.01-.61,4.01-1.88s-.94-1.97-2.78-1.97c-2.07,0-3.07.74-3.2,2.33h-3.91c.13-2.91,2.3-5.46,7.15-5.46s6.98,2.23,6.98,6.11v8.44c0,1.26.19,2,.58,2.29v.16h-4.24c-.26-.32-.42-1.1-.52-1.84Zm.03-4.01v-2.49c-.78.45-1.97.71-3.07.97-2.3.52-3.43,1.04-3.43,2.59s1.03,2.1,2.59,2.1c2.52,0,3.91-1.55,3.91-3.17Z"/>
    <path class="cls-17" d="m242.27,451h.1c1.13-1.78,2.65-2.72,4.92-2.72,3.43,0,5.72,2.59,5.72,6.21v10.83h-4.4v-10.18c0-1.78-1.03-3.04-2.88-3.04-1.94,0-3.36,1.55-3.36,3.82v9.41h-4.4v-16.59h4.3v2.26Z"/>
    <path class="cls-17" d="m265.65,463.48h-.06c-.84,1.26-2.04,2.23-4.88,2.23-3.4,0-5.79-1.78-5.79-5.08,0-3.65,2.97-4.82,6.66-5.33,2.75-.39,4.01-.61,4.01-1.88s-.94-1.97-2.78-1.97c-2.07,0-3.07.74-3.2,2.33h-3.91c.13-2.91,2.3-5.46,7.15-5.46s6.98,2.23,6.98,6.11v8.44c0,1.26.19,2,.58,2.29v.16h-4.24c-.26-.32-.42-1.1-.52-1.84Zm.03-4.01v-2.49c-.78.45-1.97.71-3.07.97-2.3.52-3.43,1.04-3.43,2.59s1.03,2.1,2.59,2.1c2.52,0,3.91-1.55,3.91-3.17Z"/>
    <path class="cls-17" d="m272.15,465.8h4.36c.36,1.03,1.29,1.84,3.33,1.84,2.49,0,3.69-1.2,3.69-3.46v-1.81h-.1c-.97,1.1-2.23,1.94-4.33,1.94-3.69,0-7.31-2.91-7.31-7.92s2.97-8.12,7.18-8.12c2.07,0,3.59.81,4.59,2.2h.06v-1.75h4.24v15.33c0,2.33-.74,3.91-1.97,5.04-1.39,1.29-3.52,1.88-5.98,1.88-4.53,0-7.31-1.94-7.76-5.17Zm11.61-9.51c0-2.42-1.29-4.49-3.94-4.49-2.23,0-3.72,1.75-3.72,4.53s1.49,4.46,3.75,4.46c2.78,0,3.91-2.04,3.91-4.5Z"/>
    <path class="cls-17" d="m289.9,457.01c0-4.92,3.33-8.73,8.18-8.73,5.34,0,8.18,4.07,8.18,9.99h-12.03c.32,2.55,1.75,4.14,4.24,4.14,1.71,0,2.72-.78,3.2-2.04h4.33c-.61,2.94-3.23,5.43-7.5,5.43-5.5,0-8.6-3.85-8.6-8.79Zm4.4-1.78h7.37c-.13-2.1-1.52-3.56-3.52-3.56-2.33,0-3.46,1.39-3.85,3.56Z"/>
    <path class="cls-17" d="m308.3,448.73h4.24v2.23h.1c.91-1.52,2.52-2.68,4.82-2.68,2.1,0,3.78,1.16,4.59,2.91h.06c1.13-1.81,2.88-2.91,4.98-2.91,3.49,0,5.46,2.26,5.46,5.88v11.16h-4.4v-10.41c0-1.88-.94-2.85-2.55-2.85-1.84,0-2.97,1.42-2.97,3.62v9.64h-4.4v-10.41c0-1.88-.94-2.85-2.55-2.85-1.78,0-2.98,1.42-2.98,3.62v9.64h-4.4v-16.59Z"/>
    <path class="cls-17" d="m334.46,457.01c0-4.92,3.33-8.73,8.18-8.73,5.33,0,8.18,4.07,8.18,9.99h-12.03c.32,2.55,1.75,4.14,4.24,4.14,1.71,0,2.72-.78,3.2-2.04h4.33c-.61,2.94-3.23,5.43-7.5,5.43-5.5,0-8.6-3.85-8.6-8.79Zm4.4-1.78h7.37c-.13-2.1-1.52-3.56-3.52-3.56-2.33,0-3.46,1.39-3.85,3.56Z"/>
    <path class="cls-17" d="m357.16,451h.1c1.13-1.78,2.65-2.72,4.92-2.72,3.43,0,5.72,2.59,5.72,6.21v10.83h-4.4v-10.18c0-1.78-1.03-3.04-2.88-3.04-1.94,0-3.36,1.55-3.36,3.82v9.41h-4.4v-16.59h4.3v2.26Z"/>
    <path class="cls-17" d="m369.31,448.73h2.3v-5.17h4.3v5.17h2.85v2.91h-2.85v8.79c0,1.23.68,1.65,1.65,1.65.55,0,1.29-.03,1.29-.03v3.23s-1,.06-2.75.06c-2.13,0-4.49-.84-4.49-3.98v-9.73h-2.3v-2.91Z"/>
    <path class="cls-17" d="m386.13,455.42h8.76v3.78h-8.76v-3.78Z"/>
    <path class="cls-17" d="m409.57,442.2h4.85l8.15,23.12h-4.88l-1.55-4.92h-8.34l-1.52,4.92h-4.75l8.05-23.12Zm-.68,14.61h6.11l-2.07-6.66c-.39-1.23-.94-3.56-.94-3.56h-.06s-.58,2.33-.97,3.56l-2.07,6.66Z"/>
    <path class="cls-17" d="m424.51,442.2h6.6l3.27,11.61c.81,2.91,1.46,6.24,1.46,6.24h.06s.61-3.33,1.42-6.24l3.27-11.61h6.69v23.12h-4.36v-13.26c0-1.88.19-4.79.19-4.79h-.06s-.52,2.72-1,4.4l-3.98,13.64h-4.49l-3.88-13.64c-.48-1.68-1-4.4-1-4.4h-.06s.19,2.91.19,4.79v13.26h-4.3v-23.12Z"/>
  </g>
  <path class="cls-14" d="m783.41,165.84h-142.65c-3.57,0-6.87,1.91-8.66,5l-71.33,123.54c-1.79,3.09-1.79,6.91,0,10l71.33,123.54c1.79,3.09,5.09,5,8.66,5h142.65c3.57,0,6.87-1.91,8.66-5l71.33-123.54c1.79-3.09,1.79-6.91,0-10l-71.33-123.54c-1.79-3.09-5.09-5-8.66-5Z"/>
  <path class="cls-12" d="m817.9,165.84h-142.65c-3.57,0-6.87,1.91-8.66,5l-71.33,123.54c-1.79,3.09-1.79,6.91,0,10l71.33,123.54c1.79,3.09,5.09,5,8.66,5h142.65c3.57,0,6.87-1.91,8.66-5l71.33-123.54c1.79-3.09,1.79-6.91,0-10l-71.33-123.54c-1.79-3.09-5.09-5-8.66-5Z"/>
  <path class="cls-13" d="m538.21,25.18h-142.65c-3.57,0-6.87,1.91-8.66,5l-71.33,123.54c-1.79,3.09-1.79,6.91,0,10l71.33,123.54c1.79,3.09,5.09,5,8.66,5h142.65c3.57,0,6.87-1.91,8.66-5l71.33-123.54c1.79-3.09,1.79-6.91,0-10l-71.33-123.54c-1.79-3.09-5.09-5-8.66-5Z"/>
  <path class="cls-5" d="m783.41,452.62h-142.65c-3.57,0-6.87,1.91-8.66,5l-71.33,123.54c-1.79,3.09-1.79,6.91,0,10l71.33,123.54c1.79,3.09,5.09,5,8.66,5h142.65c3.57,0,6.87-1.91,8.66-5l71.33-123.54c1.79-3.09,1.79-6.91,0-10l-71.33-123.54c-1.79-3.09-5.09-5-8.66-5Z"/>
  <path class="cls-2" d="m816,452.62h-142.65c-3.57,0-6.87,1.91-8.66,5l-71.33,123.54c-1.79,3.09-1.79,6.91,0,10l71.33,123.54c1.79,3.09,5.09,5,8.66,5h142.65c3.57,0,6.87-1.91,8.66-5l71.33-123.54c1.79-3.09,1.79-6.91,0-10l-71.33-123.54c-1.79-3.09-5.09-5-8.66-5Z"/>
  <path class="cls-3" d="m502.61,25.18h-142.65c-3.57,0-6.87,1.91-8.66,5l-71.33,123.54c-1.79,3.09-1.79,6.91,0,10l71.33,123.54c1.79,3.09,5.09,5,8.66,5h142.65c3.57,0,6.87-1.91,8.66-5l71.33-123.54c1.79-3.09,1.79-6.91,0-10l-71.33-123.54c-1.79-3.09-5.09-5-8.66-5Z"/>
  <path id="Union_2" data-name="Union 2" class="cls-4" d="m594.99,295.3l51.92-90.45c1.46-2.54,4.16-4.1,7.08-4.1h414.12c4.51,0,8.17,3.66,8.17,8.17v180.93c0,4.51-3.66,8.17-8.17,8.17h-414.1c-2.93,0-5.64-1.57-7.1-4.12l-51.94-91.09c-1.33-2.33-1.32-5.18.01-7.5Z"/>
  <g>
    <path class="cls-17" d="m687.22,266.1h10.15c2.68,0,4.69.78,6.05,2.17,1.29,1.33,2.07,3.14,2.07,5.27,0,4.36-2.88,7.31-7.73,7.31h-5.69v8.37h-4.85v-23.12Zm4.85,10.93h4.85c2.46,0,3.75-1.36,3.75-3.46s-1.36-3.4-3.69-3.4h-4.92v6.85Z"/>
    <path class="cls-17" d="m711.7,275.28h.1c1-1.88,2.13-2.85,4.07-2.85.49,0,.78.03,1.04.13v3.85h-.1c-2.88-.29-4.95,1.23-4.95,4.72v8.08h-4.4v-16.59h4.24v2.65Z"/>
    <path class="cls-17" d="m718.81,266.1h4.4v3.94h-4.4v-3.94Zm0,6.53h4.4v16.59h-4.4v-16.59Z"/>
    <path class="cls-17" d="m724.69,272.63h4.46l2.65,8.6c.49,1.58.74,2.65.74,2.65h.06s.23-1.07.71-2.65l2.72-8.6h4.4l-5.79,16.59h-4.2l-5.76-16.59Z"/>
    <path class="cls-17" d="m741.93,266.1h4.4v3.94h-4.4v-3.94Zm0,6.53h4.4v16.59h-4.4v-16.59Z"/>
    <path class="cls-17" d="m749.24,266.1h4.4v23.12h-4.4v-23.12Z"/>
    <path class="cls-17" d="m755.74,280.91c0-4.91,3.33-8.73,8.18-8.73,5.33,0,8.18,4.07,8.18,9.99h-12.03c.32,2.55,1.75,4.14,4.24,4.14,1.71,0,2.72-.78,3.2-2.04h4.33c-.62,2.94-3.23,5.43-7.5,5.43-5.5,0-8.6-3.85-8.6-8.79Zm4.4-1.78h7.37c-.13-2.1-1.52-3.56-3.52-3.56-2.33,0-3.46,1.39-3.85,3.56Z"/>
    <path class="cls-17" d="m773.68,289.7h4.37c.36,1.03,1.29,1.84,3.33,1.84,2.49,0,3.69-1.2,3.69-3.46v-1.81h-.1c-.97,1.1-2.23,1.94-4.33,1.94-3.69,0-7.31-2.91-7.31-7.92s2.97-8.12,7.18-8.12c2.07,0,3.59.81,4.59,2.2h.06v-1.75h4.24v15.33c0,2.33-.74,3.91-1.97,5.04-1.39,1.29-3.52,1.88-5.98,1.88-4.53,0-7.31-1.94-7.76-5.17Zm11.61-9.51c0-2.42-1.29-4.49-3.95-4.49-2.23,0-3.72,1.75-3.72,4.53s1.49,4.46,3.75,4.46c2.78,0,3.91-2.04,3.91-4.49Z"/>
    <path class="cls-17" d="m791.43,280.91c0-4.91,3.33-8.73,8.18-8.73,5.33,0,8.18,4.07,8.18,9.99h-12.03c.32,2.55,1.75,4.14,4.24,4.14,1.71,0,2.72-.78,3.2-2.04h4.33c-.62,2.94-3.23,5.43-7.5,5.43-5.5,0-8.6-3.85-8.6-8.79Zm4.4-1.78h7.37c-.13-2.1-1.52-3.56-3.52-3.56-2.33,0-3.46,1.39-3.85,3.56Z"/>
    <path class="cls-17" d="m809.02,280.94c0-5.17,2.94-8.76,7.08-8.76,2.33,0,3.78,1.07,4.69,2.46h.1v-8.54h4.4v23.12h-4.24v-2.17h-.06c-.97,1.58-2.62,2.65-4.95,2.65-4.17,0-7.02-3.4-7.02-8.76Zm11.96.1c0-3.17-1.04-5.3-3.85-5.3-2.43,0-3.65,2.13-3.65,5.21s1.26,5.08,3.52,5.08c2.62,0,3.98-1.94,3.98-4.98Z"/>
    <path class="cls-17" d="m840.29,266.1h4.85l8.15,23.12h-4.88l-1.55-4.91h-8.34l-1.52,4.91h-4.75l8.05-23.12Zm-.68,14.61h6.11l-2.07-6.66c-.39-1.23-.94-3.56-.94-3.56h-.06s-.58,2.33-.97,3.56l-2.07,6.66Z"/>
    <path class="cls-17" d="m853.42,280.94c0-4.95,3.23-8.76,8.28-8.76,4.3,0,6.95,2.49,7.53,6.08h-4.3c-.29-1.46-1.42-2.55-3.04-2.55-2.65,0-4.01,2.04-4.01,5.24s1.26,5.24,3.95,5.24c1.78,0,3.04-.94,3.33-2.81h4.24c-.29,3.52-3.04,6.34-7.47,6.34-5.24,0-8.5-3.82-8.5-8.76Z"/>
    <path class="cls-17" d="m870.49,280.94c0-4.95,3.23-8.76,8.28-8.76,4.3,0,6.95,2.49,7.53,6.08h-4.3c-.29-1.46-1.42-2.55-3.04-2.55-2.65,0-4.01,2.04-4.01,5.24s1.26,5.24,3.95,5.24c1.78,0,3.04-.94,3.33-2.81h4.24c-.29,3.52-3.04,6.34-7.47,6.34-5.24,0-8.5-3.82-8.5-8.76Z"/>
    <path class="cls-17" d="m887.56,280.91c0-4.91,3.33-8.73,8.18-8.73,5.33,0,8.18,4.07,8.18,9.99h-12.03c.32,2.55,1.75,4.14,4.24,4.14,1.71,0,2.72-.78,3.2-2.04h4.33c-.62,2.94-3.23,5.43-7.5,5.43-5.5,0-8.6-3.85-8.6-8.79Zm4.4-1.78h7.37c-.13-2.1-1.52-3.56-3.52-3.56-2.33,0-3.46,1.39-3.85,3.56Z"/>
    <path class="cls-17" d="m904.92,283.85h4.07c.29,1.91,1.65,2.75,3.62,2.75s3.04-.74,3.04-1.91c0-1.58-2.1-1.75-4.37-2.2-2.97-.58-5.88-1.39-5.88-5.01s2.97-5.3,6.76-5.3c4.37,0,6.79,2.17,7.11,5.5h-3.98c-.19-1.78-1.33-2.42-3.2-2.42-1.71,0-2.85.65-2.85,1.84,0,1.42,2.2,1.55,4.56,2.04,2.78.58,5.85,1.36,5.85,5.24,0,3.33-2.84,5.33-6.98,5.33-4.82,0-7.5-2.33-7.76-5.85Z"/>
    <path class="cls-17" d="m920.61,283.85h4.07c.29,1.91,1.65,2.75,3.62,2.75s3.04-.74,3.04-1.91c0-1.58-2.1-1.75-4.37-2.2-2.97-.58-5.88-1.39-5.88-5.01s2.97-5.3,6.76-5.3c4.37,0,6.79,2.17,7.11,5.5h-3.98c-.19-1.78-1.33-2.42-3.2-2.42-1.71,0-2.85.65-2.85,1.84,0,1.42,2.2,1.55,4.56,2.04,2.78.58,5.85,1.36,5.85,5.24,0,3.33-2.84,5.33-6.98,5.33-4.82,0-7.5-2.33-7.76-5.85Z"/>
    <path class="cls-17" d="m687.22,307.25h6.6l3.27,11.61c.81,2.91,1.46,6.24,1.46,6.24h.07s.61-3.33,1.42-6.24l3.27-11.61h6.69v23.12h-4.37v-13.26c0-1.88.19-4.79.19-4.79h-.06s-.52,2.72-1,4.4l-3.98,13.64h-4.49l-3.88-13.64c-.49-1.68-1-4.4-1-4.4h-.06s.19,2.91.19,4.79v13.26h-4.3v-23.12Z"/>
    <path class="cls-17" d="m723.11,328.53h-.06c-.84,1.26-2.04,2.23-4.88,2.23-3.4,0-5.79-1.78-5.79-5.08,0-3.65,2.97-4.82,6.66-5.33,2.75-.39,4.01-.61,4.01-1.88,0-1.2-.94-1.97-2.78-1.97-2.07,0-3.07.74-3.2,2.33h-3.91c.13-2.91,2.29-5.46,7.15-5.46s6.98,2.23,6.98,6.11v8.44c0,1.26.19,2,.58,2.3v.16h-4.24c-.26-.32-.42-1.1-.52-1.84Zm.03-4.01v-2.49c-.78.45-1.97.71-3.07.97-2.3.52-3.43,1.03-3.43,2.59s1.03,2.1,2.59,2.1c2.52,0,3.91-1.55,3.91-3.17Z"/>
    <path class="cls-17" d="m734.36,316.05h.1c1.13-1.78,2.65-2.72,4.91-2.72,3.43,0,5.72,2.59,5.72,6.21v10.83h-4.4v-10.19c0-1.78-1.04-3.04-2.88-3.04-1.94,0-3.36,1.55-3.36,3.81v9.41h-4.4v-16.59h4.3v2.26Z"/>
    <path class="cls-17" d="m757.74,328.53h-.06c-.84,1.26-2.04,2.23-4.88,2.23-3.4,0-5.79-1.78-5.79-5.08,0-3.65,2.97-4.82,6.66-5.33,2.75-.39,4.01-.61,4.01-1.88,0-1.2-.94-1.97-2.78-1.97-2.07,0-3.07.74-3.2,2.33h-3.91c.13-2.91,2.29-5.46,7.15-5.46s6.98,2.23,6.98,6.11v8.44c0,1.26.19,2,.58,2.3v.16h-4.24c-.26-.32-.42-1.1-.52-1.84Zm.03-4.01v-2.49c-.78.45-1.97.71-3.07.97-2.3.52-3.43,1.03-3.43,2.59s1.03,2.1,2.59,2.1c2.52,0,3.91-1.55,3.91-3.17Z"/>
    <path class="cls-17" d="m764.24,330.85h4.37c.36,1.03,1.29,1.84,3.33,1.84,2.49,0,3.69-1.2,3.69-3.46v-1.81h-.1c-.97,1.1-2.23,1.94-4.33,1.94-3.69,0-7.31-2.91-7.31-7.92s2.97-8.12,7.18-8.12c2.07,0,3.59.81,4.59,2.2h.06v-1.75h4.24v15.33c0,2.33-.74,3.91-1.97,5.04-1.39,1.29-3.52,1.88-5.98,1.88-4.53,0-7.31-1.94-7.76-5.17Zm11.61-9.51c0-2.42-1.29-4.49-3.95-4.49-2.23,0-3.72,1.75-3.72,4.53s1.49,4.46,3.75,4.46c2.78,0,3.91-2.04,3.91-4.49Z"/>
    <path class="cls-17" d="m781.99,322.06c0-4.91,3.33-8.73,8.18-8.73,5.33,0,8.18,4.07,8.18,9.99h-12.03c.32,2.55,1.75,4.14,4.24,4.14,1.71,0,2.72-.78,3.2-2.04h4.33c-.62,2.94-3.23,5.43-7.5,5.43-5.5,0-8.6-3.85-8.6-8.79Zm4.4-1.78h7.37c-.13-2.1-1.52-3.56-3.52-3.56-2.33,0-3.46,1.39-3.85,3.56Z"/>
    <path class="cls-17" d="m800.39,313.78h4.24v2.23h.1c.91-1.52,2.52-2.68,4.82-2.68,2.1,0,3.78,1.16,4.59,2.91h.07c1.13-1.81,2.88-2.91,4.98-2.91,3.49,0,5.46,2.26,5.46,5.88v11.15h-4.4v-10.41c0-1.88-.94-2.85-2.55-2.85-1.84,0-2.97,1.42-2.97,3.62v9.64h-4.4v-10.41c0-1.88-.94-2.85-2.55-2.85-1.78,0-2.97,1.42-2.97,3.62v9.64h-4.4v-16.59Z"/>
    <path class="cls-17" d="m826.55,322.06c0-4.91,3.33-8.73,8.18-8.73,5.33,0,8.18,4.07,8.18,9.99h-12.03c.32,2.55,1.75,4.14,4.24,4.14,1.71,0,2.72-.78,3.2-2.04h4.33c-.62,2.94-3.23,5.43-7.5,5.43-5.5,0-8.6-3.85-8.6-8.79Zm4.4-1.78h7.37c-.13-2.1-1.52-3.56-3.52-3.56-2.33,0-3.46,1.39-3.85,3.56Z"/>
    <path class="cls-17" d="m849.24,316.05h.1c1.13-1.78,2.65-2.72,4.91-2.72,3.43,0,5.72,2.59,5.72,6.21v10.83h-4.4v-10.19c0-1.78-1.04-3.04-2.88-3.04-1.94,0-3.36,1.55-3.36,3.81v9.41h-4.4v-16.59h4.3v2.26Z"/>
    <path class="cls-17" d="m861.4,313.78h2.29v-5.17h4.3v5.17h2.84v2.91h-2.84v8.79c0,1.23.68,1.65,1.65,1.65.55,0,1.29-.03,1.29-.03v3.23s-1,.06-2.75.06c-2.13,0-4.49-.84-4.49-3.98v-9.73h-2.29v-2.91Z"/>
    <path class="cls-17" d="m878.21,320.48h8.76v3.78h-8.76v-3.78Z"/>
    <path class="cls-17" d="m895.29,307.25h10.15c2.68,0,4.69.78,6.05,2.17,1.29,1.33,2.07,3.14,2.07,5.27,0,4.36-2.88,7.31-7.73,7.31h-5.69v8.37h-4.85v-23.12Zm4.85,10.93h4.85c2.46,0,3.75-1.36,3.75-3.46s-1.36-3.4-3.69-3.4h-4.92v6.85Z"/>
    <path class="cls-17" d="m920.15,307.25h4.85l8.15,23.12h-4.88l-1.55-4.91h-8.34l-1.52,4.91h-4.75l8.05-23.12Zm-.68,14.61h6.11l-2.07-6.66c-.39-1.23-.94-3.56-.94-3.56h-.06s-.58,2.33-.97,3.56l-2.07,6.66Z"/>
    <path class="cls-17" d="m935.09,307.25h6.6l3.27,11.61c.81,2.91,1.46,6.24,1.46,6.24h.07s.61-3.33,1.42-6.24l3.27-11.61h6.69v23.12h-4.37v-13.26c0-1.88.19-4.79.19-4.79h-.06s-.52,2.72-1,4.4l-3.98,13.64h-4.49l-3.88-13.64c-.49-1.68-1-4.4-1-4.4h-.06s.19,2.91.19,4.79v13.26h-4.3v-23.12Z"/>
  </g>
  <path id="Union_3" data-name="Union 3" class="cls-8" d="m578.99,166.98l-47.27,82.36c-2.85,4.96-8.13,8.02-13.85,8.02H116.07c-8.82,0-15.97-7.15-15.97-15.97V76.06c0-8.82,7.15-15.97,15.97-15.97h401.76c5.74,0,11.03,3.08,13.88,8.06l47.31,82.97c2.8,4.92,2.8,10.95-.02,15.86Z"/>
  <g>
    <path class="cls-17" d="m195.16,126.46h4.69v23.12h-4.69v-23.12Z"/>
    <path class="cls-17" d="m202.28,141.3c0-5.17,2.94-8.76,7.08-8.76,2.33,0,3.78,1.07,4.69,2.46h.1v-8.54h4.4v23.12h-4.24v-2.17h-.06c-.97,1.58-2.62,2.65-4.95,2.65-4.17,0-7.02-3.4-7.02-8.76Zm11.96.1c0-3.17-1.03-5.3-3.85-5.3-2.42,0-3.65,2.13-3.65,5.21s1.26,5.08,3.52,5.08c2.62,0,3.98-1.94,3.98-4.98Z"/>
    <path class="cls-17" d="m220.58,141.27c0-4.91,3.33-8.73,8.18-8.73,5.33,0,8.18,4.07,8.18,9.99h-12.03c.32,2.55,1.75,4.14,4.24,4.14,1.71,0,2.72-.78,3.2-2.04h4.33c-.61,2.94-3.23,5.43-7.5,5.43-5.5,0-8.6-3.85-8.6-8.79Zm4.4-1.78h7.37c-.13-2.1-1.52-3.56-3.52-3.56-2.33,0-3.46,1.39-3.85,3.56Z"/>
    <path class="cls-17" d="m243.28,135.26h.1c1.13-1.78,2.65-2.72,4.92-2.72,3.43,0,5.72,2.59,5.72,6.21v10.83h-4.4v-10.19c0-1.78-1.03-3.04-2.88-3.04-1.94,0-3.36,1.55-3.36,3.81v9.41h-4.4v-16.59h4.3v2.26Z"/>
    <path class="cls-17" d="m255.43,132.99h2.3v-5.17h4.3v5.17h2.85v2.91h-2.85v8.79c0,1.23.68,1.65,1.65,1.65.55,0,1.29-.03,1.29-.03v3.23s-1,.06-2.75.06c-2.13,0-4.49-.84-4.49-3.98v-9.73h-2.3v-2.91Z"/>
    <path class="cls-17" d="m267.14,126.46h4.4v3.94h-4.4v-3.94Zm0,6.53h4.4v16.59h-4.4v-16.59Z"/>
    <path class="cls-17" d="m273.41,132.99h2.3v-5.17h4.3v5.17h2.85v2.91h-2.85v8.79c0,1.23.68,1.65,1.65,1.65.55,0,1.29-.03,1.29-.03v3.23s-1,.06-2.75.06c-2.13,0-4.49-.84-4.49-3.98v-9.73h-2.3v-2.91Z"/>
    <path class="cls-17" d="m285.79,151.55h1.55c1.75,0,2.46-.91,2.46-2.26,0-.91-.32-1.97-1.26-4.49l-4.46-11.8h4.62l2.46,7.47c.52,1.52,1.07,3.62,1.07,3.62h.06s.45-2.1.97-3.62l2.33-7.47h4.43l-5.79,17.01c-1.26,3.69-2.49,5.01-5.85,5.01h-2.59v-3.46Z"/>
    <path class="cls-17" d="m324.08,146.48h-.06c-1.58,2.65-3.75,3.59-6.5,3.59-3.49,0-6.21-1.26-8.12-3.36-1.91-2.13-3.01-5.11-3.01-8.6,0-3.85,1.36-7.21,3.78-9.44,1.88-1.71,4.33-2.65,7.44-2.65,5.82,0,9.15,3.2,9.89,7.73h-4.59c-.52-2.23-2.23-3.85-5.21-3.85-4.36,0-6.53,3.62-6.53,8.21s2.49,8.18,6.47,8.18c3.59,0,5.95-2.68,5.95-5.24v-.13h-5.56v-3.62h9.73v12.29h-3.52l-.16-3.1Z"/>
    <path class="cls-17" d="m329.86,141.3c0-4.95,3.52-8.76,8.67-8.76s8.67,3.82,8.67,8.76-3.52,8.76-8.67,8.76-8.67-3.82-8.67-8.76Zm12.87,0c0-3.23-1.52-5.43-4.2-5.43s-4.2,2.2-4.2,5.43,1.49,5.4,4.2,5.4,4.2-2.17,4.2-5.4Z"/>
    <path class="cls-17" d="m347.39,132.99h4.46l2.65,8.6c.48,1.58.74,2.65.74,2.65h.06s.23-1.07.71-2.65l2.72-8.6h4.4l-5.79,16.59h-4.2l-5.76-16.59Z"/>
    <path class="cls-17" d="m363.33,141.27c0-4.91,3.33-8.73,8.18-8.73,5.33,0,8.18,4.07,8.18,9.99h-12.03c.32,2.55,1.75,4.14,4.24,4.14,1.71,0,2.72-.78,3.2-2.04h4.33c-.61,2.94-3.23,5.43-7.5,5.43-5.5,0-8.6-3.85-8.6-8.79Zm4.4-1.78h7.37c-.13-2.1-1.52-3.56-3.52-3.56-2.33,0-3.46,1.39-3.85,3.56Z"/>
    <path class="cls-17" d="m385.96,135.65h.1c1-1.88,2.13-2.85,4.07-2.85.49,0,.78.03,1.04.13v3.85h-.1c-2.88-.29-4.95,1.23-4.95,4.72v8.08h-4.4v-16.59h4.24v2.65Z"/>
    <path class="cls-17" d="m397.38,135.26h.1c1.13-1.78,2.65-2.72,4.92-2.72,3.43,0,5.72,2.59,5.72,6.21v10.83h-4.4v-10.19c0-1.78-1.03-3.04-2.88-3.04-1.94,0-3.36,1.55-3.36,3.81v9.41h-4.4v-16.59h4.3v2.26Z"/>
    <path class="cls-17" d="m420.75,147.74h-.06c-.84,1.26-2.04,2.23-4.88,2.23-3.4,0-5.79-1.78-5.79-5.08,0-3.65,2.97-4.82,6.66-5.33,2.75-.39,4.01-.61,4.01-1.88s-.94-1.97-2.78-1.97c-2.07,0-3.07.74-3.2,2.33h-3.91c.13-2.91,2.3-5.46,7.15-5.46s6.98,2.23,6.98,6.11v8.44c0,1.26.19,2,.58,2.3v.16h-4.24c-.26-.32-.42-1.1-.52-1.84Zm.03-4.01v-2.49c-.78.45-1.97.71-3.07.97-2.3.52-3.43,1.03-3.43,2.59s1.03,2.1,2.59,2.1c2.52,0,3.91-1.55,3.91-3.17Z"/>
    <path class="cls-17" d="m432.01,135.26h.1c1.13-1.78,2.65-2.72,4.92-2.72,3.43,0,5.72,2.59,5.72,6.21v10.83h-4.4v-10.19c0-1.78-1.03-3.04-2.88-3.04-1.94,0-3.36,1.55-3.36,3.81v9.41h-4.4v-16.59h4.3v2.26Z"/>
    <path class="cls-17" d="m444.65,141.3c0-4.95,3.23-8.76,8.28-8.76,4.3,0,6.95,2.49,7.53,6.08h-4.3c-.29-1.46-1.42-2.55-3.04-2.55-2.65,0-4.01,2.04-4.01,5.24s1.26,5.24,3.94,5.24c1.78,0,3.04-.94,3.33-2.81h4.24c-.29,3.52-3.04,6.34-7.47,6.34-5.24,0-8.5-3.82-8.5-8.76Z"/>
    <path class="cls-17" d="m461.72,141.27c0-4.91,3.33-8.73,8.18-8.73,5.33,0,8.18,4.07,8.18,9.99h-12.03c.32,2.55,1.75,4.14,4.24,4.14,1.71,0,2.72-.78,3.2-2.04h4.33c-.61,2.94-3.23,5.43-7.5,5.43-5.5,0-8.6-3.85-8.6-8.79Zm4.4-1.78h7.37c-.13-2.1-1.52-3.56-3.52-3.56-2.33,0-3.46,1.39-3.85,3.56Z"/>
    <path class="cls-17" d="m193.97,184.79c0-3.3,2.1-5.37,5.11-6.89-1.33-1.62-1.94-2.91-1.94-4.79,0-3.01,2.39-5.33,5.98-5.33s6.05,2.13,6.05,5.3c0,2.85-1.65,4.27-4.14,5.56l3.07,3.98c.45-1.16.78-2.49.91-3.75h3.91c-.19,2.59-.94,5.08-2.2,7.15l3.65,4.72h-5.37l-1.2-1.52c-1.71,1.26-3.82,2-6.14,2-5.08,0-7.7-2.81-7.7-6.43Zm11.54,1.46l-4.24-5.53c-1.97,1.2-2.65,2.49-2.65,3.94,0,1.75,1.39,2.94,3.2,2.94,1.39,0,2.65-.49,3.69-1.36Zm-2.46-10.09c1.52-.91,1.94-1.91,1.94-3.01s-.84-1.84-1.81-1.84c-1.03,0-1.81.78-1.81,1.88,0,1.03.71,2.04,1.68,2.97Z"/>
    <path class="cls-17" d="m228.14,167.62h4.85l8.15,23.12h-4.88l-1.55-4.91h-8.34l-1.52,4.91h-4.75l8.05-23.12Zm-.68,14.61h6.11l-2.07-6.66c-.39-1.23-.94-3.56-.94-3.56h-.06s-.58,2.33-.97,3.56l-2.07,6.66Z"/>
    <path class="cls-17" d="m241.27,182.46c0-5.17,2.94-8.76,7.08-8.76,2.33,0,3.78,1.07,4.69,2.46h.1v-8.54h4.4v23.12h-4.24v-2.17h-.06c-.97,1.58-2.62,2.65-4.95,2.65-4.17,0-7.02-3.4-7.02-8.76Zm11.96.1c0-3.17-1.03-5.3-3.85-5.3-2.42,0-3.65,2.13-3.65,5.21s1.26,5.08,3.52,5.08c2.62,0,3.98-1.94,3.98-4.98Z"/>
    <path class="cls-17" d="m260.38,174.15h4.24v2.23h.1c.91-1.52,2.52-2.68,4.82-2.68,2.1,0,3.78,1.16,4.59,2.91h.06c1.13-1.81,2.88-2.91,4.98-2.91,3.49,0,5.46,2.26,5.46,5.88v11.15h-4.4v-10.41c0-1.88-.94-2.85-2.55-2.85-1.84,0-2.97,1.42-2.97,3.62v9.64h-4.4v-10.41c0-1.88-.94-2.85-2.55-2.85-1.78,0-2.98,1.42-2.98,3.62v9.64h-4.4v-16.59Z"/>
    <path class="cls-17" d="m287.35,167.62h4.4v3.94h-4.4v-3.94Zm0,6.53h4.4v16.59h-4.4v-16.59Z"/>
    <path class="cls-17" d="m298.89,176.41h.1c1.13-1.78,2.65-2.72,4.92-2.72,3.43,0,5.72,2.59,5.72,6.21v10.83h-4.4v-10.19c0-1.78-1.03-3.04-2.88-3.04-1.94,0-3.36,1.55-3.36,3.81v9.41h-4.4v-16.59h4.3v2.26Z"/>
    <path class="cls-17" d="m312.34,167.62h4.4v3.94h-4.4v-3.94Zm0,6.53h4.4v16.59h-4.4v-16.59Z"/>
    <path class="cls-17" d="m318.55,185.37h4.07c.29,1.91,1.65,2.75,3.62,2.75s3.04-.74,3.04-1.91c0-1.58-2.1-1.75-4.36-2.2-2.97-.58-5.88-1.39-5.88-5.01s2.97-5.3,6.76-5.3c4.36,0,6.79,2.17,7.11,5.5h-3.98c-.19-1.78-1.33-2.43-3.2-2.43-1.71,0-2.85.65-2.85,1.84,0,1.42,2.2,1.55,4.56,2.04,2.78.58,5.85,1.36,5.85,5.24,0,3.33-2.85,5.33-6.98,5.33-4.82,0-7.5-2.33-7.76-5.85Z"/>
    <path class="cls-17" d="m333.97,174.15h2.3v-5.17h4.3v5.17h2.85v2.91h-2.85v8.79c0,1.23.68,1.65,1.65,1.65.55,0,1.29-.03,1.29-.03v3.23s-1,.06-2.75.06c-2.13,0-4.49-.84-4.49-3.98v-9.73h-2.3v-2.91Z"/>
    <path class="cls-17" d="m349.91,176.8h.1c1-1.88,2.13-2.85,4.07-2.85.49,0,.78.03,1.04.13v3.85h-.1c-2.88-.29-4.95,1.23-4.95,4.72v8.08h-4.4v-16.59h4.24v2.65Z"/>
    <path class="cls-17" d="m366.47,188.89h-.06c-.84,1.26-2.04,2.23-4.88,2.23-3.4,0-5.79-1.78-5.79-5.08,0-3.65,2.97-4.82,6.66-5.33,2.75-.39,4.01-.61,4.01-1.88,0-1.2-.94-1.97-2.78-1.97-2.07,0-3.07.74-3.2,2.33h-3.91c.13-2.91,2.3-5.46,7.15-5.46s6.98,2.23,6.98,6.11v8.44c0,1.26.19,2,.58,2.3v.16h-4.24c-.26-.32-.42-1.1-.52-1.84Zm.03-4.01v-2.49c-.78.45-1.97.71-3.07.97-2.3.52-3.43,1.03-3.43,2.59s1.03,2.1,2.59,2.1c2.52,0,3.91-1.55,3.91-3.17Z"/>
    <path class="cls-17" d="m372.13,174.15h2.3v-5.17h4.3v5.17h2.85v2.91h-2.85v8.79c0,1.23.68,1.65,1.65,1.65.55,0,1.29-.03,1.29-.03v3.23s-1,.06-2.75.06c-2.13,0-4.49-.84-4.49-3.98v-9.73h-2.3v-2.91Z"/>
    <path class="cls-17" d="m383.83,167.62h4.4v3.94h-4.4v-3.94Zm0,6.53h4.4v16.59h-4.4v-16.59Z"/>
    <path class="cls-17" d="m390.26,182.46c0-4.95,3.52-8.76,8.67-8.76s8.67,3.82,8.67,8.76-3.52,8.76-8.67,8.76-8.67-3.82-8.67-8.76Zm12.87,0c0-3.23-1.52-5.43-4.2-5.43s-4.2,2.2-4.2,5.43,1.49,5.4,4.2,5.4,4.2-2.17,4.2-5.4Z"/>
    <path class="cls-17" d="m413.93,176.41h.1c1.13-1.78,2.65-2.72,4.92-2.72,3.43,0,5.72,2.59,5.72,6.21v10.83h-4.4v-10.19c0-1.78-1.03-3.04-2.88-3.04-1.94,0-3.36,1.55-3.36,3.81v9.41h-4.4v-16.59h4.3v2.26Z"/>
    <path class="cls-17" d="m432.49,180.84h8.76v3.78h-8.76v-3.78Z"/>
    <path class="cls-17" d="m449.6,167.62h4.69v23.12h-4.69v-23.12Z"/>
    <path class="cls-17" d="m474.66,187.63h-.06c-1.58,2.65-3.75,3.59-6.5,3.59-3.49,0-6.21-1.26-8.12-3.36-1.91-2.13-3.01-5.11-3.01-8.6,0-3.85,1.36-7.21,3.78-9.44,1.88-1.71,4.33-2.65,7.44-2.65,5.82,0,9.15,3.2,9.89,7.73h-4.59c-.52-2.23-2.23-3.85-5.21-3.85-4.36,0-6.53,3.62-6.53,8.21s2.49,8.18,6.47,8.18c3.59,0,5.95-2.68,5.95-5.24v-.13h-5.56v-3.62h9.73v12.29h-3.52l-.16-3.1Z"/>
    <path class="cls-17" d="m487.98,167.62h4.85l8.15,23.12h-4.88l-1.55-4.91h-8.34l-1.52,4.91h-4.75l8.05-23.12Zm-.68,14.61h6.11l-2.07-6.66c-.39-1.23-.94-3.56-.94-3.56h-.06s-.58,2.33-.97,3.56l-2.07,6.66Z"/>
  </g>
  <path id="Union_1" data-name="Union 1" class="cls-7" d="m595.97,578.41l47.86-83.37c2.67-4.65,7.61-7.51,12.97-7.51h403.4c8.26,0,14.96,6.7,14.96,14.96v167.36c0,8.26-6.7,14.96-14.96,14.96h-403.37c-5.37,0-10.33-2.88-12.99-7.55l-47.89-83.98c-2.63-4.61-2.62-10.26.02-14.85Z"/>
  <g>
    <path class="cls-17" d="m686.22,561.69c0-6.85,4.27-12.09,11.09-12.09,5.69,0,9.05,3.4,9.54,7.79h-4.66c-.42-2.33-2.17-3.85-4.88-3.85-4.27,0-6.3,3.56-6.3,8.15s2.46,8.12,6.34,8.12c2.75,0,4.69-1.65,4.98-4.07h4.59c-.13,2.04-1,4.01-2.55,5.46-1.58,1.49-3.82,2.46-7.02,2.46-6.5,0-11.12-5.01-11.12-11.96Z"/>
    <path class="cls-17" d="m719.45,573.17v-1.94h-.1c-1.13,1.52-2.42,2.39-4.75,2.39-3.69,0-5.76-2.36-5.76-5.98v-11.06h4.37v10.31c0,1.94.87,3.01,2.75,3.01,2.07,0,3.33-1.55,3.33-3.75v-9.57h4.4v16.59h-4.24Z"/>
    <path class="cls-17" d="m725.5,567.81h4.07c.29,1.91,1.65,2.75,3.62,2.75s3.04-.74,3.04-1.91c0-1.58-2.1-1.75-4.37-2.2-2.97-.58-5.88-1.39-5.88-5.01s2.97-5.3,6.76-5.3c4.37,0,6.79,2.17,7.11,5.5h-3.98c-.19-1.78-1.33-2.42-3.2-2.42-1.71,0-2.85.65-2.85,1.84,0,1.42,2.2,1.55,4.56,2.04,2.78.58,5.85,1.36,5.85,5.24,0,3.33-2.84,5.33-6.98,5.33-4.82,0-7.5-2.33-7.76-5.85Z"/>
    <path class="cls-17" d="m740.93,556.59h2.29v-5.17h4.3v5.17h2.84v2.91h-2.84v8.79c0,1.23.68,1.65,1.65,1.65.55,0,1.29-.03,1.29-.03v3.23s-1,.06-2.75.06c-2.13,0-4.49-.84-4.49-3.98v-9.73h-2.29v-2.91Z"/>
    <path class="cls-17" d="m751.66,564.9c0-4.95,3.52-8.76,8.67-8.76s8.67,3.82,8.67,8.76-3.52,8.76-8.67,8.76-8.67-3.82-8.67-8.76Zm12.87,0c0-3.23-1.52-5.43-4.2-5.43s-4.2,2.2-4.2,5.43,1.49,5.4,4.2,5.4,4.2-2.17,4.2-5.4Z"/>
    <path class="cls-17" d="m771.03,556.59h4.24v2.23h.1c.91-1.52,2.52-2.68,4.82-2.68,2.1,0,3.78,1.16,4.59,2.91h.07c1.13-1.81,2.88-2.91,4.98-2.91,3.49,0,5.46,2.26,5.46,5.88v11.16h-4.4v-10.41c0-1.88-.94-2.85-2.55-2.85-1.84,0-2.97,1.42-2.97,3.62v9.64h-4.4v-10.41c0-1.88-.94-2.85-2.55-2.85-1.78,0-2.97,1.42-2.97,3.62v9.64h-4.4v-16.59Z"/>
    <path class="cls-17" d="m797.19,564.86c0-4.92,3.33-8.73,8.18-8.73,5.33,0,8.18,4.07,8.18,9.99h-12.03c.32,2.55,1.75,4.14,4.24,4.14,1.71,0,2.72-.78,3.2-2.04h4.33c-.62,2.94-3.23,5.43-7.5,5.43-5.5,0-8.6-3.85-8.6-8.79Zm4.4-1.78h7.37c-.13-2.1-1.52-3.56-3.52-3.56-2.33,0-3.46,1.39-3.85,3.56Z"/>
    <path class="cls-17" d="m819.82,559.24h.1c1-1.88,2.13-2.85,4.07-2.85.49,0,.78.03,1.04.13v3.85h-.1c-2.88-.29-4.95,1.23-4.95,4.72v8.08h-4.4v-16.59h4.24v2.65Z"/>
    <path class="cls-17" d="m832.75,550.05h4.69v23.12h-4.69v-23.12Z"/>
    <path class="cls-17" d="m839.87,564.9c0-5.17,2.94-8.76,7.08-8.76,2.33,0,3.78,1.07,4.69,2.46h.1v-8.54h4.4v23.12h-4.24v-2.17h-.06c-.97,1.58-2.62,2.65-4.95,2.65-4.17,0-7.02-3.4-7.02-8.76Zm11.96.1c0-3.17-1.04-5.3-3.85-5.3-2.43,0-3.65,2.13-3.65,5.21s1.26,5.08,3.52,5.08c2.62,0,3.98-1.94,3.98-4.98Z"/>
    <path class="cls-17" d="m858.17,564.86c0-4.92,3.33-8.73,8.18-8.73,5.33,0,8.18,4.07,8.18,9.99h-12.03c.32,2.55,1.75,4.14,4.24,4.14,1.71,0,2.72-.78,3.2-2.04h4.33c-.62,2.94-3.23,5.43-7.5,5.43-5.5,0-8.6-3.85-8.6-8.79Zm4.4-1.78h7.37c-.13-2.1-1.52-3.56-3.52-3.56-2.33,0-3.46,1.39-3.85,3.56Z"/>
    <path class="cls-17" d="m880.87,558.85h.1c1.13-1.78,2.65-2.72,4.91-2.72,3.43,0,5.72,2.59,5.72,6.21v10.83h-4.4v-10.18c0-1.78-1.04-3.04-2.88-3.04-1.94,0-3.36,1.55-3.36,3.82v9.41h-4.4v-16.59h4.3v2.26Z"/>
    <path class="cls-17" d="m893.02,556.59h2.29v-5.17h4.3v5.17h2.84v2.91h-2.84v8.79c0,1.23.68,1.65,1.65,1.65.55,0,1.29-.03,1.29-.03v3.23s-1,.06-2.75.06c-2.13,0-4.5-.84-4.5-3.98v-9.73h-2.29v-2.91Z"/>
    <path class="cls-17" d="m904.73,550.05h4.4v3.94h-4.4v-3.94Zm0,6.53h4.4v16.59h-4.4v-16.59Z"/>
    <path class="cls-17" d="m911,556.59h2.29v-5.17h4.3v5.17h2.84v2.91h-2.84v8.79c0,1.23.68,1.65,1.65,1.65.55,0,1.29-.03,1.29-.03v3.23s-1,.06-2.75.06c-2.13,0-4.49-.84-4.49-3.98v-9.73h-2.29v-2.91Z"/>
    <path class="cls-17" d="m923.38,575.15h1.55c1.75,0,2.46-.91,2.46-2.26,0-.91-.32-1.97-1.26-4.49l-4.46-11.8h4.62l2.46,7.47c.52,1.52,1.07,3.62,1.07,3.62h.06s.45-2.1.97-3.62l2.33-7.47h4.43l-5.79,17.01c-1.26,3.69-2.49,5.01-5.85,5.01h-2.59v-3.46Z"/>
    <path class="cls-17" d="m951.26,550.05h4.85l8.15,23.12h-4.88l-1.55-4.92h-8.34l-1.52,4.92h-4.75l8.05-23.12Zm-.68,14.61h6.11l-2.07-6.66c-.39-1.23-.94-3.56-.94-3.56h-.06s-.58,2.33-.97,3.56l-2.07,6.66Z"/>
    <path class="cls-17" d="m964.38,564.9c0-4.95,3.23-8.76,8.28-8.76,4.3,0,6.95,2.49,7.53,6.08h-4.3c-.29-1.46-1.42-2.55-3.04-2.55-2.65,0-4.01,2.04-4.01,5.24s1.26,5.24,3.95,5.24c1.78,0,3.04-.94,3.33-2.81h4.24c-.29,3.52-3.04,6.34-7.47,6.34-5.24,0-8.5-3.82-8.5-8.76Z"/>
    <path class="cls-17" d="m981.46,564.9c0-4.95,3.23-8.76,8.28-8.76,4.3,0,6.95,2.49,7.53,6.08h-4.3c-.29-1.46-1.42-2.55-3.04-2.55-2.65,0-4.01,2.04-4.01,5.24s1.26,5.24,3.95,5.24c1.78,0,3.04-.94,3.33-2.81h4.24c-.29,3.52-3.04,6.34-7.47,6.34-5.24,0-8.5-3.82-8.5-8.76Z"/>
    <path class="cls-17" d="m998.53,564.86c0-4.92,3.33-8.73,8.18-8.73,5.33,0,8.18,4.07,8.18,9.99h-12.03c.32,2.55,1.75,4.14,4.24,4.14,1.71,0,2.72-.78,3.2-2.04h4.33c-.62,2.94-3.23,5.43-7.5,5.43-5.5,0-8.6-3.85-8.6-8.79Zm4.4-1.78h7.37c-.13-2.1-1.52-3.56-3.52-3.56-2.33,0-3.46,1.39-3.85,3.56Z"/>
    <path class="cls-17" d="m1015.89,567.81h4.07c.29,1.91,1.65,2.75,3.62,2.75s3.04-.74,3.04-1.91c0-1.58-2.1-1.75-4.37-2.2-2.97-.58-5.88-1.39-5.88-5.01s2.97-5.3,6.76-5.3c4.37,0,6.79,2.17,7.11,5.5h-3.98c-.19-1.78-1.33-2.42-3.2-2.42-1.71,0-2.85.65-2.85,1.84,0,1.42,2.2,1.55,4.56,2.04,2.78.58,5.85,1.36,5.85,5.24,0,3.33-2.84,5.33-6.98,5.33-4.82,0-7.5-2.33-7.76-5.85Z"/>
    <path class="cls-17" d="m1031.57,567.81h4.07c.29,1.91,1.65,2.75,3.62,2.75s3.04-.74,3.04-1.91c0-1.58-2.1-1.75-4.37-2.2-2.97-.58-5.88-1.39-5.88-5.01s2.97-5.3,6.76-5.3c4.37,0,6.79,2.17,7.11,5.5h-3.98c-.19-1.78-1.33-2.42-3.2-2.42-1.71,0-2.85.65-2.85,1.84,0,1.42,2.2,1.55,4.56,2.04,2.78.58,5.85,1.36,5.85,5.24,0,3.33-2.84,5.33-6.98,5.33-4.82,0-7.5-2.33-7.76-5.85Z"/>
    <path class="cls-17" d="m687.22,591.21h6.6l3.27,11.61c.81,2.91,1.46,6.24,1.46,6.24h.07s.61-3.33,1.42-6.24l3.27-11.61h6.69v23.12h-4.37v-13.26c0-1.88.19-4.79.19-4.79h-.06s-.52,2.72-1,4.4l-3.98,13.64h-4.49l-3.88-13.64c-.49-1.68-1-4.4-1-4.4h-.06s.19,2.91.19,4.79v13.26h-4.3v-23.12Z"/>
    <path class="cls-17" d="m723.11,612.48h-.06c-.84,1.26-2.04,2.23-4.88,2.23-3.4,0-5.79-1.78-5.79-5.08,0-3.65,2.97-4.82,6.66-5.33,2.75-.39,4.01-.61,4.01-1.88s-.94-1.97-2.78-1.97c-2.07,0-3.07.74-3.2,2.33h-3.91c.13-2.91,2.29-5.46,7.15-5.46s6.98,2.23,6.98,6.11v8.44c0,1.26.19,2,.58,2.29v.16h-4.24c-.26-.32-.42-1.1-.52-1.84Zm.03-4.01v-2.49c-.78.45-1.97.71-3.07.97-2.3.52-3.43,1.04-3.43,2.59s1.03,2.1,2.59,2.1c2.52,0,3.91-1.55,3.91-3.17Z"/>
    <path class="cls-17" d="m734.36,600h.1c1.13-1.78,2.65-2.72,4.91-2.72,3.43,0,5.72,2.59,5.72,6.21v10.83h-4.4v-10.18c0-1.78-1.04-3.04-2.88-3.04-1.94,0-3.36,1.55-3.36,3.82v9.41h-4.4v-16.59h4.3v2.26Z"/>
    <path class="cls-17" d="m757.74,612.48h-.06c-.84,1.26-2.04,2.23-4.88,2.23-3.4,0-5.79-1.78-5.79-5.08,0-3.65,2.97-4.82,6.66-5.33,2.75-.39,4.01-.61,4.01-1.88s-.94-1.97-2.78-1.97c-2.07,0-3.07.74-3.2,2.33h-3.91c.13-2.91,2.29-5.46,7.15-5.46s6.98,2.23,6.98,6.11v8.44c0,1.26.19,2,.58,2.29v.16h-4.24c-.26-.32-.42-1.1-.52-1.84Zm.03-4.01v-2.49c-.78.45-1.97.71-3.07.97-2.3.52-3.43,1.04-3.43,2.59s1.03,2.1,2.59,2.1c2.52,0,3.91-1.55,3.91-3.17Z"/>
    <path class="cls-17" d="m764.24,614.81h4.37c.36,1.03,1.29,1.84,3.33,1.84,2.49,0,3.69-1.2,3.69-3.46v-1.81h-.1c-.97,1.1-2.23,1.94-4.33,1.94-3.69,0-7.31-2.91-7.31-7.92s2.97-8.12,7.18-8.12c2.07,0,3.59.81,4.59,2.2h.06v-1.75h4.24v15.33c0,2.33-.74,3.91-1.97,5.04-1.39,1.29-3.52,1.88-5.98,1.88-4.53,0-7.31-1.94-7.76-5.17Zm11.61-9.51c0-2.42-1.29-4.49-3.95-4.49-2.23,0-3.72,1.75-3.72,4.53s1.49,4.46,3.75,4.46c2.78,0,3.91-2.04,3.91-4.5Z"/>
    <path class="cls-17" d="m781.99,606.02c0-4.92,3.33-8.73,8.18-8.73,5.33,0,8.18,4.07,8.18,9.99h-12.03c.32,2.55,1.75,4.14,4.24,4.14,1.71,0,2.72-.78,3.2-2.04h4.33c-.62,2.94-3.23,5.43-7.5,5.43-5.5,0-8.6-3.85-8.6-8.79Zm4.4-1.78h7.37c-.13-2.1-1.52-3.56-3.52-3.56-2.33,0-3.46,1.39-3.85,3.56Z"/>
    <path class="cls-17" d="m800.39,597.74h4.24v2.23h.1c.91-1.52,2.52-2.68,4.82-2.68,2.1,0,3.78,1.16,4.59,2.91h.07c1.13-1.81,2.88-2.91,4.98-2.91,3.49,0,5.46,2.26,5.46,5.88v11.16h-4.4v-10.41c0-1.88-.94-2.85-2.55-2.85-1.84,0-2.97,1.42-2.97,3.62v9.64h-4.4v-10.41c0-1.88-.94-2.85-2.55-2.85-1.78,0-2.97,1.42-2.97,3.62v9.64h-4.4v-16.59Z"/>
    <path class="cls-17" d="m826.55,606.02c0-4.92,3.33-8.73,8.18-8.73,5.33,0,8.18,4.07,8.18,9.99h-12.03c.32,2.55,1.75,4.14,4.24,4.14,1.71,0,2.72-.78,3.2-2.04h4.33c-.62,2.94-3.23,5.43-7.5,5.43-5.5,0-8.6-3.85-8.6-8.79Zm4.4-1.78h7.37c-.13-2.1-1.52-3.56-3.52-3.56-2.33,0-3.46,1.39-3.85,3.56Z"/>
    <path class="cls-17" d="m849.24,600h.1c1.13-1.78,2.65-2.72,4.91-2.72,3.43,0,5.72,2.59,5.72,6.21v10.83h-4.4v-10.18c0-1.78-1.04-3.04-2.88-3.04-1.94,0-3.36,1.55-3.36,3.82v9.41h-4.4v-16.59h4.3v2.26Z"/>
    <path class="cls-17" d="m861.4,597.74h2.29v-5.17h4.3v5.17h2.84v2.91h-2.84v8.79c0,1.23.68,1.65,1.65,1.65.55,0,1.29-.03,1.29-.03v3.23s-1,.06-2.75.06c-2.13,0-4.49-.84-4.49-3.98v-9.73h-2.29v-2.91Z"/>
    <path class="cls-17" d="m878.21,604.43h8.76v3.78h-8.76v-3.78Z"/>
    <path class="cls-17" d="m894.28,602.85c0-6.85,4.27-12.09,11.09-12.09,5.69,0,9.05,3.4,9.54,7.79h-4.66c-.42-2.33-2.17-3.85-4.88-3.85-4.27,0-6.3,3.56-6.3,8.15s2.46,8.12,6.34,8.12c2.75,0,4.69-1.65,4.98-4.07h4.59c-.13,2.04-1,4.01-2.55,5.46-1.58,1.49-3.82,2.46-7.02,2.46-6.5,0-11.12-5.01-11.12-11.96Z"/>
    <path class="cls-17" d="m917.43,591.21h4.69v23.12h-4.69v-23.12Z"/>
    <path class="cls-17" d="m932.08,591.21h4.85l8.15,23.12h-4.88l-1.55-4.92h-8.34l-1.52,4.92h-4.75l8.05-23.12Zm-.68,14.61h6.11l-2.07-6.66c-.39-1.23-.94-3.56-.94-3.56h-.06s-.58,2.33-.97,3.56l-2.07,6.66Z"/>
    <path class="cls-17" d="m947.02,591.21h6.6l3.27,11.61c.81,2.91,1.46,6.24,1.46,6.24h.07s.61-3.33,1.42-6.24l3.27-11.61h6.69v23.12h-4.37v-13.26c0-1.88.19-4.79.19-4.79h-.06s-.52,2.72-1,4.4l-3.98,13.64h-4.49l-3.88-13.64c-.49-1.68-1-4.4-1-4.4h-.06s.19,2.91.19,4.79v13.26h-4.3v-23.12Z"/>
  </g>
  <path id="Path_86224" data-name="Path 86224" class="cls-6" d="m557.78,691.77l-35.87,61.92c-1.42,2.46-4.05,3.97-6.89,3.97H119.17c-4.4,0-7.97-3.57-7.97-7.97v-124.34c0-4.4,3.57-7.97,7.97-7.97h395.29c2.83,0,5.45,1.5,6.88,3.95l36.42,62.42c1.44,2.47,1.45,5.53.01,8.01Z"/>
  <g>
    <path class="cls-17" d="m195.13,673.87h9.02c6.18,0,10.15,4.98,10.15,11.8,0,3.75-1.26,7.05-3.69,9.08-1.71,1.42-3.94,2.23-6.85,2.23h-8.63v-23.12Zm8.31,19.08c4.4,0,6.11-2.68,6.11-7.27s-2-7.79-5.98-7.79h-3.75v15.07h3.62Z"/>
    <path class="cls-17" d="m216.5,673.87h4.4v3.94h-4.4v-3.94Zm0,6.53h4.4v16.59h-4.4v-16.59Z"/>
    <path class="cls-17" d="m227.98,683.05h.1c1-1.88,2.13-2.85,4.07-2.85.48,0,.78.03,1.03.13v3.85h-.1c-2.88-.29-4.95,1.23-4.95,4.72v8.08h-4.4v-16.59h4.24v2.65Z"/>
    <path class="cls-17" d="m233.8,688.68c0-4.92,3.33-8.73,8.18-8.73,5.34,0,8.18,4.07,8.18,9.99h-12.03c.32,2.55,1.75,4.14,4.24,4.14,1.71,0,2.72-.78,3.2-2.04h4.33c-.61,2.94-3.23,5.43-7.5,5.43-5.5,0-8.6-3.85-8.6-8.79Zm4.4-1.78h7.37c-.13-2.1-1.52-3.56-3.52-3.56-2.33,0-3.46,1.39-3.85,3.56Z"/>
    <path class="cls-17" d="m251.39,688.71c0-4.95,3.23-8.76,8.28-8.76,4.3,0,6.95,2.49,7.53,6.08h-4.3c-.29-1.46-1.42-2.55-3.04-2.55-2.65,0-4.01,2.04-4.01,5.24s1.26,5.24,3.94,5.24c1.78,0,3.04-.94,3.33-2.81h4.24c-.29,3.52-3.04,6.34-7.47,6.34-5.24,0-8.5-3.82-8.5-8.76Z"/>
    <path class="cls-17" d="m268.3,680.4h2.3v-5.17h4.3v5.17h2.85v2.91h-2.85v8.79c0,1.23.68,1.65,1.65,1.65.55,0,1.29-.03,1.29-.03v3.23s-1,.06-2.75.06c-2.13,0-4.49-.84-4.49-3.98v-9.73h-2.3v-2.91Z"/>
    <path class="cls-17" d="m279.04,688.71c0-4.95,3.52-8.76,8.67-8.76s8.67,3.82,8.67,8.76-3.52,8.76-8.67,8.76-8.67-3.82-8.67-8.76Zm12.87,0c0-3.23-1.52-5.43-4.2-5.43s-4.2,2.2-4.2,5.43,1.49,5.4,4.2,5.4,4.2-2.17,4.2-5.4Z"/>
    <path class="cls-17" d="m302.64,683.05h.1c1-1.88,2.13-2.85,4.07-2.85.48,0,.78.03,1.03.13v3.85h-.1c-2.88-.29-4.95,1.23-4.95,4.72v8.08h-4.4v-16.59h4.24v2.65Z"/>
    <path class="cls-17" d="m310.27,698.96h1.55c1.75,0,2.46-.91,2.46-2.26,0-.91-.32-1.97-1.26-4.49l-4.46-11.8h4.62l2.46,7.47c.52,1.52,1.07,3.62,1.07,3.62h.06s.45-2.1.97-3.62l2.33-7.47h4.43l-5.79,17.01c-1.26,3.69-2.49,5.01-5.85,5.01h-2.59v-3.46Z"/>
    <path class="cls-17" d="m330.74,689.84h4.59c.32,2.78,1.91,3.88,5.21,3.88,2.39,0,4.49-.84,4.49-2.97,0-2.26-2.2-2.72-5.72-3.52-4.14-.94-7.92-2.04-7.92-6.85,0-4.56,3.72-6.92,8.86-6.92s8.57,2.55,8.92,7.21h-4.49c-.26-2.33-2.07-3.49-4.46-3.49-2.52,0-4.17,1.07-4.17,2.72,0,1.88,1.62,2.42,5.04,3.17,4.75,1.03,8.63,2.17,8.63,7.15,0,4.69-3.78,7.31-8.99,7.31-6.27,0-9.83-2.78-9.99-7.66Z"/>
    <path class="cls-17" d="m351.37,688.68c0-4.92,3.33-8.73,8.18-8.73,5.33,0,8.18,4.07,8.18,9.99h-12.03c.32,2.55,1.75,4.14,4.24,4.14,1.71,0,2.72-.78,3.2-2.04h4.33c-.61,2.94-3.23,5.43-7.5,5.43-5.5,0-8.6-3.85-8.6-8.79Zm4.4-1.78h7.37c-.13-2.1-1.52-3.56-3.52-3.56-2.33,0-3.46,1.39-3.85,3.56Z"/>
    <path class="cls-17" d="m374,683.05h.1c1-1.88,2.13-2.85,4.07-2.85.48,0,.78.03,1.03.13v3.85h-.1c-2.88-.29-4.95,1.23-4.95,4.72v8.08h-4.4v-16.59h4.24v2.65Z"/>
    <path class="cls-17" d="m380.08,680.4h4.46l2.65,8.6c.48,1.58.74,2.65.74,2.65h.06s.23-1.07.71-2.65l2.72-8.6h4.4l-5.79,16.59h-4.2l-5.76-16.59Z"/>
    <path class="cls-17" d="m397.31,673.87h4.4v3.94h-4.4v-3.94Zm0,6.53h4.4v16.59h-4.4v-16.59Z"/>
    <path class="cls-17" d="m403.75,688.71c0-4.95,3.23-8.76,8.28-8.76,4.3,0,6.95,2.49,7.53,6.08h-4.3c-.29-1.46-1.42-2.55-3.04-2.55-2.65,0-4.01,2.04-4.01,5.24s1.26,5.24,3.94,5.24c1.78,0,3.04-.94,3.33-2.81h4.24c-.29,3.52-3.04,6.34-7.47,6.34-5.24,0-8.5-3.82-8.5-8.76Z"/>
    <path class="cls-17" d="m420.82,688.68c0-4.92,3.33-8.73,8.18-8.73,5.34,0,8.18,4.07,8.18,9.99h-12.03c.32,2.55,1.75,4.14,4.24,4.14,1.71,0,2.72-.78,3.2-2.04h4.33c-.61,2.94-3.23,5.43-7.5,5.43-5.5,0-8.6-3.85-8.6-8.79Zm4.4-1.78h7.37c-.13-2.1-1.52-3.56-3.52-3.56-2.33,0-3.46,1.39-3.85,3.56Z"/>
    <path class="cls-17" d="m438.18,691.62h4.07c.29,1.91,1.65,2.75,3.62,2.75s3.04-.74,3.04-1.91c0-1.58-2.1-1.75-4.36-2.2-2.97-.58-5.88-1.39-5.88-5.01s2.97-5.3,6.76-5.3c4.36,0,6.79,2.17,7.11,5.5h-3.98c-.19-1.78-1.33-2.42-3.2-2.42-1.71,0-2.85.65-2.85,1.84,0,1.42,2.2,1.55,4.56,2.04,2.78.58,5.85,1.36,5.85,5.24,0,3.33-2.85,5.33-6.98,5.33-4.82,0-7.5-2.33-7.76-5.85Z"/>
  </g>
</svg>