<?xml version="1.0" encoding="UTF-8"?><svg id="About_us_Outline" xmlns="http://www.w3.org/2000/svg" xmlns:xlink="http://www.w3.org/1999/xlink" viewBox="0 0 1101.8 800"><defs><style>.cls-1,.cls-2{fill:#9900eb;}.cls-1,.cls-2,.cls-3,.cls-4,.cls-5,.cls-6,.cls-7{stroke-width:0px;}.cls-2,.cls-6,.cls-7{opacity:.6;}.cls-3{fill:#fff;}.cls-4{fill:url(#linear-gradient-2);}.cls-5,.cls-7{fill:#211d91;}.cls-6{fill:url(#linear-gradient);}</style><linearGradient id="linear-gradient" x1="809.07" y1="597.49" x2="1100.3" y2="597.49" gradientUnits="userSpaceOnUse"><stop offset="0" stop-color="#009dff"/><stop offset=".62" stop-color="#00a5f6"/><stop offset="1" stop-color="#00adee"/></linearGradient><linearGradient id="linear-gradient-2" x1="108.77" y1="229.61" x2="496.91" y2="229.61" gradientTransform="translate(306.06 872.48) rotate(-90)" xlink:href="#linear-gradient"/></defs><path class="cls-6" d="m1100.3,673.44v-151.9c0-5.02-2.68-9.67-7.03-12.18l-131.55-75.95c-4.35-2.51-9.71-2.51-14.06,0l-131.55,75.95c-4.35,2.51-7.03,7.15-7.03,12.18v151.9c0,5.02,2.68,9.67,7.03,12.18l131.55,75.95c4.35,2.51,9.71,2.51,14.06,0l131.55-75.95c4.35-2.51,7.03-7.15,7.03-12.18Z"/><path class="cls-7" d="m632.85,674.09v-151.9c0-5.02-2.68-9.67-7.03-12.18l-131.55-75.95c-4.35-2.51-9.71-2.51-14.06,0l-131.55,75.95c-4.35,2.51-7.03,7.15-7.03,12.18v151.9c0,5.02,2.68,9.67,7.03,12.18l131.55,75.95c4.35,2.51,9.71,2.51,14.06,0l131.55-75.95c4.35-2.51,7.03-7.15,7.03-12.18Z"/><path class="cls-2" d="m868.14,277.82V125.91c0-5.02-2.68-9.67-7.03-12.18l-131.55-75.95c-4.35-2.51-9.71-2.51-14.06,0l-131.55,75.95c-4.35,2.51-7.03,7.15-7.03,12.18v151.9c0,5.02,2.68,9.67,7.03,12.18l131.55,75.95c4.35,2.51,9.71,2.51,14.06,0l131.55-75.95c4.35-2.51,7.03-7.15,7.03-12.18Z"/><path class="cls-1" d="m552.91,160.59v182.47c0,4.15,2.21,7.98,5.8,10.05l158.02,91.23c3.59,2.07,8.01,2.07,11.6,0l158.02-91.23c3.59-2.07,5.8-5.9,5.8-10.05v-182.47c0-4.15-2.21-7.98-5.8-10.05l-158.02-91.23c-3.59-2.07-8.01-2.07-11.6,0l-158.02,91.23c-3.59,2.07-5.8,5.9-5.8,10.05Z"/><path class="cls-5" d="m737.67,478.41v182.47c0,4.15,2.21,7.98,5.8,10.05l158.02,91.23c3.59,2.07,8.01,2.07,11.6,0l158.02-91.23c3.59-2.07,5.8-5.9,5.8-10.05v-182.47c0-4.15-2.21-7.98-5.8-10.05l-158.02-91.23c-3.59-2.07-8.01-2.07-11.6,0l-158.02,91.23c-3.59,2.07-5.8,5.9-5.8,10.05Z"/><path class="cls-4" d="m366.04,478.41v182.47c0,4.15,2.21,7.98,5.8,10.05l158.02,91.23c3.59,2.07,8.01,2.07,11.6,0l158.02-91.23c3.59-2.07,5.8-5.9,5.8-10.05v-182.47c0-4.15-2.21-7.98-5.8-10.05l-158.02-91.23c-3.59-2.07-8.01-2.07-11.6,0l-158.02,91.23c-3.59,2.07-5.8,5.9-5.8,10.05Z"/><path class="cls-3" d="m650.56,276.04h6.73l7.11,17.34h.3l7.11-17.34h6.73v25.8h-5.29v-16.79h-.21l-6.68,16.67h-3.6l-6.68-16.73h-.21v16.86h-5.29v-25.8Z"/><path class="cls-3" d="m688.44,302.2c-1.24,0-2.33-.22-3.3-.65-.97-.43-1.73-1.07-2.29-1.93s-.84-1.92-.84-3.19c0-1.07.2-1.98.59-2.71.39-.73.93-1.32,1.61-1.76.68-.45,1.46-.78,2.32-1.01.87-.23,1.78-.39,2.74-.48,1.12-.12,2.03-.23,2.72-.33.69-.1,1.19-.26,1.5-.47.31-.21.47-.52.47-.93v-.08c0-.8-.25-1.42-.75-1.85-.5-.44-1.21-.65-2.12-.65-.97,0-1.73.21-2.31.64-.57.42-.95.96-1.13,1.59l-4.96-.4c.25-1.18.75-2.19,1.49-3.06s1.69-1.52,2.87-1.99c1.17-.47,2.53-.7,4.08-.7,1.08,0,2.11.13,3.09.38.99.25,1.87.64,2.63,1.17s1.38,1.21,1.82,2.03.67,1.82.67,2.97v13.05h-5.09v-2.68h-.15c-.31.6-.73,1.14-1.25,1.59-.52.46-1.15.81-1.88,1.07-.73.26-1.58.38-2.53.38Zm1.54-3.7c.79,0,1.49-.16,2.09-.47s1.08-.74,1.42-1.28c.34-.54.52-1.15.52-1.83v-2.05c-.17.11-.4.21-.69.3-.29.09-.62.17-.98.24-.36.07-.72.13-1.08.19s-.69.1-.98.15c-.63.09-1.18.24-1.65.44s-.84.47-1.1.81c-.26.34-.39.76-.39,1.27,0,.73.27,1.29.8,1.67s1.21.57,2.03.57Z"/><path class="cls-3" d="m708.87,290.65v11.19h-5.37v-19.35h5.12v3.41h.23c.43-1.13,1.15-2.02,2.15-2.68s2.23-.99,3.67-.99c1.34,0,2.52.29,3.51.88,1,.59,1.78,1.43,2.33,2.51.55,1.09.83,2.38.83,3.89v12.32h-5.37v-11.36c0-1.18-.29-2.11-.91-2.78-.61-.67-1.46-1-2.53-1-.72,0-1.36.16-1.91.47-.55.31-.98.76-1.28,1.35-.31.59-.46,1.3-.47,2.14Z"/><path class="cls-3" d="m731.08,302.2c-1.24,0-2.33-.22-3.3-.65-.97-.43-1.73-1.07-2.29-1.93s-.84-1.92-.84-3.19c0-1.07.2-1.98.59-2.71.39-.73.93-1.32,1.61-1.76.68-.45,1.46-.78,2.32-1.01.87-.23,1.78-.39,2.74-.48,1.12-.12,2.03-.23,2.72-.33.69-.1,1.19-.26,1.5-.47.31-.21.47-.52.47-.93v-.08c0-.8-.25-1.42-.75-1.85-.5-.44-1.21-.65-2.12-.65-.97,0-1.73.21-2.31.64-.57.42-.95.96-1.13,1.59l-4.96-.4c.25-1.18.75-2.19,1.49-3.06s1.69-1.52,2.87-1.99c1.17-.47,2.53-.7,4.08-.7,1.08,0,2.11.13,3.09.38.99.25,1.87.64,2.63,1.17s1.38,1.21,1.82,2.03.67,1.82.67,2.97v13.05h-5.09v-2.68h-.15c-.31.6-.73,1.14-1.25,1.59-.52.46-1.15.81-1.88,1.07-.73.26-1.58.38-2.53.38Zm1.54-3.7c.79,0,1.49-.16,2.09-.47s1.08-.74,1.42-1.28c.34-.54.52-1.15.52-1.83v-2.05c-.17.11-.4.21-.69.3-.29.09-.62.17-.98.24-.36.07-.72.13-1.08.19s-.69.1-.98.15c-.63.09-1.18.24-1.65.44s-.84.47-1.1.81c-.26.34-.39.76-.39,1.27,0,.73.27,1.29.8,1.67s1.21.57,2.03.57Z"/><path class="cls-3" d="m754.86,309.5c-1.74,0-3.23-.24-4.47-.71s-2.22-1.12-2.95-1.93c-.73-.81-1.21-1.73-1.42-2.75l4.96-.67c.15.39.39.75.72,1.08.33.34.76.61,1.3.81.54.21,1.2.31,1.98.31,1.17,0,2.13-.28,2.89-.85s1.14-1.51,1.14-2.84v-3.54h-.23c-.24.54-.59,1.05-1.06,1.52-.47.48-1.08.87-1.81,1.17-.74.3-1.62.45-2.65.45-1.45,0-2.77-.34-3.96-1.01-1.19-.68-2.13-1.71-2.83-3.11-.7-1.4-1.05-3.17-1.05-5.31s.36-4.02,1.07-5.49,1.67-2.57,2.85-3.3c1.19-.73,2.49-1.1,3.91-1.1,1.08,0,1.99.18,2.72.55.73.37,1.32.82,1.77,1.36.45.54.8,1.07,1.04,1.59h.2v-3.25h5.33v19.54c0,1.65-.4,3.02-1.21,4.13-.81,1.11-1.92,1.94-3.34,2.5s-3.06.84-4.91.84Zm.11-11.97c.87,0,1.6-.22,2.2-.65.6-.43,1.06-1.05,1.39-1.86.32-.81.48-1.78.48-2.92s-.16-2.12-.48-2.95c-.32-.84-.78-1.48-1.39-1.95s-1.34-.69-2.21-.69-1.62.24-2.23.71-1.06,1.13-1.37,1.97-.47,1.81-.47,2.91.16,2.08.47,2.89c.32.81.77,1.44,1.37,1.88s1.34.66,2.22.66Z"/><path class="cls-3" d="m777.43,302.22c-1.99,0-3.7-.41-5.13-1.22-1.43-.81-2.54-1.96-3.31-3.45s-1.16-3.26-1.16-5.3.39-3.74,1.16-5.24,1.86-2.67,3.27-3.51c1.41-.84,3.06-1.26,4.96-1.26,1.28,0,2.47.2,3.57.61s2.07,1.02,2.9,1.83c.83.81,1.47,1.84,1.93,3.07.46,1.23.69,2.67.69,4.31v1.47h-16.34v-3.33h11.29c0-.77-.17-1.46-.5-2.05s-.8-1.06-1.39-1.4c-.59-.34-1.28-.51-2.06-.51s-1.53.19-2.16.56c-.63.37-1.12.87-1.47,1.5-.35.63-.53,1.32-.54,2.08v3.16c0,.96.18,1.78.54,2.48.36.7.86,1.23,1.52,1.61s1.43.57,2.33.57c.6,0,1.14-.08,1.64-.25.5-.17.92-.42,1.27-.76s.62-.75.81-1.23l4.96.33c-.25,1.19-.77,2.23-1.54,3.12-.78.89-1.78,1.57-3,2.07-1.22.49-2.63.74-4.23.74Z"/><path class="cls-3" d="m796.94,302.15c-1.47,0-2.8-.38-3.99-1.14s-2.13-1.88-2.82-3.36c-.69-1.48-1.04-3.3-1.04-5.46s.36-4.06,1.07-5.54c.71-1.47,1.67-2.58,2.85-3.31s2.49-1.1,3.91-1.1c1.08,0,1.99.18,2.71.55s1.31.82,1.76,1.36c.45.54.79,1.07,1.03,1.59h.16v-9.7h5.35v25.8h-5.29v-3.1h-.23c-.25.54-.61,1.07-1.06,1.59-.46.52-1.05.96-1.78,1.3s-1.61.52-2.65.52Zm1.7-4.27c.87,0,1.6-.24,2.2-.71.6-.47,1.06-1.14,1.39-2,.32-.86.48-1.86.48-3.01s-.16-2.15-.48-3c-.32-.85-.78-1.5-1.39-1.97s-1.34-.69-2.21-.69-1.62.24-2.23.72c-.6.48-1.06,1.14-1.37,1.99-.31.85-.47,1.83-.47,2.95s.16,2.12.47,2.98c.32.86.77,1.53,1.37,2.02s1.34.72,2.22.72Z"/><path class="cls-3" d="m706.68,326.03c-.1-1.02-.53-1.81-1.3-2.37-.76-.56-1.8-.84-3.11-.84-.89,0-1.64.12-2.26.37-.61.25-1.08.59-1.4,1.03s-.49.93-.49,1.49c-.02.46.08.87.3,1.21.21.34.51.64.89.89.38.25.81.46,1.31.64.5.18,1.02.33,1.59.46l2.32.55c1.12.25,2.16.59,3.1,1.01s1.76.94,2.44,1.55c.69.61,1.22,1.34,1.61,2.17.38.83.58,1.79.59,2.86,0,1.58-.41,2.95-1.2,4.1s-1.94,2.05-3.43,2.68c-1.49.63-3.29.95-5.39.95s-3.9-.32-5.44-.96-2.74-1.58-3.6-2.84c-.86-1.26-1.31-2.81-1.35-4.67h5.28c.06.87.31,1.59.75,2.16.44.58,1.03,1.01,1.78,1.3.74.29,1.58.43,2.53.43s1.73-.13,2.41-.4c.68-.27,1.22-.64,1.59-1.12.38-.48.57-1.03.57-1.65,0-.58-.17-1.07-.51-1.46-.34-.4-.84-.73-1.49-1.01-.65-.28-1.45-.53-2.39-.76l-2.81-.71c-2.18-.53-3.89-1.36-5.15-2.48s-1.89-2.64-1.88-4.55c0-1.56.41-2.93,1.25-4.09.84-1.17,2-2.08,3.48-2.73,1.48-.65,3.16-.98,5.04-.98s3.59.33,5.02.98c1.43.66,2.55,1.57,3.34,2.73.8,1.17,1.21,2.52,1.24,4.06h-5.23Z"/><path class="cls-3" d="m739.62,331.51c0,2.81-.53,5.21-1.59,7.18-1.06,1.97-2.51,3.48-4.33,4.52-1.83,1.04-3.88,1.56-6.15,1.56s-4.35-.52-6.17-1.56-3.26-2.55-4.32-4.52c-1.06-1.97-1.59-4.36-1.59-7.17s.53-5.21,1.59-7.18c1.06-1.97,2.5-3.48,4.32-4.52,1.82-1.04,3.88-1.56,6.17-1.56s4.33.52,6.15,1.56c1.83,1.04,3.27,2.54,4.33,4.52s1.59,4.37,1.59,7.18Zm-5.53,0c0-1.82-.27-3.36-.81-4.61-.54-1.25-1.3-2.2-2.29-2.85-.98-.65-2.13-.97-3.45-.97s-2.47.32-3.45.97c-.98.65-1.75,1.6-2.29,2.85-.54,1.25-.81,2.79-.81,4.61s.27,3.36.81,4.61c.54,1.25,1.3,2.2,2.29,2.85.98.65,2.13.97,3.45.97s2.47-.32,3.45-.97c.98-.65,1.75-1.6,2.29-2.85.54-1.25.81-2.79.81-4.61Z"/><path class="cls-3" d="m766.42,327.64h-5.52c-.1-.71-.31-1.35-.62-1.91s-.71-1.04-1.2-1.43c-.49-.39-1.05-.7-1.68-.91-.63-.21-1.32-.31-2.06-.31-1.33,0-2.5.33-3.49.99-.99.66-1.76,1.62-2.31,2.87-.55,1.26-.82,2.78-.82,4.57s.28,3.38.83,4.64c.55,1.25,1.32,2.2,2.31,2.83.99.64,2.14.96,3.44.96.73,0,1.41-.1,2.04-.29.62-.19,1.18-.48,1.67-.85.49-.37.89-.83,1.22-1.37.32-.54.55-1.15.67-1.84l5.52.03c-.14,1.18-.5,2.32-1.06,3.42-.57,1.1-1.33,2.07-2.28,2.94-.95.86-2.09,1.54-3.4,2.04s-2.8.75-4.45.75c-2.3,0-4.36-.52-6.17-1.56s-3.24-2.55-4.28-4.52c-1.05-1.97-1.57-4.36-1.57-7.17s.53-5.21,1.59-7.18c1.06-1.97,2.5-3.48,4.31-4.52,1.81-1.04,3.86-1.56,6.12-1.56,1.5,0,2.88.21,4.16.63,1.28.42,2.42,1.03,3.41,1.83.99.8,1.8,1.78,2.43,2.94.62,1.16,1.03,2.49,1.2,3.98Z"/><path class="cls-3" d="m460.74,596.26c-.1-1.02-.53-1.81-1.3-2.37s-1.8-.84-3.11-.84c-.89,0-1.64.12-2.25.37-.61.25-1.08.59-1.4,1.03-.32.44-.48.93-.48,1.49-.02.46.08.87.3,1.21.21.34.51.64.89.89.38.25.81.46,1.31.64s1.02.33,1.59.46l2.32.55c1.12.25,2.16.59,3.1,1.01.94.42,1.76.94,2.44,1.55s1.22,1.33,1.61,2.17c.38.83.58,1.78.59,2.86,0,1.58-.41,2.95-1.2,4.1-.79,1.16-1.94,2.05-3.43,2.68-1.49.63-3.29.95-5.39.95s-3.9-.32-5.44-.96c-1.54-.64-2.74-1.59-3.6-2.84-.86-1.26-1.31-2.81-1.35-4.67h5.28c.06.87.31,1.58.75,2.16.44.58,1.03,1.01,1.78,1.3.74.29,1.58.43,2.53.43s1.73-.13,2.41-.4c.68-.27,1.22-.64,1.59-1.12s.57-1.03.57-1.65c0-.58-.17-1.07-.51-1.46-.34-.39-.84-.73-1.49-1.01s-1.45-.53-2.39-.76l-2.81-.71c-2.18-.53-3.89-1.36-5.15-2.48-1.26-1.13-1.89-2.64-1.88-4.55,0-1.56.41-2.93,1.25-4.09.84-1.17,2.01-2.08,3.48-2.73s3.16-.98,5.04-.98,3.59.33,5.02.98c1.43.66,2.55,1.57,3.35,2.73.8,1.17,1.21,2.52,1.23,4.06h-5.23Z"/><path class="cls-3" d="m493.69,601.74c0,2.81-.53,5.21-1.59,7.18s-2.51,3.48-4.33,4.52-3.88,1.56-6.15,1.56-4.35-.52-6.17-1.56c-1.82-1.04-3.26-2.55-4.32-4.52-1.06-1.97-1.59-4.36-1.59-7.17s.53-5.21,1.59-7.18c1.06-1.97,2.5-3.48,4.32-4.52,1.82-1.04,3.88-1.56,6.17-1.56s4.33.52,6.15,1.56,3.27,2.54,4.33,4.52c1.06,1.97,1.59,4.37,1.59,7.18Zm-5.53,0c0-1.82-.27-3.36-.81-4.61-.54-1.25-1.3-2.2-2.29-2.85-.98-.65-2.13-.97-3.45-.97s-2.47.32-3.45.97c-.98.65-1.75,1.6-2.29,2.85-.54,1.25-.81,2.79-.81,4.61s.27,3.36.81,4.61c.54,1.25,1.3,2.2,2.29,2.85.98.65,2.13.97,3.45.97s2.47-.32,3.45-.97c.98-.65,1.74-1.6,2.29-2.85.54-1.25.81-2.79.81-4.61Z"/><path class="cls-3" d="m520.48,597.88h-5.52c-.1-.71-.31-1.35-.62-1.91s-.71-1.04-1.2-1.43c-.49-.39-1.05-.7-1.68-.91-.63-.21-1.32-.32-2.06-.32-1.33,0-2.5.33-3.49.99s-1.76,1.62-2.31,2.87c-.55,1.26-.82,2.78-.82,4.57s.28,3.38.83,4.64c.55,1.25,1.32,2.2,2.31,2.83.99.64,2.14.96,3.44.96.73,0,1.41-.1,2.04-.29.62-.19,1.18-.48,1.67-.85s.89-.83,1.22-1.37c.32-.54.55-1.15.67-1.84l5.52.02c-.14,1.18-.5,2.33-1.06,3.42-.57,1.1-1.33,2.07-2.28,2.94-.95.86-2.09,1.54-3.4,2.04-1.31.5-2.8.75-4.45.75-2.3,0-4.36-.52-6.17-1.56-1.81-1.04-3.24-2.55-4.28-4.52s-1.57-4.36-1.57-7.17.53-5.21,1.59-7.18c1.06-1.97,2.49-3.48,4.31-4.52,1.81-1.04,3.85-1.56,6.12-1.56,1.5,0,2.88.21,4.16.63,1.28.42,2.42,1.03,3.41,1.83.99.8,1.8,1.78,2.43,2.94.62,1.16,1.03,2.49,1.2,3.98Z"/><path class="cls-3" d="m536.36,601.92v4.26h-11.77v-4.26h11.77Z"/><path class="cls-3" d="m546.45,615.01c-1.24,0-2.33-.22-3.3-.65-.97-.43-1.73-1.08-2.29-1.93s-.84-1.92-.84-3.19c0-1.08.2-1.98.59-2.71.39-.73.93-1.32,1.61-1.76.68-.45,1.46-.78,2.32-1.01s1.78-.39,2.74-.48c1.12-.12,2.03-.23,2.72-.33.69-.11,1.19-.26,1.5-.47.31-.21.47-.52.47-.93v-.08c0-.8-.25-1.42-.75-1.85-.5-.44-1.21-.66-2.12-.66-.97,0-1.73.21-2.31.64-.57.42-.95.96-1.13,1.59l-4.96-.4c.25-1.18.75-2.19,1.49-3.05.74-.86,1.69-1.52,2.87-1.99,1.17-.47,2.53-.7,4.08-.7,1.08,0,2.11.13,3.09.38.99.25,1.87.64,2.63,1.17.77.53,1.38,1.21,1.82,2.04s.67,1.82.67,2.97v13.05h-5.09v-2.68h-.15c-.31.6-.73,1.14-1.25,1.59-.52.46-1.15.81-1.88,1.07-.73.26-1.58.38-2.53.38Zm1.54-3.7c.79,0,1.49-.16,2.09-.47.6-.32,1.08-.74,1.42-1.28.34-.54.52-1.15.52-1.83v-2.05c-.17.11-.4.21-.69.3-.29.09-.62.17-.98.24-.36.07-.72.13-1.08.19s-.69.1-.98.14c-.63.09-1.18.24-1.65.44-.47.2-.84.47-1.1.81-.26.34-.39.76-.39,1.27,0,.73.27,1.29.8,1.67.53.38,1.21.57,2.03.57Z"/><path class="cls-3" d="m577.61,600.81l-4.91.3c-.08-.42-.26-.8-.54-1.14-.28-.34-.64-.61-1.09-.82s-.98-.31-1.61-.31c-.83,0-1.53.17-2.1.52s-.86.81-.86,1.39c0,.46.18.85.55,1.17.37.32,1,.58,1.9.77l3.5.71c1.88.39,3.28,1.01,4.21,1.86s1.39,1.98,1.39,3.38c0,1.27-.37,2.38-1.12,3.34s-1.76,1.7-3.05,2.24-2.77.8-4.45.8c-2.56,0-4.6-.54-6.12-1.61-1.52-1.07-2.4-2.53-2.66-4.38l5.28-.28c.16.78.55,1.38,1.16,1.78s1.4.61,2.36.61,1.7-.18,2.27-.55.87-.84.88-1.42c0-.49-.21-.89-.62-1.2-.4-.31-1.02-.56-1.86-.72l-3.35-.67c-1.89-.38-3.29-1.03-4.21-1.97-.92-.93-1.38-2.12-1.38-3.57,0-1.24.34-2.31,1.01-3.21.68-.9,1.63-1.59,2.86-2.08s2.67-.73,4.33-.73c2.44,0,4.37.52,5.78,1.55,1.41,1.03,2.23,2.44,2.46,4.22Z"/><path class="cls-3" d="m593.5,601.92v4.26h-11.77v-4.26h11.77Z"/><path class="cls-3" d="m603.59,615.01c-1.24,0-2.33-.22-3.3-.65-.97-.43-1.73-1.08-2.29-1.93s-.84-1.92-.84-3.19c0-1.08.2-1.98.59-2.71.39-.73.93-1.32,1.61-1.76.68-.45,1.46-.78,2.32-1.01s1.78-.39,2.74-.48c1.12-.12,2.03-.23,2.72-.33.69-.11,1.19-.26,1.5-.47.31-.21.47-.52.47-.93v-.08c0-.8-.25-1.42-.75-1.85-.5-.44-1.21-.66-2.12-.66-.97,0-1.73.21-2.31.64-.57.42-.95.96-1.13,1.59l-4.96-.4c.25-1.18.75-2.19,1.49-3.05.74-.86,1.69-1.52,2.87-1.99,1.17-.47,2.53-.7,4.08-.7,1.08,0,2.11.13,3.09.38.99.25,1.87.64,2.63,1.17.77.53,1.38,1.21,1.82,2.04s.67,1.82.67,2.97v13.05h-5.09v-2.68h-.15c-.31.6-.73,1.14-1.25,1.59-.52.46-1.15.81-1.88,1.07-.73.26-1.58.38-2.53.38Zm1.54-3.7c.79,0,1.49-.16,2.09-.47.6-.32,1.08-.74,1.42-1.28.34-.54.52-1.15.52-1.83v-2.05c-.17.11-.4.21-.69.3-.29.09-.62.17-.98.24-.36.07-.72.13-1.08.19s-.69.1-.98.14c-.63.09-1.18.24-1.65.44-.47.2-.84.47-1.1.81-.26.34-.39.76-.39,1.27,0,.73.27,1.29.8,1.67.53.38,1.21.57,2.03.57Z"/><path class="cls-3" d="m480.74,638.83c-.1-1.02-.53-1.81-1.3-2.37s-1.8-.84-3.11-.84c-.89,0-1.64.12-2.25.37-.61.25-1.08.59-1.4,1.03-.32.44-.48.93-.48,1.49-.02.46.08.87.3,1.21.21.34.51.64.89.89.38.25.81.46,1.31.64s1.02.33,1.59.46l2.32.55c1.12.25,2.16.59,3.1,1.01.94.42,1.76.94,2.44,1.55s1.22,1.33,1.61,2.17c.38.83.58,1.78.59,2.86,0,1.58-.41,2.95-1.2,4.1-.79,1.16-1.94,2.05-3.43,2.68-1.49.63-3.29.95-5.39.95s-3.9-.32-5.44-.96c-1.54-.64-2.74-1.59-3.6-2.84-.86-1.26-1.31-2.81-1.35-4.67h5.28c.06.87.31,1.58.75,2.16.44.58,1.03,1.01,1.78,1.3.74.29,1.58.43,2.53.43s1.73-.13,2.41-.4c.68-.27,1.22-.64,1.59-1.12s.57-1.03.57-1.65c0-.58-.17-1.07-.51-1.46-.34-.39-.84-.73-1.49-1.01s-1.45-.53-2.39-.76l-2.81-.71c-2.18-.53-3.89-1.36-5.15-2.48-1.26-1.13-1.89-2.64-1.88-4.55,0-1.56.41-2.93,1.25-4.09.84-1.17,2.01-2.08,3.48-2.73s3.16-.98,5.04-.98,3.59.33,5.02.98c1.43.66,2.55,1.57,3.35,2.73.8,1.17,1.21,2.52,1.23,4.06h-5.23Z"/><path class="cls-3" d="m498.69,657.59c-1.99,0-3.7-.41-5.13-1.22-1.43-.81-2.53-1.96-3.31-3.45-.77-1.49-1.16-3.26-1.16-5.3s.39-3.74,1.16-5.24c.77-1.5,1.86-2.67,3.27-3.51,1.41-.84,3.06-1.26,4.96-1.26,1.28,0,2.47.2,3.57.61,1.1.41,2.07,1.02,2.9,1.83.83.82,1.47,1.84,1.93,3.07.46,1.23.69,2.67.69,4.31v1.47h-16.34v-3.33h11.29c0-.77-.17-1.46-.5-2.05s-.8-1.06-1.39-1.4c-.59-.34-1.28-.51-2.06-.51s-1.54.19-2.16.56c-.63.37-1.11.87-1.47,1.5-.35.63-.53,1.32-.54,2.08v3.16c0,.96.18,1.79.54,2.48s.86,1.23,1.52,1.61c.66.38,1.43.57,2.33.57.6,0,1.14-.08,1.64-.25.5-.17.92-.42,1.27-.76.35-.34.62-.75.81-1.24l4.96.33c-.25,1.19-.77,2.23-1.54,3.12-.78.89-1.78,1.57-3,2.07-1.22.49-2.63.74-4.23.74Z"/><path class="cls-3" d="m511.08,657.22v-19.35h5.2v3.38h.2c.35-1.2.95-2.11,1.78-2.73.83-.62,1.79-.93,2.87-.93.27,0,.56.02.87.05.31.03.58.08.82.14v4.76c-.25-.08-.6-.14-1.04-.2-.45-.06-.85-.09-1.22-.09-.79,0-1.49.17-2.11.51-.62.34-1.1.81-1.46,1.42-.36.6-.54,1.3-.54,2.09v10.95h-5.37Z"/><path class="cls-3" d="m544.22,637.87l-6.77,19.35h-6.05l-6.77-19.35h5.67l4.02,13.84h.2l4.01-13.84h5.68Z"/><path class="cls-3" d="m549.66,635.37c-.8,0-1.48-.26-2.05-.79-.57-.53-.85-1.17-.85-1.92s.29-1.39.86-1.92c.57-.53,1.25-.8,2.04-.8s1.48.26,2.05.79c.57.53.85,1.17.85,1.92s-.28,1.39-.85,1.92c-.57.53-1.25.8-2.05.8Zm-2.7,21.85v-19.35h5.37v19.35h-5.37Z"/><path class="cls-3" d="m565.36,657.59c-1.98,0-3.68-.42-5.11-1.27-1.42-.84-2.52-2.02-3.28-3.52-.76-1.5-1.14-3.23-1.14-5.19s.38-3.72,1.15-5.22c.77-1.5,1.86-2.67,3.28-3.51,1.42-.84,3.11-1.27,5.06-1.27,1.69,0,3.17.31,4.43.92,1.27.61,2.27,1.47,3.01,2.58.74,1.11,1.15,2.41,1.22,3.91h-5.06c-.14-.97-.52-1.74-1.13-2.34-.61-.59-1.4-.89-2.39-.89-.83,0-1.56.22-2.17.67s-1.1,1.1-1.44,1.96-.52,1.89-.52,3.11.17,2.29.51,3.15c.34.86.82,1.52,1.44,1.98.62.45,1.35.68,2.18.68.61,0,1.17-.13,1.66-.38.49-.25.9-.62,1.22-1.1.32-.48.54-1.06.64-1.75h5.06c-.08,1.48-.49,2.78-1.2,3.9s-1.71,2-2.97,2.63c-1.26.63-2.75.95-4.47.95Z"/><path class="cls-3" d="m586.27,657.59c-1.99,0-3.7-.41-5.13-1.22-1.43-.81-2.54-1.96-3.31-3.45-.77-1.49-1.16-3.26-1.16-5.3s.39-3.74,1.16-5.24c.77-1.5,1.86-2.67,3.27-3.51,1.41-.84,3.06-1.26,4.96-1.26,1.28,0,2.47.2,3.57.61,1.1.41,2.07,1.02,2.9,1.83.83.82,1.47,1.84,1.93,3.07s.69,2.67.69,4.31v1.47h-16.34v-3.33h11.29c0-.77-.17-1.46-.5-2.05s-.8-1.06-1.39-1.4c-.59-.34-1.28-.51-2.06-.51s-1.53.19-2.16.56c-.63.37-1.12.87-1.47,1.5-.35.63-.53,1.32-.54,2.08v3.16c0,.96.18,1.79.54,2.48.36.7.86,1.23,1.52,1.61s1.43.57,2.33.57c.6,0,1.14-.08,1.64-.25.5-.17.92-.42,1.27-.76s.62-.75.81-1.24l4.96.33c-.25,1.19-.77,2.23-1.54,3.12-.78.89-1.78,1.57-3,2.07-1.22.49-2.63.74-4.23.74Z"/><path class="cls-3" d="m826.54,597.88h-5.52c-.1-.71-.31-1.35-.62-1.91s-.71-1.04-1.2-1.43c-.49-.39-1.05-.7-1.68-.91-.63-.21-1.32-.32-2.06-.32-1.33,0-2.5.33-3.49.99-.99.66-1.76,1.62-2.31,2.87-.55,1.26-.82,2.78-.82,4.57s.28,3.38.83,4.64c.55,1.25,1.32,2.2,2.31,2.83.99.64,2.14.96,3.44.96.73,0,1.41-.1,2.04-.29.62-.19,1.18-.48,1.67-.85s.89-.83,1.22-1.37c.32-.54.55-1.15.67-1.84l5.52.02c-.14,1.18-.5,2.33-1.06,3.42-.57,1.1-1.33,2.07-2.28,2.94-.95.86-2.09,1.54-3.4,2.04-1.31.5-2.8.75-4.45.75-2.3,0-4.36-.52-6.17-1.56-1.81-1.04-3.24-2.55-4.28-4.52s-1.57-4.36-1.57-7.17.53-5.21,1.59-7.18c1.06-1.97,2.5-3.48,4.31-4.52,1.81-1.04,3.86-1.56,6.12-1.56,1.5,0,2.88.21,4.16.63,1.28.42,2.42,1.03,3.41,1.83.99.8,1.8,1.78,2.43,2.94.62,1.16,1.03,2.49,1.2,3.98Z"/><path class="cls-3" d="m842.77,606.4v-11.11h5.37v19.35h-5.15v-3.51h-.2c-.44,1.13-1.16,2.04-2.17,2.73-1.01.69-2.25,1.03-3.7,1.03-1.29,0-2.43-.29-3.41-.88-.98-.59-1.75-1.42-2.3-2.51-.55-1.08-.83-2.38-.84-3.89v-12.32h5.37v11.36c0,1.14.31,2.04.92,2.71.61.66,1.42,1,2.43,1,.65,0,1.25-.15,1.81-.45s1.02-.74,1.37-1.33c.35-.59.52-1.31.51-2.18Z"/><path class="cls-3" d="m868.52,600.81l-4.91.3c-.08-.42-.26-.8-.54-1.14-.28-.34-.64-.61-1.09-.82s-.98-.31-1.61-.31c-.83,0-1.53.17-2.1.52s-.86.81-.86,1.39c0,.46.18.85.55,1.17.37.32,1,.58,1.9.77l3.5.71c1.88.39,3.28,1.01,4.21,1.86s1.39,1.98,1.39,3.38c0,1.27-.37,2.38-1.12,3.34s-1.76,1.7-3.05,2.24-2.77.8-4.45.8c-2.56,0-4.6-.54-6.12-1.61-1.52-1.07-2.4-2.53-2.66-4.38l5.28-.28c.16.78.55,1.38,1.16,1.78s1.4.61,2.36.61,1.7-.18,2.27-.55.87-.84.88-1.42c0-.49-.21-.89-.62-1.2-.4-.31-1.02-.56-1.86-.72l-3.35-.67c-1.89-.38-3.29-1.03-4.21-1.97-.92-.93-1.38-2.12-1.38-3.57,0-1.24.34-2.31,1.01-3.21.68-.9,1.63-1.59,2.86-2.08s2.67-.73,4.33-.73c2.44,0,4.37.52,5.78,1.55,1.41,1.03,2.23,2.44,2.46,4.22Z"/><path class="cls-3" d="m882.64,595.29v4.03h-11.65v-4.03h11.65Zm-9.01-4.64h5.37v18.04c0,.5.08.88.23,1.15.15.27.36.46.64.57.27.11.59.16.95.16.25,0,.5-.02.76-.07s.45-.08.58-.11l.84,3.99c-.27.08-.65.18-1.13.3s-1.08.18-1.78.21c-1.29.05-2.42-.12-3.4-.52-.97-.39-1.72-1.01-2.26-1.84-.54-.83-.8-1.88-.79-3.15v-18.75Z"/><path class="cls-3" d="m894.67,615.02c-1.96,0-3.65-.42-5.07-1.25-1.42-.83-2.52-2-3.29-3.5s-1.16-3.24-1.16-5.22.39-3.75,1.16-5.25,1.87-2.67,3.29-3.5c1.42-.83,3.11-1.25,5.07-1.25s3.65.42,5.07,1.25c1.42.84,2.52,2,3.29,3.5s1.16,3.25,1.16,5.25-.39,3.72-1.16,5.22-1.87,2.67-3.29,3.5c-1.42.84-3.11,1.25-5.07,1.25Zm.03-4.16c.89,0,1.63-.25,2.23-.76.6-.51,1.05-1.2,1.35-2.08s.46-1.88.46-3.01-.15-2.13-.46-3.01-.76-1.58-1.35-2.09c-.6-.51-1.34-.77-2.23-.77s-1.65.26-2.26.77c-.61.51-1.07,1.21-1.37,2.09s-.46,1.89-.46,3.01.15,2.13.46,3.01.76,1.58,1.37,2.08c.61.51,1.36.76,2.26.76Z"/><path class="cls-3" d="m907.7,614.64v-19.35h5.12v3.41h.23c.4-1.13,1.08-2.03,2.02-2.68s2.07-.98,3.38-.98,2.46.33,3.39.99c.93.66,1.55,1.55,1.86,2.68h.2c.39-1.11,1.11-2,2.15-2.67,1.04-.67,2.27-1,3.68-1,1.81,0,3.27.57,4.4,1.72s1.69,2.77,1.69,4.87v13.01h-5.35v-11.96c0-1.07-.29-1.88-.86-2.42-.57-.54-1.29-.81-2.14-.81-.97,0-1.73.31-2.28.93s-.82,1.43-.82,2.44v11.82h-5.2v-12.07c0-.95-.27-1.71-.81-2.27-.54-.56-1.25-.84-2.14-.84-.6,0-1.13.15-1.61.45s-.85.71-1.13,1.25c-.28.53-.42,1.16-.42,1.87v11.62h-5.37Z"/><path class="cls-3" d="m942.75,592.8c-.8,0-1.48-.26-2.05-.79-.57-.53-.85-1.17-.85-1.92s.29-1.39.86-1.92c.57-.53,1.25-.8,2.04-.8s1.48.26,2.05.79c.57.53.85,1.17.85,1.92s-.28,1.39-.85,1.92c-.57.53-1.25.8-2.05.8Zm-2.7,21.85v-19.35h5.37v19.35h-5.37Z"/><path class="cls-3" d="m949.6,614.64v-3.2l9.47-11.73v-.14h-9.15v-4.28h15.61v3.49l-8.89,11.44v.14h9.22v4.28h-16.26Z"/><path class="cls-3" d="m978.25,615.02c-1.99,0-3.7-.41-5.13-1.22-1.43-.81-2.54-1.96-3.31-3.45-.77-1.49-1.16-3.26-1.16-5.3s.39-3.74,1.16-5.24c.77-1.5,1.86-2.67,3.27-3.51,1.41-.84,3.06-1.26,4.96-1.26,1.28,0,2.47.2,3.57.61,1.1.41,2.07,1.02,2.9,1.83.83.82,1.47,1.84,1.93,3.07s.69,2.67.69,4.31v1.47h-16.34v-3.33h11.29c0-.77-.17-1.46-.5-2.05s-.8-1.06-1.39-1.4c-.59-.34-1.28-.51-2.06-.51s-1.53.19-2.16.56c-.63.37-1.12.87-1.47,1.5-.35.63-.53,1.32-.54,2.08v3.16c0,.96.18,1.79.54,2.48.36.7.86,1.23,1.52,1.61s1.43.57,2.33.57c.6,0,1.14-.08,1.64-.25.5-.17.92-.42,1.27-.76s.62-.75.81-1.24l4.96.33c-.25,1.19-.77,2.23-1.54,3.12-.78.89-1.78,1.57-3,2.07-1.22.49-2.63.74-4.23.74Z"/><path class="cls-3" d="m997.76,614.96c-1.47,0-2.8-.38-3.99-1.14s-2.13-1.88-2.82-3.36c-.69-1.48-1.04-3.3-1.04-5.46s.36-4.06,1.07-5.54c.71-1.47,1.67-2.58,2.85-3.31,1.19-.74,2.49-1.1,3.91-1.1,1.08,0,1.99.18,2.71.55s1.31.82,1.76,1.36.79,1.07,1.03,1.59h.16v-9.7h5.35v25.8h-5.29v-3.1h-.23c-.25.54-.61,1.07-1.06,1.59-.46.53-1.05.96-1.78,1.3-.73.34-1.61.52-2.65.52Zm1.7-4.27c.87,0,1.6-.24,2.2-.71.6-.47,1.06-1.14,1.39-2,.32-.86.48-1.86.48-3.01s-.16-2.15-.48-3-.78-1.5-1.39-1.96-1.34-.69-2.21-.69-1.62.24-2.23.72c-.6.48-1.06,1.14-1.37,1.99-.31.85-.47,1.83-.47,2.95s.16,2.12.47,2.98c.32.86.77,1.53,1.37,2.02.6.48,1.34.72,2.22.72Z"/><path class="cls-3" d="m815.81,638.83c-.1-1.02-.53-1.81-1.3-2.37s-1.8-.84-3.11-.84c-.89,0-1.64.12-2.26.37-.61.25-1.08.59-1.4,1.03-.32.44-.49.93-.49,1.49-.02.46.08.87.3,1.21.21.34.51.64.89.89.38.25.81.46,1.31.64.5.18,1.02.33,1.59.46l2.32.55c1.12.25,2.16.59,3.1,1.01s1.76.94,2.44,1.55,1.22,1.33,1.61,2.17c.38.83.58,1.78.59,2.86,0,1.58-.41,2.95-1.2,4.1-.79,1.16-1.94,2.05-3.43,2.68-1.49.63-3.29.95-5.39.95s-3.9-.32-5.44-.96c-1.54-.64-2.74-1.59-3.6-2.84-.86-1.26-1.31-2.81-1.35-4.67h5.28c.06.87.31,1.58.75,2.16.44.58,1.03,1.01,1.78,1.3s1.58.43,2.53.43,1.73-.13,2.41-.4c.68-.27,1.22-.64,1.59-1.12s.57-1.03.57-1.65c0-.58-.17-1.07-.51-1.46-.34-.39-.84-.73-1.49-1.01-.65-.28-1.45-.53-2.39-.76l-2.81-.71c-2.18-.53-3.89-1.36-5.15-2.48-1.26-1.13-1.89-2.64-1.88-4.55,0-1.56.41-2.93,1.25-4.09.84-1.17,2-2.08,3.48-2.73s3.16-.98,5.04-.98,3.59.33,5.02.98,2.55,1.57,3.34,2.73c.8,1.17,1.21,2.52,1.24,4.06h-5.23Z"/><path class="cls-3" d="m848.75,644.32c0,2.81-.53,5.21-1.59,7.18s-2.51,3.48-4.33,4.52c-1.83,1.04-3.88,1.56-6.15,1.56s-4.35-.52-6.17-1.56c-1.82-1.04-3.26-2.55-4.32-4.52-1.06-1.97-1.59-4.36-1.59-7.17s.53-5.21,1.59-7.18c1.06-1.97,2.5-3.48,4.32-4.52s3.88-1.56,6.17-1.56,4.33.52,6.15,1.56c1.83,1.04,3.27,2.54,4.33,4.52,1.06,1.97,1.59,4.37,1.59,7.18Zm-5.53,0c0-1.82-.27-3.36-.81-4.61-.54-1.25-1.3-2.2-2.29-2.85-.98-.65-2.13-.97-3.45-.97s-2.47.32-3.45.97-1.75,1.6-2.29,2.85c-.54,1.25-.81,2.79-.81,4.61s.27,3.36.81,4.61c.54,1.25,1.3,2.2,2.29,2.85s2.13.97,3.45.97,2.47-.32,3.45-.97c.98-.65,1.75-1.6,2.29-2.85.54-1.25.81-2.79.81-4.61Z"/><path class="cls-3" d="m875.55,640.45h-5.52c-.1-.71-.31-1.35-.62-1.91s-.71-1.04-1.2-1.43c-.49-.39-1.05-.7-1.68-.91-.63-.21-1.32-.32-2.06-.32-1.33,0-2.5.33-3.49.99-.99.66-1.76,1.62-2.31,2.87-.55,1.26-.82,2.78-.82,4.57s.28,3.38.83,4.64c.55,1.25,1.32,2.2,2.31,2.83.99.64,2.14.96,3.44.96.73,0,1.41-.1,2.04-.29.62-.19,1.18-.48,1.67-.85s.89-.83,1.22-1.37c.32-.54.55-1.15.67-1.84l5.52.02c-.14,1.18-.5,2.33-1.06,3.42-.57,1.1-1.33,2.07-2.28,2.94-.95.86-2.09,1.54-3.4,2.04-1.31.5-2.8.75-4.45.75-2.3,0-4.36-.52-6.17-1.56-1.81-1.04-3.24-2.55-4.28-4.52s-1.57-4.36-1.57-7.17.53-5.21,1.59-7.18c1.06-1.97,2.5-3.48,4.31-4.52,1.81-1.04,3.86-1.56,6.12-1.56,1.5,0,2.88.21,4.16.63,1.28.42,2.42,1.03,3.41,1.83.99.8,1.8,1.78,2.43,2.94.62,1.16,1.03,2.49,1.2,3.98Z"/><path class="cls-3" d="m887.69,631.42h6.73l7.11,17.33h.3l7.11-17.33h6.73v25.8h-5.29v-16.79h-.21l-6.68,16.67h-3.6l-6.68-16.73h-.21v16.86h-5.29v-25.8Z"/><path class="cls-3" d="m928.79,657.59c-1.96,0-3.65-.42-5.07-1.25-1.42-.83-2.52-2-3.29-3.5s-1.16-3.24-1.16-5.22.39-3.75,1.16-5.25,1.87-2.67,3.29-3.5c1.42-.83,3.11-1.25,5.07-1.25s3.65.42,5.07,1.25c1.42.84,2.52,2,3.29,3.5s1.16,3.25,1.16,5.25-.39,3.72-1.16,5.22-1.87,2.67-3.29,3.5c-1.42.84-3.11,1.25-5.07,1.25Zm.03-4.16c.89,0,1.63-.25,2.23-.76.6-.51,1.05-1.2,1.35-2.08s.46-1.88.46-3.01-.15-2.13-.46-3.01-.76-1.58-1.35-2.09c-.6-.51-1.34-.77-2.23-.77s-1.65.26-2.26.77c-.61.51-1.07,1.21-1.37,2.09s-.46,1.89-.46,3.01.15,2.13.46,3.01.76,1.58,1.37,2.08c.61.51,1.36.76,2.26.76Z"/><path class="cls-3" d="m948.95,657.53c-1.47,0-2.8-.38-3.99-1.14s-2.13-1.88-2.82-3.36c-.69-1.48-1.04-3.3-1.04-5.46s.36-4.06,1.07-5.54c.71-1.47,1.67-2.58,2.85-3.31,1.19-.74,2.49-1.1,3.91-1.1,1.08,0,1.99.18,2.71.55s1.31.82,1.76,1.36.79,1.07,1.03,1.59h.16v-9.7h5.35v25.8h-5.29v-3.1h-.23c-.25.54-.61,1.07-1.06,1.59-.46.53-1.05.96-1.78,1.3-.73.34-1.61.52-2.65.52Zm1.7-4.27c.87,0,1.6-.24,2.2-.71.6-.47,1.06-1.14,1.39-2,.32-.86.48-1.86.48-3.01s-.16-2.15-.48-3-.78-1.5-1.39-1.96-1.34-.69-2.21-.69-1.62.24-2.23.72c-.6.48-1.06,1.14-1.37,1.99-.31.85-.47,1.83-.47,2.95s.16,2.12.47,2.98c.32.86.77,1.53,1.37,2.02.6.48,1.34.72,2.22.72Z"/><path class="cls-3" d="m973.17,657.59c-1.99,0-3.7-.41-5.13-1.22-1.43-.81-2.54-1.96-3.31-3.45-.77-1.49-1.16-3.26-1.16-5.3s.39-3.74,1.16-5.24c.77-1.5,1.86-2.67,3.27-3.51,1.41-.84,3.06-1.26,4.96-1.26,1.28,0,2.47.2,3.57.61,1.1.41,2.07,1.02,2.9,1.83.83.82,1.47,1.84,1.93,3.07s.69,2.67.69,4.31v1.47h-16.34v-3.33h11.29c0-.77-.17-1.46-.5-2.05s-.8-1.06-1.39-1.4c-.59-.34-1.28-.51-2.06-.51s-1.53.19-2.16.56c-.63.37-1.12.87-1.47,1.5-.35.63-.53,1.32-.54,2.08v3.16c0,.96.18,1.79.54,2.48.36.7.86,1.23,1.52,1.61s1.43.57,2.33.57c.6,0,1.14-.08,1.64-.25.5-.17.92-.42,1.27-.76s.62-.75.81-1.24l4.96.33c-.25,1.19-.77,2.23-1.54,3.12-.78.89-1.78,1.57-3,2.07-1.22.49-2.63.74-4.23.74Z"/><path class="cls-3" d="m990.92,631.42v25.8h-5.37v-25.8h5.37Z"/><path class="cls-3" d="m1011.3,643.38l-4.91.3c-.08-.42-.26-.8-.54-1.14-.28-.34-.64-.61-1.09-.82s-.98-.31-1.61-.31c-.83,0-1.53.17-2.1.52s-.86.81-.86,1.39c0,.46.18.85.55,1.17.37.32,1,.58,1.9.77l3.5.71c1.88.39,3.28,1.01,4.21,1.86s1.39,1.98,1.39,3.38c0,1.27-.37,2.38-1.12,3.34s-1.76,1.7-3.05,2.24-2.77.8-4.45.8c-2.56,0-4.6-.54-6.12-1.61-1.52-1.07-2.4-2.53-2.66-4.38l5.28-.28c.16.78.55,1.38,1.16,1.78s1.4.61,2.36.61,1.7-.18,2.27-.55.87-.84.88-1.42c0-.49-.21-.89-.62-1.2-.4-.31-1.02-.56-1.86-.72l-3.35-.67c-1.89-.38-3.29-1.03-4.21-1.97-.92-.93-1.38-2.12-1.38-3.57,0-1.24.34-2.31,1.01-3.21.68-.9,1.63-1.59,2.86-2.08s2.67-.73,4.33-.73c2.44,0,4.37.52,5.78,1.55,1.41,1.03,2.23,2.44,2.46,4.22Z"/><g id="setting-management-setting-gear-hand"><path class="cls-3" d="m575.19,505.16l-6.08-12.16c-.25-.52-.78-.84-1.35-.84h-1.16l-1.52-1.52h2.68c.84,0,1.52-.68,1.52-1.52v-6.08c0-.84-.68-1.52-1.52-1.52h-2.68l1.9-1.89c.59-.6.59-1.56,0-2.16l-4.3-4.3c-.6-.59-1.56-.59-2.16,0l-1.89,1.9v-2.68c0-.84-.68-1.52-1.52-1.52h-6.08c-.84,0-1.52.68-1.52,1.52v2.68l-1.89-1.9c-.6-.59-1.56-.59-2.16,0l-4.3,4.3c-.59.6-.59,1.56,0,2.16l1.9,1.89h-2.68c-.84,0-1.52.68-1.52,1.52v6.08c0,.84.68,1.52,1.52,1.52h2.68l-1.52,1.52h-8.76v-3.15c0-1.28.54-2.5,1.49-3.36,5.65-5.02,6.16-13.67,1.14-19.32-1.4-1.57-3.14-2.8-5.09-3.59-.78-.32-1.67.05-1.98.83-.08.19-.12.38-.11.59v10.46l-3.04,2.04-3.04-2.04v-10.46c0-.84-.67-1.52-1.51-1.53-.2,0-.4.04-.59.11-7.01,2.84-10.38,10.81-7.55,17.82.79,1.95,2.02,3.7,3.59,5.09.95.86,1.49,2.08,1.49,3.36v3.15h-1.52c-.57,0-1.1.32-1.35.84l-6.08,12.16c-.38.75-.08,1.66.67,2.04.21.11.44.16.68.16h4.56v18.58l-3.04.76v-2.62c0-.84-.68-1.52-1.52-1.52h-12.16c-.84,0-1.52.68-1.52,1.52v1.52h-10.64c-.84,0-1.52.68-1.52,1.52v21.29c0,.84.68,1.52,1.52,1.52h10.64v1.52c0,.84.68,1.52,1.52,1.52h12.16c.84,0,1.52-.68,1.52-1.52v-2.1l1.96.97c1.48.74,3.11,1.12,4.76,1.13h22.76c1.87,0,3.71-.49,5.32-1.43l25.54-14.75c2.9-1.68,3.9-5.39,2.22-8.29-1-1.74-2.8-2.87-4.79-3.02v-16.6h4.56c.84,0,1.52-.69,1.52-1.53,0-.24-.06-.47-.16-.68Zm-78.9,41.74h-9.12v-18.25h9.12v18.25Zm12.16,3.04h-9.12v-24.33h9.12v24.33Zm33.45-62.34v-3.04h3.57c.67,0,1.26-.44,1.46-1.08.07-.22.15-.42.26-.62.31-.59.2-1.31-.27-1.78l-2.54-2.52,2.16-2.16,2.52,2.54c.47.47,1.19.58,1.78.27.2-.11.41-.19.62-.26.64-.2,1.08-.79,1.08-1.46v-3.57h3.04v3.57c0,.67.44,1.26,1.08,1.46.22.07.42.15.62.26.59.31,1.31.2,1.78-.27l2.52-2.54,2.16,2.16-2.54,2.52c-.47.47-.58,1.19-.27,1.78.11.2.19.41.26.62.2.64.79,1.08,1.46,1.08h3.57v3.04h-3.57c-.67,0-1.26.44-1.46,1.08-.07.22-.15.42-.26.62-.31.59-.2,1.31.27,1.78l1.09,1.08h-16.48l1.09-1.08c.47-.47.58-1.19.27-1.78-.11-.2-.19-.41-.26-.62-.2-.64-.79-1.08-1.46-1.08h-3.57Zm1.52,12.53l3.21,6.4c.25.52.78.84,1.35.84h18.25v17.15c-.15.08-.32.15-.47.23l-14.82,8.56c-.81-1.21-2.03-2.09-3.44-2.48l-4.07-1.08v-29.62Zm-28.89-24.69c0-3.49,1.7-6.75,4.56-8.74v8.74c0,.51.26.98.68,1.26l4.56,3.04c.5.35,1.17.35,1.67,0l4.56-3.04c.42-.28.68-.75.68-1.26v-8.74c4.82,3.36,6.01,9.99,2.66,14.82-.48.68-1.03,1.31-1.65,1.86-1.62,1.43-2.54,3.48-2.52,5.64v3.15h-3.04v-4.56c0-.84-.68-1.52-1.52-1.52s-1.52.68-1.52,1.52v4.56h-3.04v-3.15c0-2.15-.9-4.21-2.51-5.64-2.27-2.01-3.58-4.9-3.57-7.94Zm-2.1,28.89l4.56-9.12h22.44l-4.56,9.12h-22.44Zm27.95-4.2v28.8l-15.57-4.17c-1.75-.47-3.58-.49-5.34-.05l-1.9.47v-17.82h18.25c.57,0,1.1-.32,1.35-.84l3.21-6.4Zm31.03,28.37c.84,1.45.35,3.31-1.09,4.15l-25.54,14.75c-1.16.67-2.47,1.02-3.8,1.02h-22.76c-1.18,0-2.35-.27-3.41-.81l-3.31-1.66v-16.12l8.71-2.17c1.25-.32,2.57-.31,3.82.03l22.69,6.08c1.62.42,2.59,2.07,2.17,3.69-.21.79-.73,1.47-1.44,1.87-.69.41-1.52.52-2.3.3l-18.14-4.87c-.81-.22-1.65.26-1.87,1.08s.26,1.65,1.08,1.87l18.14,4.85c.52.14,1.05.21,1.58.21,1.06,0,2.11-.28,3.03-.82,1.4-.8,2.43-2.13,2.84-3.69.17-.67.23-1.36.17-2.05l15.31-8.83c1.45-.81,3.28-.32,4.14,1.11Zm-22.49-24.18l-4.56-9.12h22.44l4.56,9.12h-22.44Z"/><path class="cls-3" d="m560.15,486.08c0-3.36-2.72-6.08-6.08-6.08s-6.08,2.72-6.08,6.08,2.72,6.08,6.08,6.08,6.08-2.72,6.08-6.08Zm-6.08,3.04c-1.68,0-3.04-1.36-3.04-3.04s1.36-3.04,3.04-3.04,3.04,1.36,3.04,3.04-1.36,3.04-3.04,3.04Z"/></g><path class="cls-3" d="m940.06,543.66h-71.89c-3.98,0-7.13-3.16-7.13-7.13v-69.69c0-3.98,3.16-7.13,7.13-7.13h71.89c3.98,0,7.13,3.16,7.13,7.13v69.55c.14,3.98-3.16,7.27-7.13,7.27Zm-71.89-80.12c-1.78,0-3.29,1.51-3.29,3.29v69.55c0,1.78,1.51,3.29,3.29,3.29h71.89c1.78,0,3.29-1.51,3.29-3.29v-69.55c0-1.78-1.51-3.29-3.29-3.29h-71.89Z"/><polygon class="cls-3" points="945.27 477.26 900.69 477.26 893.28 462.45 896.85 460.8 903.16 473.28 945.27 473.28 945.27 477.26"/><rect class="cls-3" x="870.64" y="469.31" width="3.98" height="3.98"/><rect class="cls-3" x="878.74" y="469.31" width="3.98" height="3.98"/><rect class="cls-3" x="886.83" y="469.31" width="3.98" height="3.98"/><path class="cls-3" d="m916.74,503.6c-3.98,0-7.27-3.29-7.27-7.27s3.29-7.27,7.27-7.27,7.27,3.29,7.27,7.27-3.16,7.27-7.27,7.27Zm0-10.56c-1.78,0-3.43,1.51-3.43,3.43s1.51,3.43,3.43,3.43c1.78,0,3.43-1.51,3.43-3.43s-1.51-3.43-3.43-3.43Z"/><path class="cls-3" d="m891.5,518.28c-3.98,0-7.27-3.29-7.27-7.27s3.29-7.27,7.27-7.27,7.27,3.29,7.27,7.27-3.29,7.27-7.27,7.27Zm0-10.56c-1.92,0-3.43,1.51-3.43,3.43,0,1.78,1.51,3.43,3.43,3.43s3.43-1.51,3.43-3.43c-.14-1.92-1.65-3.43-3.43-3.43Z"/><path class="cls-3" d="m921.81,494.41c.27.55.41,1.23.41,1.92s-.14,1.37-.41,1.92h5.9v-3.98h-5.9v.14Z"/><path class="cls-3" d="m911.8,494.41h-31.28v3.98h31.28c-.27-.55-.41-1.23-.41-1.92s.27-1.37.41-2.06Z"/><path class="cls-3" d="m886.42,509.09h-5.9v3.98h5.9c-.27-.55-.41-1.23-.41-1.92s.27-1.51.41-2.06Z"/><path class="cls-3" d="m896.71,511.01c0,.69-.14,1.37-.41,1.92h31.28v-3.98h-31.14c.14.69.27,1.37.27,2.06Z"/><path class="cls-3" d="m904.53,523.77h-24.01v3.98h24.01c-.27-.55-.41-1.23-.41-1.92s.14-1.51.41-2.06Z"/><path class="cls-3" d="m914.82,525.69c0,.69-.14,1.37-.41,1.92h13.31v-3.98h-13.31c.27.69.41,1.37.41,2.06Z"/><path class="cls-3" d="m909.47,532.96c-3.98,0-7.27-3.29-7.27-7.27s3.29-7.27,7.27-7.27,7.27,3.29,7.27,7.27-3.29,7.27-7.27,7.27Zm0-10.56c-1.78,0-3.43,1.51-3.43,3.43,0,1.78,1.51,3.43,3.43,3.43,1.78,0,3.43-1.51,3.43-3.43-.14-1.92-1.65-3.43-3.43-3.43Z"/><path class="cls-3" d="m713.03,218.25c-1.05,0-1.9-.85-1.9-1.9v-13.3c0-3.21-1.15-6.1-3.23-8.15l-14.41-14.09c-.75-.75-1.98-.73-2.71-.01-.36.36-.55.83-.55,1.34s.2.99.55,1.35l8.42,8.74c1.64,1.69,2.43,3.36,2.43,5.12v1.9c0,1.05-.85,1.9-1.9,1.9s-1.9-.85-1.9-1.9v-1.9c0-.73-.43-1.52-1.36-2.48l-8.39-8.72c-1.05-1.05-1.64-2.48-1.64-4s.59-2.96,1.67-4.03c2.16-2.15,5.9-2.16,8.06,0l14.4,14.08c2.82,2.77,4.37,6.62,4.37,10.86v13.3c0,1.05-.85,1.9-1.9,1.9Z"/><path class="cls-3" d="m694.02,218.25c-1.05,0-1.9-.85-1.9-1.9v-5.7c0-2.09-1-4.01-3.24-6.26l-8.16-8.16c-1.23-1.22-1.9-2.85-1.9-4.59v-28.51c0-1.52.59-2.96,1.67-4.03,2.15-2.15,5.91-2.15,8.06,0,1.08,1.08,1.67,2.51,1.67,4.03v9.5c0,1.05-.85,1.9-1.9,1.9s-1.9-.85-1.9-1.9v-9.5c0-.51-.2-.98-.56-1.34-.72-.72-1.97-.72-2.69,0-.36.36-.56.84-.56,1.34v28.51c0,.72.28,1.39.79,1.9l8.16,8.16c1.87,1.87,4.36,4.83,4.36,8.95v5.7c0,1.05-.85,1.9-1.9,1.9Z"/><path class="cls-3" d="m720.63,227.75h-3.8v-13.3c2.1,0,3.8,1.7,3.8,3.8v9.5Z"/><path class="cls-3" d="m690.22,227.75h-3.8v-9.5c0-2.1,1.7-3.8,3.8-3.8v13.3Z"/><path class="cls-3" d="m716.83,218.25h-11.4c-1.05,0-1.9-.85-1.9-1.9s.85-1.9,1.9-1.9h11.4c1.05,0,1.9.85,1.9,1.9s-.85,1.9-1.9,1.9Z"/><path class="cls-3" d="m697.82,218.25h-7.6c-1.05,0-1.9-.85-1.9-1.9s.85-1.9,1.9-1.9h7.6c1.05,0,1.9.85,1.9,1.9s-.85,1.9-1.9,1.9Z"/><path class="cls-3" d="m732.03,210.64c-1.05,0-1.9-.85-1.9-1.9v-5.7c0-4.23,1.55-8.09,4.37-10.86l14.42-14.1c2.13-2.12,5.89-2.14,8.05.02,1.08,1.07,1.67,2.51,1.67,4.03s-.6,2.96-1.67,4.03l-8.36,8.69c-.94.97-1.37,1.75-1.37,2.48v1.9c0,1.05-.85,1.9-1.9,1.9s-1.9-.85-1.9-1.9v-1.9c0-1.76.8-3.43,2.44-5.12l8.38-8.71c.39-.39.58-.86.58-1.37s-.2-.98-.56-1.34c-.72-.72-1.97-.72-2.69,0l-14.43,14.1c-2.08,2.05-3.23,4.94-3.23,8.15v5.7c0,1.05-.85,1.9-1.9,1.9Z"/><path class="cls-3" d="m751.04,218.25c-1.05,0-1.9-.85-1.9-1.9v-5.7c0-4.11,2.49-7.08,4.36-8.95l8.16-8.16c.51-.51.79-1.18.79-1.9v-28.51c0-.51-.2-.98-.56-1.35-.72-.72-1.97-.72-2.68,0-.36.36-.56.84-.56,1.35v9.5c0,1.05-.85,1.9-1.9,1.9s-1.9-.85-1.9-1.9v-9.5c0-1.52.59-2.95,1.67-4.03,2.15-2.15,5.91-2.15,8.07,0,1.08,1.08,1.67,2.51,1.67,4.03v28.51c0,1.73-.68,3.36-1.9,4.59l-8.16,8.16c-2.24,2.24-3.24,4.17-3.24,6.26v5.7c0,1.05-.85,1.9-1.9,1.9Z"/><path class="cls-3" d="m758.64,227.75h-3.8v-9.5h-26.61v9.5h-3.8v-9.5c0-2.1,1.7-3.8,3.8-3.8h26.61c2.1,0,3.8,1.7,3.8,3.8v9.5Z"/><path class="cls-3" d="m722.53,185.94c-1.29,0-2.63-.12-4.1-.36-.87-.14-1.53-.87-1.58-1.75-.09-1.47-.98-2.72-2.32-3.27-1.34-.55-2.85-.29-3.96.68-.66.58-1.64.63-2.36.12-2.25-1.6-4.2-3.56-5.8-5.8-.51-.72-.46-1.7.12-2.36.97-1.1,1.23-2.62.68-3.95-.55-1.34-1.81-2.22-3.27-2.32-.88-.06-1.61-.71-1.75-1.58-.25-1.47-.37-2.81-.37-4.1s.12-2.62.36-4.09c.14-.87.87-1.53,1.75-1.59,1.47-.09,2.72-.98,3.27-2.32.55-1.34.29-2.85-.68-3.96-.58-.66-.63-1.64-.12-2.36,1.6-2.25,3.56-4.2,5.8-5.8.72-.51,1.7-.46,2.36.12,1.11.97,2.62,1.23,3.96.68,1.34-.55,2.22-1.81,2.32-3.27.06-.88.71-1.61,1.58-1.75,2.93-.49,5.26-.49,8.2,0,.87.15,1.53.87,1.58,1.75.09,1.47.98,2.72,2.32,3.27,1.34.56,2.85.29,3.96-.68.66-.59,1.64-.63,2.36-.12,2.25,1.6,4.2,3.56,5.8,5.8.51.72.46,1.7-.12,2.36-.98,1.1-1.24,2.62-.68,3.95.56,1.34,1.81,2.22,3.27,2.32.88.06,1.61.71,1.75,1.58.25,1.47.36,2.81.36,4.1s-.12,2.62-.36,4.1c-.14.87-.87,1.53-1.75,1.59-1.47.09-2.72.98-3.27,2.32-.55,1.34-.29,2.85.68,3.95.58.66.63,1.64.12,2.36-1.6,2.25-3.55,4.2-5.8,5.8-.72.51-1.7.46-2.36-.12-1.11-.97-2.62-1.23-3.95-.68-1.33.55-2.22,1.81-2.32,3.28-.06.88-.71,1.6-1.58,1.75-1.46.25-2.8.37-4.1.37Zm-2.15-3.93c1.5.17,2.8.17,4.3,0,.61-2.23,2.2-4.07,4.39-4.98,2.19-.91,4.62-.73,6.62.41,1.12-.91,2.13-1.93,3.04-3.04-1.14-2.01-1.32-4.43-.41-6.62.91-2.19,2.74-3.78,4.98-4.4.08-.76.13-1.47.13-2.15s-.04-1.4-.13-2.15c-2.23-.61-4.07-2.2-4.98-4.39-.91-2.19-.74-4.61.41-6.62-.91-1.12-1.93-2.13-3.04-3.04-2.02,1.14-4.44,1.31-6.62.41-2.19-.91-3.78-2.74-4.4-4.98-1.51-.17-2.8-.17-4.3,0-.61,2.23-2.2,4.07-4.39,4.98-2.19.9-4.61.73-6.62-.41-1.12.91-2.13,1.93-3.04,3.04,1.14,2.01,1.32,4.43.41,6.62-.91,2.19-2.74,3.78-4.97,4.4-.09.75-.13,1.47-.13,2.15s.04,1.4.13,2.15c2.23.61,4.07,2.2,4.98,4.39.91,2.19.73,4.61-.41,6.62.91,1.12,1.93,2.13,3.04,3.04,2.01-1.14,4.43-1.32,6.62-.41,2.19.91,3.78,2.74,4.39,4.98Zm19.71-13.51h.02-.02Z"/><path class="cls-3" d="m722.53,174.54c-7.34,0-13.3-5.97-13.3-13.3,0-1.05.85-1.9,1.9-1.9s1.9.85,1.9,1.9c0,5.24,4.26,9.5,9.5,9.5s9.5-4.26,9.5-9.5-4.26-9.5-9.5-9.5c-1.05,0-1.9-.85-1.9-1.9s.85-1.9,1.9-1.9c7.33,0,13.3,5.97,13.3,13.3s-5.97,13.3-13.3,13.3Z"/><path class="cls-3" d="m722.53,166.93c-3.14,0-5.7-2.56-5.7-5.7s2.56-5.7,5.7-5.7,5.7,2.56,5.7,5.7-2.56,5.7-5.7,5.7Zm0-7.6c-1.05,0-1.9.85-1.9,1.9s.85,1.9,1.9,1.9,1.9-.85,1.9-1.9-.85-1.9-1.9-1.9Z"/></svg>