<?xml version="1.0" encoding="UTF-8"?>
<svg id="Layer_1" data-name="Layer 1" xmlns="http://www.w3.org/2000/svg" viewBox="0 0 925.45 400">
  <defs>
    <style>
      .cls-1 {
        fill: #0aac90;
      }

      .cls-1, .cls-2, .cls-3 {
        fill-rule: evenodd;
        stroke-width: 0px;
      }

      .cls-2 {
        fill: #1c4595;
      }

      .cls-3 {
        fill: #a72286;
      }
    </style>
  </defs>
  <g id="Group">
    <path id="Shape" class="cls-2" d="M346.45,218.8c-4.28,11.71-2.86,14.85,7.42,16.47v2.86h-27.8v-2.86c7.81-2.09,11.14-6.38,15.42-17.52l24.27-61.78h8.85l25.32,69.59c2.47,6.38,4.09,8.47,12.95,9.71v3.05h-40.93v-3.33c11.14-.38,12.95-2.67,10.95-8.85l-6.19-18.09h-26.56l-3.71,10.76ZM364.54,172.25h-.57s-11.9,32.08-12.18,32.08h23.89l-11.14-32.08ZM420.13,220.04h3.33c6.38,10.95,12.57,16.09,19.99,16.09,6.38,0,9.23-3.71,9.23-8,0-5.14-3.52-7.81-14.85-11.14-12.37-3.52-17.52-7.42-17.52-16.09,0-10.95,8.66-18.09,21.42-18.09,4.76,0,9.9,1.62,12.95,3.71l2.86-3.71h2.86v17.23h-3.33c-5.81-9.04-10.28-13.8-16.85-13.8-5.14,0-8.85,3.33-8.85,8.28s4.76,7.04,13.14,9.23c12.37,3.33,18.75,7.62,18.75,17.13,0,10.47-8.28,18.75-21.42,18.75-4.28,0-11.9-2.09-15.23-4.09l-3.71,4.09h-2.86l.1-19.61h0ZM472.29,211.76c0-17.9,12.37-29.22,28.84-29.22,15.23,0,21.04,7.62,21.04,13.61,0,4.95-2.86,8.47-7.81,8.47-5.52,0-8.47-3.33-8.47-7.62,0-3.33,2.09-6.19,3.9-7.04-1.24-2.09-4.28-3.9-8.47-3.9-8.28,0-13.8,8.47-13.8,23.89,0,13.14,5.52,23.23,17.52,23.23,6.38,0,11.52-3.33,16.09-8.85l2.28,1.81c-5.14,8-12.37,13.42-23.89,13.42-16.75,0-27.22-11.04-27.22-27.8ZM545.59,211.19c0,13.42,5.81,22.47,17.52,22.47,7.04,0,11.71-3.71,16.47-9.71l2.28,1.81c-5.14,8-12.18,13.99-23.89,13.99-17.13,0-27.61-10.66-27.61-27.8s11.71-29.22,27.61-29.22,24.75,12.18,23.89,26.94h-36.08c-.19.48-.19,1.05-.19,1.52ZM566.63,206.24c1.24-11.71-1.81-19.99-9.71-19.99-6.57,0-10.47,7.04-11.14,20.18l20.85-.19ZM587.76,235.27c6.76-.19,8.47-1.05,8.47-4.28v-38.08c0-3.52-1.62-5.81-8.47-6v-2.86l22.66-1.05v10.66c5.52-6.38,13.14-10.95,20.75-10.95,9.71,0,14.66,6.19,14.66,17.13v31.13c0,3.33,1.24,4.09,8.28,4.28v2.86h-29.7v-2.86c4.95-.19,6.76-1.05,6.76-4.28v-28.84c0-7.81-2.67-11.52-8.85-11.52-4.76,0-8.47,2.47-11.52,6.19v34.17c0,3.33,1.62,4.09,6.57,4.28v2.86h-29.7l.1-2.86h0ZM662.11,220.04h3.33c6.38,10.95,12.57,16.09,19.99,16.09,6.38,0,9.23-3.71,9.23-8,0-5.14-3.52-7.81-14.85-11.14-12.37-3.52-17.52-7.42-17.52-16.09,0-10.95,8.66-18.09,21.42-18.09,4.76,0,9.9,1.62,12.95,3.71l2.86-3.71h2.86v17.23h-3.33c-5.81-9.04-10.28-13.8-16.85-13.8-5.14,0-8.85,3.33-8.85,8.28s4.76,7.04,13.14,9.23c12.37,3.33,18.75,7.62,18.75,17.13,0,10.47-8.28,18.75-21.42,18.75-4.28,0-11.9-2.09-15.23-4.09l-3.71,4.09h-2.86v-19.61h.1ZM712.37,235.27c6.76-.19,8.66-1.05,8.66-4.28v-38.08c0-3.52-1.62-5.81-8.66-6v-2.86l23.32-1.14v47.98c0,3.33,1.24,4.09,8.47,4.28v2.86h-31.51v-2.86h-.29v.1ZM719.13,164.16c0-5.52,3.52-9.23,8.85-9.23s8.85,3.52,8.85,8.85-3.52,9.04-8.85,9.04-8.85-3.24-8.85-8.66ZM748.83,211.19c0-17.13,11.52-28.65,28.46-28.65s28.18,10.95,28.18,28.18-11.52,28.84-28.18,28.84c-17.8,0-28.46-11.04-28.46-28.37ZM789.76,210.99c0-16.85-4.28-24.75-13.14-24.75s-11.9,7.81-11.9,24.75,4.28,25.13,13.14,25.13c8.47-.29,11.9-8.28,11.9-25.13ZM811.18,235.27c6.76-.19,8.47-1.05,8.47-4.28v-38.08c0-3.52-1.62-5.81-8.47-6v-2.86l22.66-1.05v10.66c5.52-6.38,13.14-10.95,20.75-10.95,9.71,0,14.66,6.19,14.66,17.13v31.13c0,3.33,1.24,4.09,8.28,4.28v2.86h-29.7v-2.86c4.95-.19,6.76-1.05,6.76-4.28v-28.84c0-7.81-2.67-11.52-8.85-11.52-4.76,0-8.47,2.47-11.52,6.19v34.17c0,3.33,1.62,4.09,6.57,4.28v2.86h-29.7l.1-2.86h0Z"/>
    <g id="Shape-2" data-name="Shape">
      <path class="cls-3" d="M136.65,203.38c-2.47.86-4.76,1.62-7.23,2.47-1.05-6.19-1.62-12.57-1.62-19.13,0-35.79,16.47-68.35,41.98-89.58v12.76c-19.99,19.32-32.37,46.74-32.37,76.82,0,4.28.19,8.85.86,12.95l-1.62,3.71ZM244.12,293.34c-25.32,0-48.64-9.04-67.11-23.89-2.47-2.09-4.95-4.09-7.23-6.38-12.95-12.57-22.66-28.18-27.99-45.69l-5.81,12.47c6,15.04,15.04,28.46,26.37,39.5,2.28,2.28,4.76,4.57,7.23,6.57,20.18,16.85,46.17,26.94,74.34,26.94,14.18,0,27.99-2.47,40.55-7.42l-11.14-6.38c-9.04,2.86-18.94,4.28-29.22,4.28Z"/>
      <path class="cls-1" d="M162.73,269.63c2.28,2.28,4.76,4.57,7.23,6.57-20.18,16.66-46.17,26.75-74.34,26.75-14.18,0-27.99-2.47-40.55-7.42l11.14-6.38c9.52,2.67,19.13,4.09,29.41,4.09,25.32.1,48.83-8.76,67.11-23.61ZM211.95,186.63c0-35.79-16.47-68.35-41.98-89.58v12.76c20.18,19.32,32.56,46.74,32.56,76.82,0,3.9-.19,7.81-.57,11.52-1.05,9.9-3.52,19.13-7.04,27.99-5.52,13.99-14.18,26.56-24.75,36.84,2.28,2.28,4.76,4.28,7.23,6.38,9.23-9.04,17.13-19.8,22.85-31.7,4.95-9.9,8.47-20.75,10.28-32.08.86-5.9,1.43-12.28,1.43-18.94Z"/>
      <path class="cls-2" d="M284.86,295.62l-11.14-6.38c-8.28-33.32-32.37-60.54-63.4-73.11l15.23,33.32c7.04,15.04,11.14,18.56,18.37,19.8.86.19.86,4.57,0,4.76h-43.41c-.86-.19-.86-4.57,0-4.76,8.47-1.05,11.52-5.52,6.19-17.13l-6.57-14.18c4.95-9.9,8.47-20.75,10.28-32.08,38.46,14.37,67.49,48.36,74.44,89.77ZM201.86,198.24c-1.05,9.9-3.52,19.13-7.04,27.99l-8-16.66c-5.52-.86-11.14-1.43-16.85-1.43-8.66,0-16.85,1.05-25.13,3.05l-2.86,6.19-5.81,12.57-7.42,16.47c-7.42,16.85-3.71,21.61,4.95,23.23.86.38.57,4.09-.19,4.28h-35.6c-.86-.19-1.05-3.9-.19-4.28,6.19-2.28,11.14-5.81,19.8-24.75l13.42-29.41c-31.7,12.57-55.97,39.98-64.64,73.68l-11.23,6.47c7.04-41.41,36.08-75.58,74.34-89.77,2.28-.86,4.76-1.62,7.23-2.47l1.62-3.52,29.7-64.64c.86-.38,3.9-.38,4.76,0l29.13,63.02ZM182.15,199.19l-16.09-34.84-16.28,35.79c6.57-1.05,13.14-1.81,20.18-1.81,4.09.29,8.28.48,12.18.86Z"/>
    </g>
  </g>
</svg>