<?xml version="1.0" encoding="utf-8"?>
<!-- Generator: Adobe Illustrator 28.1.0, SVG Export Plug-In . SVG Version: 6.00 Build 0)  -->
<svg version="1.1" id="Layer_1" xmlns="http://www.w3.org/2000/svg" xmlns:xlink="http://www.w3.org/1999/xlink" x="0px" y="0px"
	 viewBox="0 0 1000 300" style="enable-background:new 0 0 1000 300;" xml:space="preserve">
<style type="text/css">
	.st0{fill:none;}
	.st1{fill:#F15822;}
</style>
<g>
	<rect x="60.4" y="34.5" class="st0" width="885" height="267.6"/>
	<rect x="270.1" y="111.4" class="st0" width="584.8" height="128.5"/>
	<rect x="60.4" y="34.5" class="st0" width="275" height="275"/>
	<path class="st1" d="M954.8,193.7c-4.9,3.6-8.5,4.9-12.4,4.9c-6.2,0-9.5-3.3-9.5-9.8v-24.2h21.9v-14.4h-21.9v-18l-18.3,4.6v13.4
		h-9.5v14.4h9.5v25.8c0,15.7,7.5,23.9,21.3,23.9c5.9,0,11.5-1.6,16.3-4.2l2.9-16.4H954.8z"/>
	<path class="st1" d="M882.9,174.4c-5.6-1.3-9.2-2.6-10.8-3.6s-2.6-2-2.6-3.6c0-2.9,3.3-4.6,8.5-4.6c6.5,0,15,2.9,22.2,7.5h0.3
		v-15.7c-6.9-3.6-14.1-5.6-21.9-5.6c-16,0-26.5,7.9-26.5,19.6c0,9.8,5.6,15,21.9,19.3c5.6,1.6,9.2,2.6,11.1,3.6s2.6,2.3,2.6,3.9
		c0,2.9-3.6,4.9-8.8,4.9c-8.8,0-18.6-3.6-28.1-10.1l-0.3,0.3l2.6,17c7.8,4.9,16,6.9,24.8,6.9c8.2,0,14.7-2,19.6-5.6
		c4.9-3.6,7.5-8.5,7.5-14.4c0-5.2-1.6-9.5-4.9-12.4C896.9,179.3,891.4,176.6,882.9,174.4"/>
	<path class="st1" d="M827.3,192c-5.2,4.6-8.8,6.2-13.4,6.2c-6.9,0-10.5-4.2-10.5-11.8v-36.3h-18.6v39.9c0,15,8.2,24.2,21.3,24.2
		c8.8,0,15.4-3.9,21.9-12.8V213h18v-62.8h-18.6L827.3,192L827.3,192z"/>
	<path class="st1" d="M774.6,149.2c-6.9,0-11.8,4.2-20.6,16.4v-16.4l-18.3,2.3V213h18.6v-36.6c7.8-5.6,14.1-7.5,20.9-7.5
		c1.6,0,2.9,0,4.6,0.3l-1-19.3C776.9,149.5,775.9,149.2,774.6,149.2"/>
	<polygon class="st1" points="738.3,127 656.9,127 656.9,144.9 687.6,144.9 687.6,213.3 707.6,213.3 707.6,144.9 738.3,144.9 	"/>
	<path class="st1" d="M633.3,194c-4.9,3.6-9.2,4.9-13.7,4.9c-8.8,0-15.4-6.9-15.4-16.7s6.9-17.3,16.3-17.3c4.6,0,8.2,1,12.4,3.6V194
		L633.3,194L633.3,194z M633.3,155.4c-5.2-3.9-10.8-6.2-16.7-6.2c-8.5,0-15.7,3.3-21.6,9.5c-5.9,6.5-8.8,14.4-8.8,24.2
		c0,8.8,2.6,16.4,7.8,22.2c5.2,5.9,11.5,8.8,19.3,8.8s14.1-2.9,20.3-10.1v8.8H652v-92.5l-18.6,4.9L633.3,155.4L633.3,155.4
		L633.3,155.4z"/>
	<path class="st1" d="M559.1,148.9c-8.5,0-15,3.9-21.9,12.8v-12.1l-18.3,2.3v61.5h18.6v-42.2c5.2-4.6,8.8-5.9,13.4-5.9
		c6.9,0,10.5,4.2,10.5,11.8v36.3h18.6v-40.2C580.4,158,572.2,148.9,559.1,148.9"/>
	<path class="st1" d="M479.3,198.9c-8.8,0-16-7.5-16-17.3s6.5-17.3,16-17.3s16,7.2,16,17C495.4,191.4,488.8,198.9,479.3,198.9
		 M479.7,148.5c-9.8,0-18,3.3-24.2,9.5c-6.5,6.5-9.8,14.4-9.8,23.5c0,9.1,3.3,17.3,9.5,23.5c6.2,6.5,14.4,9.5,24.2,9.5
		s18-3.3,24.2-9.8c6.5-6.5,9.8-14.4,9.8-23.5s-3.3-17.3-9.5-23.5C497.7,151.8,489.5,148.5,479.7,148.5"/>
	<path class="st1" d="M429.3,150.2l-14.1,39.6l-15.4-39.6h-20.3l26.2,60.2c-2.9,6.9-6.9,9.8-13.7,9.8c-3.6,0-6.5-1-10.5-2.9
		l-0.3,0.3l3.6,17c3.6,1.6,6.9,2,10.8,2c12.8,0,22.2-7.5,28.1-22.9l25.2-63.4L429.3,150.2L429.3,150.2z"/>
	<path class="st1" d="M352.5,161.9c7.2,0,12.1,5.6,12.8,14.1h-26.5C339.7,167.5,344.9,161.9,352.5,161.9 M357.7,199.9
		c-10.1,0-17-4.9-19-13.1h43.5c0-2,0.3-4.2,0.3-5.2c0-9.8-2.6-18-7.9-23.9c-5.6-5.9-12.8-8.8-21.9-8.8s-16.7,3.3-22.9,9.5
		c-5.9,6.5-9.2,14.4-9.2,23.5c0,9.8,2.9,18,9.2,23.9c5.9,5.9,14.1,8.8,24.2,8.8c7.9,0,14.1-1.3,21.6-4.9l4.9-15.7l-0.3-0.3
		C372.7,197.9,365.2,199.9,357.7,199.9"/>
	<path class="st1" d="M282.8,197.9H271v-21.6h11.1c9.5,0,14.7,3.9,14.7,10.8C297.2,193.7,291.6,197.9,282.8,197.9 M271.4,142.3h10.5
		c7.9,0,12.4,3.6,12.4,9.8c0,6.5-5.2,10.5-13.1,10.5h-9.8V142.3z M301.1,168.2c7.9-3.9,12.1-10.5,12.1-18.3
		c0-14.4-10.8-22.9-29.1-22.9h-31.7v86h32c9.8,0,17.7-2.3,23.5-6.9c5.9-4.6,8.8-10.5,8.8-18C316.5,178.9,311.3,172.1,301.1,168.2"/>
	<path class="st1" d="M199.8,122.7l-18.6-18.6c0,0-0.3-0.3-0.6,0c-0.3,0-0.3,0.3-0.3,0.3v131.8c0,0.2,0.1,0.3,0.3,0.3h0.6l18.6-18.6
		c0.6-0.6,1.3-2.3,1.3-3.3V126C201.1,125,200.4,123.4,199.8,122.7"/>
	<path class="st1" d="M166.1,92.9H99.7c-0.7,0-1-0.3-1-1V36.4c0-0.2-0.1-0.3-0.3-0.3h-0.7L79.1,54.7c-0.7,0.7-1.3,2.3-1.3,3.3v55.3
		c0,0.3,0.3,0.6,0.7,0.6h66.1c0.6,0,1,0.3,1,1v9.8c0,1.3-1.3,2.6-2.6,2.6H77.8v71c0,8.2,6.5,14.7,14.7,14.7h50.7
		c1.3,0,2.6,1.3,2.6,2.6v9.8c0,0.6-0.3,1-1,1H92.2c-15.7,0-28.1-12.8-28.1-28.1V70.7c0-0.2-0.1-0.3-0.3-0.3h-0.7L44.4,89
		c-0.7,0.7-1.3,2.3-1.3,3.3v112.2c0,23.9,19.3,43.2,43.2,43.2h79.8c0.3,0,0.6-0.3,0.6-0.6V93.3C166.7,92.9,166.4,92.9,166.1,92.9
		L166.1,92.9z M145.5,189.4c0,1.3-1.3,2.6-2.6,2.6h-41.5c-1.3,0-2.6-1.3-2.6-2.6v-38.6c0-1.3,1.3-2.6,2.6-2.6h41.9
		c1.3,0,2.6,1.3,2.6,2.6v38.6H145.5z"/>
</g>
</svg>
