<?xml version="1.0" encoding="UTF-8"?><svg id="Layer_1" xmlns="http://www.w3.org/2000/svg" viewBox="0 0 761.02 400"><defs><style>.cls-1{fill:#4bc5d7;}.cls-1,.cls-2,.cls-3{stroke-width:0px;}.cls-2{fill:#162b54;}.cls-3{fill:#85c880;}</style></defs><path class="cls-2" d="m280.38,143.73v-.21c0-20.38,15.36-37.06,37.37-37.06,13.52,0,21.6,4.51,28.26,11.06l-10.03,11.57c-5.53-5.02-11.16-8.09-18.33-8.09-12.08,0-20.78,10.03-20.78,22.32v.2c0,12.29,8.5,22.53,20.78,22.53,8.19,0,13.21-3.28,18.84-8.4l10.03,10.14c-7.37,7.88-15.56,12.8-29.39,12.8-21.09,0-36.76-16.28-36.76-36.86h0Z"/><path class="cls-2" d="m349.28,152.22v-.21c0-15.77,12.7-28.57,29.8-28.57s29.59,12.59,29.59,28.36v.2c0,15.77-12.7,28.57-29.79,28.57s-29.59-12.59-29.59-28.36h0Zm44.03,0v-.21c0-8.09-5.84-15.15-14.44-15.15s-14.23,6.86-14.23,14.95v.2c0,8.09,5.84,15.15,14.44,15.15s14.23-6.86,14.23-14.95Z"/><path class="cls-2" d="m416.55,124.48h15.56v11.06c3.17-7.58,8.29-12.49,17.51-12.08v16.28h-.82c-10.34,0-16.69,6.25-16.69,19.35v20.27h-15.56v-54.88Z"/><path class="cls-2" d="m452.49,152.22v-.21c0-15.67,11.16-28.57,27.13-28.57,18.33,0,26.72,14.23,26.72,29.8,0,1.23-.1,2.66-.21,4.1h-38.19c1.54,7.06,6.45,10.75,13.41,10.75,5.22,0,9.01-1.64,13.31-5.63l8.91,7.88c-5.12,6.35-12.49,10.24-22.42,10.24-16.48,0-28.67-11.57-28.67-28.36h0Zm38.7-4.61c-.92-6.96-5.02-11.67-11.57-11.67s-10.65,4.61-11.88,11.67h23.45Z"/><path class="cls-2" d="m507.78,124.48h15.77l8.81,33.28,10.34-33.48h13.41l10.44,33.58,9.01-33.38h15.46l-17.1,55.29h-14.03l-10.54-33.69-10.75,33.69h-13.92l-16.89-55.29h0Z"/><path class="cls-2" d="m592.15,152.22v-.21c0-15.67,11.16-28.57,27.13-28.57,18.32,0,26.72,14.23,26.72,29.8,0,1.23-.1,2.66-.2,4.1h-38.19c1.53,7.06,6.45,10.75,13.41,10.75,5.22,0,9.01-1.64,13.31-5.63l8.91,7.88c-5.12,6.35-12.49,10.24-22.43,10.24-16.48,0-28.67-11.57-28.67-28.36h0Zm38.7-4.61c-.92-6.96-5.02-11.67-11.57-11.67s-10.65,4.61-11.88,11.67h23.44Z"/><path class="cls-2" d="m654.2,104.61h15.57v74.74h-15.57v-74.74Z"/><path class="cls-2" d="m683.58,104.61h15.57v74.74h-15.57v-74.74Z"/><path class="cls-2" d="m286.42,217.96h15.77v28.36h29.08v-28.36h15.77v71.67h-15.77v-28.77h-29.08v28.77h-15.77v-71.67Z"/><path class="cls-2" d="m355.12,262.5v-.2c0-15.67,11.16-28.57,27.13-28.57,18.33,0,26.72,14.23,26.72,29.8,0,1.23-.1,2.66-.2,4.1h-38.19c1.54,7.07,6.45,10.75,13.41,10.75,5.22,0,9.01-1.64,13.31-5.63l8.91,7.88c-5.12,6.35-12.49,10.24-22.42,10.24-16.48,0-28.67-11.57-28.67-28.36h0Zm38.7-4.61c-.92-6.96-5.02-11.67-11.57-11.67s-10.65,4.61-11.88,11.67h23.45Z"/><path class="cls-2" d="m414.2,273.86v-.2c0-11.98,9.11-17.51,22.12-17.51,5.53,0,9.52.92,13.41,2.25v-.92c0-6.45-3.99-10.03-11.77-10.03-5.94,0-10.14,1.13-15.15,2.97l-3.89-11.88c6.04-2.66,11.98-4.4,21.3-4.4,8.5,0,14.64,2.25,18.53,6.14,4.1,4.1,5.94,10.14,5.94,17.51v31.84h-15.05v-5.94c-3.79,4.2-9.01,6.96-16.59,6.96-10.34,0-18.84-5.94-18.84-16.79h0Zm35.73-3.58v-2.76c-2.66-1.23-6.14-2.05-9.93-2.05-6.66,0-10.75,2.66-10.75,7.58v.21c0,4.2,3.48,6.66,8.5,6.66,7.27,0,12.18-3.99,12.18-9.62Z"/><path class="cls-2" d="m475.22,214.89h15.56v74.74h-15.56v-74.74Z"/><path class="cls-2" d="m504.92,274.07v-26.01h-6.55v-13.31h6.55v-14.03h15.56v14.03h12.9v13.31h-12.9v23.45c0,3.58,1.54,5.32,5.02,5.32,2.87,0,5.43-.72,7.68-1.95v12.49c-3.28,1.95-7.07,3.17-12.29,3.17-9.52,0-15.97-3.79-15.97-16.48h0Z"/><path class="cls-2" d="m541.78,214.89h15.56v27.65c3.58-4.61,8.19-8.81,16.07-8.81,11.77,0,18.64,7.78,18.64,20.38v35.53h-15.57v-30.61c0-7.37-3.48-11.16-9.42-11.16s-9.72,3.79-9.72,11.16v30.61h-15.56v-74.74Z"/><path class="cls-3" d="m235.47,148.76c-20.85-46.87-82.87-66.33-129.17-46.12-24.61,9.89-47.77,31.72-57.17,59.75-.18.55.04.61.35.12,29.96-49.99,100.18-50.31,129.95-7.04,24.94,35.53,9.05,81.44-31.68,96.86,34.69,14.95,74.87-4.98,88.57-38.81,9.11-19.95,8.74-45.09-.82-64.77h-.02Z"/><path class="cls-1" d="m53.69,244.91c20.85,46.87,82.87,66.33,129.17,46.12,24.61-9.89,47.78-31.72,57.17-59.77.18-.55-.04-.61-.35-.12-29.96,49.99-100.18,50.31-129.95,7.04-24.94-35.53-9.05-81.44,31.68-96.86-34.69-14.95-74.87,4.98-88.57,38.81-9.11,19.95-8.74,45.09.82,64.77l.02.02Z"/><path class="cls-2" d="m594.82,215.85h-3.62v-1.21h8.47v1.21h-3.62v9.81h-1.25v-9.81h.02Zm7.37-1.21h1.33l4.3,6.55,4.3-6.55h1.29v11.04h-1.25v-8.81l-4.26,6.37h-.19l-4.26-6.37v8.81h-1.25v-11.04h-.02Z"/></svg>