<?xml version="1.0" encoding="utf-8"?>
<!-- Generator: Adobe Illustrator 28.1.0, SVG Export Plug-In . SVG Version: 6.00 Build 0)  -->
<svg version="1.1" id="Layer_1" xmlns="http://www.w3.org/2000/svg" xmlns:xlink="http://www.w3.org/1999/xlink" x="0px" y="0px"
	 viewBox="0 0 880 300" style="enable-background:new 0 0 880 300;" xml:space="preserve">
<style type="text/css">
	.st0{fill:#5090CB;}
	.st1{fill:#3475B0;}
	.st2{fill:#808184;}
	.st3{fill:#595A5C;}
	.st4{fill:#231F20;}
</style>
<g>
	<path class="st0" d="M64.6,130.9l33.1-19.1V71.3l-68.2,39.4L64.6,130.9z"/>
	<path class="st1" d="M97.8,228.7l-0.1-40.5l33.1-19.1l35-20.2v40.4L97.8,228.7z M97.6,111.7l33.1,19.1l35-20.2L97.6,71.3V111.7
		L97.6,111.7z"/>
	<path class="st0" d="M97.7,188.2l-33.1-19.1l-35,20.2l68.2,39.3L97.7,188.2L97.7,188.2z"/>
	<path class="st1" d="M64.6,169.1v-38.2l-35.2-20.2l0.1,78.7L64.6,169.1L64.6,169.1z"/>
	<path class="st2" d="M97.6,111.7l33.1,19.1v38.3L97.6,150V111.7z"/>
	<path class="st3" d="M97.6,111.7V150l-33.1,19.1v-38.2L97.6,111.7"/>
	<path class="st4" d="M259.1,178.2c-7.6,7.5-18,11.6-28.7,11.4c-27.8,0-40.4-19-40.4-39.3c-0.9-21,15.4-38.8,36.5-39.8h3.9
		c10.5-0.1,20.6,4,28,11.4l-8.2,8c-5.3-5.1-12.4-7.9-19.8-7.9c-14.8-0.9-27.5,10.3-28.4,24.9c-0.1,1.1-0.1,2.3,0,3.4
		c-0.8,14.6,10.3,27.1,24.9,27.9c1.2,0.1,2.4,0.1,3.5,0c7.6-0.1,14.9-3,20.3-8.3L259.1,178.2L259.1,178.2z M304,145.2l21.7-33.8
		h14.8v0.5l-30.4,44.7V188H298v-31.4l-29.5-44.7v-0.5h14.6L304,145.2L304,145.2z M392,111.4c14.6,0,26.1,6.7,26.1,21.9
		c0,6.8-4.2,12.9-10.6,15.2c7.6,2.5,12.9,9.6,13,17.6c0,17-13.4,21.9-28.4,21.9H357v-76.6L392,111.4L392,111.4z M369.2,143.1h23
		c9.2,0,13.8-3.6,13.8-9.6c0-6-4.6-11-13.8-11h-22.8L369.2,143.1L369.2,143.1z M369.2,176.6H392c6.8,0,16.2-2.2,16.2-10.6
		c0-8.4-9.1-11.9-16.1-11.9H369L369.2,176.6z M497.2,188h-56.5v-76.6h56.2v11.9h-44V144h42.2v11.4h-42.2v20.8h44.3V188L497.2,188z
		 M584.6,188H569l-23.2-26.2h-15.1v26.6h-12.3v-76.8h35.7c13.7-1.1,25.8,9.1,26.9,22.8v2.3c0.7,12.3-8.5,22.8-20.8,23.9l22.8,25.5
		L584.6,188L584.6,188z M530.7,122.5v27.9h23.4c7.2,0.8,13.6-4.2,14.6-11.4c0.1-0.7,0.1-1.4,0-2.1c0.2-7.5-5.6-13.8-13.1-14.1
		c-0.5-0.1-1-0.1-1.5,0L530.7,122.5z"/>
	<path class="st1" d="M653.8,175.4h-34.1l-5,12.6h-22.8l34.1-76.6h22l34.1,76.6h-23.3L653.8,175.4L653.8,175.4z M636.8,132.9
		l-9.8,24.4h19.6L636.8,132.9z M764.8,188h-23.9L723,163.1h-7.6V188h-21.9v-76.6H731c19.6,0,29.8,12.6,29.8,26.3
		c0,9.4-3.3,17.4-16.2,23.1l19.9,25.9L764.8,188L764.8,188z M715.4,128.7v18.4h16c4.4,0.1,8.1-3.3,8.2-7.7c0-0.4,0-0.8,0-1.1
		c0.5-4.7-2.9-8.9-7.6-9.4l0,0L715.4,128.7L715.4,128.7L715.4,128.7L715.4,128.7z M847.5,112.7l-31.1,36.2l33.7,37.8v1.3h-26.8
		l-21.9-25.5V188h-21.7v-76.6h21.7v25l20.2-25.1h25.9L847.5,112.7L847.5,112.7L847.5,112.7z"/>
</g>
</svg>
