<?xml version="1.0" encoding="utf-8"?>
<!-- Generator: Adobe Illustrator 28.1.0, SVG Export Plug-In . SVG Version: 6.00 Build 0)  -->
<svg version="1.1" id="Layer_1" xmlns="http://www.w3.org/2000/svg" xmlns:xlink="http://www.w3.org/1999/xlink" x="0px" y="0px"
	 viewBox="0 0 870.5 300" style="enable-background:new 0 0 870.5 300;" xml:space="preserve">
<style type="text/css">
	.st0{fill:#253571;}
	.st1{fill:#F26922;}
</style>
<g>
	<polygon class="st0" points="137.6,47.4 84.9,63.7 36.3,151.5 79.4,151.5 	"/>
	<polygon class="st0" points="36.7,168.1 70.4,230.6 114.2,230.6 78.5,168.1 	"/>
	<path class="st1" d="M198.8,160.5L172,110.9c-16.1,28.4-44.9,79.2-54.6,95.7l13.4,24H159L198.8,160.5L198.8,160.5z"/>
	<path class="st1" d="M109.5,192.3l54.2-96.9l-17.6-32.7c-13.9,24.5-42.4,74.9-55,96.6L109.5,192.3z"/>
	<path class="st0" d="M261,135v20.2h35.4v14.2H261v27.8h-17.7v-76.4H301V135L261,135L261,135L261,135z"/>
	<path class="st0" d="M302.4,167.8c0-17.7,13.6-30.2,32.3-30.2s32.2,12.5,32.2,30.2c0,17.7-13.5,30.2-32.2,30.2
		S302.4,185.5,302.4,167.8z M349.6,167.8c0-10.1-6.4-16.3-15-16.3s-15.1,6.1-15.1,16.3c0,10.2,6.6,16.3,15.1,16.3
		C343.2,184.1,349.6,178,349.6,167.8z"/>
	<path class="st0" d="M411.2,137.6v15.7c-1.4-0.1-2.5-0.2-3.8-0.2c-9.4,0-15.6,5.1-15.6,16.4v27.7h-17v-58.7H391v7.7
		C395.1,140.5,402.1,137.6,411.2,137.6L411.2,137.6z"/>
	<path class="st0" d="M479.8,138.5v48.9c0,21.8-11.8,31.9-33,31.9c-11.1,0-21.9-2.7-28.8-8.1l6.8-12.2c6,4.4,13.3,6.7,20.7,6.7
		c12,0,17.2-5.5,17.2-16.1v-2.5c-4.8,5-11.6,7.6-18.5,7.3c-16.3,0-29.4-11.2-29.4-28.4c0-17.2,13.2-28.4,29.4-28.4
		c8.2,0,15,2.7,19.4,8.4v-7.5H479.8L479.8,138.5L479.8,138.5z M463,166c0-8.6-6.4-14.4-15.4-14.4s-15.5,5.8-15.5,14.4
		c0,8.6,6.6,14.4,15.5,14.4C456.6,180.4,463,174.6,463,166z"/>
	<path class="st0" d="M549,172.6h-44.4c1.6,7.3,7.8,11.8,16.8,11.8c5.5,0.2,10.8-1.8,14.7-5.7l9.1,9.8c-5.5,6.2-13.7,9.5-24.2,9.5
		c-20.3,0-33.5-12.8-33.5-30.2s13.4-30.2,31.3-30.2c17.9,0,30.5,11.6,30.5,30.5C549.3,169.4,549.1,171.2,549,172.6L549,172.6z
		 M504.3,162.7h28.9c-1.3-8-8.9-13.4-16.9-12C510.2,151.7,505.4,156.5,504.3,162.7L504.3,162.7z"/>
	<path class="st0" d="M605.8,197.2l-14.7-21.3h-16.3v21.3h-17.7v-76.4h33.1c20.4,0,33.2,10.6,33.2,27.7c0.4,10.6-5.9,20.2-15.7,24.1
		l17.1,24.6H605.8L605.8,197.2z M589.2,135.2h-14.4v26.6h14.4c10.8,0,16.3-5,16.3-13.3C605.5,140.2,600,135.2,589.2,135.2
		L589.2,135.2L589.2,135.2z"/>
	<path class="st0" d="M628.6,167.8c0-17.7,13.7-30.2,32.3-30.2s32.2,12.5,32.2,30.2c0,17.7-13.5,30.2-32.2,30.2
		C642.2,198,628.6,185.5,628.6,167.8z M675.8,167.8c0-10.1-6.4-16.3-15-16.3s-15.1,6.1-15.1,16.3c0,10.2,6.6,16.3,15.1,16.3
		S675.8,178,675.8,167.8z"/>
	<path class="st0" d="M700.5,167.8c0-17.7,13.7-30.2,32.8-30.2c12.3,0,22,5.4,26.3,14.9l-13.2,7.1c-2.5-5-7.6-8.1-13.2-8.1
		c-8.6,0-15.4,6-15.4,16.3c0,10.3,6.8,16.3,15.4,16.3c5.6,0.1,10.7-3.1,13.2-8.1l13.2,7.2c-4.3,9.4-14,14.8-26.3,14.8
		C714.1,198,700.5,185.5,700.5,167.8L700.5,167.8z"/>
	<path class="st0" d="M793.3,174.1l-8.2,8.1v14.9h-17v-80.9h17V162l24.9-23.6h20.3l-24.4,24.9l26.6,33.8h-20.6L793.3,174.1
		L793.3,174.1z"/>
	<path class="st0" d="M845.2,145.4c0.1,3.6-2.8,6.6-6.4,6.8c-3.6,0.1-6.7-2.8-6.8-6.4c-0.1-3.6,2.8-6.6,6.4-6.8h0.2
		C842.1,138.9,845.1,141.8,845.2,145.4L845.2,145.4L845.2,145.4z M833.6,145.4c0.1,2.7,2.4,4.9,5.1,4.8c2.7-0.1,4.8-2.4,4.8-5.1
		c-0.1-2.6-2.3-4.8-4.9-4.8s-5,2.2-4.9,5L833.6,145.4L833.6,145.4z M837.6,148.8h-1.5v-6.4c0.8-0.1,1.6-0.2,2.5-0.2
		c0.8-0.1,1.5,0.1,2.2,0.5c0.4,0.4,0.6,0.9,0.6,1.4c-0.1,0.7-0.6,1.3-1.3,1.5v0.1c0.7,0.3,1.1,0.9,1.2,1.6c0.1,0.6,0.2,1.1,0.5,1.6
		h-1.6c-0.2-0.5-0.4-1-0.5-1.6c-0.1-0.7-0.5-1-1.3-1h-0.7L837.6,148.8L837.6,148.8L837.6,148.8L837.6,148.8z M837.6,145.2h0.7
		c0.8,0,1.5-0.3,1.5-0.9c0-0.6-0.4-1-1.4-1c-0.3,0-0.5,0-0.8,0.1V145.2L837.6,145.2L837.6,145.2z"/>
</g>
</svg>
