<?xml version="1.0" encoding="utf-8"?>
<!-- Generator: Adobe Illustrator 28.1.0, SVG Export Plug-In . SVG Version: 6.00 Build 0)  -->
<svg version="1.1" id="Layer_1" xmlns="http://www.w3.org/2000/svg" xmlns:xlink="http://www.w3.org/1999/xlink" x="0px" y="0px"
	 viewBox="0 0 558 300" style="enable-background:new 0 0 558 300;" xml:space="preserve">
<style type="text/css">
	.st0{fill:#2C70B8;}
</style>
<g>
	<polygon id="Rectangle-path" class="st0" points="49.1,225.1 137.6,225.1 137.6,237.8 49.1,237.8 	"/>
	<polygon id="Rectangle-path-2" class="st0" points="49.1,200.8 137.6,200.8 137.6,213.5 49.1,213.5 	"/>
	<polygon id="Rectangle-path-3" class="st0" points="74.4,176.5 112.3,176.5 112.3,189.2 74.4,189.2 	"/>
	<polygon id="Rectangle-path-4" class="st0" points="74.4,152.2 112.3,152.2 112.3,165 74.4,165 	"/>
	<polygon id="Rectangle-path-5" class="st0" points="74.4,128 112.3,128 112.3,140.7 74.4,140.7 	"/>
	<polygon id="Rectangle-path-6" class="st0" points="74.4,103.7 112.3,103.7 112.3,116.4 74.4,116.4 	"/>
	<rect id="Rectangle-path-7" x="49.1" y="79.4" class="st0" width="88.6" height="12.7"/>
	<rect id="Rectangle-path-8" x="49.1" y="55.1" class="st0" width="88.6" height="12.7"/>
	<path id="Shape" class="st0" d="M150.3,213.5h136.2c2.3-3.9,4-8.2,5-12.7H150.3V213.5L150.3,213.5z"/>
	<path id="Shape-2" class="st0" d="M275.9,152.2H175.6V165h110.9C283.6,160.1,280,155.8,275.9,152.2L275.9,152.2z"/>
	<path id="Shape-3" class="st0" d="M175.6,128v12.7h100.3c4.2-3.6,7.8-7.9,10.6-12.7H175.6L175.6,128z"/>
	<path id="Shape-4" class="st0" d="M286.5,79.4H150.3v12.7h141.3C290.4,87.6,288.6,83.3,286.5,79.4L286.5,79.4z"/>
	<path id="Shape-5" class="st0" d="M244.6,55.1h-94.3v12.7h126.9C268.7,60,257.2,55.1,244.6,55.1z"/>
	<rect id="Rectangle-path-9" x="175.6" y="103.7" class="st0" width="37.9" height="12.7"/>
	<path id="Shape-6" class="st0" d="M251.5,116.4h39.7c1.1-4.1,1.7-8.4,1.7-12.7h-41.4L251.5,116.4L251.5,116.4L251.5,116.4z"/>
	<polygon id="Rectangle-path-10" class="st0" points="175.6,176.5 213.5,176.5 213.5,189.2 175.6,189.2 	"/>
	<path id="Shape-7" class="st0" d="M251.5,176.5v12.7h41.4c0-4.4-0.6-8.7-1.7-12.7H251.5L251.5,176.5z"/>
	<path id="Shape-8" class="st0" d="M150.3,237.7l94.3,0.1c12.6,0,24-4.9,32.6-12.7H150.3V237.7L150.3,237.7z"/>
	<polygon id="Rectangle-path-11" class="st0" points="302.1,225.1 365.4,225.1 365.4,237.8 302.1,237.8 	"/>
	<polygon id="Rectangle-path-12" class="st0" points="302.1,200.8 365.4,200.8 365.4,213.5 302.1,213.5 	"/>
	<polygon id="Rectangle-path-13" class="st0" points="327.4,176.5 365.4,176.5 365.4,189.2 327.4,189.2 	"/>
	<polygon id="Rectangle-path-14" class="st0" points="327.4,152.2 365.4,152.2 365.4,165 327.4,165 	"/>
	<polygon id="Shape-9" class="st0" points="383,79.4 302.1,79.4 302.1,92.1 387.4,92.1 	"/>
	<polygon id="Shape-10" class="st0" points="374.6,55.1 302.1,55.1 302.1,67.8 379,67.8 	"/>
	<polygon id="Rectangle-path-15" class="st0" points="441.3,225.1 504.6,225.1 504.6,237.8 441.3,237.8 	"/>
	<polygon id="Rectangle-path-16" class="st0" points="441.3,200.8 504.6,200.8 504.6,213.5 441.3,213.5 	"/>
	<polygon id="Rectangle-path-17" class="st0" points="441.3,176.5 479.3,176.5 479.3,189.2 441.3,189.2 	"/>
	<polygon id="Rectangle-path-18" class="st0" points="441.3,152.2 479.3,152.2 479.3,165 441.3,165 	"/>
	<polygon id="Shape-11" class="st0" points="441.3,140.7 479.3,140.7 479.3,128 441.3,128 441.3,128 406.9,128 403.3,138.3 
		399.8,128 365.4,128 365.4,128 327.4,128 327.4,140.7 365.4,140.7 365.4,129 369.4,140.7 437.3,140.7 441.3,129 	"/>
	<polygon id="Shape-12" class="st0" points="479.3,103.7 415.3,103.7 410.9,116.4 479.3,116.4 	"/>
	<polygon id="Shape-13" class="st0" points="432.1,55.1 427.7,67.8 504.6,67.8 504.6,55.1 	"/>
	<polygon id="Shape-14" class="st0" points="403.3,237.7 407.7,225.1 399,225.1 	"/>
	<polygon id="Shape-15" class="st0" points="394.9,213.5 411.7,213.5 416.2,200.8 390.5,200.8 	"/>
	<polygon id="Shape-16" class="st0" points="386.4,189.2 420.2,189.2 424.7,176.5 382,176.5 	"/>
	<polygon id="Shape-17" class="st0" points="377.9,165 428.8,165 433.1,152.2 373.6,152.2 	"/>
	<polygon id="Shape-18" class="st0" points="327.4,116.4 395.8,116.4 391.4,103.7 327.4,103.7 	"/>
	<polygon id="Shape-19" class="st0" points="419.3,92.1 504.6,92.1 504.6,79.4 423.7,79.4 	"/>
</g>
</svg>
