<?xml version="1.0" encoding="utf-8"?>
<!-- Generator: Adobe Illustrator 28.1.0, SVG Export Plug-In . SVG Version: 6.00 Build 0)  -->
<svg version="1.1" id="Layer_1" xmlns="http://www.w3.org/2000/svg" xmlns:xlink="http://www.w3.org/1999/xlink" x="0px" y="0px"
	 viewBox="0 0 934 300" style="enable-background:new 0 0 934 300;" xml:space="preserve">
<style type="text/css">
	.st0{fill:#2C3173;}
	.st1{fill:#5FBFD4;}
</style>
<g>
	<path class="st0" d="M896.1,173.8c0,13.8-4.1,17.9-15.1,21.3c-11.9,3.6-33,5.9-45.6,5.9c-14.9,0-33.5-0.9-49.3-4.6v-16h87.4v-21.8
		h-61.9c-18.6,0-25.5-5.1-25.5-23.2v-9.7c0-14.4,4.3-18.6,15.8-21.6c11.7-3,30.8-5,43.4-5c15.2,0,33.5,1.2,49.3,4.8v16h-86v18.3
		h61.9c18.6,0,25.5,5,25.5,23.2L896.1,173.8L896.1,173.8z"/>
	<path class="st0" d="M747.2,196c-18.1,3.6-36.3,4.6-54.1,4.6s-36.2-1.1-54.4-4.6v-92.2c18.1-3.6,36.5-4.8,54.1-4.8
		s35.6,1.1,53.7,4.8v16.5h-81.9v18.4H718v19.1h-53.4v21.8h82.3V196L747.2,196L747.2,196z"/>
	<path class="st0" d="M607.1,196c-16.3,3.6-32.6,4.6-48.4,4.6s-32.5-0.9-48.8-4.6v-94.7H536v77.1h71.1V196L607.1,196z"/>
	<path class="st0" d="M479.4,196.8c-8.7,2.5-20.2,3.4-28.7,3.6l-40.2-81.2h-2.3l-40.1,81.2c-8.5-0.2-18.6-1.1-27.3-3.6l50.9-95.2
		H428L479.4,196.8L479.4,196.8z"/>
	<path class="st1" d="M426.2,172.5c0,9.4-7.6,16.8-17,16.8s-16.8-7.6-16.8-16.8c0-9.2,7.6-16.8,16.8-16.8S426.2,163,426.2,172.5"/>
	<path class="st0" d="M309.2,196.8c-8.3,2.5-17.2,3.2-26.1,3.4v-41.3h-64.7v41.3c-8.9-0.2-17.7-1.1-26.1-3.4v-93.6
		c8.3-2.5,17.2-3.2,26.1-3.4v39.9h64.7V99.8c8.9,0.2,17.7,1.1,26.1,3.4V196.8z"/>
	<path class="st0" d="M155.3,120.5h-45.8v78H83.6v-78H37.9v-16.7c19.7-3.6,39.5-4.8,58.7-4.8s39,1.1,58.7,4.8V120.5L155.3,120.5z"/>
</g>
</svg>
