<?xml version="1.0" encoding="utf-8"?>
<!-- Generator: Adobe Illustrator 28.1.0, SVG Export Plug-In . SVG Version: 6.00 Build 0)  -->
<svg version="1.1" id="Layer_1" xmlns="http://www.w3.org/2000/svg" xmlns:xlink="http://www.w3.org/1999/xlink" x="0px" y="0px"
	 viewBox="0 0 808 300" style="enable-background:new 0 0 808 300;" xml:space="preserve">
<style type="text/css">
	.st0{fill:#261E23;}
	.st1{fill:#206273;}
	.st2{fill:#206272;}
	.st3{fill:#226278;}
	.st4{fill:#E6242C;}
</style>
<g>
	<path class="st0" d="M704.2,175.7c4.4-12.9,8.6-25.5,13.1-38c5.9-16.7,12.1-33.3,18.1-49.9c0.9-2.6,2.1-3.6,5-3.5
		c8.3,0.2,16.5,0.1,24.8,0.1c1.2,0,2.4,0.1,3.8,0.2v124.9h-22.4v-95.6c-0.6,1.7-0.9,2.7-1.3,3.8c-10.8,29.9-21.7,59.9-32.6,89.8
		c-0.4,1-2,1.5-3.1,2.3c-0.1,0.1-0.2,0-0.4,0c-3.9-0.1-8.8,1.2-11.5-0.6s-3.4-6.8-4.7-10.4c-9.9-27.5-19.8-55.1-29.7-82.6
		c-0.2-0.5-0.5-1-0.8-1.6v95H640v-125c3,0,5.9,0,8.8,0c6.7,0,13.3,0.1,20-0.1c2.5-0.1,3.7,0.7,4.5,3.1
		c10.1,28.9,20.2,57.8,30.4,86.6C703.7,174.5,703.9,174.9,704.2,175.7L704.2,175.7z"/>
	<path class="st1" d="M121.1,105.4c-7-1.1-13.2-2.8-19.5-2.9c-23.6-0.3-43.1,17.7-45.1,41.2c-1.9,22.4,14.3,43,37.1,47.2
		c32.5,6,60.1-24,51.3-55.8c-0.7-2.6-0.2-3.9,2.1-5.3c5.3-3.3,10.4-7,16.5-11.1c1.6,5.8,3.8,11.2,4.7,16.9
		c5.7,37.7-17.5,70.7-55.1,77.4c-39.2,7-74.7-21.2-78.6-58.4c-4-36.1,20.4-68.1,56.3-73.9c9.9-1.6,19.6-0.9,29.3,1.8
		c2.2,0.6,3,1.6,2.8,3.8C122.2,92.8,121.7,99.4,121.1,105.4L121.1,105.4z"/>
	<path class="st0" d="M626.7,209.6c-8.2,0-15.6,0.1-22.9-0.1c-0.9,0-2.2-1.7-2.7-2.9c-3.4-8.6-6.8-17.1-10-25.8
		c-0.9-2.3-2-3.1-4.6-3.1c-13.7,0.1-27.4,0.1-41.1,0c-2.3,0-3.5,0.7-4.3,2.9c-3.2,8.5-6.7,16.9-9.7,25.5c-1,2.9-2.5,3.6-5.4,3.6
		c-6.7-0.2-13.5-0.1-20.8-0.1c3.4-8.5,6.6-16.4,9.8-24.4c12.9-32.3,25.9-64.6,38.7-96.9c1.2-3,2.6-4.2,5.8-4c4.4,0.3,8.9,0.2,13.3,0
		c2.8-0.2,4.1,0.9,5.1,3.4c13.8,34.7,27.7,69.4,41.6,104.1C621.8,197.4,624.1,203.1,626.7,209.6L626.7,209.6z M582,158.1
		c-5.3-14.5-10.5-28.6-15.9-43.3c-5.4,14.8-10.6,28.9-15.9,43.3H582L582,158.1z"/>
	<path class="st1" d="M201.6,202.6v49.5h-21.7V119.2h19c0.4,3.1,0.8,6.2,1.3,9.8c0.9-0.6,1.7-0.9,2.1-1.5
		c15.4-18.1,47.3-12,57.9,9.8c5,10.2,6.2,20.9,5.3,32c-0.7,9.2-3.4,17.9-8.7,25.6c-9.7,14-27.5,20.3-42.6,14.7
		C210.1,207.9,206.2,205.2,201.6,202.6L201.6,202.6z M201.8,164.6c0,5.9-0.1,11.8,0,17.7c0,1.3,0.2,2.9,1,3.8
		c10.5,10.8,30,12.9,37.2-4.6c4.7-11.4,4.7-23.1,0.4-34.6c-3.5-9.2-11.6-14-20.6-12.6c-5.9,0.9-11.1,3.4-15.3,7.6
		c-1.5,1.5-2.5,3.9-2.6,6C201.5,153.5,201.8,159,201.8,164.6L201.8,164.6z"/>
	<path class="st2" d="M353.2,189.5c0,5.3,0.1,10.2-0.1,15.1c0,0.9-1.4,2.4-2.4,2.7c-16.1,4.6-32.5,6.3-48.8,1.3
		c-15.9-4.9-26.4-19.1-27.4-36.6c-0.6-10.4,0.1-20.6,4.4-30.4c10.8-24.4,38.5-29.8,58.1-20.2c11.1,5.5,16.3,15.5,18.3,27.1
		c1.2,7,1.1,14.1,1.6,21.8h-59.8c-1,9.5,5.4,18.7,15,21.9s19.2,2.4,28.8,0.4C345,191.7,348.9,190.6,353.2,189.5L353.2,189.5z
		 M333.7,153.8c0.6-11.9-6.6-20.3-17-20.1s-19.3,9.8-18.5,20.1H333.7z"/>
	<path class="st3" d="M451.5,209.2h-21.3c-0.1-1.4-0.2-2.7-0.2-4c0-17,0-34,0-51c0-0.5,0-1,0-1.5c0.8-17-11.1-19.7-22.5-16.6
		c-5.6,1.6-10.4,4.7-14.1,9.1c-1.1,1.2-1.6,3.3-1.6,5c-0.1,18.4-0.2,36.7,0,55.1c0,3.5-1.1,4.4-4.4,4.3c-5.8-0.2-11.5-0.1-17.5-0.1
		v-90.2h17.8c0.7,3.9,1.4,7.9,2.3,12.5c1.1-1,1.8-1.6,2.5-2.3c11.1-11.8,24.6-15,39.9-10.8c11.1,3.1,18.9,12.7,19.2,24.6
		c0.5,21.6,0.2,43.1,0.2,64.7C451.9,208.3,451.7,208.6,451.5,209.2L451.5,209.2z"/>
	<path class="st0" d="M469.3,84.5H492v124.8h-22.6C469.3,209.3,469.3,84.5,469.3,84.5z"/>
	<path class="st4" d="M113.1,126.6c-4.3,8.4-8.7,16.9-13.4,26c8.5-3.5,16.7-6.9,25-10.3c2.7,10.1-2.7,21.2-12.7,26
		c-10.3,4.9-22.7,1.9-29.5-7.1s-6.2-21.6,1.2-29.9C91,123.1,103.4,120.9,113.1,126.6L113.1,126.6z"/>
</g>
</svg>
