<?xml version="1.0" encoding="utf-8"?>
<!-- Generator: Adobe Illustrator 28.1.0, SVG Export Plug-In . SVG Version: 6.00 Build 0)  -->
<svg version="1.1" id="Layer_1" xmlns="http://www.w3.org/2000/svg" xmlns:xlink="http://www.w3.org/1999/xlink" x="0px" y="0px"
	 viewBox="0 0 833 300" style="enable-background:new 0 0 833 300;" xml:space="preserve">
<style type="text/css">
	.st0{fill:url(#SVGID_1_);}
	.st1{fill:url(#SVGID_00000035533106403655663910000004576628504303147925_);}
	.st2{fill:url(#SVGID_00000171001167268961353270000007326882312280509825_);}
	.st3{fill:url(#SVGID_00000099663815599671775700000016949858214707549862_);}
	.st4{fill:url(#SVGID_00000014600155379113283730000015942533080653161915_);}
	.st5{fill:url(#SVGID_00000125562506782418037150000008529461546486112647_);}
	.st6{fill:url(#SVGID_00000120520466712936692180000001790797802369732510_);}
	.st7{fill:url(#SVGID_00000044881424011487382360000010176857304219770045_);}
	.st8{fill:url(#SVGID_00000142885770951703892510000014772376090644303264_);}
	.st9{fill:url(#SVGID_00000075145925168393300940000006441419222692419238_);}
	.st10{fill:url(#SVGID_00000028319078605766019620000010901651514791333529_);}
	.st11{fill:url(#SVGID_00000037685949297237380700000004540429155037005705_);}
	.st12{fill:url(#SVGID_00000116921571901962946700000000221837067587155590_);}
	.st13{fill:none;}
	.st14{fill:url(#SVGID_00000021835878295277345420000003814835789752781746_);}
	.st15{fill:url(#SVGID_00000094575923333270978630000011627009598378621614_);}
	.st16{fill:url(#SVGID_00000102519229487598656300000001127019327503962502_);}
	.st17{fill:url(#SVGID_00000078737762851998894950000008190555973486753411_);}
	.st18{fill:#54C2E5;}
	.st19{fill:url(#_Q_Top_facet_00000005249216777835278700000005089875918343937712_);}
	.st20{opacity:0.5;fill:url(#_Q_Top_facet-2_00000088103967045559506970000017062922610846517898_);enable-background:new    ;}
	.st21{fill:#50C1E4;}
	.st22{fill:url(#SVGID_00000163062397675119404900000015330949272772226984_);}
	.st23{opacity:0.5;fill:url(#SVGID_00000160187308497065400950000009168573633285376945_);enable-background:new    ;}
	.st24{fill:url(#SVGID_00000159447064779396676570000015686615848266059138_);}
	.st25{fill:url(#_I_Facet_00000134225554011035735460000009048213088465557393_);}
	.st26{opacity:0.5;fill:url(#_I_Facet-2_00000160888293197217933200000002603046813840208780_);enable-background:new    ;}
	.st27{fill:#64C7F1;}
	.st28{fill:#A2A5A9;}
</style>
<g>
	
		<linearGradient id="SVGID_1_" gradientUnits="userSpaceOnUse" x1="109.7372" y1="153.04" x2="109.7372" y2="-1.56" gradientTransform="matrix(1 0 0 1 0 52.11)">
		<stop  offset="0.33" style="stop-color:#2FA8DF"/>
		<stop  offset="0.79" style="stop-color:#2077BC"/>
	</linearGradient>
	<path class="st0" d="M187.9,131.6c-3.4-12.4-10.6-23.3-20.4-30.9c-4-28.6-28.6-50.2-57.9-50.2S56,72.4,52,100.7
		c-22.7,17.7-29.3,49.7-14.5,75.1c7.7,13.5,20.4,23.3,35.4,27.2c5,1.3,10,2.1,15.1,2.1c7.4,0,14.8-1.6,21.9-4.2
		c7.1,2.9,14.5,4.2,21.7,4.2c20.1,0,39.9-10.6,50.5-29.1C190,162.3,191.8,146.8,187.9,131.6L187.9,131.6z M109.6,69.3
		c14.3,0,27,7.7,34.1,19.3h0.3c-19.3-6.6-43.6-8.7-67.9-0.3C82.9,76.9,95.4,69.2,109.6,69.3L109.6,69.3z M77.7,185
		c-10.3-2.6-18.8-9.2-24.1-18.5c-7.1-12.4-6.9-27.2-0.3-39.1c4,19.8,14.3,42,33.8,58.9C84,186.1,80.8,185.8,77.7,185L77.7,185z
		 M107.5,181.1c0.8-0.5,1.3-0.8,2.1-1.3c-28-17.2-38.9-46.5-39.6-68.5c30.1-16.4,62.1-9.8,81.1,1.1c-0.8-0.5-1.3-0.8-2.1-1.3
		C148.2,145.4,126.5,170,107.5,181.1L107.5,181.1z M165.9,166.5c-7.1,12.4-20.1,19.6-33.8,19.8c-0.3,0.3-0.5,0.5-1.1,0.8
		c15.6-13.2,30.1-33.6,35.2-59.5c1.6,2.6,2.6,5.8,3.7,8.7C172.6,146.8,171.2,157.3,165.9,166.5L165.9,166.5z"/>
	
		<linearGradient id="SVGID_00000100384361108579354330000016249087058799745727_" gradientUnits="userSpaceOnUse" x1="75.8" y1="71.1347" x2="172.35" y2="71.1347" gradientTransform="matrix(1 0 0 1 0 52.11)">
		<stop  offset="0" style="stop-color:#2077BC"/>
		<stop  offset="0.27" style="stop-color:#2FA8DF"/>
		<stop  offset="1" style="stop-color:#84CEF3"/>
	</linearGradient>
	<path style="fill:url(#SVGID_00000100384361108579354330000016249087058799745727_);" d="M143.7,88.6c-19.3-6.6-43.6-8.7-67.9-0.3
		c50.2,1.9,79,26.4,79,26.4l0,0c7.4,5.3,12.7,12.9,15.1,21.9s1.6,18.5-2.4,27l0,0C167.5,163.4,188.7,122.4,143.7,88.6L143.7,88.6z"
		/>
	
		<linearGradient id="SVGID_00000011001301179096414520000017779227272530647682_" gradientUnits="userSpaceOnUse" x1="174.8226" y1="52.6077" x2="127.4726" y2="131.4076" gradientTransform="matrix(1 0 0 1 0 52.11)">
		<stop  offset="0" style="stop-color:#1694D2"/>
		<stop  offset="0.15" style="stop-color:#3ABAEC"/>
		<stop  offset="0.49" style="stop-color:#2FA8DF;stop-opacity:0.8"/>
		<stop  offset="1" style="stop-color:#5382C2"/>
	</linearGradient>
	<path style="fill:url(#SVGID_00000011001301179096414520000017779227272530647682_);" d="M132.1,186.4c0,0,52.1,4.5,56.6-51.8
		c-0.3-0.8-0.5-1.9-0.8-2.6c-4-15.1-13.7-27.5-27.2-35.4c-5-2.9-10.8-5.6-16.9-7.7c44.9,33.8,23.8,74.8,23.8,74.8l0,0
		c-0.5,1.1-1.1,2.1-1.6,2.9C158.8,179,145.6,186.1,132.1,186.4L132.1,186.4z"/>
	
		<linearGradient id="SVGID_00000143603033201718041890000000765778644027835821_" gradientUnits="userSpaceOnUse" x1="122.2847" y1="161.2147" x2="194.8848" y2="88.6147" gradientTransform="matrix(1 0 0 1 0 52.11)">
		<stop  offset="7.000000e-02" style="stop-color:#0C519A"/>
		<stop  offset="0.25" style="stop-color:#2077BC"/>
		<stop  offset="0.48" style="stop-color:#2077BC;stop-opacity:0.9"/>
		<stop  offset="0.73" style="stop-color:#0C519A"/>
	</linearGradient>
	<path style="fill:url(#SVGID_00000143603033201718041890000000765778644027835821_);" d="M132.1,186.4c-5,4.5-10,7.9-15.1,10.8
		c-2.4,1.3-4.8,2.6-7.1,3.4c7.1,2.9,14.5,4.2,21.7,4.2c20.1,0,39.9-10.6,50.5-29.1c7.4-12.7,9.5-27.2,6.6-41.5
		C184.2,190.9,132.1,186.4,132.1,186.4L132.1,186.4z"/>
	
		<linearGradient id="SVGID_00000047781761829036402500000007340811245116775579_" gradientUnits="userSpaceOnUse" x1="70.7241" y1="61.1626" x2="148.8544" y2="40.2225" gradientTransform="matrix(1 0 0 1 0 52.11)">
		<stop  offset="0" style="stop-color:#2FA8DF"/>
		<stop  offset="0.13" style="stop-color:#84CEF3"/>
		<stop  offset="0.48" style="stop-color:#84CEF3"/>
		<stop  offset="1" style="stop-color:#2FA8DF"/>
	</linearGradient>
	<path style="fill:url(#SVGID_00000047781761829036402500000007340811245116775579_);" d="M75.8,88.3c-3.7,6.1-5.8,12.9-5.8,20.4
		v2.4c30.1-16.4,62.1-9.8,81.2,1.1c1.1,0.8,2.4,1.3,3.4,2.1l0,0C154.8,114.7,126,90.1,75.8,88.3L75.8,88.3z"/>
	
		<linearGradient id="SVGID_00000176037325873476815530000010677462357514774162_" gradientUnits="userSpaceOnUse" x1="79.9" y1="134.24" x2="79.9" y2="17.3373" gradientTransform="matrix(1 0 0 1 0 52.11)">
		<stop  offset="0.33" style="stop-color:#2FA8DF"/>
		<stop  offset="0.79" style="stop-color:#2077BC"/>
	</linearGradient>
	<path style="fill:url(#SVGID_00000176037325873476815530000010677462357514774162_);" d="M53.3,127.4c4,19.8,14.3,42,33.8,58.9
		C63.6,142,70.5,105,70.5,105l0,0c0.8-9,4.8-17.4,11.4-24.1c6.6-6.6,15.3-10.6,24.6-11.4l0,0C106.2,69.3,60.2,71.7,53.3,127.4
		L53.3,127.4z"/>
	
		<linearGradient id="SVGID_00000006674387224576698830000016316484670038547605_" gradientUnits="userSpaceOnUse" x1="51.42" y1="40.969" x2="143.72" y2="40.969" gradientTransform="matrix(1 0 0 1 0 52.11)">
		<stop  offset="0" style="stop-color:#2FA8DF"/>
		<stop  offset="1" style="stop-color:#84CEF3"/>
	</linearGradient>
	<path style="fill:url(#SVGID_00000006674387224576698830000016316484670038547605_);" d="M143.7,88.6c0,0-21.9-47.3-73.2-23
		c-0.5,0.8-1.3,1.3-2.1,2.1c-11.1,11.1-17.2,25.6-17.2,41.2c0,5.8,0.5,12.2,1.9,18.5c7.1-55.8,53.1-58.2,53.1-58.2l0,0
		c1.1,0,2.4-0.3,3.4-0.3C124.2,69.2,136.9,76.9,143.7,88.6L143.7,88.6z"/>
	
		<linearGradient id="SVGID_00000070080554766766609010000011113625529766282156_" gradientUnits="userSpaceOnUse" x1="75.8264" y1="-0.9915" x2="172.6564" y2="34.2585" gradientTransform="matrix(1 0 0 1 0 52.11)">
		<stop  offset="7.000000e-02" style="stop-color:#2077BC"/>
		<stop  offset="0.35" style="stop-color:#2FA8DF"/>
		<stop  offset="0.39" style="stop-color:#44B0E4"/>
		<stop  offset="0.49" style="stop-color:#6AC1ED"/>
		<stop  offset="0.57" style="stop-color:#7DCDF3"/>
		<stop  offset="0.63" style="stop-color:#84CEF3"/>
		<stop  offset="0.69" style="stop-color:#7FCEF3"/>
		<stop  offset="0.76" style="stop-color:#71C6EF"/>
		<stop  offset="0.82" style="stop-color:#5DB9E8"/>
		<stop  offset="0.88" style="stop-color:#38A7DF"/>
		<stop  offset="0.9" style="stop-color:#20A2DC"/>
	</linearGradient>
	<path style="fill:url(#SVGID_00000070080554766766609010000011113625529766282156_);" d="M143.7,88.6c6.3,2.1,12.2,4.8,16.9,7.7
		c2.4,1.3,4.5,2.9,6.6,4.5c-1.1-7.7-3.4-14.8-7.1-20.9c-10-17.7-28.8-29.3-50.5-29.3c-14.5,0-28.3,5.3-39.1,15.1
		C121.5,41.2,143.7,88.6,143.7,88.6L143.7,88.6z"/>
	
		<linearGradient id="SVGID_00000021110667801660795370000014623117790836989365_" gradientUnits="userSpaceOnUse" x1="109.73" y1="93.6545" x2="69.4668" y2="93.6545" gradientTransform="matrix(1 0 0 1 0 52.11)">
		<stop  offset="0.25" style="stop-color:#1998D5"/>
		<stop  offset="0.31" style="stop-color:#1C91CF"/>
		<stop  offset="0.41" style="stop-color:#1881C1"/>
		<stop  offset="0.55" style="stop-color:#0F69AD"/>
		<stop  offset="0.66" style="stop-color:#0C519A"/>
	</linearGradient>
	<path style="fill:url(#SVGID_00000021110667801660795370000014623117790836989365_);" d="M86.9,186.4c6.9,0.3,14-1.6,20.6-5.3
		c0.8-0.5,1.3-0.8,2.1-1.3c-29.1-18-39.7-48.9-39.7-70.8c0-1.3,0-2.6,0.3-4l0,0C70.2,104.7,63.6,141.8,86.9,186.4L86.9,186.4z"/>
	
		<linearGradient id="SVGID_00000154425776065263984000000010091033600525493907_" gradientUnits="userSpaceOnUse" x1="55.5" y1="108.2736" x2="166.2" y2="108.2736" gradientTransform="matrix(1 0 0 1 0 52.11)">
		<stop  offset="0.2" style="stop-color:#1C4B97"/>
		<stop  offset="0.51" style="stop-color:#2077BC"/>
		<stop  offset="0.69" style="stop-color:#2077BC"/>
		<stop  offset="1" style="stop-color:#0C5DA5"/>
	</linearGradient>
	<path style="fill:url(#SVGID_00000154425776065263984000000010091033600525493907_);" d="M132.1,186.4
		c15.3-13.2,29.3-33.3,34.1-58.7c-26.7,42.6-62.1,55.2-62.1,55.2l0,0c-8.2,3.7-17.4,4.5-26.4,2.1s-16.9-7.9-22.2-15.6l0,0
		C55.5,169.4,80.3,208,132.1,186.4L132.1,186.4z"/>
	
		<linearGradient id="SVGID_00000158725662487628337470000002121879369679592888_" gradientUnits="userSpaceOnUse" x1="43.8375" y1="114.1326" x2="132.1675" y2="114.1326" gradientTransform="matrix(1 0 0 1 0 52.11)">
		<stop  offset="6.000000e-02" style="stop-color:#0C519A"/>
		<stop  offset="0.16" style="stop-color:#2077BC"/>
		<stop  offset="0.57" style="stop-color:#2FA8DF"/>
	</linearGradient>
	<path style="fill:url(#SVGID_00000158725662487628337470000002121879369679592888_);" d="M53.3,127.4c0,0-29.9,42.8,16.6,74.8
		c0.8,0.3,1.9,0.5,2.6,0.8c15.1,4,30.7,1.9,44.1-5.8c5-2.9,10-6.6,15.1-10.8c-51.8,21.9-76.6-16.9-76.6-16.9l0,0
		c-0.5-1.1-1.3-1.9-1.9-2.9C46.4,154.1,46.7,139.3,53.3,127.4L53.3,127.4z"/>
	
		<linearGradient id="SVGID_00000031887403316894571600000004447868109135882909_" gradientUnits="userSpaceOnUse" x1="78.993" y1="64.2955" x2="38.9299" y2="133.7011" gradientTransform="matrix(1 0 0 1 0 52.11)">
		<stop  offset="0.6" style="stop-color:#84CEF3"/>
		<stop  offset="1" style="stop-color:#2FA8DF"/>
	</linearGradient>
	<path style="fill:url(#SVGID_00000031887403316894571600000004447868109135882909_);" d="M53.3,127.4c-1.3-6.6-1.9-12.7-1.9-18.5
		c0-2.6,0.3-5.3,0.5-7.9c-6.1,4.8-10.8,10.3-14.5,16.6c-10,17.4-10.8,39.7,0,58.4c7.4,12.7,18.8,21.9,32.8,26.4
		C23.2,170.2,53.3,127.4,53.3,127.4z"/>
	
		<linearGradient id="SVGID_00000039127159838763859670000015631154563996426413_" gradientUnits="userSpaceOnUse" x1="135.15" y1="130.76" x2="135.15" y2="59.06" gradientTransform="matrix(1 0 0 1 0 52.11)">
		<stop  offset="0" style="stop-color:#2FA8DF"/>
		<stop  offset="0.58" style="stop-color:#84CEF3"/>
		<stop  offset="0.85" style="stop-color:#1383C6"/>
	</linearGradient>
	<path style="fill:url(#SVGID_00000039127159838763859670000015631154563996426413_);" d="M166.2,127.7c-3.4-6.1-8.5-11.4-14.8-15.1
		c-0.8-0.5-1.3-0.8-2.1-1.3c-0.8,34.1-22.5,58.7-41.5,69.8c-1.1,0.8-2.4,1.3-3.7,1.9l0,0C104.1,182.9,139.5,170.2,166.2,127.7
		L166.2,127.7z"/>
	<path class="st13" d="M304.7,142c2.4-2.9,3.2-6.6,3.2-9.8c0-3.4-0.8-7.1-2.6-9.8c-4.2-6.6-10.8-6.6-16.9-6.9h-50.8v33.3H283
		C290.2,148.8,299.4,148.8,304.7,142z"/>
	
		<linearGradient id="SVGID_00000053514807784796232500000013517826097173773459_" gradientUnits="userSpaceOnUse" x1="1030.7281" y1="2780.0435" x2="1033.5881" y2="2780.0435" gradientTransform="matrix(194.04 0 0 -194.04 -199778.2812 539590.375)">
		<stop  offset="0" style="stop-color:#1983C6"/>
		<stop  offset="0.23" style="stop-color:#1A84C7"/>
		<stop  offset="0.36" style="stop-color:#2089CA"/>
		<stop  offset="0.47" style="stop-color:#2991CC"/>
		<stop  offset="0.56" style="stop-color:#2C9CD4"/>
		<stop  offset="0.65" style="stop-color:#3AAEDB"/>
		<stop  offset="0.73" style="stop-color:#4CC0E4"/>
		<stop  offset="0.73" style="stop-color:#50C1E4"/>
		<stop  offset="0.99" style="stop-color:#84C7EE"/>
		<stop  offset="1" style="stop-color:#84C7EE"/>
	</linearGradient>
	<path style="fill:url(#SVGID_00000053514807784796232500000013517826097173773459_);" d="M396.2,129c0,4.2,0.8,10,6.6,15.3
		c7.1,6.3,15.1,7.9,38.1,9.8c18.2,1.6,32.8,1.9,32.8,14.8c0,11.1-11.1,18.8-31.2,18.8c-12.2,0-24.3-2.1-34.4-9c-3.4-2.4-5-4-6.3-5.6
		l-11.9,5c2.6,3.7,9.2,13.5,28.3,18.2c6.6,1.6,16.1,2.6,23.8,2.6c19,0,33.3-4.5,40.4-14.5c4-5.8,4.8-11.6,4.8-15.3
		c0-15.1-11.1-20.6-21.2-23c-4-0.8-7.9-1.3-11.9-1.9c-8.5-0.8-16.7-1.3-24.8-2.4c-8.7-0.8-13.5-2.4-16.6-6.1
		c-1.6-1.9-2.6-4.2-2.6-7.1c0-3.7,1.9-8.5,8.2-11.6c5.6-2.6,14.8-3.7,22.2-3.7c10,0,20.1,1.9,28.5,7.7c2.1,1.6,3.4,2.9,5.3,4.8
		l11.9-4.8c-2.6-3.7-4.8-6.1-9.2-9.2c-10.6-7.1-23.8-9.2-36.7-9.2C431.1,102,396.2,102.8,396.2,129L396.2,129z"/>
	
		<linearGradient id="SVGID_00000064334457415933473230000018120986817977696700_" gradientUnits="userSpaceOnUse" x1="1030.7281" y1="2780.0452" x2="1033.5881" y2="2780.0452" gradientTransform="matrix(194.04 0 0 -194.04 -199778.2812 539590.375)">
		<stop  offset="0" style="stop-color:#1983C6"/>
		<stop  offset="0.23" style="stop-color:#1A84C7"/>
		<stop  offset="0.36" style="stop-color:#2089CA"/>
		<stop  offset="0.47" style="stop-color:#2991CC"/>
		<stop  offset="0.56" style="stop-color:#2C9CD4"/>
		<stop  offset="0.65" style="stop-color:#3AAEDB"/>
		<stop  offset="0.73" style="stop-color:#4CC0E4"/>
		<stop  offset="0.73" style="stop-color:#50C1E4"/>
		<stop  offset="0.99" style="stop-color:#84C7EE"/>
		<stop  offset="1" style="stop-color:#84C7EE"/>
	</linearGradient>
	<path style="fill:url(#SVGID_00000064334457415933473230000018120986817977696700_);" d="M237.6,159.8H282l31.2,36.7h17.2
		l-33.9-38.8c6.1-1.1,24.9-4,24.9-26.2c0-11.1-5.3-17.2-8.2-19.6c-7.9-7.1-17.7-7.4-25.9-7.4h-62.6v92h13L237.6,159.8L237.6,159.8z
		 M237.6,115.5h50.5c6.1,0,12.7,0,16.9,6.9c1.9,2.6,2.6,6.3,2.6,9.8c0,3.2-0.8,6.9-3.2,9.8c-5.3,6.9-14.3,7.1-21.4,7.1h-45.5v-33.6
		H237.6L237.6,115.5z"/>
	
		<linearGradient id="SVGID_00000072263342747181996190000013431541421993649045_" gradientUnits="userSpaceOnUse" x1="1030.7181" y1="2780.0452" x2="1033.6082" y2="2780.0452" gradientTransform="matrix(194.04 0 0 -194.04 -199778.2812 539590.375)">
		<stop  offset="0" style="stop-color:#1983C6"/>
		<stop  offset="0.23" style="stop-color:#1A84C7"/>
		<stop  offset="0.36" style="stop-color:#2089CA"/>
		<stop  offset="0.47" style="stop-color:#2991CC"/>
		<stop  offset="0.56" style="stop-color:#2C9CD4"/>
		<stop  offset="0.65" style="stop-color:#3AAEDB"/>
		<stop  offset="0.73" style="stop-color:#4CC0E4"/>
		<stop  offset="0.73" style="stop-color:#50C1E4"/>
		<stop  offset="0.99" style="stop-color:#84C7EE"/>
		<stop  offset="1" style="stop-color:#84C7EE"/>
	</linearGradient>
	
		<rect x="353.4" y="104.4" style="fill:url(#SVGID_00000072263342747181996190000013431541421993649045_);" width="13.5" height="92"/>
	
		<linearGradient id="SVGID_00000011013896541473224800000014916630673269838512_" gradientUnits="userSpaceOnUse" x1="1030.7281" y1="2780.0452" x2="1033.5881" y2="2780.0452" gradientTransform="matrix(194.04 0 0 -194.04 -199778.2812 539590.375)">
		<stop  offset="0" style="stop-color:#1983C6"/>
		<stop  offset="0.23" style="stop-color:#1A84C7"/>
		<stop  offset="0.36" style="stop-color:#2089CA"/>
		<stop  offset="0.47" style="stop-color:#2991CC"/>
		<stop  offset="0.56" style="stop-color:#2C9CD4"/>
		<stop  offset="0.65" style="stop-color:#3AAEDB"/>
		<stop  offset="0.73" style="stop-color:#4CC0E4"/>
		<stop  offset="0.73" style="stop-color:#50C1E4"/>
		<stop  offset="0.99" style="stop-color:#84C7EE"/>
		<stop  offset="1" style="stop-color:#84C7EE"/>
	</linearGradient>
	<polygon style="fill:url(#SVGID_00000011013896541473224800000014916630673269838512_);" points="523.1,168.4 550.8,147.5 
		593.1,196.4 610.5,196.4 561.4,139.8 608.7,104.4 589.7,104.4 523.3,153.6 523.3,104.4 510.4,104.4 510.4,196.4 523.1,196.4 	"/>
	<path class="st18" d="M764.1,207.2h17.2L762,185c5.5-5.8,14.3-15.1,14.5-34.6c0-7.9-1.8-15.3-5-21.7c-0.3-0.8-0.8-1.3-1.1-2.1
		l-0.3-0.3c-0.8-1.3-1.6-2.4-2.4-3.4c0,0,0-0.3-0.3-0.3c-9.2-12.7-25.4-20.4-44.7-20.4c-12.2,0-24.3,2.6-34.4,9.8
		c-4.8,3.4-8.7,7.7-11.4,11.4c-5.8,8.2-8.5,18.8-8.5,28.6c0,10.8,3.2,20.1,8.7,27.5c1.1,1.3,2.1,2.6,3.4,4
		c8.2,8.5,20.1,13.8,34.4,15.1c2.4,0.3,4.8,0.3,7.1,0.3c15.6,0,24.8-3.7,29.3-5.8L764.1,207.2L764.1,207.2z M688,127.9
		c6.9-9.8,19.3-14.3,33.3-14.8c17.7-0.5,31.5,6.3,38.1,18.2c3.2,5.6,4.8,11.9,4.8,19.3c0,11.4-4.5,29.3-25.6,35.2
		c-4.5,1.3-9.5,1.9-15.6,1.9c-25.9,0-41.5-13.7-41.5-37C681.4,141.8,684.3,133.5,688,127.9L688,127.9z"/>
	
		<linearGradient id="_Q_Top_facet_00000060027568438123434900000013222056682316014505_" gradientUnits="userSpaceOnUse" x1="1033.0182" y1="2780.0942" x2="1033.5481" y2="2780.0942" gradientTransform="matrix(194.04 0 0 -194.04 -199778.2812 539590.375)">
		<stop  offset="5.000000e-02" style="stop-color:#0B7AB7"/>
		<stop  offset="9.000000e-02" style="stop-color:#1680BC"/>
		<stop  offset="0.23" style="stop-color:#2096CB"/>
		<stop  offset="0.35" style="stop-color:#2FA4D2"/>
		<stop  offset="0.42" style="stop-color:#33A9D5"/>
		<stop  offset="0.43" style="stop-color:#32ABD7;stop-opacity:0.97"/>
		<stop  offset="0.6" style="stop-color:#42B9E1;stop-opacity:0.64"/>
		<stop  offset="0.76" style="stop-color:#4FC1E6;stop-opacity:0.32"/>
		<stop  offset="0.92" style="stop-color:#54C2E5;stop-opacity:0"/>
	</linearGradient>
	<path id="_Q_Top_facet" style="fill:url(#_Q_Top_facet_00000060027568438123434900000013222056682316014505_);" d="M683,132.8
		c2.6-3.7,6.9-7.9,11.6-11.4c10-7.1,19.8-7.9,30.9-8.2c18-0.5,38.8,2.6,46,15.6c-0.3-0.8-0.8-1.3-1.1-2.1l-0.3-0.3
		c-0.8-1.3-1.6-2.4-2.4-3.4c0,0,0-0.3-0.3-0.3c-9.2-12.7-25.4-20.4-44.7-20.4c-12.2,0-24.3,2.6-34.4,9.8c-4.8,3.4-8.7,7.7-11.4,11.4
		c-5.8,8.2-8.5,18.8-8.5,28.6c0,10.8,3.2,20.1,8.7,27.5c-2.4-4-2.9-15.1-3.2-18.5C674.3,151.2,677.2,140.9,683,132.8L683,132.8z"/>
	
		<linearGradient id="_Q_Top_facet-2_00000114776808639303527590000011566233241220948406_" gradientUnits="userSpaceOnUse" x1="1032.9923" y1="2780.0376" x2="1033.5123" y2="2780.2275" gradientTransform="matrix(194.04 0 0 -194.04 -199778.2812 539590.375)">
		<stop  offset="5.000000e-02" style="stop-color:#137DBB"/>
		<stop  offset="7.000000e-02" style="stop-color:#1480BE"/>
		<stop  offset="0.21" style="stop-color:#2196CC"/>
		<stop  offset="0.32" style="stop-color:#2FA4D2"/>
		<stop  offset="0.38" style="stop-color:#33A9D5"/>
		<stop  offset="0.4" style="stop-color:#32ABD7;stop-opacity:0.97"/>
		<stop  offset="0.52" style="stop-color:#42B9E1;stop-opacity:0.64"/>
		<stop  offset="0.64" style="stop-color:#4FC1E6;stop-opacity:0.32"/>
		<stop  offset="0.77" style="stop-color:#54C2E5;stop-opacity:0"/>
	</linearGradient>
	
		<path id="_Q_Top_facet-2" style="opacity:0.5;fill:url(#_Q_Top_facet-2_00000114776808639303527590000011566233241220948406_);enable-background:new    ;" d="
		M683,132.8c2.6-3.7,6.6-7.9,11.6-11.4c10-6.6,19.3-8.2,30.1-8.2c18,0,39.9,2.6,46.8,15.6c-0.3-0.8-0.8-1.3-1.1-2.1l-0.3-0.3
		c-0.8-1.3-1.6-2.4-2.4-3.4c0,0,0-0.3-0.3-0.3c-9.2-12.7-25.4-20.4-44.7-20.4c-12.2,0-24.3,2.6-34.4,9.8c-4.8,3.4-8.7,7.7-11.4,11.4
		c-5.8,8.2-8.5,18.8-8.5,28.6c0,10.8,3.2,20.1,8.7,27.5c-2.4-4-2.9-15.1-3.2-18.5C674.3,151.2,677.2,140.9,683,132.8L683,132.8z"/>
	<g id="_Q_bottom_facet">
		<path class="st21" d="M747.2,189.8c4.5-2.9,8.2-6.6,10.6-9.8c5.5-7.4,7.9-16.6,8.2-25.4c0.3-9.8-2.4-17.7-7.7-24.6
			c0,0,0,0.3,0.3,0.3c0.3,0.5,0.5,0.8,0.8,1.3c3.2,5.6,4.8,11.9,4.8,19.3c0,11.4-4.5,29.3-25.6,35.2c-3.2,0.8-6.9,1.6-11.1,1.9
			c-7.7,1.1-17.2-1.1-17.2-1.1c-13-0.3-24.8-0.5-32.8-7.4c0,0,0,0.3,0.3,0.3c1.1,1.3,2.1,2.6,3.4,4c5.8,6.1,13.5,10.3,22.7,12.9
			c3.7,0.8,7.9,1.3,11.9,1.6C726.9,198.3,738,196.1,747.2,189.8L747.2,189.8z"/>
		
			<linearGradient id="SVGID_00000049183317485659517970000002961536601716248994_" gradientUnits="userSpaceOnUse" x1="1038.4192" y1="2752.6545" x2="1038.8992" y2="2752.6545" gradientTransform="matrix(-193.9753 -5.0117 -5.0117 193.9753 216034.6094 -528576.625)">
			<stop  offset="2.000000e-02" style="stop-color:#0B7AB7"/>
			<stop  offset="0.35" style="stop-color:#33A9D5"/>
			<stop  offset="0.5" style="stop-color:#42B9E1;stop-opacity:0.66"/>
			<stop  offset="0.65" style="stop-color:#4FC1E6;stop-opacity:0.31"/>
			<stop  offset="0.78" style="stop-color:#54C2E5;stop-opacity:0"/>
		</linearGradient>
		<path style="fill:url(#SVGID_00000049183317485659517970000002961536601716248994_);" d="M747.2,189.8c4.5-2.9,8.2-6.6,10.6-9.8
			c5.5-7.4,7.9-16.6,8.2-25.4c0.3-9.8-2.4-17.7-7.7-24.6c0,0,0,0.3,0.3,0.3c0.3,0.5,0.5,0.8,0.8,1.3c3.2,5.6,4.8,11.9,4.8,19.3
			c0,11.4-4.5,29.3-25.6,35.2c-3.2,0.8-6.9,1.6-11.1,1.9c-8.2,0.8-16.9-1.1-16.9-1.1c-13-0.3-25.1-0.5-33-7.4c0,0,0,0.3,0.3,0.3
			c1.1,1.3,2.1,2.6,3.4,4c5.8,6.1,13.5,10.3,22.7,12.9c3.7,0.8,7.9,1.3,11.9,1.6C726.9,198.3,738,196.1,747.2,189.8L747.2,189.8z"/>
		
			<linearGradient id="SVGID_00000090254485622696159930000004726625460619911613_" gradientUnits="userSpaceOnUse" x1="1038.4192" y1="2752.6538" x2="1038.8992" y2="2752.6538" gradientTransform="matrix(-193.9753 -5.0117 -5.0117 193.9753 216034.6094 -528576.625)">
			<stop  offset="2.000000e-02" style="stop-color:#137DBB"/>
			<stop  offset="0.32" style="stop-color:#33A9D5"/>
			<stop  offset="0.34" style="stop-color:#33ACD8;stop-opacity:0.94"/>
			<stop  offset="0.46" style="stop-color:#43BBE2;stop-opacity:0.64"/>
			<stop  offset="0.58" style="stop-color:#4FC1E6;stop-opacity:0.33"/>
			<stop  offset="0.71" style="stop-color:#54C2E5;stop-opacity:0"/>
		</linearGradient>
		<path style="opacity:0.5;fill:url(#SVGID_00000090254485622696159930000004726625460619911613_);enable-background:new    ;" d="
			M747.2,189.8c4.5-2.9,8.2-6.6,10.6-9.8c5.5-7.4,7.9-16.6,8.2-25.4c0.3-9.8-2.4-17.7-7.7-24.6c0,0,0,0.3,0.3,0.3
			c0.3,0.5,0.5,0.8,0.8,1.3c3.2,5.6,4.8,11.9,4.8,19.3c0,11.4-4.5,29.3-25.6,35.2c-3.2,0.8-6.9,1.6-11.1,1.9
			c-7.1,0.8-16.7-1.1-16.7-1.1c-13-0.3-25.4-0.5-33.3-7.7c0,0,0,0.3,0.3,0.3c1.1,1.3,2.1,2.6,3.4,4c5.8,6.1,13.5,10.3,22.7,12.9
			c3.7,0.8,7.9,1.3,11.9,1.6C726.9,198.3,738,196.1,747.2,189.8L747.2,189.8z"/>
	</g>
	
		<linearGradient id="SVGID_00000030446961510680198190000009221226726042206599_" gradientUnits="userSpaceOnUse" x1="228.87" y1="98.34" x2="778.79" y2="98.34" gradientTransform="matrix(1 0 0 1 0 52.11)">
		<stop  offset="0" style="stop-color:#1080C3"/>
		<stop  offset="0.23" style="stop-color:#1181C3"/>
		<stop  offset="0.36" style="stop-color:#1685C6"/>
		<stop  offset="0.46" style="stop-color:#238ECA"/>
		<stop  offset="0.55" style="stop-color:#249AD1"/>
		<stop  offset="0.64" style="stop-color:#35AAD9"/>
		<stop  offset="0.71" style="stop-color:#46BFE6"/>
		<stop  offset="0.73" style="stop-color:#50C1E4"/>
		<stop  offset="0.99" style="stop-color:#84C7EE"/>
		<stop  offset="1" style="stop-color:#84C7EE"/>
	</linearGradient>
	
		<rect x="630.9" y="104.4" style="fill:url(#SVGID_00000030446961510680198190000009221226726042206599_);" width="13.5" height="92"/>
	
		<linearGradient id="_I_Facet_00000094581057716163429070000011990758135897111173_" gradientUnits="userSpaceOnUse" x1="918.528" y1="3332.051" x2="921.3881" y2="3332.051" gradientTransform="matrix(4.69 0 0 -4.69 -3678.1201 15777.7695)">
		<stop  offset="0" style="stop-color:#0B7AB7"/>
		<stop  offset="0.79" style="stop-color:#2FA8DF"/>
		<stop  offset="0.87" style="stop-color:#31ACE2"/>
		<stop  offset="0.96" style="stop-color:#47B8E9"/>
		<stop  offset="1" style="stop-color:#54BEED"/>
	</linearGradient>
	<path id="_I_Facet" style="fill:url(#_I_Facet_00000094581057716163429070000011990758135897111173_);" d="M644.4,104.4h-13.5
		c3.4,52.6,13.5,92,13.5,92V104.4z"/>
	
		<linearGradient id="_I_Facet-2_00000115497213941366643750000018157578865878499981_" gradientUnits="userSpaceOnUse" x1="918.528" y1="3332.051" x2="921.3881" y2="3332.051" gradientTransform="matrix(4.69 0 0 -4.69 -3678.1201 15777.7695)">
		<stop  offset="0" style="stop-color:#137DBB"/>
		<stop  offset="0.56" style="stop-color:#2FA8DF"/>
		<stop  offset="0.72" style="stop-color:#31ACE2;stop-opacity:0.63"/>
		<stop  offset="0.91" style="stop-color:#47B8E9;stop-opacity:0.19"/>
		<stop  offset="1" style="stop-color:#54BEED;stop-opacity:0"/>
	</linearGradient>
	
		<path id="_I_Facet-2" style="opacity:0.5;fill:url(#_I_Facet-2_00000115497213941366643750000018157578865878499981_);enable-background:new    ;" d="
		M644.4,104.4h-13.5c3.4,52.6,13.5,92,13.5,92V104.4z"/>
	<path class="st27" d="M781,106.3c0-2.4,0.5-4.5,1.6-6.3c1.1-2.1,2.6-3.7,4.8-4.8s4.2-1.9,6.6-1.9s4.5,0.5,6.3,1.9
		c2.1,1.1,3.7,2.6,4.8,4.8c1.1,2.1,1.8,4.2,1.8,6.6s-0.5,4.5-1.6,6.3c-1.1,2.1-2.6,3.7-4.8,4.8c-2.1,1.3-4.2,1.9-6.6,1.9
		s-4.5-0.5-6.6-1.9c-2.1-1.1-3.7-2.9-4.8-4.8C781.6,110.8,781,108.7,781,106.3z M782.9,106.3c0,2.1,0.5,4,1.6,5.6
		c1.1,1.9,2.4,3.2,4,4c1.8,1.1,3.7,1.6,5.5,1.6c2.1,0,4-0.5,5.5-1.6c1.6-1.1,3.2-2.4,4-4c1.1-1.6,1.6-3.4,1.6-5.6s-0.5-4-1.6-5.6
		s-2.4-3.2-4-4c-1.6-1.1-3.7-1.6-5.5-1.6c-2.1,0-4,0.5-5.5,1.6c-1.6,1.1-3.2,2.4-4,4C783.4,102.3,782.9,104.2,782.9,106.3z
		 M799.3,103.1c0,0.8-0.3,1.9-0.8,2.4c-0.5,0.8-1.1,1.3-2.1,1.6l4,6.9h-2.9l-3.4-6.1h-2.4v6.1H789V98.6h4.5c1.8,0,3.2,0.3,4.2,1.1
		C798.8,100.5,799.3,101.5,799.3,103.1z M791.6,105.7h1.8c0.8,0,1.6-0.3,2.1-0.8s0.8-1.1,0.8-1.9s-0.3-1.6-0.8-1.9s-1.3-0.5-2.4-0.5
		h-1.8v5L791.6,105.7L791.6,105.7z"/>
	<path class="st28" d="M417.2,229.2h3.1l8.8,20h-3.7l-1.9-4.7H414l-2.1,4.7h-3.5L417.2,229.2L417.2,229.2z M422.1,241.4l-3.5-7.9
		l-3.3,7.9H422.1z"/>
	<path class="st28" d="M441.6,229.2h3.7l6,9.5l6-9.5h3.7V249h-3.5v-14.2l-6.3,9.3H451l-6.1-9.3V249h-3.5v-19.8H441.6L441.6,229.2z"
		/>
	<path class="st28" d="M466.8,229.2h3.5V249h-3.5V229.2z"/>
	<path class="st28" d="M474.9,239.2L474.9,239.2c0-5.8,4.2-10.3,10.2-10.3c3.7,0,6,1.2,7.7,3.1l-2.3,2.6c-1.6-1.4-3.3-2.5-5.6-2.5
		c-3.9,0-6.5,3.1-6.5,7l0,0c0,3.9,2.8,7,6.5,7c2.5,0,4-1,5.8-2.6l2.3,2.3c-2.1,2.1-4.4,3.5-8.1,3.5
		C479.3,249.5,474.9,245,474.9,239.2L474.9,239.2z"/>
	<path class="st28" d="M497.1,229.2h8.8c2.5,0,4.4,0.7,5.8,1.9c1,1,1.6,2.6,1.6,4.2l0,0c0,3.3-1.9,5.3-4.7,6l5.4,7.5h-4l-4.9-6.8
		h-4.4v6.8h-3.5v-19.6H497.1z M505.7,239.2c2.5,0,4-1.2,4-3.3l0,0c0-2.1-1.6-3.3-4-3.3h-5.1v6.7L505.7,239.2L505.7,239.2z"/>
	<path class="st28" d="M516.9,239.2L516.9,239.2c0-5.6,4.4-10.3,10.3-10.3s10.3,4.6,10.3,10.2l0,0c0,5.6-4.4,10.3-10.3,10.3
		S516.9,244.9,516.9,239.2z M534.1,239.2L534.1,239.2c0-3.9-2.8-7.2-6.8-7.2s-6.7,3.1-6.7,7l0,0c0,3.9,2.8,7,6.8,7
		C531.3,246.2,534.1,243,534.1,239.2L534.1,239.2z"/>
	<path class="st28" d="M540.8,246.2l2.1-2.5c1.9,1.6,3.9,2.6,6.3,2.6c2.1,0,3.5-1,3.5-2.5l0,0c0-1.4-0.9-2.1-4.6-3
		c-4.2-1-6.7-2.3-6.7-6l0,0c0-3.3,2.8-5.8,6.8-5.8c3,0,5.3,0.9,7.2,2.5l-1.9,2.6c-1.8-1.4-3.5-2.1-5.4-2.1c-2.1,0-3.2,1-3.2,2.3l0,0
		c0,1.6,0.9,2.3,4.7,3.1c4.2,1,6.3,2.5,6.3,5.8l0,0c0,3.7-3,6-7,6C546.1,249.4,543.2,248.4,540.8,246.2L540.8,246.2z"/>
	<path class="st28" d="M559.7,239.2L559.7,239.2c0-5.6,4.4-10.3,10.3-10.3s10.3,4.6,10.3,10.2l0,0c0,5.6-4.4,10.3-10.3,10.3
		S559.7,244.9,559.7,239.2z M576.9,239.2L576.9,239.2c0-3.9-2.8-7.2-6.8-7.2s-6.7,3.1-6.7,7l0,0c0,3.9,2.8,7,6.8,7
		C574.1,246.2,576.9,243,576.9,239.2L576.9,239.2z"/>
	<path class="st28" d="M584.9,229.2h14.7v3.1h-11.2v5.4h10v3.1h-10v8.1h-3.5V229.2L584.9,229.2z"/>
	<path class="st28" d="M608.8,232.5h-6.3v-3.1h16.1v3.1h-6.3v16.6h-3.5V232.5L608.8,232.5L608.8,232.5z"/>
	<path class="st28" d="M630.5,239.2L630.5,239.2c0-5.8,4.2-10.3,10.2-10.3c3.7,0,6,1.2,7.7,3.1l-2.3,2.6c-1.6-1.4-3.3-2.5-5.6-2.5
		c-3.9,0-6.5,3.1-6.5,7l0,0c0,3.9,2.8,7,6.5,7c2.5,0,4-1,5.8-2.6l2.3,2.3c-2.1,2.1-4.4,3.5-8.1,3.5
		C634.7,249.5,630.5,245,630.5,239.2L630.5,239.2z"/>
	<path class="st28" d="M651.2,239.2L651.2,239.2c0-5.6,4.4-10.3,10.3-10.3s10.3,4.6,10.3,10.2l0,0c0,5.6-4.4,10.3-10.3,10.3
		S651.2,244.9,651.2,239.2z M668.2,239.2L668.2,239.2c0-3.9-2.8-7.2-6.8-7.2s-6.7,3.1-6.7,7l0,0c0,3.9,2.8,7,6.8,7
		C665.6,246.2,668.2,243,668.2,239.2L668.2,239.2z"/>
	<path class="st28" d="M676.4,229.2h3.7l6,9.5l6-9.5h3.7V249h-3.5v-14.2l-6.3,9.3h-0.2l-6.1-9.3V249h-3.5v-19.8H676.4L676.4,229.2z"
		/>
	<path class="st28" d="M701.3,229.2h7.9c4.6,0,7.5,2.6,7.5,6.7l0,0c0,4.4-3.5,6.8-7.9,6.8H705v6.3h-3.5v-19.8H701.3L701.3,229.2z
		 M708.8,239.5c2.6,0,4.2-1.4,4.2-3.5l0,0c0-2.3-1.8-3.5-4.2-3.5h-4v7.2h4V239.5L708.8,239.5z"/>
	<path class="st28" d="M725.7,229.2h3.2l8.8,20H734l-1.9-4.7h-9.5l-2.1,4.7H717L725.7,229.2L725.7,229.2z M730.6,241.4l-3.5-7.9
		l-3.3,7.9H730.6L730.6,241.4z"/>
	<path class="st28" d="M741.3,229.2h3.2l10.7,13.7v-13.7h3.5V249h-3l-10.9-14.2V249h-3.5V229.2L741.3,229.2L741.3,229.2z"/>
	<path class="st28" d="M769.8,241.4l-7.9-12.1h4l5.6,8.8l5.6-8.8h4l-7.9,11.9v7.9h-3.5L769.8,241.4L769.8,241.4L769.8,241.4z"/>
</g>
</svg>
