<?xml version="1.0" encoding="utf-8"?>
<!-- Generator: Adobe Illustrator 28.1.0, SVG Export Plug-In . SVG Version: 6.00 Build 0)  -->
<svg version="1.1" id="Layer_1" xmlns="http://www.w3.org/2000/svg" xmlns:xlink="http://www.w3.org/1999/xlink" x="0px" y="0px"
	 viewBox="0 0 525 300" style="enable-background:new 0 0 525 300;" xml:space="preserve">
<style type="text/css">
	.st0{fill:#BF3B34;}
</style>
<g>
	<path class="st0" d="M261.5,136.8c-23.9-6.4-33.2-11.8-33.2-22.8c0-16.6,21.4-18.2,29-18.2c12,0,27.4,3.8,36.4,8.3l9.6-18
		c-12.2-6-31-10-46.7-10c-33.4,0-54.2,14.5-54.2,39.2c0,28.2,29.5,36.2,52.4,42.3c23.8,6.4,32.2,13.6,32.2,24.6
		c0,18.3-19.5,21.1-31.5,21.1c-16.6,0-30.2-4.4-43.6-12.2l-11.4,18.4c16.9,9.9,34.4,14.5,55,14.5c34.5,0,57.4-17,57.4-43.3
		C312.8,151.2,285,143,261.5,136.8"/>
	<path class="st0" d="M171.7,120.5c-0.4-25.4-20.8-43.1-49.7-43.1H59.6v145.5h22.8V98.6h38.4c12.9,0,26.7,6.5,26.9,22.2
		c0.2,13.9-10.5,22.7-28.6,23.4h-0.4l-13.8,0.1l45.9,78.7h26.9c0,0-22.1-38.1-35.9-61.9C162.2,153.8,171.9,137.3,171.7,120.5"/>
	<path class="st0" d="M481,222.6h-27.8L402.8,108l-48.3,114.6h-28L390,76.5h26.1L481,222.6L481,222.6z"/>
</g>
</svg>
