<?xml version="1.0" encoding="utf-8"?>
<!-- Generator: Adobe Illustrator 28.1.0, SVG Export Plug-In . SVG Version: 6.00 Build 0)  -->
<svg version="1.1" id="Layer_1" xmlns="http://www.w3.org/2000/svg" xmlns:xlink="http://www.w3.org/1999/xlink" x="0px" y="0px"
	 viewBox="0 0 822 300" style="enable-background:new 0 0 822 300;" xml:space="preserve">
<style type="text/css">
	.st0{fill:#233F96;}
	.st1{fill:#B94198;}
	.st2{fill:#2C70B8;}
	.st3{fill:#CF82B7;}
</style>
<g>
	<path class="st0" d="M245,152.1c-8.3-2.3-12.7-6.5-12.7-12.2c0-7.1,6.5-12,15.3-12c8.8,0,15,4.9,15.3,12.7h22.4
		c-0.3-19.8-15.3-33-37.4-33s-38.1,13.9-38.1,33c0,15.1,9.6,25.8,28.6,31.6l13.7,3.9c10.2,2.9,14.4,6.8,14,13.6
		c-0.1,7.7-6.8,12.7-17.3,12.7c-11.3,0-17-6.6-17.6-13.6h-22.7c0.5,19.8,16.8,33.3,40.1,33.3c18.8,0,39.5-10.2,39.8-32.3
		c0.5-16.2-9.7-27.3-30.4-33.3L245,152.1L245,152.1z"/>
	<path class="st0" d="M332.8,143.6c-10.2,0.3-19.8,4.5-26.9,11.7c-7.1,7.3-11.1,17-11.1,27.2c0,10.2,4,19.9,11.1,27.2
		c7.1,7.3,16.7,11.6,26.9,11.7c6.3,0,17.1-3.1,21.6-9.9l1.4-2.2v10.9H377v-74.9h-21v10l-1.4-2C347.8,144,334.2,143.6,332.8,143.6
		L332.8,143.6z M335,201.8c-2.6,0.1-5.1-0.3-7.6-1.2s-4.6-2.3-6.5-4c-1.9-1.7-3.4-3.9-4.3-6.2c-1.1-2.3-1.5-4.9-1.5-7.4
		c0-2.6,0.5-5.1,1.5-7.4c1.1-2.3,2.5-4.5,4.3-6.2c1.8-1.7,4-3.1,6.5-4s4.9-1.2,7.6-1.2c2.5,0,4.9,0.5,7.3,1.4s4.5,2.3,6.2,4
		c1.9,1.7,3.2,3.9,4.2,6.2c0.9,2.3,1.5,4.8,1.5,7.3s-0.5,4.9-1.5,7.3c-0.9,2.3-2.3,4.5-4.2,6.2c-1.9,1.7-3.9,3.1-6.2,4
		C340.1,201.2,337.4,201.8,335,201.8L335,201.8z"/>
	<path class="st0" d="M410.5,145.4h-21v74.9h21V145.4L410.5,145.4z"/>
	<path class="st0" d="M444.3,109.1h-21.2v111.2h21.2V109.1L444.3,109.1z"/>
	<path class="st0" d="M501.9,109h-45.5v111.3h22.5v-38.9h23c26.9,0,36.4-19.5,36.4-36.1C538.3,120.3,520.1,109,501.9,109z
		 M500.8,161.9h-21.9v-33.4h22.5c9.9,0,14.4,9.7,14.4,16.7c0.2,2-0.2,4.2-0.9,6.2c-0.6,2-1.7,3.9-3.1,5.4s-3.1,2.8-4.9,3.7
		C505,161.2,502.9,161.8,500.8,161.9L500.8,161.9L500.8,161.9z"/>
	<path class="st0" d="M575.7,143.6c-7.7,0-15.3,2.3-21.6,6.6c-6.3,4.3-11.4,10.4-14.4,17.4s-3.7,15-2.2,22.5s5.2,14.5,10.7,19.9
		c5.4,5.4,12.3,9.1,19.9,10.7s15.4,0.8,22.5-2.3c7.1-2.9,13.1-8,17.5-14.4c4.3-6.5,6.5-13.9,6.5-21.6c0.2-5.1-0.8-10.4-2.6-15.1
		c-1.8-4.8-4.8-9.1-8.3-12.8c-3.7-3.7-8-6.5-12.8-8.3C586,144.5,580.8,143.5,575.7,143.6L575.7,143.6z M575.7,200.9
		c-3.5,0-7.1-1.1-10.2-2.9c-2.9-2-5.4-4.8-6.8-8.2c-1.4-3.2-1.8-6.9-1.1-10.5c0.6-3.6,2.3-6.8,4.9-9.4c2.5-2.6,5.7-4.3,9.3-5.1
		c3.6-0.8,7.3-0.5,10.5,0.9c3.4,1.4,6.2,3.7,8.2,6.6c2,2.9,3.1,6.5,3.1,10c0.2,2.3-0.3,4.6-1.1,6.8c-0.8,2.2-2,4.2-3.5,5.9
		c-1.5,1.7-3.4,3.1-5.6,4s-4.3,1.5-6.6,1.7h-1.1L575.7,200.9L575.7,200.9z"/>
	<path class="st0" d="M643.6,145.4h-21.2v74.9h21.2V145.4L643.6,145.4z"/>
	<path class="st0" d="M678.5,156.1l-1.4,2.6v-13.4h-21.3v75H677v-39.7c0-10.6,5.1-16.4,14.8-16.4c8.7,0,14,6.2,14,15.9v40.2H727
		v-44.9c0.2-20.4-9.6-31.6-27.2-31.6c-4.3,0-8.7,1.1-12.3,3.2C683.8,149.1,680.5,152.4,678.5,156.1L678.5,156.1L678.5,156.1z"/>
	<path class="st0" d="M400,134.6c2.6,0,5.1-0.8,7.3-2.2s3.9-3.6,4.8-5.9c0.9-2.5,1.2-5.1,0.8-7.6c-0.5-2.6-1.7-4.9-3.5-6.8
		c-1.9-1.9-4.2-3.1-6.8-3.6s-5.2-0.3-7.6,0.8c-2.5,0.9-4.5,2.6-5.9,4.8s-2.2,4.6-2.2,7.3l0,0c0,1.7,0.3,3.4,1.1,5.1
		c0.9,2.5,2.6,4.5,4.8,5.9C394.9,133.8,397.4,134.6,400,134.6L400,134.6L400,134.6z"/>
	<path class="st0" d="M633.1,134.6c2.6,0,5.1-0.8,7.3-2.2s3.9-3.6,4.8-5.9c1.1-2.5,1.2-5.1,0.8-7.6c-0.5-2.6-1.7-4.9-3.5-6.8
		c-1.8-1.9-4.2-3.1-6.8-3.6c-2.5-0.5-5.2-0.3-7.6,0.8c-2.5,0.9-4.5,2.6-5.9,4.8s-2.2,4.6-2.2,7.3l0,0c0,1.7,0.3,3.4,0.9,5.1
		c0.9,2.5,2.6,4.5,4.8,5.9C628.1,133.8,630.5,134.6,633.1,134.6L633.1,134.6z"/>
	<path class="st0" d="M782,145.2h-14.8v-29.2H746v29.2h-14v17.9h14v57.1h21.2v-57.1H782V145.2z"/>
	<path class="st0" d="M121.7,67.5l20.4,121.4H24.4C24.4,188.8,121.7,67.5,121.7,67.5z"/>
	<path class="st1" d="M121.6,67.5l72.1,121.4h-51.9L121.6,67.5L121.6,67.5z"/>
	<path class="st2" d="M24.4,188.8h117.7l7.4,43.8L24.4,188.8L24.4,188.8z"/>
	<path class="st3" d="M141.8,188.8h51.7l-44.3,43.8L141.8,188.8L141.8,188.8z"/>
	<path class="st0" d="M787.5,205.9c1.2,0.8,2.2,1.7,2.9,2.9c0.7,1.2,1.1,2.8,1.1,4.3s-0.3,2.9-1.1,4.3c-0.6,1.2-1.7,2.3-2.9,2.9
		c-1.2,0.8-2.8,1.1-4.2,1.1c-1.5,0-2.9-0.3-4.2-1.1c-1.2-0.8-2.3-1.7-2.9-2.9c-0.8-1.2-1.1-2.8-1.1-4.3s0.3-2.9,1.1-4.3
		c0.6-1.2,1.7-2.3,2.9-2.9c1.2-0.8,2.8-1.1,4.2-1.1C784.9,204.9,786.3,205.2,787.5,205.9z M788.3,218.2c1.2-1.4,1.8-3.1,1.8-4.9
		s-0.6-3.6-1.8-4.9c-1.2-1.2-3.1-2-4.8-2c-1.8,0-3.5,0.8-4.8,2c-1.2,1.4-1.8,3.1-1.8,4.9s0.6,3.6,1.8,4.9c1.2,1.2,3.1,2,4.8,2
		C785.2,220.1,786.9,219.5,788.3,218.2L788.3,218.2L788.3,218.2z M786.5,213.1c-0.5,0.5-0.9,0.8-1.5,0.9l2.5,3.6h-2.2L783,214h-1
		v3.6h-1.8v-9h3.9c0.8,0,1.5,0.1,2.2,0.8c0.3,0.3,0.5,0.6,0.6,0.9s0.2,0.8,0.2,1.1C787.1,212,786.8,212.6,786.5,213.1L786.5,213.1
		L786.5,213.1z M782,212.6h2c0.3,0,0.6-0.1,0.9-0.3c0.2-0.1,0.3-0.3,0.3-0.5c0-0.2,0.2-0.3,0.2-0.5c0-0.2,0-0.3-0.2-0.5
		c0-0.1-0.2-0.3-0.3-0.3c-0.3-0.1-0.6-0.3-0.9-0.3h-2V212.6L782,212.6z"/>
</g>
</svg>
