<?xml version="1.0" encoding="UTF-8"?><svg id="Layer_1" xmlns="http://www.w3.org/2000/svg" viewBox="0 0 1000 400"><defs><style>.cls-1{fill:#518f50;}.cls-1,.cls-2{stroke-width:0px;}.cls-2{fill:#12693a;}</style></defs><path class="cls-2" d="m151.02,269.3c-20.99-6.26-35.99-20.91-50.71-35.96-.71-.73-1.24-1.63-2.45-3.25,27.16,7.14,53.4,14.03,79.99,21.02-4.4,8.5-10.14,15.02-19.63,17.43"/><path class="cls-2" d="m199.01,266.97c-7.11-3.17-11.74-8.85-15.33-15.94,26.55-6.98,52.86-13.9,79.18-20.82.16.22.33.44.49.66-2.74,3-5.16,6.39-8.27,8.94-9.59,7.86-29.23,23.01-29.23,23.01,0,0-8.14,6.07-16.72,6.48-.64,0-5.72-.09-10.11-2.33Z"/><path class="cls-1" d="m774.89,182.11c-1.14,26.68-10.48,48.88-33.12,63.95-14.52,9.66-30.75,12.58-47.85,9.03-19.74-4.1-33.44-19.14-35.6-39.09-2.19-20.24,2.37-38.99,14.38-55.57,11.46-15.83,26.94-25.12,46.63-27.27,8.82-.96,17.42-.35,25.71,2.71,16.86,6.22,25.85,18.87,28.91,36.1.61,3.42.66,6.94.95,10.13Zm-62.95,53c3.75-.08,8.73-1.98,13.19-5.28,6.32-4.67,10.66-10.91,13.87-17.93,5.65-12.35,8.71-25.2,5.97-38.8-2.21-10.95-8.9-17.39-19.58-18.78-7.96-1.04-15.06,1.7-20.61,7.27-14.68,14.75-20.05,32.9-17.41,53.18,1.64,12.58,11.07,20.35,24.57,20.34Z"/><path class="cls-1" d="m769.03,253.8c.87-4.92,1.6-9.26,2.42-13.59,5.41-28.76,10.87-57.5,16.23-86.27.91-4.88,1.5-9.82,2.08-14.75.33-2.83,1.27-4.16,4.55-4.01,6.78.32,13.58.09,20.85.09-.82,7.12-1.61,13.96-2.39,20.8.26.12.51.23.77.35.68-.85,1.38-1.69,2.05-2.56,8.07-10.44,18.24-17.72,31.4-20.23,10.47-2,20.62-1.44,29.28,5.7,7.24,5.97,9.6,14.26,10.04,23.19.54,10.78-1.97,21.23-3.89,31.72-3.48,19.01-7.12,38-10.82,56.97-.19.97-1.56,2.42-2.4,2.44-8.19.18-16.38.1-24.57.07-.29,0-.58-.2-1.26-.44.66-3.77,1.28-7.57,1.99-11.36,3.69-19.62,7.55-39.21,11.02-58.87.85-4.83.88-9.91.53-14.82-.8-11.14-10.91-14.86-20.09-12.09-6.89,2.08-12.06,6.56-16.46,12.02-7.79,9.68-11.61,21.02-13.81,33.05-3,16.42-6.14,32.81-9.12,49.24-.45,2.5-1.34,3.48-4.1,3.4-7.84-.23-15.7-.08-24.31-.08Z"/><path class="cls-1" d="m450.11,227.2c.89,6.35,1.81,12.29,2.45,18.27.09.81-1.09,2.16-2,2.61-8.47,4.13-17.55,6.34-26.84,7.55-9.2,1.2-18.45,1.41-27.56-.74-18.58-4.38-29.89-16.3-32.64-34.79-4.49-30.19,4.98-55.86,29.24-74.89,15.57-12.22,33.69-15.83,52.94-9.88,14.4,4.45,22.27,16.41,21.99,31.39-.26,14.37-7.65,23.79-20.18,29.76-10.2,4.86-21.17,6.83-32.32,7.64-7.51.54-15.07.61-22.61.7-2.44.03-3.02.98-3.04,3.24-.15,15.53,10.33,26.18,25.97,26.51,11.24.24,21.95-1.79,32.18-6.43.66-.3,1.36-.52,2.44-.92Zm-57.12-43.28c.57.12.98.31,1.38.29,8.36-.46,16.76-.61,25.07-1.52,6.21-.68,12.34-2.34,17.3-6.59,4.19-3.6,5.48-8.28,4.18-13.47-1.27-5.05-5.13-7.82-10.04-8.6-3.38-.54-6.99-.56-10.38-.04-12.79,1.95-26.49,16.89-27.51,29.94Z"/><path class="cls-1" d="m641.71,227.23c.88,6.29,1.82,12.32,2.46,18.38.08.79-1.23,2.09-2.18,2.55-8.1,3.89-16.74,6.11-25.6,7.31-9.93,1.34-19.89,1.64-29.73-.9-17.65-4.55-29.42-17.24-31.8-35.28-3.65-27.71,4.54-51.54,25.14-70.65,12.39-11.5,27.49-16.6,44.39-15.84,7.82.35,15.34,2.27,21.87,6.9,7.62,5.41,11.93,12.79,12.8,22.08,2.02,21.61-10.53,31.85-26.29,37.26-12.88,4.42-26.29,5.65-39.83,5.81-2.02.02-4.04,0-6.06,0-6.22,0-6.36.15-5.66,6.5,1.51,13.85,11.35,22.77,25.36,23.19,11.34.35,22.18-1.64,32.51-6.34.75-.34,1.54-.58,2.62-.97Zm-57.55-43.42c.97.21,1.47.4,1.98.42,10.11.2,20.17-.21,30.05-2.54,4.79-1.13,9.39-2.76,12.97-6.36,6.86-6.9,4.45-17.55-4.7-20.8-4.67-1.66-9.38-1.51-14.09-.2-12.07,3.36-19.22,11.9-24,22.85-.91,2.08-1.45,4.33-2.21,6.65Z"/><path class="cls-1" d="m279.81,228.88c6.69,2.07,12.97,4.3,19.41,5.91,5.69,1.42,11.54,1.72,17.29-.24,11.53-3.93,14.51-16.78,5.59-25.03-2.84-2.63-6.42-4.47-9.67-6.65-4.32-2.89-8.92-5.41-12.93-8.67-15.73-12.8-14.05-32.56-3.17-45.54,7.54-9,17.72-13.28,29.03-15.1,11.3-1.82,22.45-.93,33.28,2.87,5.11,1.79,5.09,1.89,3.39,6.79-1.73,4.98-3.5,9.94-5.24,14.9-4.5-1.32-8.68-2.77-12.97-3.76-5.74-1.32-11.57-1.67-17.3.25-5.16,1.73-9.08,4.84-10.18,10.38-1.11,5.58,1.32,9.99,5.71,13.25,2.8,2.08,5.83,3.88,8.9,5.55,6.48,3.53,12.56,7.52,17.66,12.92,12.16,12.86,8.63,33.67-1.86,44.9-7.69,8.22-17.51,12.28-28.32,13.94-13.24,2.03-26.27.85-38.8-4.15-7.04-2.81-7.01-2.86-4.44-9.92,1.52-4.17,3.04-8.35,4.57-12.52.03-.09.14-.16.07-.08Z"/><path class="cls-1" d="m546.52,228.64c.49,6.75,1.04,12.95,1.26,19.16.03.9-1.37,2.4-2.38,2.69-6.41,1.81-12.81,3.82-19.36,4.87-11.02,1.77-22.04,1.43-32.61-2.73-15.67-6.17-24.56-17.96-26.71-34.33-3.17-24.24,3.97-45.51,20.86-63.18,11.42-11.94,25.65-18.96,42.13-21.2,10.75-1.46,21.39-1.08,31.85,1.99,3.93,1.15,3.94,1.17,2.71,4.91-1.95,5.9-3.92,11.79-5.87,17.64-3.99-.93-7.64-2.07-11.38-2.61-26.52-3.86-44.87,15.19-50.11,36.22-1.83,7.35-2.58,14.78-.77,22.29,2.86,11.92,11.6,19.09,23.88,19.51,7.96.27,15.62-1.2,23.05-3.97.97-.36,1.94-.71,3.43-1.25Z"/><path class="cls-2" d="m178.82,223.02c-14.27-1.81-26.62-11.74-29.85-23.79-1.78-6.65-1.35-13.29.63-19.77,5.87-19.22,13.59-37.64,24.56-54.6,1.3-2,2.78-3.88,4.65-6.47v104.62Z"/><path class="cls-2" d="m182.39,119.23c.72.67,1.14.95,1.41,1.33,13.42,19.11,23.03,40.08,28.29,62.69,4.12,17.69-4.21,31.05-21.35,37.51-2.63.99-5.38,1.66-8.36,2.56v-104.09Z"/><path class="cls-2" d="m183.21,247.99c-1.37-13.12,4.37-30.18,24.1-30.73,18.18-.51,35.95,2.5,53.12,8.67.58.21,1.13.51,2.45,1.12-26.96,7.09-53.21,13.99-79.67,20.95Z"/><path class="cls-2" d="m178.23,248.05c-26.46-6.96-52.69-13.85-78.92-20.75-.04-.31-.09-.62-.13-.93,5.77-1.64,11.44-3.87,17.32-4.78,11.93-1.86,23.94-3.8,35.97-4.24,17.05-.62,28.32,13.21,25.77,30.7Z"/></svg>