<?xml version="1.0" encoding="UTF-8"?><svg id="Layer_1" xmlns="http://www.w3.org/2000/svg" xmlns:xlink="http://www.w3.org/1999/xlink" viewBox="0 0 817.7 400"><defs><style>.cls-1{fill:#e01271;}.cls-1,.cls-2,.cls-3,.cls-4{stroke-width:0px;}.cls-5{clip-path:url(#clippath-2);}.cls-2{fill:#010101;}.cls-6{clip-path:url(#clippath-6);}.cls-3{fill:none;}.cls-7{clip-path:url(#clippath-7);}.cls-8{clip-path:url(#clippath-1);}.cls-9{clip-path:url(#clippath-4);}.cls-4{fill:#d71f2d;}.cls-10{clip-path:url(#clippath-9);}.cls-11{clip-path:url(#clippath);}.cls-12{clip-path:url(#clippath-3);}.cls-13{clip-path:url(#clippath-8);}.cls-14{clip-path:url(#clippath-5);}</style><clipPath id="clippath"><rect class="cls-3" x="404.4" y="197.87" width="19.63" height="4.26"/></clipPath><clipPath id="clippath-1"><rect class="cls-3" x="404.4" y="197.87" width="19.63" height="4.26"/></clipPath><clipPath id="clippath-2"><rect class="cls-3" x="404.4" y="197.87" width="19.63" height="4.26"/></clipPath><clipPath id="clippath-3"><rect class="cls-3" x="404.4" y="197.87" width="19.63" height="4.26"/></clipPath><clipPath id="clippath-4"><rect class="cls-3" x="404.4" y="197.87" width="19.63" height="4.26"/></clipPath><clipPath id="clippath-5"><rect class="cls-3" x="404.4" y="197.87" width="19.63" height="4.26"/></clipPath><clipPath id="clippath-6"><rect class="cls-3" x="404.4" y="197.87" width="19.63" height="4.26"/></clipPath><clipPath id="clippath-7"><rect class="cls-3" x="404.4" y="197.87" width="19.63" height="4.26"/></clipPath><clipPath id="clippath-8"><rect class="cls-3" x="404.4" y="197.87" width="19.63" height="4.26"/></clipPath><clipPath id="clippath-9"><rect class="cls-3" x="404.4" y="197.87" width="19.63" height="4.26"/></clipPath></defs><g id="g10"><g id="g12"><g id="g14"><path id="path16" class="cls-1" d="m581.19,150.48c3.22,0,6.01-1.13,8.27-3.39,2.26-2.26,3.39-5.05,3.39-8.27s-1.22-5.92-3.48-8.18c-2.18-2.26-4.87-3.39-8.01-3.39s-6.01,1.04-8.27,3.31c-2.44,2.18-3.57,4.96-3.57,8.27s1.13,6.01,3.39,8.27c2.26,2.26,4.96,3.39,8.27,3.39h0Z"/></g><path id="path18" class="cls-1" d="m292.58,232.64l-30.38-104.36h-41.17v6.7h3.92c3.22,0,5.66.26,7.31.87,2.87.87,4.7,3.05,5.48,6.44.43,1.48.61,4.7.61,9.66v82.25c0,7.75-.17,13.14-.7,16.36-.7,4.18-2.18,7.4-4.61,9.49-2.44,2.18-5.31,3.31-8.62,3.31h-3.39v6.88h43.95s0-6.88,0-6.88h-2.79c-7.66,0-12.62-3.74-14.62-11.14-.7-2.7-1.04-8.7-1.04-18.02v-93.04l37.43,129.08h6.53l37.51-129.08v101.31c0,4.79-.17,8.7-.61,11.75-.26,2.52-1.13,4.53-2.61,5.92-2.18,2.09-6.01,3.22-11.32,3.22h-1.74v6.88h53.35s0-6.88,0-6.88h-2.96c-7.31,0-11.75-2.18-13.32-6.61-.7-2.35-1.13-7.14-1.13-14.27v-86.43c0-4.79.26-8.79.61-11.92.35-2.44,1.22-4.44,2.61-5.83,2.18-2.18,5.92-3.31,11.23-3.31h2.96s0-6.7,0-6.7h-41.52s-30.98,104.36-30.98,104.36Z"/><g id="g20"><path id="path22" class="cls-1" d="m410.51,266.32c-7.66,0-13.14-3.48-16.62-10.53-3.92-8.09-5.83-19.93-5.83-35.6,0-18.97,3.13-31.68,9.49-38.21,3.74-3.92,8.09-5.92,12.97-5.92,3.13,0,6,.78,8.62,2.44,3.92,2.44,6.88,5.83,8.88,10.36,3.22,7.31,4.87,17.93,4.87,31.94,0,30.38-7.48,45.52-22.37,45.52h0Zm0-97.13c-13.32,0-24.11,5.31-32.38,15.75-7.22,9.14-10.79,21.24-10.79,36.29s3.57,27.07,10.79,36.3c8.18,10.44,18.8,15.67,31.77,15.67,13.66,0,24.63-5.22,32.81-15.67,7.22-9.23,10.88-21.41,10.88-36.56s-3.66-26.89-10.88-36.03c-8.18-10.44-18.98-15.75-32.2-15.75h0Z"/></g><g id="g24"><path id="path26" class="cls-1" d="m510.69,264.93c-3.74,0-7.05-.96-9.92-2.96-3.57-2.35-6.27-5.57-8.1-9.57-3.57-7.57-5.31-18.28-5.31-32.12,0-17.93,3.74-30.38,11.23-37.25,4.01-3.57,8.36-5.4,12.97-5.4,6.61,0,11.57,3.48,14.88,10.44,3.57,7.48,5.31,18.1,5.31,31.77,0,30.03-7.05,45.09-21.06,45.09h0Zm3.74-94.78c-6.96,0-13.05,2.09-18.37,6.35-2.78,2.26-5.13,5.48-6.96,9.57v-59.27l-30.38,1.48v6.53h1.57c4,0,6.79.87,8.27,2.61,1.74,1.83,2.52,6.62,2.52,14.36v97.4c0,8.79-.26,14.53-.87,17.41-.09.44-.43,1.65-1.13,3.66h7.05c1.57-2.61,3.05-4.87,4.44-6.79,1.57-2.26,2.96-3.31,4.18-3.31,1.04,0,2.26.52,3.66,1.65,3.57,2.96,5.92,4.79,7.05,5.48,5.31,3.39,11.05,5.13,17.41,5.13,11.57,0,20.98-4.87,28.11-14.45,7.66-10.36,11.49-23.15,11.49-38.56s-4.27-28.81-12.79-38.3c-6.62-7.31-15.06-10.97-25.24-10.97h0Z"/></g><g id="g28"><path id="path30" class="cls-1" d="m688.77,195.04c3.39-12.19,9.23-18.36,17.41-18.36,7.31,0,12.62,4.96,16.02,14.88,1.83,5.66,2.78,12.79,2.78,21.41h-38.38c.09-7.05.78-13.06,2.18-17.93h0Zm40.3,61.1c-4.96,5.83-11.05,8.79-18.45,8.79-9.4,0-16.1-4.7-19.93-14.01-2.79-6.53-4.18-16.71-4.26-30.46h58.23c-.43-11.58-2.61-21.32-6.53-29.16-7.4-14.71-18.37-22.11-32.99-22.11-9.84,0-18.28,3.92-25.24,11.75-8.88,9.92-13.32,23.15-13.32,39.69,0,17.93,4.44,31.68,13.32,41.17,7.14,7.57,16.28,11.4,27.42,11.4,15.23,0,27.25-8.96,36.21-26.89l-6.36-3.31c-2.7,5.57-5.4,10.01-8.09,13.14h0Z"/></g><g id="g32"><path id="path34" class="cls-1" d="m648.39,261.01c-1.74-2-2.61-6.88-2.61-14.62v-119.59l-31.25,1.48v6.53h2.44c4,0,6.7.87,8.18,2.61,1.74,1.92,2.61,6.7,2.61,14.45v94.52c0,7.75-.87,12.62-2.61,14.62-1.48,1.74-4.18,2.61-8.18,2.61h-3.48v6.61h46.48s0-6.61,0-6.61h-3.39c-3.92,0-6.7-.87-8.18-2.61h0Z"/></g><g id="g36"><path id="path38" class="cls-1" d="m594.34,261.01c-1.74-1.91-2.53-6.79-2.53-14.62v-75.64l-31.25,1.48v6.61h2.44c4.01,0,6.7.87,8.18,2.52,1.74,1.92,2.61,6.79,2.61,14.45v50.57c0,7.75-.87,12.62-2.61,14.62-1.48,1.74-4.18,2.61-8.18,2.61h-3.48v6.62h46.48s0-6.62,0-6.62h-3.4c-4,0-6.79-.87-8.27-2.61Z"/></g><path id="path40" class="cls-1" d="m152.1,193.56v28.72h28.72s0-28.72,0-28.72h-28.72s0,0,0,0Z"/><path id="path42" class="cls-1" d="m65.84,128.28l-1.39,50.05,7.48,1.31c1.39-14.71,5.31-25.68,11.66-32.81,6.7-7.48,15.84-11.4,27.68-11.75v104.79c0,9.14-1.31,15.06-3.92,17.84-2.26,2.35-6.18,3.74-11.58,4.27-1.57.17-4.35.17-8.18.17v8.09l70.06-.09v-8.01c-3.83,0-6.61,0-8.18-.17-5.4-.52-9.31-1.91-11.58-4.27-2.61-2.79-3.92-8.7-3.92-17.84v-104.79c11.84.35,20.98,4.27,27.68,11.75,6.35,7.14,10.18,18.1,11.66,32.81l7.49-1.31-1.39-50.05h-113.58s0,0,0,0Z"/><path id="path44" class="cls-1" d="m93.17,193.56h-28.72v28.72h28.72s0-28.72,0-28.72Z"/><g id="g46"><path id="path48" class="cls-1" d="m754.05,180.59v-11.4h2.18s2.87,9.23,2.87,9.23l2.7-9.23h2.18v11.4h-1.48s0-8.96,0-8.96l-2.61,8.96h-1.74s-2.61-8.79-2.61-8.79v8.79h-1.48s0,0,0,0Zm-6.18,0v-9.92h-3.13s0-1.48,0-1.48h7.92v1.48h-3.14v9.92h-1.65s0,0,0,0Z"/></g></g></g><g class="cls-11"><path class="cls-4" d="m406.63,201.23c0,.13-.02.24-.06.34s-.1.18-.17.24c-.11.11-.24.18-.39.23-.15.05-.32.07-.49.07-.15,0-.3-.02-.44-.06s-.28-.12-.39-.22c-.08-.08-.15-.17-.21-.28-.06-.11-.08-.23-.08-.37h.52c0,.07.01.13.04.19.03.06.06.11.1.15.06.06.13.1.22.12.09.02.17.03.25.03.1,0,.19-.01.28-.03.09-.02.16-.06.21-.12.03-.03.06-.07.08-.11.02-.04.03-.09.03-.16,0-.1-.03-.18-.1-.23-.07-.05-.14-.08-.23-.1-.09-.02-.2-.03-.31-.04s-.21-.02-.31-.04c-.1-.02-.19-.04-.27-.08-.09-.04-.16-.09-.22-.16-.06-.06-.12-.14-.15-.23-.04-.09-.06-.19-.06-.31s.02-.21.07-.3c.04-.09.1-.17.18-.25.09-.09.21-.16.35-.22s.3-.08.46-.08c.15,0,.29.02.43.07.14.05.25.11.35.2.08.08.15.17.2.27.05.1.08.21.08.33h-.52s-.02-.1-.04-.15c-.02-.05-.05-.09-.08-.13-.04-.05-.11-.08-.19-.11-.08-.03-.16-.04-.24-.04s-.16.01-.24.03c-.08.02-.15.06-.21.12-.03.03-.05.07-.07.1-.02.04-.03.08-.03.13,0,.09.03.16.08.21s.12.08.2.09c.09.01.19.03.3.04.11.01.21.02.3.04.1.02.2.04.3.08.09.04.17.09.24.16.07.07.12.15.17.24.04.09.06.2.06.32"/></g><g class="cls-8"><path class="cls-4" d="m408.83,202.06l-.2-.22c-.11.1-.24.17-.37.22-.13.05-.27.07-.42.07-.12,0-.24-.02-.35-.06-.11-.04-.21-.09-.29-.17-.08-.07-.15-.16-.2-.27s-.07-.22-.07-.35c0-.17.05-.32.14-.44.09-.12.21-.23.36-.32-.04-.05-.09-.09-.12-.14-.04-.05-.07-.09-.09-.14-.03-.05-.05-.1-.06-.15-.01-.05-.02-.11-.02-.18,0-.11.02-.21.06-.29.04-.09.09-.16.16-.22.07-.06.15-.11.24-.14.09-.03.19-.05.3-.05s.2.02.29.05c.09.03.17.07.25.13.07.06.13.13.17.22.04.09.06.18.06.29,0,.09-.01.17-.04.25-.03.07-.06.14-.11.2-.05.06-.1.11-.17.16-.06.05-.13.1-.21.14l.48.53s.04-.1.05-.16.02-.12.02-.19c0-.06,0-.12,0-.18v-.16h.72v.39h-.32c0,.11-.02.22-.04.33-.02.11-.07.21-.13.3l.51.56h-.6Zm-1.13-1.23s-.09.06-.13.08c-.04.03-.07.06-.1.09-.03.03-.05.07-.07.12s-.03.09-.03.15c0,.07.01.13.04.19.03.05.06.1.11.14.05.04.1.06.16.08.06.02.12.03.19.03.08,0,.17-.01.25-.04s.16-.07.22-.14l-.64-.7Zm.49-.91c0-.1-.03-.17-.09-.22-.06-.05-.13-.08-.22-.08-.08,0-.15.02-.22.07-.06.05-.09.12-.09.22,0,.04,0,.09.03.13.02.04.04.08.06.11.02.04.05.07.08.1.03.03.06.06.09.09.04-.02.08-.05.13-.07.04-.02.08-.05.12-.08.03-.03.06-.07.08-.11.02-.04.03-.09.03-.15"/></g><g class="cls-5"><path class="cls-4" d="m411.87,200.16c0,.13-.02.26-.06.37-.04.11-.1.2-.19.28-.08.08-.19.14-.31.18-.12.04-.26.06-.42.06h-.59v1h-.5v-2.79h1.09c.16,0,.3.02.42.06.12.04.23.1.31.18.08.08.14.17.19.28s.06.23.06.37m-.51,0c0-.13-.04-.24-.12-.33-.08-.08-.2-.13-.37-.13h-.57v.9h.57c.17,0,.29-.04.37-.12.08-.08.12-.19.12-.32"/></g><g class="cls-12"><path class="cls-4" d="m414.86,202.06l-.06-.31s-.05.08-.09.12c-.04.04-.09.08-.16.12s-.13.06-.21.08c-.08.02-.16.03-.24.03-.16,0-.31-.02-.45-.07-.14-.04-.27-.13-.38-.24-.07-.08-.13-.16-.18-.24-.05-.08-.08-.17-.11-.27-.03-.09-.05-.19-.06-.3-.01-.1-.02-.21-.02-.33s0-.22.01-.32c0-.1.03-.2.05-.29.03-.09.06-.18.11-.26.05-.08.11-.16.18-.24.11-.11.24-.19.38-.24.15-.06.3-.08.45-.08.17,0,.33.03.47.09.14.06.26.13.35.23.07.07.13.15.17.24.05.09.07.2.08.32h-.52c0-.06-.02-.1-.04-.14-.02-.04-.05-.08-.08-.11-.1-.11-.25-.17-.44-.17-.08,0-.16.02-.25.05-.08.03-.15.08-.21.14-.05.05-.09.11-.11.17-.03.07-.05.13-.07.21-.02.07-.03.14-.03.22,0,.07,0,.14,0,.2s0,.13,0,.21c0,.07.02.15.03.22.02.07.04.14.07.21.03.07.07.13.11.17.05.06.12.1.21.13.08.03.16.04.25.04.09,0,.17-.01.24-.04.07-.03.13-.07.17-.12.08-.08.13-.16.15-.25.02-.09.03-.19.03-.29h-.66v-.42h1.16v1.52s-.33,0-.33,0Z"/></g><g class="cls-9"><path class="cls-4" d="m416.41,202.05s-.09.02-.11.02c-.02,0-.06,0-.11,0-.17,0-.3-.04-.4-.13-.1-.09-.15-.23-.15-.42v-2.31h.5v2.23c0,.06.01.11.04.14s.08.05.16.05c.02,0,.04,0,.05,0s.02,0,.04,0v.41Z"/></g><g class="cls-14"><path class="cls-4" d="m418.5,201.03c0,.17-.02.32-.06.43-.04.12-.1.22-.18.32-.07.09-.17.16-.29.22-.12.06-.27.09-.42.09s-.3-.03-.42-.09c-.12-.06-.22-.14-.29-.22-.08-.1-.13-.2-.18-.32-.04-.12-.06-.26-.06-.43s.02-.32.06-.43c.04-.12.1-.22.18-.32.07-.09.17-.16.29-.22.12-.06.27-.09.42-.09s.3.03.42.09c.12.06.22.14.29.22.08.1.13.2.18.32.04.12.06.26.06.43m-.5,0c0-.1,0-.19-.03-.28-.02-.09-.06-.17-.12-.23-.03-.04-.08-.07-.13-.09s-.11-.04-.18-.04-.13.01-.18.04-.1.06-.13.09c-.06.07-.1.14-.12.23-.02.09-.03.18-.03.28s0,.19.03.28c.02.09.06.17.12.23.03.04.08.07.13.09.05.02.11.04.18.04s.13-.01.18-.04c.05-.03.1-.06.13-.09.06-.07.1-.14.12-.23.02-.09.03-.18.03-.28"/></g><g class="cls-6"><path class="cls-4" d="m420.77,201.04c0,.19-.03.37-.09.52-.06.15-.15.28-.28.38-.06.05-.14.09-.22.13-.08.03-.18.05-.28.05-.11,0-.22-.02-.33-.06-.1-.04-.19-.11-.25-.21l-.03.22h-.42v-2.84h.49v.94c.05-.06.12-.11.21-.14.09-.04.2-.06.32-.06.1,0,.2.01.28.04.08.03.16.07.22.12.24.2.37.51.37.91m-.5,0c0-.09,0-.18-.03-.26-.02-.09-.05-.16-.1-.23-.04-.04-.08-.08-.14-.11-.05-.03-.12-.05-.19-.05-.1,0-.18.02-.24.06-.06.04-.11.09-.14.16-.03.06-.06.13-.07.21-.01.08-.02.15-.02.23,0,.1.01.2.04.3.02.1.07.19.14.25.03.03.07.06.12.07.05.02.1.03.16.03.08,0,.14-.02.19-.05.05-.03.1-.07.14-.11.05-.07.09-.15.1-.23.02-.09.03-.18.03-.27"/></g><g class="cls-7"><path class="cls-4" d="m422.95,202.03s-.08.03-.11.04c-.03,0-.08.01-.14.01-.11,0-.19-.03-.25-.09-.06-.06-.09-.12-.1-.2-.05.08-.13.16-.24.22-.11.06-.24.09-.38.09-.12,0-.23-.02-.32-.05s-.17-.08-.23-.14c-.06-.06-.11-.13-.14-.2-.03-.08-.05-.16-.05-.24,0-.1.02-.18.05-.26.04-.08.08-.14.15-.2.06-.05.14-.1.22-.13.08-.03.17-.05.27-.06l.6-.04v-.13c0-.1-.02-.18-.07-.23-.05-.06-.14-.09-.28-.09-.12,0-.2.03-.27.07-.06.05-.1.12-.1.22h-.48c0-.12.03-.21.08-.3.05-.08.11-.15.18-.21.08-.05.16-.09.26-.12.1-.03.21-.04.32-.04.18,0,.33.03.47.09.14.06.24.17.3.32.03.07.04.13.05.2,0,.07,0,.14,0,.21v.76s0,.08.03.1c.02.02.05.03.09.03.02,0,.04,0,.04,0,0,0,.01,0,.02,0v.36h0Zm-.66-.88l-.52.04c-.08,0-.14.03-.2.07-.06.04-.09.11-.09.19,0,.08.03.14.09.19s.13.07.2.07c.15,0,.28-.04.38-.12.1-.08.15-.2.15-.35,0,0,0-.09,0-.09Z"/></g><g class="cls-13"><path class="cls-4" d="m424.03,202.05s-.09.02-.11.02c-.02,0-.06,0-.11,0-.17,0-.3-.04-.4-.13s-.15-.23-.15-.42v-2.31h.5v2.23c0,.06.01.11.04.14s.08.05.16.05c.02,0,.04,0,.05,0,.01,0,.02,0,.04,0v.41h0Z"/></g><g class="cls-10"><rect class="cls-2" x="404.4" y="197.87" width="19.63" height=".45"/></g></svg>