<?xml version="1.0" encoding="UTF-8"?><svg id="Layer_1" xmlns="http://www.w3.org/2000/svg" viewBox="0 0 32 32"><defs><style>.cls-1{stroke-width:0px;}</style></defs><path class="cls-1" d="m19,24H6c-1.65,0-3-1.35-3-3v-4.64l6,1.04v.6c0,1.1.9,2,2,2h3c1.1,0,2-.9,2-2v-.6l1.64-.28c.54-.09.91-.61.82-1.15-.09-.54-.61-.91-1.15-.82l-1.41.24c-.26-.81-1.01-1.39-1.9-1.39h-3c-.89,0-1.64.59-1.9,1.39l-6.28-1.09c-.1-.02-.21-.06-.33-.12-.31-.18-.5-.5-.5-.86v-2.32c0-1.65,1.35-3,3-3h15c1.43,0,2.67,1.02,2.95,2.43.1.54.63.9,1.17.79.54-.11.9-.63.79-1.17-.46-2.35-2.52-4.05-4.91-4.05h-3v-1c0-1.65-1.35-3-3-3h-3c-1.65,0-3,1.35-3,3v1h-3c-2.76,0-5,2.24-5,5v2.32c0,.85.38,1.65,1,2.21v5.47c0,2.76,2.24,5,5,5h13c.55,0,1-.45,1-1s-.45-1-1-1h0Zm-8-8h3v2h-3v-2Zm-1-11c0-.55.45-1,1-1h3c.55,0,1,.45,1,1v1h-5v-1Z"/><path class="cls-1" d="m32,19c0-3.31-2.69-6-6-6s-6,2.69-6,6c0,1.77.78,3.36,2,4.46v5.04c0,.56.31,1.06.8,1.33.49.26,1.08.24,1.54-.08l1.66-1.11,1.66,1.12c.25.17.54.25.83.25.24,0,.49-.06.71-.18.49-.26.8-.77.8-1.33v-5.04c1.22-1.1,2-2.69,2-4.46h0Zm-4,8.56l-1.44-.97c-.34-.23-.78-.23-1.11,0l-1.44.97v-2.91c.63.22,1.3.35,2,.35s1.37-.13,2-.35v2.91h0Zm-2-4.56c-2.21,0-4-1.79-4-4s1.79-4,4-4,4,1.79,4,4-1.79,4-4,4Z"/></svg>