<?xml version="1.0" encoding="UTF-8"?><svg id="Layer_1" xmlns="http://www.w3.org/2000/svg" viewBox="0 0 32 32"><defs><style>.cls-1{stroke-width:0px;}</style></defs><path class="cls-1" d="m23.06,2.51C20.42.37,16.96-.46,13.58.25c-4.22.88-7.67,4.34-8.58,8.61-.76,3.6.18,7.21,2.58,9.91,1.19,1.34,1.85,3.02,1.85,4.72v1.88c0,1.22.78,2.26,1.88,2.65v1.16c0,1.55,1.26,2.81,2.81,2.81h3.75c1.55,0,2.81-1.26,2.81-2.81v-1.16c1.09-.39,1.88-1.43,1.88-2.65v-1.88c0-1.69.68-3.39,1.9-4.79,1.8-2.05,2.79-4.68,2.79-7.4,0-3.42-1.53-6.63-4.19-8.79Zm-4.25,26.67c0,.52-.42.94-.94.94h-3.75c-.52,0-.94-.42-.94-.94v-1h5.63v1h0Zm1.88-3.81c0,.52-.42.94-.94.94h-7.5c-.52,0-.94-.42-.94-.94v-.94h9.38v.94h0Zm2.37-7.9c-1.3,1.49-2.11,3.26-2.31,5.08h-9.48c-.2-1.83-.99-3.59-2.27-5.03-2-2.25-2.79-5.27-2.15-8.28.75-3.55,3.62-6.43,7.12-7.17,2.82-.59,5.71.1,7.91,1.89,2.22,1.81,3.5,4.48,3.5,7.34,0,2.27-.82,4.46-2.32,6.17Z"/><path class="cls-1" d="m2.87,11.31H1c-.52,0-.94.42-.94.94s.42.94.94.94h1.88c.52,0,.94-.42.94-.94s-.42-.94-.94-.94Z"/><path class="cls-1" d="m3.26,6.62l-1.33-1.33c-.37-.37-.96-.37-1.33,0s-.37.96,0,1.33l1.33,1.33c.37.37.96.37,1.33,0,.37-.37.37-.96,0-1.33Z"/><path class="cls-1" d="m3.26,16.55c-.37-.37-.96-.37-1.33,0l-1.33,1.33c-.37.37-.37.96,0,1.33.37.37.96.37,1.33,0l1.33-1.33c.37-.37.37-.96,0-1.33Z"/><path class="cls-1" d="m31,11.31h-1.88c-.52,0-.94.42-.94.94s.42.94.94.94h1.88c.52,0,.94-.42.94-.94s-.42-.94-.94-.94Z"/><path class="cls-1" d="m31.39,5.29c-.37-.37-.96-.37-1.33,0l-1.33,1.33c-.37.37-.37.96,0,1.33.37.37.96.37,1.33,0l1.33-1.33c.37-.37.37-.96,0-1.33Z"/><path class="cls-1" d="m31.39,17.87l-1.33-1.33c-.37-.37-.96-.37-1.33,0s-.37.96,0,1.33l1.33,1.33c.37.37.96.37,1.33,0,.37-.37.37-.96,0-1.33Z"/><path class="cls-1" d="m23.09,12.15l-.55-.32c.03-.36.03-.69,0-1.05l.55-.32c.45-.26.6-.83.34-1.28l-1.88-3.25c-.26-.45-.83-.6-1.28-.34l-.57.33c-.28-.2-.58-.37-.89-.52v-.66c0-.52-.42-.94-.94-.94h-3.75c-.52,0-.94.42-.94.94v.66c-.31.15-.61.32-.89.52l-.57-.33c-.45-.26-1.02-.11-1.28.34l-1.88,3.25c-.26.45-.11,1.02.34,1.28l.55.32c-.03.36-.03.69,0,1.05l-.55.32c-.45.26-.6.83-.34,1.28l1.88,3.25c.26.45.83.6,1.28.34l.57-.33c.28.2.58.37.89.52v.66c0,.52.42.94.94.94h3.75c.52,0,.94-.42.94-.94v-.66c.31-.15.61-.32.89-.52l.57.33c.45.26,1.02.11,1.28-.34l1.88-3.25c.26-.45.11-1.02-.34-1.28Zm-2.49-1.7c.12.63.12,1.07,0,1.71-.07.39.11.78.45.98l.29.17-.94,1.62-.3-.17c-.34-.2-.78-.16-1.08.1-.44.37-.93.66-1.46.85-.37.13-.62.49-.62.88v.34h-1.88v-.34c0-.4-.25-.75-.62-.88-.53-.19-1.03-.48-1.46-.85-.3-.26-.73-.3-1.08-.1l-.3.17-.94-1.62.29-.17c.34-.2.53-.59.45-.98-.12-.63-.12-1.07,0-1.71.07-.39-.11-.78-.45-.98l-.29-.17.94-1.62.3.17c.34.2.78.16,1.08-.1.44-.37.93-.66,1.46-.85.37-.13.62-.49.62-.88v-.34h1.88v.34c0,.4.25.75.62.88.53.19,1.03.48,1.46.85.3.26.73.3,1.08.1l.3-.17.94,1.62-.29.17c-.34.2-.53.59-.45.98Z"/><path class="cls-1" d="m16,8.5c-1.55,0-2.81,1.26-2.81,2.81s1.26,2.81,2.81,2.81,2.81-1.26,2.81-2.81-1.26-2.81-2.81-2.81Zm0,3.75c-.52,0-.94-.42-.94-.94s.42-.94.94-.94.94.42.94.94-.42.94-.94.94Z"/></svg>