<?xml version="1.0" encoding="UTF-8"?><svg id="Layer_1" xmlns="http://www.w3.org/2000/svg" viewBox="0 0 32 32"><defs><style>.cls-1{stroke-width:0px;}</style></defs><path class="cls-1" d="m.75,24.5h6.91c.36,0,.66-.25.73-.6h0s4.11,4.4,4.11,4.4c0,0,.01.02.02.02.59.58,1.29.9,1.98.9.02,0,.04,0,.05,0,.51-.01,1.01-.2,1.41-.53.27.16.58.24.9.24.51,0,1-.22,1.35-.6.13-.14.24-.31.33-.49.14.03.27.04.41.04.77,0,1.48-.45,1.8-1.16,1.04.31,2.14-.28,2.46-1.32.12-.41.11-.85-.04-1.25l.46-.22c.11.29.39.48.7.48h6.91c.41,0,.75-.34.75-.75,0-.05,0-.1-.02-.15l-2.02-9.83c-.08-.39-.46-.65-.85-.59-2.14.34-5.05,1-6.7,1.45-.38.1-.62.49-.54.87l.23,1.12c-.48-.17-1.03-.36-1.64-.56-1.18-.4-2.51-.85-3.62-1.27-.57-.22-1.2-.19-1.74.09-.42.21-.82.45-1.21.72h-3.77v-.02c.08-.39-.15-.77-.53-.87-1.65-.45-4.55-1.11-6.7-1.45-.4-.06-.77.2-.85.59L.02,23.6c-.08.41.18.8.58.89.05.01.1.02.15.02h0Zm27.89-9.81l1.69,8.22h-5.38l-1.46-7.11c1.46-.37,3.49-.82,5.15-1.12Zm-12.87,1.45c.17-.09.37-.1.55-.03,1.13.42,2.48.88,3.67,1.28.99.33,1.84.62,2.4.84.02,0,.05.02.08.02l.86,4.17-1.09.51-4.35-4.35c-.17-.17-.42-.25-.66-.21-1.55.27-2.15.32-2.38.32-.13,0-.26.04-.38.1-1.11.65-1.67.83-1.91.87.02-.17.09-.5.32-1.06.81-1.09,1.79-1.92,2.9-2.47h0Zm-3.54.88c-.22.25-.43.51-.63.78-.03.05-.06.1-.09.15-.42,1-.81,2.24-.04,2.92.66.58,1.74.38,3.57-.68.31-.02.87-.08,2.03-.27l4.58,4.58c.18.19.18.48,0,.67-.19.18-.48.18-.67,0l-2.84-2.84c-.29-.29-.77-.29-1.06,0s-.29.77,0,1.06l2.31,2.31s.01.05.02.08c.05.17,0,.35-.12.47-.19.18-.48.18-.67,0l-2.54-2.54c-.29-.29-.77-.29-1.06,0s-.29.77,0,1.06l2.22,2.22c0,.12-.05.23-.13.32-.11.14-.32.15-.45.04-.01-.01-.03-.03-.04-.04l-2.56-2.77c-.28-.3-.76-.32-1.06-.04-.3.28-.32.76-.04,1.06h0l1.91,2.07c-.11.06-.22.09-.34.09-.3,0-.63-.15-.94-.45l-4.76-5.11s-.04-.04-.06-.06l1.04-5.07h2.42Zm-8.87-2.25c1.66.3,3.69.75,5.15,1.12l-1.46,7.11H1.67l1.69-8.22Zm11.69-5.3V3.72c0-.52.42-.95.95-.95s.95.42.95.95v5.76c0,.52-.42.95-.95.95s-.95-.42-.95-.95Zm5.39,2.13c-.28-.44-.15-1.03.3-1.31l4.57-2.88c.44-.28,1.03-.16,1.31.28.28.44.16,1.03-.28,1.31,0,0-.01,0-.02.01l-4.56,2.88c-.44.28-1.03.15-1.31-.3,0,0,0,0,0,0Zm-15.06-3.9c.28-.44.86-.57,1.31-.3,0,0,0,0,0,0l4.57,2.88c.45.27.58.86.31,1.3-.27.45-.86.58-1.3.31,0,0-.01,0-.02-.01l-4.57-2.88c-.44-.28-.58-.86-.3-1.31,0,0,0,0,0,0Z"/></svg>