<?xml version="1.0" encoding="UTF-8"?><svg id="Layer_1" xmlns="http://www.w3.org/2000/svg" viewBox="0 0 32 32"><defs><style>.cls-1{stroke-width:0px;}</style></defs><path class="cls-1" d="m29.74,29.5V4.81L12.25,0v9.51h-2.5v-5h-2.5v5H2.26v19.99H0v2.5h31.98v-2.5h-2.25Zm-17.49,0h-7.5v-2.5h5v-2.5h-5v-2.5h5v-2.5h-5v-2.5h5v-2.5h-5v-2.5h7.5v17.49Zm14.99,0h-5v-2.5h-2.5v2.5h-5V3.28l12.49,3.44v22.79Z"/><path class="cls-1" d="m17.25,12.01h7.5v2.5h-7.5v-2.5Z"/><path class="cls-1" d="m17.25,7.01h7.5v2.5h-7.5v-2.5Z"/><path class="cls-1" d="m17.25,17.01h7.5v2.5h-7.5v-2.5Z"/><path class="cls-1" d="m17.25,22h7.5v2.5h-7.5v-2.5Z"/></svg>