<?xml version="1.0" encoding="UTF-8"?><svg id="Layer_1" xmlns="http://www.w3.org/2000/svg" viewBox="0 0 32 32"><defs><style>.cls-1{stroke-width:0px;}</style></defs><path class="cls-1" d="m19.71,16.98c.65-.22,1.09-.83,1.09-1.52v-1.6c0-2.65-2.15-4.8-4.8-4.8s-4.8,2.15-4.8,4.8v1.6c0,.69.44,1.3,1.09,1.52.13,1.05.7,2,1.57,2.61v.8l-2.08.56c-1.28.28-2.33,1.19-2.79,2.42l-.68,1.9-1.28-1.02s-.07-.05-.11-.07v-1.43c0-.79-.65-1.43-1.44-1.43-.66,0-1.23.45-1.38,1.09h0c-.83-.13-1.68.16-2.25.79-.37.41-.34,1.05.07,1.43.08.07.17.13.26.17.57.25,1.11.56,1.62.91.25.18.45.34.65.5.03.25.15.48.35.64l3.43,2.54c.45.4,1.06.56,1.65.43.57-.12,1.05-.51,1.29-1.04l.56-1.05v3.2c0,.59.48,1.07,1.07,1.07h6.4c.59,0,1.07-.48,1.07-1.07v-3.21l.54,1.01c.23.55.72.96,1.31,1.09.57.13,1.17-.01,1.61-.4l3.5-2.6c.18-.16.29-.37.31-.61.2-.16.4-.32.64-.5.51-.35,1.06-.66,1.63-.91.51-.23.73-.83.49-1.34-.04-.1-.1-.18-.17-.26-.57-.62-1.41-.91-2.24-.77v-.02c-.2-.77-.98-1.23-1.74-1.03-.63.16-1.07.73-1.08,1.38v1.42s-.07.04-.11.07l-1.24,1.03-.72-1.91c-.45-1.22-1.49-2.13-2.76-2.42l-2.1-.57v-.8c.87-.61,1.44-1.55,1.57-2.61Zm-3.71-6.85c2.06,0,3.73,1.67,3.73,3.73v.1s-.04-.02-.06-.02c-.25-.87-1.15-1.38-2.02-1.13-.16.04-.31.11-.44.2-.75.43-1.67.43-2.41,0-.76-.49-1.78-.27-2.27.49-.09.14-.16.29-.2.44-.02,0-.04.02-.06.02v-.09c0-2.06,1.67-3.73,3.73-3.73Zm-3.2,5.87c-.29,0-.53-.24-.53-.53s.24-.53.53-.53c.3-.02.53-.27.53-.57,0-.2.12-.39.3-.48.08-.04.18-.07.27-.07.11,0,.21.03.3.09,1.1.67,2.48.67,3.59,0,.17-.11.39-.12.57-.02.19.1.31.3.3.52,0,.29.24.53.53.53s.53.24.53.53-.24.53-.53.53-.53.24-.53.53c0,1.47-1.19,2.67-2.67,2.67s-2.67-1.19-2.67-2.67c0-.29-.24-.53-.53-.53Zm5.03,5.42l1.02.28c-.24.55-.61,1.03-1.09,1.39-.06.04-.13.05-.19.03-.07-.02-.12-.07-.13-.14-.09-.31-.24-.61-.42-.88.31-.17.59-.4.81-.67Zm-.78,6.66l-1.06.7-1.06-.7.45-3.01h1.21l.45,3.01Zm-1.74-4.08l-.06-.19c.15-.15.26-.33.32-.54.07-.29.22-.55.42-.76.2.21.35.47.42.76.06.21.17.39.32.54l-.06.19h-1.36Zm-.76-1.02c-.02.06-.07.11-.13.13-.07.02-.14.01-.2-.03-.47-.37-.84-.85-1.08-1.39l1.03-.28c.22.28.5.51.81.68-.19.27-.33.57-.43.89Zm-11.85.89c.41-.41,1.04-.52,1.57-.28.27.12.58,0,.71-.27.01-.03.02-.06.03-.09l.14-.55c.04-.16.19-.28.36-.28.2,0,.36.16.36.36v1.48s-.09.07-.12.11l-.81.87c-.15-.12-.31-.24-.49-.37-.55-.38-1.13-.7-1.73-.98Zm23.79-1.47c.17,0,.32.12.36.28l.14.56c.07.29.36.46.65.39.03,0,.06-.02.09-.03.53-.24,1.16-.13,1.58.27-.61.28-1.2.61-1.75.99-.18.13-.34.25-.49.37l-.81-.87s-.08-.08-.12-.11v-1.48c0-.2.16-.36.36-.36Zm-4.49,1.35l.72,1.91c.2.54.8.81,1.34.61.1-.04.2-.09.28-.16l1.2-.96.88.94-3.37,2.51c-.19.17-.45.24-.7.18-.27-.06-.48-.25-.58-.51l-1.56-2.93c-.14-.26-.46-.36-.72-.22-.17.09-.28.27-.28.47v5.33h-6.4v-5.33c0-.29-.24-.53-.53-.53-.2,0-.38.11-.47.28l-1.58,2.97c-.1.24-.31.41-.56.46-.27.06-.55-.02-.74-.21l-3.34-2.48.88-.94,1.2.96c.45.36,1.11.29,1.47-.16.07-.09.12-.18.16-.29l.72-1.91c.34-.9,1.11-1.56,2.04-1.76h.05c.32.76.83,1.44,1.5,1.95.19.14.42.22.66.24l.13.4-.51,3.41c-.05.37.11.74.42.95l1.16.77c.33.22.75.22,1.08,0l1.16-.77c.31-.21.48-.58.42-.95l-.51-3.4.13-.4c.24-.02.47-.1.66-.24.66-.51,1.18-1.2,1.5-1.97l.08.02c.93.2,1.69.86,2.02,1.75Zm-4.94-3.09c-.25.36-.63.6-1.07.66-.43-.06-.82-.3-1.07-.66v-.55c.7.21,1.44.21,2.13,0v.55Z"/><path class="cls-1" d="m5.87,11.73c3.24,0,5.87-2.63,5.87-5.87S9.11,0,5.87,0,0,2.63,0,5.87c0,3.24,2.63,5.86,5.87,5.87Zm0-10.67c2.65,0,4.8,2.15,4.8,4.8s-2.15,4.8-4.8,4.8S1.07,8.52,1.07,5.87c0-2.65,2.15-4.8,4.8-4.8Z"/><path class="cls-1" d="m26.13,0c-3.24,0-5.87,2.63-5.87,5.87s2.63,5.87,5.87,5.87,5.87-2.63,5.87-5.87c0-3.24-2.63-5.86-5.87-5.87Zm0,10.67c-2.65,0-4.8-2.15-4.8-4.8s2.15-4.8,4.8-4.8,4.8,2.15,4.8,4.8c0,2.65-2.15,4.8-4.8,4.8Z"/><path class="cls-1" d="m3.89,7.84c.21.21.55.21.75,0l1.22-1.22,1.22,1.22c.21.2.55.2.75-.01.2-.21.2-.53,0-.74l-1.22-1.22,1.22-1.22c.21-.2.22-.54.01-.75-.2-.21-.54-.22-.75-.01,0,0,0,0-.01.01l-1.22,1.22-1.22-1.22c-.2-.21-.54-.22-.75-.01-.21.2-.22.54-.01.75,0,0,0,0,.01.01l1.22,1.22-1.22,1.22c-.21.21-.21.55,0,.75Z"/><path class="cls-1" d="m27.29,3.97l-1.77,2.66-.61-.61c-.21-.2-.55-.2-.75.01-.2.21-.2.53,0,.74l1.07,1.07c.1.1.24.16.38.16.02,0,.03,0,.05,0,.16-.02.3-.1.39-.23l2.13-3.2c.16-.25.1-.58-.15-.74-.25-.16-.58-.1-.74.15h0Z"/><path class="cls-1" d="m26.67,19.73v-6.4c0-.29-.24-.53-.53-.53s-.53.24-.53.53v6.4c0,.29.24.53.53.53s.53-.24.53-.53Z"/><path class="cls-1" d="m6.4,19.73v-6.4c0-.29-.24-.53-.53-.53s-.53.24-.53.53v6.4c0,.29.24.53.53.53s.53-.24.53-.53Z"/></svg>