<?xml version="1.0" encoding="UTF-8"?><svg id="Layer_1" xmlns="http://www.w3.org/2000/svg" viewBox="0 0 32 32"><defs><style>.cls-1{stroke-width:0px;}</style></defs><path class="cls-1" d="m30.62,13.62c-1.28-.96-3.06-.86-4.22.25l-5.59,5.32c-.43-1.31-1.67-2.25-3.11-2.25H6.63C3.01,16.94.07,19.88.07,23.5c0,0,0,0,0,0l.06,7.56c0,.52.42.93.94.93s.94-.42.94-.95l-.06-7.56c0-2.58,2.1-4.68,4.69-4.68h11.07c.78,0,1.41.63,1.41,1.41s-.63,1.41-1.41,1.41h-5.47c-.52,0-.94.42-.94.94s.42.94.94.94h5.47c.92,0,1.76-.38,2.35-1,0,0,0,0,.01,0l7.63-7.26c.5-.47,1.25-.52,1.8-.11.68.51.75,1.51.14,2.11l-10.15,10.01h-8.12c-1.03,0-1.88.84-1.88,1.88v1.94c0,.52.42.94.94.94s.94-.42.94-.94v-1.94h8.5c.25,0,.48-.1.66-.27l10.42-10.28c1.42-1.41,1.26-3.75-.34-4.95h0Z"/><path class="cls-1" d="m7.63,10.99v3.14c0,.52.42.94.94.94h4.4c.72,0,1.17-.78.81-1.41-.6-1.04.15-2.34,1.35-2.34s1.95,1.3,1.35,2.34c-.36.62.09,1.41.81,1.41h4.4c.52,0,.94-.42.94-.94v-3.14c2.01.18,3.75-1.41,3.75-3.42s-1.74-3.61-3.75-3.42V.94C22.63.42,22.21,0,21.69,0h-4.4C16.57,0,16.12.78,16.48,1.41c.6,1.04-.15,2.34-1.35,2.34s-1.95-1.3-1.35-2.34c.36-.62-.09-1.41-.81-1.41h-4.4c-.52,0-.94.42-.94.94v3.2c-2.01-.18-3.75,1.41-3.75,3.42,0,2.02,1.74,3.61,3.75,3.42h0Zm.47-4.78c.62.36,1.41-.09,1.41-.81V1.88h2.2c-.18,2.01,1.41,3.75,3.42,3.75s3.61-1.74,3.42-3.75h2.2v3.52c0,.72.78,1.17,1.41.81,1.04-.6,2.34.15,2.34,1.35s-1.3,1.95-2.34,1.35c-.63-.36-1.41.09-1.41.81v3.46h-2.2c.18-2.01-1.41-3.75-3.42-3.75s-3.61,1.74-3.42,3.75h-2.2v-3.46c0-.72-.78-1.17-1.41-.81-1.04.6-2.34-.15-2.34-1.35s1.3-1.95,2.34-1.35h0Z"/></svg>