<?xml version="1.0" encoding="UTF-8"?><svg id="Layer_1" xmlns="http://www.w3.org/2000/svg" viewBox="0 0 32 32"><defs><style>.cls-1{stroke-width:0px;}</style></defs><path class="cls-1" d="m2.82,29.97h3.25c.35,0,.63-.28.63-.63v-11.53h1.59c.25,0,.48-.15.58-.38s.05-.5-.13-.68l-3.83-3.98c-.12-.12-.28-.19-.45-.19s-.33.07-.45.19L.17,16.75c-.17.18-.22.45-.13.68s.32.38.58.38h1.57v11.53c0,.35.28.63.62.63Zm-.73-13.41l2.36-2.46,2.36,2.46h-.75c-.35,0-.63.28-.63.63v11.53h-2v-11.53c0-.35-.28-.63-.63-.63h-.73Z"/><path class="cls-1" d="m23.32,14.32h3.25c.35,0,.63-.28.63-.63v-6.43h1.59c.25,0,.48-.15.58-.38s.05-.5-.13-.68l-3.83-3.98c-.12-.12-.28-.19-.45-.19s-.33.07-.45.19l-3.83,3.98c-.17.18-.22.45-.13.68s.32.38.58.38h1.57v6.43c0,.35.28.63.62.63Zm-.73-8.31l2.36-2.46,2.36,2.46h-.75c-.35,0-.63.28-.63.63v6.43h-2v-6.43c0-.35-.28-.63-.63-.63h-.73Z"/><path class="cls-1" d="m11.88,29.34c0,.35.28.63.63.63h3.25c.35,0,.63-.28.63-.63V11.81h1.59c.25,0,.48-.15.58-.38s.05-.5-.13-.68l-3.83-3.98c-.12-.12-.28-.19-.45-.19s-.33.07-.45.19l-3.83,3.98c-.17.18-.22.45-.13.68s.32.38.58.38h1.57v5.6c0,.35.28.63.63.63s.63-.28.63-.63v-6.22c0-.35-.28-.63-.63-.63h-.73l2.36-2.46,2.36,2.46h-.75c-.35,0-.63.28-.63.63v17.53h-2v-5.79c0-.35-.28-.63-.63-.63s-.63.28-.63.63v6.42h0Z"/><path class="cls-1" d="m24.96,19.58c-1.82,0-3.34,1.52-3.34,3.34s1.5,3.34,3.34,3.34,3.34-1.52,3.34-3.34c0-1.84-1.5-3.34-3.34-3.34h0Zm0,5.44c-1.15,0-2.09-.94-2.09-2.09s.95-2.09,2.09-2.09,2.09.94,2.09,2.09c0,1.14-.96,2.09-2.09,2.09Z"/><path class="cls-1" d="m31.62,21.15l-.7-.31c-.25-.11-.38-.42-.28-.67l.28-.71c.09-.23.04-.49-.14-.67l-1.7-1.69c-.18-.18-.44-.23-.67-.14l-.71.28c-.26.1-.56-.03-.67-.28l-.31-.7c-.1-.23-.32-.38-.57-.38h-2.4c-.25,0-.47.15-.57.38l-.31.7c-.11.25-.42.38-.68.29l-.66-.24c-.23-.08-.48-.02-.65.15l-1.69,1.7c-.17.17-.23.43-.15.65l.24.66c.09.26-.04.57-.29.68l-.7.31c-.23.1-.38.32-.38.57v2.4c0,.25.15.47.38.57l.7.31c.25.11.38.42.28.67l-.28.71c-.09.23-.04.5.14.67l1.7,1.7c.18.18.44.23.67.14l.71-.28c.26-.1.56.03.67.28l.31.7c.1.23.32.38.57.38h2.4c.25,0,.47-.15.57-.38l.31-.7c.11-.25.42-.38.68-.29l.66.24c.23.08.48.02.65-.15l1.7-1.7c.17-.17.23-.43.15-.65l-.24-.66c-.05-.13-.04-.26.01-.38.05-.12.14-.24.28-.3l.7-.31c.23-.1.38-.32.38-.57v-2.4c0-.25-.15-.47-.38-.57Zm-.87,2.56l-.33.14c-.85.37-1.28,1.37-.97,2.25l.1.29-1.13,1.13-.29-.1c-.87-.31-1.88.12-2.25.97l-.14.33h-1.58l-.14-.33c-.37-.86-1.4-1.29-2.28-.94l-.33.13-1.12-1.12.13-.33c.34-.88-.08-1.9-.94-2.28l-.33-.14v-1.58l.32-.14c.85-.37,1.28-1.38.97-2.25l-.1-.29,1.13-1.13.29.1c.87.31,1.88-.12,2.25-.97l.14-.33h1.58l.14.33c.37.86,1.4,1.29,2.28.94l.33-.13,1.12,1.12-.13.33c-.35.88.08,1.9.94,2.28l.33.14v1.58h0Z"/><path class="cls-1" d="m12,20.55c.19.28.58.36.87.17.28-.19.36-.58.17-.87-.19-.28-.58-.36-.87-.17-.29.19-.36.58-.17.87Z"/></svg>