<?xml version="1.0" encoding="UTF-8"?><svg id="Layer_1" xmlns="http://www.w3.org/2000/svg" viewBox="0 0 32 32"><defs><style>.cls-1{stroke-width:0px;}</style></defs><path class="cls-1" d="m4.42,13.23h8.23v1.88H4.42v-1.88Z"/><path class="cls-1" d="m4.42,17.19h12.3v1.88H4.42v-1.88Z"/><path class="cls-1" d="m4.42,21.16h12.3v1.88H4.42v-1.88Z"/><path class="cls-1" d="m28.77,17.32c1.27-.96,2.09-2.49,2.09-4.2,0-2.91-2.47-5.48-5.56-5.27v-3.47H0v18.54c0,2.58,2.1,4.69,4.69,4.69h27.31v-6.04c0-2.02-1.37-3.73-3.23-4.25h0Zm-3.19-7.6c1.87,0,3.4,1.53,3.4,3.4s-1.53,3.4-3.4,3.4-3.4-1.53-3.4-3.4,1.53-3.4,3.4-3.4h0ZM1.88,6.26h21.55v2.05c-.42.19-.81.43-1.16.72H1.88v-2.76Zm17.29,15.32v4.16H4.69c-1.55,0-2.81-1.26-2.81-2.81v-12.02h18.93c-.32.68-.49,1.43-.49,2.22,0,1.71.82,3.24,2.09,4.2-1.86.52-3.23,2.23-3.23,4.25h0Zm10.96,4.16h-9.08v-4.16c0-1.4,1.14-2.54,2.54-2.54h4c1.4,0,2.54,1.14,2.54,2.54v4.16h0Z"/></svg>