<?xml version="1.0" encoding="UTF-8"?><svg id="Layer_1" xmlns="http://www.w3.org/2000/svg" viewBox="0 0 32 32"><defs><style>.cls-1{stroke-width:0px;}</style></defs><path class="cls-1" d="m14.05,2.07h-.13C6.23,2.07,0,8.31,0,16c0,3.65,1.43,7.16,3.99,9.76,2.58,2.64,6.12,4.14,9.81,4.17h0c.45,0,.81-.36.82-.81s-.36-.81-.81-.82c-6.8-.06-12.26-5.62-12.19-12.41.03-3.26,1.35-6.38,3.68-8.67,4.85-4.76,12.64-4.7,17.4.15,2.29,2.33,3.56,5.47,3.53,8.73,0,.45.36.82.81.82h0c.45,0,.81-.36.81-.81.07-7.69-6.11-13.98-13.81-14.05Z"/><path class="cls-1" d="m23.35,28.3h-3.4l2.51-2.96.06-.07h0c1.19-1.46.98-3.6-.47-4.78-1.29-1.06-3.17-1.02-4.41.09-.34.29-.38.81-.08,1.15.29.34.81.38,1.15.08,0,0,.01-.01.02-.02.73-.65,1.84-.59,2.49.14.58.65.6,1.62.05,2.29l-3.71,4.37c-.29.34-.25.85.09,1.15.15.12.33.19.52.19h5.16c.45,0,.81-.36.81-.81s-.36-.81-.81-.81Z"/><path class="cls-1" d="m31.19,24.85h-1.27v-1.62c0-.45-.36-.81-.81-.81s-.81.36-.81.81v1.62h-1.84l1.36-4.22c.14-.43-.1-.89-.52-1.02-.43-.14-.89.1-1.02.52l-1.71,5.29c-.14.43.1.89.52,1.02.08.03.17.04.25.04h2.96v2.64c0,.45.36.81.81.81s.81-.36.81-.81v-2.64h1.27c.45,0,.81-.36.81-.81s-.36-.81-.81-.81Z"/><path class="cls-1" d="m13.93,5.16c-.45,0-.81.36-.81.81v1.38c0,.45.36.81.81.81s.81-.36.81-.81v-1.38c0-.45-.36-.81-.81-.81Z"/><path class="cls-1" d="m13.93,23.84c-.45,0-.81.36-.81.81v1.38c0,.45.36.81.81.81s.81-.36.81-.81v-1.38c0-.45-.36-.81-.81-.81Z"/><path class="cls-1" d="m5.27,15.19h-1.38c-.45,0-.81.36-.81.81s.36.81.81.81h1.38c.45,0,.81-.36.81-.81s-.36-.81-.81-.81Z"/><path class="cls-1" d="m23.96,15.19h-1.38c-.45,0-.81.36-.81.81s.36.81.81.81h1.38c.45,0,.81-.36.81-.81s-.36-.81-.81-.81Z"/><path class="cls-1" d="m21.37,8.71c-.31-.33-.82-.34-1.15-.03,0,0-.02.02-.02.02l-5.13,5.04c-.71-.36-1.55-.37-2.26-.01l-2.84-2.86c-.32-.32-.83-.32-1.15,0-.32.32-.32.83,0,1.15l2.84,2.86c-.63,1.25-.12,2.78,1.14,3.4.35.18.74.27,1.13.27,1.4,0,2.54-1.13,2.54-2.54,0-.38-.09-.76-.25-1.11l5.13-5.04c.33-.31.34-.82.03-1.15Zm-7.44,8.2c-.5,0-.91-.41-.91-.91s.41-.91.91-.91c.5,0,.91.41.91.91,0,.5-.41.91-.91.91Z"/></svg>