<?xml version="1.0" encoding="UTF-8"?><svg id="Layer_1" xmlns="http://www.w3.org/2000/svg" viewBox="0 0 32 32"><defs><style>.cls-1{stroke-width:0px;}</style></defs><path class="cls-1" d="m5.7,23.64c-1.23,0-2.24,1-2.24,2.24.11,2.96,4.36,2.96,4.48,0,0-1.23-1-2.24-2.24-2.24Zm0,3.23c-.54,0-.99-.44-.99-.99.05-1.31,1.93-1.31,1.98,0,0,.54-.44.99-.99.99Z"/><path class="cls-1" d="m11,25.25c.45-.46.53-1.16.21-1.72l-.73-1.26c-.32-.55-.98-.83-1.59-.67l-.67.17c-.1.02-.2-.03-.22-.13l-.19-.66c-.17-.61-.74-1.04-1.38-1.04h-1.46c-.64,0-1.21.43-1.38,1.04l-.19.66c-.03.1-.13.15-.22.13l-.67-.17c-.62-.16-1.28.12-1.59.67l-.73,1.26c-.32.55-.23,1.26.21,1.72l.48.49c.07.07.07.19,0,.26l-.48.49c-.45.46-.53,1.16-.21,1.72l.73,1.26c.32.55.97.83,1.59.67l.67-.17c.1-.02.2.03.22.13l.19.66c.17.61.74,1.04,1.38,1.04h1.46c.64,0,1.21-.43,1.38-1.04l.19-.66c.03-.1.13-.15.22-.13l.67.17c.62.16,1.28-.12,1.59-.67l.73-1.26c.32-.55.23-1.26-.21-1.72l-.48-.49s0,0,0,0c-.07-.07-.07-.19,0-.26l.48-.49Zm-1.38,1.62l.48.49c.06.06.07.15.03.22l-.73,1.26c-.04.07-.13.11-.21.09l-.67-.17c-.76-.19-1.52.25-1.73,1l-.19.66c-.02.08-.1.13-.18.13h-1.46c-.08,0-.16-.06-.18-.13l-.19-.66c-.21-.74-.99-1.19-1.73-1l-.67.17c-.08.02-.16-.02-.21-.09l-.73-1.26c-.04-.07-.03-.16.03-.22l.48-.49c.54-.56.54-1.44,0-2l-.48-.49c-.06-.06-.07-.15-.03-.22l.73-1.26c.04-.07.13-.11.21-.09l.67.17c.76.19,1.52-.25,1.73-1l.19-.66c.02-.08.1-.14.18-.14h1.46c.08,0,.16.06.18.14l.19.66c.21.75.97,1.19,1.73,1l.67-.17c.08-.02.17.02.21.09l.73,1.26c.04.07.03.16-.03.22l-.48.49c-.54.56-.54,1.44,0,2h0Z"/><path class="cls-1" d="m18.74,26.26c.19-.25.17-.61-.05-.83l-1.71-1.71c-.24-.24-.64-.24-.88,0-.24.24-.24.64,0,.88l.65.65h-3.14c-.35,0-.63.28-.63.63s.28.63.63.63h3.14l-.65.65c-.24.24-.24.64,0,.88.24.24.64.24.88,0l1.71-1.71s.03-.04.05-.06Z"/><path class="cls-1" d="m18.87,5.86c-.02-.13-.08-.24-.17-.33l-1.71-1.71c-.24-.24-.64-.24-.88,0-.24.24-.24.64,0,.88l.65.65h-3.14c-.35,0-.63.28-.63.63s.28.63.63.63h3.14l-.65.65c-.24.24-.24.64,0,.88.24.24.64.24.88,0l1.71-1.71c.14-.14.21-.35.17-.55h0Z"/><path class="cls-1" d="m5.8,13.27c-.35,0-.63.28-.63.63v2.59l-.65-.65c-.24-.24-.64-.24-.88,0-.24.24-.24.64,0,.88l1.71,1.71c.24.24.64.24.88,0l1.71-1.71c.24-.24.24-.64,0-.88-.24-.24-.64-.24-.88,0l-.65.65v-2.59c0-.35-.28-.63-.62-.63h0Z"/><path class="cls-1" d="m26.07,13.27c-.35,0-.63.28-.63.63v2.59l-.65-.65c-.24-.24-.64-.24-.88,0-.24.24-.24.64,0,.88l1.71,1.71c.24.24.64.24.88,0l1.71-1.71c.24-.24.24-.64,0-.88-.24-.24-.64-.24-.88,0l-.65.65v-2.59c0-.35-.28-.63-.62-.63h0Z"/><path class="cls-1" d="m29.88,20.29h-7.55c-1.17,0-2.12.95-2.12,2.12v6.93c0,1.17.95,2.12,2.12,2.12h5.57c.83-.03.83-1.22,0-1.25h-5.57c-.48,0-.87-.39-.87-.87v-6.93c0-.48.39-.87.87-.87h7.55c.48,0,.87.39.87.87v5c.03.83,1.22.83,1.25,0v-5c0-1.17-.95-2.12-2.12-2.12h0Z"/><path class="cls-1" d="m.67,11.91h10.08c.35,0,.63-.28.63-.63v-1.87c0-1.94-1.42-3.56-3.28-3.87.38-.5.6-1.12.6-1.79v-.61c-.15-3.96-5.82-3.95-5.97,0v.61c0,.67.22,1.29.6,1.79C1.46,5.86.04,7.48.04,9.42v1.87c0,.35.28.63.63.63h0ZM3.97,3.15c.09-2.3,3.38-2.3,3.47,0v.61c-.09,2.3-3.38,2.3-3.47,0v-.61Zm-2.68,6.27c0-1.47,1.2-2.67,2.67-2.67h3.48c1.47,0,2.67,1.2,2.67,2.67v1.25h-1.26v-1.35c-.03-.83-1.22-.83-1.25,0v1.35h-3.79v-1.35c-.03-.83-1.22-.83-1.25,0v1.35h-1.27v-1.25Z"/><path class="cls-1" d="m26.23,11.7c3.18,0,5.77-2.59,5.77-5.77-.29-7.64-11.25-7.64-11.54,0,0,3.18,2.59,5.77,5.77,5.77h0Zm0-10.29c2.49,0,4.52,2.03,4.52,4.52-.23,5.99-8.81,5.98-9.04,0,0-2.49,2.03-4.52,4.52-4.52h0Z"/><path class="cls-1" d="m25.09,7.7c.24.24.64.24.88,0l2.66-2.66c.24-.24.24-.64,0-.88-.24-.24-.64-.24-.88,0l-2.22,2.22-.85-.85c-.24-.24-.64-.24-.88,0-.24.24-.24.64,0,.88l1.29,1.29Z"/><path class="cls-1" d="m28.19,23.61h-4.37c-.83.03-.83,1.22,0,1.25h4.37c.83-.03.83-1.22,0-1.25Z"/><path class="cls-1" d="m23.83,26.79c-.83.03-.83,1.22,0,1.25h2.28c.83-.03.83-1.22,0-1.25h-2.28Z"/><path class="cls-1" d="m31.49,30.19c-.22-.52-.98-.5-1.17.03-.19.53.4,1.03.9.75.27-.15.39-.49.27-.78Z"/></svg>