<?xml version="1.0" encoding="UTF-8"?><svg id="Layer_1" xmlns="http://www.w3.org/2000/svg" viewBox="0 0 32 32"><defs><style>.cls-1{stroke-width:0px;}</style></defs><path class="cls-1" d="m30.12,2.69h-8.81v-.75c0-1.03-.84-1.88-1.88-1.88h-6.88c-1.03,0-1.88.84-1.88,1.88v.75H1.88c-1.03,0-1.88.84-1.88,1.88v16.25c0,1.03.84,1.88,1.88,1.88h6.62v.62c0,1.03.84,1.88,1.88,1.88h.04l-2.19,5.91c-.12.32.05.68.37.8.32.12.68-.05.8-.37l2.35-6.34h8.51l2.35,6.34c.09.25.33.41.59.41.07,0,.15-.01.22-.04.32-.12.49-.48.37-.8l-2.19-5.91h.04c1.03,0,1.88-.84,1.88-1.88v-.62h6.62c1.03,0,1.88-.84,1.88-1.88V4.56c0-1.03-.84-1.88-1.88-1.88Zm-18.19-.75c0-.34.28-.62.62-.62h6.88c.34,0,.62.28.62.62v.63h-8.12v-.63Zm10.31,21.38c0,.34-.28.62-.62.62h-11.25c-.34,0-.62-.28-.62-.62v-.62h12.5v.62Zm8.5-2.5c0,.34-.28.62-.62.62H1.88c-.34,0-.62-.28-.62-.62V4.56c0-.34.28-.62.62-.62h28.25c.34,0,.62.28.62.62v16.25Z"/><path class="cls-1" d="m17.72,6.48h-5.62c-.35,0-.62-.28-.62-.62s.28-.62.62-.62h5.62c.35,0,.62.28.62.62s-.28.62-.62.62Z"/><path class="cls-1" d="m19.91,6.48c-.35,0-.63-.28-.63-.62s.28-.62.62-.62h0c.35,0,.62.28.62.62s-.28.62-.62.62Z"/><path class="cls-1" d="m25.43,12.13c-1.38,0-2.5-1.12-2.5-2.5s1.12-2.5,2.5-2.5,2.5,1.12,2.5,2.5-1.12,2.5-2.5,2.5Zm0-3.75c-.69,0-1.25.56-1.25,1.25s.56,1.25,1.25,1.25,1.25-.56,1.25-1.25-.56-1.25-1.25-1.25Z"/><path class="cls-1" d="m6.51,20.92c-1.38,0-2.5-1.12-2.5-2.5s1.12-2.5,2.5-2.5,2.5,1.12,2.5,2.5-1.12,2.5-2.5,2.5Zm0-3.75c-.69,0-1.25.56-1.25,1.25s.56,1.25,1.25,1.25,1.25-.56,1.25-1.25-.56-1.25-1.25-1.25Z"/><path class="cls-1" d="m27.83,20.5c-.12.13-.29.19-.45.19s-.31-.06-.43-.17l-.9-.87-.87.9c-.12.13-.29.19-.45.19s-.31-.06-.43-.18c-.25-.24-.25-.64-.01-.88l.87-.9-.9-.87c-.25-.24-.26-.64-.02-.88.24-.25.64-.26.88-.02l.9.87.87-.9c.24-.25.64-.25.88-.01.25.24.25.64.01.88l-.87.9.9.87c.25.24.26.64.02.88Z"/><path class="cls-1" d="m7.86,11.72c-.12.13-.29.19-.45.19s-.31-.06-.43-.18l-.9-.87-.87.9c-.12.13-.29.19-.45.19s-.31-.06-.43-.18c-.25-.24-.26-.64-.01-.88l.87-.9-.9-.87c-.25-.24-.26-.64-.02-.88.24-.25.64-.26.88-.02l.9.87.87-.9c.24-.25.64-.26.88-.02.25.24.25.64.01.88l-.87.9.9.87c.25.24.26.64.02.88Z"/><path class="cls-1" d="m19,18.41c-.12.13-.29.19-.45.19s-.31-.06-.43-.17l-.9-.87-.87.9c-.12.13-.29.19-.45.19s-.31-.06-.43-.18c-.25-.24-.26-.64-.02-.88l.87-.9-.9-.87c-.25-.24-.26-.64-.02-.88.24-.25.64-.26.88-.02l.9.87.87-.9c.24-.25.64-.26.88-.02s.25.64.01.88l-.87.9.9.87c.25.24.25.64.02.88Z"/><path class="cls-1" d="m22.31,9.69c-.03.34-.34.59-.68.56-.03,0-1.77-.15-4.05.41-2.62.65-4.85,1.93-6.64,3.81l1.19.06c.35.02.61.31.6.65-.02.34-.29.6-.62.6-.01,0-.02,0-.03,0l-2.47-.12s-.02,0-.03,0c-.01,0-.03,0-.04,0,0,0-.02,0-.02,0-.02,0-.03,0-.05-.01-.01,0-.03,0-.04-.01-.02,0-.04-.01-.06-.02,0,0-.02,0-.02-.01-.01,0-.02-.01-.03-.02,0,0,0,0-.01,0-.01,0-.03-.02-.04-.03,0,0,0,0-.01,0-.01-.01-.03-.02-.04-.03,0,0,0,0,0,0-.01-.01-.03-.03-.04-.04-.03-.03-.06-.07-.08-.11-.01-.02-.02-.04-.03-.06,0,0,0-.02-.01-.03s0-.02-.01-.03c0-.03-.02-.06-.02-.09,0,0,0,0,0,0l-.41-2.45s0-.07,0-.1c0-.3.22-.56.52-.62.34-.06.66.17.72.51l.19,1.15c2.45-2.56,5.27-3.69,7.32-4.19,2.49-.61,4.35-.44,4.42-.43.34.03.59.34.56.68Z"/></svg>