<?xml version="1.0" encoding="UTF-8"?><svg id="Layer_1" xmlns="http://www.w3.org/2000/svg" viewBox="0 0 32 32"><defs><style>.cls-1{stroke-width:0px;}</style></defs><g id="Layer_31"><path class="cls-1" d="m31.19,12.59h-2.22c-.31-1.17-.77-2.3-1.39-3.34l1.57-1.57c.32-.31.32-.83,0-1.14,0,0,0,0,0,0l-3.67-3.67c-.32-.3-.83-.3-1.15,0l-1.57,1.57c-1.04-.62-2.17-1.08-3.34-1.39V.81c0-.45-.36-.81-.81-.81h-5.2c-.45,0-.81.36-.81.81v2.22c-1.17.31-2.3.77-3.34,1.39l-1.57-1.57c-.32-.3-.83-.3-1.15,0l-3.67,3.67c-.32.31-.32.83,0,1.14,0,0,0,0,0,0l1.57,1.57c-.62,1.04-1.08,2.17-1.39,3.34H.81c-.45,0-.81.36-.81.81v5.2c0,.45.36.81.81.81h2.22c.31,1.17.77,2.3,1.39,3.34l-1.57,1.57c-.32.31-.32.83,0,1.14,0,0,0,0,0,0l3.67,3.67c.32.3.83.3,1.15,0l1.57-1.57c1.04.62,2.17,1.08,3.34,1.39v2.22c0,.45.36.81.81.81h5.2c.45,0,.81-.36.81-.81v-2.22c1.17-.31,2.3-.77,3.34-1.39l1.57,1.57c.32.3.83.3,1.15,0l3.67-3.67c.32-.31.32-.83,0-1.14,0,0,0,0,0,0l-1.57-1.57c.62-1.04,1.08-2.17,1.39-3.34h2.22c.45,0,.81-.36.81-.81v-5.2c0-.45-.36-.81-.81-.81Zm-.81,5.2h-2.06c-.39,0-.72.27-.8.65-.3,1.42-.86,2.78-1.65,3.99-.21.32-.17.75.1,1.02l1.45,1.45-2.52,2.52-1.45-1.45c-.27-.27-.7-.32-1.02-.1-1.21.8-2.57,1.36-3.99,1.65-.38.08-.65.41-.65.8v2.06h-3.57v-2.06c0-.39-.27-.72-.65-.8-1.42-.3-2.78-.86-3.99-1.65-.32-.21-.75-.17-1.02.1l-1.45,1.45-2.52-2.52,1.45-1.45c.27-.27.31-.7.1-1.02-.8-1.21-1.36-2.57-1.65-3.99-.08-.38-.41-.65-.8-.65H1.63v-3.57h2.06c.39,0,.72-.27.8-.65.3-1.42.86-2.78,1.65-3.99.21-.32.17-.75-.1-1.02l-1.45-1.45,2.52-2.52,1.45,1.45c.27.27.7.31,1.02.1,1.21-.8,2.57-1.36,3.99-1.65.38-.08.65-.41.65-.8V1.63h3.57v2.06c0,.39.27.72.65.8,1.42.3,2.78.86,3.99,1.65.32.21.75.17,1.02-.1l1.45-1.45,2.52,2.52-1.45,1.45c-.27.27-.31.7-.1,1.02.8,1.21,1.36,2.57,1.65,3.99.08.38.41.65.8.65h2.06v3.57Z"/><path class="cls-1" d="m16,6.12c-5.45,0-9.88,4.42-9.88,9.88s4.42,9.88,9.88,9.88,9.88-4.42,9.88-9.88c0-5.45-4.42-9.87-9.88-9.88Zm2.29,6.68h-4.58v-.42c0-1.26,1.02-2.29,2.29-2.29s2.29,1.02,2.29,2.29v.42Zm-6.09,1.63h7.59c.18,0,.33.15.33.33h0v6.82c0,.18-.15.33-.33.33h-7.59c-.18,0-.33-.15-.33-.33v-6.82c0-.18.15-.33.33-.33Zm.47,9.11h6.68c-2.13.95-4.56.95-6.69,0h.02Zm9.12-1.63v-7.15c0-1.04-.82-1.9-1.85-1.95v-.43c0-2.16-1.75-3.92-3.91-3.92-2.16,0-3.92,1.75-3.92,3.91h0v.44c-1.04.05-1.85.91-1.85,1.95v7.13c-3.26-3.19-3.31-8.41-.12-11.67,3.19-3.26,8.41-3.31,11.67-.12,3.26,3.19,3.31,8.41.12,11.67-.04.04-.08.08-.12.12v.02Z"/><path class="cls-1" d="m16,16.13c-.9.02-1.61.77-1.58,1.67.01.55.3,1.05.77,1.34v.73c0,.45.36.81.81.81s.81-.36.81-.81v-.73c.76-.47,1-1.48.53-2.24-.29-.47-.79-.76-1.34-.77Z"/></g></svg>