<?xml version="1.0" encoding="UTF-8"?><svg id="Layer_1" xmlns="http://www.w3.org/2000/svg" viewBox="0 0 333 248"><defs><style>.cls-1{fill:#e4e4e4;}.cls-1,.cls-2,.cls-3,.cls-4,.cls-5,.cls-6,.cls-7,.cls-8,.cls-9,.cls-10,.cls-11{stroke-width:0px;}.cls-2{fill:#fee;}.cls-3{fill:#e5e5e5;}.cls-4{fill:#db3545;}.cls-5{fill:#495182;}.cls-6{fill:#fff;}.cls-7{fill:#3f3d56;}.cls-8{fill:#ffb6b6;}.cls-9{fill:#cacaca;}.cls-10{fill:#f2f2f2;}.cls-11{fill:#2f2e41;}</style></defs><rect class="cls-2" width="333" height="248"/><path id="a24dc8e0-63f3-4c57-9da7-8d00cfa1aebe-2172" class="cls-1" d="m161.37,185.47c2.03.71,4.29.32,5.96-1.05,2.09-1.75,2.74-4.64,3.27-7.31l1.58-7.91-3.3,2.27c-2.37,1.63-4.8,3.32-6.44,5.68-1.64,2.37-2.36,5.59-1.04,8.15"/><path id="bc8b2ee0-9ec2-4139-a7e3-e0b1b1382397-2173" class="cls-10" d="m161.88,195.59c-.42-3.02-.84-6.09-.55-9.14.26-2.71,1.09-5.37,2.77-7.54.89-1.15,1.98-2.14,3.22-2.92.32-.2.62.31.3.51-2.14,1.35-3.79,3.34-4.72,5.69-1.03,2.61-1.19,5.46-1.01,8.23.11,1.68.33,3.34.56,5.01.04.16-.05.31-.21.36-.16.04-.32-.05-.36-.21h0Z"/><path id="a6bcb68f-fec1-4497-88cc-56de52c10faf-2174" class="cls-1" d="m164.87,190.74c.87,1.33,2.37,2.1,3.96,2.04,2-.1,3.67-1.49,5.18-2.82l4.45-3.93-2.94-.14c-2.12-.1-4.29-.2-6.31.46s-3.88,2.22-4.24,4.31"/><path id="a1650e23-bf32-4c95-848c-aacb59e17a01-2175" class="cls-10" d="m160.71,197.33c2-3.54,4.32-7.47,8.46-8.72,1.15-.35,2.36-.47,3.56-.37.38.03.28.61-.09.58-2.01-.17-4.01.36-5.68,1.5-1.6,1.09-2.85,2.6-3.9,4.21-.65.98-1.22,2.01-1.8,3.03-.18.33-.73.09-.54-.24Z"/><path class="cls-6" d="m227.04,154.47H81.07V50.79h145.97v103.69Z"/><path class="cls-5" d="m92.96,93.37c-.79,0-1.42.64-1.42,1.42,0,.78.64,1.42,1.42,1.42h49.29c.79,0,1.42-.64,1.42-1.43,0-.78-.64-1.42-1.42-1.42h-49.29Z"/><path class="cls-5" d="m92.96,101.91c-.79,0-1.42.63-1.43,1.42,0,.79.63,1.42,1.42,1.43,0,0,0,0,0,0h49.34c.79,0,1.42-.63,1.42-1.42,0-.79-.63-1.42-1.42-1.42h-49.33Z"/><path class="cls-5" d="m92.96,110.32c-.79,0-1.42.63-1.43,1.42,0,.79.63,1.42,1.42,1.43,0,0,0,0,0,0h11.1c.79,0,1.42-.63,1.42-1.42,0-.79-.63-1.42-1.42-1.42h-11.1Z"/><path class="cls-3" d="m227.04,154.47H81.07V50.79h145.97v103.69Zm-143.57-2.4h141.17V53.19H83.47v98.89Z"/><path class="cls-1" d="m181.11,131.69c-1.41,0-2.56,1.14-2.56,2.55,0,1.41,1.14,2.56,2.55,2.56h24.43c1.41,0,2.56-1.14,2.56-2.56,0-1.41-1.14-2.56-2.56-2.56h-24.42Z"/><path class="cls-1" d="m181.11,100.71c-1.41,0-2.56,1.14-2.56,2.55,0,1.41,1.14,2.56,2.55,2.56h24.43c1.41,0,2.56-1.14,2.56-2.56,0-1.41-1.14-2.56-2.56-2.56h-24.42Z"/><path class="cls-1" d="m92.96,132.88c-.79,0-1.42.63-1.43,1.42,0,.79.63,1.42,1.42,1.43,0,0,0,0,0,0h49.34c.79,0,1.42-.63,1.42-1.42,0-.79-.63-1.42-1.42-1.42h-49.33Z"/><path class="cls-1" d="m92.96,141.29c-.79,0-1.42.63-1.43,1.42s.63,1.42,1.42,1.43h11.11c.79,0,1.42-.63,1.42-1.42s-.63-1.42-1.42-1.42h-11.1Z"/><path class="cls-1" d="m92.96,124.34c-.79,0-1.42.64-1.42,1.42,0,.78.64,1.42,1.42,1.42h49.29c.79,0,1.42-.64,1.42-1.43,0-.78-.64-1.42-1.42-1.42h-49.29Z"/><path class="cls-1" d="m92.96,62.4c-.79,0-1.42.64-1.42,1.42s.64,1.42,1.42,1.42h49.29c.79,0,1.42-.64,1.42-1.42,0-.78-.64-1.42-1.42-1.42h-49.29Z"/><path class="cls-1" d="m92.96,70.94c-.79,0-1.42.63-1.43,1.42,0,.79.63,1.42,1.42,1.43h49.34c.79,0,1.42-.64,1.42-1.42s-.64-1.42-1.42-1.42h-49.33Z"/><path class="cls-1" d="m92.96,79.35c-.79,0-1.42.63-1.43,1.42,0,.79.63,1.42,1.42,1.43,0,0,0,0,0,0h11.1c.79,0,1.42-.63,1.42-1.42,0-.79-.63-1.42-1.42-1.42h-11.1Z"/><path class="cls-1" d="m181.11,69.75c-1.41,0-2.56,1.14-2.56,2.55,0,1.41,1.14,2.56,2.55,2.56h24.43c1.41,0,2.56-1.14,2.56-2.56,0-1.41-1.14-2.56-2.56-2.56h-24.42Z"/><circle class="cls-4" cx="186.25" cy="72.29" r="4.59"/><path class="cls-8" d="m194.27,104.38c-.19,1.39.78,2.68,2.17,2.87.15.02.3.03.45.02l2.44,5.28,3.57-.7-3.55-7.4c-.15-1.4-1.41-2.42-2.81-2.27-1.18.12-2.11,1.04-2.27,2.21h0Z"/><polygon class="cls-7" points="218.95 124.34 209.01 119.43 202 107.52 197.1 109.89 203.46 123.65 219.53 132.93 218.95 124.34"/><polygon class="cls-8" points="196.51 194.72 193.39 194.72 191.9 185.71 196.51 185.71 196.51 194.72"/><path class="cls-11" d="m197.31,197.75h-10.08v-.13c0-2.17,1.76-3.92,3.92-3.92h6.15s0,4.05,0,4.05Z"/><polygon class="cls-8" points="227.7 188.99 225.52 191.23 218.03 186.01 221.25 182.7 227.7 188.99"/><path class="cls-11" d="m230.43,190.53l-7.03,7.22-.09-.09c-1.55-1.51-1.58-3.99-.07-5.55h0s4.29-4.41,4.29-4.41l2.9,2.83Z"/><path class="cls-11" d="m200.38,141.1h-2.16c-5.62,6.14-9.91,13.37-12.6,21.25l-2.58,7.56,9.2,19.27,5.74.1-6.56-20.46,6.61-8.77.33,17.63,21.28,11.15,4.26-6.29-17.32-9.47,2.95-14.99s5.93-4.95,2.48-12.68l-11.64-4.3Z"/><path class="cls-7" d="m228.82,121.48l-8.98-3.93-9.89,4.38s-2.8,1.59-1.02,5.67l-10.73,13.5s.02,0,13.5,4.3l12.16-10.71c3.75-3.3,5.61-8.26,4.95-13.21h0Z"/><circle class="cls-8" cx="227.31" cy="111.17" r="6.26"/><path class="cls-11" d="m235.42,102.86c-1.44-1.17-3.67-1.42-5.15-.31-2.59-1.36-6.08-.65-7.94,1.61-.67.81-1.14,1.91-.81,2.91.33,1,1.75,1.58,2.5.84v.31c1.93,1.94,1.92,5.09-.02,7.03-.83.83-1.92,1.33-3.08,1.43,2.05.83,4.1,1.66,6.15,2.49.86.35,1.75.7,2.68.7s1.92-.46,2.28-1.32c.26.8.52,1.59.78,2.39,1.53-2.43,2.79-5.03,3.75-7.73.62-1.74,1.12-3.57,1.06-5.42-.07-1.85-.77-3.75-2.21-4.92Z"/><circle class="cls-4" cx="186.25" cy="134.22" r="4.59"/><circle class="cls-4" cx="200.53" cy="103.27" r="4.59"/><path class="cls-8" d="m200.65,101.83c-.19,1.39.78,2.68,2.17,2.87.15.02.3.03.45.02l2.44,5.28,3.57-.7-3.55-7.4c-.15-1.4-1.41-2.42-2.81-2.27-1.18.12-2.11,1.04-2.27,2.21h0Z"/><polygon class="cls-7" points="225.33 121.8 215.39 116.88 208.37 104.97 203.47 107.34 209.83 121.1 225.91 130.38 225.33 121.8"/><path class="cls-9" d="m253.29,197.95h-97.11c-.14,0-.25-.11-.25-.25s.11-.25.25-.25h97.11c.14,0,.25.11.25.25s-.11.25-.25.25Z"/></svg>