<?xml version="1.0" encoding="UTF-8"?><svg id="Layer_1" xmlns="http://www.w3.org/2000/svg" viewBox="0 0 333 248"><defs><style>.cls-1{fill:#e4e4e4;}.cls-1,.cls-2,.cls-3,.cls-4,.cls-5,.cls-6,.cls-7,.cls-8,.cls-9,.cls-10,.cls-11{stroke-width:0px;}.cls-2{fill:#c2bfff;}.cls-3{fill:#2f2e43;}.cls-4{fill:#f0f0f0;}.cls-5{fill:#6c63ff;}.cls-6{fill:#fff;}.cls-7{fill:#3f3d56;}.cls-8{fill:#ffb6b6;}.cls-9{fill:#cacaca;}.cls-10{fill:#ffb8b8;}.cls-11{fill:#2f2e41;}</style></defs><rect class="cls-2" width="333" height="248"/><rect class="cls-6" x="122.72" y="50.26" width="160.06" height="103.99"/><path class="cls-3" d="m283.09,154.56H122.4V49.95h160.68v104.61Zm-160.06-.62h159.44V50.57H123.03v103.37Z"/><path class="cls-7" d="m192.69,60.43c4.7.08,4.7,7.07,0,7.15-4.7-.08-4.7-7.07,0-7.15Z"/><path class="cls-5" d="m202.74,60.43c4.7.08,4.7,7.07,0,7.15-4.7-.08-4.7-7.07,0-7.15Z"/><path class="cls-9" d="m212.8,60.43c4.7.08,4.7,7.07,0,7.15-4.7-.08-4.7-7.07,0-7.15Z"/><rect class="cls-9" x="150.36" y="87.82" width="32.01" height=".39"/><path class="cls-9" d="m255.32,144.08h-44.04v-41.13h44.04v41.13Zm-43.65-.39h43.26v-40.35h-43.26v40.35Z"/><rect class="cls-9" x="233.11" y="93.66" width=".39" height="59.71" transform="translate(-16.18 209.79) rotate(-46.97)"/><rect class="cls-9" x="203.45" y="123.32" width="59.71" height=".39" transform="translate(-21.54 192.39) rotate(-43.02)"/><path class="cls-9" d="m255.32,82.39h-105.15v-7.18h105.15v7.18Zm-104.77-.39h104.38v-6.4h-104.38v6.4Z"/><path class="cls-9" d="m189.06,114.12h-38.58v-7.18h38.58v7.18Zm-38.19-.39h37.81v-6.4h-37.81v6.4Z"/><path class="cls-9" d="m189.06,126.25h-38.58v-7.18h38.58v7.18Zm-38.19-.39h37.81v-6.4h-37.81v6.4Z"/><path class="cls-9" d="m189.06,138.38h-38.58v-7.18h38.58v7.18Zm-38.19-.39h37.81v-6.4h-37.81v6.4Z"/><path class="cls-5" d="m160.58,96.71h-10.35c.8-3.21.7-6.69,0-10.35h10.35c-1.46,3.31-1.49,7.06,0,10.35Z"/><rect class="cls-6" x="151.8" y="88.56" width="6.27" height="1.25"/><rect class="cls-6" x="151.8" y="91.07" width="6.27" height="1.25"/><rect class="cls-6" x="151.8" y="93.58" width="6.27" height="1.25"/><path class="cls-5" d="m238.51,112.34h-10.35c.8-3.21.7-6.69,0-10.35h10.35c-1.45,3.3-1.45,7.05,0,10.35Z"/><rect class="cls-6" x="229.73" y="104.19" width="6.27" height="1.25"/><rect class="cls-6" x="229.73" y="106.7" width="6.27" height="1.25"/><rect class="cls-6" x="229.73" y="109.21" width="6.27" height="1.25"/><path class="cls-5" d="m251.82,90.17h-10.35c.8-3.21.7-6.69,0-10.35h10.35c-1.45,3.3-1.45,7.05,0,10.35Z"/><rect class="cls-6" x="243.04" y="82.01" width="6.27" height="1.25"/><rect class="cls-6" x="243.04" y="84.52" width="6.27" height="1.25"/><rect class="cls-6" x="243.04" y="87.03" width="6.27" height="1.25"/><path class="cls-11" d="m99.29,92.89h-17.15v-9.17c0-4.73,3.84-8.57,8.57-8.57s8.57,3.84,8.57,8.57v9.17Z"/><polygon class="cls-8" points="106.95 194.96 110.63 194.96 112.39 180.74 106.95 180.74 106.95 194.96"/><path class="cls-11" d="m106.01,193.76h7.26s0,0,0,0c2.56,0,4.63,2.07,4.63,4.63v.15h-11.89s0-4.78,0-4.78Z"/><polygon class="cls-8" points="62.86 190.04 66.07 191.86 74.6 180.33 69.86 177.66 62.86 190.04"/><path class="cls-11" d="m62.64,188.53l6.32,3.57h0c2.23,1.26,3.01,4.08,1.75,6.31l-.07.13-10.35-5.85,2.35-4.16Z"/><path class="cls-11" d="m86.43,130.99l-.28,1.42s-.85.85-.43,1.28.28,2.42.28,2.42c-.24,3.63-4.98,24.04-5.83,28.03,0,0-6.55,4.27-11.67,12.66-5.12,8.4-5.26,10.53-5.26,10.53l5.69,2.42,14.23-17.22s3.98-2.42,5.41-4.55c1.42-2.13,10.24-24.19,10.24-24.19l4.98,23.05s-.28,8.4,1,13.8c.79,3.41,1.26,6.89,1.42,10.39l6.69-.71s-.43-20.21-1.14-22.34c0,0,2.99-24.62-2.99-34.43l-4.82-12.84-4.72-1.82-12.81,12.09Z"/><path class="cls-10" d="m90.63,77.39c8.98.15,8.98,13.51,0,13.66-8.98-.15-8.98-13.51,0-13.66Z"/><path class="cls-11" d="m97.54,83.86h-1.53l-.42-1.04.21,1.04h-8.35l.27-2.17-2.03,2.17h-2.02v-1.18c0-3.83,3.09-6.94,6.92-6.94,3.83,0,6.94,3.09,6.94,6.92,0,0,0,.02,0,.02v1.18Z"/><path class="cls-1" d="m99.89,95.04l-16.97.14,3.59,36.37s19.84-1.05,19.85-7.1l-1.86-5.38-4.61-24.02Z"/><path id="a921541c-c001-4299-8f7c-75c007cac120-1967" class="cls-6" d="m131.46,158.5l-59.14,12.25c-.6.12-1.3-.78-1.56-2.01l-6.22-30.02c-.26-1.24.03-2.34.63-2.47l59.14-12.25c.6-.12,1.3.78,1.56,2.01l6.22,30.02c.26,1.24-.03,2.34-.63,2.47Z"/><g id="a63949a2-a794-48d0-a35a-8c12e4616a27"><circle id="bdfdee77-367c-420e-9119-e33862087a46" class="cls-4" cx="86.66" cy="144.19" r="5.28"/><path id="f21c0c69-10dc-4e04-b124-1a0d4dcadc3b-1968" class="cls-1" d="m106.18,156.77l-25.37,5.25s-.06.01-.1.01l7.7-23.27c.14-.45.63-.7,1.08-.55.15.05.28.13.38.25l10.94,12.28.52.59,4.84,5.44Z"/><path id="a63814cd-9c0a-4ddf-af41-edb1ac5f3322-1969" class="cls-1" d="m120.3,153.84l-21.94,4.54,2.97-7.06.21-.51,3.87-9.2c.29-.56.97-.79,1.54-.51.04.02.07.04.11.06.04.03.07.05.1.08l13.14,12.58Z"/></g><path id="e00a8b63-2679-46d7-8caf-93b6261f662d-1970" class="cls-9" d="m131.46,158.5l-59.14,12.25c-.6.12-1.3-.78-1.56-2.01l-6.22-30.02c-.26-1.24.03-2.34.63-2.47l59.14-12.25c.6-.12,1.3.78,1.56,2.01l6.22,30.02c.26,1.24-.03,2.34-.63,2.47Zm-66.1-21.36c-.36.08-.53.74-.38,1.48l6.22,30.02c.15.74.57,1.28.94,1.21l59.14-12.25c.36-.08.53-.74.38-1.48l-6.22-30.02c-.15-.74-.57-1.28-.94-1.21l-59.14,12.25Z"/><path class="cls-8" d="m113.97,130.71c-1.41-.66-2.02-2.34-1.36-3.75.07-.15.15-.29.25-.43l-3.44-5.45,2.8-2.9,4.74,7.77c1.22.99,1.4,2.77.42,3.99-.83,1.02-2.24,1.34-3.42.77h0Z"/><path class="cls-1" d="m97.28,96.47l2.46-1.62s1.9.43,3.92,4.31c2.02,3.89,10.17,21.26,10.17,21.26l-3.35,3.4-8.93-13.63-4.27-13.72Z"/><path class="cls-8" d="m82.2,135.06c.98-1.21.8-2.98-.4-3.97-.13-.11-.27-.2-.41-.28l.74-6.4-3.78-1.4-.91,9.06c-.67,1.42-.06,3.11,1.35,3.78,1.18.56,2.6.24,3.42-.79h0Z"/><path class="cls-1" d="m85.15,98.31l-2.23-3.12s-1.53-.34-3.33,1.77c-1.8,2.11-2.86,28.43-2.86,28.43l6.62,1.5,3.91-18.65-2.11-9.93Z"/><path class="cls-9" d="m152.05,198.62H37.45c-.17,0-.3-.13-.3-.3s.13-.3.3-.3h114.6c.17,0,.3.13.3.3s-.13.3-.3.3Z"/><path class="cls-5" d="m78.31,144.19l-9.79,2.08c.11-3.2-.68-6.47-2.08-9.79l9.79-2.08c-.71,3.41.05,6.96,2.08,9.79Z"/><rect class="cls-6" x="68.43" y="137.6" width="6.06" height="1.21" transform="translate(-27.15 17.86) rotate(-11.99)"/><rect class="cls-6" x="68.94" y="139.97" width="6.06" height="1.21" transform="translate(-27.63 18.01) rotate(-11.99)"/><rect class="cls-6" x="69.44" y="142.35" width="6.06" height="1.21" transform="translate(-28.11 18.17) rotate(-11.99)"/></svg>