<?xml version="1.0" encoding="UTF-8"?>
<svg id="Layer_1" data-name="Layer 1" xmlns="http://www.w3.org/2000/svg" viewBox="0 0 333 248">
  <defs>
    <style>
      .cls-1 {
        fill: #495182;
      }

      .cls-1, .cls-2, .cls-3, .cls-4, .cls-5, .cls-6, .cls-7, .cls-8, .cls-9, .cls-10 {
        stroke-width: 0px;
      }

      .cls-2 {
        fill: #2f2e41;
      }

      .cls-3 {
        fill: #3f3d56;
      }

      .cls-4 {
        fill: #cacaca;
      }

      .cls-5 {
        fill: #db3545;
      }

      .cls-6 {
        fill: #bac1e2;
      }

      .cls-7 {
        fill: #feb8b8;
      }

      .cls-8 {
        fill: #ffb6b6;
      }

      .cls-9 {
        fill: #fbbebe;
      }

      .cls-10 {
        fill: #e7e9f9;
      }
    </style>
  </defs>
  <rect class="cls-10" width="333" height="248"/>
  <g>
    <g>
      <path class="cls-3" d="M244.08,127.65h-91.23c-1.01,0-1.82-.82-1.83-1.83v-17.2h.73v17.2c0,.6.49,1.09,1.1,1.1h91.23c.6,0,1.09-.49,1.1-1.1v-17.32h.73v17.32c0,1.01-.82,1.82-1.83,1.83Z"/>
      <rect class="cls-3" x="62.78" y="108.26" width="214.38" height=".73"/>
      <circle id="a67a4451-c7cc-402c-b29d-5a705f3c9418" class="cls-1" cx="62.79" cy="108.57" r="6.28"/>
      <circle id="abdb3fbf-f68e-433e-a33f-153626b38c76" class="cls-5" cx="126.61" cy="108.57" r="6.28"/>
      <circle id="ac293633-0933-4e21-a8aa-bc27ca4fbccc" class="cls-3" cx="169.92" cy="127.03" r="6.28"/>
      <circle id="a0cd768d-b738-4d4b-9ab3-78ab535c7573" class="cls-6" cx="202.84" cy="127.03" r="6.28"/>
      <circle id="b9eb3d2e-31e0-4fe2-be5c-79abb86bc227" class="cls-1" cx="186.89" cy="108.57" r="6.28"/>
      <circle id="aa04baac-fce0-420a-b86a-4a97f3079928" class="cls-1" cx="276.29" cy="108.57" r="6.28"/>
      <circle id="e92cf92c-058e-415c-ba96-766a57ee18d9" class="cls-5" cx="245.54" cy="108.57" r="6.28"/>
      <rect id="ac5bf8cc-574d-4509-9338-881c836fd832" class="cls-3" x="163.95" y="50.82" width="11.65" height="8.03"/>
      <rect id="ad5a043d-52f1-4931-b771-e4991ef7f7f7" class="cls-1" x="57.01" y="50.82" width="11.65" height="8.03"/>
      <rect id="e5d95e83-bdd9-4322-95a9-5a9c4b449a8f" class="cls-6" x="96.47" y="50.82" width="11.65" height="8.03"/>
      <path class="cls-3" d="M82.27,108.99c-.2,0-.37-.16-.37-.37v-18.02c0-1.01.82-1.82,1.83-1.83h17.77c.2,0,.37.16.37.37s-.16.37-.37.37h-17.77c-.6,0-1.09.49-1.1,1.1v18.02c0,.2-.16.37-.37.37Z"/>
      <circle id="b0a7c1c1-8f27-441f-a84a-e44462cc473e" class="cls-6" cx="102.33" cy="89.01" r="6.28"/>
      <path class="cls-3" d="M222.82,108.63h-.73v-18.02c0-1.01.82-1.82,1.83-1.83h17.77v.73h-17.77c-.6,0-1.09.49-1.1,1.1v18.02Z"/>
      <circle id="b3140cf1-cdb8-48ff-81af-ce41ed4f5739" class="cls-6" cx="242.52" cy="89.01" r="6.28"/>
    </g>
    <g>
      <g id="f9b32178-6d95-472d-b482-6662972666de">
        <path id="f4b94a19-cbe0-459a-95a6-6ea3b3d72055-950" class="cls-6" d="M223.19,174.95c-1.11,0-2,.9-2,2s.9,2,2,2,2-.9,2-2h0c0-1.11-.9-2-2-2ZM223.19,178.18c-.68,0-1.23-.55-1.23-1.23,0-.68.55-1.23,1.23-1.23.68,0,1.23.55,1.23,1.23h0c0,.68-.55,1.23-1.23,1.23Z"/>
        <path id="abc0e0b3-f22e-4bee-9929-c6879640924e-951" class="cls-6" d="M215.49,173.41h7.7v7.62c0,.55-.45,1-1,1h-5.69c-.55,0-1-.45-1-1h0v-7.62h0Z"/>
      </g>
      <path id="e24b6f19-a0a0-4e73-9cfc-bbb7635ad236-952" class="cls-4" d="M269.82,191.09H119.58c-.12-.01-.22-.13-.2-.25.01-.11.1-.19.2-.2h150.23c.12.01.22.13.2.25-.01.11-.1.19-.2.2Z"/>
      <polygon class="cls-8" points="139.6 186.81 138.67 191.41 155.95 197.18 157.32 190.4 139.6 186.81"/>
      <path class="cls-2" d="M141.34,185.94l-1.83,9.05h0c-.64,3.18-3.75,5.24-6.93,4.6l-.19-.04,3-14.81,5.95,1.2Z"/>
      <circle id="fd4e5ab9-ffc8-4bbb-9267-3af70c31dae1" class="cls-7" cx="159.18" cy="111.8" r="11.73"/>
      <path id="a8c9bbe2-1461-49cf-8211-f8d251166dc5-953" class="cls-2" d="M170.14,101.68c-1.75-2.85-4.5-4.95-7.71-5.89l-1.44,1.05v-1.36c-.77-.12-1.55-.16-2.33-.14l-1.24,1.12v-1.03c-3.72.46-7.08,2.46-9.26,5.51-2.7,3.89-3.15,9.3-.5,13.22.73-2.24,1.61-4.34,2.34-6.58.57.08,1.15.08,1.73,0l.89-2.07.25,1.98c2.75-.24,6.82-.76,9.43-1.25l-.25-1.52,1.52,1.26c.8-.18,1.27-.35,1.23-.48,1.94,3.12,4.31,5.12,6.24,8.24.74-4.4,1.58-8.07-.89-12.08Z"/>
      <ellipse id="f6be96d1-713f-4c17-812c-ecd79c56fe95" class="cls-2" cx="163" cy="180.12" rx="30.21" ry="8.45"/>
      <path class="cls-1" d="M184.41,141.97c-.4-2.43-.82-4.9-1.95-7.09-.74-1.43-1.92-2.8-3.5-3.08-.31-.03-.62-.1-.91-.21-.46-.22-6.71-3.79-7.7-4.41-.85-.53-2.2-1.52-2.88-1.52-.68-.02-3.3.59-13.52-.2-1.72.69-3.38,1.51-4.98,2.45-.03-.02-10.6,5.65-11,5.64-.75-.03-1.45.45-1.88,1.06-.43.61-.63,1.36-.84,2.08,2.31,5.14,4.42,10.29,6.73,15.43.11.19.17.41.17.63-.05.23-.14.45-.29.63-1.13,1.82-1.1,4.11-.97,6.24.12,2.14.28,4.4-.68,6.31-.26.53-.6,1.01-.84,1.53-.58,1.19-.79,5-.45,6.28l42.35,1.21c-.91-2.5,3.15-33,3.15-33Z"/>
      <path id="eb41f72e-aba6-4a16-bf55-c7027d2f1a4b-954" class="cls-9" d="M131.59,152.34c-.08.61-.09,1.23-.03,1.84l.61,8.72c.06.82.11,1.64.19,2.46.15,1.59.36,3.17.63,4.74.01.47.4.83.87.82,2.67.57,5.43.54,8.16.39,4.16-.23,14.81-.67,15.46-1.52s.27-2.21-.58-2.9-14.9-2.35-14.9-2.35c.14-1.09.55-2.11.94-3.15.71-1.83,1.36-3.72,1.38-5.69.01-1.96-.73-4.03-2.33-5.15-1.32-.92-3.03-1.09-4.64-1.06-1.17.03-3.2-.25-4.27.21-.85.37-1.34,1.78-1.5,2.61Z"/>
      <path id="a363f2f7-2464-40a1-ad01-344825aa0b75-955" class="cls-2" d="M184.49,172.05c.7-.27,1.48-.17,2.23-.07,2.43.33,4.89.67,7.14,1.64,1.06.45,2.06,1.06,2.78,1.95.63.8,1,1.78,1.35,2.75l.81,2.22c.34.83.58,1.71.71,2.6.25,2.66-1.57,5.17-3.85,6.55-2.29,1.38-4.98,1.87-7.6,2.39s-5.26,1.09-7.87,1.69c-1.22.32-2.46.56-3.7.73-2.8.32-5.72-.15-8.38.78-1.06.37-2.09.92-3.19,1.17-.73.15-1.46.27-2.21.34l-5.03.57c-1.02.14-2.05.22-3.08.24-2.2,0-4.36-.52-6.49-1.04-.23-.04-.44-.13-.63-.26-.34-.27-.41-.74-.46-1.16-.22-1.89-.4-3.78-.57-5.67-.05-.61-.09-1.28.25-1.8.42-.63,1.25-.83,2-.95,3.19-.52,6.42-.75,9.65-.67,1.23-1.23,3.25-1.23,4.86-1.9.59-.27,1.16-.58,1.71-.93,2.88-1.68,6.09-2.69,9.41-2.97.65-.02,1.3-.11,1.92-.27,1.24-.39,2.38-1.44,3.66-1.18.16-.44.27-1.02.63-1.32.18-.15.41-.26.57-.42.35-.36.38-.92.33-1.42s-.17-1.01-.04-1.5c.05-.18.13-.36.23-.52.63-1.09,1.59-1.65,2.86-1.55Z"/>
      <path id="b53ad979-99f4-4c6e-a0f8-957060c42096-956" class="cls-1" d="M135.13,136.84c-.21.22-.37.47-.47.75-1.71,3.85-2.72,7.97-2.98,12.17,0,.2-.04.41-.14.59-.09.12-.2.23-.31.34-.42.49-.35,1.23.14,1.64.02.02.04.03.06.05.35-.66,1.18-.87,1.92-.93,3.55-.28,7.02,1.37,10.58,1.25-.25-.87-.61-1.7-.82-2.58-.91-3.9,1.35-8.15-.03-11.91-.28-.75-.74-1.49-1.47-1.82-.3-.12-.62-.21-.94-.25-.9-.16-2.69-.86-3.56-.58-.32.1-.45.41-.71.59-.4.26-.94.35-1.28.69Z"/>
      <path id="a1197c30-bfd4-4098-bcf9-2468e7a33bf1-957" class="cls-9" d="M184.44,149.73c-1.07-.46-3.1-.18-4.27-.21-1.61-.04-3.31.13-4.64,1.06-1.61,1.12-2.35,3.19-2.33,5.15.01,1.96.67,3.85,1.38,5.69.39,1.03.81,2.06.94,3.15,0,0-14.05,1.67-14.9,2.35s-1.23,2.05-.58,2.9,20.95,1.69,23.62,1.13c.47.01.85-.36.87-.82.27-1.58.49-3.15.63-4.74.08-.82.13-1.64.19-2.46l.61-8.72c.07-.61.06-1.23-.03-1.84-.16-.83-.65-2.24-1.5-2.61Z"/>
      <path id="ebe46053-6aac-4aa7-8615-21a6fa79538d-958" class="cls-1" d="M172.85,139.88c-.21-.14-.3-.37-.55-.45-.67-.21-2.05.32-2.74.45-.25.03-.49.1-.72.19-.56.25-.92.82-1.13,1.4-1.07,2.9.67,6.17-.02,9.17-.16.68-.44,1.32-.63,1.99,2.74.1,5.42-1.18,8.15-.96.57.04,1.21.21,1.48.71.02-.01.03-.02.05-.04.38-.32.43-.89.11-1.27-.09-.08-.17-.17-.24-.26-.07-.14-.11-.3-.11-.45-.2-3.24-.98-6.41-2.29-9.38-.08-.22-.2-.41-.36-.58-.26-.26-.67-.34-.98-.53Z"/>
      <polygon class="cls-8" points="187.06 193.37 186.44 198.02 168.23 197.85 169.14 190.99 187.06 193.37"/>
      <path class="cls-2" d="M181.02,183.52l-1.53,11.54-.15-.02c-2.48-.33-4.23-2.61-3.9-5.09h0s.94-7.05.94-7.05l4.64.62Z"/>
      <path id="a0b0f7ea-4ed9-4447-aa64-e2335b2c3196-959" class="cls-2" d="M144.21,174.4c0,.21-.33,0-.36-.23-.23-1.71-1.59-3.12-3.17-3.8s-3.38-.72-5.09-.56c-2.59.24-5.49,1.24-6.44,3.65-.22.57-2.32,5.6-2.12,6.73.55,3.02,2.62,5.6,5.12,7.39,2.5,1.79,5.43,2.86,8.35,3.82,7.71,2.54,15.63,4.43,23.66,5.65,1.3.2,2.62.38,3.86.8,1.12.37,2.16.93,3.25,1.37,2.53,1.02,5.26,1.38,7.96,1.74.46.06.99.1,1.33-.21.44-.41.29-1.12.17-1.7-.46-2.22-.07-4.54,1.08-6.5.45-.76,1.04-1.54.95-2.42-.1-1.03-1.12-1.75-2.14-1.92s-2.05.08-3.08.21c-.35.08-.72.04-1.05-.1-.15-.1-.29-.22-.41-.36-1.44-1.39-3.62-1.7-5.4-.75-.38.21-.95-.26-1.34-.44l-4.44-2.01c-5.1-2.31-10.23-4.63-15.63-6.09-.43-.08-.84-.25-1.2-.5-.27-.21-.46-.5-.71-.73-.54-.51-1.29-.71-1.93-1.07s-1.37-1.25-1.22-1.97Z"/>
      <circle class="cls-9" cx="155.71" cy="168.18" r="3.17"/>
      <circle class="cls-9" cx="162.72" cy="168.18" r="3.17"/>
      <path class="cls-3" d="M182.27,175.31h-43.5c-1.06,0-1.91-.86-1.92-1.92v-26.39c0-1.06.86-1.91,1.92-1.92h43.5c1.06,0,1.91.86,1.92,1.92v26.39c0,1.06-.86,1.91-1.92,1.92Z"/>
      <circle id="e793da3b-cee2-4a15-ae11-6dab45a6c728" class="cls-6" cx="160.41" cy="160.2" r="1.27"/>
    </g>
  </g>
  <rect id="e5d95e83-bdd9-4322-95a9-5a9c4b449a8f-2" data-name="e5d95e83-bdd9-4322-95a9-5a9c4b449a8f" class="cls-6" x="85.44" y="107.49" width="11.65" height="8.03"/>
</svg>