<?xml version="1.0" encoding="UTF-8"?><svg id="Layer_1" xmlns="http://www.w3.org/2000/svg" viewBox="0 0 333 248"><defs><style>.cls-1{fill:#a0616a;}.cls-1,.cls-2,.cls-3,.cls-4,.cls-5,.cls-6,.cls-7,.cls-8,.cls-9{stroke-width:0px;}.cls-2{fill:#fee;}.cls-3{fill:#e6e6e6;}.cls-4{fill:#db3545;}.cls-5{fill:#495182;}.cls-6{fill:#fff;}.cls-7{fill:#3f3d56;}.cls-8{fill:#cacaca;}.cls-9{fill:#2f2e41;}</style></defs><rect class="cls-2" width="333" height="248"/><path class="cls-6" d="m245.76,163.06c-2.6,7.64-6.22,15.18-11.16,22.26-.11.16-.22.32-.33.47l-14.8-4.54c.06-.15.13-.32.21-.51,4.46-11.04,31.31-78.35,28.13-92.25.3,1.14,10.15,38.87-2.04,74.57Z"/><path class="cls-6" d="m237.46,186.19c-.18.14-.36.28-.55.41l-11.1-3.4c.13-.12.28-.27.46-.44,2.85-2.75,11.31-10.98,19.5-19.7,8.8-9.37,17.27-19.29,18.12-23.56-.16.97-5.14,30.6-26.42,46.69Z"/><path id="adc31fd7-f1bd-4275-a5ba-966b160b5074-3810" class="cls-7" d="m238.83,84.61h-.81v-22.18c0-7.09-5.75-12.84-12.84-12.84h-46.99c-7.09,0-12.84,5.75-12.84,12.84h0v121.69c0,7.09,5.75,12.84,12.84,12.84h46.99c7.09,0,12.84-5.75,12.84-12.84h0v-83.72h.81v-15.79Z"/><path id="ba1c2519-d6d5-475e-b818-d50dee449681-3811" class="cls-6" d="m225.7,52.94h-6.13c.95,2.33-.17,4.99-2.5,5.94-.55.22-1.13.34-1.72.34h-26.92c-2.52,0-4.55-2.04-4.55-4.56,0-.59.11-1.17.34-1.72h-5.73c-5.29,0-9.59,4.29-9.59,9.59h0v121.51c0,5.29,4.29,9.59,9.59,9.59h47.22c5.29,0,9.59-4.29,9.59-9.59h0V62.52c0-5.29-4.29-9.59-9.59-9.59h0Z"/><circle id="b1347523-5d0d-4426-8baa-7e4ff69466d7" class="cls-4" cx="202.17" cy="177.51" r="5.26"/><g id="f07fc029-d661-4a9c-a387-d7f638457fb7"><rect id="b6842365-6bf6-421b-a76f-142cad50747e" class="cls-3" x="172.98" y="116.51" width="58.21" height="11.49"/><path id="e7fbf384-106f-4cb3-8269-5d203db1b915-3812" class="cls-6" d="m174.22,126.76h55.73v-9.01h-55.73v9.01Z"/><path id="f5c17ec5-dcf3-493c-940c-3f483179e7ee-3813" class="cls-4" d="m179.1,118.75c1.9,0,3.43,1.54,3.43,3.43,0,1.9-1.54,3.43-3.43,3.43s-3.43-1.54-3.43-3.43c0-1.9,1.54-3.43,3.43-3.43h0Z"/><rect id="adafbf9e-f9c7-4cfa-9aad-5eb67346e79b" class="cls-3" x="187.31" y="120.84" width="33.88" height=".75"/><rect id="be8534b7-df20-46df-9f05-64e7092d168b" class="cls-3" x="187.31" y="122.78" width="33.88" height=".75"/></g><g id="e9d029e2-4dd4-4647-b108-53b557302a97"><rect id="b4cf72e5-4ba6-4e2b-b14c-1171a63de167" class="cls-3" x="172.98" y="132.91" width="58.21" height="11.49"/><path id="abc8e350-e50b-4525-a5c6-ed7f7a98e41a-3814" class="cls-6" d="m174.22,143.16h55.73v-9.01h-55.73v9.01Z"/><circle id="b1ceed28-7a6c-48a0-a241-2405df300e97" class="cls-5" cx="179.1" cy="138.58" r="3.43"/><rect id="afcf7a73-8185-49b7-bb67-77f1fdddc979" class="cls-3" x="187.31" y="137.24" width="33.88" height=".75"/><rect id="be6a92c9-7616-468a-a67a-29b28eb9632c" class="cls-3" x="187.31" y="139.18" width="33.88" height=".75"/></g><g id="f4943932-aa58-49fe-bbcc-e4a4546cf491"><rect id="b57d1f36-8955-4db1-8860-63423d74537a" class="cls-3" x="172.98" y="149.31" width="58.21" height="11.49"/><path id="a63cfb64-3b51-4102-91ab-4269507e4ee8-3815" class="cls-6" d="m174.22,159.56h55.73v-9.01h-55.73v9.01Z"/><circle id="a17c1f24-f75d-4e1e-acc5-863bf9fe01d1" class="cls-5" cx="179.1" cy="154.98" r="3.43"/><rect id="f940ca31-2ab4-48ba-9a2d-1c1060c535fd" class="cls-3" x="187.31" y="153.64" width="33.88" height=".75"/><rect id="bd14fb11-4b03-46c5-a221-969a54d151d4" class="cls-3" x="187.31" y="155.58" width="33.88" height=".75"/></g><circle class="cls-5" cx="202.09" cy="88.86" r="16.2"/><path class="cls-6" d="m209.99,83.72v10.28c0,.41-.33.73-.73.73h-14.33c-.41,0-.73-.33-.73-.73h0v-10.28c0-.08.01-.17.04-.25.09-.26.31-.44.58-.48.04,0,.07,0,.11,0h14.32s.07,0,.11,0c.27.04.49.22.58.48.03.08.04.16.04.25Z"/><path class="cls-5" d="m209.94,83.47l-7.63,5.68c-.13.1-.31.1-.44,0l-7.63-5.68c.09-.26.31-.44.58-.48l7.27,5.41,7.27-5.41c.27.04.49.22.58.48Z"/><path class="cls-9" d="m107.48,102.06c0,5.02,4.64,4.26,10.37,4.26s10.37.76,10.37-4.26-2.27-13.93-10.37-13.93-10.37,8.9-10.37,13.93Z"/><polygon class="cls-1" points="139.96 193.82 143.28 192.75 140.74 179.45 135.84 181.03 139.96 193.82"/><path class="cls-9" d="m138.77,193.01l6.53-2.11h0c2.3-.74,4.76.52,5.5,2.82,0,0,0,0,0,0l.04.14-10.69,3.45-1.39-4.3Z"/><polygon class="cls-1" points="99.25 193.93 102.74 193.93 104.4 180.49 99.25 180.49 99.25 193.93"/><path class="cls-9" d="m98.36,192.79h6.86s0,0,0,0c2.42,0,4.37,1.96,4.37,4.37h0v.14h-11.24s0-4.52,0-4.52Z"/><path class="cls-1" d="m94.75,142.11h0c-1.13-1.37-.94-3.39.43-4.52.03-.03.07-.05.1-.08.13-.1.26-.18.4-.26l11.37-26.73c.46-1.34,1.93-2.06,3.27-1.59s2.06,1.93,1.59,3.27c0,.01-.01.03-.02.04l-11.71,26.6c.68,1.64-.1,3.52-1.74,4.2-1.3.54-2.81.16-3.71-.92h0Z"/><path class="cls-1" d="m136.79,144.79c-1.35-.82-1.9-2.51-1.28-3.96l-11.71-26.61c-.48-1.34.21-2.81,1.54-3.3,1.34-.48,2.81.21,3.3,1.54,0,0,0,.02,0,.03l11.37,26.74c.14.07.27.16.4.26,1.41,1.07,1.69,3.09.62,4.5-.03.03-.05.07-.08.1h0c-.61.74-1.52,1.17-2.49,1.17-.59,0-1.17-.16-1.68-.48Z"/><circle class="cls-1" cx="117.89" cy="99.33" r="6.98"/><path class="cls-6" d="m108.05,129.03l-1.38-16.08c-.22-2.52,1.65-4.74,4.17-4.96.32-.03.65-.02.97.02l12.87,1.63c2.45.3,4.21,2.5,3.99,4.96-.51,5.75-1.94,15.84-5.74,18.84l-.06.05-14.8-4.45Z"/><path class="cls-9" d="m104.3,185.8l-5.34-.63c-.65-.07-1.15-.62-1.14-1.28.01-2.57,0-5.2,0-7.74-.05-21.79-.11-42.38,10.16-48.06l.06-.03,14.93,5.17.57,10,12.12,17.17c1,1.42,1.76,3,2.23,4.67l4.5,15.82c.19.68-.2,1.39-.88,1.58-.02,0-.04.01-.06.02l-5.25,1.21c-.63.14-1.26-.2-1.49-.8l-7.03-17.51-14.29-15.4c-.16-.17-.43-.17-.6-.01-.06.06-.1.14-.12.22l-6.97,34.59c-.13.65-.73,1.09-1.39,1.02h0Z"/><path class="cls-9" d="m125.95,98.65h-2.76l-1.22-3.41-.24,3.41h-1.32l-.71-1.99-.14,1.99h-9.81c0-4.08,3.31-7.39,7.39-7.39h1.42c4.08,0,7.39,3.31,7.39,7.39h0Z"/><path class="cls-8" d="m261.46,197.48H63.43c-.11,0-.2-.09-.2-.2s.09-.2.2-.2h198.03c.11,0,.2.09.2.2s-.09.2-.2.2Z"/></svg>