<?xml version="1.0" encoding="UTF-8"?><svg id="Layer_1" xmlns="http://www.w3.org/2000/svg" viewBox="0 0 333 248"><defs><style>.cls-1{opacity:.05;}.cls-1,.cls-2,.cls-3,.cls-4,.cls-5,.cls-6,.cls-7{stroke-width:0px;}.cls-1,.cls-7{isolation:isolate;}.cls-2{fill:#fee;}.cls-3{fill:#db3545;}.cls-4{fill:#495182;}.cls-5{fill:#fff;}.cls-6{fill:#3f3d56;}.cls-7{opacity:.03;}</style></defs><rect class="cls-2" width="333" height="248"/><path class="cls-6" d="m282.57,115.51h-.39v-10.68c0-3.42-2.77-6.18-6.18-6.18h-22.63c-3.42,0-6.18,2.77-6.18,6.18h0v58.61c0,3.42,2.77,6.18,6.18,6.18h22.63c3.42,0,6.18-2.77,6.18-6.18h0v-40.32h.39v-7.6Z"/><path class="cls-5" d="m280.87,105.19v58.53c0,2.55-2.07,4.62-4.62,4.62h-22.74c-2.55,0-4.62-2.07-4.62-4.62h0v-58.53c0-2.55,2.07-4.62,4.62-4.62h2.76c-.46,1.12.08,2.4,1.21,2.86.26.11.54.16.82.16h12.97c1.21,0,2.19-.98,2.19-2.19,0-.29-.06-.57-.16-.84h2.95c2.55,0,4.62,2.07,4.62,4.62Z"/><rect class="cls-4" x="250.12" y="130.54" width="26.44" height="7.13"/><path class="cls-6" d="m277.61,136.41h-25.6c-.35,0-.63-.28-.63-.63v-6.29c0-.35.28-.63.63-.63h25.6c.35,0,.63.28.63.63v6.29c0,.35-.28.63-.63.63Zm-25.6-7.13c-.12,0-.21.09-.21.21v6.29c0,.12.09.21.21.21h25.6c.12,0,.21-.09.21-.21v-6.29c0-.12-.09-.21-.21-.21h-25.6Z"/><rect class="cls-6" x="253.06" y="134.52" width="3.36" height=".42"/><rect class="cls-6" x="257.68" y="134.52" width="3.36" height=".42"/><rect class="cls-6" x="262.29" y="134.52" width="3.36" height=".42"/><rect class="cls-6" x="266.91" y="134.52" width="3.36" height=".42"/><rect class="cls-6" x="271.53" y="134.52" width="3.36" height=".42"/><path class="cls-1" d="m280.87,157.76v5.95c0,2.55-2.07,4.62-4.62,4.62h-22.74c-2.55,0-4.62-2.07-4.62-4.62h0v-27.38l31.98,21.42Z"/><path class="cls-1" d="m151.87,197.47h-73.6c-.23,0-.42-.19-.42-.42v-47.84c0-.23.19-.42.42-.42h.93l72.67,48.68Z"/><rect class="cls-6" x="118.56" y="158.86" width="153.81" height=".42"/><path class="cls-6" d="m167.19,56.8h-43.96v-.91h-19.93v.91h-44.14c-1.64,0-2.97,1.33-2.97,2.97h0v60.19c0,1.64,1.33,2.97,2.97,2.97h108.03c1.64,0,2.97-1.33,2.97-2.97v-60.19c0-1.64-1.33-2.97-2.97-2.97h0Z"/><rect class="cls-5" x="60.17" y="62.06" width="106" height="59.8"/><circle class="cls-4" cx="113.08" cy="59.34" r="1.09"/><path class="cls-6" d="m91.7,84.37h-2.52c-.35,0-.63-.28-.63-.63v-2.52c0-.35.28-.63.63-.63h2.52c.35,0,.63.28.63.63v2.52c0,.35-.28.63-.63.63Zm-2.52-3.36c-.12,0-.21.09-.21.21v2.52c0,.12.09.21.21.21h2.52c.12,0,.21-.09.21-.21v-2.52c0-.12-.09-.21-.21-.21h-2.52Z"/><rect class="cls-6" x="88.76" y="83.95" width="47.84" height=".42"/><rect class="cls-4" x="124.22" y="95.49" width="11.12" height="3.36"/><path class="cls-6" d="m136.18,98.01h-10.28c-.35,0-.63-.28-.63-.63v-2.52c0-.35.28-.63.63-.63h10.28c.35,0,.63.28.63.63v2.52c0,.35-.28.63-.63.63Zm-10.28-3.36c-.12,0-.21.09-.21.21v2.52c0,.12.09.21.21.21h10.28c.12,0,.21-.09.21-.21v-2.52c0-.12-.09-.21-.21-.21h-10.28Z"/><rect class="cls-3" x="199.34" y="99.27" width="20.98" height="14.69"/><path class="cls-6" d="m222.43,112.8h-20.14c-.46,0-.84-.38-.84-.84v-13.85c0-.46.38-.84.84-.84h20.14c.46,0,.84.38.84.84v13.85c0,.46-.38.84-.84.84Zm-20.14-14.69v13.85h20.14v-13.85h-20.14Z"/><path class="cls-6" d="m220.12,97.59h-.84c0-3.82-3.1-6.92-6.92-6.92s-6.92,3.1-6.92,6.92h-.84c0-4.29,3.48-7.76,7.76-7.76s7.76,3.48,7.76,7.76Z"/><path class="cls-5" d="m214.45,103.36c0-1.16-.94-2.1-2.1-2.1-1.16,0-2.1.94-2.1,2.1,0,.72.37,1.4.99,1.78v2.25c0,.61.5,1.11,1.11,1.11h0c.61,0,1.11-.5,1.11-1.11h0v-2.25c.61-.38.99-1.05.99-1.78Z"/><rect class="cls-6" x="111.32" y="173.97" width="3.36" height=".42"/><rect class="cls-6" x="115.94" y="173.97" width="3.36" height=".42"/><rect class="cls-6" x="120.55" y="173.97" width="3.36" height=".42"/><rect class="cls-6" x="125.17" y="173.97" width="3.36" height=".42"/><rect class="cls-6" x="129.78" y="173.97" width="3.36" height=".42"/><path class="cls-6" d="m176.26,197.47h-98.41c-.46,0-.84-.38-.84-.84v-47.84c0-.46.38-.84.84-.84h98.41c.46,0,.84.38.84.84v47.84c0,.46-.38.84-.84.84Zm-98.41-48.68v47.84h98.41v-47.84h-98.41Z"/><circle class="cls-6" cx="82.26" cy="154.67" r="1.26"/><circle class="cls-6" cx="86.66" cy="154.67" r="1.26"/><circle class="cls-6" cx="91.07" cy="154.67" r="1.26"/><path class="cls-6" d="m136.39,176.91h-28.33c-.35,0-.63-.28-.63-.63v-7.13c0-.35.28-.63.63-.63h28.33c.35,0,.63.28.63.63v7.13c0,.35-.28.63-.63.63Zm-28.33-7.97c-.12,0-.21.09-.21.21v7.13c0,.12.09.21.21.21h28.33c.12,0,.21-.09.21-.21v-7.13c0-.12-.09-.21-.21-.21h-28.33Z"/><circle class="cls-3" cx="143.53" cy="173.34" r="3.78"/><path class="cls-6" d="m144.79,176.7c-2.2,0-3.99-1.78-3.99-3.99s1.78-3.99,3.99-3.99,3.99,1.78,3.99,3.99h0c0,2.2-1.79,3.98-3.99,3.99Zm0-7.55c-1.97,0-3.57,1.6-3.57,3.57s1.6,3.57,3.57,3.57,3.57-1.6,3.57-3.57c0-1.97-1.6-3.56-3.57-3.57Z"/><polygon class="cls-6" points="144.84 174.2 142.81 172.17 143.41 171.58 144.73 172.9 148.43 167.64 149.12 168.13 144.84 174.2"/><polygon class="cls-7" points="142.67 121.85 60.17 121.85 60.17 66.59 142.67 121.85"/><path class="cls-6" d="m173.14,120.77h-10.35v-.75c0-.08-.07-.15-.15-.15h-3.55c-.08,0-.15.07-.15.15h0v.75h-2.22v-.75c0-.08-.07-.15-.15-.15h-3.55c-.08,0-.15.07-.15.15h0v.75h-2.22v-.75c0-.08-.07-.15-.15-.15h-3.55c-.08,0-.15.07-.15.15h0v.75h-2.22v-.75c0-.08-.07-.15-.15-.15h-3.55c-.08,0-.15.07-.15.15h0v.75h-2.22v-.75c0-.08-.07-.15-.15-.15h-3.55c-.08,0-.15.07-.15.15h0v.75h-2.22v-.75c0-.08-.07-.15-.15-.15h-3.55c-.08,0-.15.07-.15.15h0v.75h-2.22v-.75c0-.08-.07-.15-.15-.15h-27.78c-.08,0-.15.07-.15.15h0v.75h-2.22v-.75c0-.08-.07-.15-.15-.15h-3.55c-.08,0-.15.07-.15.15h0v.75h-2.22v-.75c0-.08-.07-.15-.15-.15h-3.55c-.08,0-.15.07-.15.15h0v.75h-2.22v-.75c0-.08-.07-.15-.15-.15h-3.55c-.08,0-.15.07-.15.15h0v.75h-2.22v-.75c0-.08-.07-.15-.15-.15h-3.55c-.08,0-.15.07-.15.15h0v.75h-2.22v-.75c0-.08-.07-.15-.15-.15h-3.55c-.08,0-.15.07-.15.15h0v.75h-2.22v-.75c0-.08-.07-.15-.15-.15h-3.55c-.08,0-.15.07-.15.15h0v.75h-6.8c-1.96,0-3.55,1.59-3.55,3.55v1.6c0,1.96,1.59,3.55,3.55,3.55h117.94c1.96,0,3.55-1.59,3.55-3.55v-1.6c0-1.96-1.59-3.55-3.55-3.55h0Z"/><path class="cls-6" d="m140.8,101.58h-55.4c-.35,0-.63-.28-.63-.63v-23.08c0-.35.28-.63.63-.63h55.4c.35,0,.63.28.63.63v23.08c0,.35-.28.63-.63.63Zm-55.4-23.92c-.12,0-.21.09-.21.21v23.08c0,.12.09.21.21.21h55.4c.12,0,.21-.09.21-.21v-23.08c0-.12-.09-.21-.21-.21h-55.4Z"/><path class="cls-6" d="m91.7,90.67h-2.52c-.35,0-.63-.28-.63-.63v-2.52c0-.35.28-.63.63-.63h2.52c.35,0,.63.28.63.63v2.52c0,.35-.28.63-.63.63Zm-2.52-3.36c-.12,0-.21.09-.21.21v2.52c0,.12.09.21.21.21h2.52c.12,0,.21-.09.21-.21v-2.52c0-.12-.09-.21-.21-.21h-2.52Z"/><rect class="cls-6" x="88.76" y="90.25" width="47.84" height=".42"/><rect class="cls-6" x="107.23" y="112.49" width="153.81" height=".42"/><circle class="cls-6" cx="107.23" cy="112.49" r="2.94"/><circle class="cls-6" cx="261.04" cy="112.91" r="2.31"/><circle class="cls-6" cx="272.37" cy="159.28" r="2.31"/><circle class="cls-6" cx="119.19" cy="159.28" r="2.31"/></svg>