<?xml version="1.0" encoding="UTF-8"?><svg id="Layer_1" xmlns="http://www.w3.org/2000/svg" viewBox="0 0 333 248"><defs><style>.cls-1{fill:#e6e6e6;}.cls-1,.cls-2,.cls-3,.cls-4,.cls-5,.cls-6,.cls-7,.cls-8,.cls-9,.cls-10,.cls-11{stroke-width:0px;}.cls-2{fill:#c2bfff;}.cls-3{fill:#6c63ff;}.cls-4{fill:#fff;}.cls-5{fill:#3f3d56;}.cls-6{fill:#d1d3d4;}.cls-7{fill:#ffb6b6;}.cls-8{fill:#cacaca;}.cls-9{fill:#ffb8b8;}.cls-10{fill:#f2f2f2;}.cls-11{fill:#2f2e41;}</style></defs><rect class="cls-2" width="333" height="248"/><path class="cls-1" d="m211.75,158.79h-107.69c-2,0-3.62-1.62-3.62-3.62v-87.69c0-2,1.62-3.62,3.62-3.62h107.69c2,0,3.62,1.62,3.62,3.62v87.69c0,2-1.62,3.62-3.62,3.62Z"/><path class="cls-4" d="m106.5,66.44c-1.92,0-3.48,1.56-3.49,3.49v82.8c0,1.92,1.56,3.48,3.49,3.49h73.71c17.99-.02,32.56-14.6,32.58-32.58v-53.71c0-1.92-1.56-3.48-3.49-3.49h-102.81Z"/><path class="cls-1" d="m192.11,103.68h-19.53c-.85,0-1.54-.69-1.54-1.54v-9.72c0-.85.69-1.54,1.54-1.54h19.53c.85,0,1.54.69,1.54,1.54,1.21,3.44,1.38,6.71,0,9.72,0,.85-.69,1.54-1.54,1.54Z"/><path class="cls-4" d="m189.79,102.74h-16.59c-.72,0-1.3-.58-1.31-1.31v-8.26c0-.72.58-1.3,1.31-1.31h16.59c.72,0,1.3.58,1.31,1.31,1.12,2.94,1.3,5.72,0,8.26,0,.72-.58,1.3-1.31,1.31Z"/><path class="cls-1" d="m188.9,108.77h-13.15c-.81,0-1.46-.65-1.46-1.46s.65-1.46,1.46-1.46h13.16c.81,0,1.46.66,1.46,1.46,0,.8-.65,1.46-1.46,1.46Z"/><path class="cls-1" d="m180.06,94.1c-.32,0-.57.26-.57.57v6.19c0,.32.26.57.57.57.1,0,.2-.03.28-.07l5.46-3.11c.27-.16.37-.5.21-.78-.05-.09-.13-.16-.22-.22l-5.46-3.07c-.09-.05-.18-.07-.28-.07Z"/><path class="cls-10" d="m259.71,186.36c-.62-.78-1.65-1.11-2.6-.83l-.1.03-.92,3.58c-.14-.53-.43-1.74-.62-2.92l-.02-.1-.09.04c-.96.42-1.86.97-2.68,1.62-2.95,2.36-4.71,5.91-4.81,9.69v.07s0,.04,0,.04l.12-.04,2.61-.93c2.34.21,4.64-.65,6.27-2.34,1.05-1.11,1.77-2.54,2.47-3.92.2-.4.41-.82.63-1.22.49-.89.39-1.98-.26-2.77Z"/><path class="cls-9" d="m193.19,95.08c.2,1.02,1.19,1.69,2.21,1.5.11-.02.22-.05.32-.09l7.79,9.06.99-3.34-7.72-8.29c-.44-.95-1.57-1.37-2.52-.93-.8.37-1.24,1.23-1.06,2.09Z"/><polygon class="cls-7" points="224.57 195.36 221.99 195.36 220.77 185.43 224.57 185.43 224.57 195.36"/><path class="cls-11" d="m224.5,194.52l-2.75-1.12-.08-.03-1.52,1.15c-1.79,0-3.23,1.45-3.23,3.23v.11h8.31v-3.34h-.73Z"/><polygon class="cls-7" points="242.95 195.36 240.37 195.36 239.15 185.43 242.95 185.43 242.95 195.36"/><path class="cls-11" d="m242.88,194.52l-2.75-1.12-.08-.03-1.52,1.15c-1.79,0-3.23,1.45-3.23,3.23v.11h8.31v-3.34h-.73Z"/><path class="cls-11" d="m236.87,136.02s3.23,3.36,3.23,6.12-.81,6.56,0,7.39,1.82,1.84.61,3.05c-1.21,1.21-1.82,1.82-1.01,2.63s.4,14.95.4,14.95l4.24,18.99h-5.34l-6.77-18.99-1.82-15.75-5.88,15.15.65,19.75-5.59-.16-2.31-21.01s3.43-19.98,2.83-20.49,0-1.55,0-1.55l1.62-7.65,15.15-2.42Z"/><path class="cls-5" d="m230.54,112.18s1.1-4.33-3.96-5.57-19.53-2.84-19.53-2.84l-7.31-7.76-2.48,3.6,8.2,10.19,19.43,3.99,5.66-1.61Z"/><path class="cls-1" d="m198.46,99.35c.23-.29.4-.62.53-.97l1.05-2.58h-.27c-1.48-.29-2.9.68-3.18,2.16-.02.1-.03.2-.04.31-.03.33.02.66.17.96.15.3.44.51.77.56.38.02.74-.14.97-.44Z"/><path class="cls-1" d="m220.69,139.47l-.61,4.39s1.21,1.3,1.82,1.14,2.83-1.11,2.83-1.11c0,0,2.63,1.44,4.04,1.6s8.89-.81,9.09-1.3,2.55-2.4,2.55-2.4l-.93-5.57-18.78,3.25Z"/><path class="cls-5" d="m240.37,124.11s-.51,4.24-.11,4.63c.4.39-.4,2.84-1.21,4.46s.61,1.82.61,3.03.61,5.66.61,5.66c0,0-6.26.4-7.27-.61s-2.63-.2-4.85,2.02-7.05.4-8.06-.61c-1.01-1.01.79-4.65,1.39-5.35s-.58.11-1.19-2.12.58-2.02,1.59-3.03,0-2.83-.81-4.65-.2-15.35-.2-18.58,4.44-3.64,4.44-3.64l1.76-2.21,1.29-1.63,2.53-.1h.07s2.45-.1,2.45-.1l1.19,1.39,2.63,3.06,3.03.61c2.42.81,1.82,5.86,1.82,5.86l-1.71,11.92Z"/><circle class="cls-7" cx="230.77" cy="95.31" r="5.19"/><path class="cls-11" d="m236.79,93.57c-1.43-.88-1.25-3.17-2.62-3.97-1.39-.8-3.08-.87-4.53-.19-.97-.41-2.13-.08-2.91.66s-1.19,1.85-1.32,2.96c-.09,1.12,0,2.24.24,3.33.08-.44.15-.88.23-1.32l4.09-.89c-.36.33-.72.65-1.09.98,1.85.42,3.8.12,5.43-.85,1.78.8,1.46,2.59-.11,4.97.61,1.01,4.2-4.7,2.57-5.69Z"/><path class="cls-1" d="m234.6,102.66s-.02.02-.04.03c-.43.26-.92.39-1.42.38-.65.05-1.3-.15-1.8-.57-.26-.25-1.32.28-2.01.57-.72.3-1.54.31-2.27.03l1.29-1.63,2.13-.47h.53l2.39.27,1.19,1.39Z"/><path class="cls-8" d="m269.46,198.11l-72.27.08c-.17,0-.32-.14-.32-.31,0-.17.14-.32.32-.32h0l72.27-.08c.17,0,.32.14.31.32,0,.17-.14.31-.31.31Z"/><polygon class="cls-5" points="182.93 91.77 182.4 91.77 182.4 53.73 203.31 53.73 203.31 54.26 182.93 54.26 182.93 91.77"/><path class="cls-3" d="m219.58,50.36h-14.09c-1.91,0-3.46,1.55-3.46,3.46s1.55,3.46,3.46,3.46h14.09c1.91,0,3.46-1.55,3.46-3.46s-1.55-3.46-3.46-3.46Z"/><circle class="cls-3" cx="182.35" cy="92.07" r="3.18"/><path class="cls-10" d="m144.07,104.01l13.94-3.23,4-.93c.5-.12.29-.89-.21-.77l-13.94,3.23-4,.93c-.5.12-.29.89.21.77h0Z"/><path class="cls-10" d="m158.46,95.61l7.46,3.43c.25.09.49.22.71.38.21.2.06.4-.11.57-.5.47-1.03.91-1.59,1.31l-3.18,2.58c-.4.32.16.89.56.57l2.77-2.25,1.38-1.13c.39-.32.87-.64,1.03-1.15.33-1.07-.98-1.49-1.7-1.83l-3.25-1.49-3.67-1.69c-.46-.21-.87.47-.41.69h0Z"/><path class="cls-1" d="m261.42,121.74c-1.33-.9-2.94-1.24-4.52-1.35-1.79-.1-3.59-.1-5.39,0-1.86.07-3.72.21-5.58.4-1.85.2-3.7.45-5.54.77-1.65.26-3.27.61-4.88,1.07-1.52.42-2.94,1.11-4.22,2.04-1.12.84-1.97,1.97-2.48,3.28-.49,1.22-.58,2.57-.24,3.84.18.62.49,1.19.91,1.68.48.54,1.05.99,1.69,1.34,1.32.75,2.81,1.21,4.01,2.17.31.25.6.54.86.85.17.24.41.43.69.54.53.19,1.13.03,1.51-.39.24-.33.44-.68.59-1.05l.63-1.21c.04-.11.09-.21.16-.3.05-.06-.04,0-.02-.01,0,0,.03,0,.04-.01.05-.03.11-.05.16-.06.58-.22,1.17-.44,1.75-.64,2.17-.77,4.36-1.48,6.59-2.06,1.15-.31,2.31-.55,3.48-.73,1.52-.22,3.06-.19,4.59-.34,1.64-.16,3.34-.49,4.75-1.4,1.17-.71,2.06-1.78,2.55-3.06.21-.61.29-1.25.21-1.89-.18-1.45-1.13-2.67-2.31-3.47Z"/><path class="cls-4" d="m258.7,122.55c-1.2-.81-2.66-1.12-4.09-1.22-1.62-.09-3.25-.09-4.87,0-1.68.07-3.36.19-5.04.37-1.67.18-3.34.41-5,.7-1.49.23-2.96.55-4.41.96-1.37.38-2.66,1-3.81,1.84-1.01.76-1.78,1.78-2.24,2.96-.45,1.1-.52,2.32-.22,3.47.16.56.44,1.08.82,1.52.44.49.95.9,1.53,1.21,1.19.68,2.54,1.09,3.62,1.96.28.23.54.49.77.77.16.22.37.39.62.49.48.17,1.02.03,1.36-.35.22-.3.4-.62.54-.95l.57-1.1c.04-.1.09-.19.14-.27.04-.05-.03,0-.02-.01,0,0,.02,0,.03-.01.05-.02.1-.04.15-.06.53-.2,1.05-.39,1.58-.58,1.96-.7,3.94-1.34,5.95-1.86,1.04-.28,2.09-.5,3.15-.66,1.37-.2,2.77-.17,4.15-.31,1.49-.14,3.02-.44,4.29-1.26,1.05-.64,1.86-1.61,2.31-2.76.19-.55.26-1.13.19-1.71-.17-1.31-1.02-2.41-2.09-3.13Z"/><path class="cls-1" d="m256.19,124.02l-19.57,3.61c-.23.05-.46-.11-.51-.34-.05-.23.11-.46.34-.51,0,0,0,0,0,0h0s19.57-3.61,19.57-3.61c.24-.04.46.11.5.35.04.24-.11.46-.35.5h0Z"/><path class="cls-1" d="m256.67,126.63l-19.57,3.61c-.23.04-.46-.11-.51-.34s.11-.46.34-.51c0,0,0,0,0,0h0s19.57-3.61,19.57-3.61c.24-.04.46.11.5.35.04.24-.11.46-.35.5h0Z"/><path class="cls-1" d="m239.86,132.44l-2.28.42c-.24.04-.46-.11-.5-.35-.04-.23.11-.46.35-.5l2.28-.42c.24-.04.46.11.5.35.04.23-.11.46-.35.5Z"/><circle class="cls-6" cx="237.87" cy="141.49" r="1.84"/><path class="cls-1" d="m136.91,103.18h-16.72c-1.62,0-2.93-1.31-2.93-2.93v-11.02c0-1.62,1.31-2.93,2.93-2.93h16.72c1.62,0,2.93,1.31,2.93,2.93v11.02c0,1.62-1.31,2.93-2.93,2.93Z"/><path class="cls-4" d="m135.07,102.59h-14.55c-1.41,0-2.55-1.14-2.55-2.55v-9.59c0-1.41,1.14-2.55,2.55-2.55h14.55c1.41,0,2.55,1.14,2.55,2.55v9.59c0,1.41-1.14,2.55-2.55,2.55Z"/><path class="cls-1" d="m139.26,113.11h-21.45c-.28,0-.5-.23-.5-.5,0-.28.22-.5.5-.5h21.45c.28,0,.5.23.5.5,0,.28-.22.5-.5.5Z"/><path class="cls-1" d="m139.26,110.25h-21.45c-.28,0-.5-.23-.5-.5,0-.28.22-.5.5-.5h21.45c.28,0,.5.23.5.5,0,.28-.22.5-.5.5Z"/><path class="cls-1" d="m139.26,115.97h-21.45c-.28,0-.5-.22-.5-.5s.22-.5.5-.5h21.45c.28,0,.5.22.5.5s-.22.5-.5.5Z"/><path class="cls-1" d="m139.26,118.83h-21.45c-.28,0-.5-.22-.5-.5s.22-.5.5-.5h21.45c.28,0,.5.22.5.5s-.22.5-.5.5Z"/><path class="cls-1" d="m139.26,121.69h-21.45c-.28,0-.5-.22-.5-.5s.22-.5.5-.5h21.45c.28,0,.5.22.5.5s-.22.5-.5.5Z"/><path class="cls-1" d="m139.26,124.55h-21.45c-.28,0-.5-.23-.5-.5,0-.28.22-.5.5-.5h21.45c.28,0,.5.23.5.5,0,.28-.22.5-.5.5Z"/><polygon class="cls-5" points="127.47 117.99 128 117.99 128 138.48 89.53 138.48 89.53 137.95 127.47 137.95 127.47 117.99"/><path class="cls-3" d="m73.26,141.85h14.09c1.91,0,3.46-1.55,3.46-3.46s-1.55-3.46-3.46-3.46h-14.09c-1.91,0-3.46,1.55-3.46,3.46s1.55,3.46,3.46,3.46h0Z"/><circle class="cls-3" cx="128.1" cy="116.36" r="3.18"/><path class="cls-10" d="m144.52,117.24c4.66.99,3.48,1.18,8.14,2.18l4.02.85c.5.11.64-.68.14-.79-4.66-.99-3.48-1.18-8.14-2.18l-4.02-.85c-.5-.11-.64.68-.14.79h0Z"/><path class="cls-10" d="m155.27,114.92l5.31,6.27c.19.19.35.41.48.65.1.27-.12.38-.34.47-.65.21-1.32.38-1.99.52l-3.97,1c-.5.13-.23.88.27.75l3.46-.87,1.73-.43c.49-.12,1.06-.22,1.42-.61.75-.83-.25-1.76-.77-2.37l-2.31-2.73-2.61-3.08c-.33-.39-.99.06-.66.45h0Z"/><circle class="cls-1" cx="172.1" cy="134.85" r="7.39"/><circle class="cls-4" cx="171.38" cy="135.68" r="5.62"/><path class="cls-1" d="m170.37,139.52c-.26,0-.5-.12-.66-.33l-2.02-2.69c-.27-.36-.2-.88.16-1.15.36-.27.88-.2,1.15.16h0s1.32,1.76,1.32,1.76l3.39-5.08c.25-.38.76-.48,1.14-.23s.48.76.23,1.14h0l-4.03,6.05c-.15.22-.39.36-.66.37,0,0-.02,0-.02,0Z"/><path class="cls-9" d="m241.08,142.46c.9-.53,1.2-1.69.67-2.58-.06-.1-.12-.19-.19-.27l5.93-10.37-3.48.19-5.23,10.05c-.75.73-.76,1.93-.03,2.68.61.63,1.58.75,2.33.3h0Z"/><path class="cls-5" d="m234.4,106.13s6.28-2.02,7.9,2.83c1.62,4.85,7.05,17.98,7.05,17.98l-5.84,11.92-2.63-2.83,2.81-8.28-8.08-12.12-1.21-9.49Z"/><path class="cls-1" d="m243.71,137.63c-.19-.32-.43-.61-.71-.85l-2-1.93-.11.25c-.81,1.27-.43,2.95.84,3.76.09.06.18.11.27.15.29.15.63.22.96.2.33-.03.64-.22.81-.51.16-.34.14-.74-.05-1.07Z"/><polygon class="cls-5" points="172.03 144.79 171.5 144.79 171.5 165.28 189.49 165.28 189.49 164.75 172.03 164.75 172.03 144.79"/><path class="cls-3" d="m209.22,165.19c0-1.91-1.55-3.46-3.46-3.46h-14.09c-1.91,0-3.46,1.55-3.46,3.46s1.55,3.46,3.46,3.46h14.09c1.91,0,3.46-1.55,3.46-3.46Z"/><circle class="cls-3" cx="171.4" cy="143.16" r="3.18"/></svg>