<?xml version="1.0" encoding="UTF-8"?><svg id="Layer_1" xmlns="http://www.w3.org/2000/svg" viewBox="0 0 333 248"><defs><style>.cls-1{fill:#a0616a;}.cls-1,.cls-2,.cls-3,.cls-4,.cls-5,.cls-6,.cls-7,.cls-8{stroke-width:0px;}.cls-2{fill:#e6e6e6;}.cls-3{fill:#c2bfff;}.cls-4{fill:#ccc;}.cls-5{fill:#6c63ff;}.cls-6{fill:#fff;}.cls-7{fill:#3f3d56;}.cls-8{fill:#2f2e41;}</style></defs><rect class="cls-3" width="333" height="248"/><path class="cls-8" d="m224.29,71.5c2.36,4.75,4.23,9.64,9.44,9.64s9.44-4.32,9.44-9.64-4.23-9.64-9.44-9.64c-5.3-.07-13.84.81-9.44,9.64Z"/><polygon class="cls-1" points="231.72 187.49 227.68 188.4 222.29 172.94 228.25 171.59 231.72 187.49"/><path class="cls-8" d="m233.62,191.25l-13.01,2.96-.04-.17c-.62-2.86,1.14-5.69,3.94-6.33,0,0,0,0,0,0h0s7.95-1.81,7.95-1.81l1.17,5.34Z"/><polygon class="cls-1" points="243.7 193.01 239.57 193.01 237.6 176.72 243.7 176.72 243.7 193.01"/><path class="cls-8" d="m244.76,197.1h-13.33v-.17c0-2.93,2.32-5.3,5.19-5.3h8.14s0,5.47,0,5.47Z"/><path class="cls-8" d="m243.73,184.48h-5.28c-.76,0-1.4-.57-1.5-1.34l-4.78-37.79c-.04-.28-.29-.48-.57-.44-.2.03-.37.18-.42.38l-2.83,10.79,2.55,24.58c.09.78-.41,1.51-1.17,1.69l-4.19.99c-.77.18-1.55-.28-1.79-1.04l-6.74-23.89c-.54-1.75-.73-3.6-.55-5.42l2.11-21.54h.16s28.15,1.39,28.15,1.39l-1.65,50.16c-.03.84-.7,1.5-1.52,1.5Z"/><ellipse class="cls-1" cx="233.27" cy="72.87" rx="8.28" ry="8.46"/><path class="cls-4" d="m246.26,135.14s-.05,0-.08,0l-28.07-1.54c-.84-.05-1.48-.78-1.43-1.63,0-.13.03-.27.07-.39l2.22-7.05c2.38-7.56,2.78-15.61,1.18-23.38-.85-4.11.07-8.4,2.54-11.76,2.42-3.32,6.13-5.41,10.17-5.73h0c.14-.01.28-.02.41-.03,7.84-.47,14.57,5.63,15.03,13.64.06,1.01.01,2.01-.13,3.01l-1.96,13.42,1.56,19.76c.07.85-.56,1.6-1.39,1.67-.04,0-.08,0-.12,0Z"/><path class="cls-1" d="m211.72,136.92c1.55-1.07,1.96-3.23.91-4.81-.11-.17-.24-.33-.38-.47l5.4-11-6.22.75-4.18,10.33c-1.26,1.43-1.15,3.63.25,4.92,1.17,1.08,2.91,1.19,4.21.28Z"/><path class="cls-1" d="m248.82,138.71c-1.35-1.32-1.4-3.51-.11-4.9.14-.15.29-.28.45-.4l-3.53-11.77,6.01,1.8,2.43,10.9c1.01,1.62.54,3.78-1.05,4.81-1.33.86-3.07.68-4.2-.44h0Z"/><path class="cls-4" d="m248.24,132.55c-.76,0-1.41-.57-1.5-1.35l-2.81-21.64-4.48-16.91c-.69-2.61.82-5.29,3.37-5.99.37-.1.75-.16,1.13-.17h0c2.37-.05,4.43,1.67,4.83,4.06l6.67,39.94c.14.84-.41,1.64-1.24,1.79-.06.01-.13.02-.19.02l-5.72.25s-.04,0-.07,0Z"/><path class="cls-4" d="m214.73,130.12c-.11,0-.22-.01-.32-.03l-5.6-1.22c-.82-.18-1.34-1-1.17-1.84.01-.06.03-.13.05-.19l13.11-38.24c.79-2.28,3.1-3.63,5.43-3.18h0c2.59.52,4.29,3.08,3.78,5.73-.07.38-.19.76-.35,1.11l-7.19,15.93-6.3,20.83c-.19.65-.78,1.09-1.44,1.09Z"/><path class="cls-8" d="m224.48,68.09c1.89,1.33,4.14,2.04,6.44,2.03-.82.58-1.75.97-2.74,1.15,3.06.67,6.21.69,9.28.05.68-.11,1.34-.34,1.94-.68.61-.35,1.04-.94,1.2-1.64.2-1.19-.7-2.27-1.64-2.99-2.92-2.22-6.66-2.98-10.19-2.08-1.14.3-2.28.81-3.02,1.74s-.96,2.37-.25,3.34l-1.01-.92Z"/><path class="cls-7" d="m196.13,50.45h-117.68c-1.34,0-2.43,1.11-2.43,2.48v117.17c0,1.37,1.09,2.48,2.43,2.48h10.32v-.71h-10.32c-.96,0-1.74-.8-1.74-1.77V52.93c0-.98.78-1.77,1.74-1.77h117.68c.96,0,1.74.79,1.74,1.77v117.17c0,.35-.1.69-.29.97-.17.25-.39.46-.66.6-.25.13-.52.2-.79.2h-10.32v.71h10.32c.71,0,1.39-.32,1.85-.87.02-.02.04-.04.05-.07.15-.18.26-.38.35-.6.12-.3.19-.62.18-.94V52.93c0-1.37-1.09-2.48-2.43-2.48Z"/><rect class="cls-7" x="76.36" y="60.4" width="121.85" height=".71"/><ellipse class="cls-7" cx="82.27" cy="55.77" rx="2.09" ry="2.13"/><ellipse class="cls-7" cx="88.27" cy="55.77" rx="2.09" ry="2.13"/><ellipse class="cls-7" cx="94.26" cy="55.77" rx="2.09" ry="2.13"/><path class="cls-7" d="m166.71,76.84h-58.84c-2,0-3.63-1.66-3.63-3.7s1.62-3.7,3.63-3.7h58.84c2,0,3.63,1.66,3.63,3.7s-1.62,3.7-3.63,3.7Zm-58.84-6.84c-1.69,0-3.07,1.4-3.07,3.13s1.37,3.13,3.07,3.13h58.84c1.69,0,3.07-1.4,3.07-3.13s-1.37-3.13-3.07-3.13h-58.84Z"/><path class="cls-7" d="m181.63,128.57h-88.68c-2.62,0-4.74-2.17-4.74-4.84v-29.06c0-2.67,2.12-4.84,4.74-4.84h88.68c2.62,0,4.74,2.17,4.74,4.84v29.06c0,2.67-2.12,4.84-4.74,4.84Zm-88.68-38.17c-2.31,0-4.18,1.91-4.18,4.27v29.06c0,2.36,1.87,4.27,4.18,4.27h88.68c2.31,0,4.18-1.91,4.18-4.27v-29.06c0-2.36-1.87-4.27-4.18-4.27h-88.68Z"/><path class="cls-2" d="m148.92,107.63h-30.95c-1.23,0-2.23-1.02-2.23-2.28s1-2.28,2.23-2.28h30.95c1.23,0,2.23,1.02,2.23,2.28s-1,2.28-2.23,2.28Z"/><path class="cls-5" d="m177.64,115.32h-59.68c-1.23,0-2.23-1.02-2.23-2.28s1-2.28,2.23-2.28h59.68c1.23,0,2.23,1.02,2.23,2.28s-1,2.28-2.23,2.28Z"/><ellipse class="cls-5" cx="103.07" cy="109.2" rx="8.37" ry="8.55"/><path class="cls-6" d="m177.64,124.58h-7.81c-1.23,0-2.23-1.02-2.23-2.28s1-2.28,2.23-2.28h7.81c1.23,0,2.23,1.02,2.23,2.28s-1,2.28-2.23,2.28Z"/><path class="cls-4" d="m177.64,124.58h-7.81c-1.23,0-2.23-1.02-2.23-2.28s1-2.28,2.23-2.28h7.81c1.23,0,2.23,1.02,2.23,2.28s-1,2.28-2.23,2.28Z"/><path class="cls-7" d="m181.63,142.24h-88.68c-2.62,0-4.74,2.17-4.74,4.84v29.06c0,2.67,2.12,4.84,4.74,4.84h88.68c2.62,0,4.74-2.17,4.74-4.84v-29.06c0-2.67-2.12-4.84-4.74-4.84Zm4.18,33.9c0,2.36-1.87,4.27-4.18,4.27h-88.68c-2.31,0-4.18-1.91-4.18-4.27v-29.06c0-2.36,1.87-4.27,4.18-4.27h88.68c2.31,0,4.18,1.91,4.18,4.27v29.06Z"/><path class="cls-5" d="m148.92,160.04h-30.95c-1.23,0-2.23-1.02-2.23-2.28s1-2.28,2.23-2.28h30.95c1.23,0,2.23,1.02,2.23,2.28s-1,2.28-2.23,2.28Z"/><path class="cls-5" d="m177.64,167.74h-59.68c-1.23,0-2.23-1.02-2.23-2.28s1-2.28,2.23-2.28h59.68c1.23,0,2.23,1.02,2.23,2.28s-1,2.28-2.23,2.28Z"/><ellipse class="cls-5" cx="103.07" cy="161.61" rx="8.37" ry="8.55"/><path class="cls-4" d="m177.64,176.99h-7.81c-1.23,0-2.23-1.02-2.23-2.28s1-2.28,2.23-2.28h7.81c1.23,0,2.23,1.02,2.23,2.28s-1,2.28-2.23,2.28Z"/><path class="cls-7" d="m256.65,197.42h-47.21c-.19,0-.34-.15-.34-.34s.15-.34.34-.34h47.21c.19,0,.34.15.34.34s-.15.34-.34.34Z"/></svg>