<?xml version="1.0" encoding="UTF-8"?>
<svg id="Layer_1" data-name="Layer 1" xmlns="http://www.w3.org/2000/svg" viewBox="0 0 333 248">
  <defs>
    <style>
      .cls-1 {
        fill: #495182;
      }

      .cls-1, .cls-2, .cls-3, .cls-4, .cls-5, .cls-6, .cls-7, .cls-8 {
        stroke-width: 0px;
      }

      .cls-2 {
        fill: #2f2e41;
      }

      .cls-3 {
        fill: #ccc;
      }

      .cls-4 {
        fill: #db3545;
      }

      .cls-5 {
        fill: #bac1e2;
      }

      .cls-6 {
        fill: #ffb8b8;
      }

      .cls-7 {
        fill: #e7e9f9;
      }

      .cls-8 {
        fill: #e6e6e6;
      }
    </style>
  </defs>
  <rect class="cls-7" width="333" height="248"/>
  <rect class="cls-5" x="151.98" y="50.87" width="130.09" height="146.17"/>
  <g>
    <path id="b4c13b4e-8ef9-4732-a242-1b77a57c7078-2003" class="cls-2" d="M281.25,197.63h-128.38c-.82,0-1.49-.81-1.49-1.8V52.24c0-.99.67-1.8,1.49-1.8h128.38c.82,0,1.49.81,1.49,1.8v143.59c0,.99-.67,1.8-1.49,1.8h0ZM152.88,51.16c-.49,0-.89.48-.89,1.08v143.59c0,.59.4,1.08.89,1.08h128.38c.49,0,.89-.48.89-1.08V52.24c0-.59-.4-1.08-.89-1.08h-128.38Z"/>
    <path id="b86923e0-dd17-408d-8c65-7675907766e6-2004" class="cls-8" d="M213.54,106.41c-.56,0-1.01.46-1.01,1.01,0,.56.45,1.01,1.01,1.01h55.58c.56,0,1.01-.46,1.01-1.01,0-.56-.45-1.01-1.01-1.01h-55.58Z"/>
    <path id="b7c93af7-a9b3-4ec5-8b9c-228075bea008-2005" class="cls-8" d="M213.54,112.49c-.56,0-1.01.46-1.01,1.01,0,.56.45,1.01,1.01,1.01h28.38c.56,0,1.01-.46,1.01-1.01,0-.56-.45-1.01-1.01-1.01h-28.38Z"/>
    <path id="b86923e0-dd17-408d-8c65-7675907766e6-2004-2" data-name="b86923e0-dd17-408d-8c65-7675907766e6-2004" class="cls-8" d="M213.54,90.71c-.56,0-1.01.46-1.01,1.01,0,.56.45,1.01,1.01,1.01h55.58c.56,0,1.01-.46,1.01-1.01,0-.56-.45-1.01-1.01-1.01h-55.58Z"/>
    <path id="b7c93af7-a9b3-4ec5-8b9c-228075bea008-2005-2" data-name="b7c93af7-a9b3-4ec5-8b9c-228075bea008-2005" class="cls-8" d="M213.54,96.78c-.56,0-1.01.46-1.01,1.01,0,.56.45,1.01,1.01,1.01h28.38c.56,0,1.01-.46,1.01-1.01,0-.56-.45-1.01-1.01-1.01h-28.38Z"/>
    <path id="bf6f3c94-5d99-4a3b-bad8-b2235a5a7f19-2006" class="cls-8" d="M164.95,141.91c-.56,0-1.01.46-1.01,1.01,0,.56.45,1.01,1.01,1.01h104.22c.56,0,1.01-.46,1.01-1.01,0-.56-.45-1.01-1.01-1.01h-104.22Z"/>
    <path id="b0a6cee6-456b-42c7-b828-32d4ce813421-2007" class="cls-8" d="M164.95,147.99c-.56,0-1.01.46-1.01,1.01,0,.56.45,1.01,1.01,1.01h77.01c.56,0,1.01-.46,1.01-1.01,0-.56-.45-1.01-1.01-1.01h-77.01Z"/>
    <path id="b1178f6f-c479-4db7-b1bf-97b40cae8cd0-2008" class="cls-8" d="M164.95,153.93c-.56,0-1.01.45-1.01,1.01s.45,1.01,1.01,1.01h104.22c.56,0,1.01-.46,1.01-1.01,0-.56-.45-1.01-1.01-1.01h-104.22Z"/>
    <path id="ad9199b6-e18d-416a-bbd3-7817c0554bff-2009" class="cls-8" d="M164.95,160.01c-.56,0-1.01.46-1.01,1.01,0,.56.45,1.01,1.01,1.01h77.01c.56,0,1.01-.46,1.01-1.01,0-.56-.45-1.01-1.01-1.01h-77.01Z"/>
    <path id="f7d611df-d029-4cc6-9561-be5a6829cf65-2010" class="cls-1" d="M199.49,127.75h-80.58c-.82,0-1.49-.67-1.49-1.49v-35.36c0-.82.67-1.49,1.49-1.49h80.58c.82,0,1.49.67,1.49,1.49v35.36c0,.82-.67,1.49-1.49,1.49Z"/>
    <path id="b2be1aaf-9241-4aa1-a473-dbb8e8dcff3c-2011" class="cls-4" d="M268.53,183.66h-30.54c-.82,0-1.49-.67-1.49-1.49v-4.89c0-.82.67-1.49,1.49-1.49h30.54c.82,0,1.49.67,1.49,1.49v4.89c0,.82-.67,1.49-1.49,1.49Z"/>
    <path class="cls-6" d="M87.53,135.28c-1.32-.98-1.7-2.82-.86-4.1.08-.13.18-.24.28-.35l.08-26.12,3.88.72.17,25.69c.88,1.03,1.06,2.52.35,3.62-.84,1.28-2.59,1.53-3.9.54Z"/>
    <polygon class="cls-6" points="107.73 193.75 111.73 193.75 113.64 178.31 107.73 178.31 107.73 193.75"/>
    <path class="cls-2" d="M106.71,192.44h7.88s0,0,0,0c2.77,0,5.02,2.25,5.02,5.02v.16h-12.91s0-5.19,0-5.19Z"/>
    <polygon class="cls-6" points="70.5 193.75 74.51 193.75 76.41 178.31 70.5 178.31 70.5 193.75"/>
    <path class="cls-2" d="M69.48,192.44h7.88s0,0,0,0c2.77,0,5.02,2.25,5.02,5.02v.16h-12.91s0-5.19,0-5.19Z"/>
    <path class="cls-2" d="M107.49,189.44l-.34-2.01c-.34-.12-.64-.36-.83-.67-.36-.57-.42-1.37-.17-2.38l-2.7-22.81-14.1-14.63-9.05,21.82-3.58,17.27v2.49l-7.15.92.33-2.35c-.27-.12-.5-.32-.65-.58-.41-.68-.41-1.74.02-3.15l.02-.06-.02-.21c-.02-.15.09-14.25,4.28-21.24l4.2-21.22c-.11-.3-.65-2.04.34-4.98.97-2.9,3.7-7.57,11.15-13.36l.03-.02h.03c.08-.02,8.3-1.66,12.55,3.9l.03.04v.05c0,.34,0,8.34-.64,10.11l10.08,18.54c.2.21,1.96,2.24,1.33,7.6l1.63,18.24c.19.36,1.87,3.71.01,5.03l.33,2.3-7.13,1.36Z"/>
    <path class="cls-1" d="M90.63,112.77c-1.89,0-4.41-.67-5.95-3.75l-.03-.06,3.79-8.04c1.04-2.2,3.67-3.15,5.87-2.11,2.13,1.01,3.1,3.51,2.19,5.69l-3.28,7.86-.06.02c-.82.26-1.67.4-2.54.39Z"/>
    <path class="cls-1" d="M101.14,128.72l-11.96-5.65,1.64-20.06,3-3.66.58-.12c2.67-.57,5.44-.42,8.03.44l.06.02,4.92,10.5c.03.05,3.58,6.32-1.33,9.63l-4.95,8.9Z"/>
    <path class="cls-6" d="M117.58,122.33c-.14.06-.28.13-.41.21l-12.6-5.77-.32-3.35-5.12-.17v5.99c0,.99.65,1.87,1.6,2.15l15.14,4.42c.42,1.56,2.03,2.49,3.6,2.07,1.56-.42,2.49-2.03,2.07-3.6-.42-1.56-2.03-2.49-3.6-2.07-.12.03-.23.07-.34.12h0Z"/>
    <path class="cls-1" d="M102.16,114.85c-1.44,0-3.06-.5-4.61-2.05l-.05-.05,1.05-8.83c.29-2.42,2.48-4.15,4.9-3.86,2.34.28,4.05,2.35,3.88,4.7l-.62,8.5-.05.04s-1.98,1.55-4.5,1.55Z"/>
    <circle class="cls-6" cx="98.97" cy="88.51" r="8.02"/>
    <path class="cls-2" d="M107.13,84.26c-.4-2.31-2.26-4.23-4.47-5.02-2.21-.79-4.71-.53-6.88.37-.36.15-.71.32-1.06.51-.79-1.51-2.73-2.39-4.51-2.29-2.15.11-4.08,1.25-5.95,2.32s-3.86,2.14-6.01,2.09c-3.88-.09-6.77-3.69-10.51-4.76-4.46-1.28-9.11,1.3-10.39,5.76-.69,2.41-.27,5,1.14,7.06,1.59-2.86,5.34-3.82,8.58-3.43,3.25.39,6.27,1.81,9.45,2.57,3.18.76,6.86.73,9.33-1.42,1.4-1.22,2.22-2.96,3.43-4.36.82-.95,1.99-1.75,3.19-1.93-1.18,1.06-2.08,2.4-2.62,3.89-.96,2.73-.45,6,1.54,8.1,2.13,2.25,5.49,2.85,8.58,2.81l.06-.07c-.95-1.42-1.7-3.39-.65-4.74,1.03-1.33,3.07-1.14,4.65-1.73,2.2-.82,3.48-3.41,3.08-5.72Z"/>
    <path class="cls-3" d="M128.78,197.95H52.47c-.15,0-.28-.13-.28-.28s.13-.28.28-.28h76.31c.15,0,.28.13.28.28s-.13.28-.28.28Z"/>
    <path id="e2582065-92bf-48dc-a28d-04f42179e35f-2012" class="cls-5" d="M155.58,101.81c-.35,0-.63.46-.63,1.01,0,.56.28,1.01.63,1.01h29.87c.35,0,.63-.46.63-1.01,0-.56-.28-1.01-.63-1.01h-29.87Z"/>
    <path id="bb678cb9-7d76-4fbb-a84c-c380d6521528-2013" class="cls-5" d="M155.58,107.68c-.35,0-.63.46-.63,1.01,0,.56.28,1.01.63,1.01h29.87c.35,0,.63-.46.63-1.01,0-.56-.28-1.01-.63-1.01h-29.87Z"/>
    <path id="a9697f3a-b5f3-4f74-8277-57e15506e4dd-2014" class="cls-5" d="M155.58,113.48c-.35,0-.63.46-.63,1.01,0,.56.28,1.01.63,1.01h12.85c.35,0,.63-.46.63-1.01,0-.56-.28-1.01-.63-1.01h-12.85Z"/>
    <circle class="cls-5" cx="140.42" cy="108.58" r="8.11"/>
  </g>
</svg>