<?xml version="1.0" encoding="UTF-8"?>
<svg id="Layer_1" data-name="Layer 1" xmlns="http://www.w3.org/2000/svg" viewBox="0 0 333 248">
  <defs>
    <style>
      .cls-1 {
        fill: #f2f2f2;
      }

      .cls-1, .cls-2, .cls-3, .cls-4, .cls-5, .cls-6, .cls-7, .cls-8, .cls-9 {
        stroke-width: 0px;
      }

      .cls-2 {
        fill: #495182;
      }

      .cls-3 {
        fill: #2f2e41;
      }

      .cls-4 {
        fill: #3f3d56;
      }

      .cls-5 {
        fill: #db3545;
      }

      .cls-6 {
        fill: #bac1e2;
      }

      .cls-7 {
        fill: #ffb6b6;
      }

      .cls-8 {
        fill: #e7e9f9;
      }

      .cls-9 {
        isolation: isolate;
        opacity: .1;
      }
    </style>
  </defs>
  <rect class="cls-8" width="333" height="248"/>
  <g>
    <path class="cls-1" d="M233.4,65.44H49.88c.26-1.47.77-2.86,1.47-4.12,2.26-4.03,6.57-6.75,11.51-6.75h157.56c4.93,0,9.25,2.73,11.5,6.75.71,1.26,1.22,2.65,1.48,4.12Z"/>
    <path class="cls-4" d="M269.1,192.93c0,.2-.16.36-.36.36h-75.41c-.2,0-.36-.16-.36-.36,0-.1.04-.18.1-.25h27.36c.58,0,1.15-.04,1.71-.12h46.6c.2,0,.36.16.36.36Z"/>
    <path class="cls-6" d="M184.54,118.96h-85.79c-.8,0-1.45-.82-1.45-1.83s.65-1.83,1.45-1.83h85.79c.8,0,1.45.82,1.45,1.83s-.65,1.83-1.45,1.83Z"/>
    <path class="cls-3" d="M233.4,65.44c-.26-1.47-.77-2.86-1.48-4.12-2.26-4.03-6.57-6.75-11.5-6.75H62.86c-4.94,0-9.25,2.73-11.51,6.75-.71,1.26-1.21,2.65-1.47,4.12-.13.75-.2,1.52-.2,2.31v112.35c0,7.27,5.91,13.18,13.18,13.18h157.56c1.51,0,2.96-.26,4.31-.73,5.16-1.79,8.87-6.7,8.87-12.46v-112.35c0-.79-.07-1.56-.2-2.31ZM233,180.1c0,6.36-4.73,11.62-10.86,12.46-.56.08-1.13.12-1.71.12H64.05c-7.6,0-13.76-6.16-13.76-13.76v-111.17c0-.79.07-1.56.21-2.31.27-1.48.81-2.87,1.56-4.12,2.19-3.68,6.21-6.14,10.8-6.14h157.56c4.59,0,8.61,2.46,10.8,6.14.75,1.25,1.28,2.64,1.56,4.12.14.75.21,1.52.21,2.31v112.35Z"/>
    <g>
      <polygon class="cls-7" points="248.47 95.32 247.08 90.23 253.33 87.92 254.02 92.54 248.47 95.32"/>
      <polygon class="cls-9" points="248.47 95.32 247.08 90.23 250.76 88.68 249.62 94.67 248.47 95.32"/>
      <g>
        <path class="cls-7" d="M230.19,138.92c-1.19-.71-1.26-2.8-.14-4.68.49-.82,1.12-1.46,1.78-1.87l.65-1.07,8.28-14.85s3.63-14.01,5.1-15.7c1.48-1.69,3.61-1.29,3.61-1.29l1.89,1.68-6.76,19.84-8.34,11.74-1.12,1.63c-.04.77-.3,1.63-.79,2.45-1.12,1.87-2.99,2.82-4.18,2.11h0Z"/>
        <path class="cls-2" d="M248.13,93.86s2.63-.1,4.3,1.94c1.66,2.05-7.05,25.11-7.05,25.11l-7.09-.25,9.84-26.81h0Z"/>
      </g>
      <circle class="cls-7" cx="248.82" cy="84.56" r="6.48"/>
      <polygon class="cls-7" points="233.67 178.57 229.28 189.44 226.73 186.89 225.81 182.04 229.51 177.41 233.67 178.57"/>
      <polygon class="cls-7" points="274.83 174.64 279.23 179.72 277.15 183.89 272.52 183.19 270.21 176.72 274.83 174.64"/>
      <polygon class="cls-7" points="245.58 113.93 245 123.3 259.34 120.75 258.41 114.97 245.58 113.93"/>
      <path class="cls-3" d="M244.89,123.41l14.45-4.74s5.32,10.64-.46,17.34c-5.78,6.71-24.98,44.86-24.98,44.86l-5.78-2.78,8.33-24.28,9.25-22.43-.81-7.98h0Z"/>
      <polygon class="cls-3" points="258.88 132.09 264.43 156.37 275.99 175.1 269.98 178.57 253.79 156.37 248.47 139.25 258.88 132.09"/>
      <path class="cls-3" d="M223.73,181.11h-4.01s-4.67-1.85-5.77,0,4.89,7.1,4.89,7.1c0,0,8.36,4.7,9.51,4.47s1.62-3.01,1.62-3.01l1.39-3.24-2.08.69s-2.78-1.62-2.08-4.39l-3.47-1.62h0Z"/>
      <path class="cls-3" d="M278.3,180.42v-2.31l2.69,2.31s4.48,1.62,1.01,5.09c-3.47,3.47-7.86,7.17-7.86,7.17,0,0-6.94,1.85-7.4-.23s0-2.92,0-2.92l2.54-1.24,2.31-6.01,3.7.46,3.01-2.31h0Z"/>
      <path class="cls-3" d="M250.78,85.83l-2.08-.23-3.82-3.82s-3.47,1.85-3.47.46c0-6.48,3.93-6.24,7.17-6.71,3.24-.46,2.89-.58,3.93,1.16.48.79,2.2,1.27,2.2,1.27,0,0,3.24-4.39,4.86.93,1.62,5.32-.46,21.74,1.16,23.13,1.62,1.39-6.65,2.77-5.75-2.66.9-5.43,2.51-13.76,1.59-15.61-.93-1.85-1.16-1.39-1.16-1.39,1.15-.47,1.9,7.78-2.43,8.18l-.12-4.02s-.69-2.08-2.08-.69h0Z"/>
      <path class="cls-2" d="M247.89,93.81l6.94-2.78,9.25,27.75-19.03-.69-1.71-8.28s-1.67-4.31-.29-6.85c1.39-2.54,4.84-9.15,4.84-9.15h0Z"/>
      <g>
        <path class="cls-7" d="M265.95,140.3c-1.38.12-2.65-1.55-2.84-3.72-.08-.95.06-1.84.36-2.55l-.09-1.25-1.93-16.89s-3.59-13.82-3.37-16.06c.21-2.24.55-2.83.55-2.83l2.52.26,6.07,20.06.07,14.4.04,1.98c.42.65.71,1.5.79,2.45.19,2.17-.78,4.03-2.17,4.15h0Z"/>
        <path class="cls-2" d="M254.25,93.23s2.08-1.62,4.63-.93,8.92,24.51,8.92,24.51l-5.91,3.93-7.63-27.52Z"/>
      </g>
    </g>
    <path class="cls-5" d="M140.01,148.69h-20.63c-1.26,0-2.28-1.02-2.28-2.28v-2.06c0-1.26,1.02-2.28,2.28-2.28h20.63c1.26,0,2.28,1.02,2.28,2.28v2.06c0,1.26-1.02,2.28-2.28,2.28Z"/>
    <path class="cls-2" d="M219.3,81.25h-20.63c-1.26,0-2.28-1.02-2.28-2.28v-2.06c0-1.26,1.02-2.28,2.28-2.28h20.63c1.26,0,2.28,1.02,2.28,2.28v2.06c0,1.26-1.02,2.28-2.28,2.28Z"/>
    <path class="cls-2" d="M170.62,148.84h-20.63c-1.34,0-2.44-1.09-2.44-2.44v-2.06c0-1.34,1.09-2.44,2.44-2.44h20.63c1.34,0,2.44,1.09,2.44,2.44v2.06c0,1.34-1.09,2.44-2.44,2.44ZM149.99,142.52c-1.01,0-1.83.82-1.83,1.83v2.06c0,1.01.82,1.83,1.83,1.83h20.63c1.01,0,1.83-.82,1.83-1.83v-2.06c0-1.01-.82-1.83-1.83-1.83h-20.63Z"/>
    <path class="cls-6" d="M195.92,109.5h-108.56c-1.01,0-1.83-.82-1.83-1.83s.82-1.83,1.83-1.83h108.56c1.01,0,1.83.82,1.83,1.83s-.82,1.83-1.83,1.83Z"/>
    <path class="cls-5" d="M80.45,79.77h-13.72c-1.01,0-1.83-.82-1.83-1.83s.82-1.83,1.83-1.83h13.72c1.01,0,1.83.82,1.83,1.83s-.82,1.83-1.83,1.83Z"/>
    <path class="cls-6" d="M162.48,79.77h-13.72c-1.01,0-1.83-.82-1.83-1.83s.82-1.83,1.83-1.83h13.72c1.01,0,1.83.82,1.83,1.83s-.82,1.83-1.83,1.83Z"/>
    <path class="cls-6" d="M188.4,79.77h-13.72c-1.01,0-1.83-.82-1.83-1.83s.82-1.83,1.83-1.83h13.72c1.01,0,1.83.82,1.83,1.83s-.82,1.83-1.83,1.83Z"/>
    <path class="cls-6" d="M171.83,128.41h-60.38c-1.01,0-1.83-.82-1.83-1.83s.82-1.83,1.83-1.83h60.38c1.01,0,1.83.82,1.83,1.83s-.82,1.83-1.83,1.83Z"/>
    <path class="cls-6" d="M174.46,168.44h-65.64c-.61,0-1.11-.5-1.11-1.11s.5-1.11,1.11-1.11h65.64c.61,0,1.11.5,1.11,1.11s-.5,1.11-1.11,1.11h0Z"/>
    <path class="cls-6" d="M175.08,61.09h-65.64c-.61,0-1.11-.5-1.11-1.11s.5-1.11,1.11-1.11h65.64c.61,0,1.11.5,1.11,1.11s-.5,1.11-1.11,1.11h0Z"/>
  </g>
</svg>