<?xml version="1.0" encoding="UTF-8"?><svg id="Layer_1" xmlns="http://www.w3.org/2000/svg" viewBox="0 0 333 248"><defs><style>.cls-1{fill:#fee;}.cls-1,.cls-2,.cls-3,.cls-4,.cls-5,.cls-6,.cls-7,.cls-8,.cls-9{stroke-width:0px;}.cls-2{fill:#e5e5e5;}.cls-3{fill:#db3545;}.cls-4{fill:#495182;}.cls-5{fill:#fff;}.cls-6{fill:#ffb7b7;}.cls-7{fill:#cbcbcb;}.cls-8{fill:#f1f1f1;}.cls-9{fill:#2f2e41;}</style></defs><rect class="cls-1" width="333" height="248"/><path class="cls-5" d="m278.63,197.52v-27.45s10.7,19.46,0,27.45Z"/><path class="cls-5" d="m279.3,197.51l-20.22-18.56s21.57,5.28,20.22,18.56Z"/><path class="cls-6" d="m191.94,125.01c-.17-1.9,1.23-3.58,3.13-3.75.2-.02.41-.02.61,0l3.65-6.99,4.79,1.18-5.29,9.8c-.29,1.89-2.07,3.19-3.96,2.9-1.58-.25-2.79-1.54-2.93-3.14h0Z"/><polygon class="cls-6" points="213.7 193.14 209.66 193.14 207.74 177.55 213.7 177.55 213.7 193.14"/><path class="cls-9" d="m214.73,197.06h-13.03v-.17c0-2.8,2.27-5.07,5.07-5.07h7.96s0,5.24,0,5.24Z"/><polygon class="cls-6" points="246.21 190.12 242.31 191.19 236.35 176.65 242.11 175.08 246.21 190.12"/><path class="cls-9" d="m248.24,193.63l-12.57,3.43-.04-.16c-.74-2.7.86-5.49,3.56-6.23h0s7.68-2.09,7.68-2.09l1.38,5.05Z"/><polygon class="cls-9" points="206.32 125.8 204.31 156.41 208.64 190.77 215.73 188.6 216.03 157.91 221.71 140.21 238.51 187.48 246.2 184.64 239.85 153.95 236.27 125.12 206.32 125.8"/><path class="cls-5" d="m225.92,72.03l-11.95,1.76-4.3,4.26-1.34,15.29.83,13.55-3.46,23.89s8.7-4.83,15.44,1.22c6.74,6.05,16.18,1.07,16.37-2.95l-11.6-57.01Z"/><path class="cls-9" d="m219.86,91.21v-.02s5.93-19.35,5.93-19.35h.08c.42-.03,10.37-.62,12.6,4.29v.02s-.67,20.1-.67,20.1l.93,31.49-18.4,3.99-.13.03-.34-40.56Z"/><path class="cls-9" d="m213.28,89.87l1.09-16.4c-7.74.48-7.63,5.97-7.62,6.21l-.08,24.53-1.55,26.24,5.64-.42,2.53-40.16Z"/><path class="cls-9" d="m195.82,119.71l6.87-15.95,4.8-8.81,2.51,15.89-8.7,13.05-5.48-4.18Z"/><path class="cls-6" d="m224.23,113.84c.4-1.86,2.23-3.05,4.1-2.66.2.04.39.1.58.18l5.55-5.61,4.23,2.54-7.94,7.81c-.84,1.72-2.92,2.44-4.64,1.6-1.44-.7-2.22-2.3-1.87-3.87Z"/><path class="cls-9" d="m228.89,109.32l11.31-12.4-7.48-10.68.77-5.22,4.41-5.45.09.11c.47.61,11.52,14.96,11.84,20.4.32,5.45-15.56,19.25-16.24,19.84l-.09.08-4.59-6.67Z"/><circle class="cls-6" cx="219.03" cy="62.65" r="8.04"/><path class="cls-9" d="m226.59,56.22l.39-.78-1.96-.97s-2.16-3.52-6.08-2.53-5.67,1.58-5.67,1.58l-1.96.98.98.98-1.76.59,1.18.58-1.37.79.74,4.03s1.22-3.06,3.58-1.89c2.35,1.17,6.66-.6,6.66-.6l3.74,7.24s.77-2.54,2.15-1.86c0,0,3.51-5.59-.61-8.13Z"/><path class="cls-5" d="m165.32,139.25l-74.34,20.5-24.48-88.77,74.34-20.5,24.48,88.77Z"/><path class="cls-8" d="m165.32,139.25l-74.34,20.5-24.48-88.77,74.34-20.5,24.48,88.77Zm-73.39,18.83l71.72-19.78-23.76-86.14-71.72,19.78,23.76,86.14Z"/><path class="cls-9" d="m124.66,90.25l-18.64,5.14c-.55.15-1.11-.17-1.26-.72l-5.14-18.64c-.15-.55.17-1.11.72-1.26l18.64-5.14c.55-.15,1.11.17,1.26.72l5.14,18.64c.15.55-.17,1.11-.72,1.26Zm-24.21-15.08c-.33.09-.52.43-.43.76l5.14,18.64c.09.33.43.52.76.43l18.64-5.14c.33-.09.52-.43.43-.76l-5.14-18.64c-.09-.33-.43-.52-.76-.43l-18.64,5.14Z"/><path class="cls-4" d="m119.94,94l-18.64,5.14c-.49.14-1-.15-1.14-.65l-5.14-18.64c-.14-.49.15-1,.65-1.14l18.64-5.14c.49-.14,1,.15,1.14.65l5.14,18.64c.14.49-.15,1-.65,1.14Z"/><rect class="cls-8" x="88.83" y="103.68" width="53.95" height="2.08" transform="translate(-23.67 34.56) rotate(-15.42)"/><rect class="cls-8" x="90.28" y="108.92" width="53.95" height="2.08" transform="translate(-25.02 35.13) rotate(-15.42)"/><rect class="cls-8" x="91.72" y="114.16" width="53.95" height="2.08" transform="translate(-26.36 35.7) rotate(-15.42)"/><rect class="cls-8" x="94.26" y="123.38" width="53.95" height="2.08" transform="translate(-28.72 36.71) rotate(-15.42)"/><rect class="cls-8" x="95.71" y="128.62" width="53.95" height="2.08" transform="translate(-30.06 37.28) rotate(-15.42)"/><rect class="cls-8" x="97.15" y="133.86" width="53.95" height="2.08" transform="translate(-31.4 37.86) rotate(-15.42)"/><path class="cls-5" d="m189.12,159.46h-77.12v-92.08h77.12v92.08Z"/><path class="cls-2" d="m189.12,159.46h-77.12v-92.08h77.12v92.08Zm-75.76-1.36h74.4v-89.36h-74.4v89.36Z"/><rect class="cls-4" x="130.99" y="106.96" width="44.09" height="2.08"/><rect class="cls-4" x="130.99" y="112.38" width="44.09" height="2.08"/><rect class="cls-4" x="130.99" y="117.8" width="44.09" height="2.08"/><circle class="cls-4" cx="127.4" cy="108.31" r="1.36"/><rect class="cls-2" x="130.99" y="83.6" width="44.09" height="2.08"/><rect class="cls-2" x="130.99" y="89.02" width="44.09" height="2.08"/><rect class="cls-2" x="130.99" y="94.44" width="44.09" height="2.08"/><circle class="cls-2" cx="127.4" cy="84.72" r="1.36"/><rect class="cls-2" x="130.99" y="130.54" width="44.09" height="2.08"/><rect class="cls-2" x="130.99" y="135.96" width="44.09" height="2.08"/><rect class="cls-2" x="130.99" y="141.38" width="44.09" height="2.08"/><circle class="cls-2" cx="127.4" cy="131.66" r="1.36"/><circle class="cls-3" cx="185.52" cy="151.62" r="15.76"/><path class="cls-5" d="m189.89,150.62v-3.02c0-2.41-1.96-4.37-4.37-4.37s-4.37,1.96-4.37,4.37v3.02c-1.21.05-2.17,1.05-2.17,2.27v7.13h13.07v-7.13c0-1.21-.96-2.21-2.17-2.27Zm-4.37-5.85c1.56,0,2.83,1.27,2.83,2.83v3.01h-5.66v-3.01c0-1.56,1.27-2.83,2.83-2.83Z"/><path class="cls-4" d="m170.79,126.2c0-1.07-.86-1.93-1.93-1.93s-1.93.86-1.93,1.93c0,.64.32,1.24.84,1.6v4.2h2.17v-4.2c.53-.36.85-.96.85-1.6Z"/><path class="cls-7" d="m282.2,197.36h-144.57c-.21,0-.38-.17-.38-.38s.17-.38.38-.38h144.57c.21,0,.38.17.38.38s-.17.38-.38.38Z"/></svg>