<?xml version="1.0" encoding="UTF-8"?><svg id="Layer_1" xmlns="http://www.w3.org/2000/svg" viewBox="0 0 333 248"><defs><style>.cls-1{fill:#a0616a;}.cls-1,.cls-2,.cls-3,.cls-4,.cls-5,.cls-6,.cls-7,.cls-8,.cls-9,.cls-10,.cls-11{stroke-width:0px;}.cls-2{fill:#fee;}.cls-3{fill:#e6e6e6;}.cls-4{fill:#db3545;}.cls-5{fill:#b0addb;}.cls-6{fill:#ccc;}.cls-7{fill:#495182;}.cls-8{fill:#fff;}.cls-9{fill:#3f3d56;}.cls-10{fill:#cacaca;}.cls-11{fill:#2f2e41;}</style></defs><rect class="cls-2" width="333" height="248"/><path class="cls-8" d="m253.66,184.63l.22-5.05c2.34-1.25,4.96-1.91,7.61-1.93-3.66,2.99-3.2,8.75-5.68,12.77-1.59,2.53-4.23,4.2-7.2,4.54l-3.06,1.87c-.85-4.74.42-9.61,3.47-13.33.86-1.02,1.84-1.93,2.92-2.71.73,1.93,1.71,3.84,1.71,3.84Z"/><path class="cls-8" d="m99.02,179.09l-7.38-2.24c-.97-3.93-.96-8.04.02-11.97,3.04,6.53,11.73,8.02,16.73,13.2,3.14,3.29,4.61,7.84,3.99,12.35l1.62,5.23c-7.32-.53-14.04-4.23-18.39-10.14-1.19-1.65-2.17-3.44-2.91-5.34,3.13-.36,6.32-1.08,6.32-1.08Z"/><path class="cls-8" d="m228.08,196c0,.15-.06.3-.17.41-.11.11-.25.17-.41.17h-2.31c-.32,0-.57-.25-.57-.57v-69.9c0-1.54-.52-2.79-1.15-2.79H79.59c-.64,0-1.15,1.25-1.16,2.79v69.47c0,.3-.23.54-.52.57-.47.05-.93.09-1.39.12-.01,0-.02,0-.03,0-.25.02-.51.04-.76.06h0c-.13-.24-.26-.48-.39-.73-.04-.08-.06-.17-.06-.27v-72.86c0-.43.02-.85.05-1.28.04-.58.11-1.16.22-1.73.49-2.67,1.58-4.48,2.83-4.48h146.32c.18,0,.36.04.53.11.25.11.47.26.65.46.25.26.47.56.64.88.62,1.08,1.05,2.7,1.21,4.58,0,.02,0,.03,0,.05.04.47.06.94.06,1.41l.04,6.16.03,3.67.08,11.53.03,4.09.13,48.06Z"/><path class="cls-6" d="m174.68,93.68h-14.66c-.43,0-.78.35-.78.78v23.16h16.23v-23.16c0-.43-.35-.78-.78-.78h0Zm-7.28,13.16c-.95,0-1.73-.78-1.73-1.73v-2.67c0-.96.78-1.73,1.73-1.73s1.73.78,1.73,1.73v2.67c0,.95-.78,1.73-1.73,1.73Z"/><path class="cls-9" d="m159.19,116.89v2.23c0,.24.2.44.44.44h15.45c.24,0,.44-.2.44-.44v-2.23h-16.33Z"/><path class="cls-3" d="m198.96,57.53h-62.68c-1.12,0-2.03.91-2.03,2.03v42.29c0,1.12.91,2.03,2.03,2.03h62.68c1.12,0,2.03-.91,2.03-2.03v-42.29c0-1.12-.91-2.03-2.03-2.03Z"/><path class="cls-8" d="m198.44,59h-61.63c-.6,0-1.09.49-1.09,1.09v41.25c0,.6.49,1.09,1.09,1.09h61.63c.6,0,1.09-.49,1.09-1.09v-41.25c0-.6-.49-1.09-1.09-1.09Z"/><path class="cls-6" d="m186.43,120.33h-36.67c-.37,0-.67-.3-.67-.67,0-.05,0-.09.01-.14l.57-2.7c.07-.31.34-.53.66-.54h35.53c.32,0,.59.22.66.54l.57,2.7c.08.36-.16.72-.52.8-.05,0-.09.01-.14.01Z"/><rect class="cls-3" x="150.6" y="116.77" width="1.13" height=".68" rx=".14" ry=".14"/><rect class="cls-3" x="152.86" y="116.77" width="1.13" height=".68" rx=".14" ry=".14"/><rect class="cls-3" x="155.11" y="116.77" width="1.13" height=".68" rx=".14" ry=".14"/><rect class="cls-3" x="157.37" y="116.77" width="1.13" height=".68" rx=".14" ry=".14"/><rect class="cls-3" x="159.63" y="116.77" width="1.13" height=".68" rx=".14" ry=".14"/><rect class="cls-3" x="161.89" y="116.77" width="1.13" height=".68" rx=".14" ry=".14"/><rect class="cls-3" x="164.15" y="116.77" width="1.13" height=".68" rx=".14" ry=".14"/><rect class="cls-3" x="166.41" y="116.77" width="1.13" height=".68" rx=".14" ry=".14"/><rect class="cls-3" x="168.67" y="116.77" width="1.13" height=".68" rx=".14" ry=".14"/><rect class="cls-3" x="170.92" y="116.77" width="1.13" height=".68" rx=".14" ry=".14"/><rect class="cls-3" x="173.18" y="116.77" width="1.13" height=".68" rx=".14" ry=".14"/><rect class="cls-3" x="175.44" y="116.77" width="1.13" height=".68" rx=".14" ry=".14"/><rect class="cls-3" x="177.7" y="116.77" width="1.13" height=".68" rx=".14" ry=".14"/><rect class="cls-3" x="179.96" y="116.77" width="1.13" height=".68" rx=".14" ry=".14"/><rect class="cls-3" x="182.22" y="116.77" width="1.13" height=".68" rx=".14" ry=".14"/><rect class="cls-3" x="184.48" y="116.77" width="1.13" height=".68" rx=".14" ry=".14"/><rect class="cls-3" x="150.57" y="117.9" width="1.13" height=".68" rx=".14" ry=".14"/><rect class="cls-3" x="152.83" y="117.9" width="1.13" height=".68" rx=".14" ry=".14"/><rect class="cls-3" x="155.09" y="117.9" width="1.13" height=".68" rx=".14" ry=".14"/><rect class="cls-3" x="157.35" y="117.9" width="1.13" height=".68" rx=".14" ry=".14"/><rect class="cls-3" x="159.6" y="117.9" width="1.13" height=".68" rx=".14" ry=".14"/><rect class="cls-3" x="161.86" y="117.9" width="1.13" height=".68" rx=".14" ry=".14"/><rect class="cls-3" x="164.12" y="117.9" width="1.13" height=".68" rx=".14" ry=".14"/><rect class="cls-3" x="166.38" y="117.9" width="1.13" height=".68" rx=".14" ry=".14"/><rect class="cls-3" x="168.64" y="117.9" width="1.13" height=".68" rx=".14" ry=".14"/><rect class="cls-3" x="170.9" y="117.9" width="1.13" height=".68" rx=".14" ry=".14"/><rect class="cls-3" x="173.16" y="117.9" width="1.13" height=".68" rx=".14" ry=".14"/><rect class="cls-3" x="175.41" y="117.9" width="1.13" height=".68" rx=".14" ry=".14"/><rect class="cls-3" x="177.67" y="117.9" width="1.13" height=".68" rx=".14" ry=".14"/><rect class="cls-3" x="179.93" y="117.9" width="1.13" height=".68" rx=".14" ry=".14"/><rect class="cls-3" x="182.19" y="117.9" width="1.13" height=".68" rx=".14" ry=".14"/><rect class="cls-3" x="184.45" y="117.9" width="1.13" height=".68" rx=".14" ry=".14"/><rect class="cls-3" x="161.41" y="119.25" width="9.03" height=".68" rx=".14" ry=".14"/><path class="cls-10" d="m195.34,64.68h-57.67c-.13,0-.23-.11-.22-.23,0-.12.1-.22.22-.22h57.67c.13,0,.23.11.22.23,0,.12-.1.22-.22.22Z"/><ellipse class="cls-6" cx="141.6" cy="61.68" rx="1.34" ry="1.37"/><ellipse class="cls-6" cx="146.24" cy="61.68" rx="1.34" ry="1.37"/><ellipse class="cls-6" cx="150.88" cy="61.68" rx="1.34" ry="1.37"/><polygon class="cls-9" points="166.45 68.16 166.26 67.62 190.08 55.24 190.27 55.78 166.45 68.16"/><polygon class="cls-9" points="238.31 91.08 238.13 90.54 252.46 78.23 252.65 78.77 238.31 91.08"/><polygon class="cls-9" points="210.78 93.95 186.96 81.57 187.15 81.03 210.96 93.41 210.78 93.95"/><polygon class="cls-9" points="222.97 85.34 209.01 62.41 209.45 62.05 223.41 84.97 222.97 85.34"/><polygon class="cls-9" points="233.87 55.47 220.27 55.4 220.27 54.83 233.87 54.89 233.87 55.47"/><path class="cls-7" d="m258.5,59.03h-15.24c-2.06,0-3.74-1.67-3.74-3.74s1.67-3.74,3.74-3.74h15.24c2.06,0,3.74,1.67,3.74,3.74s-1.67,3.74-3.74,3.74h0Z"/><path class="cls-7" d="m277.48,80.88h-15.24c-2.06,0-3.74-1.67-3.74-3.74s1.67-3.74,3.74-3.74h15.24c2.06,0,3.74,1.67,3.74,3.74s-1.67,3.74-3.74,3.74Z"/><polygon class="cls-9" points="252.84 96.29 239.24 96.22 239.24 95.65 252.84 95.71 252.84 96.29"/><path class="cls-7" d="m277.48,99.85h-15.24c-2.06,0-3.74-1.67-3.74-3.74s1.67-3.74,3.74-3.74h15.24c2.06,0,3.74,1.67,3.74,3.74s-1.67,3.74-3.74,3.74Z"/><path class="cls-4" d="m232.92,97.28h-15.24c-2.06,0-3.74-1.67-3.74-3.74s1.67-3.74,3.74-3.74h15.24c2.06,0,3.74,1.67,3.74,3.74s-1.67,3.74-3.74,3.74Z"/><path class="cls-7" d="m212.22,58.76h-15.24c-2.06,0-3.74-1.67-3.74-3.74s1.67-3.74,3.74-3.74h15.24c2.06,0,3.74,1.67,3.74,3.74s-1.67,3.74-3.74,3.74Z"/><path class="cls-9" d="m139.4,122.91h-17.25c-1.27,0-2.3,1.03-2.3,2.3s1.03,2.3,2.3,2.3h6.32v17.82h4.6v-17.82h6.32c1.27,0,2.3-1.03,2.3-2.3s-1.03-2.3-2.3-2.3h0Z"/><path class="cls-9" d="m150.78,155.21h-46.13c-9.24-.03-17.07-6.84-18.37-15.99l-1.63-6.01c-3.38-12.45-8.53-24.35-15.29-35.33-3.09-5.02-4.68-9.87-1.07-14.55.03-.04.06-.08.09-.12,2.9-3.77,17.32-4.59,22.02-4.75.19,0,.37,0,.56,0h28.69c.19,0,.37,0,.56,0,5.16.15,9.83,3.12,12.14,7.74,2.47,4.71,2.16,10.4-.82,14.81-10.08,15.14-13.17,24.64-10.01,30.78,3.06,5.95,12.42,8.99,29.48,9.57,4.58.16,6.69,3.73,6.7,6.98.01,3.17-2.01,6.66-6.48,6.86-.15,0-.29,0-.44,0Z"/><path class="cls-9" d="m112.49,196.17h17.25c1.27,0,2.3-1.03,2.3-2.3s-1.03-2.3-2.3-2.3h-6.32v-38.81h-4.6v38.81h-6.32c-1.27,0-2.3,1.03-2.3,2.3s1.03,2.3,2.3,2.3Z"/><polygon class="cls-1" points="128.1 180.53 131.07 182.14 138.93 171.26 134.55 168.88 128.1 180.53"/><path class="cls-11" d="m129.53,176.65l5.39,1.69-.86,2.26,3.7,5.37c.47.69.3,1.63-.39,2.1-.41.28-.93.34-1.39.17l-6.28-2.39-.23-2.65-1.27,2.07-2.37-.9,3.7-7.73Z"/><path class="cls-1" d="m135.6,70.85c.27,1.82-1,3.52-2.82,3.79-.19.03-.39.04-.59.03l-11.46,24.38-3.59-5.01,11.79-23.05c.18-1.85,1.82-3.19,3.67-3.01,1.54.15,2.78,1.34,3,2.88h0Z"/><path class="cls-5" d="m97.59,103.98s-.31,4.26,4.51,5.09c4.82.84,17.69-7.31,19.8-8.56,2.11-1.25,6.05-16.98,6.05-16.98l-3.43-5.8c-4.23,5.35-7.55,10.29-7.75,13.79l-19.19,12.45Z"/><path class="cls-1" d="m103.15,118.64l1.04,4.47s.01,4.12.74,4.88c.72.76,16.66-.76,16.66-.76,0,0-1.69-6.64-1.67-11.66l-16.77,3.08h0Z"/><path class="cls-11" d="m136.81,175.81l-5.75-3.16c-.11-7.48,4.39-17.61,9.73-28.21-11.94,2.05-23.2,2.71-32.94.23-3.33-.88-5.33-4.27-4.5-7.61.04-.16.08-.31.13-.47,1.17-3.56-1.45-5.79.96-9.7,6.32-2.16,12.33-2.77,17.82-.86l3.44,7.61,17.06-2.21c3.45-.41,6.58,2.05,6.99,5.5,0,.02,0,.03,0,.05.02.19.04.37.04.56-3.45,16.17-7.32,30.72-12.99,38.27Z"/><path class="cls-5" d="m100.83,90.35l6.57-.39c.57-.03,1.09.3,1.31.82l1.86,4.5,7.72,6.38s3.06,3.89,3.06,8.91c0,5.02,1.08,16.65,1.08,16.65,0,0-4.46-6.28-7.21-4.61-.47.28-.63.86-1.12,1.16-.24.15-.81,0-1.06.15-3.79,2.25-7.75,4.45-8.12,4.07-.73-.76-1.61-4.63-1.61-4.63l-6.02-22.1c-.66-2.35-.23-4.88,1.16-6.89.42-.59.86-1.03,1.27-1.1.92-.2.43-2.25,1.09-2.92h0Z"/><polygon class="cls-1" points="156.73 189.89 159.51 187.96 153.22 176.1 149.13 178.95 156.73 189.89"/><path class="cls-11" d="m157.15,181.93l-4.35,3.89c-6.91-7.7-12.14-18.51-16.57-30.77-11.6-3.4-20.35-8.88-27.99-15.39-2.59-2.19-4.53-5.01-2.32-7.68.1-.12.21-.25.32-.36,2.61-2.68,9.23-2.17,13.1-4.63l8.66,9.26-.54,2.48,16.26,5.51c3.27,1.15,5,4.73,3.85,8.01,0,.02-.01.03-.02.05-.06.18-.13.35-.21.52l9.8,29.13Z"/><path class="cls-11" d="m155.12,189.11l4.44-3.5,1.38,1.98,6.52-.02c.83,0,1.51.67,1.51,1.51,0,.5-.24.96-.65,1.24l-5.52,3.83-2.32-1.3.99,2.22-2.08,1.45-4.29-7.42Z"/><path class="cls-1" d="m110.54,146.05c-1.7-.72-2.49-2.68-1.77-4.38.08-.18.17-.35.28-.52l-14.88-22.45,6.15-.47,13.57,22.05c1.48,1.11,1.78,3.22.67,4.7-.93,1.24-2.59,1.68-4.02,1.07h0Z"/><path class="cls-5" d="m101.98,96.36s-3.48-2.47-6.69,1.21c-3.22,3.68-2.95,18.91-2.98,21.37,0,.77,1.1,2.43,2.63,4.35.69.86,1.46,1.77,2.25,2.68.46.52.06,1.62.52,2.13.46.51,1.77.43,2.21.9,2.07,2.24,3.75,3.94,3.75,3.94l6.73.08c.08-5-3.35-9.47-7.75-13.79l-.67-22.86h0Z"/><path class="cls-11" d="m95.19,74.57c-.64.46-1.31.93-2.09,1.05s-1.69-.26-1.9-1.02c-.26-.92.57-1.77,1.32-2.37l2.38-1.91c.44-.39.93-.7,1.46-.94.54-.24,1.16-.22,1.68.06.52.35.82.95.79,1.57-.03.62-.24,1.21-.59,1.72-.89,1.39-2.31,2.36-3.94,2.68"/><path class="cls-9" d="m113.24,124.06h-17.25c-1.27,0-2.3,1.03-2.3,2.3s1.03,2.3,2.3,2.3h6.32v17.82h4.6v-17.82h6.32c1.27,0,2.3-1.03,2.3-2.3s-1.03-2.3-2.3-2.3h0Z"/><path class="cls-11" d="m96.25,69.75c.07-1.72-1.77-3.09-3.49-2.98s-3.2,1.32-4.18,2.74c-.98,1.42-1.56,3.07-2.33,4.61-.77,1.54-1.79,3.05-3.32,3.85-1.53.8-3.65.66-4.71-.71-.67,1.01-.81,2.28-.39,3.41.43,1.12,1.24,2.05,2.28,2.65.42.25.86.44,1.32.58.19-.51.46-1,.8-1.43-.15.51-.21,1.05-.17,1.58.71.14,1.45.13,2.15-.03,1.41-.32,2.59-1.28,3.18-2.59.65-1.53.32-3.27.45-4.93.14-1.65,1.13-3.54,2.79-3.57,1.26-.02,1.1.08,1.9,1.06"/><path class="cls-11" d="m107.73,78.81c0,4.13-3.35,7.47-7.47,7.47s-8.05-4.78-8.05-8.91,3.92-6.04,8.05-6.04,7.47,3.35,7.47,7.47Z"/><circle class="cls-1" cx="102.51" cy="80.78" r="7.13"/><path class="cls-11" d="m111.46,79.67c-2.11.58-4.24,1.18-5.07,0-.16-.78-.46-1.53-.89-2.2-.08.75-.26,1.49-.53,2.2-2.67.58-5.16.72-7.31,0-.3.54-.47,1.13-.5,1.74-.11-.07-.22-.13-.33-.18-.14-.08-.3-.09-.45-.04-.1.06-.17.17-.19.29-.01.12,0,.24.02.36.03.41.15.81.36,1.17.17.25.43.42.72.46.3,1.68,2.68,3.96,2.68,3.96-7.19.29-7.19-4.59-7.19-9.2l.86-1.72h2.87v-3.74h8.05c3.81,0,6.9,3.09,6.9,6.9Z"/><path class="cls-10" d="m176.96,197l-126.13.09c-.19,0-.34-.15-.34-.34s.15-.34.34-.34h0l126.13-.09c.19,0,.34.15.34.34,0,.19-.15.34-.34.34Z"/><path class="cls-10" d="m261.19,197l-65.18.09c-.19,0-.34-.15-.34-.34s.15-.34.34-.34h0l65.18-.09c.19,0,.34.15.34.34s-.15.34-.34.34h0Z"/><path class="cls-11" d="m179.84,93.83h-24.71c-2.15,0-3.89-1.74-3.89-3.89v-16.37c0-2.15,1.74-3.89,3.89-3.89h24.71c2.15,0,3.89,1.74,3.89,3.89v16.37c0,2.15-1.74,3.89-3.89,3.89Zm-24.71-23.57c-1.83,0-3.31,1.48-3.31,3.31v16.37c0,1.83,1.48,3.31,3.31,3.31h24.71c1.83,0,3.31-1.48,3.31-3.31v-16.37c0-1.83-1.48-3.31-3.31-3.31h-24.71Z"/><rect class="cls-3" x="155.85" y="74.86" width="6.61" height=".57"/><rect class="cls-3" x="155.85" y="77.16" width="14.66" height=".57"/><rect class="cls-3" x="155.85" y="79.17" width="14.66" height=".57"/><rect class="cls-3" x="155.85" y="81.18" width="18.69" height=".57"/><rect class="cls-3" x="155.85" y="83.19" width="9.77" height=".57"/><rect class="cls-3" x="155.85" y="85.2" width="17.82" height=".57"/><rect class="cls-3" x="155.85" y="87.22" width="3.16" height=".57"/><path class="cls-6" d="m155.63,62.48s-.06-.01-.08-.03l-.61-.63s-.04-.11,0-.15l.61-.63s.11-.04.15,0c.04.04.04.11,0,.15l-.54.55.54.55s.04.11,0,.15c-.02.02-.05.03-.08.03h0Z"/><path class="cls-6" d="m156.66,62.48s-.05-.01-.08-.03c-.04-.04-.04-.11,0-.15l.54-.55-.54-.55s-.04-.11,0-.15c.04-.04.11-.04.15,0l.61.63s.04.11,0,.15l-.61.63s-.05.03-.08.03h0Z"/><path class="cls-6" d="m188.75,60.93h-1.14c-.13,0-.24.11-.24.24v1.14c0,.13.11.24.24.24h1.14c.13,0,.24-.11.24-.24v-1.14c0-.13-.11-.24-.24-.24Z"/><path class="cls-6" d="m185.95,60.93h-1.14c-.13,0-.24.11-.24.24v1.14c0,.13.11.24.24.24h1.14c.13,0,.24-.11.24-.24v-1.14c0-.13-.11-.24-.24-.24Z"/><path class="cls-6" d="m191.38,60.98h-1.14c-.13,0-.24.11-.24.24v1.14c0,.13.11.24.24.24h1.14c.13,0,.24-.11.24-.24v-1.14c0-.13-.11-.24-.24-.24Z"/><path class="cls-6" d="m174.19,61.41h-9.12c-.16,0-.29.13-.29.29s.13.29.29.29h9.12c.16,0,.29-.13.29-.29s-.13-.29-.29-.29Z"/></svg>