<?xml version="1.0" encoding="UTF-8"?><svg id="Layer_1" xmlns="http://www.w3.org/2000/svg" viewBox="0 0 333 248"><defs><style>.cls-1{fill:#e4e4e4;}.cls-1,.cls-2,.cls-3,.cls-4,.cls-5,.cls-6,.cls-7,.cls-8,.cls-9,.cls-10,.cls-11,.cls-12{stroke-width:0px;}.cls-2{fill:#fbbebe;}.cls-3{fill:#feb8b8;}.cls-4{fill:#e6e6e6;}.cls-5{fill:#c2bfff;}.cls-6{fill:#ccc;}.cls-7{fill:#6c63ff;}.cls-8{fill:#fff;}.cls-9{fill:#3f3d56;}.cls-10{fill:#ffb6b6;}.cls-11{fill:#cacaca;}.cls-12{fill:#2f2e41;}</style></defs><rect class="cls-5" width="333" height="248"/><g id="f9b32178-6d95-472d-b482-6662972666de"><path id="f4b94a19-cbe0-459a-95a6-6ea3b3d72055-950" class="cls-1" d="m187.13,163.68c-1.46,0-2.65,1.19-2.65,2.65s1.19,2.65,2.65,2.65,2.65-1.19,2.65-2.65h0c0-1.46-1.19-2.65-2.65-2.65Zm0,4.28c-.9,0-1.63-.73-1.63-1.63,0-.9.73-1.63,1.63-1.63.9,0,1.63.73,1.63,1.63h0c0,.9-.73,1.63-1.63,1.63Z"/><path id="abc0e0b3-f22e-4bee-9929-c6879640924e-951" class="cls-1" d="m176.94,161.64h10.19v10.09c0,.73-.59,1.33-1.33,1.33h-7.54c-.73,0-1.33-.59-1.33-1.33h0v-10.09h0Z"/></g><path id="e24b6f19-a0a0-4e73-9cfc-bbb7635ad236-952" class="cls-11" d="m248.84,185.04H49.99c-.17-.02-.28-.17-.27-.33.02-.14.13-.25.27-.27h198.85c.17.02.28.17.27.33-.02.14-.13.25-.27.27Z"/><polygon class="cls-10" points="76.49 179.38 75.26 185.46 98.13 193.1 99.95 184.13 76.49 179.38"/><path class="cls-12" d="m78.79,178.23l-2.42,11.98h0c-.85,4.22-4.96,6.94-9.18,6.09l-.25-.05,3.97-19.61,7.88,1.59Z"/><circle id="fd4e5ab9-ffc8-4bbb-9267-3af70c31dae1" class="cls-3" cx="102.41" cy="80.09" r="15.53"/><path id="a8c9bbe2-1461-49cf-8211-f8d251166dc5-953" class="cls-12" d="m116.91,66.7c-2.32-3.77-5.96-6.55-10.2-7.8l-1.91,1.39v-1.81c-1.02-.16-2.05-.22-3.08-.18l-1.64,1.49v-1.36c-4.92.61-9.37,3.25-12.25,7.29-3.57,5.15-4.17,12.31-.66,17.5.96-2.96,2.13-5.74,3.1-8.71.76.1,1.53.11,2.29.01l1.17-2.74.33,2.62c3.64-.32,9.03-1.01,12.48-1.65l-.34-2.01,2.01,1.67c1.06-.24,1.68-.46,1.63-.63,2.56,4.13,5.7,6.77,8.27,10.91.97-5.83,2.09-10.68-1.18-15.99Z"/><ellipse id="f6be96d1-713f-4c17-812c-ecd79c56fe95" class="cls-12" cx="107.46" cy="170.52" rx="39.98" ry="11.18"/><path class="cls-7" d="m135.8,120.02c-.53-3.21-1.08-6.49-2.58-9.38-.98-1.9-2.54-3.7-4.64-4.08-.41-.04-.82-.13-1.21-.28-.62-.3-8.88-5.02-10.2-5.84-1.13-.71-2.91-2.01-3.81-2.01-.9-.02-4.37.79-17.89-.27-2.27.91-4.48,2-6.59,3.24-.04-.03-14.03,7.48-14.56,7.46-1-.04-1.92.6-2.49,1.4-.57.8-.84,1.8-1.12,2.76,3.06,6.81,5.85,13.62,8.91,20.43.14.26.22.54.22.84-.06.3-.19.59-.38.84-1.5,2.41-1.45,5.44-1.29,8.27.16,2.83.37,5.82-.9,8.35-.34.7-.79,1.33-1.12,2.03-.77,1.58-1.04,6.62-.6,8.32l56.06,1.61c-1.21-3.31,4.17-43.67,4.17-43.67Z"/><path id="eb41f72e-aba6-4a16-bf55-c7027d2f1a4b-954" class="cls-2" d="m65.88,133.75c-.11.81-.12,1.63-.03,2.44l.8,11.54c.08,1.09.15,2.17.25,3.26.19,2.11.48,4.19.84,6.28.02.62.53,1.1,1.15,1.09,3.54.75,7.19.72,10.8.51,5.51-.31,19.6-.89,20.46-2.01s.36-2.93-.76-3.83-19.72-3.11-19.72-3.11c.18-1.44.73-2.8,1.25-4.16.93-2.42,1.81-4.93,1.82-7.53.02-2.6-.96-5.33-3.09-6.82-1.75-1.22-4-1.45-6.14-1.4-1.55.04-4.23-.33-5.65.28-1.12.49-1.77,2.36-1.98,3.45Z"/><path id="a363f2f7-2464-40a1-ad01-344825aa0b75-955" class="cls-12" d="m135.9,159.84c.93-.36,1.96-.23,2.96-.09,3.21.44,6.47.89,9.45,2.17,1.4.6,2.73,1.4,3.67,2.57.84,1.06,1.33,2.36,1.79,3.63l1.07,2.94c.46,1.11.77,2.26.94,3.45.34,3.52-2.07,6.84-5.1,8.67-3.03,1.83-6.59,2.48-10.07,3.16s-6.96,1.44-10.42,2.24c-1.61.42-3.25.74-4.9.96-3.7.42-7.57-.2-11.09,1.03-1.4.49-2.77,1.22-4.22,1.55-.96.2-1.94.35-2.92.44l-6.66.76c-1.35.18-2.72.29-4.08.31-2.91,0-5.77-.69-8.59-1.38-.3-.05-.59-.17-.84-.34-.45-.35-.55-.98-.61-1.54-.29-2.5-.53-5-.75-7.51-.07-.81-.12-1.69.33-2.38.56-.84,1.65-1.1,2.65-1.26,4.22-.69,8.5-.99,12.77-.89,1.62-1.62,4.3-1.63,6.43-2.52.78-.36,1.54-.77,2.27-1.23,3.81-2.22,8.06-3.56,12.45-3.93.86-.03,1.71-.15,2.55-.36,1.65-.51,3.15-1.9,4.84-1.56.21-.58.36-1.35.84-1.75.24-.2.54-.34.76-.56.47-.47.51-1.22.44-1.88s-.23-1.34-.06-1.98c.07-.24.18-.48.31-.69.84-1.45,2.1-2.19,3.79-2.05Z"/><path id="b53ad979-99f4-4c6e-a0f8-957060c42096-956" class="cls-7" d="m70.56,113.23c-.27.29-.48.62-.62.99-2.26,5.09-3.6,10.55-3.94,16.11,0,.27-.06.54-.18.78-.12.16-.26.31-.41.44-.55.65-.47,1.63.18,2.18.03.02.05.04.08.06.46-.87,1.57-1.15,2.55-1.23,4.7-.37,9.29,1.81,14.01,1.65-.33-1.15-.81-2.25-1.08-3.42-1.2-5.16,1.79-10.79-.04-15.76-.37-1-.98-1.97-1.94-2.41-.4-.16-.82-.27-1.24-.33-1.19-.22-3.56-1.14-4.71-.77-.43.14-.59.54-.95.78-.54.34-1.25.47-1.69.92Z"/><path id="a1197c30-bfd4-4098-bcf9-2468e7a33bf1-957" class="cls-2" d="m135.84,130.3c-1.42-.61-4.1-.24-5.65-.28-2.13-.05-4.39.18-6.14,1.4-2.13,1.49-3.11,4.22-3.09,6.82.02,2.6.89,5.1,1.82,7.53.52,1.37,1.07,2.72,1.25,4.16,0,0-18.6,2.2-19.72,3.11s-1.62,2.71-.76,3.83c.86,1.12,27.73,2.24,31.26,1.49.62.02,1.13-.47,1.15-1.09.36-2.09.65-4.17.84-6.28.1-1.08.18-2.17.25-3.26l.8-11.54c.09-.81.08-1.63-.03-2.44-.21-1.1-.86-2.96-1.98-3.45Z"/><path id="ebe46053-6aac-4aa7-8615-21a6fa79538d-958" class="cls-7" d="m120.49,117.26c-.27-.19-.4-.49-.73-.6-.89-.28-2.71.42-3.63.59-.33.04-.65.13-.96.25-.74.34-1.21,1.09-1.5,1.86-1.41,3.83.89,8.16-.03,12.14-.21.9-.58,1.75-.83,2.63,3.63.13,7.17-1.56,10.79-1.27.76.06,1.61.28,1.96.95.02-.02.04-.03.06-.05.5-.42.57-1.17.14-1.68-.12-.1-.22-.22-.32-.34-.1-.19-.14-.39-.14-.6-.27-4.29-1.3-8.49-3.04-12.41-.11-.28-.27-.55-.48-.76-.34-.35-.89-.44-1.3-.71Z"/><polygon class="cls-10" points="139.31 188.06 138.49 194.21 114.38 193.99 115.59 184.91 139.31 188.06"/><path class="cls-12" d="m131.3,175.02l-2.03,15.28-.19-.03c-3.28-.44-5.59-3.45-5.16-6.74h0s1.24-9.33,1.24-9.33l6.14.82Z"/><path id="a0b0f7ea-4ed9-4447-aa64-e2335b2c3196-959" class="cls-12" d="m82.58,162.95c0,.28-.44,0-.48-.3-.31-2.26-2.1-4.13-4.19-5.03s-4.47-.95-6.74-.74c-3.43.32-7.27,1.64-8.52,4.84-.3.75-3.07,7.41-2.8,8.91.73,4,3.46,7.42,6.78,9.79,3.31,2.37,7.18,3.78,11.05,5.06,10.21,3.37,20.69,5.87,31.32,7.48,1.72.26,3.46.5,5.11,1.05,1.48.49,2.86,1.24,4.3,1.82,3.36,1.35,6.97,1.83,10.54,2.3.61.08,1.31.13,1.76-.28.58-.54.39-1.48.22-2.25-.61-2.94-.1-6.01,1.43-8.6.6-1.01,1.38-2.04,1.26-3.2-.13-1.36-1.49-2.32-2.84-2.54s-2.72.1-4.07.28c-.46.11-.95.06-1.38-.14-.2-.14-.38-.3-.54-.48-1.91-1.85-4.8-2.25-7.14-1-.5.28-1.26-.34-1.78-.58l-5.88-2.66c-6.76-3.06-13.54-6.13-20.69-8.06-.57-.11-1.11-.34-1.59-.66-.36-.28-.61-.66-.94-.97-.71-.67-1.71-.94-2.56-1.42s-1.81-1.65-1.62-2.61Z"/><circle class="cls-2" cx="97.81" cy="154.72" r="4.19"/><circle class="cls-2" cx="107.09" cy="154.72" r="4.19"/><path class="cls-9" d="m132.96,164.16h-57.58c-1.4,0-2.53-1.14-2.54-2.54v-34.93c0-1.4,1.14-2.53,2.54-2.54h57.58c1.4,0,2.53,1.14,2.54,2.54v34.93c0,1.4-1.14,2.53-2.54,2.54Z"/><circle id="e793da3b-cee2-4a15-ae11-6dab45a6c728" class="cls-8" cx="104.03" cy="144.16" r="1.68"/><path class="cls-9" d="m257.75,103.44h-57.64c-.64,0-1.15-.52-1.15-1.15v-10.86h.46v10.86c0,.38.31.69.69.69h57.64c.38,0,.69-.31.69-.69v-10.94h.46v10.94c0,.64-.52,1.15-1.15,1.15Z"/><rect class="cls-9" x="143.19" y="91.2" width="135.45" height=".46"/><circle id="a67a4451-c7cc-402c-b29d-5a705f3c9418" class="cls-7" cx="143.2" cy="91.39" r="3.97"/><circle id="abdb3fbf-f68e-433e-a33f-153626b38c76" class="cls-7" cx="183.52" cy="91.39" r="3.97"/><circle id="ac293633-0933-4e21-a8aa-bc27ca4fbccc" class="cls-9" cx="210.89" cy="103.05" r="3.97"/><circle id="a0cd768d-b738-4d4b-9ab3-78ab535c7573" class="cls-6" cx="231.69" cy="103.05" r="3.97"/><circle id="b9eb3d2e-31e0-4fe2-be5c-79abb86bc227" class="cls-7" cx="221.61" cy="91.39" r="3.97"/><circle id="aa04baac-fce0-420a-b86a-4a97f3079928" class="cls-7" cx="278.1" cy="91.39" r="3.97"/><circle id="e92cf92c-058e-415c-ba96-766a57ee18d9" class="cls-7" cx="258.67" cy="91.39" r="3.97"/><rect id="ac5bf8cc-574d-4509-9338-881c836fd832" class="cls-9" x="207.12" y="54.9" width="7.36" height="5.07"/><rect id="ad5a043d-52f1-4931-b771-e4991ef7f7f7" class="cls-7" x="139.55" y="54.9" width="7.36" height="5.07"/><rect id="e5d95e83-bdd9-4322-95a9-5a9c4b449a8f" class="cls-6" x="164.48" y="54.9" width="7.36" height="5.07"/><path class="cls-9" d="m155.51,91.66c-.13,0-.23-.1-.23-.23v-11.39c0-.64.52-1.15,1.15-1.15h11.23c.13,0,.23.1.23.23s-.1.23-.23.23h-11.23c-.38,0-.69.31-.69.69v11.39c0,.13-.1.23-.23.23Z"/><circle id="b0a7c1c1-8f27-441f-a84a-e44462cc473e" class="cls-4" cx="168.18" cy="79.03" r="3.97"/><path class="cls-9" d="m244.31,91.43h-.46v-11.39c0-.64.52-1.15,1.15-1.15h11.23v.46h-11.23c-.38,0-.69.31-.69.69v11.39Z"/><circle id="b3140cf1-cdb8-48ff-81af-ce41ed4f5739" class="cls-4" cx="256.76" cy="79.03" r="3.97"/></svg>