<?xml version="1.0" encoding="UTF-8"?><svg id="Layer_1" xmlns="http://www.w3.org/2000/svg" viewBox="0 0 333 248"><defs><style>.cls-1{fill:#e4e4e4;}.cls-1,.cls-2,.cls-3,.cls-4,.cls-5,.cls-6,.cls-7,.cls-8,.cls-9,.cls-10,.cls-11{stroke-width:0px;}.cls-2{fill:#e6e6e6;}.cls-3{fill:#c2bfff;}.cls-4{fill:#9e616a;}.cls-5{fill:#6c63ff;}.cls-6{fill:#fff;}.cls-7{fill:#3f3d56;}.cls-8{fill:#ffb6b6;}.cls-9{fill:#ffb8b8;}.cls-10{fill:#f2f2f2;}.cls-11{fill:#2f2e41;}</style></defs><rect class="cls-3" width="333" height="248"/><path class="cls-10" d="m72.65,161.19c-1.03,0-2.06.04-3.07.13h-.15c-6.68.6-11.57,4.03-11.37,7.99l.04.72c.03.45.05.94.08,1.48.01.27.38.47.83.47h164.43c11.59-.07,23.14-.16,34.33-.26,2.1,0,4.19-.1,6.28-.33,3.11-.37,5.27-1.1,6.6-2.23h0c1.65-1.4,1.71-3.17,1.61-5.17-.2-4.03-.41-8.27-.61-12.5-.18-3.72-.36-7.44-.53-10.99-.11-2.11-.35-3.97-2.23-5.4-2.04-1.54-5.75-2.32-11.04-2.32-.06,0-.13,0-.19,0-16.58.06-33,5.76-40.87,14.18-.91.97-1.75,2.01-2.57,3.01-1.21,1.48-2.45,3.02-3.94,4.39-.81.75-1.68,1.43-2.6,2.03-.06.04-.14.09-.21.14-.18.12-.36.23-.54.33-1.06.61-2.17,1.12-3.32,1.51l-.12.04c-.09.03-.18.06-.28.09-.67.21-1.36.4-2.05.55-3,.66-6.41.82-10.14.47-3.42-.33-6.8-1.02-10.08-2.05-3.45-1.09-6.68-2.45-9.81-3.77-1.37-.58-2.79-1.18-4.21-1.74-.27-.11-.53-.21-.79-.31-1.73-.67-3.3-1.23-4.8-1.7-3.71-1.17-7.55-1.88-11.43-2.12-4.12-.23-7.76.2-10.8,1.26-.84.29-1.65.64-2.44,1.05-3.6,1.87-5.82,4.63-7.97,7.3-2.67,3.32-5.43,6.75-10.88,8.53-6.29,2.06-15.47,1.2-21.97-.28-2.04-.47-4.08-1-6.06-1.52-.8-.21-1.59-.42-2.39-.63-1.57-.4-2.85-.72-4.04-.98l-.38-.08c-.21-.05-.42-.09-.63-.13-1.41-.3-2.72-.53-4.02-.71l-.31-.04c-.61-.08-1.19-.15-1.75-.2l-.22-.02c-1.1-.1-2.24-.16-3.39-.16Z"/><path class="cls-2" d="m242.69,165.61c4.63-4.17,11.51-6.27,17.28-3.93-5.92,3.29-10.49,8.56-12.9,14.9-.92,2.45-1.69,5.26-3.95,6.57-1.41.81-3.16.85-4.73.46-1.58-.39-3.02-1.18-4.45-1.96h-.41c1.82-5.97,4.52-11.87,9.15-16.04Z"/><path class="cls-6" d="m259.94,161.8c-5.11.66-9.89,2.92-13.65,6.44-.82.75-1.52,1.62-2.07,2.58-.51.96-.75,2.03-.7,3.11.02,1.01.17,2.04-.05,3.03-.24,1.03-.92,1.9-1.85,2.41-1.13.65-2.43.85-3.7,1.01-1.41.17-2.89.33-4.11,1.12-.15.1-.29-.14-.14-.24,2.13-1.38,4.83-.88,7.12-1.8,1.07-.43,2.01-1.18,2.35-2.33.29-1,.15-2.06.11-3.08-.06-1.05.13-2.11.57-3.07.5-.99,1.17-1.88,1.97-2.65,1.78-1.75,3.82-3.21,6.05-4.33,2.54-1.29,5.28-2.13,8.1-2.5.17-.02.18.25,0,.27h0Z"/><path class="cls-6" d="m247.43,167.04c-1.05-1.47-.87-3.48.41-4.75.13-.12.32.07.2.19-1.19,1.18-1.35,3.06-.37,4.42.1.14-.13.28-.24.14h0Z"/><path class="cls-6" d="m243.44,173.43c1.76.31,3.57-.05,5.07-1.01.15-.1.29.14.14.24-1.56,1-3.45,1.37-5.28,1.05-.17-.03-.11-.3.07-.27Z"/><path class="cls-6" d="m254.39,163.1c.28.64.87,1.1,1.56,1.22.17.03.11.3-.07.27-.76-.13-1.41-.64-1.73-1.34-.04-.07-.02-.15.05-.19.07-.04.15-.02.19.05h0Z"/><path class="cls-2" d="m266.33,181.78c-.11-.02-.22-.03-.33-.04-1.47-.2-2.96-.27-4.44-.23-.11,0-.23,0-.35.01-3.58.15-7.09.96-10.38,2.39-1.31.57-2.56,1.24-3.77,2-1.66,1.05-3.38,2.33-5.24,2.75-.19.05-.39.08-.59.1l-7.68-6.65s-.02-.05-.03-.07l-.32-.25c.06-.04.12-.09.18-.13.03-.03.07-.05.1-.07.02-.02.05-.03.07-.05,0,0,.02-.01.02-.01.02-.02.04-.03.06-.04.35-.25.7-.49,1.05-.73t0,0c2.67-1.88,5.56-3.43,8.6-4.62.09-.03.18-.07.28-.1,1.37-.51,2.78-.91,4.21-1.18.79-.15,1.58-.26,2.37-.33,2.06-.18,4.13-.03,6.14.44,4.01.93,7.68,3.13,9.86,6.57.06.09.11.17.16.26Z"/><path class="cls-6" d="m266.22,181.87c-4.48-2.55-9.65-3.62-14.78-3.07-1.11.1-2.19.37-3.21.81-.98.46-1.82,1.17-2.43,2.06-.59.82-1.09,1.73-1.87,2.39-.81.67-1.88.97-2.92.81-1.29-.16-2.45-.78-3.56-1.42-1.23-.71-2.5-1.47-3.96-1.58-.18-.01-.15-.29.03-.27,2.53.18,4.38,2.2,6.77,2.85,1.11.3,2.32.27,3.28-.44.83-.62,1.36-1.56,1.94-2.39.58-.88,1.37-1.6,2.3-2.1.99-.49,2.07-.8,3.17-.93,2.47-.33,4.98-.27,7.44.18,2.8.5,5.5,1.47,7.97,2.88.15.09-.01.31-.16.22h0Z"/><path class="cls-6" d="m253.09,178.52c.05-1.8,1.4-3.3,3.18-3.55.18-.02.22.25.04.27-1.66.22-2.92,1.63-2.95,3.31,0,.18-.28.15-.27-.03h0Z"/><path class="cls-6" d="m246.05,181.21c1.22,1.31,2.88,2.11,4.66,2.24.18.01.15.29-.03.27-1.85-.14-3.58-.98-4.84-2.34-.12-.13.09-.3.21-.17Z"/><path class="cls-6" d="m261.02,179.57c-.16.68.03,1.4.51,1.91.12.13-.09.3-.21.17-.53-.57-.74-1.36-.57-2.11.01-.07.08-.13.15-.12.08,0,.13.08.12.15h0Z"/><path class="cls-2" d="m121.57,169.75c3.79-5.75,10.57-9.9,17.39-9.01-5.42,5.16-8.84,12.08-9.65,19.52-.3,2.87-.34,6.1-2.39,8.12-1.28,1.26-3.14,1.79-4.93,1.81-1.8.02-3.56-.42-5.3-.86l-.44.1c.29-6.88,1.54-13.94,5.33-19.69Z"/><path class="cls-6" d="m138.96,160.89c-5.28,2.13-9.76,5.87-12.8,10.69-.67,1.03-1.18,2.15-1.5,3.34-.28,1.16-.24,2.38.12,3.52.31,1.07.75,2.13.79,3.26.03,1.17-.45,2.29-1.3,3.09-1.03,1.01-2.36,1.59-3.68,2.11-1.46.58-3,1.16-4.08,2.35-.13.14-.35-.07-.22-.21,1.89-2.07,4.92-2.28,7.11-3.9,1.02-.76,1.83-1.83,1.87-3.14.04-1.15-.42-2.24-.74-3.33-.36-1.11-.44-2.29-.24-3.44.26-1.2.72-2.34,1.37-3.38,1.41-2.37,3.19-4.5,5.26-6.31,2.36-2.08,5.05-3.75,7.97-4.93.18-.07.26.22.08.29h0Z"/><path class="cls-6" d="m127.04,169.97c-1.53-1.28-1.9-3.48-.89-5.19.1-.17.37-.02.26.15-.95,1.59-.59,3.64.83,4.83.15.12-.06.34-.21.22h0Z"/><path class="cls-6" d="m124.54,177.91c1.97-.16,3.8-1.05,5.14-2.5.13-.14.35.07.22.21-1.4,1.5-3.31,2.43-5.35,2.59-.2.01-.2-.29,0-.3h0Z"/><path class="cls-6" d="m133.39,163.82c.48.61,1.23.93,2,.87.19-.02.2.29,0,.3-.85.07-1.68-.29-2.22-.95-.06-.06-.06-.15,0-.21.06-.06.15-.06.21,0h0Z"/><path class="cls-2" d="m151.35,180.48c-.12.01-.24.03-.37.05-1.63.2-3.24.53-4.82.99-.12.03-.25.07-.37.11-3.78,1.15-7.32,3-10.43,5.44-1.24.97-2.4,2.04-3.47,3.19-1.48,1.59-2.97,3.43-4.84,4.4-.19.1-.39.2-.6.28l-10.06-4.97s-.04-.04-.05-.07l-.41-.18c.05-.06.11-.13.16-.19.03-.04.06-.07.09-.11.02-.02.04-.05.06-.07,0,0,.01-.02.02-.02.02-.02.04-.04.05-.06.3-.36.61-.72.92-1.08t0,0c2.37-2.72,4.99-5.27,7.91-7.34.09-.06.18-.13.27-.19,1.32-.93,2.72-1.74,4.17-2.44.8-.38,1.61-.72,2.45-1.02,2.15-.76,4.41-1.18,6.69-1.24,4.55-.12,9.09,1.21,12.37,4.28.08.08.17.16.25.24Z"/><path class="cls-6" d="m151.26,180.6c-5.5-1.48-11.33-1.19-16.66.83-1.15.41-2.24,1.01-3.21,1.76-.92.76-1.62,1.76-2.03,2.88-.4,1.04-.69,2.15-1.33,3.08-.68.95-1.74,1.56-2.9,1.68-1.43.19-2.84-.15-4.21-.53-1.52-.42-3.09-.88-4.67-.59-.19.04-.24-.26-.04-.3,2.76-.51,5.3,1.14,8.03,1.16,1.27.01,2.56-.36,3.38-1.38.72-.9,1.02-2.04,1.41-3.1.38-1.1,1.02-2.1,1.88-2.89.93-.8,1.99-1.43,3.13-1.88,2.55-1.04,5.25-1.67,8-1.87,3.14-.25,6.29.05,9.33.86.19.05.07.33-.11.28h0Z"/><path class="cls-6" d="m136.28,180.67c-.45-1.94.57-3.92,2.42-4.68.18-.07.3.2.12.28-1.72.7-2.67,2.55-2.24,4.36.04.19-.26.23-.3.04h0Z"/><path class="cls-6" d="m129.51,185.51c1.66,1.06,3.66,1.45,5.61,1.1.19-.03.24.27.04.3-2.02.36-4.1-.05-5.83-1.16-.16-.11.02-.35.18-.24Z"/><path class="cls-6" d="m145.05,179.58c.02.77.42,1.49,1.08,1.9.17.1-.02.35-.18.24-.72-.46-1.17-1.24-1.2-2.1,0-.08.05-.16.13-.17.08-.01.16.05.17.13Z"/><path class="cls-8" d="m148.53,126.67c.95-.94.95-2.48,0-3.43-.1-.1-.21-.19-.33-.28l3.96-19.16-4.27,1.35-3.19,18.54c-.7,1.15-.33,2.65.82,3.35.96.58,2.2.43,3-.37h0Z"/><path class="cls-5" d="m157.68,75.45l-2.65-2s-2.33-.17-2.75,4.04c-.41,4.21-3,20.37-3,20.37l-4.05,18.75,5.61,1.23,4.34-20.24,4.34-13.96-1.84-8.2Z"/><path class="cls-7" d="m155.67,110.15l-12.69-9.87c-.41-.32-.49-.91-.17-1.33l8.64-11.11c.32-.41.91-.49,1.33-.17l12.69,9.87c.41.32.49.91.17,1.33l-8.64,11.11c-.32.41-.91.49-1.33.17Z"/><path class="cls-6" d="m155.6,109.13l-11.62-9.03c-.37-.28-.43-.81-.15-1.18l7.83-10.07c.28-.37.81-.43,1.18-.15l11.62,9.03c.37.28.43.81.15,1.18l-7.83,10.07c-.28.37-.81.43-1.18.15Z"/><path class="cls-1" d="m145.5,99.84c-.09-.07-.11-.2-.04-.29l3.95-5.08c.07-.09.2-.11.29-.04.09.07.11.2.04.29h0l-3.95,5.08c-.07.09-.2.11-.29.04Z"/><path class="cls-1" d="m146.16,100.35c-.09-.07-.11-.2-.04-.29l3.95-5.08c.07-.09.2-.11.29-.04.09.07.11.2.04.29l-3.95,5.08c-.07.09-.2.11-.29.04Z"/><path class="cls-1" d="m149.05,97.98c-.09-.07-.11-.2-.04-.29l1.71-2.2c.07-.09.2-.11.29-.04.09.07.11.2.04.29h0l-1.71,2.2c-.07.09-.2.11-.29.04Z"/><path class="cls-1" d="m149.93,102.3c-.09-.07-.11-.2-.04-.29l6.24-8.02c.07-.09.2-.11.29-.04.09.07.11.2.04.29h0l-6.24,8.02c-.07.09-.2.11-.29.04Z"/><path class="cls-1" d="m150.59,102.81c-.09-.07-.11-.2-.04-.29l6.24-8.02c.07-.09.2-.11.29-.04.09.07.11.2.04.29l-6.24,8.02c-.07.09-.2.11-.29.04Z"/><path class="cls-1" d="m152.07,103.96c-.09-.07-.11-.2-.04-.29l6.24-8.02c.07-.09.2-.11.29-.04.09.07.11.2.04.29l-6.24,8.02c-.07.09-.2.11-.29.04Z"/><path class="cls-1" d="m152.73,104.47c-.09-.07-.11-.2-.04-.29l6.24-8.02c.07-.09.2-.11.29-.04.09.07.11.2.04.29l-6.24,8.02c-.07.09-.2.11-.29.04Z"/><path class="cls-1" d="m154.21,105.63c-.09-.07-.11-.2-.04-.29l6.24-8.02c.07-.09.2-.11.29-.04.09.07.11.2.04.29h0l-6.24,8.02c-.07.09-.2.11-.29.04Z"/><path class="cls-1" d="m154.87,106.14c-.09-.07-.11-.2-.04-.29l6.24-8.02c.07-.09.2-.11.29-.04.09.07.11.2.04.29l-6.24,8.02c-.07.09-.2.11-.29.04Z"/><circle class="cls-6" cx="144.45" cy="115.36" r=".09"/><path class="cls-11" d="m157,56.08c-.3,1.63-.8,3.21-1.48,4.72-3.9,8.24,7.2,5.55,11.16,5.55,4.33,0,8.48,2.28,7.85-7.85-.27-4.33-3.51-7.85-7.85-7.85-3.7,0-8.91,1.65-9.68,5.42Z"/><polygon class="cls-8" points="170.72 176.93 167.03 176.93 165.27 162.69 170.72 162.69 170.72 176.93"/><path class="cls-11" d="m172.67,183.33h-2.65l-.47-2.5-1.21,2.5h-7.02c-.87,0-1.58-.71-1.58-1.58,0-.52.25-1,.68-1.3l5.61-3.87v-2.53l5.9.35.74,8.93Z"/><polygon class="cls-8" points="192.66 172.27 189.7 174.48 179.79 164.1 184.16 160.84 192.66 172.27"/><path class="cls-11" d="m198.04,176.25l-2.13,1.58-1.87-1.72.52,2.73-5.64,4.19c-.7.52-1.69.37-2.21-.32-.31-.42-.39-.96-.23-1.45l2.19-6.46-1.51-2.03,4.94-3.24,5.92,6.72Z"/><polygon class="cls-8" points="158.63 111.38 176.16 108.65 172.67 98.16 158.63 98.16 158.63 111.38"/><path class="cls-11" d="m175.02,103.44s7.01,6.05,3.77,23.31l-3.95,16.91,10.75,18.67-5.47,2.98-13.25-18.42-6.06-14.22-3.21-24.93,17.41-4.3Z"/><polygon class="cls-11" points="164.16 136.73 163.74 143.25 164.97 162.58 171.1 164.69 172.26 144.89 164.16 136.73"/><path class="cls-5" d="m162.28,68.53l6.78.26,2.7,4.48,6.16,1.2-3.68,18.61.68,10.59-6.14-.04c-4.42-.03-8.7,1.58-12.01,4.51h0l.18-13.75-2.64-10.26.59-10.76,4.96-.62,2.41-4.23Z"/><circle class="cls-8" cx="166.03" cy="59.98" r="6.38"/><path class="cls-11" d="m161.7,53.48c3.44-2.1,7.94-1.01,10.04,2.43.72,1.19,1.09,2.55,1.07,3.94-3.25.82-6.66,1.44-10.13.2l-.82-2-.48,2c-1.06.43-2.11.8-3.17,0-.09-2.66,1.24-5.16,3.5-6.57Z"/><path class="cls-5" d="m176.74,116.54l.86,7.8c.12.4.49.67.91.67h3.96c.42,0,.79-.27.91-.67l.71-5.98c.72.35,1.58.06,1.94-.66s.06-1.58-.66-1.94c-.28-.14-.59-.18-.9-.12-.18-.21-.44-.33-.72-.33h-6.1c-.53,0-.95.43-.95.95,0,.09.01.19.04.28Zm7.48,1.42l.44-1.42c.05-.16.06-.34.01-.5.02,0,.04,0,.06,0,.57,0,1.03.46,1.03,1.03,0,.57-.46,1.03-1.03,1.03h0c-.18,0-.35-.05-.51-.14Z"/><path class="cls-8" d="m182.71,125.02c-.94-.95-.94-2.49,0-3.43.1-.1.21-.19.33-.27l-3.86-19.18,4.26,1.37,3.09,18.55c.69,1.16.32,2.65-.84,3.35-.97.58-2.2.42-2.99-.38Z"/><path class="cls-5" d="m175.27,76.48l2.65-2s2.33-.17,2.75,4.04c.41,4.21,3,20.37,3,20.37l4.05,18.75-5.61,1.23-4.34-20.24-4.34-13.96,1.84-8.2Z"/><circle class="cls-5" cx="152.43" cy="92.44" r="1.5"/><polygon class="cls-8" points="104.67 194.31 107.79 194.31 109.27 182.27 104.67 182.27 104.67 194.31"/><path class="cls-11" d="m103.87,193.29h.88s3.43-1.4,3.43-1.4l1.84,1.39h0c2.16,0,3.92,1.75,3.92,3.92v.13h-10.07s0-4.04,0-4.04Z"/><polygon class="cls-8" points="116.76 192.34 119.81 193.03 123.91 181.61 119.41 180.6 116.76 192.34"/><path class="cls-11" d="m116.21,191.17l.86.19,3.65-.61,1.49,1.77h0c2.11.48,3.44,2.57,2.96,4.68l-.03.12-9.82-2.22.89-3.95Z"/><path class="cls-11" d="m98.95,132.38l2.82,31.63s-1.06,18.99,2.36,25.67h4.95l2.45-27.4.31-18.39,10.61,15.52-6.76,29.83,6.09.54,10.97-32.37-12.05-30.39-21.75,5.37Z"/><circle class="cls-9" cx="101.91" cy="74.73" r="7.28"/><path class="cls-7" d="m114.71,88.95l-5.97-2.56-2.91-3.08-7.26,1.17-1.93,3.3-6.24,5.8,7.31,33.05-.22,7.22s4.68,2.11,24.97-2.74c.24-.06-.27-.31-.27-.31l-7.48-41.84Z"/><path class="cls-11" d="m94.34,78.86c-.05-.07-.1-.14-.15-.21-.02.04-.04.09-.06.13l.21.08Z"/><path class="cls-11" d="m109.15,69.4c-.49-1.06-1.35-1.9-2.43-2.35-1.07-.43-2.26-.43-3.32,0-.96-.61-2.03-1.09-3.16-1.15s-2.32.36-3.01,1.28c-.15.24-.33.47-.53.68-.56.52-1.41.44-2.15.34.33.29.67.57,1,.86-.4.11-.81.21-1.21.32.47.28.94.57,1.41.85-1.36.82-1.98,2.61-1.82,4.23.15,1.54.9,2.94,1.78,4.19.35-.75.28-1.64.27-2.48,0-.89.15-1.9.86-2.39.48-.33,1.1-.35,1.68-.35,2.92.02,5.84.2,8.74.55.39.02.78.13,1.12.32.64.44.77,1.34.83,2.13.34-1.31.5-2.65.49-4.01.03-1.04-.16-2.07-.56-3.02Z"/><circle class="cls-6" cx="111.42" cy="143.09" r="11.46"/><path class="cls-7" d="m111.42,131.37c-.59,0-1.18.04-1.76.13-.3.04-.59.1-.88.17-6.3,1.45-10.23,7.74-8.78,14.04.56,2.45,1.9,4.65,3.82,6.28.2.17.39.33.6.48,5.18,3.87,12.52,2.8,16.39-2.39,3.87-5.18,2.8-12.52-2.39-16.39-2.02-1.51-4.48-2.32-7-2.32h0Zm0,22.92c-2.38,0-4.7-.76-6.62-2.17-.21-.15-.41-.31-.61-.48-4.73-3.99-5.33-11.05-1.34-15.78,1.63-1.93,3.86-3.25,6.33-3.75.29-.06.57-.1.86-.14.45-.06.91-.08,1.37-.08,6.19,0,11.2,5.02,11.2,11.2s-5.02,11.2-11.2,11.2h0Z"/><rect class="cls-5" x="105.05" y="139.27" width="12.73" height="1.53" rx=".75" ry=".75"/><rect class="cls-5" x="105.05" y="142.32" width="12.73" height="1.53" rx=".75" ry=".75"/><rect class="cls-5" x="105.05" y="145.38" width="12.73" height="1.53" rx=".75" ry=".75"/><polygon class="cls-4" points="239.61 193.92 236.34 193.92 234.78 181.3 239.61 181.3 239.61 193.92"/><polygon class="cls-4" points="224.12 193.92 220.85 193.92 219.29 181.3 224.12 181.3 224.12 193.92"/><path class="cls-11" d="m224.24,197.34h-10.07v-.13c0-2.16,1.75-3.92,3.92-3.92h0l1.84-1.39,3.43,1.4h.88s0,4.05,0,4.05Z"/><path class="cls-11" d="m240.14,197.34h-10.07v-.13c0-2.16,1.75-3.92,3.92-3.92h0l1.84-1.39,3.43,1.4h.88s0,4.05,0,4.05Z"/><path class="cls-11" d="m220.91,119.2l-4.97,30.29,1.35,4.51-1.78,3.2,2.61,28.08-1.06,2.33,2.96,1.82h6.02l.32-25.42,1.49-3.73v-2.06l3.03-15.5.56,21.71.88,3.74-.74,2.66.97,1.86,2.57,17.29h6.75l-.52-4.02h0c1.21-.61,1.85-1.97,1.56-3.29l-.39-1.76.88-5.21,1.6-29.08-.45-23.47-7.9-6.04-15.74,2.09Z"/><circle id="ab6171fa-7d69-4734-b81c-8dff60f9761b" class="cls-4" cx="232.32" cy="74.03" r="6.27"/><path class="cls-4" d="m218.61,131.22c1.03-1.07,1-2.77-.06-3.8-.11-.11-.24-.21-.37-.3l2.44-9.22-4.7,1.58-1.6,8.52c-.75,1.29-.31,2.94.98,3.69,1.08.63,2.45.43,3.31-.47h0Z"/><path id="bc44dde2-a388-4b93-9ca4-c442728432a9-3357" class="cls-2" d="m221.18,86.93l-1.01-.21-.86.48s-2.4,3.2-2.4,6.14-2.94,31.24-2.94,31.24l5.34,2.4,4.27-22.16-2.4-17.89Z"/><path id="bf427902-b9bf-4946-b5d7-5c1c7e04535e-3358" class="cls-11" d="m237.81,69.43s1.64-3.14-1.97-3.42c0,0-3.08-2.79-6.21-.51,0,0-1.71,0-2.65,1.94,0,0-1.35-.51-1.64.86,0,0-.98,2.85,0,5.42.98,2.57,1.31,2.85,1.31,2.85,0,0-1.62-5.38,2.32-5.66,3.94-.29,8.34-2.75,8.67.39.33,3.14.82,3.91.82,3.91,0,0,3.12-4.48-.66-5.76Z"/><path class="cls-6" d="m260.72,157.2c-.47,0-.93-.17-1.28-.49l-18.98-16.9c-.8-.71-.87-1.93-.16-2.73l12.16-13.66c.71-.8,1.93-.87,2.73-.16l18.98,16.9c.8.71.87,1.93.16,2.73l-12.16,13.66c-.34.38-.82.62-1.33.64-.04,0-.08,0-.11,0Z"/><path class="cls-7" d="m260.72,157.33c-.5,0-.99-.18-1.37-.52l-18.98-16.9c-.85-.76-.92-2.06-.17-2.91l12.16-13.66c.76-.85,2.06-.92,2.91-.17l18.98,16.9c.85.76.92,2.06.17,2.91l-12.16,13.66c-.36.41-.87.66-1.42.69-.04,0-.08,0-.12,0Zm-6.82-34.18c-.45,0-.87.19-1.17.52l-12.16,13.66c-.57.64-.51,1.63.13,2.2l18.98,16.9c.64.57,1.63.52,2.2-.13,0,0,0,0,0,0l12.16-13.66c.57-.64.52-1.63-.13-2.2l-18.98-16.9c-.29-.25-.65-.39-1.04-.39h0Z"/><path class="cls-5" d="m267.61,144.26c-.2,0-.4-.07-.56-.21l-14.9-13.26c-.35-.31-.38-.83-.07-1.18.31-.35.83-.38,1.18-.07,0,0,0,0,0,0l14.9,13.26c.35.31.38.84.07,1.18-.16.18-.39.28-.63.28Z"/><path class="cls-5" d="m264.76,147.46c-.2,0-.4-.07-.56-.21l-14.9-13.26c-.35-.31-.38-.84-.07-1.18s.84-.38,1.18-.07h0l14.9,13.26c.35.31.38.84.07,1.18-.16.18-.39.28-.63.28h0Z"/><path class="cls-5" d="m261.92,150.65c-.21,0-.4-.08-.56-.21l-14.9-13.26c-.35-.31-.38-.84-.07-1.18s.84-.38,1.18-.07l14.9,13.26c.35.31.38.84.07,1.18-.16.18-.39.28-.63.28h0Z"/><path class="cls-4" d="m244.88,131.77c-.72-1.29-.26-2.93,1.04-3.65.14-.08.28-.14.43-.19l.02-9.54,4.13,2.74-.65,8.64c.39,1.44-.46,2.92-1.89,3.31-1.2.33-2.48-.21-3.08-1.3Z"/><path id="f348f81f-b961-4ae4-bc6b-758f6acfb12a-3359" class="cls-2" d="m245.26,89.55l1.85-1.78,1.36.98s1.33,1.6,2.4,6.41c1.07,4.81,0,31.24,0,31.24l-5.87-.8.8-13.88-2.4-11.75,1.87-10.41Z"/><path class="cls-7" d="m247.99,88.2l-6.22-2.97-4.22-3.92-7.7-.06-2.49,3.23-6.56,2.23,1.09,22.62-.75,1.74s.52.47.76.73-.33,2.46-.33,2.46l-.32,2.39.88.63-1.15,1.36-.29,2.14s20.06-4.99,23.85,3.27c.2.44-.29-3.83-.29-3.83l-.49-3.12.49-2.8.75-.75-1.25-1.25.8-5.93,3.44-18.18Z"/><path class="cls-9" d="m106.87,138.36c.58-1.48-.14-3.16-1.63-3.74-.16-.06-.32-.11-.49-.14l-1.38-10.15-4.01,3.5,1.93,9.1c-.21,1.59.9,3.04,2.49,3.26,1.33.18,2.6-.58,3.09-1.83Z"/><path id="e1bf2fad-858c-4bea-9733-320cc40b59f5-3360" class="cls-7" d="m91.17,93.39l-1.09.21-.66.83s-1.06,4.17.15,7.08c1.21,2.91,9.96,32.18,9.96,32.18l6.28.18-4.9-23.73-9.75-16.75Z"/><path class="cls-9" d="m115.94,136.87c-1.09-1.16-1.04-2.98.11-4.08.12-.12.26-.22.4-.32l-2.5-9.93,5.03,1.76,1.61,9.16c.79,1.39.3,3.16-1.1,3.95-1.17.66-2.63.43-3.55-.55Z"/><path id="ff35f29e-9865-4218-824f-c5cf71e1b056-3361" class="cls-7" d="m113.75,89.29l1.09-.21.92.52s2.54,3.47,2.5,6.62c-.04,3.15,2.76,33.58,2.76,33.58l-5.76,2.51-4.31-23.85,2.81-19.18Z"/></svg>