<?xml version="1.0" encoding="UTF-8"?>
<svg id="Layer_1" data-name="Layer 1" xmlns="http://www.w3.org/2000/svg" viewBox="0 0 333 248">
  <defs>
    <style>
      .cls-1 {
        fill: #495182;
      }

      .cls-1, .cls-2, .cls-3, .cls-4, .cls-5, .cls-6, .cls-7, .cls-8 {
        stroke-width: 0px;
      }

      .cls-2 {
        fill: #2f2e43;
      }

      .cls-3 {
        fill: #3f3d58;
      }

      .cls-4 {
        fill: #db3545;
      }

      .cls-5 {
        fill: #bac1e2;
      }

      .cls-6 {
        fill: #edb7ae;
      }

      .cls-7 {
        fill: #e2e3e4;
      }

      .cls-8 {
        fill: #e7e9f9;
      }
    </style>
  </defs>
  <rect class="cls-8" width="333" height="248"/>
  <g>
    <path class="cls-3" d="M57,197.43c0,.2.16.36.36.36h222.79c.2,0,.36-.16.36-.36s-.16-.36-.36-.36H57.37c-.2,0-.36.16-.36.36Z"/>
    <path class="cls-2" d="M178.91,86.73h-93.62c-3.57,0-6.48-2.91-6.48-6.48s2.91-6.48,6.48-6.48h93.62c3.57,0,6.48,2.91,6.48,6.48s-2.91,6.48-6.48,6.48ZM85.29,74.58c-3.13,0-5.68,2.55-5.68,5.68s2.55,5.68,5.68,5.68h93.62c3.13,0,5.68-2.55,5.68-5.68s-2.55-5.68-5.68-5.68h-93.62Z"/>
    <path class="cls-1" d="M178.91,162.52h-93.62c-3.46,0-6.28-2.81-6.28-6.28s2.81-6.28,6.28-6.28h93.62c3.46,0,6.28,2.81,6.28,6.28s-2.81,6.28-6.28,6.28Z"/>
    <path class="cls-5" d="M148.23,61.2h-64.48c-3.46,0-6.28-2.81-6.28-6.28s2.81-6.28,6.28-6.28h64.48c3.46,0,6.28,2.81,6.28,6.28s-2.81,6.28-6.28,6.28Z"/>
    <path class="cls-2" d="M178.91,112.06h-93.62c-3.57,0-6.48-2.91-6.48-6.48s2.91-6.48,6.48-6.48h93.62c3.57,0,6.48,2.91,6.48,6.48s-2.91,6.48-6.48,6.48ZM85.29,99.91c-3.13,0-5.68,2.55-5.68,5.68s2.55,5.68,5.68,5.68h93.62c3.13,0,5.68-2.55,5.68-5.68s-2.55-5.68-5.68-5.68h-93.62Z"/>
    <path class="cls-2" d="M178.91,137.39h-93.62c-3.57,0-6.48-2.91-6.48-6.48s2.91-6.48,6.48-6.48h93.62c3.57,0,6.48,2.91,6.48,6.48s-2.91,6.48-6.48,6.48ZM85.29,125.24c-3.13,0-5.68,2.55-5.68,5.68s2.55,5.68,5.68,5.68h93.62c3.13,0,5.68-2.55,5.68-5.68s-2.55-5.68-5.68-5.68h-93.62Z"/>
    <path class="cls-4" d="M82.07,69.13h24.53c.58,0,1.06.47,1.06,1.06h0c0,.58-.48,1.06-1.06,1.06h-24.53c-.58,0-1.06-.47-1.06-1.06h0c0-.58.48-1.06,1.06-1.06Z"/>
    <path class="cls-4" d="M82.07,95.06h24.53c.58,0,1.06.47,1.06,1.06h0c0,.58-.48,1.06-1.06,1.06h-24.53c-.58,0-1.06-.47-1.06-1.06h0c0-.58.48-1.06,1.06-1.06Z"/>
    <path class="cls-4" d="M82.07,120.99h24.53c.58,0,1.06.47,1.06,1.06h0c0,.58-.48,1.06-1.06,1.06h-24.53c-.58,0-1.06-.47-1.06-1.06h0c0-.58.48-1.06,1.06-1.06Z"/>
    <g>
      <polygon class="cls-6" points="225.02 73.4 218.19 75.65 218.19 65.82 224.39 65.82 225.02 73.4"/>
      <circle class="cls-6" cx="219.04" cy="61.73" r="6.81"/>
      <path class="cls-2" d="M220.91,61.06c-1.14-.03-1.89-1.19-2.33-2.24-.44-1.05-.9-2.26-1.96-2.69-.86-.35-2.39,2.04-3.07,1.41-.71-.67-.02-4.08.74-4.7.75-.61,1.79-.73,2.76-.78,2.37-.11,4.76.08,7.08.57,1.44.3,2.92.75,3.96,1.79,1.31,1.32,1.65,3.31,1.74,5.17.1,1.9-.01,3.9-.94,5.56s-2.86,2.89-4.72,2.47c-.19-1.01,0-2.04.08-3.07.07-1.02,0-2.13-.63-2.94-.62-.82-1.96-1.14-2.69-.42"/>
      <path class="cls-2" d="M229.28,63.42c.68-.5,1.5-.92,2.33-.81.9.11,1.67.86,1.9,1.74s-.03,1.85-.59,2.58c-.56.72-1.39,1.2-2.27,1.44-.51.14-1.07.2-1.55-.01-.71-.31-1.1-1.22-.82-1.95"/>
      <g>
        <path id="uuid-00bc58e7-734f-4d7c-a085-03c0cd267642-1104" class="cls-6" d="M203.24,127.46c-.46,2.24.38,4.28,1.86,4.56s3.05-1.3,3.5-3.54c.19-.89.16-1.81-.09-2.69l5.63-35.06-7.04-1.33-2.72,35.59c-.58.72-.97,1.56-1.14,2.46h0Z"/>
        <path class="cls-7" d="M218.12,71.14h-4.81c-3.4.52-4.32,2.33-5.09,5.68-1.18,5.11-2.69,11.91-2.39,12.01.48.16,8.66,4.01,12.83,3.13l-.55-20.81h0Z"/>
      </g>
      <rect class="cls-6" x="216.37" y="182.8" width="6.4" height="9.08"/>
      <path class="cls-2" d="M210.14,197.37c-.67,0-1.27-.02-1.72-.06-1.7-.16-3.32-1.41-4.14-2.14-.37-.33-.48-.86-.29-1.31h0c.14-.32.41-.57.75-.66l4.49-1.28,7.27-4.91.08.15c.03.05.75,1.34.98,2.21.09.33.07.6-.07.82-.09.15-.23.23-.34.28.13.14.54.42,1.81.62,1.85.29,2.25-1.63,2.26-1.71v-.06s.07-.04.07-.04c.88-.57,1.43-.83,1.61-.77.12.03.31.09.84,5.33.05.16.42,1.37.17,2.52-.27,1.25-5.75.82-6.84.72-.03,0-4.13.3-6.94.3h0Z"/>
      <rect class="cls-6" x="237.47" y="176.68" width="6.4" height="9.08" transform="translate(-59.44 154.81) rotate(-31.95)"/>
      <path class="cls-2" d="M233.77,196.13c-.75,0-1.44-.09-1.93-.18-.48-.09-.86-.47-.94-.95h0c-.05-.35.05-.7.28-.96l3.13-3.46,3.57-8.01.15.08c.05.03,1.34.74,2,1.35.25.23.38.48.37.73,0,.18-.07.32-.14.42.18.05.68.07,1.87-.43,1.73-.73,1.04-2.57,1.01-2.65l-.02-.06.03-.06c.45-.95.77-1.46.96-1.51.12-.03.31-.09,3.53,4.08.13.11,1.08.94,1.48,2.05.43,1.21-4.44,3.74-5.42,4.23-.03.02-5.13,3.73-7.22,4.78-.83.42-1.81.55-2.71.55h0Z"/>
      <path class="cls-2" d="M227.48,106.9h-17.91l-1.63,16.66,7.11,61.56h9.14l-3.66-35.56,14.83,32.1,8.13-5.69-11.58-29.97s4.14-26.11.89-32.61c-3.25-6.5-5.32-6.5-5.32-6.5h0Z"/>
      <polygon class="cls-7" points="236.39 107.92 207.94 107.92 216.48 71.14 228.87 71.14 236.39 107.92"/>
      <path id="uuid-ece83039-1aa0-468e-a846-e0cb6ecd6032-1105" class="cls-6" d="M238.95,127.46c.46,2.24-.38,4.28-1.86,4.56s-3.05-1.3-3.5-3.54c-.19-.89-.16-1.81.09-2.69l-5.63-35.06,7.04-1.33,2.72,35.59c.58.72.97,1.56,1.14,2.46h0Z"/>
      <path class="cls-7" d="M224.06,71.14h4.81c3.4.52,4.32,2.33,5.09,5.68,1.18,5.11,2.69,11.91,2.39,12.01-.48.16-8.66,4.01-12.83,3.13l.55-20.81h0Z"/>
    </g>
  </g>
</svg>