<?xml version="1.0" encoding="UTF-8"?><svg id="Layer_1" xmlns="http://www.w3.org/2000/svg" viewBox="0 0 333 248"><defs><style>.cls-1{fill:#fee;}.cls-1,.cls-2,.cls-3,.cls-4,.cls-5,.cls-6,.cls-7,.cls-8{stroke-width:0px;}.cls-2{fill:#e6e6e6;}.cls-3{fill:#db3545;}.cls-4{fill:#495182;}.cls-5{fill:#fff;}.cls-6{fill:#3f3d56;}.cls-7{fill:#ffb8b8;}.cls-8{fill:#2f2e41;}</style></defs><rect class="cls-1" width="333" height="248"/><rect class="cls-5" x="141.64" y="136.66" width="71.11" height="19.09" rx="1.05" ry="1.05"/><rect class="cls-5" x="79" y="98.79" width="71.11" height="19.09" rx="1.05" ry="1.05"/><rect class="cls-5" x="168.19" y="63.8" width="71.11" height="19.09" rx="1.05" ry="1.05"/><circle class="cls-5" cx="123.42" cy="64.45" r="1.75"/><circle class="cls-5" cx="132.29" cy="64.45" r="1.75"/><circle class="cls-5" cx="141.15" cy="64.45" r="1.75"/><circle class="cls-5" cx="150.02" cy="64.45" r="1.75"/><circle class="cls-5" cx="158.89" cy="64.45" r="1.75"/><circle class="cls-5" cx="123.42" cy="73.43" r="1.75"/><circle class="cls-5" cx="132.29" cy="73.43" r="1.75"/><circle class="cls-5" cx="141.15" cy="73.43" r="1.75"/><circle class="cls-5" cx="150.02" cy="73.43" r="1.75"/><circle class="cls-5" cx="158.89" cy="73.43" r="1.75"/><circle class="cls-2" cx="176.62" cy="73.43" r="1.75"/><circle class="cls-5" cx="123.42" cy="82.41" r="1.75"/><circle class="cls-5" cx="132.29" cy="82.41" r="1.75"/><circle class="cls-5" cx="141.15" cy="82.41" r="1.75"/><circle class="cls-4" cx="150.02" cy="82.41" r="1.75"/><circle class="cls-5" cx="158.89" cy="82.41" r="1.75"/><circle class="cls-5" cx="123.42" cy="91.39" r="1.75"/><circle class="cls-5" cx="132.29" cy="91.39" r="1.75"/><circle class="cls-5" cx="141.15" cy="91.39" r="1.75"/><circle class="cls-5" cx="150.02" cy="91.39" r="1.75"/><circle class="cls-5" cx="158.89" cy="91.39" r="1.75"/><circle class="cls-5" cx="167.75" cy="91.39" r="1.75"/><circle class="cls-5" cx="176.62" cy="91.39" r="1.75"/><circle class="cls-5" cx="185.49" cy="91.39" r="1.75"/><circle class="cls-5" cx="194.35" cy="91.39" r="1.75"/><circle class="cls-5" cx="203.22" cy="91.39" r="1.75"/><circle class="cls-5" cx="158.89" cy="100.37" r="1.75"/><circle class="cls-3" cx="167.75" cy="100.37" r="1.75"/><circle class="cls-5" cx="176.62" cy="100.37" r="1.75"/><circle class="cls-5" cx="185.49" cy="100.37" r="1.75"/><circle class="cls-5" cx="194.35" cy="100.37" r="1.75"/><circle class="cls-5" cx="203.22" cy="100.37" r="1.75"/><circle class="cls-5" cx="158.89" cy="109.34" r="1.75"/><circle class="cls-5" cx="167.75" cy="109.34" r="1.75"/><circle class="cls-5" cx="176.62" cy="109.34" r="1.75"/><circle class="cls-5" cx="185.49" cy="109.34" r="1.75"/><circle class="cls-3" cx="194.35" cy="109.34" r="1.75"/><circle class="cls-5" cx="203.22" cy="109.34" r="1.75"/><circle class="cls-5" cx="158.89" cy="118.32" r="1.75"/><circle class="cls-5" cx="167.75" cy="118.32" r="1.75"/><circle class="cls-5" cx="176.62" cy="118.32" r="1.75"/><circle class="cls-5" cx="185.49" cy="118.32" r="1.75"/><circle class="cls-5" cx="194.35" cy="118.32" r="1.75"/><circle class="cls-5" cx="203.22" cy="118.32" r="1.75"/><circle class="cls-5" cx="123.42" cy="127.3" r="1.75"/><circle class="cls-5" cx="132.29" cy="127.3" r="1.75"/><circle class="cls-5" cx="141.15" cy="127.3" r="1.75"/><circle class="cls-5" cx="150.02" cy="127.3" r="1.75"/><circle class="cls-5" cx="158.89" cy="127.3" r="1.75"/><circle class="cls-5" cx="167.75" cy="127.3" r="1.75"/><circle class="cls-5" cx="176.62" cy="127.3" r="1.75"/><circle class="cls-5" cx="185.49" cy="127.3" r="1.75"/><circle class="cls-5" cx="194.35" cy="127.3" r="1.75"/><circle class="cls-5" cx="203.22" cy="127.3" r="1.75"/><circle class="cls-5" cx="123.42" cy="136.28" r="1.75"/><circle class="cls-5" cx="132.29" cy="136.28" r="1.75"/><circle class="cls-5" cx="123.42" cy="145.25" r="1.75"/><circle class="cls-5" cx="132.29" cy="145.25" r="1.75"/><circle class="cls-2" cx="150.02" cy="145.25" r="1.75"/><path class="cls-2" d="m238.4,83.37h-69.41c-.71,0-1.28-.58-1.29-1.29v-17.22c0-.71.58-1.28,1.29-1.29h69.41c.71,0,1.28.58,1.29,1.29v17.22c0,.71-.58,1.28-1.29,1.29Zm-69.41-19.28c-.43,0-.77.35-.77.77v17.22c0,.43.35.77.77.77h69.41c.43,0,.77-.35.77-.77v-17.22c0-.43-.35-.77-.77-.77h-69.41Z"/><circle class="cls-4" cx="177.98" cy="73.47" r="5.4"/><path class="cls-2" d="m190.45,69.87c-.5,0-.9.4-.9.9s.4.9.9.9h23.91c.5,0,.9-.4.9-.9s-.4-.9-.9-.9h-23.91Z"/><path class="cls-2" d="m190.45,75.27c-.5,0-.9.4-.9.9s.4.9.9.9h42.42c.5,0,.9-.4.9-.9s-.4-.9-.9-.9h-42.42Z"/><path class="cls-2" d="m149.19,118.33h-69.41c-.71,0-1.28-.58-1.29-1.29v-17.22c0-.71.58-1.28,1.29-1.29h69.41c.71,0,1.28.58,1.29,1.29v17.22c0,.71-.58,1.28-1.29,1.29Zm-69.41-19.28c-.43,0-.77.35-.77.77v17.22c0,.43.35.77.77.77h69.41c.43,0,.77-.35.77-.77v-17.22c0-.43-.35-.77-.77-.77h-69.41Z"/><circle class="cls-4" cx="88.78" cy="108.44" r="5.4"/><path class="cls-2" d="m101.24,104.84c-.5,0-.9.4-.9.9s.4.9.9.9h24.94c.5,0,.9-.4.9-.9s-.4-.9-.9-.9h-24.94Z"/><path class="cls-2" d="m101.24,110.24c-.5,0-.9.4-.9.9s.4.9.9.9h42.42c.5,0,.9-.4.9-.9s-.4-.9-.9-.9h-42.42Z"/><path class="cls-6" d="m211.92,156.12h-69.41c-.71,0-1.28-.58-1.29-1.29v-17.22c0-.71.58-1.28,1.29-1.29h69.41c.71,0,1.28.58,1.29,1.29v17.22c0,.71-.58,1.28-1.29,1.29Zm-69.41-19.28c-.43,0-.77.35-.77.77v17.22c0,.43.35.77.77.77h69.41c.43,0,.77-.35.77-.77v-17.22c0-.43-.35-.77-.77-.77h-69.41Z"/><circle class="cls-3" cx="151.5" cy="146.23" r="5.4"/><path class="cls-2" d="m163.97,142.63c-.5,0-.9.4-.9.9s.4.9.9.9h22.88c.5,0,.9-.4.9-.9s-.4-.9-.9-.9h-22.88Z"/><path class="cls-2" d="m163.97,148.03c-.5,0-.9.4-.9.9s.4.9.9.9h42.42c.5,0,.9-.4.9-.9s-.4-.9-.9-.9h-42.42Z"/><path class="cls-2" d="m249.26,151.76c-3.01,9.04-15.35-.55-15.35-.55l3.29-34.26c4.93-3.84,10.14-.55,10.14-.55l1.92,35.35Z"/><polygon class="cls-7" points="248.61 182.11 252.81 182.15 251.76 194.26 248.61 194.26 248.61 182.11"/><path class="cls-8" d="m247.81,193.23h6.21c2.18,0,3.95,1.77,3.96,3.96v.13h-10.16v-4.08Z"/><polygon class="cls-7" points="237.22 182.11 232.57 182.11 234.07 194.26 237.22 194.26 237.22 182.11"/><path class="cls-8" d="m227.86,197.32v-.13c0-2.18,1.77-3.96,3.96-3.96h6.21s0,4.08,0,4.08h-10.16Z"/><path class="cls-8" d="m248.33,192.17l-5.5-32.09-5.1,31.68-5.17.29-1.38-42.44.1-.02c.85-.19,20.96-4.61,24.26,1.71l.02.03-2.75,40.99-4.48-.14Z"/><circle class="cls-7" cx="242.49" cy="106.62" r="6.31"/><path class="cls-8" d="m247.8,154.46c-.74-.2-1.27-1.05-1.68-2.68-.07-.28-6.63-28.21-1.08-33.26l1.28-3.55,1.75,1.17c.62,0,6.95.17,7.49,4.22.53,3.97,1.97,30.57.52,32.23-.06.07-.14.12-.24.12-1.47,0-1.91-1.63-2.02-2.15-.35.14-1.39.68-3.1,2.38-1.06,1.06-1.89,1.57-2.57,1.57-.12,0-.23-.02-.35-.05Z"/><path class="cls-8" d="m234.1,152.94c-1.71-1.71-2.75-2.24-3.1-2.38-.1.52-.55,2.15-2.02,2.15-.09,0-.18-.05-.24-.12-1.45-1.65,0-28.25.52-32.23.54-4.06,6.87-4.22,7.49-4.22l1.75-1.17,1.28,3.55c5.54,5.06-1.01,32.99-1.08,33.26-.41,1.62-.94,2.47-1.68,2.68-.11.03-.23.05-.35.05-.69,0-1.52-.51-2.57-1.57Z"/><path class="cls-8" d="m247.71,110.23c2.91-2.09,3.57-6.14,1.48-9.04-1.09-1.51-2.77-2.48-4.61-2.66-.58-.06-1.21-.05-1.69-.38-.43-.29-.66-.8-1.05-1.14-.51-.39-1.15-.55-1.78-.45-.62.11-1.23.31-1.79.59-1.4.62-2.89,1.39-3.53,2.79-.55,1.21-.31,2.7.47,3.77.82,1.06,2.02,1.77,3.35,1.98,1.32.2,2.67.08,3.93-.35.83-.26,1.66-.62,2.53-.65,1.9-.06,3.49,1.42,3.55,3.32.03.92-.31,1.81-.94,2.48"/><path class="cls-7" d="m213.29,147.79c1.53-.04,2.75-1.31,2.71-2.84l3.68-6.21-2.85-2.61-3.88,6.12c-1.53.15-2.65,1.5-2.5,3.03.14,1.45,1.37,2.54,2.83,2.51Z"/><path class="cls-7" d="m256.01,154.6c1.28-.84,1.65-2.56.81-3.84h0l-.14-7.22-3.79-.72-.07,7.25c-1.22.93-1.46,2.67-.53,3.89.88,1.16,2.51,1.44,3.73.64Z"/><path class="cls-8" d="m214.41,137.8l-.04-.07.04-.07c5.52-8.87,17.12-19.95,17.23-20.06l.04-.03h1.43s1.55,3.84,1.55,3.84c-.48.93-13.47,19.05-15.19,20.25-.28.19-.62.26-.95.18-.29-.07-.56-.18-.8-.34-1.58-.98-3.23-3.57-3.31-3.7Z"/><path class="cls-8" d="m252.17,147.92c-.31-.11-.56-.34-.7-.64-.83-1.93,2.72-26.3,2.87-27.34l.03-.2,1.2.76v.05c.05.16,3.54,15.68,2.59,26v.07s-.07.03-.07.03c-.14.07-3.05,1.4-4.99,1.4-.32,0-.63-.04-.93-.14Z"/><path class="cls-6" d="m276.04,197.51h-68.38c-.14,0-.26-.12-.26-.26s.12-.26.26-.26h68.38c.14,0,.26.12.26.26s-.12.26-.26.26Z"/></svg>