<?xml version="1.0" encoding="UTF-8"?><svg id="Layer_1" xmlns="http://www.w3.org/2000/svg" viewBox="0 0 333 248"><defs><style>.cls-1{fill:#e6e6e6;}.cls-1,.cls-2,.cls-3,.cls-4,.cls-5,.cls-6,.cls-7,.cls-8{stroke-width:0px;}.cls-2{fill:#c2bfff;}.cls-3{fill:#ccc;}.cls-4{fill:#6c63ff;}.cls-5{fill:#fff;}.cls-6{fill:#3f3d56;}.cls-7{fill:#ffb6b6;}.cls-8{fill:#2f2e41;}</style></defs><rect class="cls-2" width="333" height="248"/><path class="cls-6" d="m196.81,195.53h-45.41c-6.81,0-12.35-5.54-12.35-12.35V63.14c0-6.81,5.54-12.35,12.35-12.35h45.41c6.81,0,12.35,5.54,12.35,12.35.85,48.2,2.29,102.18,0,120.04,0,6.81-5.54,12.35-12.35,12.35h0Z"/><path class="cls-6" d="m209.8,94.94c-.29,0-.52.23-.52.52v16.72c0,.29.23.52.52.52s.52-.23.52-.52v-16.72c0-.29-.23-.52-.52-.52Z"/><path class="cls-5" d="m207.99,63.14v120.04c0,5.93-4.61,10.78-10.45,11.15h0c-.09,0-.17.01-.26.01-.15,0-.31.01-.47.01,0,0-.57-.04-1.63-.12-1.06-.08-2.6-.2-4.53-.35-.58-.04-1.19-.09-1.83-.15-1.28-.1-2.69-.22-4.19-.35-.6-.05-1.22-.1-1.86-.16-3.24-.28-6.88-.61-10.71-.98-.65-.06-1.3-.12-1.96-.19-.17-.02-29.88-7.49-29.88-8.89V63.14c0-6.17,5-11.18,11.18-11.18h6.67c1.07,0,1.92.83,2.01,1.89,0,.07.02.14.03.21.19,1.07,1.17,1.81,2.26,1.81h23.45c1.09,0,2.07-.74,2.26-1.81.01-.07.02-.14.03-.21.09-1.06.95-1.89,2.01-1.89h6.67c6.17,0,11.18,5,11.18,11.18h0Z"/><path class="cls-6" d="m138.79,82.4c-.29,0-.52.23-.52.52v4.18c0,.29.23.52.52.52s.52-.23.52-.52v-4.18c0-.29-.23-.52-.52-.52Z"/><path class="cls-6" d="m138.79,94.94c-.29,0-.52.23-.52.52v8.1c0,.29.23.52.52.52s.52-.23.52-.52v-8.1c0-.29-.23-.52-.52-.52h0Z"/><path class="cls-6" d="m138.79,106.44c-.29,0-.52.23-.52.52v8.1c0,.29.23.52.52.52s.52-.23.52-.52v-8.1c0-.29-.23-.52-.52-.52Z"/><rect class="cls-1" x="147.81" y="53.79" width="10.19" height="1.31" rx=".09" ry=".09"/><circle class="cls-1" cx="191.79" cy="54.05" r="1.05"/><circle class="cls-1" cx="194.66" cy="54.05" r="1.05"/><circle class="cls-1" cx="197.54" cy="54.05" r="1.05"/><path class="cls-3" d="m90.28,195.56c0,.19.15.34.34.34h155.3c.19,0,.34-.15.34-.34s-.15-.34-.34-.34H90.62c-.19,0-.34.15-.34.34Z"/><polygon class="cls-7" points="139.8 193.34 136.61 193.34 135.1 181.06 139.8 181.06 139.8 193.34"/><path class="cls-8" d="m128.89,193.27h0c-.1.17-.15.71-.15.9h0c0,.6.48,1.08,1.08,1.08h9.86c.41,0,.74-.33.74-.74v-.41s.49-1.23-.52-2.76c0,0-1.25,1.19-3.11-.67l-.55-1-3.98,2.91-2.21.27c-.48.06-.91,0-1.16.41h0s0,0,0,0Z"/><polygon class="cls-7" points="122.19 176.28 119 176.27 117.52 163.98 122.22 164 122.19 176.28"/><path class="cls-8" d="m111.27,176.17h0c-.1.17-.15.71-.15.9h0c0,.6.48,1.08,1.08,1.08l9.86.03c.41,0,.74-.33.74-.74v-.41s.49-1.23-.51-2.76c0,0-1.25,1.19-3.11-.68l-.55-1-3.99,2.9-2.21.26c-.48.06-.91-.01-1.16.41h0,0Z"/><path class="cls-8" d="m135.15,118.77l-3.97.28s-13.42,7.63-14.56,9.33c-1.13,1.7-2.69,4.11-1.27,6.66s.34,33.42.34,33.42l6.77-1.53,4.34-32.29,9.06-1.27s3.12,6.72,1.98,12.28-1.7,8.96-1.7,8.96l-1.42,32.86,5.52-.14,4.96-30.45,8.5-24.08-11.05-13.03-7.51-.99Z"/><path class="cls-1" d="m154.7,83.93l-8.21.85-.85,2.83-7.93,4.25,2.55,17.84-1.98,3.12.85,3.12s-2.27.28-1.98,1.98l-5.1.85s6.76,1.38,8.2,8.2c1.43,6.82,13.33,7.67,13.33,7.67l9.35-29.17.85-17.28-6.51-1.7-2.55-2.55Z"/><circle class="cls-7" cx="150.37" cy="76.47" r="6.39"/><path class="cls-8" d="m147.05,82.23h0s-5.66-.28-5.1-4.82c-1.4-4.83-.16-7.96,4.25-9.06,0,0,1.13-.28,1.42-.28,3.73,0,5.66,1.13,5.66,1.13,0,0-.28-1.12,0-.84s.57.84.57.84c0,0,2.83,1.42,2.83,4.25s0,1.7,0,1.7c0,0-.57,0-1.13-1.7s-4.23-.57-4.23-.57l.27.57-.85-.28-.85.85-.57-.28s-2.27,0-1.98,0,.09,1.92.09,1.92l-2.07,2.32,2.27,4.25h-.57Z"/><path class="cls-7" d="m116.87,116.03c-1.61.88-2.47,2.43-1.91,3.45s2.32,1.14,3.93.26c.71-.39,1.27-.9,1.63-1.44l6.79-3.82-1.86-3.15-6.49,4.09c-.65.01-1.38.2-2.09.59h0Z"/><path class="cls-1" d="m139.75,91.99s-2.66-1.01-3.58.21-6.97,16.01-6.97,16.01l-8.88,4.64,2.5,4.35,11.44-3.81,7.55-13.8-2.05-7.6h0Z"/><path class="cls-5" d="m223.64,140.58v30.02c0,2.66-2.16,4.82-4.82,4.82h-74.21c-2.66,0-4.82-2.16-4.82-4.82v-30.02c0-2.66,2.16-4.82,4.82-4.82h74.21c2.66,0,4.82,2.16,4.82,4.82Z"/><path class="cls-6" d="m223.64,140.58v30.02c0,2.66-2.16,4.82-4.82,4.82h-74.21c-2.66,0-4.82-2.16-4.82-4.82v-30.02c0-2.66,2.16-4.82,4.82-4.82h74.21c2.66,0,4.82,2.16,4.82,4.82Zm-4.82,34.27c2.35,0,4.25-1.9,4.25-4.25v-15.14c0-10.57-8.57-19.14-19.14-19.14h-59.32c-2.35,0-4.25,1.9-4.25,4.25v30.02c0,2.35,1.9,4.25,4.25,4.25h74.21Z"/><path class="cls-4" d="m173.11,153.9h-9.69c-.24,0-.44.2-.44.44s.2.44.44.44h9.69c.24,0,.44-.2.44-.44s-.2-.44-.44-.44Z"/><path class="cls-4" d="m187.84,153.9h-9.69c-.24,0-.44.2-.44.44s.2.44.44.44h9.69c.24,0,.44-.2.44-.44s-.2-.44-.44-.44Z"/><path class="cls-4" d="m173.11,158.75h-9.69c-.24,0-.44.2-.44.44s.2.44.44.44h9.69c.24,0,.44-.2.44-.44s-.2-.44-.44-.44Z"/><path class="cls-4" d="m187.84,158.75h-9.69c-.24,0-.44.2-.44.44s.2.44.44.44h9.69c.24,0,.44-.2.44-.44s-.2-.44-.44-.44Z"/><path class="cls-4" d="m203.02,159.19c0-.24-.2-.44-.44-.44h-9.69c-.24,0-.44.2-.44.44s.2.44.44.44h9.69c.24,0,.44-.2.44-.44Z"/><path class="cls-4" d="m167.45,150.03c.24,0,.44-.2.44-.44s-.2-.44-.44-.44h-9.69c-.24,0-.44.2-.44.44s.2.44.44.44h9.69Z"/><path class="cls-4" d="m196,149.85h9.69c.24,0,.44-.2.44-.44s-.2-.44-.44-.44h-9.69c-.24,0-.44.2-.44.44s.2.44.44.44Z"/><path class="cls-4" d="m171.53,149.94h20.1c.24,0,.44-.2.44-.44s-.2-.44-.44-.44h-20.1c-.24,0-.44.2-.44.44s.2.44.44.44Z"/><path class="cls-4" d="m179.44,163.15h-9.69c-.24,0-.44.2-.44.44s.2.44.44.44h9.69c.24,0,.44-.2.44-.44s-.2-.44-.44-.44Z"/><path class="cls-5" d="m210.74,140.35v30.02c0,2.66-2.16,4.82-4.82,4.82h-30.02c-2.66,0-4.82-2.16-4.82-4.82v-30.02c0-2.66,2.16-4.82,4.82-4.82h30.02c2.66,0,4.82,2.16,4.82,4.82Z"/><path class="cls-6" d="m210.74,140.35v30.02c0,2.66-2.16,4.82-4.82,4.82h-30.02c-2.66,0-4.82-2.16-4.82-4.82v-30.02c0-2.66,2.16-4.82,4.82-4.82h30.02c2.66,0,4.82,2.16,4.82,4.82Zm-6.68,34.27c3.38,0,6.11-2.74,6.11-6.11v-13.27c0-10.57-8.57-19.14-19.14-19.14h-15.14c-2.35,0-4.25,1.9-4.25,4.25v25.84c0,4.66,3.78,8.44,8.44,8.44h23.97s0,0,0,0Z"/><path class="cls-4" d="m194.91,147.8h-9.69c-.24,0-.44-.2-.44-.44s.2-.44.44-.44h9.69c.24,0,.44.2.44.44s-.2.44-.44.44h0Z"/><path class="cls-4" d="m194.91,157.25h-9.69c-.24,0-.44-.2-.44-.44s.2-.44.44-.44h9.69c.24,0,.44.2.44.44s-.2.44-.44.44h0Z"/><path class="cls-4" d="m190.1,170.28h-9.69c-.24,0-.44-.2-.44-.44s.2-.44.44-.44h9.69c.24,0,.44.2.44.44s-.2.44-.44.44h0Z"/><path class="cls-4" d="m200.12,152.52h-20.1c-.24,0-.44-.2-.44-.44s.2-.44.44-.44h20.1c.24,0,.44.2.44.44s-.2.44-.44.44h0Z"/><path class="cls-4" d="m205.1,123.71c0-9.37-7.92-14.52-16.96-16.96-11.59-3.13-20.08,3.2-16.96,16.96.71,3.12,2.4,6.76,4.5,9.87h16.64c5.56-3.62,12.78-2.6,12.78-9.87Z"/><path class="cls-4" d="m187.89,141.42c.95-1.8,2.15-3.11,3.47-4.1h-15.59c4.01,5.73,9.33,9.41,12.12,4.1Z"/><path class="cls-5" d="m186.09,113.69c1,0,1.81.81,1.81,1.81v3.62h-3.62v-3.62c0-1,.81-1.81,1.81-1.81Zm2.72,5.44v-3.62c0-1.5-1.22-2.72-2.72-2.72s-2.72,1.22-2.72,2.72v3.62c-1,0-1.81.81-1.81,1.81v4.53c0,1,.81,1.81,1.81,1.81h5.44c1,0,1.81-.81,1.81-1.81v-4.53c0-1-.81-1.81-1.81-1.81h0Zm-5.44.91h5.44c.5,0,.91.41.91.91v4.53c0,.5-.41.91-.91.91h-5.44c-.5,0-.91-.41-.91-.91v-4.53c0-.5.41-.91.91-.91h0Z"/><path class="cls-7" d="m160.2,134.78c-.22,1.82.55,3.42,1.71,3.55s2.28-1.23,2.5-3.05c.1-.8,0-1.55-.23-2.16l.83-7.74-3.64-.31-.43,7.66c-.37.54-.64,1.25-.73,2.04Z"/><path class="cls-1" d="m161.07,88.6s3.97-1.13,4.82.57,2.83,24.08,2.83,24.08l-3.82,17.86-4.39-1.15,2.27-18.13-3.12-13.6,1.42-9.63Z"/><circle class="cls-4" cx="102.8" cy="126.37" r="16.57"/><path class="cls-5" d="m102.8,118.95c1.17,0,2.12.95,2.12,2.12v4.24h-4.24v-4.24c0-1.17.95-2.12,2.12-2.12h0Zm3.18,6.36v-4.24c0-1.76-1.42-3.18-3.18-3.18s-3.18,1.42-3.18,3.18v4.24c-1.17,0-2.12.95-2.12,2.12v5.3c0,1.17.95,2.12,2.12,2.12h6.36c1.17,0,2.12-.95,2.12-2.12v-5.3c0-1.17-.95-2.12-2.12-2.12h0Zm-6.36,1.06h6.36c.59,0,1.06.47,1.06,1.06v5.3c0,.59-.47,1.06-1.06,1.06h-6.36c-.59,0-1.06-.47-1.06-1.06v-5.3c0-.59.47-1.06,1.06-1.06Z"/></svg>