<?xml version="1.0" encoding="UTF-8"?>
<svg id="Layer_1" data-name="Layer 1" xmlns="http://www.w3.org/2000/svg" viewBox="0 0 333 248">
  <defs>
    <style>
      .cls-1 {
        fill: #f2f2f2;
      }

      .cls-1, .cls-2, .cls-3, .cls-4, .cls-5, .cls-6, .cls-7, .cls-8, .cls-9, .cls-10, .cls-11 {
        stroke-width: 0px;
      }

      .cls-2 {
        fill: #495182;
      }

      .cls-3 {
        fill: #2f2e41;
      }

      .cls-4 {
        fill: #3f3d56;
      }

      .cls-5 {
        fill: #ccc;
      }

      .cls-6 {
        fill: #db3545;
      }

      .cls-7 {
        fill: #bac1e2;
      }

      .cls-8 {
        fill: #ffb8b8;
      }

      .cls-9 {
        fill: #ffb6b6;
      }

      .cls-10 {
        fill: #e7e9f9;
      }

      .cls-11 {
        fill: #e6e6e6;
      }
    </style>
  </defs>
  <rect class="cls-10" width="333" height="248"/>
  <g>
    <path class="cls-2" d="M276.57,140.48h-8c-.35,0-.67-.16-.89-.43-.21-.26-.29-.61-.22-.94.75-3.32.72-6.77-.11-10.07-.13-.52.12-1.06.61-1.29,3.34-1.56,6.41-1.52,9.13.12.29.17.49.46.54.79.57,3.59.6,7.25.07,10.84-.08.56-.56.98-1.12.97Z"/>
    <path class="cls-7" d="M276.45,135.24h-6.12c-.32,0-.57-.26-.57-.57s.26-.57.57-.57h6.12c.32,0,.57.26.57.58,0,.32-.26.57-.57.57h0Z"/>
    <path class="cls-7" d="M276.45,133.22h-6.12c-.32,0-.57-.26-.57-.57s.26-.57.57-.57h6.12c.32,0,.57.26.57.58,0,.32-.26.57-.57.57h0Z"/>
    <circle class="cls-1" cx="116.27" cy="97.14" r="42.54"/>
    <circle class="cls-1" cx="165.6" cy="130.37" r="8.05"/>
    <circle class="cls-1" cx="206.13" cy="153.27" r="3.27"/>
    <path class="cls-1" d="M231.39,166.14c-1.38-10.54-7.99-20.9-18.07-24.27,4.04,10.84,4.11,22.75.21,33.64-1.52,4.19-3.65,8.7-2.16,12.9.92,2.62,3.15,4.61,5.63,5.85,2.48,1.24,5.23,1.82,7.95,2.39l.54.44c4.24-9.75,7.29-20.4,5.91-30.95Z"/>
    <path class="cls-7" d="M213.22,142.07c5.9,6.53,9.6,14.75,10.56,23.5.19,1.88.23,3.8-.17,5.65-.4,1.8-1.28,3.46-2.54,4.81-1.15,1.28-2.48,2.46-3.3,4-.86,1.62-.89,3.46-.28,5.17.75,2.1,2.2,3.8,3.68,5.42,1.64,1.79,3.38,3.63,4.09,6.02.09.29.53.14.44-.15-1.23-4.15-5.29-6.49-7.24-10.23-.91-1.74-1.3-3.77-.47-5.62.73-1.62,2.09-2.83,3.27-4.12,1.24-1.35,2.18-2.83,2.66-4.61.49-1.82.53-3.75.39-5.62-.36-4.24-1.39-8.4-3.05-12.33-1.86-4.49-4.48-8.63-7.74-12.23-.2-.22-.51.13-.31.35h0Z"/>
    <path class="cls-7" d="M223.64,162.74c2.99-.75,4.99-3.54,4.74-6.61-.03-.3-.49-.27-.47.03.24,2.86-1.64,5.46-4.42,6.14-.29.07-.14.52.15.44Z"/>
    <path class="cls-7" d="M221.74,175.46c-2.63-1.55-4.57-4.02-5.45-6.94-.09-.29-.53-.14-.44.15.92,3.03,2.95,5.61,5.69,7.21.26.15.47-.27.21-.42h0Z"/>
    <path class="cls-7" d="M218.97,149.91c-1.08.52-2.34.46-3.37-.15-.26-.16-.47.27-.21.42,1.14.67,2.53.74,3.73.17.12-.04.18-.17.15-.3-.04-.12-.17-.19-.3-.15Z"/>
    <path class="cls-1" d="M182.76,160.91c.16.1.32.2.48.31,2.13,1.38,4.14,2.93,6.02,4.64.15.13.29.26.44.4,4.48,4.16,8.15,9.11,10.82,14.61,1.06,2.19,1.95,4.45,2.67,6.78.99,3.21,1.81,6.77,3.74,9.39.2.28.41.54.65.79l17.34-.11s.08-.04.12-.06l.69.03c-.03-.12-.06-.25-.09-.37-.02-.07-.04-.14-.05-.21-.01-.05-.02-.09-.03-.14,0-.02,0-.03-.01-.04,0-.04-.02-.08-.03-.12-.18-.71-.36-1.41-.55-2.12t0,0c-1.45-5.38-3.37-10.69-6.03-15.54-.08-.15-.16-.3-.25-.44-1.21-2.18-2.6-4.25-4.15-6.21-.85-1.07-1.76-2.09-2.71-3.06-2.47-2.51-5.33-4.62-8.46-6.25-6.24-3.24-13.45-4.45-20.08-2.41-.17.05-.34.1-.51.16Z"/>
    <path class="cls-7" d="M182.8,161.13c8.64,1.66,16.55,6,22.58,12.41,1.28,1.38,2.47,2.89,3.27,4.61.76,1.68,1.06,3.54.87,5.37-.15,1.72-.5,3.45-.23,5.18.29,1.82,1.38,3.3,2.89,4.3,1.86,1.22,4.04,1.71,6.2,2.11,2.39.44,4.88.87,6.89,2.35.24.18.51-.21.26-.39-3.49-2.57-8.13-2-11.94-3.81-1.78-.84-3.31-2.23-3.76-4.21-.39-1.73-.04-3.52.13-5.26.17-1.82.04-3.57-.65-5.29-.71-1.75-1.83-3.31-3.08-4.72-2.84-3.17-6.17-5.87-9.85-8.01-4.19-2.46-8.77-4.19-13.55-5.11-.3-.06-.33.41-.03.47Z"/>
    <path class="cls-7" d="M203.56,171.36c1.94-2.39,1.85-5.84-.2-8.13-.2-.22-.56.08-.36.3,1.91,2.14,1.98,5.35.17,7.57-.19.23.2.5.39.26Z"/>
    <path class="cls-7" d="M209.71,182.67c-3.03.35-6.07-.46-8.53-2.26-.24-.18-.51.21-.26.39,2.56,1.87,5.73,2.7,8.88,2.33.3-.04.21-.5-.09-.46h0Z"/>
    <path class="cls-7" d="M192.12,163.93c-.55,1.06-1.59,1.78-2.78,1.91-.3.03-.21.49.09.46,1.31-.15,2.47-.94,3.08-2.11.07-.11.04-.25-.06-.33-.11-.07-.25-.04-.33.06h0Z"/>
    <path class="cls-8" d="M265.92,124.93l-2.34-22.69-.62-9.34,6.56-1.19s.98,6.42,1.84,10.19c.85,3.72-1.13,22.53-1.18,23.03,1.31,1.18,1.43,3.19.25,4.51-1.18,1.31-3.19,1.43-4.51.25-1.31-1.18-1.43-3.19-.25-4.51.08-.09.16-.17.25-.25h0Z"/>
    <polygon class="cls-9" points="239.1 194.61 235.76 194.61 234.17 181.73 239.1 181.74 239.1 194.61"/>
    <path class="cls-3" d="M239.95,197.85h-10.76v-.14c0-2.31,1.88-4.19,4.19-4.19h0l1.97-1.49,3.67,1.49h.94s0,4.33,0,4.33Z"/>
    <polygon class="cls-9" points="268.52 194.61 265.18 194.61 263.6 181.73 268.52 181.74 268.52 194.61"/>
    <path class="cls-3" d="M269.37,197.85h-10.76v-.14c0-2.31,1.88-4.19,4.19-4.19h0l1.97-1.49,3.67,1.49h.94s0,4.33,0,4.33Z"/>
    <path class="cls-3" d="M263.44,125.7l2.81,26.67s3.74,26.71,3.04,30.39c-.7,3.69.18,4.21.18,4.21l-6.41-.46s.18-2.28-.88-3.33-.53-4.21-.53-4.21l-12.42-43.45-7.55,22.81s-1.23,25.1-1.4,25.45-.7,5.09-.7,5.09h-6.49s.88-2.81-.35-3.69-2.28-.18-1.23-1.75c1.05-1.58,1.4-3.51,1.05-4.39-.35-.88-.35-4.39-.35-4.39,0,0,.53-47.38,3.51-48.96,2.98-1.58,27.73,0,27.73,0Z"/>
    <circle class="cls-8" cx="250.15" cy="64.78" r="6.91"/>
    <path class="cls-8" d="M223.83,123.3s6.9-21.45,7.02-21.71c.9-6.87,3.5-9.9,3.89-9.57l6.71,2.33s-2,6.32-3.35,10.08c-1.29,3.59-10.14,20.16-10.39,20.59.73,1.61.02,3.5-1.59,4.23-1.61.73-3.5.02-4.23-1.59-.73-1.61-.02-3.5,1.59-4.23.11-.05.22-.09.33-.13h0Z"/>
    <path class="cls-6" d="M265.28,120.88c-.15-.76-.68-.07-.07-1.49.61-1.42-2.37-12.12-2.37-12.12l.98-9.51h0l6.79-2.44s-.09-4.25-2.94-10.03c-.58-1.2-1.33-2.32-2.23-3.31h0s-.02-.02-.02-.02l-5.18-2.75-2.39-1.27-3.03-3.99-7.58-.25-2.65,3.8-3.21,1.2c-.83.31-1.56.84-2.14,1.49-1.03.48-1.98,1.38-2.64,3-1.48,3.77-2.18,5.42-3.16,9.35,0,0,2.73.41,5.07,1.72l.93,11.84-4.73,20.5s17.72,4.75,31.1,1.99c0,0,.19-3.93.12-5.42-.07-1.49-.52-1.54-.67-2.3Z"/>
    <path class="cls-3" d="M257.64,62.32c-.55-.54.28-1.96.12-2.71-.18-.86-1.13-.89-1.35-1.74-.24-.91-1.22-1.41-2.12-1.7-2.31-.74-4.77-.85-7.13-.33-1.05.26-2.08.57-3.09.95-.7.25-.02-.42-.72-.18-.26.06-.5.21-.65.43-.13.24.04.62.31.57-.85.38-1.7.75-2.55,1.13.48.5.95,1,1.43,1.5-.68-.19-1.4.62-1.13,1.27.22.42.63.7,1.1.76.77.15.19.88.97.86s6.22-1.61,6.6-.93c.27.49.24,1.13.63,1.53.49.51,1.36.32,1.98,0,.63-.33,1.27-.79,1.97-.71.74.08,1.3,1.45,1.48,2.17.18.72.07,1.48-.05,2.21-.15.96-1.67,1.93-1.82,2.89,1.69.47,3.5-1.02,4.16-3.6-.07-1.63,1.04-3.21-.12-4.36Z"/>
    <path class="cls-4" d="M150.28,152.01c-20.33,0-38.02-15.17-40.63-35.85l.5-.06c2.58,20.43,20.05,35.41,40.13,35.41,1.71,0,3.41-.11,5.1-.32,22.15-2.8,37.89-23.09,35.09-45.24l.5-.06c2.83,22.42-13.1,42.97-35.52,45.8-1.71.22-3.44.33-5.17.33Z"/>
    <path class="cls-6" d="M151.37,160.43h-8c-.35,0-.67-.16-.89-.43-.21-.26-.29-.61-.22-.94.76-3.35.71-6.84-.13-10.17-.12-.47.08-.97.49-1.23,2.77-1.72,5.78-1.66,9.22.16.32.17.54.47.6.82.57,3.58.59,7.22.06,10.8-.08.56-.56.98-1.12.97Z"/>
    <path class="cls-5" d="M114.87,117.64h-8c-.35,0-.67-.16-.89-.43-.21-.26-.29-.61-.22-.94.76-3.36.71-6.86-.14-10.2-.11-.45.06-.92.44-1.19,4.12-2.96,7.36-2.87,9.63.26.1.14.17.31.2.48.61,3.66.64,7.39.1,11.06-.08.56-.56.98-1.12.97Z"/>
    <path class="cls-7" d="M147.63,152.92h-2.75c-.32,0-.57-.26-.57-.58,0-.32.26-.57.57-.57h2.75c.32,0,.57.26.57.58,0,.32-.26.57-.57.57Z"/>
    <path class="cls-7" d="M150.99,155.19h-6.12c-.32,0-.57-.26-.57-.58,0-.32.26-.57.57-.57h6.12c.32,0,.57.26.57.58,0,.32-.26.57-.57.57Z"/>
    <path class="cls-7" d="M112.39,109.63h-2.75c-.32,0-.57-.26-.57-.58,0-.32.26-.57.57-.57h2.75c.32,0,.57.26.57.58,0,.32-.26.57-.57.57Z"/>
    <path class="cls-7" d="M112.39,111.64h-2.75c-.32,0-.57-.26-.57-.58,0-.32.26-.57.57-.57h2.75c.32,0,.57.26.57.58,0,.32-.26.57-.57.57Z"/>
    <path class="cls-7" d="M112.39,113.65h-2.75c-.32,0-.57-.26-.57-.58,0-.32.26-.57.57-.57h2.75c.32,0,.57.26.57.58,0,.32-.26.57-.57.57Z"/>
    <path class="cls-11" d="M222.61,127.1h-25.59c-1.43,0-2.58-1.16-2.59-2.59v-15.76c0-1.43,1.16-2.58,2.59-2.59h25.59c1.43,0,2.58,1.16,2.59,2.59v15.76c0,1.43-1.16,2.58-2.59,2.59Z"/>
    <path class="cls-7" d="M212.44,125.07h-13.62c-1.34,0-2.42-1.09-2.42-2.42v-12.03c0-1.34,1.09-2.42,2.42-2.42h21.99c1.34,0,2.42,1.09,2.42,2.42v3.66c0,5.96-4.83,10.78-10.79,10.79Z"/>
    <path class="cls-2" d="M218.62,114.78h-17.6c-.32,0-.57-.26-.57-.57s.26-.57.57-.57h17.6c.32,0,.57.26.57.57s-.26.57-.57.57h0Z"/>
    <path class="cls-2" d="M203.77,117.05h-2.75c-.32,0-.57-.26-.57-.57s.26-.57.57-.57h2.75c.32,0,.57.26.57.58,0,.32-.26.57-.57.57h0Z"/>
    <path class="cls-2" d="M208.64,119.32h-7.63c-.32,0-.57-.26-.57-.58,0-.32.26-.57.57-.57h7.63c.32,0,.57.26.58.57s-.26.57-.57.58h0,0Z"/>
    <circle class="cls-4" cx="193.54" cy="105.85" r="5.41"/>
    <path class="cls-4" d="M132.27,64.68c1.51-7.65,8.93-12.63,16.58-11.12,7.65,1.51,12.63,8.93,11.12,16.58l-.49-.1c1.45-7.38-3.35-14.54-10.72-15.99-7.38-1.45-14.54,3.35-15.99,10.72,0,0,0,0,0,0l-.49-.1Z"/>
    <path class="cls-2" d="M137.63,73.58l-8,.33c-.35.02-.68-.13-.91-.39-.22-.26-.32-.6-.26-.93.61-3.35.43-6.79-.52-10.06-.15-.51.08-1.07.56-1.32,3.28-1.7,6.35-1.79,9.12-.26.29.16.5.44.57.77.72,3.56.9,7.22.51,10.83-.05.56-.52,1-1.08,1.02Z"/>
    <path class="cls-7" d="M137.29,68.35l-6.12.25c-.32.01-.58-.23-.6-.55-.01-.32.23-.58.55-.6,0,0,0,0,0,0l6.12-.25c.32-.01.58.23.6.55.01.32-.23.58-.55.6h0Z"/>
    <path class="cls-7" d="M137.2,66.34l-6.12.25c-.32.01-.58-.23-.6-.55-.01-.32.23-.58.55-.6l6.12-.25c.32-.01.58.23.6.55.01.32-.23.58-.55.6Z"/>
    <path class="cls-11" d="M189.97,71.05h-25.59c-1.43,0-2.58-1.16-2.59-2.59v-15.76c0-1.43,1.16-2.58,2.59-2.59h25.59c1.43,0,2.58,1.16,2.59,2.59v15.76c0,1.43-1.16,2.58-2.59,2.59Z"/>
    <path class="cls-7" d="M179.8,69.02h-13.62c-1.34,0-2.42-1.09-2.42-2.42v-12.03c0-1.34,1.09-2.42,2.42-2.42h21.99c1.34,0,2.42,1.09,2.42,2.42v3.66c0,5.96-4.83,10.78-10.79,10.79Z"/>
    <path class="cls-2" d="M185.97,58.73h-17.6c-.32,0-.57-.26-.57-.57,0-.32.26-.57.57-.57h17.6c.32,0,.57.26.57.57,0,.32-.26.57-.57.57h0Z"/>
    <path class="cls-2" d="M171.12,61h-2.75c-.32,0-.57-.26-.57-.58,0-.32.26-.57.57-.57h2.75c.32,0,.57.26.57.58,0,.32-.26.57-.57.57Z"/>
    <path class="cls-2" d="M176,63.27h-7.63c-.32,0-.57-.26-.57-.57s.26-.57.57-.57h7.63c.32,0,.57.26.57.58,0,.32-.26.57-.57.57Z"/>
    <circle class="cls-4" cx="160.24" cy="70.92" r="5.41"/>
    <path class="cls-5" d="M281.75,198.08h-74.37c-.13,0-.23-.1-.23-.23s.1-.23.23-.23h74.37c.13,0,.23.1.23.23s-.1.23-.23.23Z"/>
    <path class="cls-4" d="M88.13,113.15c-4.62-12.23,1.54-25.89,13.76-30.51,12.23-4.62,25.89,1.54,30.51,13.76h0l-.47.18c-4.53-11.97-17.9-18-29.86-13.47s-18,17.9-13.47,29.86l-.47.18Z"/>
    <path class="cls-2" d="M108.83,89.71h-8c-.35,0-.67-.16-.89-.43-.21-.26-.29-.61-.22-.94.76-3.34.71-6.82-.13-10.15-.12-.48.09-.99.52-1.24,2.9-1.69,6-1.64,9.2.15.31.17.52.47.58.81.57,3.58.59,7.23.06,10.82-.08.56-.56.98-1.12.97Z"/>
    <path class="cls-7" d="M105.09,81.94h-2.75c-.32,0-.57-.26-.57-.58,0-.32.26-.57.57-.57h2.75c.32,0,.57.26.57.58,0,.32-.26.57-.57.57Z"/>
    <path class="cls-7" d="M108.46,84.21h-6.12c-.32,0-.57-.26-.57-.58,0-.32.26-.57.57-.57h6.12c.32,0,.57.26.57.58,0,.32-.26.57-.57.57Z"/>
    <path class="cls-11" d="M82.49,112.83h-25.59c-1.43,0-2.58-1.16-2.59-2.59v-15.76c0-1.43,1.16-2.58,2.59-2.59h25.59c1.43,0,2.58,1.16,2.59,2.59v15.76c0,1.43-1.16,2.58-2.59,2.59Z"/>
    <path class="cls-7" d="M72.33,110.8h-13.62c-1.34,0-2.42-1.09-2.42-2.42v-12.03c0-1.34,1.09-2.42,2.42-2.42h21.99c1.34,0,2.42,1.09,2.42,2.42v3.66c0,5.96-4.83,10.78-10.79,10.79Z"/>
    <path class="cls-2" d="M78.5,100.51h-17.6c-.32,0-.57-.26-.57-.57s.26-.57.57-.57h17.6c.32,0,.57.26.57.57s-.26.57-.57.57h0Z"/>
    <path class="cls-2" d="M63.65,102.78h-2.75c-.32,0-.57-.26-.57-.57s.26-.57.57-.57h2.75c.32,0,.57.26.57.58,0,.32-.26.57-.57.57h0Z"/>
    <path class="cls-2" d="M68.53,105.05h-7.63c-.32,0-.57-.26-.57-.58,0-.32.26-.57.57-.57h7.63c.32,0,.57.26.57.58,0,.32-.26.57-.57.57h0Z"/>
    <circle class="cls-4" cx="88" cy="112.2" r="5.41"/>
    <path class="cls-6" d="M136.27,104.81h-8c-.35,0-.67-.16-.89-.43-.21-.26-.29-.61-.22-.94.76-3.34.72-6.81-.12-10.13-.12-.49.1-1,.53-1.25,3.89-2.23,6.97-2.16,9.41.19.17.17.28.39.32.62.59,3.63.62,7.33.09,10.97-.08.56-.56.98-1.12.97Z"/>
    <path class="cls-7" d="M133.03,97.29h-2.75c-.32,0-.57-.26-.57-.58,0-.32.26-.57.57-.57h2.75c.32,0,.57.26.57.58,0,.32-.26.57-.57.57Z"/>
    <path class="cls-7" d="M136.4,99.56h-6.12c-.32,0-.57-.26-.57-.58,0-.32.26-.57.57-.57h6.12c.32,0,.57.26.57.58,0,.32-.26.57-.57.57Z"/>
  </g>
</svg>