<?xml version="1.0" encoding="UTF-8"?><svg id="Layer_1" xmlns="http://www.w3.org/2000/svg" viewBox="0 0 333 248"><defs><style>.cls-1{fill:#e6e6e6;}.cls-1,.cls-2,.cls-3,.cls-4,.cls-5,.cls-6,.cls-7{stroke-width:0px;}.cls-2{fill:#c2bfff;}.cls-3{fill:#6c63ff;}.cls-4{fill:#fff;}.cls-5{fill:#3f3d56;}.cls-6{fill:#ffb8b8;}.cls-7{fill:#2f2e41;}</style></defs><rect class="cls-2" width="333" height="248"/><ellipse class="cls-1" cx="99.67" cy="193.78" rx="42.06" ry="3.19"/><path class="cls-7" d="m89.76,82.69c7.32-3.11,16.44-1.14,25.34.23.08-1.66,1.09-3.68.04-4.83-1.28-1.41-1.16-2.88-.39-4.37,1.97-3.8-.85-7.84-3.7-11.2-1.3-1.53-3.25-2.35-5.26-2.21l-5.27.38c-2.63.19-4.86,1.99-5.6,4.51h0c-1.26,1.71-1.93,3.42-1.51,5.12-1.88,1.29-2.2,2.84-1.35,4.6.72,1.1.71,2.18-.03,3.22-.98,1.33-1.72,2.82-2.21,4.39l-.05.16Z"/><path class="cls-7" d="m263.7,177.08H114.52c-2.76,0-5-2.24-5-5h0c54.08-6.29,107.14-6.29,159.19,0h0c0,2.76-2.24,5-5,5h0Z"/><path class="cls-5" d="m268.71,172.37l-159.19-.29,18.45-31.04.09-.15v-68.42c0-3.49,2.83-6.32,6.32-6.32h108.59c3.49,0,6.32,2.83,6.32,6.32h0v68.89l19.42,31.01Z"/><path class="cls-4" d="m134.23,70.56c-1.14,0-2.06.92-2.06,2.06v62.38c0,1.14.92,2.06,2.06,2.06h109.76c1.14,0,2.06-.92,2.06-2.06v-62.38c0-1.14-.92-2.06-2.06-2.06h-109.76Z"/><path class="cls-7" d="m134.69,145.3c-.34,0-.66.2-.8.51l-5.68,12.36c-.2.44,0,.97.43,1.17.12.05.24.08.37.08h119.55c.49,0,.88-.4.88-.88,0-.14-.03-.27-.09-.39l-6.18-12.36c-.15-.3-.45-.49-.79-.49h-107.69Z"/><circle class="cls-4" cx="188.67" cy="68.2" r="1.32"/><path class="cls-7" d="m176.92,161.77c-.4,0-.75.27-.85.65l-1.43,5.3c-.13.47.15.96.62,1.08.07.02.15.03.23.03h27.12c.49,0,.88-.4.88-.88,0-.1-.02-.2-.05-.29l-1.83-5.3c-.12-.36-.46-.59-.83-.59h-23.86Z"/><polygon class="cls-7" points="249.29 139.85 249.29 141.03 127.97 141.03 128.06 140.88 128.06 139.85 249.29 139.85"/><circle class="cls-3" cx="245.9" cy="70.7" r="20.6"/><path class="cls-4" d="m254.43,79.68h-17.07c-.65,0-1.18-.53-1.18-1.18v-10.3c0-.65.53-1.18,1.18-1.18h17.07c.65,0,1.18.53,1.18,1.18v10.3c0,.65-.53,1.18-1.18,1.18Zm-17.07-11.48v10.3h17.07v-10.3s-17.07,0-17.07,0Z"/><path class="cls-4" d="m251.2,68.2h-10.59v-4.71c0-3.41,2.23-5.89,5.3-5.89s5.3,2.47,5.3,5.89v4.71Zm-9.42-1.18h8.24v-3.53c0-2.77-1.69-4.71-4.12-4.71s-4.12,1.94-4.12,4.71v3.53Z"/><circle class="cls-4" cx="245.9" cy="73.06" r="1.18"/><path class="cls-1" d="m231.52,115.9h-84.82c-.87,0-1.57-.7-1.57-1.57v-21.04c0-.87.7-1.57,1.57-1.57h84.82c.87,0,1.57.7,1.57,1.57v21.04c0,.87-.7,1.57-1.57,1.57Zm-84.82-23.55c-.52,0-.94.42-.94.94v21.04c0,.52.42.94.94.94h84.82c.52,0,.94-.42.94-.94v-21.04c0-.52-.42-.94-.94-.94h-84.82Z"/><circle class="cls-1" cx="159.88" cy="103" r="6.4"/><path class="cls-1" d="m174.66,98.73c-.59,0-1.07.48-1.07,1.06,0,.59.48,1.07,1.06,1.07h50.28c.59,0,1.07-.48,1.07-1.07s-.48-1.07-1.07-1.07h-50.27Z"/><path class="cls-1" d="m174.66,105.13c-.59,0-1.07.48-1.07,1.07s.48,1.07,1.07,1.07h21.63c.59,0,1.07-.48,1.07-1.07s-.48-1.07-1.07-1.07h-21.63Z"/><path class="cls-6" d="m127.76,105.56l-15.68,8.34-.2-6.95c5.12-.85,9.99-2.34,14.49-4.76l1.64-4.05c.57-1.41,2.17-2.08,3.58-1.52.43.17.8.45,1.09.8h0c.92,1.12.81,2.76-.24,3.75l-4.68,4.39Z"/><path class="cls-7" d="m89.44,153.7h0c-.23-.85-.09-1.76.39-2.49l3.44-5.29c1.69-2.59,5.06-3.48,7.81-2.06h0c-1.45,2.46-1.25,4.63.5,6.5-2.71,1.32-5.21,3.03-7.44,5.07-1.41.96-3.32.6-4.28-.81-.19-.28-.34-.6-.43-.92Z"/><path class="cls-7" d="m128.47,146.78h0c-1.06,1.77-2.96,2.85-5.02,2.87l-22.88.17-.99-5.76,10.12-2.98-8.53-6.55,9.33-10.92,16.94,15.79c2.04,1.9,2.47,4.97,1.04,7.36Z"/><path class="cls-7" d="m96.99,186.15h-5.36c-4.81-32.98-9.71-66.06,4.76-78.4l17.07,2.78-2.18,14.49-9.53,10.92-4.76,50.22Z"/><path class="cls-7" d="m101.7,193.62h0c-.85.23-1.76.09-2.49-.39l-5.82-.78c-2.59-1.69-3.48-5.06-2.06-7.81h0c2.46,1.45,4.63,1.25,6.5-.5,1.33,2.68,3.51,2.52,5.6,4.77.96,1.41.6,3.32-.81,4.28-.28.19-.6.34-.92.43Z"/><path class="cls-6" d="m109.69,85.72l-9.92-2.38c1.65-3.37,1.78-7.13.99-11.12l6.75-.2c.21,4.96.85,9.59,2.18,13.7Z"/><path class="cls-3" d="m112.42,116.5c-7.22,4.92-12.33.17-16.22-7.17.54-4.49-.34-9.86-1.96-15.7-1.5-5.34,1.34-10.93,6.52-12.88h0l8.53,3.57c7.25,5.91,8.67,12.31,5.95,19.05l-2.83,13.12Z"/><path class="cls-6" d="m91.63,90.68l-7.94,4.17,14.09,8.34,1.96,4.84c.53,1.31-.1,2.81-1.41,3.34-.04.02-.08.03-.13.05h0c-1.34.46-2.8-.25-3.26-1.59-.08-.22-.12-.45-.14-.69l-.2-3.37-17.91-5.91c-1.22-.4-2.19-1.35-2.63-2.56h0c-.65-1.79,0-3.79,1.57-4.87l14.4-9.88,1.59,8.14Z"/><path class="cls-3" d="m99.57,91.47c-3.31-1.45-6.32.13-10.12,1.39l-.6-10.52c3.77-2.01,7.37-2.55,10.72-.99v10.12Z"/><circle class="cls-6" cx="103.53" cy="70.89" r="6.34"/><path class="cls-7" d="m111.11,70.1c-6.27.61-11.05-.41-14.11-3.33v-2.35h13.58l.53,5.69Z"/></svg>