<svg xmlns="http://www.w3.org/2000/svg" xmlns:xlink="http://www.w3.org/1999/xlink" width="1396" height="285" viewBox="0 0 1396 285">
  <defs>
    <linearGradient id="linear-gradient" x1="1.462" y1="2.614" x2="-0.127" y2="-0.66" gradientUnits="objectBoundingBox">
      <stop offset="0" stop-color="#009dff"/>
      <stop offset="1" stop-color="#8018b7"/>
    </linearGradient>
    <clipPath id="clip-path">
      <rect id="Rectangle_2265" data-name="Rectangle 2265" width="583" height="285" transform="translate(1026 1462)" fill="#fff" stroke="#707070" stroke-width="1"/>
    </clipPath>
    <clipPath id="clip-path-2">
      <rect id="Rectangle_2258" data-name="Rectangle 2258" width="504" height="280" transform="translate(1101.545 1521)" fill="#fff" stroke="#707070" stroke-width="1"/>
    </clipPath>
    <linearGradient id="linear-gradient-2" x1="0.512" y1="0.768" x2="0.477" y2="0.011" gradientUnits="objectBoundingBox">
      <stop offset="0" stop-color="#2a66c6"/>
      <stop offset="1" stop-color="#79c3f0"/>
    </linearGradient>
    <linearGradient id="linear-gradient-3" x1="0.999" y1="1.033" x2="-0.022" y2="-0.016" xlink:href="#linear-gradient-2"/>
    <linearGradient id="linear-gradient-4" x1="0.191" y1="0.69" x2="1.375" y2="-0.037" gradientUnits="objectBoundingBox">
      <stop offset="0" stop-color="#6bbeff"/>
      <stop offset="1" stop-color="#0c3aa1"/>
    </linearGradient>
    <linearGradient id="linear-gradient-5" x1="0.787" y1="0.177" x2="-0.06" y2="1.131" xlink:href="#linear-gradient-4"/>
    <linearGradient id="linear-gradient-6" x1="0.624" y1="-0.018" x2="0.552" y2="1.361" xlink:href="#linear-gradient-4"/>
    <linearGradient id="linear-gradient-7" x1="1.032" y1="-1.593" x2="0.728" y2="4.199" xlink:href="#linear-gradient-4"/>
    <clipPath id="clip-path-3">
      <path id="Path_84832" data-name="Path 84832" d="M214.4,66c13.059,0,30.219-4.914,35.521-6.534a1.225,1.225,0,0,1,1.629,1.077V96.876c0,28.072-36.582,50.826-36.582,50.826s-36.582-22.756-36.582-50.826V62.234a1.218,1.218,0,0,1,1.552-1.1C184.983,62.344,201.343,66,214.4,66Z" transform="translate(-178.386 -59.412)" fill="none"/>
    </clipPath>
    <linearGradient id="linear-gradient-8" x1="-7.361" y1="-0.442" x2="-11.381" y2="1.632" gradientUnits="objectBoundingBox">
      <stop offset="0" stop-color="#fff"/>
      <stop offset="1"/>
    </linearGradient>
    <linearGradient id="linear-gradient-9" x1="-3.958" y1="-0.256" x2="-5.922" y2="1.172" xlink:href="#linear-gradient-8"/>
    <linearGradient id="linear-gradient-10" x1="0.788" y1="-0.073" x2="0.166" y2="1.013" gradientUnits="objectBoundingBox">
      <stop offset="0" stop-color="#ffc34e"/>
      <stop offset="1" stop-color="#fb8627"/>
    </linearGradient>
    <linearGradient id="linear-gradient-11" x1="0.751" y1="-0.158" x2="0.312" y2="1.244" xlink:href="#linear-gradient-10"/>
    <linearGradient id="linear-gradient-12" x1="0.878" y1="-0.356" x2="0.2" y2="1.022" gradientUnits="objectBoundingBox">
      <stop offset="0" stop-color="#8fd4ff"/>
      <stop offset="1" stop-color="#1355bf"/>
    </linearGradient>
    <linearGradient id="linear-gradient-13" x1="-0.336" y1="0.09" x2="1.236" y2="1.109" xlink:href="#linear-gradient-10"/>
    <linearGradient id="linear-gradient-14" x1="0.208" y1="0.285" x2="0.635" y2="0.751" xlink:href="#linear-gradient-10"/>
    <linearGradient id="linear-gradient-15" x1="-0.083" y1="1.062" x2="1.267" y2="0.127" xlink:href="#linear-gradient-10"/>
  </defs>
  <g id="Group_3391" data-name="Group 3391" transform="translate(-263 -1462)">
    <rect id="Rectangle_2256" data-name="Rectangle 2256" width="1396" height="285" rx="20" transform="translate(263 1462)" fill="url(#linear-gradient)"/>
    <path id="Rectangle_2256_-_Outline" data-name="Rectangle 2256 - Outline" d="M20,1A18.983,18.983,0,0,0,1,20V265a18.984,18.984,0,0,0,19,19H1376a18.983,18.983,0,0,0,19-19V20a18.984,18.984,0,0,0-19-19H20m0-1H1376a20,20,0,0,1,20,20V265a20,20,0,0,1-20,20H20A20,20,0,0,1,0,265V20A20,20,0,0,1,20,0Z" transform="translate(263 1462)" fill="#707070"/>
    <text id="SailPoint_Navigate_2023" data-name="SailPoint Navigate 2023" transform="translate(330 1592)" fill="#fff" font-size="59" font-family="NHaasGroteskDSPro-65Md, Neue Haas Grotesk Display Pro" font-weight="500" letter-spacing="-0.004em"><tspan x="0" y="0">SailPoint Navigate 2023</tspan></text>
    <text id="Visit_us_at_Booth_No:_1430" data-name="Visit us at Booth No: 1430" transform="translate(330 1608)" fill="#fff" font-size="24" font-family="NHaasGroteskDSPro-55Rg, Neue Haas Grotesk Display Pro"><tspan x="0" y="22">Visit us at Booth No: 1430</tspan></text>
    <text id="October_9_-12_Austin_Texas" data-name="October 9 -12 | Austin, Texas" transform="translate(330 1510)" fill="#fff" font-size="20" font-family="NHaasGroteskDSPro-65Md, Neue Haas Grotesk Display Pro" font-weight="500"><tspan x="0" y="19">OCTOBER 9 -12 | AUSTIN, TEXAS</tspan></text>
    <g id="Group_3311" data-name="Group 3311" transform="translate(-12 -35)">
      <rect id="Rectangle_2257" data-name="Rectangle 2257" width="201" height="48" rx="8" transform="translate(342 1692)" fill="#ed586e"/>
      <text id="Register_now" data-name="Register now" transform="translate(363 1702)" fill="#fff" font-size="24" font-family="NHaasGroteskDSPro-65Md, Neue Haas Grotesk Display Pro" font-weight="500"><tspan x="13.696" y="22">Register now</tspan></text>
    </g>
    <g id="Mask_Group_16" data-name="Mask Group 16" clip-path="url(#clip-path)">
      <g id="Mask_Group_15" data-name="Mask Group 15" transform="translate(-33.545 -8)" clip-path="url(#clip-path-2)">
        <g id="Wev" transform="translate(1125.588 1521)" style="isolation: isolate">
          <g id="Layer_2" data-name="Layer 2" transform="translate(0 0)">
            <g id="Слой_1" data-name="Слой 1">
              <g id="Group_3310" data-name="Group 3310">
                <g id="Group_3307" data-name="Group 3307">
                  <path id="Path_84801" data-name="Path 84801" d="M36.25,197.692S-16.563,131.03,5.7,134.208s40.542,33.78,40.542,33.78S25.118,86.072,31.952,82.275,37.224,71.1,30.229,52.062s19.522-6.683,22.831,6.665S66.717,107.3,78.723,116.26s18.092,15.417,18.092,15.417L172,65.486s23.4-25.959,37.168-30.1-9.992,23.658-8.064,25.7,46.58-55.792,59.04-44.379-26.482,43.581-26.482,43.581l102.659,5.2s45.478-.578,51.817-11.4S404.667,43.26,410.73,43.26s24.2,5.115,9.725,13.442S405.3,66.526,408,77.944s-11.312,33.02-27.4,40.53-37.8,34.393-37.8,34.393l.782,25.7s75.255-51.948,84.714-40.485-40.16,44.391-40.16,44.391.45,15.808-3.706,27.3-21.6,11.949-32.218,17.479,46.262-2.429,53.055-18.616,55.481-32.051,48.718-14.2-12.739,27.49-12.739,27.49,18.08,2.1,13.382,13.519-48.136,18.65-63.272,18.878-278.819-1.739-278.819-1.739l-76.292-54.9Z" transform="translate(0.016 1.083)" fill="#2b5dad"/>
                  <path id="Path_84802" data-name="Path 84802" d="M121.077,198.892l5.333,36.594,204.123,5.284,5.04-42.917Z" transform="translate(8.608 14.069)" fill="#1b45a1"/>
                  <g id="Group_3271" data-name="Group 3271" transform="translate(0 91.215)">
                    <path id="Path_84803" data-name="Path 84803" d="M142.941,246.147s-9.6-97.487-61.6-127.329-54.666-33.66-54.666-33.66S23.724,154.363,58.52,196.9s71.767,51.092,71.767,51.092l12.655-1.845Z" transform="translate(1.892 -85.158)" fill="url(#linear-gradient-2)"/>
                    <path id="Path_84804" data-name="Path 84804" d="M124.737,242.732s-14.429-53.3-57.435-62.746S0,182.731,0,182.731,22.768,246.874,56.149,250.6C93.765,254.793,124.737,242.732,124.737,242.732Z" transform="translate(0 -78.671)" fill="url(#linear-gradient-3)"/>
                    <path id="Path_84805" data-name="Path 84805" d="M126.812,242.368a.758.758,0,0,1-.527-.21,238.484,238.484,0,0,0-35.356-26.193C71.268,203.931,41.066,189.39,8.852,188.441A.77.77,0,1,1,8.9,186.9c14.388.424,29.571,3.535,45.128,9.251A214.329,214.329,0,0,1,91.762,214.67a240.08,240.08,0,0,1,35.578,26.366.769.769,0,0,1-.529,1.328Z" transform="translate(0.576 -77.924)" fill="#65ace4"/>
                    <path id="Path_84806" data-name="Path 84806" d="M130.074,243.053a.769.769,0,0,1-.725-.513A580.394,580.394,0,0,0,101.8,180.116c-9.833-19.222-24.484-32.77-38.653-45.871C52.211,124.132,41.881,114.578,35.132,103.4a.769.769,0,1,1,1.317-.794c6.638,10.988,16.891,20.469,27.746,30.508,14.268,13.193,29.021,26.836,38.977,46.3a582.814,582.814,0,0,1,27.628,62.61.77.77,0,0,1-.468.982.788.788,0,0,1-.257.045Z" transform="translate(2.49 -83.944)" fill="#65ace4"/>
                    <path id="Path_84807" data-name="Path 84807" d="M23.73,212.977a.769.769,0,0,1-.391-1.433,81.431,81.431,0,0,1,29.577-10.355,59.763,59.763,0,0,1,13.067-.607.769.769,0,0,1-.151,1.531,59.5,59.5,0,0,0-12.755.607,79.861,79.861,0,0,0-28.96,10.151.759.759,0,0,1-.389.106Z" transform="translate(1.632 -76.96)" fill="#65ace4"/>
                    <path id="Path_84808" data-name="Path 84808" d="M42.809,232.651a.768.768,0,0,1-.536-1.319,65.094,65.094,0,0,1,11.841-8.526,87.1,87.1,0,0,1,32.98-11.073.769.769,0,0,1,.187,1.527,85.559,85.559,0,0,0-32.393,10.876,64.641,64.641,0,0,0-11.54,8.3.768.768,0,0,1-.536.218Z" transform="translate(2.989 -76.159)" fill="#65ace4"/>
                    <path id="Path_84809" data-name="Path 84809" d="M70.674,148.425c-1.1,0-2.277-.024-3.527-.079a81.448,81.448,0,0,1-30.155-7.255.769.769,0,1,1,.643-1.4,79.887,79.887,0,0,0,29.579,7.115A62.345,62.345,0,0,0,80,146.222a.77.77,0,0,1,.283,1.513,56.952,56.952,0,0,1-9.611.692Z" transform="translate(2.598 -81.286)" fill="#65ace4"/>
                    <path id="Path_84810" data-name="Path 84810" d="M81.8,173.681a126.658,126.658,0,0,1-29.73-3.9.769.769,0,0,1,.364-1.5c16.062,3.9,27.779,4.154,34.78,3.68,7.581-.513,11.415-1.963,11.452-1.977a.769.769,0,0,1,.556,1.434c-.161.063-4.024,1.535-11.8,2.071-1.625.112-3.5.187-5.62.187Z" transform="translate(3.66 -79.249)" fill="#65ace4"/>
                  </g>
                  <path id="Path_84811" data-name="Path 84811" d="M403.768,243.606c-4.39-1.737-9.579-3.616-15.028-5.638-25.993-9.638-104.411-20.408-166.953-16.186-17.229,1.163-66.4,7.268-90.3,7.555-26.323.316-13,11.975-77.55,14.425s-34.973,8.98-8.563,15.382c17.406,4.221,67.151,2.877,117.789,1.472-1.511.2-1.336.2.89-.026,8.035-.224,16.085-.446,24.03-.65,29.561.352,72.482,3.193,104.242,3.454,42.247.348,125.28,2.562,132.593-7.2,3.692-4.93-6.337-9.369-21.153-12.588Z" transform="translate(1.074 15.703)" fill="#1b45a1"/>
                  <path id="Path_84812" data-name="Path 84812" d="M133.256,72.922a46.027,46.027,0,0,0,.289-5.129c0-.916-.029-1.824-.083-2.725l-8.475-2.741a37.226,37.226,0,0,0-3-10.153l5.62-6.915a45.838,45.838,0,0,0-4.451-6.471l-8.475,2.765a37.673,37.673,0,0,0-8.39-6.449l.481-8.905a45.323,45.323,0,0,0-7.4-2.621L94.141,30.8a37.688,37.688,0,0,0-10.579-.277l-4.846-7.489a45.461,45.461,0,0,0-7.528,2.224l.012,8.917a37.6,37.6,0,0,0-8.721,6l-8.314-3.209a45.959,45.959,0,0,0-4.789,6.225l5.247,7.2a37.189,37.189,0,0,0-3.537,9.98L42.48,62.661a46.031,46.031,0,0,0-.289,5.129c0,.916.029,1.824.083,2.725l8.475,2.741a37.227,37.227,0,0,0,3,10.153l-5.62,6.915a45.839,45.839,0,0,0,4.451,6.471l8.475-2.765a37.673,37.673,0,0,0,8.39,6.449l-.481,8.905a45.323,45.323,0,0,0,7.4,2.621l5.233-7.221a37.688,37.688,0,0,0,10.579.277l4.846,7.489a45.462,45.462,0,0,0,7.528-2.224l-.012-8.917a37.662,37.662,0,0,0,8.721-6l8.314,3.209a46.082,46.082,0,0,0,4.789-6.225l-5.247-7.2a37.188,37.188,0,0,0,3.537-9.98l8.607-2.289ZM87.867,85.708a17.915,17.915,0,1,1,17.915-17.915A17.915,17.915,0,0,1,87.867,85.708Z" transform="translate(3 1.64)" fill="url(#linear-gradient-4)"/>
                  <g id="Group_3272" data-name="Group 3272" transform="translate(317.716 152.1)">
                    <path id="Path_84813" data-name="Path 84813" d="M399.822,228.583a57.04,57.04,0,0,0,3.14-5.48q.755-1.509,1.409-3.042l-7.811-7.679a45.844,45.844,0,0,0,2.289-12.818l9.986-4.512a56.2,56.2,0,0,0-1.334-9.566l-10.843-1.623a46.335,46.335,0,0,0-5.677-11.711l5.431-9.526a55.729,55.729,0,0,0-6.693-6.956l-9.731,5.062a46.3,46.3,0,0,0-11.481-6.129L367.3,143.7a55.688,55.688,0,0,0-9.5-1.7l-4.9,9.813a46.192,46.192,0,0,0-12.89,1.8l-7.378-8.106a56.437,56.437,0,0,0-8.693,4.211l1.806,10.809a45.726,45.726,0,0,0-9.383,9.027l-10.725-2.218a57.046,57.046,0,0,0-3.14,5.48q-.754,1.509-1.409,3.042l7.811,7.679a45.843,45.843,0,0,0-2.289,12.818l-9.984,4.512a56.194,56.194,0,0,0,1.334,9.566l10.843,1.623a46.354,46.354,0,0,0,5.677,11.709l-5.431,9.526a55.729,55.729,0,0,0,6.693,6.956l9.731-5.062a46.3,46.3,0,0,0,11.481,6.129l1.206,10.9a55.66,55.66,0,0,0,9.5,1.7l4.9-9.813a46.2,46.2,0,0,0,12.89-1.8l7.378,8.106a56.346,56.346,0,0,0,8.693-4.211l-1.806-10.809a45.729,45.729,0,0,0,9.383-9.027l10.725,2.218Zm-56.953-10.921a22.032,22.032,0,1,1,29.563-9.841A22.03,22.03,0,0,1,342.869,217.661Z" transform="translate(-296.627 -142.002)" fill="url(#linear-gradient-5)"/>
                    <path id="Path_84814" data-name="Path 84814" d="M364,230.038a.907.907,0,0,1-.366-1.737,37.184,37.184,0,0,0,21.892-29.1.906.906,0,0,1,1.8.24,39,39,0,0,1-22.963,30.52.915.915,0,0,1-.364.077Z" transform="translate(-291.901 -137.991)" fill="#fff"/>
                    <path id="Path_84815" data-name="Path 84815" d="M383.6,184.179a.907.907,0,0,1-.851-.593,36.923,36.923,0,0,0-7.905-12.765.906.906,0,1,1,1.315-1.248,38.713,38.713,0,0,1,8.292,13.385.905.905,0,0,1-.851,1.218Z" transform="translate(-291.083 -140.061)" fill="#fff"/>
                    <path id="Path_84816" data-name="Path 84816" d="M366.209,164a.907.907,0,0,1-.4-.1,37.224,37.224,0,0,0-8.656-3.071.907.907,0,1,1,.391-1.77,39.118,39.118,0,0,1,9.078,3.221.907.907,0,0,1-.407,1.717Z" transform="translate(-292.375 -140.791)" fill="#fff"/>
                  </g>
                  <path id="Path_84817" data-name="Path 84817" d="M336.646,160.271a35.6,35.6,0,0,0,3.845,1.01q1.04.212,2.079.358l3.388-6.005a28.87,28.87,0,0,0,8.165-.709l4.378,5.329a35.3,35.3,0,0,0,5.594-2.378l-.79-6.856a29.123,29.123,0,0,0,6.186-5.368l6.679,1.739a35.04,35.04,0,0,0,3.13-5.207L374.63,137.1A29.168,29.168,0,0,0,376,132.422a29.686,29.686,0,0,0,.478-3.305L382.9,126.6a35.156,35.156,0,0,0-.525-6.054l-6.766-1.368a29.05,29.05,0,0,0-3.2-7.54l3.718-5.812a35.523,35.523,0,0,0-3.983-4.592l-6.274,2.869a28.785,28.785,0,0,0-7.025-4.223L358.434,93a35.6,35.6,0,0,0-3.845-1.01q-1.041-.212-2.079-.358l-3.388,6.005a28.8,28.8,0,0,0-8.164.709l-4.378-5.329a35.3,35.3,0,0,0-5.594,2.378l.79,6.856a29.123,29.123,0,0,0-6.186,5.368l-6.679-1.741a35.038,35.038,0,0,0-3.13,5.207l4.671,5.085a29.181,29.181,0,0,0-1.366,4.677,29.708,29.708,0,0,0-.478,3.305l-6.429,2.519a35.15,35.15,0,0,0,.525,6.054l6.765,1.368a29.11,29.11,0,0,0,3.2,7.54l-3.718,5.812a35.526,35.526,0,0,0,3.983,4.592l6.274-2.869a28.786,28.786,0,0,0,7.025,4.223l.409,6.881Zm-2.694-36.4a13.868,13.868,0,1,1,10.825,16.355A13.869,13.869,0,0,1,333.952,123.87Z" transform="translate(22.195 6.517)" fill="url(#linear-gradient-6)"/>
                  <path id="Path_84818" data-name="Path 84818" d="M353.8,122.361a8.334,8.334,0,1,1-9.473-7.013A8.333,8.333,0,0,1,353.8,122.361Z" transform="translate(23.976 8.196)" fill="url(#linear-gradient-7)"/>
                  <g id="Group_3275" data-name="Group 3275" transform="translate(90.317 53.147)">
                    <path id="Path_84819" data-name="Path 84819" d="M261.934,235.793v-37.94H174.047v37.94H145.472a9.6,9.6,0,0,0-9.6,9.6v2.334a3.121,3.121,0,0,0,3.122,3.122h158a3.121,3.121,0,0,0,3.122-3.122V245.4a9.6,9.6,0,0,0-9.6-9.6Z" transform="translate(-80.657 -39.078)" fill="#3b77d9"/>
                    <g id="Group_3273" data-name="Group 3273" transform="translate(93.392 162.025)">
                      <path id="Path_84820" data-name="Path 84820" d="M171.514,223.644l87.886-6.775V200.887l-87.886.931Z" transform="translate(-171.514 -200.887)" fill="#1f57b5"/>
                      <path id="Path_84821" data-name="Path 84821" d="M259.4,227.466l-87.886,6.221H259.4Z" transform="translate(-171.514 -198.997)" fill="#1f57b5"/>
                    </g>
                    <g id="Group_3274" data-name="Group 3274">
                      <path id="Path_84822" data-name="Path 84822" d="M89.423,49.617H353.892a5.1,5.1,0,0,1,5.1,5.1v157.24a5.1,5.1,0,0,1-5.1,5.1H89.423a5.1,5.1,0,0,1-5.1-5.1V54.718a5.1,5.1,0,0,1,5.1-5.1Z" transform="translate(-84.322 -49.617)" fill="#153f9c"/>
                      <rect id="Rectangle_2259" data-name="Rectangle 2259" width="259.236" height="143.672" rx="4.287" transform="translate(7.716 6.826)" fill="#9dd2f2"/>
                    </g>
                    <path id="Path_84823" data-name="Path 84823" d="M203.863,196.759h18.884a2.084,2.084,0,0,1,2.083,2.083v.255a2.084,2.084,0,0,1-2.083,2.083H203.863a2.084,2.084,0,0,1-2.083-2.083v-.255A2.084,2.084,0,0,1,203.863,196.759Z" transform="translate(-75.97 -39.156)" fill="#2a66c6"/>
                    <rect id="Rectangle_2260" data-name="Rectangle 2260" width="64.324" height="4.559" rx="2.057" transform="translate(148.859 199.412)" fill="#79c3f0"/>
                  </g>
                  <path id="Path_84824" data-name="Path 84824" d="M217.3,69.087c13.743,0,31.8-5.17,37.378-6.875a1.29,1.29,0,0,1,1.715,1.134v38.229c0,29.54-38.5,53.485-38.5,53.485s-38.5-23.945-38.5-53.485V65.12a1.284,1.284,0,0,1,1.633-1.157c5.307,1.271,22.525,5.125,36.264,5.125Z" transform="translate(12.755 4.421)" fill="#99a8c2" opacity="0.3" style="mix-blend-mode: multiply;isolation: isolate"/>
                  <g id="Group_3278" data-name="Group 3278" transform="translate(191.069 63.638)">
                    <path id="Path_84825" data-name="Path 84825" d="M214.4,66c13.059,0,30.219-4.914,35.521-6.534a1.225,1.225,0,0,1,1.629,1.077V96.876c0,28.072-36.582,50.826-36.582,50.826s-36.582-22.756-36.582-50.826V62.234a1.218,1.218,0,0,1,1.552-1.1C184.983,62.344,201.343,66,214.4,66Z" transform="translate(-178.386 -59.412)" fill="#1b45a1"/>
                    <path id="Path_84826" data-name="Path 84826" d="M214.664,71.542c9.8,0,21.98-3.215,28.1-5.75a2.748,2.748,0,0,1,3.893,2.3V97.248c0,24.549-31.992,44.448-31.992,44.448s-31.992-19.9-31.992-44.448V69.363A2.735,2.735,0,0,1,186.394,67a102.82,102.82,0,0,0,28.27,4.545Z" transform="translate(-178.082 -58.974)" fill="#316ccc"/>
                    <path id="Path_84827" data-name="Path 84827" d="M214.545,78.854v54.491S189.1,117.132,189.1,97.867V75.785a1.991,1.991,0,0,1,2.718-1.719c4.751,1.651,14.82,4.787,22.727,4.787Z" transform="translate(-177.624 -58.378)" fill="#79c3f0"/>
                    <path id="Path_84828" data-name="Path 84828" d="M212.856,78.857v54.491s26.35-16.213,26.35-35.478V75.737a1.986,1.986,0,0,0-2.684-1.729c-4.93,1.633-15.661,4.85-23.668,4.85Z" transform="translate(-175.936 -58.382)" fill="#79c3f0"/>
                    <path id="Path_84829" data-name="Path 84829" d="M203.548,91.345c.395.285.774.584,1.148.884s.741.6,1.093.933.705.658,1.051,1c.171.169.35.338.515.511l.491.525c.33.348.65.705.969,1.063s.613.735.922,1.1.6.751.886,1.132c.145.191.289.383.432.576s.287.385.421.584c.273.393.542.79.812,1.189s.517.81.77,1.216.5.823.733,1.242l.354.629c.116.212.224.426.334.641s.222.426.328.645l.308.656c.2.436.395.884.578,1.334s.354.906.515,1.372c.081.232.157.466.234.705.037.122.077.234.114.362l.116.4-5.042-.3c.1-.189.189-.344.287-.511l.287-.487c.193-.322.385-.643.582-.961l1.189-1.892,2.385-3.753q1.2-1.866,2.486-3.68c.851-1.212,1.745-2.4,2.655-3.564s1.863-2.307,2.845-3.417,2-2.191,3.059-3.232a43.545,43.545,0,0,1,3.327-2.957c.576-.466,1.173-.908,1.784-1.328s1.232-.821,1.875-1.187a.273.273,0,0,1,.314.444q-.825.707-1.594,1.462c-.513.5-1.006,1.026-1.487,1.556s-.949,1.075-1.4,1.631-.892,1.12-1.326,1.69c-.865,1.142-1.686,2.317-2.472,3.513-.391.6-.78,1.2-1.159,1.808s-.751,1.22-1.116,1.837c-.737,1.228-1.436,2.48-2.13,3.732s-1.36,2.521-2.012,3.8c-.326.639-.647,1.277-.957,1.922s-.605,1.3-.89,1.955-.56,1.317-.827,1.977l-.4.988-.377.965-2.315,5.917-2.729-6.219-1.03-2.346c-.092-.2-.179-.4-.265-.607s-.183-.4-.267-.609l-.525-1.228-2.1-4.967c-.173-.419-.364-.829-.534-1.252l-.263-.631-.271-.627c-.177-.422-.362-.839-.533-1.267s-.367-.841-.54-1.271-.35-.861-.531-1.283-.352-.859-.523-1.295-.358-.88-.529-1.326-.34-.9-.491-1.364a.284.284,0,0,1,.185-.36.291.291,0,0,1,.255.039Z" transform="translate(-176.629 -57.754)" fill="#2a66c6"/>
                    <g id="Group_3277" data-name="Group 3277" clip-path="url(#clip-path-3)">
                      <g id="Group_3276" data-name="Group 3276" transform="translate(-4.588 -2.75)" style="mix-blend-mode: overlay;isolation: isolate">
                        <path id="Path_84830" data-name="Path 84830" d="M188.761,95.774c3.376,11.008,5.288,28.386,6.184,38.661-9.434-8.8-18.8-19.17-19.273-24.592-.589-6.781-1.747-26.335-1.546-39.927,3.9,4.633,11.071,14.24,14.633,25.857Z" transform="translate(-174.103 -55.914)" fill="url(#linear-gradient-8)"/>
                        <path id="Path_84831" data-name="Path 84831" d="M206.4,118.7c-2.769-12.837-10.721-44.878-32.019-54.815.312-4.233.9-6.964,1.873-7.023,3.9-.236,8.512,2.01,8.512,2.01,20.807-.118,30.974,31.448,31.921,36.887s-.118,53.461-2.128,54.75c-.438.281-2.494-.941-5.449-3.134-.075-5.775-.5-18.447-2.708-28.675Z" transform="translate(-174.083 -56.844)" fill="url(#linear-gradient-9)"/>
                      </g>
                    </g>
                  </g>
                  <g id="Group_3285" data-name="Group 3285" transform="translate(291.676 79.032)">
                    <path id="Path_84833" data-name="Path 84833" d="M345.329,77.967H278.424a1.927,1.927,0,0,0-1.922,1.922v9.764a1.927,1.927,0,0,0,1.922,1.922h66.906V77.969Z" transform="translate(-272.018 -73.486)" fill="#99a8c2" opacity="0.5" style="mix-blend-mode: multiply;isolation: isolate"/>
                    <path id="Path_84834" data-name="Path 84834" d="M274.4,73.784h90.755a2.084,2.084,0,0,1,2.083,2.083v9.44a2.084,2.084,0,0,1-2.083,2.083H274.4a2.084,2.084,0,0,1-2.083-2.083v-9.44a2.084,2.084,0,0,1,2.083-2.083Z" transform="translate(-272.315 -73.784)" fill="#316ccc"/>
                    <path id="Path_84835" data-name="Path 84835" d="M276.255,76.073h86.717a1.623,1.623,0,0,1,1.621,1.621v5.457a1.623,1.623,0,0,1-1.621,1.621H276.255a1.623,1.623,0,0,1-1.621-1.621V77.694A1.623,1.623,0,0,1,276.255,76.073Z" transform="translate(-272.151 -73.621)" fill="#fff"/>
                    <g id="Group_3284" data-name="Group 3284" transform="translate(10.174 3.73)">
                      <g id="Group_3279" data-name="Group 3279">
                        <path id="Path_84836" data-name="Path 84836" d="M284.222,83.033a.723.723,0,0,1-.721-.721V77.987a.721.721,0,1,1,1.442,0v4.325A.723.723,0,0,1,284.222,83.033Z" transform="translate(-281.695 -77.266)" fill="#316ccc"/>
                        <path id="Path_84837" data-name="Path 84837" d="M286.751,81.669a.722.722,0,0,1-1,.206L282.139,79.5a.721.721,0,0,1,.792-1.2l3.614,2.376A.722.722,0,0,1,286.751,81.669Z" transform="translate(-281.814 -77.201)" fill="#316ccc"/>
                        <path id="Path_84838" data-name="Path 84838" d="M281.968,81.729a.721.721,0,0,1,.183-1l3.557-2.462a.721.721,0,1,1,.821,1.185l-3.557,2.462a.721.721,0,0,1-1-.183Z" transform="translate(-281.813 -77.204)" fill="#316ccc"/>
                      </g>
                      <g id="Group_3280" data-name="Group 3280" transform="translate(10.129)">
                        <path id="Path_84839" data-name="Path 84839" d="M293.679,83.033a.723.723,0,0,1-.721-.721V77.987a.721.721,0,1,1,1.442,0v4.325A.723.723,0,0,1,293.679,83.033Z" transform="translate(-291.152 -77.266)" fill="#316ccc"/>
                        <path id="Path_84840" data-name="Path 84840" d="M296.208,81.669a.722.722,0,0,1-1,.206L291.6,79.5a.721.721,0,1,1,.792-1.2L296,80.671A.722.722,0,0,1,296.208,81.669Z" transform="translate(-291.272 -77.201)" fill="#316ccc"/>
                        <path id="Path_84841" data-name="Path 84841" d="M291.427,81.729a.721.721,0,0,1,.183-1l3.557-2.462a.72.72,0,0,1,.819,1.185l-3.557,2.462A.721.721,0,0,1,291.427,81.729Z" transform="translate(-291.27 -77.204)" fill="#316ccc"/>
                      </g>
                      <g id="Group_3281" data-name="Group 3281" transform="translate(20.261)">
                        <path id="Path_84842" data-name="Path 84842" d="M303.138,83.033a.723.723,0,0,1-.721-.721V77.987a.721.721,0,0,1,1.442,0v4.325A.723.723,0,0,1,303.138,83.033Z" transform="translate(-300.611 -77.266)" fill="#316ccc"/>
                        <path id="Path_84843" data-name="Path 84843" d="M305.667,81.669a.722.722,0,0,1-1,.206L301.055,79.5a.721.721,0,1,1,.792-1.2l3.614,2.376A.722.722,0,0,1,305.667,81.669Z" transform="translate(-300.731 -77.201)" fill="#316ccc"/>
                        <path id="Path_84844" data-name="Path 84844" d="M300.886,81.729a.721.721,0,0,1,.183-1l3.557-2.462a.72.72,0,1,1,.819,1.185l-3.557,2.462A.721.721,0,0,1,300.886,81.729Z" transform="translate(-300.729 -77.204)" fill="#316ccc"/>
                      </g>
                      <g id="Group_3282" data-name="Group 3282" transform="translate(30.392)">
                        <path id="Path_84845" data-name="Path 84845" d="M312.6,83.033a.723.723,0,0,1-.721-.721V77.987a.721.721,0,0,1,1.442,0v4.325A.723.723,0,0,1,312.6,83.033Z" transform="translate(-310.07 -77.266)" fill="#316ccc"/>
                        <path id="Path_84846" data-name="Path 84846" d="M315.126,81.669a.722.722,0,0,1-1,.206L310.514,79.5a.721.721,0,1,1,.792-1.2l3.614,2.376A.722.722,0,0,1,315.126,81.669Z" transform="translate(-310.189 -77.201)" fill="#316ccc"/>
                        <path id="Path_84847" data-name="Path 84847" d="M310.345,81.729a.721.721,0,0,1,.183-1l3.557-2.462a.72.72,0,1,1,.819,1.185l-3.557,2.462A.721.721,0,0,1,310.345,81.729Z" transform="translate(-310.187 -77.204)" fill="#316ccc"/>
                      </g>
                      <g id="Group_3283" data-name="Group 3283" transform="translate(40.524)">
                        <path id="Path_84848" data-name="Path 84848" d="M322.056,83.033a.723.723,0,0,1-.721-.721V77.987a.721.721,0,0,1,1.442,0v4.325A.723.723,0,0,1,322.056,83.033Z" transform="translate(-319.529 -77.266)" fill="#316ccc"/>
                        <path id="Path_84849" data-name="Path 84849" d="M324.585,81.669a.722.722,0,0,1-1,.206L319.973,79.5a.721.721,0,1,1,.792-1.2l3.614,2.376A.722.722,0,0,1,324.585,81.669Z" transform="translate(-319.648 -77.201)" fill="#316ccc"/>
                        <path id="Path_84850" data-name="Path 84850" d="M319.8,81.729a.721.721,0,0,1,.183-1l3.557-2.462a.72.72,0,1,1,.819,1.185l-3.557,2.462A.721.721,0,0,1,319.8,81.729Z" transform="translate(-319.646 -77.204)" fill="#316ccc"/>
                      </g>
                    </g>
                    <path id="Path_84851" data-name="Path 84851" d="M335.57,82.264h-6.058a.481.481,0,0,1-.479-.479h0a.481.481,0,0,1,.479-.479h6.058a.481.481,0,0,1,.479.479h0A.481.481,0,0,1,335.57,82.264Z" transform="translate(-268.283 -73.249)" fill="#316ccc"/>
                    <path id="Path_84852" data-name="Path 84852" d="M345.221,82.264h-6.058a.481.481,0,0,1-.479-.479h0a.481.481,0,0,1,.479-.479h6.058a.481.481,0,0,1,.479.479h0A.481.481,0,0,1,345.221,82.264Z" transform="translate(-267.597 -73.249)" fill="#316ccc"/>
                    <path id="Path_84853" data-name="Path 84853" d="M354.424,82.264h-6.058a.481.481,0,0,1-.479-.479h0a.481.481,0,0,1,.479-.479h6.058a.481.481,0,0,1,.479.479h0A.481.481,0,0,1,354.424,82.264Z" transform="translate(-266.943 -73.249)" fill="#316ccc"/>
                  </g>
                  <g id="Group_3293" data-name="Group 3293" transform="translate(102.71 34.621)">
                    <path id="Path_84854" data-name="Path 84854" d="M151.827,123.417l-22,22a1.93,1.93,0,0,1-2.721,0l-22-22a1.93,1.93,0,0,1,0-2.722l22-22a1.93,1.93,0,0,1,2.721,0l22,22A1.93,1.93,0,0,1,151.827,123.417Z" transform="translate(-95.277 -27.642)" fill="#fff"/>
                    <path id="Path_84855" data-name="Path 84855" d="M150.1,123.213l-20.471,20.471a1.8,1.8,0,0,1-2.533,0L106.62,123.213a1.8,1.8,0,0,1,0-2.533l20.471-20.471a1.8,1.8,0,0,1,2.533,0L150.1,120.68A1.8,1.8,0,0,1,150.1,123.213Z" transform="translate(-95.166 -27.532)" fill="#79c3f0"/>
                    <path id="Path_84856" data-name="Path 84856" d="M106.575,118.593h43.774a1.939,1.939,0,0,1,1.937,1.937v25.906a1.939,1.939,0,0,1-1.937,1.937H106.575a1.939,1.939,0,0,1-1.937-1.937V120.53A1.939,1.939,0,0,1,106.575,118.593Z" transform="translate(-95.27 -26.187)" fill="#fff"/>
                    <path id="Path_84857" data-name="Path 84857" d="M152.286,120.251c0-.914.075-.9-.835-1.486a2.557,2.557,0,0,0-.953-.179c-47.264,0-44.379-.084-45.028.179-.882.562-.835.538-.835,1.486.206.409-1.328-.658,22.464,14.537a2.764,2.764,0,0,0,2.722,0c23.794-15.2,22.257-14.128,22.464-14.537Z" transform="translate(-95.27 -26.189)" fill="#79c3f0" opacity="0.3"/>
                    <g id="Group_3286" data-name="Group 3286" transform="translate(33.122 63.978)">
                      <path id="Path_84858" data-name="Path 84858" d="M146.618,98.765c0,3.708-4.433,6.712-9.9,6.712s-9.9-3-9.9-6.712,4.433-6.712,9.9-6.712S146.618,95.057,146.618,98.765Z" transform="translate(-126.815 -92.052)" fill="#3973cf"/>
                      <path id="Path_84859" data-name="Path 84859" d="M132.528,100.554h7.838a1.939,1.939,0,0,1,1.937,1.937v3.867a1.939,1.939,0,0,1-1.937,1.937h-7.838a1.939,1.939,0,0,1-1.937-1.937v-3.867A1.939,1.939,0,0,1,132.528,100.554Z" transform="translate(-126.547 -91.448)" fill="#3973cf"/>
                      <path id="Path_84860" data-name="Path 84860" d="M135.5,97.481c0,1.645-1.089,4.624-2.433,4.624s-2.423-1.348-2.879-2.928c-.645-2.234.745-3.15,2.036-3.523,1.539-.446,3.276.185,3.276,1.829Z" transform="translate(-126.587 -91.806)" fill="#1b45a1"/>
                      <path id="Path_84861" data-name="Path 84861" d="M136.694,97.481c0,1.645,1.089,4.624,2.433,4.624s2.423-1.348,2.879-2.928c.645-2.234-.745-3.15-2.036-3.523-1.539-.446-3.276.185-3.276,1.829Z" transform="translate(-126.113 -91.806)" fill="#1b45a1"/>
                      <path id="Path_84862" data-name="Path 84862" d="M136.134,100.924c1.092,0,1.44,3.623.943,3.773a2.879,2.879,0,0,1-1.936,0C134.745,104.4,135.34,100.924,136.134,100.924Z" transform="translate(-126.232 -91.422)" fill="#1b45a1"/>
                    </g>
                    <g id="Group_3287" data-name="Group 3287" transform="translate(12.967 43.664)">
                      <path id="Path_84863" data-name="Path 84863" d="M128.827,80.147c0,3.9-4.663,7.06-10.414,7.06S108,84.045,108,80.147s4.663-7.06,10.414-7.06S128.827,76.246,128.827,80.147Z" transform="translate(-107.998 -73.087)" fill="#3973cf"/>
                      <path id="Path_84864" data-name="Path 84864" d="M114.008,82.028h8.245a2.04,2.04,0,0,1,2.038,2.038v4.069a2.04,2.04,0,0,1-2.038,2.038h-8.245a2.04,2.04,0,0,1-2.038-2.038V84.068a2.04,2.04,0,0,1,2.038-2.038Z" transform="translate(-107.716 -72.451)" fill="#3973cf"/>
                      <path id="Path_84865" data-name="Path 84865" d="M117.128,78.8c0,1.729-1.146,4.861-2.558,4.861s-2.549-1.419-3.028-3.081c-.678-2.35.784-3.313,2.14-3.706,1.619-.47,3.447.195,3.447,1.924Z" transform="translate(-107.759 -72.828)" fill="#1b45a1"/>
                      <path id="Path_84866" data-name="Path 84866" d="M118.389,78.8c0,1.729,1.146,4.861,2.558,4.861s2.549-1.419,3.028-3.081c.678-2.35-.784-3.313-2.14-3.706-1.619-.47-3.447.195-3.447,1.924Z" transform="translate(-107.259 -72.828)" fill="#1b45a1"/>
                      <path id="Path_84867" data-name="Path 84867" d="M117.8,82.419c1.148,0,1.513,3.81.992,3.967a3.025,3.025,0,0,1-2.036,0C116.336,86.074,116.963,82.419,117.8,82.419Z" transform="translate(-107.385 -72.423)" fill="#1b45a1"/>
                    </g>
                    <g id="Group_3288" data-name="Group 3288" transform="translate(54.959 43.636)">
                      <path id="Path_84868" data-name="Path 84868" d="M158.3,76.822c0,2.077-2.484,3.759-5.547,3.759S147.2,78.9,147.2,76.822s2.484-3.761,5.547-3.761S158.3,74.745,158.3,76.822Z" transform="translate(-147.203 -73.061)" fill="#3973cf"/>
                      <path id="Path_84869" data-name="Path 84869" d="M150.4,77.824H154.8a1.084,1.084,0,0,1,1.085,1.085v2.167A1.084,1.084,0,0,1,154.8,82.16H150.4a1.084,1.084,0,0,1-1.085-1.085V78.908A1.086,1.086,0,0,1,150.4,77.824Z" transform="translate(-147.052 -72.722)" fill="#3973cf"/>
                      <path id="Path_84870" data-name="Path 84870" d="M152.066,76.1c0,.922-.609,2.59-1.362,2.59s-1.358-.755-1.613-1.641a1.45,1.45,0,0,1,1.14-1.975C151.093,74.827,152.066,75.181,152.066,76.1Z" transform="translate(-147.075 -72.923)" fill="#1b45a1"/>
                      <path id="Path_84871" data-name="Path 84871" d="M152.737,76.1c0,.922.609,2.59,1.362,2.59s1.358-.755,1.613-1.641a1.45,1.45,0,0,0-1.14-1.975C153.71,74.827,152.737,75.181,152.737,76.1Z" transform="translate(-146.809 -72.923)" fill="#1b45a1"/>
                      <path id="Path_84872" data-name="Path 84872" d="M152.423,78.031c.611,0,.806,2.03.529,2.112a1.616,1.616,0,0,1-1.085,0C151.645,79.976,151.979,78.031,152.423,78.031Z" transform="translate(-146.876 -72.708)" fill="#1b45a1"/>
                    </g>
                    <g id="Group_3289" data-name="Group 3289" transform="translate(18.459 81.824)">
                      <ellipse id="Ellipse_71" data-name="Ellipse 71" cx="5.547" cy="3.759" rx="5.547" ry="3.759" fill="#3973cf"/>
                      <path id="Path_84873" data-name="Path 84873" d="M116.328,113.476h4.392a1.084,1.084,0,0,1,1.085,1.085v2.167a1.084,1.084,0,0,1-1.085,1.085h-4.392a1.084,1.084,0,0,1-1.085-1.085v-2.167A1.084,1.084,0,0,1,116.328,113.476Z" transform="translate(-112.975 -108.375)" fill="#3973cf"/>
                      <path id="Path_84874" data-name="Path 84874" d="M117.989,111.753c0,.922-.609,2.59-1.362,2.59s-1.358-.755-1.613-1.641a1.45,1.45,0,0,1,1.14-1.975C117.016,110.478,117.989,110.832,117.989,111.753Z" transform="translate(-112.998 -108.576)" fill="#1b45a1"/>
                      <path id="Path_84875" data-name="Path 84875" d="M118.663,111.753c0,.922.609,2.59,1.362,2.59s1.358-.755,1.613-1.641a1.45,1.45,0,0,0-1.14-1.975C119.635,110.478,118.663,110.832,118.663,111.753Z" transform="translate(-112.732 -108.576)" fill="#1b45a1"/>
                      <path id="Path_84876" data-name="Path 84876" d="M118.346,113.684c.611,0,.806,2.03.529,2.112a1.616,1.616,0,0,1-1.085,0C117.568,115.629,117.9,113.684,118.346,113.684Z" transform="translate(-112.799 -108.36)" fill="#1b45a1"/>
                    </g>
                    <g id="Group_3290" data-name="Group 3290" transform="translate(27.81 13.266)">
                      <ellipse id="Ellipse_72" data-name="Ellipse 72" cx="12.969" cy="8.791" rx="12.969" ry="8.791" fill="#3973cf"/>
                      <path id="Path_84877" data-name="Path 84877" d="M129.339,55.84h10.267a2.538,2.538,0,0,1,2.537,2.537v5.066a2.538,2.538,0,0,1-2.537,2.537H129.339a2.538,2.538,0,0,1-2.537-2.537V58.377A2.538,2.538,0,0,1,129.339,55.84Z" transform="translate(-121.505 -43.915)" fill="#3973cf"/>
                      <path id="Path_84878" data-name="Path 84878" d="M133.226,51.816c0,2.154-1.427,6.054-3.185,6.054s-3.173-1.767-3.771-3.836c-.845-2.926.977-4.125,2.665-4.616,2.014-.586,4.29.242,4.29,2.4Z" transform="translate(-121.558 -44.384)" fill="#1b45a1"/>
                      <path id="Path_84879" data-name="Path 84879" d="M134.8,51.816c0,2.154,1.427,6.054,3.185,6.054s3.171-1.767,3.771-3.836c.845-2.926-.977-4.125-2.665-4.616-2.016-.586-4.29.242-4.29,2.4Z" transform="translate(-120.937 -44.384)" fill="#1b45a1"/>
                      <path id="Path_84880" data-name="Path 84880" d="M134.062,56.326c1.43,0,1.884,4.745,1.236,4.94a3.762,3.762,0,0,1-2.535,0c-.521-.389.259-4.94,1.3-4.94Z" transform="translate(-121.093 -43.88)" fill="#1b45a1"/>
                    </g>
                    <path id="Path_84881" data-name="Path 84881" d="M146.573,140.275H130.505a.483.483,0,1,1,0-.967h16.068a.483.483,0,1,1,0,.967Z" transform="translate(-93.465 -24.715)" fill="#3973cf"/>
                    <path id="Path_84882" data-name="Path 84882" d="M146.573,142.22H130.505a.483.483,0,1,1,0-.967h16.068a.483.483,0,1,1,0,.967Z" transform="translate(-93.465 -24.576)" fill="#3973cf"/>
                    <g id="Group_3291" data-name="Group 3291" transform="translate(21.963)">
                      <path id="Path_84883" data-name="Path 84883" d="M135.021,65.086a14.871,14.871,0,1,1,14.871-14.871A14.888,14.888,0,0,1,135.021,65.086Zm0-27.567a12.7,12.7,0,1,0,12.7,12.7,12.709,12.709,0,0,0-12.7-12.7Z" transform="translate(-116.13 -32.106)" fill="#fb8627"/>
                      <path id="Path_84884" data-name="Path 84884" d="M134.442,55.785a6.146,6.146,0,1,1,6.146-6.146A6.153,6.153,0,0,1,134.442,55.785Zm0-10.12a3.971,3.971,0,1,0,3.971,3.971A3.975,3.975,0,0,0,134.442,45.665Z" transform="translate(-115.551 -31.527)" fill="#fb8627"/>
                      <path id="Path_84885" data-name="Path 84885" d="M152.942,50.389H117.483a1.087,1.087,0,1,1,0-2.173h35.458a1.087,1.087,0,1,1,0,2.173Z" transform="translate(-116.397 -31.191)" fill="#fb8627"/>
                      <path id="Path_84886" data-name="Path 84886" d="M134.106,68.219a1.086,1.086,0,0,1-1.087-1.087V33.408a1.087,1.087,0,0,1,2.173,0V67.133A1.086,1.086,0,0,1,134.106,68.219Z" transform="translate(-115.215 -32.321)" fill="#fb8627"/>
                    </g>
                    <g id="Group_3292" data-name="Group 3292" transform="translate(0 43.031)">
                      <path id="Path_84887" data-name="Path 84887" d="M112.3,101.4A13.132,13.132,0,1,1,125.436,88.27,13.147,13.147,0,0,1,112.3,101.4Zm0-24.089A10.957,10.957,0,1,0,123.261,88.27,10.968,10.968,0,0,0,112.3,77.313Z" transform="translate(-95.659 -72.308)" fill="#fb8627"/>
                      <path id="Path_84888" data-name="Path 84888" d="M111.8,93.273a5.508,5.508,0,1,1,5.508-5.508A5.514,5.514,0,0,1,111.8,93.273Zm0-8.842a3.335,3.335,0,1,0,3.333,3.335A3.338,3.338,0,0,0,111.8,84.431Z" transform="translate(-95.153 -71.802)" fill="#fb8627"/>
                      <path id="Path_84889" data-name="Path 84889" d="M127.963,88.559H96.979a1.087,1.087,0,0,1,0-2.173h30.984a1.087,1.087,0,1,1,0,2.173Z" transform="translate(-95.892 -71.508)" fill="#fb8627"/>
                      <path id="Path_84890" data-name="Path 84890" d="M111.5,104.14a1.086,1.086,0,0,1-1.087-1.087V73.583a1.087,1.087,0,0,1,2.173,0v29.471A1.086,1.086,0,0,1,111.5,104.14Z" transform="translate(-94.859 -72.496)" fill="#fb8627"/>
                    </g>
                  </g>
                  <g id="Group_3295" data-name="Group 3295" transform="translate(257.191 157.199)">
                    <path id="Path_84891" data-name="Path 84891" d="M241.538,146.762h66.137a1.419,1.419,0,0,1,1.419,1.419v28.335a1.419,1.419,0,0,1-1.419,1.419H241.538a1.419,1.419,0,0,1-1.419-1.419V148.181A1.419,1.419,0,0,1,241.538,146.762Z" transform="translate(-240.119 -146.762)" fill="#3aa1e0"/>
                    <path id="Path_84892" data-name="Path 84892" d="M243.026,154.407h62.911a1.146,1.146,0,0,1,1.146,1.146V174.78a1.146,1.146,0,0,1-1.146,1.146H243.026a1.146,1.146,0,0,1-1.146-1.146V155.553A1.146,1.146,0,0,1,243.026,154.407Z" transform="translate(-239.994 -146.219)" fill="#fff"/>
                    <g id="Group_3294" data-name="Group 3294" transform="translate(2.845 2.291)">
                      <path id="Path_84893" data-name="Path 84893" d="M243.41,148.9h1.432a.636.636,0,0,1,.635.635V150.7a.636.636,0,0,1-.635.635H243.41a.636.636,0,0,1-.635-.635v-1.163a.636.636,0,0,1,.635-.635Z" transform="translate(-242.775 -148.901)" fill="#fff"/>
                      <path id="Path_84894" data-name="Path 84894" d="M248,148.9h1.432a.636.636,0,0,1,.635.635V150.7a.636.636,0,0,1-.635.635H248a.636.636,0,0,1-.635-.635v-1.161A.636.636,0,0,1,248,148.9Z" transform="translate(-242.449 -148.901)" fill="#fff"/>
                      <rect id="Rectangle_2261" data-name="Rectangle 2261" width="2.702" height="2.433" rx="0.593" transform="translate(9.825 0.002)" fill="#fff"/>
                    </g>
                    <path id="Path_84895" data-name="Path 84895" d="M302.637,158.947H268.148a1.032,1.032,0,1,1,0-2.063h34.489a1.032,1.032,0,1,1,0,2.063Z" transform="translate(-238.2 -146.043)" fill="#3aa1e0"/>
                    <path id="Path_84896" data-name="Path 84896" d="M278.418,173.808H243.928a1.032,1.032,0,1,1,0-2.063h34.489a1.032,1.032,0,0,1,0,2.063Z" transform="translate(-239.922 -144.986)" fill="#3aa1e0"/>
                    <path id="Path_84897" data-name="Path 84897" d="M278.712,171.745h3.509a.384.384,0,0,1,.383.383v1.3a.384.384,0,0,1-.383.383h-3.509a.384.384,0,0,1-.383-.383v-1.3A.384.384,0,0,1,278.712,171.745Z" transform="translate(-237.402 -144.986)" fill="#3aa1e0"/>
                    <path id="Path_84898" data-name="Path 84898" d="M283.735,171.745h3.509a.384.384,0,0,1,.383.383v1.3a.384.384,0,0,1-.383.383h-3.509a.384.384,0,0,1-.383-.383v-1.3A.384.384,0,0,1,283.735,171.745Z" transform="translate(-237.045 -144.986)" fill="#3aa1e0"/>
                    <path id="Path_84899" data-name="Path 84899" d="M304.425,163.1H247.313a.7.7,0,1,1,0-1.4h57.112a.7.7,0,1,1,0,1.4Z" transform="translate(-239.657 -145.7)" fill="#3aa1e0"/>
                    <path id="Path_84900" data-name="Path 84900" d="M304.425,165.922H247.313a.7.7,0,1,1,0-1.4h57.112a.7.7,0,1,1,0,1.4Z" transform="translate(-239.657 -145.5)" fill="#3aa1e0"/>
                  </g>
                  <g id="Group_3298" data-name="Group 3298" transform="translate(279.201 108.202)">
                    <g id="Group_3297" data-name="Group 3297">
                      <path id="Path_84901" data-name="Path 84901" d="M269.679,115.187h-4.964a3.884,3.884,0,0,1-3.879-3.879v-4.964a3.884,3.884,0,0,1,3.879-3.879h4.964a3.884,3.884,0,0,1,3.879,3.879v4.964A3.884,3.884,0,0,1,269.679,115.187Zm-4.964-10.546a1.706,1.706,0,0,0-1.7,1.7v4.964a1.706,1.706,0,0,0,1.7,1.7h4.964a1.706,1.706,0,0,0,1.7-1.7v-4.964a1.706,1.706,0,0,0-1.7-1.7Z" transform="translate(-260.656 -100.915)" fill="#316ccc"/>
                      <g id="Group_3296" data-name="Group 3296" transform="translate(0 22.461)" opacity="0.8">
                        <path id="Path_84902" data-name="Path 84902" d="M269.691,135.071h-4.964a4.065,4.065,0,0,1-4.06-4.06v-4.964a4.065,4.065,0,0,1,4.06-4.06h4.964a4.065,4.065,0,0,1,4.06,4.06v4.964A4.065,4.065,0,0,1,269.691,135.071Zm-4.964-10.546a1.525,1.525,0,0,0-1.523,1.523v4.964a1.525,1.525,0,0,0,1.523,1.523h4.964a1.525,1.525,0,0,0,1.523-1.523v-4.964a1.525,1.525,0,0,0-1.523-1.523Z" transform="translate(-260.668 -121.989)" fill="#316ccc"/>
                      </g>
                      <path id="Path_84903" data-name="Path 84903" d="M267.374,112.5h-.053a1.086,1.086,0,0,1-.81-.424l-3.566-4.653a1.087,1.087,0,1,1,1.725-1.322l2.784,3.633,7.809-8.367a1.087,1.087,0,1,1,1.59,1.484l-8.685,9.3A1.092,1.092,0,0,1,267.374,112.5Z" transform="translate(-260.522 -101.018)" fill="#fb8627"/>
                      <path id="Path_84904" data-name="Path 84904" d="M267.374,132.189h-.053a1.086,1.086,0,0,1-.81-.424l-3.566-4.653a1.087,1.087,0,1,1,1.725-1.322l2.784,3.633,7.809-8.367a1.087,1.087,0,1,1,1.59,1.484l-8.685,9.3A1.092,1.092,0,0,1,267.374,132.189Z" transform="translate(-260.522 -99.618)" fill="#fb8627"/>
                    </g>
                    <path id="Path_84905" data-name="Path 84905" d="M280.549,107.481h37.482a1.187,1.187,0,0,0,0-2.374H280.549a1.187,1.187,0,1,0,0,2.374Z" transform="translate(-259.339 -100.727)" fill="#316ccc"/>
                    <path id="Path_84906" data-name="Path 84906" d="M280.549,111.819h27.879a1.187,1.187,0,1,0,0-2.374H280.549a1.187,1.187,0,1,0,0,2.374Z" transform="translate(-259.339 -100.419)" fill="#316ccc"/>
                    <path id="Path_84907" data-name="Path 84907" d="M280.549,127.193h37.482a1.187,1.187,0,0,0,0-2.374H280.549a1.187,1.187,0,1,0,0,2.374Z" transform="translate(-259.339 -99.326)" fill="#316ccc"/>
                    <path id="Path_84908" data-name="Path 84908" d="M280.549,131.532H313.39a1.187,1.187,0,1,0,0-2.374H280.549a1.187,1.187,0,1,0,0,2.374Z" transform="translate(-259.339 -99.017)" fill="#316ccc"/>
                  </g>
                  <g id="Group_3301" data-name="Group 3301" transform="translate(166.955 160.708)">
                    <g id="Group_3299" data-name="Group 3299" transform="translate(13.67)">
                      <path id="Path_84909" data-name="Path 84909" d="M169.329,150.039h40.848a.694.694,0,0,1,.694.694V173.5a.694.694,0,0,1-.694.694H169.329a.694.694,0,0,1-.694-.694V150.732A.694.694,0,0,1,169.329,150.039Z" transform="translate(-168.636 -150.039)" fill="#3aa1e0"/>
                      <path id="Path_84910" data-name="Path 84910" d="M170.148,151.031h39.087a.647.647,0,0,1,.647.646v20.729a.647.647,0,0,1-.647.646H170.148a.647.647,0,0,1-.646-.646V151.678a.649.649,0,0,1,.648-.648Z" transform="translate(-168.574 -149.968)" fill="#fff"/>
                      <rect id="Rectangle_2262" data-name="Rectangle 2262" width="38.15" height="19.324" rx="0.679" transform="translate(2.044 2.413)" fill="#3aa1e0"/>
                      <path id="Path_84911" data-name="Path 84911" d="M195.5,161.757a6.7,6.7,0,1,1-6.7-6.7A6.706,6.706,0,0,1,195.5,161.757Z" transform="translate(-167.679 -149.682)" fill="#fff"/>
                      <path id="Path_84912" data-name="Path 84912" d="M194.508,161.7a5.773,5.773,0,1,1-5.773-5.773A5.772,5.772,0,0,1,194.508,161.7Z" transform="translate(-167.617 -149.621)" fill="#3aa1e0"/>
                      <path id="Path_84913" data-name="Path 84913" d="M191.29,161.186l-2.11,1.218-2.11,1.218v-4.873l2.11,1.218Z" transform="translate(-167.325 -149.42)" fill="#fff"/>
                    </g>
                    <path id="Path_84914" data-name="Path 84914" d="M200.189,157.564H168.638v15.4a.694.694,0,0,0,.694.694h31.552v-15.4A.694.694,0,0,0,200.189,157.564Z" transform="translate(-154.965 -149.504)" fill="#99a8c2" opacity="0.5" style="mix-blend-mode: multiply;isolation: isolate"/>
                    <g id="Group_3300" data-name="Group 3300" transform="translate(0 9.342)">
                      <path id="Path_84915" data-name="Path 84915" d="M156.566,158.76h40.848a.694.694,0,0,1,.694.694v22.764a.694.694,0,0,1-.694.694H156.566a.694.694,0,0,1-.694-.694V159.454A.694.694,0,0,1,156.566,158.76Z" transform="translate(-155.873 -158.76)" fill="#3aa1e0"/>
                      <path id="Path_84916" data-name="Path 84916" d="M157.385,159.753h39.087a.647.647,0,0,1,.646.646v20.729a.647.647,0,0,1-.646.646H157.385a.647.647,0,0,1-.646-.646V160.4a.649.649,0,0,1,.648-.648Z" transform="translate(-155.811 -158.69)" fill="#fff"/>
                      <path id="Path_84917" data-name="Path 84917" d="M158.508,161.013H195.2a.728.728,0,0,1,.727.727v17.868a.728.728,0,0,1-.727.727H158.508a.73.73,0,0,1-.729-.729V161.738a.73.73,0,0,1,.729-.729Z" transform="translate(-155.737 -158.6)" fill="#3aa1e0"/>
                      <circle id="Ellipse_73" data-name="Ellipse 73" cx="6.705" cy="6.705" r="6.705" transform="translate(13.046 17.05) rotate(-76.72)" fill="#fff"/>
                      <circle id="Ellipse_74" data-name="Ellipse 74" cx="5.773" cy="5.773" r="5.773" transform="translate(14.166 16.357) rotate(-76.72)" fill="#3aa1e0"/>
                      <path id="Path_84918" data-name="Path 84918" d="M178.525,169.907l-2.11,1.218-2.11,1.22v-4.875l2.11,1.218Z" transform="translate(-154.562 -158.141)" fill="#fff"/>
                    </g>
                  </g>
                  <g id="Group_3302" data-name="Group 3302" transform="translate(304.875)">
                    <path id="Path_84919" data-name="Path 84919" d="M288.488,37.638a1.444,1.444,0,0,1-.566-.116,3.351,3.351,0,0,1-2.046-3.085V24.989a1.45,1.45,0,0,1,2.9,0v9.448a.463.463,0,0,0,.279.417,1.451,1.451,0,0,1-.568,2.786Z" transform="translate(-284.55 1.676)" fill="#153f9c"/>
                    <path id="Path_84920" data-name="Path 84920" d="M350.019,18.033a20.544,20.544,0,0,0-2.1.067c.041-.387.069-.776.075-1.171C348.178,7.811,339.1.234,327.709.006c-9.336-.187-17.321,4.624-20,11.387a18.876,18.876,0,0,0-6.425-1.246c-8.675-.175-15.82,5.37-15.962,12.383s6.777,12.841,15.453,13.014c5.864.118,43.837-.136,48.891-.035,7.377.147,13.435-3.645,13.531-8.471s-5.8-8.858-13.181-9.007Z" transform="translate(-284.589 0.002)" fill="#fff" opacity="0.7"/>
                    <path id="Path_84921" data-name="Path 84921" d="M327.184,3.624c.151,0,.3,0,.454,0a19.7,19.7,0,0,1,12.234,4.288,11.41,11.41,0,0,1,4.5,8.939c-.006.277-.024.564-.055.855l-.472,4.364,4.374-.364c.46-.037.927-.057,1.389-.057.112,0,.224,0,.336,0a13.978,13.978,0,0,1,7.42,2.118c.674.46,2.238,1.694,2.209,3.193-.029,1.46-1.574,2.611-2.238,3.04a13.746,13.746,0,0,1-7.253,1.884c-.114,0-.23,0-.344,0-.845-.018-2.59-.026-5.331-.026-4.478,0-10.894.022-17.687.043-6.96.024-14.16.047-19.3.047-3.38,0-5.531-.01-6.573-.031a14.017,14.017,0,0,1-8.77-3.091,8,8,0,0,1-3.132-6.227c.1-4.873,5.455-8.837,11.941-8.837.108,0,.216,0,.324,0a15.164,15.164,0,0,1,5.19,1l3.356,1.3,1.324-3.346a13.5,13.5,0,0,1,5.783-6.4,20.184,20.184,0,0,1,10.316-2.7h0Zm0-3.623c-9.11,0-16.846,4.755-19.469,11.393a18.877,18.877,0,0,0-6.426-1.246c-.132,0-.265,0-.4,0-8.495,0-15.425,5.482-15.565,12.387-.142,7.013,6.777,12.841,15.453,13.014,1.148.024,3.525.031,6.647.031,10.057,0,27.828-.09,36.985-.09,2.517,0,4.382.008,5.258.024.14,0,.279,0,.417,0,7.186,0,13.018-3.739,13.114-8.475.1-4.826-5.8-8.858-13.181-9.007-.138,0-.273,0-.409,0-.572,0-1.136.024-1.688.071.041-.387.069-.776.075-1.171C348.182,7.809,339.1.232,327.713,0c-.175,0-.352-.006-.527-.006h0Z" transform="translate(-284.589 0.002)" fill="#fff"/>
                    <rect id="Rectangle_2263" data-name="Rectangle 2263" width="17.388" height="13.234" rx="2.057" transform="translate(0 35.578)" fill="#153f9c"/>
                    <path id="Path_84922" data-name="Path 84922" d="M296.093,22.748a2.865,2.865,0,1,1-5.7,0,2.865,2.865,0,1,1,5.7,0Z" transform="translate(-284.229 1.394)" fill="#fff"/>
                    <path id="Path_84923" data-name="Path 84923" d="M297.14,37.95h-4.158a1.45,1.45,0,1,1,0-2.9h4.158a.456.456,0,0,0,.45-.45v-10a.456.456,0,0,0-.45-.45h-3.786a1.45,1.45,0,1,1,0-2.9h3.786a3.354,3.354,0,0,1,3.35,3.35v10A3.354,3.354,0,0,1,297.14,37.95Z" transform="translate(-284.148 1.513)" fill="#153f9c"/>
                    <path id="Path_84924" data-name="Path 84924" d="M294.64,38.159a1.768,1.768,0,1,0-2.68,1.513v2.242a.91.91,0,1,0,1.82,0V39.672a1.764,1.764,0,0,0,.857-1.513Z" transform="translate(-284.178 2.589)" fill="#ffc34e"/>
                  </g>
                  <g id="Group_3306" data-name="Group 3306" transform="translate(83.803 167.01)">
                    <g id="Group_3303" data-name="Group 3303" transform="translate(6.512 3.484)">
                      <path id="Path_84925" data-name="Path 84925" d="M148.647,186.871v-8.3a2.1,2.1,0,0,0-2.089-2.089H84.322v12.478h62.237a2.1,2.1,0,0,0,2.089-2.089Z" transform="translate(-84.32 -157.944)" fill="#99a8c2" opacity="0.5" style="mix-blend-mode: multiply;isolation: isolate"/>
                      <path id="Path_84926" data-name="Path 84926" d="M146.557,159.175H84.32v12.478h62.237a2.1,2.1,0,0,0,2.089-2.089v-8.3a2.1,2.1,0,0,0-2.089-2.089Z" transform="translate(-84.32 -159.175)" fill="#99a8c2" opacity="0.5" style="mix-blend-mode: multiply;isolation: isolate"/>
                    </g>
                    <path id="Path_84927" data-name="Path 84927" d="M80.506,155.922H143.33a2.268,2.268,0,0,1,2.266,2.266v7.946a2.268,2.268,0,0,1-2.266,2.266H80.506a2.268,2.268,0,0,1-2.266-2.266v-7.946A2.268,2.268,0,0,1,80.506,155.922Z" transform="translate(-78.24 -155.922)" fill="#1b45a1"/>
                    <rect id="Rectangle_2264" data-name="Rectangle 2264" width="60.934" height="8.96" rx="1.704" transform="translate(3.211 1.759)" fill="#fff"/>
                    <path id="Path_84928" data-name="Path 84928" d="M80.506,173.229H143.33A2.268,2.268,0,0,1,145.6,175.5v7.946a2.268,2.268,0,0,1-2.266,2.266H80.506a2.268,2.268,0,0,1-2.266-2.266V175.5A2.268,2.268,0,0,1,80.506,173.229Z" transform="translate(-78.24 -154.692)" fill="#1b45a1"/>
                    <path id="Path_84929" data-name="Path 84929" d="M83.065,174.871h57.281a1.826,1.826,0,0,1,1.825,1.825V182a1.826,1.826,0,0,1-1.825,1.825H83.065A1.826,1.826,0,0,1,81.239,182V176.7A1.826,1.826,0,0,1,83.065,174.871Z" transform="translate(-78.027 -154.575)" fill="#fff"/>
                    <path id="Path_84930" data-name="Path 84930" d="M88.349,161.843a1.442,1.442,0,1,1-1.442-1.442A1.443,1.443,0,0,1,88.349,161.843Zm5.262-1.442a1.442,1.442,0,1,0,1.442,1.442A1.443,1.443,0,0,0,93.611,160.4Zm6.7,0a1.442,1.442,0,1,0,1.442,1.442A1.443,1.443,0,0,0,100.316,160.4Zm6.7,0a1.442,1.442,0,1,0,1.442,1.442A1.443,1.443,0,0,0,107.02,160.4Zm6.7,0a1.442,1.442,0,1,0,1.442,1.442A1.443,1.443,0,0,0,113.725,160.4Zm6.7,0a1.442,1.442,0,1,0,1.442,1.442A1.443,1.443,0,0,0,120.429,160.4Z" transform="translate(-77.726 -155.604)" fill="#1b45a1"/>
                    <path id="Path_84931" data-name="Path 84931" d="M88.349,179.038a1.442,1.442,0,1,1-1.442-1.442A1.443,1.443,0,0,1,88.349,179.038Zm5.262-1.442a1.442,1.442,0,1,0,1.442,1.442A1.443,1.443,0,0,0,93.611,177.6Zm6.7,0a1.442,1.442,0,1,0,1.442,1.442A1.443,1.443,0,0,0,100.316,177.6Zm6.7,0a1.442,1.442,0,1,0,1.442,1.442A1.443,1.443,0,0,0,107.02,177.6Zm6.7,0a1.442,1.442,0,1,0,1.442,1.442A1.443,1.443,0,0,0,113.725,177.6Zm6.7,0a1.442,1.442,0,1,0,1.442,1.442A1.443,1.443,0,0,0,120.429,177.6Z" transform="translate(-77.726 -154.381)" fill="#1b45a1"/>
                    <g id="Group_3304" data-name="Group 3304" transform="translate(51.38 3.671)">
                      <path id="Path_84932" data-name="Path 84932" d="M131.252,164.2a7.963,7.963,0,0,1-4.869-2.028.542.542,0,0,1,0-.794,6.86,6.86,0,0,1,9.738,0,.542.542,0,0,1,0,.794A7.963,7.963,0,0,1,131.252,164.2Zm-3.629-2.427a5.588,5.588,0,0,0,7.257,0,5.591,5.591,0,0,0-7.257,0Z" transform="translate(-126.21 -159.349)" fill="#1b45a1"/>
                      <path id="Path_84933" data-name="Path 84933" d="M131.063,163.954a2.195,2.195,0,1,1,2.195-2.195A2.2,2.2,0,0,1,131.063,163.954Zm0-3.305a1.108,1.108,0,1,0,1.108,1.108A1.11,1.11,0,0,0,131.063,160.648Z" transform="translate(-126.021 -159.334)" fill="#1b45a1"/>
                    </g>
                    <g id="Group_3305" data-name="Group 3305" transform="translate(50.681 22.676)">
                      <path id="Path_84934" data-name="Path 84934" d="M127.072,177.253h2.49a1.516,1.516,0,0,1,1.515,1.515v.937a1.516,1.516,0,0,1-1.515,1.515h-2.49a1.516,1.516,0,0,1-1.515-1.515v-.937A1.516,1.516,0,0,1,127.072,177.253Z" transform="translate(-125.557 -177.082)" fill="#1b45a1"/>
                      <path id="Path_84935" data-name="Path 84935" d="M135.689,180.436h-9.483a.544.544,0,0,1,0-1.089h8.941v-1.417a.544.544,0,0,1,1.089,0v1.961a.544.544,0,0,1-.544.544Z" transform="translate(-125.549 -177.072)" fill="#1b45a1"/>
                      <path id="Path_84936" data-name="Path 84936" d="M133.87,180.332a.544.544,0,0,1-.544-.544v-1.613a.544.544,0,1,1,1.089,0v1.613A.544.544,0,0,1,133.87,180.332Z" transform="translate(-125.004 -177.055)" fill="#1b45a1"/>
                      <path id="Path_84937" data-name="Path 84937" d="M132.014,180.371a.544.544,0,0,1-.544-.544v-2.189a.544.544,0,0,1,1.089,0v2.189A.544.544,0,0,1,132.014,180.371Z" transform="translate(-125.136 -177.093)" fill="#1b45a1"/>
                      <path id="Path_84938" data-name="Path 84938" d="M126.574,179.821a.407.407,0,0,1-.4-.4v-.627a.4.4,0,1,1,.81,0v.627A.407.407,0,0,1,126.574,179.821Z" transform="translate(-125.513 -177.001)" fill="#fff"/>
                    </g>
                  </g>
                </g>
                <g id="Group_3308" data-name="Group 3308" transform="translate(31.253 177.159)">
                  <path id="Path_84939" data-name="Path 84939" d="M83.263,245.736s-35.6-24.723-50.653-10.467c-12.024,11.383,9.318,24.757,36.619,21.161,19.218-2.531,21.395,1.146,24.761,1.065,25.048-1.92,58.8-9.412,42.373-21.186-22.375-16.038-37.51.965-45.3,5.2l-7.8,4.233Z" transform="translate(-29.178 -160.837)" fill="#0e3a82"/>
                  <path id="Path_84940" data-name="Path 84940" d="M128.9,235.589c-9.355-1.93-45,11.287-45,11.287S52.866,237.52,45.44,236.628,34.6,238.56,34.6,238.56s3.5-3.948,7.573-4.307,9.949-1.336,9.949-1.336,59.4-2.822,67.271-1.039,9.5,3.712,9.5,3.712Z" transform="translate(-28.793 -160.714)" fill="#0f2d5c"/>
                  <path id="Path_84941" data-name="Path 84941" d="M77.082,190.384c-1.411.222-23.354,9.793-23.623,13.8s6.011,36.537,18.158,40.77,25.733,0,25.733,0,14.256-35.193,10.023-41.876-23.387-12.7-23.387-12.7h-6.9Z" transform="translate(-27.453 -163.622)" fill="url(#linear-gradient-10)"/>
                  <path id="Path_84942" data-name="Path 84942" d="M61.959,197.568C41,208.8,35.848,229.081,41.393,233.551c3.885,3.132,18.532,10.061,31.229,9.615a206.92,206.92,0,0,1,24.621.751s21.78-4.431,26.124-10.959-7.707-27.73-18.514-33.859-42.894-1.531-42.894-1.531Z" transform="translate(-28.457 -163.229)" fill="url(#linear-gradient-11)"/>
                  <path id="Path_84943" data-name="Path 84943" d="M79.467,204.117a5.287,5.287,0,0,1-5.272-5.272V181.1a5.272,5.272,0,1,1,10.544,0v17.744A5.287,5.287,0,0,1,79.467,204.117Z" transform="translate(-25.978 -164.656)" fill="#f09959"/>
                  <path id="Path_84944" data-name="Path 84944" d="M79.467,175.827a5.287,5.287,0,0,0-5.272,5.272v14.509c3.109,2.6,6.117,1.236,10.544-2.193V181.1a5.287,5.287,0,0,0-5.272-5.272Z" transform="translate(-25.978 -164.657)" fill="#e38540"/>
                  <path id="Path_84945" data-name="Path 84945" d="M90.173,181.709c-.867,1.768-2.273,2.749-3.142,2.191s-.872-2.444-.006-4.213,2.273-2.749,3.142-2.191.872,2.446.006,4.215Z" transform="translate(-25.112 -164.549)" fill="#f09959"/>
                  <path id="Path_84946" data-name="Path 84946" d="M71.119,179.775c1,1.609,1.195,3.555.43,4.343s-2.2.126-3.2-1.484-1.195-3.555-.43-4.343S70.117,178.165,71.119,179.775Z" transform="translate(-26.457 -164.505)" fill="#f09959"/>
                  <path id="Path_84947" data-name="Path 84947" d="M89.007,182.089c0,6.447-4.06,11.674-9.066,11.674s-9.066-5.227-9.066-11.674,4.06-11.674,9.066-11.674S89.007,175.642,89.007,182.089Z" transform="translate(-26.214 -165.041)" fill="#f09959"/>
                  <path id="Path_84948" data-name="Path 84948" d="M98.2,208.291c5.94,3.168,11.116,15.174,11.116,15.174s-13.366,2.079-16.136,4.158.4-.792,1.981-6.534,3.04-12.8,3.04-12.8Z" transform="translate(-24.706 -162.348)" fill="#fb8627"/>
                  <path id="Path_84949" data-name="Path 84949" d="M60.087,207.482c1.385,6.337,8.019,24.026,8.019,24.026s-6.145-7-12.672-7.392-8.951-.5-8.909,1.089c.008.312,1.089-7.029,6.139-11.584a75.849,75.849,0,0,1,7.426-6.139Z" transform="translate(-27.945 -162.406)" fill="#fb8627"/>
                  <path id="Path_84950" data-name="Path 84950" d="M99.224,246.83H63.355a2.959,2.959,0,0,1-2.918-2.47l-4.325-25.812a2.958,2.958,0,0,1,2.918-3.447h44.517a2.958,2.958,0,0,1,2.918,3.447L102.14,244.36a2.958,2.958,0,0,1-2.918,2.47Z" transform="translate(-27.266 -161.864)" fill="#2a66c6"/>
                  <path id="Path_84951" data-name="Path 84951" d="M99.224,246.754H63.355a2.93,2.93,0,0,1-2.918-2.38l-4.325-24.881a2.886,2.886,0,0,1,2.918-3.323h44.517a2.886,2.886,0,0,1,2.918,3.323l-4.325,24.881a2.927,2.927,0,0,1-2.918,2.38Z" transform="translate(-27.266 -161.788)" fill="url(#linear-gradient-12)"/>
                  <path id="Path_84952" data-name="Path 84952" d="M85.967,254.424c-.214-.037-23.165-5.781-28.288-1.548s17.15,4.305,21.161,3.378,7.127-1.827,7.127-1.827Z" transform="translate(-27.206 -159.289)" fill="#0f2d5c"/>
                  <path id="Path_84953" data-name="Path 84953" d="M88.822,255.385a17.551,17.551,0,0,1,11.36-3.024c6.459.668,12.028,2.077,6.459,3.822a40.934,40.934,0,0,1-14.032,1.747,4.849,4.849,0,0,1-3.787-2.545Z" transform="translate(-24.938 -159.221)" fill="#0f2d5c"/>
                  <path id="Path_84954" data-name="Path 84954" d="M76.867,165.987c-5.889,1.786-3.84,18.367,2.894,17.82s7.007-7.715,6.528-12.358S82.942,164.144,76.867,165.987Z" transform="translate(-26.034 -165.398)" fill="#0f2d5c"/>
                  <path id="Path_84955" data-name="Path 84955" d="M75.093,178.208c-1.639-1.57-3.893,3.372-3,5.543s-.354,3.435.847,5.773-2.213-1.486-2.69-4.286-.751-7.648-1.434-9.833.035-5.974,3.077-6.76,3.751-2.185,4.91-2.254,6.691.478,9.422,1.981a7.1,7.1,0,0,1,4.028,7.168c-.2,3.413-1.093,12.153-1.912,13.588s-1.244,1.095-1,.273,1.134-5.736.45-7.512-.342-6.145-2.116-6.486-1.366,2.686-3.482,2.914a61.075,61.075,0,0,1-7.1-.114Z" transform="translate(-26.377 -165.328)" fill="#0f2d5c"/>
                </g>
                <g id="Group_3309" data-name="Group 3309" transform="translate(295.52 74.359)">
                  <path id="Path_84956" data-name="Path 84956" d="M323.1,245.868s-1.429,5.514-6.286,6.907-9.6,4.1-2.769,4.18a84,84,0,0,0,14.893-.784c3.113-.523,1.073-6.009.58-8.62s-6.416-1.684-6.416-1.684Z" transform="translate(-273.434 -56.888)" fill="#0f2d5c"/>
                  <path id="Path_84957" data-name="Path 84957" d="M359.746,242.744s.957,10.139-1.48,11.01-5.225,2.961-1.741,2.961,7.793.823,8.919-2.961c1.375-4.616,4.484-5.394,3.376-7.742a54.354,54.354,0,0,0-4.459-6.712l-4.614,3.443Z" transform="translate(-270.288 -57.343)" fill="#0f2d5c"/>
                  <path id="Path_84958" data-name="Path 84958" d="M311.977,142.868l9.615,112.658s4.995,2.309,8.595,2.657,11.047-49.27,10.416-58.653,6.506-39.178,4.853-48.834-33.479-7.83-33.479-7.83Z" transform="translate(-273.339 -64.209)" fill="#0e3a82"/>
                  <path id="Path_84959" data-name="Path 84959" d="M331.177,143.476c-.678-.09-1.362-.173-2.046-.244L312.52,149.66l3.063,35.9c7.96,17.5,16.689,33.389,21.473,44.067,2.179-12.7,3.8-25.767,3.506-30.131-.3-4.517,1.193-13.771,2.643-23.228l-12.03-32.792Z" transform="translate(-273.3 -64.173)" fill="#0f2d5c"/>
                  <path id="Path_84960" data-name="Path 84960" d="M316.4,160.558c9.322,41.44,45.971,91.93,45.931,91.93s6.852-1.191,7.2-4.325-3.912-34.34-13.234-43.414-9.959-52.143-9.959-52.143Z" transform="translate(-273.024 -63.507)" fill="#0e3a82"/>
                  <path id="Path_84961" data-name="Path 84961" d="M336.925,105.947c10.485,10.546,17.211,28.681,17.3,33.169s-12.09,12.5-12.09,12.5l-5.211-45.662Z" transform="translate(-271.565 -66.824)" fill="#fb8627"/>
                  <path id="Path_84962" data-name="Path 84962" d="M326.488,84.219l4.152,20.662-11.358,12.226-1.509-25.056Z" transform="translate(-272.927 -68.369)" fill="#f09959"/>
                  <path id="Path_84963" data-name="Path 84963" d="M331.288,97.494s5.357,1.88,11.318,17.015,10.1,52.43,10.1,52.43a46.717,46.717,0,0,1-27.856,9.723c-10.452,0-15.728-2.35-15.728-2.35s-1.045-35.152,0-47.84S326.115,97.177,331.288,97.5Z" transform="translate(-273.574 -67.425)" fill="url(#linear-gradient-13)"/>
                  <path id="Path_84964" data-name="Path 84964" d="M322.126,101.583c3.374-3.93,4.626-9.937,5.091-13.761l-.656-3.264-.845.33-7.942,7.139.776,12.89a20.271,20.271,0,0,0,3.576-3.333Z" transform="translate(-272.927 -68.345)" fill="#e38540"/>
                  <path id="Path_84965" data-name="Path 84965" d="M324.638,89.338c-1.3,6.15-6.17,10.328-10.872,9.332s-7.455-6.789-6.15-12.939,6.172-10.328,10.872-9.33,7.455,6.789,6.15,12.939Z" transform="translate(-273.672 -68.935)" fill="#f09959"/>
                  <path id="Path_84966" data-name="Path 84966" d="M329.3,93.138l3.559,6.011L314,113.248s1.421-6.534,1.8-8.939S329,92.633,329.3,93.138Z" transform="translate(-273.195 -67.736)" fill="url(#linear-gradient-14)"/>
                  <path id="Path_84967" data-name="Path 84967" d="M307.689,72.707c-7.921,2.49-1.446,12.472,1.1,12.564s3.474-2.279,5.563-1.733,4.064-3.168,5.341-2.356.464,8.359,0,9.636,1.625,1.393,1.625,1.393.851-5.341,2.167-4.993,2.293,4.064,4.183,4.993l1.892.929s1.161-8.058,2.9-9.6.65-6.883-1.824-7.929-3.069-5.8-6.486-6.152-6.2,1.973-10.731,1.393-3.517,1.161-5.732,1.857Z" transform="translate(-273.915 -69.421)" fill="#153f9c"/>
                  <path id="Path_84968" data-name="Path 84968" d="M325.646,87.508c-.652,1.533-2.1,2.385-3.238,1.9s-1.529-2.118-.878-3.651,2.1-2.385,3.238-1.9S326.3,85.975,325.646,87.508Z" transform="translate(-272.682 -68.404)" fill="#f09959"/>
                  <path id="Path_84969" data-name="Path 84969" d="M335.142,107.987s-19.432,21.611-26.429,28.3c-.094,6.223-.047,13.476.045,19.921,3.79-1.865,14.323-7.32,20.318-13.1C336.48,135.965,339.783,119.6,335.142,107.987Z" transform="translate(-273.575 -66.679)" fill="#fb8627"/>
                  <path id="Path_84970" data-name="Path 84970" d="M287.78,133.079s-4.647-5.755-6.5-5.2a9.846,9.846,0,0,1-4.18.554c-1.625-.09-1.741,2.26.58,6.484s8.591,5.072,10.1,5,0-6.832,0-6.832Z" transform="translate(-275.904 -65.268)" fill="#f09959"/>
                  <path id="Path_84971" data-name="Path 84971" d="M334.659,103.578c7.514,2,5.07,21.049.835,28.915-3.044,5.653-13.213,11.419-19.424,13.034s-30.874-3.219-30.874-3.219-.99-8.882.884-8.882,21.841.961,27.818-4.443,11.686-27.818,20.76-25.405Z" transform="translate(-275.261 -67.005)" fill="url(#linear-gradient-15)"/>
                  <path id="Path_84972" data-name="Path 84972" d="M281.723,132.07a1.083,1.083,0,0,1-.865-.428l-4.024-5.272a1.088,1.088,0,1,1,1.729-1.32l4.024,5.272a1.086,1.086,0,0,1-.863,1.747Z" transform="translate(-275.853 -65.496)" fill="#fb8627"/>
                </g>
              </g>
            </g>
          </g>
        </g>
      </g>
    </g>
  </g>
</svg>
