<svg id="Component_45_1" data-name="Component 45 – 1" xmlns="http://www.w3.org/2000/svg" xmlns:xlink="http://www.w3.org/1999/xlink" width="1920" height="752" viewBox="0 0 1920 752">
  <defs>
    <linearGradient id="linear-gradient" x1="1.669" y1="-0.758" x2="0.234" y2="4.281" gradientUnits="objectBoundingBox">
      <stop offset="0" stop-color="#002262"/>
      <stop offset="1" stop-color="#173cb4"/>
    </linearGradient>
  </defs>
  <rect id="Rectangle_2267" data-name="Rectangle 2267" width="1920" height="471" fill="url(#linear-gradient)"/>
  <rect id="Rectangle_2306" data-name="Rectangle 2306" width="706" height="432" rx="73" transform="translate(589 149)" fill="#fff"/>
  <g id="OBJECTS" transform="translate(662 228)">
    <g id="Group_3385" data-name="Group 3385">
      <g id="Group_3323" data-name="Group 3323" transform="translate(348.555 333.592)">
        <g id="Group_3322" data-name="Group 3322" transform="translate(5.556)">
          <path id="Path_84998" data-name="Path 84998" d="M273.707,244.563a8.238,8.238,0,0,0-4.943-5.573c-2.451-.8-5.573.406-6.343,2.871-2.254-1.89-5.727-.392-7.548,1.932-2.941,3.753-.672,9.886-.182,10.292a3.827,3.827,0,0,0,1.96.35l22-.126a27.552,27.552,0,0,0,5.9-1.036c3.753-1.5,6.3-7.94,3.879-11.174-1.638-2.2-4.887-2.675-7.506-1.834a21.086,21.086,0,0,0-7.226,4.3" transform="translate(-252.674 -238.019)" fill="#6cdd6c"/>
          <path id="Path_84999" data-name="Path 84999" d="M256.549,255.385a3.615,3.615,0,0,1-2.114-.532c-.868-.7-3.053-7.324.07-11.3a7.92,7.92,0,0,1,5.139-3.039,4.483,4.483,0,0,1,2.661.476,5.234,5.234,0,0,1,2.17-2.058,6.3,6.3,0,0,1,4.719-.434,8.541,8.541,0,0,1,5.055,5.041,21.154,21.154,0,0,1,6.679-3.753c2.633-.84,6.343-.546,8.3,2.086a7.049,7.049,0,0,1,.714,6.147c-.812,2.857-2.731,5.265-4.915,6.133a28.231,28.231,0,0,1-6.119,1.092l-22.041.126h-.322Zm3.655-13.443a1.981,1.981,0,0,0-.406.028,6.539,6.539,0,0,0-4.145,2.493c-2.577,3.291-.658,8.78-.238,9.34a4.355,4.355,0,0,0,1.414.14l22.027-.126a27.2,27.2,0,0,0,5.629-.98,7.892,7.892,0,0,0,4.047-5.181,5.634,5.634,0,0,0-.476-4.887c-1.54-2.058-4.551-2.268-6.708-1.582a20.225,20.225,0,0,0-6.96,4.145.694.694,0,0,1-.672.154.766.766,0,0,1-.5-.49,7.424,7.424,0,0,0-4.467-5.1,4.818,4.818,0,0,0-3.6.336,3.567,3.567,0,0,0-1.82,2.058.7.7,0,0,1-.49.476.732.732,0,0,1-.672-.14,2.928,2.928,0,0,0-1.946-.686Z" transform="translate(-252.88 -238.226)" fill="#50aa50"/>
        </g>
        <path id="Path_85000" data-name="Path 85000" d="M251.607,242.389a6.915,6.915,0,0,0-.756,3.921c.07.686,1.162.7,1.092,0a5.857,5.857,0,0,1,.6-3.375c.322-.616-.616-1.176-.938-.546Z" transform="translate(-248.151 -236.671)" fill="#50aa50"/>
        <path id="Path_85001" data-name="Path 85001" d="M249.189,243.043a7.739,7.739,0,0,0-.1,3.711c.154.686,1.2.392,1.05-.294a6.272,6.272,0,0,1,.1-3.137.546.546,0,0,0-1.05-.294h0Z" transform="translate(-248.912 -236.456)" fill="#50aa50"/>
        <path id="Path_85002" data-name="Path 85002" d="M253.62,241.662a.547.547,0,0,0,0-1.092.547.547,0,0,0,0,1.092Z" transform="translate(-247.237 -237.288)" fill="#50aa50"/>
        <path id="Path_85003" data-name="Path 85003" d="M255.68,245.26v.966a.547.547,0,0,0,1.092,0v-.966a.547.547,0,0,0-1.092,0Z" transform="translate(-246.203 -235.621)" fill="#50aa50"/>
        <path id="Path_85004" data-name="Path 85004" d="M268.81,246.47v.49a.547.547,0,0,0,1.092,0v-.49a.547.547,0,0,0-1.092,0Z" transform="translate(-240.947 -235.136)" fill="#50aa50"/>
        <path id="Path_85005" data-name="Path 85005" d="M267.415,245.655l.238.238a.545.545,0,0,0,.77-.77l-.238-.238a.545.545,0,0,0-.77.77Z" transform="translate(-241.568 -235.624)" fill="#50aa50"/>
      </g>
      <path id="Path_85006" data-name="Path 85006" d="M57.307,229.073H20.436a1.456,1.456,0,0,1,0-2.913h36.87a1.456,1.456,0,1,1,0,2.913Z" transform="translate(7.598 90.535)" fill="#405b91"/>
      <path id="Path_85007" data-name="Path 85007" d="M279.705,137.683h-1.05a1.582,1.582,0,1,0-3.165,0h-1.05a2.633,2.633,0,0,1,5.265,0Z" transform="translate(109.863 54.063)" fill="#fff"/>
      <path id="Path_85008" data-name="Path 85008" d="M282.4,93.893h-1.05a1.582,1.582,0,0,0-3.165,0h-1.05a2.633,2.633,0,0,1,5.265,0Z" transform="translate(110.939 36.533)" fill="#fff"/>
      <path id="Path_85009" data-name="Path 85009" d="M201.607,252.67H151.49l.854-2.016c3.291-7.8,3.627-14.465,3.123-22.1l-.1-1.54,42.247-.126v1.442c.042,4.929,1.386,16.118,3.389,22.447l.6,1.89Zm-45.79-2.9h41.869A110.981,110.981,0,0,1,194.76,229.8l-36.31.112c.35,6.764-.07,12.911-2.633,19.856Z" transform="translate(60.644 90.828)" fill="#415b91"/>
      <path id="Path_85010" data-name="Path 85010" d="M164.1,271.263c-38.047,0-68.868-.21-70.212-.686-3.263-1.162-7.506-5.671-7.576-8.878-.126-6.932-.42-16.37-.77-27.306-1.036-32.963-2.465-78.1-.616-103.077a8.668,8.668,0,0,1,8.584-8.066h.14l219.331.322a8.662,8.662,0,0,1,8.472,8.528c.168,7.3.406,14.759.644,22.307,1.008,31.647,2.044,64.372-1.456,95.305-.14,1.218-.2,2.563-.266,3.963-.294,6.5-.658,14.577-9.032,16.23-4.089.812-85.265,1.358-147.257,1.358ZM93.538,125.589A6.349,6.349,0,0,0,87.25,131.5c-1.834,24.856-.42,69.932.616,102.839.35,10.936.644,20.389.77,27.334.042,2.016,3.417,5.783,6.021,6.721,4.663.952,210.874.252,216.237-.756,6.568-1.3,6.862-7.772,7.156-14.045.07-1.456.126-2.857.28-4.117,3.487-30.779,2.451-63.406,1.442-94.969-.238-7.562-.476-15.025-.644-22.335a6.327,6.327,0,0,0-6.161-6.245L93.65,125.6h-.1Z" transform="translate(33.639 49.339)" fill="#415b91"/>
      <path id="Path_85011" data-name="Path 85011" d="M304.512,128.946,97.853,128.68c-3.711-.056-6.834,2.493-7.114,5.825-2.311,27.656.84,85.363,1.3,108.594.042,2.268,3.739,5.657,6.4,6.5,3.137.994,199.517.238,204.32-.6,8.626-1.5,7.156-10.334,7.87-15.978,4.089-31.941,1.582-66.669.77-97.91-.084-3.389-3.137-6.091-6.9-6.147Z" transform="translate(35.989 51.512)" fill="#b6d0fb" fill-rule="evenodd"/>
      <path id="Path_85012" data-name="Path 85012" d="M226.145,254.024H140.165a5.344,5.344,0,0,1,0-10.684h85.979a5.344,5.344,0,0,1,0,10.684Zm-85.979-8.346a3.007,3.007,0,0,0,0,6.007h85.979a3.007,3.007,0,0,0,0-6.007Z" transform="translate(54.031 97.413)" fill="#415b91"/>
      <g id="Group_3324" data-name="Group 3324" transform="translate(131.406 306.459)">
        <path id="Path_85013" data-name="Path 85013" d="M96.739,224.857c3.865,0,3.865-6.007,0-6.007s-3.865,6.007,0,6.007Z" transform="translate(-93.84 -218.85)" fill="#415b91"/>
        <path id="Path_85014" data-name="Path 85014" d="M105.379,224.857c3.865,0,3.865-6.007,0-6.007s-3.865,6.007,0,6.007Z" transform="translate(-90.381 -218.85)" fill="#415b91"/>
        <path id="Path_85015" data-name="Path 85015" d="M114.019,224.857c3.865,0,3.865-6.007,0-6.007s-3.865,6.007,0,6.007Z" transform="translate(-86.923 -218.85)" fill="#415b91"/>
      </g>
      <path id="Path_85016" data-name="Path 85016" d="M169.77,128.395a1.408,1.408,0,0,0,0-2.815,1.408,1.408,0,0,0,0,2.815Z" transform="translate(67.415 50.272)" fill="#415b91"/>
      <g id="Group_3325" data-name="Group 3325" transform="translate(447.611 308.307)">
        <path id="Path_85017" data-name="Path 85017" d="M351.021,257.6H321.39l11.4-37.43h6.834Z" transform="translate(-318.953 -220.17)" fill="#b6d0fb"/>
        <rect id="Rectangle_2268" data-name="Rectangle 2268" width="34.518" height="4.271" transform="translate(0 37.43)" fill="#b6d0fb"/>
        <path id="Path_85018" data-name="Path 85018" d="M324.247,240.22l-2.857,9.354h29.631l-2.843-9.354Z" transform="translate(-318.953 -212.144)" fill="#415b91"/>
        <path id="Path_85019" data-name="Path 85019" d="M325.46,236.218h18.232l-2.843-9.368H328.317Z" transform="translate(-317.324 -217.496)" fill="#415b91"/>
      </g>
      <path id="Path_85020" data-name="Path 85020" d="M353.162,263.407h6.567V237.949h33.748v25.458h6.568V237.949H407V217.616h-5.559V215.74h-9.578v1.876h-29.9V215.74h-9.578v1.876H346.3v20.333h6.848v25.458ZM404.9,219.745v.084l-4.047,15.992h-7.226l4.075-16.076h7.212Zm-18.862,16.076h-7.226l4.075-16.076h7.226Zm-14.8,0h-7.226l4.075-16.076h7.226Zm-17.966-16.076H360.5l-4.075,16.076H349.2Z" transform="translate(138.629 86.364)" fill="#b6d0fb"/>
      <g id="Group_3326" data-name="Group 3326" transform="translate(139.079 69.652)">
        <path id="Path_85021" data-name="Path 85021" d="M128.671,81.009l1.974-1.974a1.006,1.006,0,0,0,0-1.442l-1.722-1.708a1.447,1.447,0,0,1-.224-1.624l1.4-3.389a1.447,1.447,0,0,1,1.316-.98h2.423a1.028,1.028,0,0,0,1.022-1.022V66.082a1.028,1.028,0,0,0-1.022-1.022h-2.423a1.482,1.482,0,0,1-1.316-.98l-1.4-3.389a1.475,1.475,0,0,1,.224-1.624l1.722-1.708a1.006,1.006,0,0,0,0-1.442l-1.974-1.974a1.031,1.031,0,0,0-1.442,0l-1.722,1.722a1.456,1.456,0,0,1-1.61.238l-3.4-1.4a1.432,1.432,0,0,1-.98-1.316V50.762a1.028,1.028,0,0,0-1.022-1.022H115.7a1.028,1.028,0,0,0-1.022,1.022v2.423a1.462,1.462,0,0,1-.98,1.316l-3.4,1.4a1.428,1.428,0,0,1-1.61-.238l-1.722-1.708a1.006,1.006,0,0,0-1.442,0l-1.974,1.974a1.006,1.006,0,0,0,0,1.442l1.708,1.708A1.479,1.479,0,0,1,105.5,60.7l-1.4,3.389a1.447,1.447,0,0,1-1.316.98h-2.437A1.019,1.019,0,0,0,99.32,66.1v2.787a1.028,1.028,0,0,0,1.022,1.022h2.437a1.482,1.482,0,0,1,1.316.98l1.4,3.389a1.454,1.454,0,0,1-.238,1.624l-1.708,1.708a1.006,1.006,0,0,0,0,1.442l1.974,1.974a1.006,1.006,0,0,0,1.442,0l1.722-1.708a1.443,1.443,0,0,1,1.624-.224l3.389,1.4a1.432,1.432,0,0,1,.98,1.316v2.437a1.028,1.028,0,0,0,1.022,1.022h2.787a1.028,1.028,0,0,0,1.022-1.022V81.807a1.462,1.462,0,0,1,.98-1.316l3.4-1.4a1.449,1.449,0,0,1,1.61.224l1.722,1.708a1.006,1.006,0,0,0,1.442,0ZM117.1,75.618a8.15,8.15,0,1,1,8.15-8.15A8.158,8.158,0,0,1,117.1,75.618Z" transform="translate(-99.32 -49.74)" fill="#b6d0fb"/>
        <path id="Path_85022" data-name="Path 85022" d="M139.914,79.979l-.5-1.652a.632.632,0,0,0-.784-.42l-1.442.434a.894.894,0,0,1-.952-.35l-1.442-1.75a.946.946,0,0,1-.154-1.008l.714-1.33a.634.634,0,0,0-.252-.854l-1.526-.812a.631.631,0,0,0-.854.266L132,73.832a.907.907,0,0,1-.924.434l-2.269-.224a.89.89,0,0,1-.812-.6L127.563,72a.626.626,0,0,0-.784-.42l-1.652.49a.641.641,0,0,0-.42.8l.434,1.442a.9.9,0,0,1-.35.952L123.04,76.7a.919.919,0,0,1-1.008.154l-1.33-.714a.619.619,0,0,0-.854.266l-.826,1.512a.647.647,0,0,0,.252.854l1.33.714a.9.9,0,0,1,.434.91l-.224,2.269a.89.89,0,0,1-.6.812l-1.442.434a.621.621,0,0,0-.42.784l.5,1.652a.626.626,0,0,0,.784.42l1.442-.434a.9.9,0,0,1,.952.35l1.442,1.764a.919.919,0,0,1,.154,1.008l-.714,1.33a.631.631,0,0,0,.266.854l1.526.812a.638.638,0,0,0,.854-.252l.714-1.33a.886.886,0,0,1,.91-.434l2.254.224a.923.923,0,0,1,.826.6l.434,1.442a.621.621,0,0,0,.784.42l1.652-.5a.632.632,0,0,0,.42-.784l-.434-1.442a.894.894,0,0,1,.35-.952L135.237,88a.894.894,0,0,1,1.008-.154l1.33.714a.622.622,0,0,0,.854-.252l.812-1.526a.631.631,0,0,0-.266-.854l-1.33-.714a.9.9,0,0,1-.434-.91l.224-2.269a.89.89,0,0,1,.6-.812l1.442-.434a.626.626,0,0,0,.42-.784Zm-6.329,4.733a3.729,3.729,0,1,0-.014,0Z" transform="translate(-91.715 -41.009)" fill="#b6d0fb"/>
      </g>
      <path id="Path_85023" data-name="Path 85023" d="M206.087,101.183h-45.65a1.456,1.456,0,0,1,0-2.913h45.65a1.456,1.456,0,0,1,0,2.913Z" transform="translate(63.642 39.339)" fill="#405b91"/>
      <path id="Path_85024" data-name="Path 85024" d="M147.757,115.993H74.016a1.456,1.456,0,0,1,0-2.913h73.741a1.456,1.456,0,1,1,0,2.913Z" transform="translate(29.047 45.268)" fill="#405b91"/>
      <path id="Path_85025" data-name="Path 85025" d="M400.227,144.033H326.486a1.456,1.456,0,0,1,0-2.913h73.741a1.456,1.456,0,1,1,0,2.913Z" transform="translate(130.115 56.493)" fill="#405b91"/>
      <path id="Path_85026" data-name="Path 85026" d="M559.342,252.843H1.456a1.456,1.456,0,1,1,0-2.913H559.342a1.456,1.456,0,1,1,0,2.913Z" transform="translate(0 100.051)" fill="#405b91"/>
      <g id="Group_3327" data-name="Group 3327" transform="translate(332.351 122.29)">
        <path id="Path_85027" data-name="Path 85027" d="M259.689,87.33a11.715,11.715,0,0,0-10.1,17.644l.2.322-11.861,11.861a2.128,2.128,0,0,0-.588,1.344,2.591,2.591,0,0,0,.9,1.806,2.852,2.852,0,0,0,1.988.966,2.486,2.486,0,0,0,1.4-.476l11.833-11.833.322.2a11.711,11.711,0,1,0,5.909-21.817Zm0,19.94a8.234,8.234,0,0,1,0-16.468h0a8.234,8.234,0,1,1,0,16.468Z" transform="translate(-237.34 -87.33)" fill="#b6d0fb"/>
        <path id="Path_85028" data-name="Path 85028" d="M250.2,97.531h8.486V95.36H250.2Z" transform="translate(-232.192 -84.115)" fill="#b6d0fb"/>
      </g>
      <g id="Group_3328" data-name="Group 3328" transform="translate(135.747 235.449)">
        <path id="Path_85029" data-name="Path 85029" d="M98.4,282.9a1.455,1.455,0,0,1-1.456-1.456V169.6a1.456,1.456,0,0,1,2.913,0V281.44A1.455,1.455,0,0,1,98.4,282.9Z" transform="translate(-96.94 -168.14)" fill="#405b91"/>
        <path id="Path_85030" data-name="Path 85030" d="M116.966,282.9a1.455,1.455,0,0,1-1.456-1.456V169.6a1.456,1.456,0,0,1,2.913,0V281.44A1.455,1.455,0,0,1,116.966,282.9Z" transform="translate(-89.506 -168.14)" fill="#405b91"/>
        <path id="Path_85031" data-name="Path 85031" d="M124.4,176.5H98.406a1.456,1.456,0,1,1,0-2.913H124.4a1.456,1.456,0,1,1,0,2.913Z" transform="translate(-96.936 -165.958)" fill="#405b91"/>
        <path id="Path_85032" data-name="Path 85032" d="M124.4,185.633H98.406a1.456,1.456,0,1,1,0-2.913H124.4a1.456,1.456,0,1,1,0,2.913Z" transform="translate(-96.936 -162.303)" fill="#405b91"/>
        <path id="Path_85033" data-name="Path 85033" d="M124.4,194.763H98.406a1.456,1.456,0,1,1,0-2.913H124.4a1.456,1.456,0,1,1,0,2.913Z" transform="translate(-96.936 -158.649)" fill="#405b91"/>
        <path id="Path_85034" data-name="Path 85034" d="M124.4,203.883H98.406a1.456,1.456,0,1,1,0-2.913H124.4a1.456,1.456,0,1,1,0,2.913Z" transform="translate(-96.936 -154.998)" fill="#405b91"/>
        <path id="Path_85035" data-name="Path 85035" d="M124.4,213.013H98.406a1.456,1.456,0,1,1,0-2.913H124.4a1.456,1.456,0,1,1,0,2.913Z" transform="translate(-96.936 -151.343)" fill="#405b91"/>
        <path id="Path_85036" data-name="Path 85036" d="M124.4,222.133H98.406a1.456,1.456,0,1,1,0-2.913H124.4a1.456,1.456,0,1,1,0,2.913Z" transform="translate(-96.936 -147.692)" fill="#405b91"/>
        <path id="Path_85037" data-name="Path 85037" d="M124.4,231.263H98.406a1.456,1.456,0,1,1,0-2.913H124.4a1.456,1.456,0,1,1,0,2.913Z" transform="translate(-96.936 -144.037)" fill="#405b91"/>
        <path id="Path_85038" data-name="Path 85038" d="M124.4,240.383H98.406a1.456,1.456,0,1,1,0-2.913H124.4a1.456,1.456,0,1,1,0,2.913Z" transform="translate(-96.936 -140.386)" fill="#405b91"/>
      </g>
      <g id="Group_3329" data-name="Group 3329" transform="translate(97.518 233.755)">
        <path id="Path_85039" data-name="Path 85039" d="M73.126,175.5a1.455,1.455,0,0,1-1.456-1.456v-5.657a1.456,1.456,0,1,1,2.913,0v5.657A1.455,1.455,0,0,1,73.126,175.5Z" transform="translate(-68.827 -166.93)" fill="#405b91"/>
        <path id="Path_85040" data-name="Path 85040" d="M76.754,171.863H71.1a1.456,1.456,0,1,1,0-2.913h5.657a1.456,1.456,0,1,1,0,2.913Z" transform="translate(-69.64 -166.121)" fill="#405b91"/>
      </g>
      <g id="Group_3330" data-name="Group 3330" transform="translate(228.125 31.507)">
        <path id="Path_85041" data-name="Path 85041" d="M166.386,31.07a1.455,1.455,0,0,1-1.456-1.456V23.956a1.456,1.456,0,1,1,2.913,0v5.657a1.455,1.455,0,0,1-1.456,1.456Z" transform="translate(-162.101 -22.5)" fill="#405b91"/>
        <path id="Path_85042" data-name="Path 85042" d="M170.024,27.433h-5.657a1.456,1.456,0,0,1,0-2.913h5.657a1.456,1.456,0,0,1,0,2.913Z" transform="translate(-162.91 -21.691)" fill="#405b91"/>
      </g>
      <g id="Group_3331" data-name="Group 3331" transform="translate(271.309 326.445)">
        <path id="Path_85043" data-name="Path 85043" d="M200.64,238.952a1.416,1.416,0,0,1-.406-.056l-5.433-1.554a1.449,1.449,0,1,1,.8-2.787l5.433,1.554a1.449,1.449,0,0,1-.406,2.843Z" transform="translate(-193.749 -232.57)" fill="#405b91"/>
        <path id="Path_85044" data-name="Path 85044" d="M196.587,241.451a1.416,1.416,0,0,1-.406-.056,1.447,1.447,0,0,1-.994-1.792l1.554-5.433a1.449,1.449,0,1,1,2.787.8l-1.554,5.433a1.449,1.449,0,0,1-1.4,1.05Z" transform="translate(-193.196 -233.122)" fill="#405b91"/>
      </g>
      <g id="Group_3332" data-name="Group 3332" transform="translate(242.757 155.643)">
        <path id="Path_85045" data-name="Path 85045" d="M180.236,116.993a1.265,1.265,0,0,1-.392-.056l-5.433-1.554a1.449,1.449,0,1,1,.8-2.787l5.433,1.554a1.449,1.449,0,0,1-.406,2.843Z" transform="translate(-173.359 -110.592)" fill="#405b91"/>
        <path id="Path_85046" data-name="Path 85046" d="M176.187,119.482a1.417,1.417,0,0,1-.406-.056,1.447,1.447,0,0,1-.994-1.792l1.554-5.433a1.449,1.449,0,0,1,2.787.8l-1.554,5.433a1.449,1.449,0,0,1-1.4,1.05Z" transform="translate(-172.81 -111.149)" fill="#405b91"/>
      </g>
      <g id="Group_3337" data-name="Group 3337" transform="translate(217.294 79.985)">
        <circle id="Ellipse_75" data-name="Ellipse 75" cx="20.179" cy="20.179" r="20.179" transform="translate(0 28.537) rotate(-45)" fill="#b6d0fb"/>
        <g id="Group_3333" data-name="Group 3333" transform="translate(12.833 12.842)">
          <circle id="Ellipse_76" data-name="Ellipse 76" cx="15.109" cy="15.109" r="15.109" transform="translate(0.588 0.588)" fill="#fff"/>
          <path id="Path_85047" data-name="Path 85047" d="M180.038,97.685a15.7,15.7,0,1,1,15.7-15.7A15.718,15.718,0,0,1,180.038,97.685Zm0-30.219A14.528,14.528,0,1,0,194.559,82,14.537,14.537,0,0,0,180.038,67.466Z" transform="translate(-164.34 -66.29)" fill="#405b91"/>
        </g>
        <g id="Group_3334" data-name="Group 3334" transform="translate(27.929 20.25)">
          <path id="Path_85048" data-name="Path 85048" d="M175.718,80.444a.592.592,0,0,1-.588-.588V72.168a.588.588,0,0,1,1.176,0v7.688A.592.592,0,0,1,175.718,80.444Z" transform="translate(-175.116 -71.58)" fill="#405b91"/>
          <path id="Path_85049" data-name="Path 85049" d="M184.726,78.246h-9.018a.588.588,0,1,1,0-1.176h9.018a.588.588,0,1,1,0,1.176Z" transform="translate(-175.12 -69.382)" fill="#405b91"/>
        </g>
        <g id="Group_3335" data-name="Group 3335" transform="translate(14.514 14.523)">
          <path id="Path_85050" data-name="Path 85050" d="M176.314,68.092a.6.6,0,1,1-.6-.6A.6.6,0,0,1,176.314,68.092Z" transform="translate(-161.709 -67.49)" fill="#405b91"/>
          <path id="Path_85051" data-name="Path 85051" d="M182.911,71.321a.594.594,0,1,1,0-.84A.583.583,0,0,1,182.911,71.321Z" transform="translate(-158.994 -66.364)" fill="#405b91"/>
          <path id="Path_85052" data-name="Path 85052" d="M185.292,78.264a.6.6,0,1,1,.6-.6A.6.6,0,0,1,185.292,78.264Z" transform="translate(-157.874 -63.659)" fill="#405b91"/>
          <path id="Path_85053" data-name="Path 85053" d="M182.061,84.86a.583.583,0,0,1,0-.84.6.6,0,0,1,.84,0,.594.594,0,0,1-.84.84Z" transform="translate(-158.998 -60.942)" fill="#405b91"/>
          <path id="Path_85054" data-name="Path 85054" d="M175.12,87.242a.6.6,0,1,1,.6.6A.6.6,0,0,1,175.12,87.242Z" transform="translate(-161.705 -59.824)" fill="#405b91"/>
          <path id="Path_85055" data-name="Path 85055" d="M168.531,84.011a.583.583,0,0,1,.84,0,.594.594,0,0,1-.84.84A.583.583,0,0,1,168.531,84.011Z" transform="translate(-164.414 -60.948)" fill="#405b91"/>
          <circle id="Ellipse_77" data-name="Ellipse 77" cx="0.602" cy="0.602" r="0.602" transform="translate(0 13.415)" fill="#405b91"/>
          <path id="Path_85056" data-name="Path 85056" d="M169.37,70.47a.594.594,0,0,1-.84.84.594.594,0,0,1,.84-.84Z" transform="translate(-164.413 -66.367)" fill="#405b91"/>
        </g>
        <g id="Group_3336" data-name="Group 3336" transform="translate(48.976 19.648)">
          <path id="Path_85057" data-name="Path 85057" d="M199.21,72.326h-8.472a.588.588,0,1,1,0-1.176h8.472a.588.588,0,1,1,0,1.176Z" transform="translate(-190.15 -71.15)" fill="#405b91"/>
          <path id="Path_85058" data-name="Path 85058" d="M199.21,84.166h-8.472a.588.588,0,1,1,0-1.176h8.472a.588.588,0,1,1,0,1.176Z" transform="translate(-190.15 -66.41)" fill="#405b91"/>
          <path id="Path_85059" data-name="Path 85059" d="M208.832,78.256H193.008a.588.588,0,1,1,0-1.176h15.824a.588.588,0,1,1,0,1.176Z" transform="translate(-189.241 -68.776)" fill="#405b91"/>
        </g>
      </g>
      <g id="Group_3340" data-name="Group 3340" transform="translate(303.392 326.302)">
        <g id="Group_3338" data-name="Group 3338">
          <rect id="Rectangle_2269" data-name="Rectangle 2269" width="9.354" height="9.354" transform="translate(0.714 0.728)" fill="#fff"/>
          <path id="Path_85060" data-name="Path 85060" d="M227.47,243.83H216.66V233.02h10.81Zm-9.354-1.456h7.912v-7.912h-7.912Z" transform="translate(-216.66 -233.02)" fill="#415b91"/>
        </g>
        <g id="Group_3339" data-name="Group 3339" transform="translate(12.855 1.61)">
          <path id="Path_85061" data-name="Path 85061" d="M234.9,235.346h-8.472a.588.588,0,1,1,0-1.176H234.9a.588.588,0,1,1,0,1.176Z" transform="translate(-225.84 -234.17)" fill="#405b91"/>
          <path id="Path_85062" data-name="Path 85062" d="M238.089,239.916H226.634c-.434,0-.784-.266-.784-.588s.35-.588.784-.588h11.455c.434,0,.784.266.784.588S238.523,239.916,238.089,239.916Z" transform="translate(-225.836 -232.341)" fill="#405b91"/>
          <path id="Path_85063" data-name="Path 85063" d="M242.252,237.506H226.428a.588.588,0,1,1,0-1.176h15.824a.588.588,0,0,1,0,1.176Z" transform="translate(-225.84 -233.305)" fill="#405b91"/>
        </g>
      </g>
      <g id="Group_3343" data-name="Group 3343" transform="translate(78.866 188.987)">
        <g id="Group_3341" data-name="Group 3341" transform="translate(19.058)">
          <rect id="Rectangle_2270" data-name="Rectangle 2270" width="9.354" height="9.354" transform="translate(10.082 10.082) rotate(180)" fill="#fff"/>
          <path id="Path_85064" data-name="Path 85064" d="M80.74,145.77H69.93V134.96H80.74Zm-9.354-1.456h7.9v-7.9h-7.9Z" transform="translate(-69.93 -134.96)" fill="#415b91"/>
        </g>
        <g id="Group_3342" data-name="Group 3342" transform="translate(0 1.61)">
          <path id="Path_85065" data-name="Path 85065" d="M62.158,137.286H70.63a.588.588,0,0,0,0-1.176H62.158a.588.588,0,0,0,0,1.176Z" transform="translate(-54.218 -136.11)" fill="#405b91"/>
          <path id="Path_85066" data-name="Path 85066" d="M59.944,141.866H71.4c.434,0,.784-.266.784-.588s-.35-.588-.784-.588H59.944c-.434,0-.784.266-.784.588S59.51,141.866,59.944,141.866Z" transform="translate(-55.183 -134.277)" fill="#405b91"/>
          <path id="Path_85067" data-name="Path 85067" d="M56.908,139.446H72.732a.588.588,0,0,0,0-1.176H56.908a.588.588,0,0,0,0,1.176Z" transform="translate(-56.32 -135.245)" fill="#405b91"/>
        </g>
      </g>
      <g id="Group_3344" data-name="Group 3344" transform="translate(368.094 211.21)">
        <rect id="Rectangle_2271" data-name="Rectangle 2271" width="2.899" height="124.894" transform="translate(15.929 13.667)" fill="#3f5b91"/>
        <rect id="Rectangle_2272" data-name="Rectangle 2272" width="17.868" height="28.776" rx="6.15" transform="translate(8.451)" fill="#b6d0fb"/>
        <path id="Path_85068" data-name="Path 85068" d="M283.742,165.713c1.022.168,2.044.322,3.067.49.686.112.98-.938.294-1.05-1.022-.168-2.044-.322-3.067-.49-.686-.112-.98.938-.294,1.05Z" transform="translate(-254.664 -145.296)" fill="#3f5b91"/>
        <path id="Path_85069" data-name="Path 85069" d="M283.756,161.008a9.24,9.24,0,0,1,2.409-.084c.7.07.686-1.022,0-1.092a9.738,9.738,0,0,0-2.7.126c-.686.126-.392,1.176.294,1.05Z" transform="translate(-254.776 -147.243)" fill="#3f5b91"/>
        <path id="Path_85070" data-name="Path 85070" d="M283.508,156.91c.784-.308,1.568-.616,2.353-.938.644-.252.364-1.3-.294-1.05-.784.308-1.568.616-2.353.938-.644.252-.364,1.3.294,1.05Z" transform="translate(-254.865 -149.208)" fill="#3f5b91"/>
        <path id="Path_85071" data-name="Path 85071" d="M264.446,166.609a12.5,12.5,0,0,0,2.352-.56c.658-.224.378-1.274-.294-1.05a12.245,12.245,0,0,1-2.352.56c-.686.1-.392,1.148.294,1.05Z" transform="translate(-262.506 -145.17)" fill="#3f5b91"/>
        <path id="Path_85072" data-name="Path 85072" d="M263.39,160.922a12.365,12.365,0,0,1,2.955.448.546.546,0,0,0,.294-1.05,13.408,13.408,0,0,0-3.249-.49.547.547,0,0,0,0,1.092h0Z" transform="translate(-262.865 -147.227)" fill="#3f5b91"/>
        <path id="Path_85073" data-name="Path 85073" d="M264.027,154.518l2.353.756c.672.21.952-.84.294-1.05l-2.353-.756c-.672-.21-.952.84-.294,1.05Z" transform="translate(-262.55 -149.785)" fill="#3f5b91"/>
        <path id="Path_85074" data-name="Path 85074" d="M270.44,255.762l1.932-16.692h9.438L284,255.524Z" transform="translate(-259.833 -115.506)" fill="#405b91"/>
      </g>
      <g id="Group_3350" data-name="Group 3350" transform="translate(72.144 261.628)">
        <g id="Group_3349" data-name="Group 3349" transform="translate(0 1.53)">
          <g id="Group_3345" data-name="Group 3345" transform="translate(3.531)">
            <path id="Path_85075" data-name="Path 85075" d="M90.355,196.137c-.434-2.661-2.311-9.508-6.441-7.338-6.694,3.515,1.386,16.832-6.68,19.184-.434-5.307-1.568-8.962-3.977-8.752-4.943.448-3.627,11.945-3.711,14.535s-.21,5.223-.322,7.884c-5.825,1.05-4.663-14.129-8.206-16.23-5.5-3.263-6.666,4-6.525,7.366.252,5.713,1.792,12.561,7.17,15.586a14.549,14.549,0,0,0,7.324,1.932,76.174,76.174,0,0,0,.924,13.457c0,.042.084.042.1,0h0l3.263.182V244a1.114,1.114,0,0,0,2.226,0c.042-2.759,1.736-16.3,1.932-27.782a11.719,11.719,0,0,0,7.744-2.2C90.733,209.944,91.377,202.453,90.355,196.137Z" transform="translate(-53.865 -187.746)" fill="#6cdd6c"/>
            <path id="Path_85076" data-name="Path 85076" d="M74.526,245.862a1.812,1.812,0,0,1-.938-.252,1.564,1.564,0,0,1-.7-.91l-2.409-.126-.868.028-.14-.546a74.544,74.544,0,0,1-.938-12.911,15.969,15.969,0,0,1-7-2.03c-5.727-3.235-7.226-10.544-7.478-16.1-.1-2.241.364-6.862,2.871-8.36,1.274-.756,2.815-.616,4.579.434,1.708,1.008,2.367,4.131,3.123,7.744,1.022,4.887,1.946,8.4,4.187,8.458l.056-1.2c.1-2.072.182-4.131.252-6.147,0-.392,0-1.008-.028-1.75-.154-4.523-.448-12.953,4.313-13.387a2.625,2.625,0,0,1,1.988.63c1.33,1.12,2.17,3.7,2.591,7.87,3.011-1.344,2.843-4.817,2.675-8.808-.182-4.033-.364-8.206,3.179-10.068a3.4,3.4,0,0,1,3.263-.14c2.955,1.484,3.977,7.268,4.075,7.926h0c.784,4.845,1.12,13.681-5.433,18.484a12.811,12.811,0,0,1-7.506,2.381c-.168,7.492-.938,15.754-1.456,21.271-.252,2.759-.462,4.943-.476,5.839a1.628,1.628,0,0,1-.854,1.456,1.85,1.85,0,0,1-.9.224Zm-3.921-2.521,3.459.182v.6c-.028.294.084.378.154.42a.653.653,0,0,0,.6,0,.42.42,0,0,0,.21-.392c0-.952.21-3.039.476-5.937.532-5.657,1.33-14.213,1.456-21.845v-.7l.714.1a11.255,11.255,0,0,0,7.3-2.086c6.021-4.411,5.685-12.729,4.943-17.28h0c-.322-2-1.456-6.035-3.4-7.016a2.265,2.265,0,0,0-2.142.126c-2.857,1.5-2.689,5.1-2.521,8.92.182,4.2.392,8.948-4.271,10.32l-.728.21-.056-.756c-.434-5.293-1.442-7.184-2.226-7.828a1.351,1.351,0,0,0-1.078-.35c-3.585.322-3.319,8.29-3.179,12.113.028.784.042,1.414.042,1.834-.07,2.016-.154,4.075-.252,6.161l-.1,2.227-.49.084c-3.977.714-5.1-4.649-6.091-9.382-.644-3.039-1.3-6.189-2.535-6.932-1.344-.8-2.465-.952-3.319-.434-1.848,1.106-2.367,5.027-2.269,7.24.238,5.251,1.61,12.127,6.848,15.081a13.9,13.9,0,0,0,6.96,1.848l.672-.056v.672a77.518,77.518,0,0,0,.826,12.841Z" transform="translate(-54.041 -187.928)" fill="#50aa50"/>
          </g>
          <path id="Path_85077" data-name="Path 85077" d="M84.537,258.557H60.9a2.491,2.491,0,0,1-2.507-2.044L53.03,228.954l2.227-.434,5.363,27.558a.254.254,0,0,0,.28.21H84.537a.286.286,0,0,0,.28-.21l5.321-27.558,2.227.434-5.321,27.558a2.49,2.49,0,0,1-2.507,2.058Z" transform="translate(-50.916 -171.678)" fill="#415b91"/>
          <g id="Group_3348" data-name="Group 3348" transform="translate(0 47.278)">
            <g id="Group_3346" data-name="Group 3346" transform="translate(0.518 0.504)">
              <path id="Path_85078" data-name="Path 85078" d="M53.548,222.5H92.785c.672,0,1.218.742,1.218,1.638V230.1c0,.91-.546,1.638-1.218,1.638H53.548c-.672,0-1.218-.742-1.218-1.638v-5.965C52.33,223.228,52.876,222.5,53.548,222.5Z" transform="translate(-51.714 -221.87)" fill="#b6d0fb"/>
              <path id="Path_85079" data-name="Path 85079" d="M92.961,232.552H53.724a2.085,2.085,0,0,1-1.834-2.269v-5.965a2.094,2.094,0,0,1,1.834-2.268H92.961a2.094,2.094,0,0,1,1.834,2.268v5.965A2.094,2.094,0,0,1,92.961,232.552ZM53.724,223.3c-.28,0-.6.434-.6,1.022v5.965c0,.588.322,1.022.6,1.022H92.961c.28,0,.6-.434.6-1.022v-5.965c0-.588-.322-1.022-.6-1.022Z" transform="translate(-51.89 -222.05)" fill="#405b91"/>
            </g>
            <g id="Group_3347" data-name="Group 3347">
              <path id="Path_85080" data-name="Path 85080" d="M92.933,232.418H53.7a1.986,1.986,0,0,1-1.736-2.156V224.3A1.976,1.976,0,0,1,53.7,222.14H92.933A1.986,1.986,0,0,1,94.67,224.3v5.965A1.986,1.986,0,0,1,92.933,232.418ZM53.7,223.162c-.336,0-.7.462-.7,1.134v5.965c0,.658.364,1.134.7,1.134H92.933c.336,0,.7-.462.7-1.134V224.3c0-.672-.364-1.134-.7-1.134Z" transform="translate(-51.344 -221.51)" fill="#b6d0fb"/>
              <path id="Path_85081" data-name="Path 85081" d="M93.109,233.215H53.873a2.59,2.59,0,0,1-2.353-2.773v-5.965a2.6,2.6,0,0,1,2.353-2.787H93.109a2.594,2.594,0,0,1,2.353,2.787v5.965A2.59,2.59,0,0,1,93.109,233.215Zm-39.167-9.256a1.054,1.054,0,0,0-.154.5v5.965a.734.734,0,0,0,.168.532H93.109a1.562,1.562,0,0,0,.084-.532v-5.965a.733.733,0,0,0-.168-.532H53.943Z" transform="translate(-51.52 -221.69)" fill="#405b91"/>
            </g>
          </g>
        </g>
        <path id="Path_85082" data-name="Path 85082" d="M56.4,206.084l1.932.252c.7.084.686-1.008,0-1.092l-1.932-.252c-.7-.084-.686,1.008,0,1.092Z" transform="translate(-49.775 -179.569)" fill="#50aa50"/>
        <path id="Path_85083" data-name="Path 85083" d="M58.29,199.8v.966a.547.547,0,0,0,1.092,0V199.8a.547.547,0,0,0-1.092,0Z" transform="translate(-48.81 -181.855)" fill="#50aa50"/>
        <path id="Path_85084" data-name="Path 85084" d="M61.213,207.3c.476-.266.938-.532,1.414-.784a.543.543,0,0,0-.546-.938c-.476.266-.938.532-1.414.784a.543.543,0,0,0,.546.938Z" transform="translate(-47.966 -179.361)" fill="#50aa50"/>
        <path id="Path_85085" data-name="Path 85085" d="M57.206,216.367c.574-.392,1.134-.8,1.708-1.19s.028-1.344-.546-.938-1.134.8-1.708,1.19-.028,1.344.546.938Z" transform="translate(-49.56 -175.905)" fill="#50aa50"/>
        <path id="Path_85086" data-name="Path 85086" d="M54.174,209.361c.406.154.812.322,1.218.476.658.252.938-.8.294-1.05-.406-.154-.812-.322-1.218-.476-.658-.252-.938.8-.294,1.05Z" transform="translate(-50.603 -178.253)" fill="#50aa50"/>
        <path id="Path_85087" data-name="Path 85087" d="M59.86,212.973a.73.73,0,0,1,.574.336c.448.546,1.218-.238.77-.77a1.834,1.834,0,0,0-1.344-.658c-.7-.056-.7,1.036,0,1.092Z" transform="translate(-48.392 -176.81)" fill="#50aa50"/>
        <path id="Path_85088" data-name="Path 85088" d="M61.434,216.432a3.834,3.834,0,0,0,.266,2.128c.266.644,1.2.084.938-.546a2.26,2.26,0,0,1-.154-1.288c.112-.686-.938-.98-1.05-.294h0Z" transform="translate(-47.571 -175.143)" fill="#50aa50"/>
        <path id="Path_85089" data-name="Path 85089" d="M65.589,216.766l.966.252a.546.546,0,0,0,.294-1.05l-.966-.252a.546.546,0,0,0-.294,1.05Z" transform="translate(-46.04 -175.282)" fill="#50aa50"/>
        <path id="Path_85090" data-name="Path 85090" d="M67.972,208.96a1.819,1.819,0,0,0,.658,1.582c.532.448,1.3-.322.77-.77a.848.848,0,0,1-.336-.812c.07-.7-1.022-.7-1.092,0h0Z" transform="translate(-44.937 -178.188)" fill="#50aa50"/>
        <path id="Path_85091" data-name="Path 85091" d="M67.073,203.327a1.637,1.637,0,0,0-.28,1.386c.126.686,1.176.392,1.05-.294a.621.621,0,0,1,.168-.546c.42-.56-.532-1.106-.938-.546h0Z" transform="translate(-45.424 -180.327)" fill="#50aa50"/>
        <path id="Path_85092" data-name="Path 85092" d="M71.25,205.68v.966a.547.547,0,0,0,1.092,0v-.966a.547.547,0,0,0-1.092,0Z" transform="translate(-43.622 -179.501)" fill="#50aa50"/>
        <path id="Path_85093" data-name="Path 85093" d="M64.082,204.6c.238.168.49.322.728.49.588.392,1.134-.546.546-.938-.238-.168-.49-.322-.728-.49-.588-.392-1.134.56-.546.938Z" transform="translate(-46.592 -180.134)" fill="#50aa50"/>
        <path id="Path_85094" data-name="Path 85094" d="M65.349,198.131a1.4,1.4,0,0,1,.336.826c.056.7,1.148.7,1.092,0a2.588,2.588,0,0,0-.658-1.6c-.462-.532-1.218.238-.77.77h0Z" transform="translate(-46.039 -182.693)" fill="#50aa50"/>
        <path id="Path_85095" data-name="Path 85095" d="M67.27,195.65v1.456a.547.547,0,0,0,1.092,0V195.65a.547.547,0,0,0-1.092,0Z" transform="translate(-45.215 -183.516)" fill="#50aa50"/>
        <path id="Path_85096" data-name="Path 85096" d="M72.125,200.337c.154.168.308.336.476.49.49.5,1.26-.266.77-.77-.154-.168-.308-.336-.476-.49-.49-.5-1.26.266-.77.77Z" transform="translate(-43.334 -181.804)" fill="#50aa50"/>
        <path id="Path_85097" data-name="Path 85097" d="M73,195.753l1.442.084c.7.042.7-1.05,0-1.092L73,194.66c-.7-.042-.7,1.05,0,1.092Z" transform="translate(-43.131 -183.703)" fill="#50aa50"/>
        <path id="Path_85098" data-name="Path 85098" d="M74,189.475l.966.966a.545.545,0,0,0,.77-.77l-.966-.966a.545.545,0,0,0-.77.77Z" transform="translate(-42.582 -186.149)" fill="#50aa50"/>
        <path id="Path_85099" data-name="Path 85099" d="M76.95,187.36v1.694a.547.547,0,0,0,1.092,0V187.36a.547.547,0,0,0-1.092,0Z" transform="translate(-41.34 -186.835)" fill="#50aa50"/>
        <path id="Path_85100" data-name="Path 85100" d="M78.655,194.927c.154-.238.322-.49.476-.728.392-.588-.56-1.134-.938-.546-.154.238-.322.49-.476.728-.392.588.56,1.134.938.546Z" transform="translate(-41.07 -184.207)" fill="#50aa50"/>
        <path id="Path_85101" data-name="Path 85101" d="M75.918,202.577c.406-.154.812-.308,1.218-.476.644-.252.364-1.3-.294-1.05-.406.154-.812.308-1.218.476-.644.252-.364,1.3.294,1.05Z" transform="translate(-42.017 -181.16)" fill="#50aa50"/>
        <path id="Path_85102" data-name="Path 85102" d="M79.366,201.416c.406-.084.812-.168,1.2-.252.686-.14.392-1.19-.294-1.05-.406.084-.812.168-1.2.252-.686.14-.392,1.19.294,1.05Z" transform="translate(-40.647 -181.524)" fill="#50aa50"/>
        <path id="Path_85103" data-name="Path 85103" d="M76.95,204.82v.238a.547.547,0,0,0,1.092,0v-.238a.547.547,0,0,0-1.092,0Z" transform="translate(-41.34 -179.845)" fill="#50aa50"/>
        <path id="Path_85104" data-name="Path 85104" d="M70.5,217.005c.238-.168.49-.322.728-.49.574-.392.042-1.33-.546-.938-.238.168-.49.322-.728.49-.574.392-.042,1.33.546.938Z" transform="translate(-44.241 -175.367)" fill="#50aa50"/>
        <path id="Path_85105" data-name="Path 85105" d="M70.087,219.973a3.022,3.022,0,0,1,1.484-.8c.686-.154.392-1.2-.294-1.05a4.113,4.113,0,0,0-1.96,1.078c-.5.49.266,1.26.77.77Z" transform="translate(-44.461 -174.316)" fill="#50aa50"/>
        <path id="Path_85106" data-name="Path 85106" d="M66.639,220.145c.084.154.168.322.252.476.322.63,1.26.07.938-.546-.084-.154-.168-.322-.252-.476-.322-.63-1.26-.07-.938.546Z" transform="translate(-45.494 -173.83)" fill="#50aa50"/>
        <path id="Path_85107" data-name="Path 85107" d="M63.729,221.037a2.736,2.736,0,0,0,1.876.266c.686-.14.392-1.19-.294-1.05a1.409,1.409,0,0,1-1.036-.154c-.616-.322-1.176.616-.546.938Z" transform="translate(-46.743 -173.546)" fill="#50aa50"/>
        <path id="Path_85108" data-name="Path 85108" d="M70.229,213.76c.728-.084,1.456-.182,2.17-.266.686-.084.7-1.176,0-1.092-.728.084-1.456.182-2.17.266-.686.084-.7,1.176,0,1.092Z" transform="translate(-44.239 -176.602)" fill="#50aa50"/>
      </g>
      <g id="Group_3351" data-name="Group 3351" transform="translate(189.14 204.312)">
        <path id="Path_85109" data-name="Path 85109" d="M140.647,189.24q17.581-15.9,35.162-31.787c1.736-1.568-.84-4.131-2.563-2.563q-17.581,15.9-35.162,31.787c-1.736,1.568.84,4.131,2.563,2.563Z" transform="translate(-134.093 -142.503)" fill="#d7e7ff"/>
        <path id="Path_85110" data-name="Path 85110" d="M169.027,200.82q17.581-15.9,35.162-31.787c1.736-1.568-.84-4.131-2.563-2.563q-17.581,15.9-35.162,31.787c-1.736,1.568.84,4.131,2.563,2.563Z" transform="translate(-122.732 -137.867)" fill="#d7e7ff"/>
        <path id="Path_85111" data-name="Path 85111" d="M138.179,220.871q36.863-35.939,73.713-71.878c1.68-1.638-.9-4.2-2.563-2.563q-36.863,35.939-73.713,71.878c-1.68,1.638.9,4.2,2.563,2.563Z" transform="translate(-135.07 -145.904)" fill="#d7e7ff"/>
      </g>
      <g id="Group_3384" data-name="Group 3384" transform="translate(241.202)">
        <g id="Group_3352" data-name="Group 3352" transform="translate(56.463 55.789)">
          <rect id="Rectangle_2273" data-name="Rectangle 2273" width="1.582" height="101.439" transform="translate(5.657)" fill="#415b91"/>
          <path id="Path_85112" data-name="Path 85112" d="M225.453,114.111a6.441,6.441,0,1,1-6.441-6.441A6.442,6.442,0,0,1,225.453,114.111Z" transform="translate(-212.57 -12.687)" fill="#415b91"/>
          <path id="Path_85113" data-name="Path 85113" d="M218.749,132.52a5.657,5.657,0,0,1-3.739-1.554,5.714,5.714,0,0,1-1.54-4.215.854.854,0,1,1,1.708,0,4.112,4.112,0,0,0,1.036,3.011,4.067,4.067,0,0,0,2.535,1.05,4.355,4.355,0,0,0,0-8.71.849.849,0,0,1-.854-.854v-4.733a.854.854,0,1,1,1.708,0v3.935a6.066,6.066,0,0,1-.854,12.071Z" transform="translate(-212.21 -9.488)" fill="#415b91"/>
        </g>
        <g id="Group_3358" data-name="Group 3358" transform="translate(0 176.072)">
          <path id="Path_85114" data-name="Path 85114" d="M193.277,132.446a.786.786,0,0,1,.028-1.554l34.854-5.139a.792.792,0,0,1,.224,1.568l-34.854,5.139h-.252Z" transform="translate(-164.092 -125.735)" fill="#415b91"/>
          <path id="Path_85115" data-name="Path 85115" d="M250.219,144.043a.439.439,0,0,1-.224-.084l-32.053-16.734a.789.789,0,1,1,.728-1.4l32.053,16.734a.79.79,0,0,1,.336,1.064.779.779,0,0,1-.84.406Z" transform="translate(-154.126 -125.737)" fill="#415b91"/>
          <g id="Group_3353" data-name="Group 3353" transform="translate(0 3.652)">
            <rect id="Rectangle_2274" data-name="Rectangle 2274" width="103.077" height="66.319" rx="5.87" transform="translate(11.356) rotate(9.86)" fill="#fff"/>
            <path id="Path_85116" data-name="Path 85116" d="M266.812,211.018a9.514,9.514,0,0,1-1.652-.14L180.4,196.146a9.609,9.609,0,0,1-7.828-11.119L181,136.479a9.626,9.626,0,0,1,11.118-7.828l84.761,14.731a9.609,9.609,0,0,1,7.828,11.119l-8.43,48.549a9.638,9.638,0,0,1-9.466,7.968ZM190.481,130.7a7.45,7.45,0,0,0-7.324,6.161l-8.43,48.549a7.451,7.451,0,0,0,6.049,8.612l84.761,14.731a7.439,7.439,0,0,0,8.6-6.049l8.43-48.549a7.347,7.347,0,0,0-1.246-5.545,7.462,7.462,0,0,0-4.8-3.053l-84.761-14.731a7.971,7.971,0,0,0-1.274-.112Z" transform="translate(-172.176 -128.28)" fill="#415b91"/>
          </g>
          <g id="Group_3354" data-name="Group 3354" transform="translate(5.095 9.219)">
            <rect id="Rectangle_2275" data-name="Rectangle 2275" width="94.059" height="56.055" rx="3.75" transform="translate(9.826 0.255) rotate(9.86)" fill="#b6d0fb"/>
            <path id="Path_85117" data-name="Path 85117" d="M264.377,204.142a6.207,6.207,0,0,1-1.134-.1L181.311,189.8a6.528,6.528,0,0,1-5.321-7.562l7.73-44.5a6.55,6.55,0,0,1,7.562-5.321l81.932,14.241a6.54,6.54,0,0,1,5.321,7.562l-7.73,44.5a6.527,6.527,0,0,1-6.427,5.419Zm-.756-2.241a4.343,4.343,0,0,0,5.027-3.543l7.73-44.5a4.371,4.371,0,0,0-3.543-5.041L190.9,134.574a4.371,4.371,0,0,0-5.041,3.543l-7.73,44.5a4.343,4.343,0,0,0,3.543,5.027l81.932,14.241Z" transform="translate(-175.887 -132.321)" fill="#405b91"/>
          </g>
          <g id="Group_3355" data-name="Group 3355" transform="translate(52.206 52.376)">
            <path id="Path_85118" data-name="Path 85118" d="M210.66,183.53l21.3-19.52,11.791,25.262Z" transform="translate(-209.078 -162.792)" fill="#fff"/>
            <path id="Path_85119" data-name="Path 85119" d="M245.448,190.572l-35.918-6.245,23.119-21.187,12.8,27.432Zm-32.753-7.17,30.261,5.265-10.782-23.119Z" transform="translate(-209.53 -163.14)" fill="#415b91"/>
          </g>
          <g id="Group_3356" data-name="Group 3356" transform="translate(10.085 29.971)">
            <path id="Path_85120" data-name="Path 85120" d="M180.58,182.612l37.767-34.6,20.893,44.8Z" transform="translate(-178.998 -146.792)" fill="#fff"/>
            <path id="Path_85121" data-name="Path 85121" d="M240.938,194.107,179.45,183.422l39.587-36.282ZM182.6,182.5l55.831,9.7-19.9-42.64-35.946,32.949Z" transform="translate(-179.45 -147.14)" fill="#415b91"/>
          </g>
          <g id="Group_3357" data-name="Group 3357" transform="translate(83.132 30.845)">
            <path id="Path_85122" data-name="Path 85122" d="M242.607,154.458a5.28,5.28,0,1,1-4.3-6.105A5.282,5.282,0,0,1,242.607,154.458Z" transform="translate(-231.412 -147.56)" fill="#fff"/>
            <path id="Path_85123" data-name="Path 85123" d="M237.629,159.773a6.337,6.337,0,0,1-1.036-.084,6,6,0,0,1-2.423-10.824,5.989,5.989,0,0,1,8.36,1.456,6,6,0,0,1-4.9,9.452Zm-.028-10.558a4.554,4.554,0,1,0,4.481,5.335h0a4.554,4.554,0,0,0-3.711-5.265,5.1,5.1,0,0,0-.784-.07Z" transform="translate(-231.615 -147.764)" fill="#415b91"/>
          </g>
        </g>
        <rect id="Rectangle_2276" data-name="Rectangle 2276" width="79.16" height="8.71" transform="translate(49.056 52.372)" fill="#b6d0fb"/>
        <g id="Group_3383" data-name="Group 3383" transform="translate(78.879)">
          <g id="Group_3379" data-name="Group 3379">
            <g id="Group_3376" data-name="Group 3376">
              <g id="Group_3369" data-name="Group 3369" transform="translate(91.836)">
                <path id="Path_85124" data-name="Path 85124" d="M320.444,232.42H294.16V.08h26.284Zm-23.679-2.6h21.075V2.685H296.765V229.83Z" transform="translate(-294.16 0.032)" fill="#415b91"/>
                <g id="Group_3359" data-name="Group 3359" transform="translate(0.322)">
                  <path id="Path_85125" data-name="Path 85125" d="M320.016,25.612H294.39V0h25.626Zm-22.979-2.633h20.347V2.633H297.037V22.979Z" transform="translate(-294.39)" fill="#415b91"/>
                  <rect id="Rectangle_2277" data-name="Rectangle 2277" width="2.633" height="32.501" transform="translate(0.405 2.243) rotate(-45)" fill="#415b91"/>
                  <rect id="Rectangle_2278" data-name="Rectangle 2278" width="32.501" height="2.633" transform="translate(0.405 23.374) rotate(-45)" fill="#415b91"/>
                </g>
                <g id="Group_3360" data-name="Group 3360" transform="translate(0.322 22.993)">
                  <path id="Path_85126" data-name="Path 85126" d="M320.016,42.032H294.39V16.42h25.626ZM297.037,39.4h20.347V19.053H297.037Z" transform="translate(-294.39 -16.42)" fill="#415b91"/>
                  <rect id="Rectangle_2279" data-name="Rectangle 2279" width="2.633" height="32.501" transform="translate(0.396 2.234) rotate(-45)" fill="#415b91"/>
                  <rect id="Rectangle_2280" data-name="Rectangle 2280" width="32.501" height="2.633" transform="translate(0.396 23.365) rotate(-45)" fill="#415b91"/>
                </g>
                <g id="Group_3361" data-name="Group 3361" transform="translate(0.322 45.958)">
                  <path id="Path_85127" data-name="Path 85127" d="M320.016,58.446H294.39V32.82h25.626Zm-22.979-2.633h20.347V35.467H297.037Z" transform="translate(-294.39 -32.82)" fill="#415b91"/>
                  <rect id="Rectangle_2281" data-name="Rectangle 2281" width="2.633" height="32.501" transform="translate(0.397 2.249) rotate(-45)" fill="#415b91"/>
                  <rect id="Rectangle_2282" data-name="Rectangle 2282" width="32.501" height="2.633" transform="translate(0.411 23.394) rotate(-45)" fill="#415b91"/>
                </g>
                <g id="Group_3362" data-name="Group 3362" transform="translate(0.322 68.966)">
                  <path id="Path_85128" data-name="Path 85128" d="M320.016,74.862H294.39V49.25h25.626Zm-22.979-2.633h20.347V51.883H297.037Z" transform="translate(-294.39 -49.25)" fill="#415b91"/>
                  <rect id="Rectangle_2283" data-name="Rectangle 2283" width="2.633" height="32.501" transform="translate(0.402 2.227) rotate(-45)" fill="#415b91"/>
                  <rect id="Rectangle_2284" data-name="Rectangle 2284" width="32.501" height="2.633" transform="translate(0.402 23.357) rotate(-45)" fill="#415b91"/>
                </g>
                <g id="Group_3363" data-name="Group 3363" transform="translate(0.322 91.945)">
                  <path id="Path_85129" data-name="Path 85129" d="M320.016,91.272H294.39V65.66h25.626Zm-22.979-2.633h20.347V68.293H297.037Z" transform="translate(-294.39 -65.66)" fill="#415b91"/>
                  <rect id="Rectangle_2285" data-name="Rectangle 2285" width="2.633" height="32.501" transform="translate(0.403 2.242) rotate(-45)" fill="#415b91"/>
                  <rect id="Rectangle_2286" data-name="Rectangle 2286" width="32.501" height="2.633" transform="translate(0.407 23.376) rotate(-45)" fill="#415b91"/>
                </g>
                <g id="Group_3364" data-name="Group 3364" transform="translate(0.322 114.924)">
                  <path id="Path_85130" data-name="Path 85130" d="M320.016,107.7H294.39V82.07h25.626V107.7Zm-22.979-2.633h20.347V84.717H297.037Z" transform="translate(-294.39 -82.07)" fill="#415b91"/>
                  <rect id="Rectangle_2287" data-name="Rectangle 2287" width="2.633" height="32.501" transform="translate(0.394 2.247) rotate(-45)" fill="#415b91"/>
                  <rect id="Rectangle_2288" data-name="Rectangle 2288" width="32.501" height="2.633" transform="translate(0.408 23.391) rotate(-45)" fill="#415b91"/>
                </g>
                <g id="Group_3365" data-name="Group 3365" transform="translate(0.322 137.917)">
                  <path id="Path_85131" data-name="Path 85131" d="M320.016,124.1H294.39V98.49h25.626Zm-22.979-2.633h20.347V101.123H297.037Z" transform="translate(-294.39 -98.49)" fill="#415b91"/>
                  <rect id="Rectangle_2289" data-name="Rectangle 2289" width="2.633" height="32.501" transform="translate(0.409 2.234) rotate(-45)" fill="#415b91"/>
                  <rect id="Rectangle_2290" data-name="Rectangle 2290" width="32.501" height="2.633" transform="translate(0.399 23.382) rotate(-45)" fill="#415b91"/>
                </g>
                <g id="Group_3366" data-name="Group 3366" transform="translate(0.322 160.896)">
                  <path id="Path_85132" data-name="Path 85132" d="M320.016,140.512H294.39V114.9h25.626Zm-22.979-2.633h20.347V117.533H297.037Z" transform="translate(-294.39 -114.9)" fill="#415b91"/>
                  <rect id="Rectangle_2291" data-name="Rectangle 2291" width="2.633" height="32.501" transform="translate(0.4 2.239) rotate(-45)" fill="#415b91"/>
                  <rect id="Rectangle_2292" data-name="Rectangle 2292" width="32.501" height="2.633" transform="translate(0.414 23.383) rotate(-45)" fill="#415b91"/>
                </g>
                <g id="Group_3367" data-name="Group 3367" transform="translate(0.322 183.889)">
                  <path id="Path_85133" data-name="Path 85133" d="M320.016,156.932H294.39V131.32h25.626v25.612ZM297.037,154.3h20.347V133.953H297.037Z" transform="translate(-294.39 -131.32)" fill="#415b91"/>
                  <rect id="Rectangle_2293" data-name="Rectangle 2293" width="2.633" height="32.501" transform="translate(0.406 2.23) rotate(-45)" fill="#415b91"/>
                  <rect id="Rectangle_2294" data-name="Rectangle 2294" width="32.501" height="2.633" transform="translate(0.406 23.374) rotate(-45)" fill="#415b91"/>
                </g>
                <g id="Group_3368" data-name="Group 3368" transform="translate(0.322 206.869)">
                  <path id="Path_85134" data-name="Path 85134" d="M320.016,173.342H294.39V147.73h25.626v25.612Zm-22.979-2.633h20.347V150.363H297.037Z" transform="translate(-294.39 -147.73)" fill="#415b91"/>
                  <rect id="Rectangle_2295" data-name="Rectangle 2295" width="2.633" height="32.501" transform="translate(0.407 2.231) rotate(-45)" fill="#415b91"/>
                  <rect id="Rectangle_2296" data-name="Rectangle 2296" width="32.501" height="2.633" transform="translate(0.399 23.371) rotate(-44.99)" fill="#415b91"/>
                </g>
              </g>
              <g id="Group_3375" data-name="Group 3375" transform="translate(0 22.629)">
                <g id="Group_3370" data-name="Group 3370" transform="translate(137.907)">
                  <path id="Path_85135" data-name="Path 85135" d="M352.672,41.786H327.06V16.16h25.612Zm-22.979-2.633h20.347V18.807H329.693Z" transform="translate(-327.06 -16.16)" fill="#415b91"/>
                  <rect id="Rectangle_2297" data-name="Rectangle 2297" width="32.501" height="2.633" transform="translate(0.379 23.388) rotate(-45.01)" fill="#415b91"/>
                  <rect id="Rectangle_2298" data-name="Rectangle 2298" width="2.633" height="32.501" transform="translate(0.388 2.257) rotate(-45)" fill="#415b91"/>
                </g>
                <g id="Group_3371" data-name="Group 3371" transform="translate(114.928)">
                  <path id="Path_85136" data-name="Path 85136" d="M336.262,41.786H310.65V16.16h25.612Zm-22.979-2.633h20.347V18.807H313.283Z" transform="translate(-310.65 -16.16)" fill="#415b91"/>
                  <rect id="Rectangle_2299" data-name="Rectangle 2299" width="32.501" height="2.633" transform="translate(0.377 23.382) rotate(-45.01)" fill="#415b91"/>
                  <rect id="Rectangle_2300" data-name="Rectangle 2300" width="2.633" height="32.501" transform="translate(0.373 2.258) rotate(-45)" fill="#415b91"/>
                </g>
                <path id="Path_85137" data-name="Path 85137" d="M319.852,41.786H294.24V16.16h25.612Zm-22.979-2.633h20.347V18.807H296.873Z" transform="translate(-202.292 -16.16)" fill="#415b91"/>
                <g id="Group_3372" data-name="Group 3372" transform="translate(68.955)">
                  <path id="Path_85138" data-name="Path 85138" d="M303.432,41.786H277.82V16.16h25.612Zm-22.979-2.633H300.8V18.807H280.453Z" transform="translate(-277.82 -16.16)" fill="#415b91"/>
                  <rect id="Rectangle_2301" data-name="Rectangle 2301" width="32.501" height="2.633" transform="translate(0.381 23.375) rotate(-45)" fill="#415b91"/>
                  <rect id="Rectangle_2302" data-name="Rectangle 2302" width="2.633" height="32.501" transform="translate(0.381 2.264) rotate(-45)" fill="#415b91"/>
                </g>
                <g id="Group_3373" data-name="Group 3373" transform="translate(45.976)">
                  <path id="Path_85139" data-name="Path 85139" d="M287.022,41.786H261.41V16.16h25.612Zm-22.979-2.633h20.347V18.807H264.043Z" transform="translate(-261.41 -16.16)" fill="#415b91"/>
                  <rect id="Rectangle_2303" data-name="Rectangle 2303" width="32.501" height="2.633" transform="translate(0.366 23.376) rotate(-45)" fill="#415b91"/>
                  <rect id="Rectangle_2304" data-name="Rectangle 2304" width="2.633" height="32.501" transform="translate(0.376 2.255) rotate(-45)" fill="#415b91"/>
                </g>
                <g id="Group_3374" data-name="Group 3374">
                  <path id="Path_85140" data-name="Path 85140" d="M270.6,41.786H244.99V16.16H270.6Zm-22.979-2.633h20.347V18.807H247.623Z" transform="translate(-222.007 -16.16)" fill="#415b91"/>
                  <path id="Path_85141" data-name="Path 85141" d="M252.876,41.67H229.9a1.328,1.328,0,0,1-1.218-.812,1.312,1.312,0,0,1,.28-1.428L251.938,16.45l1.862,1.862L233.062,39.051h19.254l22.6-22.6,1.862,1.862L253.8,41.292a1.318,1.318,0,0,1-.924.392Z" transform="translate(-228.577 -16.044)" fill="#415b91"/>
                  <rect id="Rectangle_2305" data-name="Rectangle 2305" width="2.633" height="32.501" transform="translate(23.368 2.246) rotate(-45)" fill="#415b91"/>
                </g>
              </g>
            </g>
            <g id="Group_3377" data-name="Group 3377" transform="translate(91.836 232.466)">
              <path id="Path_85142" data-name="Path 85142" d="M320.5,191.622H294.16V166.01H320.5v25.612Zm-23.623-2.633H317.8V168.643H296.877Z" transform="translate(-294.16 -166.01)" fill="#415b91"/>
              <path id="Path_85143" data-name="Path 85143" d="M318.073,191.122,294.45,168.142l1.9-1.862,23.637,22.979Z" transform="translate(-294.044 -165.902)" fill="#415b91"/>
              <path id="Path_85144" data-name="Path 85144" d="M296.354,191.122l-1.9-1.862,23.623-22.979,1.918,1.862Z" transform="translate(-294.044 -165.902)" fill="#415b91"/>
            </g>
            <g id="Group_3378" data-name="Group 3378" transform="translate(91.836 324.397)">
              <path id="Path_85145" data-name="Path 85145" d="M320.5,257.272H294.16V231.66H320.5v25.612Zm-23.623-2.633H317.8V234.293H296.877Z" transform="translate(-294.16 -231.66)" fill="#415b91"/>
              <path id="Path_85146" data-name="Path 85146" d="M318.073,256.782,294.45,233.788l1.9-1.848,23.637,22.979Z" transform="translate(-294.044 -231.548)" fill="#415b91"/>
              <path id="Path_85147" data-name="Path 85147" d="M296.354,256.782l-1.9-1.862,23.623-22.979,1.918,1.848Z" transform="translate(-294.044 -231.548)" fill="#415b91"/>
            </g>
          </g>
          <g id="Group_3380" data-name="Group 3380" transform="translate(91.836 253.275)">
            <path id="Path_85148" data-name="Path 85148" d="M320.5,206.482H294.16V180.87H320.5Zm-23.623-2.633H317.8V183.5H296.877Z" transform="translate(-294.16 -180.87)" fill="#415b91"/>
            <path id="Path_85149" data-name="Path 85149" d="M318.073,205.982,294.45,183l1.9-1.862,23.637,22.979Z" transform="translate(-294.044 -180.762)" fill="#415b91"/>
            <path id="Path_85150" data-name="Path 85150" d="M296.354,205.982l-1.9-1.862,23.623-22.979L319.992,183Z" transform="translate(-294.044 -180.762)" fill="#415b91"/>
          </g>
          <g id="Group_3381" data-name="Group 3381" transform="translate(91.836 276.254)">
            <path id="Path_85151" data-name="Path 85151" d="M320.5,222.892H294.16V197.28H320.5Zm-23.623-2.633H317.8V199.913H296.877Z" transform="translate(-294.16 -197.28)" fill="#415b91"/>
            <path id="Path_85152" data-name="Path 85152" d="M318.073,222.406,294.45,199.412l1.9-1.862,23.637,22.993Z" transform="translate(-294.044 -197.172)" fill="#415b91"/>
            <path id="Path_85153" data-name="Path 85153" d="M296.354,222.406l-1.9-1.862,23.623-22.993,1.918,1.862Z" transform="translate(-294.044 -197.172)" fill="#415b91"/>
          </g>
          <g id="Group_3382" data-name="Group 3382" transform="translate(91.836 299.233)">
            <path id="Path_85154" data-name="Path 85154" d="M320.5,239.3H294.16V213.69H320.5V239.3Zm-23.623-2.633H317.8V216.323H296.877Z" transform="translate(-294.16 -213.69)" fill="#415b91"/>
            <path id="Path_85155" data-name="Path 85155" d="M318.073,238.812,294.45,215.832l1.9-1.862,23.637,22.979Z" transform="translate(-294.044 -213.578)" fill="#415b91"/>
            <path id="Path_85156" data-name="Path 85156" d="M296.354,238.812l-1.9-1.862,23.623-22.979,1.918,1.862Z" transform="translate(-294.044 -213.578)" fill="#415b91"/>
          </g>
        </g>
      </g>
      <path id="Path_85157" data-name="Path 85157" d="M103.7,100.795c2.8,0,2.815-4.355,0-4.355s-2.815,4.355,0,4.355Z" transform="translate(40.669 38.606)" fill="#405b91"/>
      <path id="Path_85158" data-name="Path 85158" d="M272.393,68.3c2.8,0,2.815-4.355,0-4.355s-2.815,4.355,0,4.355Z" transform="translate(108.198 25.6)" fill="#405b91"/>
      <path id="Path_85159" data-name="Path 85159" d="M342.245,179.619h.966a2.184,2.184,0,0,0,0-4.369h-.966a2.184,2.184,0,1,0,0,4.369Z" transform="translate(136.131 70.155)" fill="#405b91"/>
      <path id="Path_85160" data-name="Path 85160" d="M42.163,202.435c2.8,0,2.815-4.355,0-4.355s-2.815,4.355,0,4.355Z" transform="translate(16.034 79.294)" fill="#405b91"/>
      <path id="Path_85161" data-name="Path 85161" d="M190.813,53.095c2.8,0,2.815-4.355,0-4.355s-2.815,4.355,0,4.355Z" transform="translate(75.541 19.511)" fill="#405b91"/>
    </g>
  </g>
  <text id="Feature_is_in_progress" data-name="Feature is in progress" transform="translate(478 635)" fill="#173cb4" font-size="32" font-family="NHaasGroteskDSPro-75Bd, Neue Haas Grotesk Display Pro"><tspan x="-153.232" y="30">Feature is in progress</tspan></text>
  <text id="Site_is_under_construction_developed_by_Techdemocracy_Team" data-name="Site is under construction 
developed by Techdemocracy Team" transform="translate(478 693)" fill="#000f2b" font-size="24" font-family="NHaasGroteskDSPro-55Rg, Neue Haas Grotesk Display Pro"><tspan x="-127.284" y="22">Site is under construction </tspan><tspan x="-181.92" y="54">developed by Techdemocracy Team</tspan></text>
</svg>
