<?xml version="1.0" encoding="UTF-8"?><svg id="About_us_Outline" xmlns="http://www.w3.org/2000/svg" xmlns:xlink="http://www.w3.org/1999/xlink" viewBox="0 0 1101.8 800"><defs><style>.cls-1{fill:url(#linear-gradient);}.cls-1,.cls-2,.cls-3,.cls-4,.cls-5,.cls-6,.cls-7,.cls-8,.cls-9,.cls-10,.cls-11,.cls-12,.cls-13{stroke-width:0px;}.cls-2{fill:#5d21b0;}.cls-3{fill:url(#linear-gradient-6);}.cls-4{fill:url(#linear-gradient-5);}.cls-5{fill:#5c1185;}.cls-6{fill:#fff;}.cls-7{fill:url(#linear-gradient-2);}.cls-8{fill:url(#linear-gradient-7);}.cls-9{fill:url(#linear-gradient-3);}.cls-10{fill:url(#linear-gradient-8);}.cls-11{fill:#0f1185;}.cls-12{fill:url(#linear-gradient-4);}.cls-13{fill:#007ecc;}</style><linearGradient id="linear-gradient" x1="42.38" y1="595.51" x2="259.82" y2="595.51" gradientTransform="translate(802.85 490.9) rotate(90)" gradientUnits="userSpaceOnUse"><stop offset="0" stop-color="#f6a5ac" stop-opacity=".8"/><stop offset="1" stop-color="#f641ac"/></linearGradient><linearGradient id="linear-gradient-2" x1="42.38" y1="337.87" x2="259.82" y2="337.87" gradientTransform="translate(802.85 490.9) rotate(90)" gradientUnits="userSpaceOnUse"><stop offset="0" stop-color="#645aff" stop-opacity=".8"/><stop offset="1" stop-color="#8000f6"/></linearGradient><linearGradient id="linear-gradient-3" x1="42.38" y1="80.23" x2="259.82" y2="80.23" gradientTransform="translate(802.85 490.9) rotate(90)" gradientUnits="userSpaceOnUse"><stop offset="0" stop-color="#22c3fd" stop-opacity=".8"/><stop offset="1" stop-color="#226afd"/></linearGradient><linearGradient id="linear-gradient-4" x1="42.38" y1="-177.4" x2="259.82" y2="-177.4" gradientTransform="translate(802.85 490.9) rotate(90)" gradientUnits="userSpaceOnUse"><stop offset="0" stop-color="#645aff" stop-opacity=".8"/><stop offset="1" stop-color="#00aaa2"/></linearGradient><linearGradient id="linear-gradient-5" x1="207.34" y1="357.55" x2="207.34" y2="56.73" gradientUnits="userSpaceOnUse"><stop offset="0" stop-color="#8018b7"/><stop offset=".11" stop-color="#7a19b6" stop-opacity=".95"/><stop offset=".29" stop-color="#6c1eb6" stop-opacity=".82"/><stop offset=".51" stop-color="#5626b5" stop-opacity=".6"/><stop offset=".77" stop-color="#3631b4" stop-opacity=".3"/><stop offset="1" stop-color="#173cb4" stop-opacity="0"/></linearGradient><linearGradient id="linear-gradient-6" x1="464.98" y1="357.55" x2="464.98" y2="56.73" gradientUnits="userSpaceOnUse"><stop offset="0" stop-color="#009dff"/><stop offset=".08" stop-color="#0099fc" stop-opacity=".96"/><stop offset=".22" stop-color="#0390f5" stop-opacity=".87"/><stop offset=".4" stop-color="#0681e9" stop-opacity=".71"/><stop offset=".6" stop-color="#0b6cd9" stop-opacity=".5"/><stop offset=".83" stop-color="#1151c4" stop-opacity=".22"/><stop offset="1" stop-color="#173cb4" stop-opacity="0"/></linearGradient><linearGradient id="linear-gradient-7" x1="722.61" y1="357.55" x2="722.61" y2="56.73" gradientUnits="userSpaceOnUse"><stop offset="0" stop-color="#8630fc"/><stop offset=".09" stop-color="#8230f9" stop-opacity=".96"/><stop offset=".23" stop-color="#7731f2" stop-opacity=".87"/><stop offset=".4" stop-color="#6533e7" stop-opacity=".71"/><stop offset=".61" stop-color="#4d36d7" stop-opacity=".49"/><stop offset=".84" stop-color="#2e39c3" stop-opacity=".21"/><stop offset="1" stop-color="#173cb4" stop-opacity="0"/></linearGradient><linearGradient id="linear-gradient-8" x1="980.25" y1="357.55" x2="980.25" y2="56.73" gradientUnits="userSpaceOnUse"><stop offset="0" stop-color="#1518b7"/><stop offset=".11" stop-color="#1519b6" stop-opacity=".95"/><stop offset=".29" stop-color="#151eb6" stop-opacity=".82"/><stop offset=".51" stop-color="#1526b5" stop-opacity=".6"/><stop offset=".77" stop-color="#1631b4" stop-opacity=".3"/><stop offset="1" stop-color="#173cb4" stop-opacity="0"/></linearGradient></defs><path class="cls-1" d="m303.38,689.33v-94.66c0-5.02-2.68-9.67-7.03-12.18l-81.98-47.33c-4.35-2.51-9.71-2.51-14.06,0l-81.98,47.33c-4.35,2.51-7.03,7.15-7.03,12.18v94.66c0,5.02,2.68,9.67,7.03,12.18l81.98,47.33c4.35,2.51,9.71,2.51,14.06,0l81.98-47.33c4.35-2.51,7.03-7.15,7.03-12.18Z"/><path class="cls-7" d="m561.02,689.33v-94.66c0-5.02-2.68-9.67-7.03-12.18l-81.98-47.33c-4.35-2.51-9.71-2.51-14.06,0l-81.98,47.33c-4.35,2.51-7.03,7.15-7.03,12.18v94.66c0,5.02,2.68,9.67,7.03,12.18l81.98,47.33c4.35,2.51,9.71,2.51,14.06,0l81.98-47.33c4.35-2.51,7.03-7.15,7.03-12.18Z"/><path class="cls-9" d="m818.65,689.33v-94.66c0-5.02-2.68-9.67-7.03-12.18l-81.98-47.33c-4.35-2.51-9.71-2.51-14.06,0l-81.98,47.33c-4.35,2.51-7.03,7.15-7.03,12.18v94.66c0,5.02,2.68,9.67,7.03,12.18l81.98,47.33c4.35,2.51,9.71,2.51,14.06,0l81.98-47.33c4.35-2.51,7.03-7.15,7.03-12.18Z"/><path class="cls-12" d="m1076.29,689.33v-94.66c0-5.02-2.68-9.67-7.03-12.18l-81.98-47.33c-4.35-2.51-9.71-2.51-14.06,0l-81.98,47.33c-4.35,2.51-7.03,7.15-7.03,12.18v94.66c0,5.02,2.68,9.67,7.03,12.18l81.98,47.33c4.35,2.51,9.71,2.51,14.06,0l81.98-47.33c4.35-2.51,7.03-7.15,7.03-12.18Z"/><path class="cls-4" d="m321.17,660.53l-106.45,64.23c-4.54,2.74-10.22,2.74-14.76,0l-106.45-64.23c-4.29-2.59-6.91-7.23-6.91-12.23V63.57c0-7.89,6.4-14.29,14.29-14.29h212.91c7.89,0,14.29,6.4,14.29,14.29v584.73c0,5.01-2.62,9.65-6.91,12.23Z"/><path class="cls-3" d="m578.81,660.53l-106.45,64.23c-4.54,2.74-10.22,2.74-14.76,0l-106.45-64.23c-4.29-2.59-6.91-7.23-6.91-12.23V63.57c0-7.89,6.4-14.29,14.29-14.29h212.91c7.89,0,14.29,6.4,14.29,14.29v584.73c0,5.01-2.62,9.65-6.91,12.23Z"/><path class="cls-8" d="m836.45,660.53l-106.45,64.23c-4.54,2.74-10.22,2.74-14.76,0l-106.45-64.23c-4.29-2.59-6.91-7.23-6.91-12.23V63.57c0-7.89,6.4-14.29,14.29-14.29h212.91c7.89,0,14.29,6.4,14.29,14.29v584.73c0,5.01-2.62,9.65-6.91,12.23Z"/><path class="cls-10" d="m1094.09,660.53l-106.45,64.23c-4.54,2.74-10.22,2.74-14.76,0l-106.45-64.23c-4.29-2.59-6.91-7.23-6.91-12.23V63.57c0-7.89,6.4-14.29,14.29-14.29h212.91c7.89,0,14.29,6.4,14.29,14.29v584.73c0,5.01-2.62,9.65-6.91,12.23Z"/><circle class="cls-5" cx="207.34" cy="599.34" r="58.51"/><circle class="cls-13" cx="464.98" cy="599.34" r="58.51"/><circle class="cls-2" cx="722.61" cy="599.34" r="58.51"/><circle class="cls-11" cx="980.25" cy="599.34" r="58.51"/><path class="cls-6" d="m115.77,402.97v-15.68h4.69v15.68c0,2.39,1.2,4.07,4.33,4.07,2.97,0,4.37-1.75,4.37-4.14v-15.62h4.69v15.68c0,4.95-3.04,7.83-8.96,7.83s-9.12-2.81-9.12-7.83Z"/><path class="cls-6" d="m135.88,393.82h2.29v-5.17h4.3v5.17h2.84v2.91h-2.84v8.79c0,1.23.68,1.65,1.65,1.65.55,0,1.29-.03,1.29-.03v3.23s-1,.06-2.75.06c-2.13,0-4.5-.84-4.5-3.98v-9.73h-2.29v-2.91Z"/><path class="cls-6" d="m147.59,387.29h4.4v3.94h-4.4v-3.94Zm0,6.53h4.4v16.59h-4.4v-16.59Z"/><path class="cls-6" d="m154.89,387.29h4.4v23.12h-4.4v-23.12Z"/><path class="cls-6" d="m162.2,387.29h4.4v3.94h-4.4v-3.94Zm0,6.53h4.4v16.59h-4.4v-16.59Z"/><path class="cls-6" d="m168.47,393.82h2.29v-5.17h4.3v5.17h2.84v2.91h-2.84v8.79c0,1.23.68,1.65,1.65,1.65.55,0,1.29-.03,1.29-.03v3.23s-1,.06-2.75.06c-2.13,0-4.49-.84-4.49-3.98v-9.73h-2.29v-2.91Z"/><path class="cls-6" d="m180.18,387.29h4.4v3.94h-4.4v-3.94Zm0,6.53h4.4v16.59h-4.4v-16.59Z"/><path class="cls-6" d="m186.61,402.1c0-4.91,3.33-8.73,8.18-8.73,5.33,0,8.18,4.07,8.18,9.99h-12.03c.32,2.55,1.75,4.14,4.24,4.14,1.71,0,2.72-.78,3.2-2.04h4.33c-.62,2.94-3.23,5.43-7.5,5.43-5.5,0-8.6-3.85-8.6-8.79Zm4.4-1.78h7.37c-.13-2.1-1.52-3.56-3.52-3.56-2.33,0-3.46,1.39-3.85,3.56Z"/><path class="cls-6" d="m203.98,405.04h4.07c.29,1.91,1.65,2.75,3.62,2.75s3.04-.74,3.04-1.91c0-1.58-2.1-1.75-4.37-2.2-2.97-.58-5.88-1.39-5.88-5.01s2.97-5.3,6.76-5.3c4.37,0,6.79,2.17,7.11,5.5h-3.98c-.19-1.78-1.33-2.42-3.2-2.42-1.71,0-2.85.65-2.85,1.84,0,1.42,2.2,1.55,4.56,2.04,2.78.58,5.85,1.36,5.85,5.24,0,3.33-2.84,5.33-6.98,5.33-4.82,0-7.5-2.33-7.76-5.85Z"/><path class="cls-6" d="m225.32,404.46c0-3.3,2.1-5.37,5.11-6.89-1.33-1.62-1.94-2.91-1.94-4.79,0-3.01,2.39-5.33,5.98-5.33s6.05,2.13,6.05,5.3c0,2.85-1.65,4.27-4.14,5.56l3.07,3.98c.45-1.16.78-2.49.91-3.75h3.91c-.19,2.59-.94,5.08-2.2,7.15l3.65,4.72h-5.37l-1.2-1.52c-1.71,1.26-3.82,2-6.14,2-5.08,0-7.7-2.81-7.7-6.43Zm11.54,1.46l-4.24-5.53c-1.97,1.2-2.65,2.49-2.65,3.94,0,1.75,1.39,2.94,3.2,2.94,1.39,0,2.65-.49,3.69-1.36Zm-2.46-10.09c1.52-.91,1.94-1.91,1.94-3.01s-.84-1.84-1.81-1.84c-1.03,0-1.81.78-1.81,1.88,0,1.03.71,2.04,1.68,2.97Z"/><path class="cls-6" d="m122.33,425.29h4.85l8.15,23.12h-4.88l-1.55-4.91h-8.34l-1.52,4.91h-4.75l8.05-23.12Zm-.68,14.61h6.11l-2.07-6.66c-.39-1.23-.94-3.56-.94-3.56h-.06s-.58,2.33-.97,3.56l-2.07,6.66Z"/><path class="cls-6" d="m135.46,440.13c0-4.95,3.23-8.76,8.28-8.76,4.3,0,6.95,2.49,7.53,6.08h-4.3c-.29-1.46-1.42-2.55-3.04-2.55-2.65,0-4.01,2.04-4.01,5.24s1.26,5.24,3.95,5.24c1.78,0,3.04-.94,3.33-2.81h4.24c-.29,3.52-3.04,6.34-7.47,6.34-5.24,0-8.5-3.82-8.5-8.76Z"/><path class="cls-6" d="m152.53,440.13c0-4.95,3.23-8.76,8.28-8.76,4.3,0,6.95,2.49,7.53,6.08h-4.3c-.29-1.46-1.42-2.55-3.04-2.55-2.65,0-4.01,2.04-4.01,5.24s1.26,5.24,3.95,5.24c1.78,0,3.04-.94,3.33-2.81h4.24c-.29,3.52-3.04,6.34-7.47,6.34-5.24,0-8.5-3.82-8.5-8.76Z"/><path class="cls-6" d="m169.61,440.1c0-4.91,3.33-8.73,8.18-8.73,5.33,0,8.18,4.07,8.18,9.99h-12.03c.32,2.55,1.75,4.14,4.24,4.14,1.71,0,2.72-.78,3.2-2.04h4.33c-.62,2.94-3.23,5.43-7.5,5.43-5.5,0-8.6-3.85-8.6-8.79Zm4.4-1.78h7.37c-.13-2.1-1.52-3.56-3.52-3.56-2.33,0-3.46,1.39-3.85,3.56Z"/><path class="cls-6" d="m188.07,425.29h4.4v23.12h-4.4v-23.12Z"/><path class="cls-6" d="m194.57,440.1c0-4.91,3.33-8.73,8.18-8.73,5.33,0,8.18,4.07,8.18,9.99h-12.03c.32,2.55,1.75,4.14,4.24,4.14,1.71,0,2.72-.78,3.2-2.04h4.33c-.62,2.94-3.23,5.43-7.5,5.43-5.5,0-8.6-3.85-8.6-8.79Zm4.4-1.78h7.37c-.13-2.1-1.52-3.56-3.52-3.56-2.33,0-3.46,1.39-3.85,3.56Z"/><path class="cls-6" d="m217.2,434.47h.1c1-1.88,2.13-2.85,4.07-2.85.49,0,.78.03,1.04.13v3.85h-.1c-2.88-.29-4.95,1.23-4.95,4.72v8.08h-4.4v-16.59h4.24v2.65Z"/><path class="cls-6" d="m233.76,446.56h-.06c-.84,1.26-2.04,2.23-4.88,2.23-3.4,0-5.79-1.78-5.79-5.08,0-3.65,2.97-4.82,6.66-5.33,2.75-.39,4.01-.61,4.01-1.88s-.94-1.97-2.78-1.97c-2.07,0-3.07.74-3.2,2.33h-3.91c.13-2.91,2.29-5.46,7.15-5.46s6.98,2.23,6.98,6.11v8.44c0,1.26.19,2,.58,2.3v.16h-4.24c-.26-.32-.42-1.1-.52-1.84Zm.03-4.01v-2.49c-.78.45-1.97.71-3.07.97-2.3.52-3.43,1.04-3.43,2.59s1.03,2.1,2.59,2.1c2.52,0,3.91-1.55,3.91-3.17Z"/><path class="cls-6" d="m239.42,431.82h2.29v-5.17h4.3v5.17h2.84v2.91h-2.84v8.79c0,1.23.68,1.65,1.65,1.65.55,0,1.29-.03,1.29-.03v3.23s-1,.06-2.75.06c-2.13,0-4.5-.84-4.5-3.98v-9.73h-2.29v-2.91Z"/><path class="cls-6" d="m250.15,440.13c0-4.95,3.52-8.76,8.67-8.76s8.67,3.82,8.67,8.76-3.52,8.76-8.67,8.76-8.67-3.82-8.67-8.76Zm12.87,0c0-3.23-1.52-5.43-4.2-5.43s-4.2,2.2-4.2,5.43,1.49,5.4,4.2,5.4,4.2-2.17,4.2-5.4Z"/><path class="cls-6" d="m273.75,434.47h.1c1-1.88,2.13-2.85,4.07-2.85.49,0,.78.03,1.04.13v3.85h-.1c-2.88-.29-4.95,1.23-4.95,4.72v8.08h-4.4v-16.59h4.24v2.65Z"/><path class="cls-6" d="m279.83,443.04h4.07c.29,1.91,1.65,2.75,3.62,2.75s3.04-.74,3.04-1.91c0-1.58-2.1-1.75-4.37-2.2-2.97-.58-5.88-1.39-5.88-5.01s2.97-5.3,6.76-5.3c4.37,0,6.79,2.17,7.11,5.5h-3.98c-.19-1.78-1.33-2.42-3.2-2.42-1.71,0-2.85.65-2.85,1.84,0,1.42,2.2,1.55,4.56,2.04,2.78.58,5.85,1.36,5.85,5.24,0,3.33-2.84,5.33-6.98,5.33-4.82,0-7.5-2.33-7.76-5.85Z"/><path class="cls-6" d="m378.45,387.29h18.59v3.94h-6.95v19.17h-4.69v-19.17h-6.95v-3.94Z"/><path class="cls-6" d="m405.26,408.56h-.06c-.84,1.26-2.04,2.23-4.88,2.23-3.4,0-5.79-1.78-5.79-5.08,0-3.65,2.97-4.82,6.66-5.33,2.75-.39,4.01-.61,4.01-1.88s-.94-1.97-2.78-1.97c-2.07,0-3.07.74-3.2,2.33h-3.91c.13-2.91,2.29-5.46,7.15-5.46s6.98,2.23,6.98,6.11v8.44c0,1.26.19,2,.58,2.3v.16h-4.24c-.26-.32-.42-1.1-.52-1.84Zm.03-4.01v-2.49c-.78.45-1.97.71-3.07.97-2.3.52-3.43,1.04-3.43,2.59s1.03,2.1,2.59,2.1c2.52,0,3.91-1.55,3.91-3.17Z"/><path class="cls-6" d="m412.21,387.29h4.4v3.94h-4.4v-3.94Zm0,6.53h4.4v16.59h-4.4v-16.59Z"/><path class="cls-6" d="m419.52,387.29h4.4v23.12h-4.4v-23.12Z"/><path class="cls-6" d="m426.02,402.13c0-4.95,3.52-8.76,8.67-8.76s8.67,3.82,8.67,8.76-3.52,8.76-8.67,8.76-8.67-3.82-8.67-8.76Zm12.87,0c0-3.23-1.52-5.43-4.2-5.43s-4.2,2.2-4.2,5.43,1.49,5.4,4.2,5.4,4.2-2.17,4.2-5.4Z"/><path class="cls-6" d="m449.62,396.47h.1c1-1.88,2.13-2.85,4.07-2.85.49,0,.78.03,1.04.13v3.85h-.1c-2.88-.29-4.95,1.23-4.95,4.72v8.08h-4.4v-16.59h4.24v2.65Z"/><path class="cls-6" d="m455.44,402.1c0-4.91,3.33-8.73,8.18-8.73,5.33,0,8.18,4.07,8.18,9.99h-12.03c.32,2.55,1.75,4.14,4.24,4.14,1.71,0,2.72-.78,3.2-2.04h4.33c-.62,2.94-3.23,5.43-7.5,5.43-5.5,0-8.6-3.85-8.6-8.79Zm4.4-1.78h7.37c-.13-2.1-1.52-3.56-3.52-3.56-2.33,0-3.46,1.39-3.85,3.56Z"/><path class="cls-6" d="m473.03,402.13c0-5.17,2.94-8.76,7.08-8.76,2.33,0,3.78,1.07,4.69,2.46h.1v-8.54h4.4v23.12h-4.24v-2.17h-.06c-.97,1.58-2.62,2.65-4.95,2.65-4.17,0-7.02-3.4-7.02-8.76Zm11.96.1c0-3.17-1.04-5.3-3.85-5.3-2.43,0-3.65,2.13-3.65,5.21s1.26,5.08,3.52,5.08c2.62,0,3.98-1.94,3.98-4.98Z"/><path class="cls-6" d="m378.62,441.26h4.59c.32,2.78,1.91,3.88,5.21,3.88,2.39,0,4.49-.84,4.49-2.97,0-2.26-2.2-2.72-5.72-3.52-4.14-.94-7.92-2.04-7.92-6.85,0-4.56,3.72-6.92,8.86-6.92s8.57,2.55,8.92,7.21h-4.49c-.26-2.33-2.07-3.49-4.46-3.49-2.52,0-4.17,1.07-4.17,2.72,0,1.88,1.62,2.43,5.04,3.17,4.75,1.04,8.63,2.17,8.63,7.15,0,4.69-3.78,7.31-8.99,7.31-6.27,0-9.83-2.78-9.99-7.66Z"/><path class="cls-6" d="m399.24,440.13c0-4.95,3.52-8.76,8.67-8.76s8.67,3.82,8.67,8.76-3.52,8.76-8.67,8.76-8.67-3.82-8.67-8.76Zm12.87,0c0-3.23-1.52-5.43-4.2-5.43s-4.2,2.2-4.2,5.43,1.49,5.4,4.2,5.4,4.2-2.17,4.2-5.4Z"/><path class="cls-6" d="m418.68,425.29h4.4v23.12h-4.4v-23.12Z"/><path class="cls-6" d="m436.46,448.41v-1.94h-.1c-1.13,1.52-2.42,2.39-4.75,2.39-3.69,0-5.76-2.36-5.76-5.98v-11.06h4.37v10.31c0,1.94.87,3.01,2.75,3.01,2.07,0,3.33-1.55,3.33-3.75v-9.57h4.4v16.59h-4.24Z"/><path class="cls-6" d="m442.57,431.82h2.29v-5.17h4.3v5.17h2.84v2.91h-2.84v8.79c0,1.23.68,1.65,1.65,1.65.55,0,1.29-.03,1.29-.03v3.23s-1,.06-2.75.06c-2.13,0-4.49-.84-4.49-3.98v-9.73h-2.29v-2.91Z"/><path class="cls-6" d="m454.28,425.29h4.4v3.94h-4.4v-3.94Zm0,6.53h4.4v16.59h-4.4v-16.59Z"/><path class="cls-6" d="m460.71,440.13c0-4.95,3.52-8.76,8.67-8.76s8.67,3.82,8.67,8.76-3.52,8.76-8.67,8.76-8.67-3.82-8.67-8.76Zm12.87,0c0-3.23-1.52-5.43-4.2-5.43s-4.2,2.2-4.2,5.43,1.49,5.4,4.2,5.4,4.2-2.17,4.2-5.4Z"/><path class="cls-6" d="m484.38,434.08h.1c1.13-1.78,2.65-2.72,4.91-2.72,3.43,0,5.72,2.59,5.72,6.21v10.83h-4.4v-10.18c0-1.78-1.04-3.04-2.88-3.04-1.94,0-3.36,1.55-3.36,3.81v9.41h-4.4v-16.59h4.3v2.26Z"/><path class="cls-6" d="m496.8,443.04h4.07c.29,1.91,1.65,2.75,3.62,2.75s3.04-.74,3.04-1.91c0-1.58-2.1-1.75-4.37-2.2-2.97-.58-5.88-1.39-5.88-5.01s2.97-5.3,6.76-5.3c4.37,0,6.79,2.17,7.11,5.5h-3.98c-.19-1.78-1.33-2.42-3.2-2.42-1.71,0-2.85.65-2.85,1.84,0,1.42,2.2,1.55,4.56,2.04,2.78.58,5.85,1.36,5.85,5.24,0,3.33-2.84,5.33-6.98,5.33-4.82,0-7.5-2.33-7.76-5.85Z"/><path class="cls-6" d="m635.42,403.26h4.59c.32,2.78,1.91,3.88,5.21,3.88,2.39,0,4.49-.84,4.49-2.97,0-2.26-2.2-2.72-5.72-3.52-4.14-.94-7.92-2.04-7.92-6.85,0-4.56,3.72-6.92,8.86-6.92s8.57,2.55,8.92,7.21h-4.49c-.26-2.33-2.07-3.49-4.46-3.49-2.52,0-4.17,1.07-4.17,2.72,0,1.88,1.62,2.43,5.04,3.17,4.75,1.03,8.63,2.17,8.63,7.15,0,4.69-3.78,7.31-8.99,7.31-6.27,0-9.83-2.78-9.99-7.66Z"/><path class="cls-6" d="m655.73,393.82h2.29v-5.17h4.3v5.17h2.84v2.91h-2.84v8.79c0,1.23.68,1.65,1.65,1.65.55,0,1.29-.03,1.29-.03v3.23s-1,.06-2.75.06c-2.13,0-4.49-.84-4.49-3.98v-9.73h-2.29v-2.91Z"/><path class="cls-6" d="m671.67,396.47h.1c1-1.88,2.13-2.85,4.07-2.85.49,0,.78.03,1.04.13v3.85h-.1c-2.88-.29-4.95,1.23-4.95,4.72v8.08h-4.4v-16.59h4.24v2.65Z"/><path class="cls-6" d="m688.22,408.56h-.06c-.84,1.26-2.04,2.23-4.88,2.23-3.4,0-5.79-1.78-5.79-5.08,0-3.65,2.97-4.82,6.66-5.33,2.75-.39,4.01-.61,4.01-1.88s-.94-1.97-2.78-1.97c-2.07,0-3.07.74-3.2,2.33h-3.91c.13-2.91,2.29-5.46,7.15-5.46s6.98,2.23,6.98,6.11v8.44c0,1.26.19,2,.58,2.3v.16h-4.24c-.26-.32-.42-1.1-.52-1.84Zm.03-4.01v-2.49c-.78.45-1.97.71-3.07.97-2.3.52-3.43,1.04-3.43,2.59s1.03,2.1,2.59,2.1c2.52,0,3.91-1.55,3.91-3.17Z"/><path class="cls-6" d="m693.88,393.82h2.29v-5.17h4.3v5.17h2.84v2.91h-2.84v8.79c0,1.23.68,1.65,1.65,1.65.55,0,1.29-.03,1.29-.03v3.23s-1,.06-2.75.06c-2.13,0-4.5-.84-4.5-3.98v-9.73h-2.29v-2.91Z"/><path class="cls-6" d="m704.62,402.1c0-4.91,3.33-8.73,8.18-8.73,5.33,0,8.18,4.07,8.18,9.99h-12.03c.32,2.55,1.75,4.14,4.24,4.14,1.71,0,2.72-.78,3.2-2.04h4.33c-.62,2.94-3.23,5.43-7.5,5.43-5.5,0-8.6-3.85-8.6-8.79Zm4.4-1.78h7.37c-.13-2.1-1.52-3.56-3.52-3.56-2.33,0-3.46,1.39-3.85,3.56Z"/><path class="cls-6" d="m722.56,410.89h4.37c.36,1.03,1.29,1.84,3.33,1.84,2.49,0,3.69-1.2,3.69-3.46v-1.81h-.1c-.97,1.1-2.23,1.94-4.33,1.94-3.69,0-7.31-2.91-7.31-7.92s2.97-8.12,7.18-8.12c2.07,0,3.59.81,4.59,2.2h.06v-1.75h4.24v15.33c0,2.33-.74,3.91-1.97,5.04-1.39,1.29-3.52,1.88-5.98,1.88-4.53,0-7.31-1.94-7.76-5.17Zm11.61-9.51c0-2.42-1.29-4.49-3.95-4.49-2.23,0-3.72,1.75-3.72,4.53s1.49,4.46,3.75,4.46c2.78,0,3.91-2.04,3.91-4.49Z"/><path class="cls-6" d="m741.12,387.29h4.4v3.94h-4.4v-3.94Zm0,6.53h4.4v16.59h-4.4v-16.59Z"/><path class="cls-6" d="m747.56,402.13c0-4.95,3.23-8.76,8.28-8.76,4.3,0,6.95,2.49,7.53,6.08h-4.3c-.29-1.46-1.42-2.55-3.04-2.55-2.65,0-4.01,2.04-4.01,5.24s1.26,5.24,3.95,5.24c1.78,0,3.04-.94,3.33-2.81h4.24c-.29,3.52-3.04,6.34-7.47,6.34-5.24,0-8.5-3.82-8.5-8.76Z"/><path class="cls-6" d="m636.46,425.29h10.15c2.68,0,4.69.78,6.05,2.17,1.29,1.33,2.07,3.14,2.07,5.27,0,4.37-2.88,7.31-7.73,7.31h-5.69v8.37h-4.85v-23.12Zm4.85,10.93h4.85c2.46,0,3.75-1.36,3.75-3.46s-1.36-3.39-3.69-3.39h-4.92v6.85Z"/><path class="cls-6" d="m665.98,446.56h-.06c-.84,1.26-2.04,2.23-4.88,2.23-3.4,0-5.79-1.78-5.79-5.08,0-3.65,2.97-4.82,6.66-5.33,2.75-.39,4.01-.61,4.01-1.88s-.94-1.97-2.78-1.97c-2.07,0-3.07.74-3.2,2.33h-3.91c.13-2.91,2.29-5.46,7.15-5.46s6.98,2.23,6.98,6.11v8.44c0,1.26.19,2,.58,2.3v.16h-4.24c-.26-.32-.42-1.1-.52-1.84Zm.03-4.01v-2.49c-.78.45-1.97.71-3.07.97-2.3.52-3.43,1.04-3.43,2.59s1.03,2.1,2.59,2.1c2.52,0,3.91-1.55,3.91-3.17Z"/><path class="cls-6" d="m677.16,434.47h.1c1-1.88,2.13-2.85,4.07-2.85.49,0,.78.03,1.04.13v3.85h-.1c-2.88-.29-4.95,1.23-4.95,4.72v8.08h-4.4v-16.59h4.24v2.65Z"/><path class="cls-6" d="m683.47,431.82h2.29v-5.17h4.3v5.17h2.84v2.91h-2.84v8.79c0,1.23.68,1.65,1.65,1.65.55,0,1.29-.03,1.29-.03v3.23s-1,.06-2.75.06c-2.13,0-4.5-.84-4.5-3.98v-9.73h-2.29v-2.91Z"/><path class="cls-6" d="m699.47,434.08h.1c1.13-1.78,2.65-2.72,4.91-2.72,3.43,0,5.72,2.59,5.72,6.21v10.83h-4.4v-10.18c0-1.78-1.04-3.04-2.88-3.04-1.94,0-3.36,1.55-3.36,3.81v9.41h-4.4v-16.59h4.3v2.26Z"/><path class="cls-6" d="m712.12,440.1c0-4.91,3.33-8.73,8.18-8.73,5.33,0,8.18,4.07,8.18,9.99h-12.03c.32,2.55,1.75,4.14,4.24,4.14,1.71,0,2.72-.78,3.2-2.04h4.33c-.62,2.94-3.23,5.43-7.5,5.43-5.5,0-8.6-3.85-8.6-8.79Zm4.4-1.78h7.37c-.13-2.1-1.52-3.56-3.52-3.56-2.33,0-3.46,1.39-3.85,3.56Z"/><path class="cls-6" d="m734.75,434.47h.1c1-1.88,2.13-2.85,4.07-2.85.49,0,.78.03,1.04.13v3.85h-.1c-2.88-.29-4.95,1.23-4.95,4.72v8.08h-4.4v-16.59h4.24v2.65Z"/><path class="cls-6" d="m740.83,443.04h4.07c.29,1.91,1.65,2.75,3.62,2.75s3.04-.74,3.04-1.91c0-1.58-2.1-1.75-4.37-2.2-2.97-.58-5.88-1.39-5.88-5.01s2.97-5.3,6.76-5.3c4.37,0,6.79,2.17,7.11,5.5h-3.98c-.19-1.78-1.33-2.42-3.2-2.42-1.71,0-2.85.65-2.85,1.84,0,1.42,2.2,1.55,4.56,2.04,2.78.58,5.85,1.36,5.85,5.24,0,3.33-2.84,5.33-6.98,5.33-4.82,0-7.5-2.33-7.76-5.85Z"/><path class="cls-6" d="m894.56,398.9c0-6.92,4.33-12.06,11.15-12.06s11.12,5.14,11.12,12.06-4.3,12.03-11.12,12.03-11.15-5.11-11.15-12.03Zm17.49,0c0-4.62-2.07-8.21-6.31-8.21s-6.4,3.59-6.4,8.21,2.17,8.18,6.4,8.18,6.31-3.59,6.31-8.18Z"/><path class="cls-6" d="m929.51,410.41v-1.94h-.1c-1.13,1.52-2.42,2.39-4.75,2.39-3.69,0-5.76-2.36-5.76-5.98v-11.06h4.37v10.31c0,1.94.87,3.01,2.75,3.01,2.07,0,3.33-1.55,3.33-3.75v-9.57h4.4v16.59h-4.24Z"/><path class="cls-6" d="m940.83,396.47h.1c1-1.88,2.13-2.85,4.07-2.85.49,0,.78.03,1.04.13v3.85h-.1c-2.88-.29-4.95,1.23-4.95,4.72v8.08h-4.4v-16.59h4.24v2.65Z"/><path class="cls-6" d="m901.93,425.29h4.85l8.15,23.12h-4.88l-1.55-4.91h-8.34l-1.52,4.91h-4.75l8.05-23.12Zm-.68,14.61h6.11l-2.07-6.66c-.39-1.23-.94-3.56-.94-3.56h-.06s-.58,2.33-.97,3.56l-2.07,6.66Z"/><path class="cls-6" d="m916.51,431.82h4.24v2.07h.1c1.07-1.46,2.62-2.52,4.88-2.52,4.4,0,7.21,3.59,7.21,8.76s-2.91,8.76-7.18,8.76c-2.33,0-3.85-.94-4.79-2.36h-.06v7.31h-4.4v-22.02Zm11.96,8.44c0-3.14-1.1-5.33-3.82-5.33s-3.85,2.36-3.85,5.33,1.39,4.98,4.01,4.98c2.23,0,3.65-1.84,3.65-4.98Z"/><path class="cls-6" d="m934.97,431.82h4.24v2.07h.1c1.07-1.46,2.62-2.52,4.88-2.52,4.4,0,7.21,3.59,7.21,8.76s-2.91,8.76-7.18,8.76c-2.33,0-3.85-.94-4.79-2.36h-.06v7.31h-4.4v-22.02Zm11.96,8.44c0-3.14-1.1-5.33-3.82-5.33s-3.85,2.36-3.85,5.33,1.39,4.98,4.01,4.98c2.23,0,3.65-1.84,3.65-4.98Z"/><path class="cls-6" d="m957.67,434.47h.1c1-1.88,2.13-2.85,4.07-2.85.49,0,.78.03,1.04.13v3.85h-.1c-2.88-.29-4.95,1.23-4.95,4.72v8.08h-4.4v-16.59h4.24v2.65Z"/><path class="cls-6" d="m963.49,440.13c0-4.95,3.52-8.76,8.67-8.76s8.67,3.82,8.67,8.76-3.52,8.76-8.67,8.76-8.67-3.82-8.67-8.76Zm12.87,0c0-3.23-1.52-5.43-4.2-5.43s-4.2,2.2-4.2,5.43,1.49,5.4,4.2,5.4,4.2-2.17,4.2-5.4Z"/><path class="cls-6" d="m992.79,446.56h-.06c-.84,1.26-2.04,2.23-4.88,2.23-3.4,0-5.79-1.78-5.79-5.08,0-3.65,2.97-4.82,6.66-5.33,2.75-.39,4.01-.61,4.01-1.88s-.94-1.97-2.78-1.97c-2.07,0-3.07.74-3.2,2.33h-3.91c.13-2.91,2.29-5.46,7.15-5.46s6.98,2.23,6.98,6.11v8.44c0,1.26.19,2,.58,2.3v.16h-4.24c-.26-.32-.42-1.1-.52-1.84Zm.03-4.01v-2.49c-.78.45-1.97.71-3.07.97-2.3.52-3.43,1.04-3.43,2.59s1.03,2.1,2.59,2.1c2.52,0,3.91-1.55,3.91-3.17Z"/><path class="cls-6" d="m998.93,440.13c0-4.95,3.23-8.76,8.28-8.76,4.3,0,6.95,2.49,7.53,6.08h-4.3c-.29-1.46-1.42-2.55-3.04-2.55-2.65,0-4.01,2.04-4.01,5.24s1.26,5.24,3.95,5.24c1.78,0,3.04-.94,3.33-2.81h4.24c-.29,3.52-3.04,6.34-7.47,6.34-5.24,0-8.5-3.82-8.5-8.76Z"/><path class="cls-6" d="m1021.21,433.98h.1c1.2-1.75,2.55-2.62,4.82-2.62,3.43,0,5.72,2.59,5.72,6.21v10.83h-4.4v-10.18c0-1.78-1.04-3.04-2.88-3.04-1.94,0-3.36,1.55-3.36,3.81v9.41h-4.4v-23.12h4.4v8.7Z"/><path class="cls-6" d="m204.34,598.28c-.27.27-.42.65-.42,1.04s.15.77.42,1.04.66.42,1.04.42.75-.13,1.04-.42.42-.65.42-1.04-.15-.77-.42-1.04c-.58-.58-1.49-.58-2.08,0h0Z"/><path class="cls-6" d="m225.25,586.19c0-1.8-.69-3.51-1.98-4.78-2.64-2.64-6.93-2.64-9.57,0s-2.64,6.93,0,9.57c1.31,1.31,3.04,1.98,4.78,1.98s3.46-.66,4.78-1.98c1.28-1.28,1.98-2.98,1.98-4.78Zm-4.05,2.71c-1.49,1.49-3.91,1.49-5.42,0-1.49-1.49-1.49-3.93,0-5.42.75-.75,1.73-1.13,2.71-1.13s1.96.38,2.71,1.13c1.49,1.49,1.49,3.93,0,5.42Z"/><path class="cls-6" d="m238.24,566.43c-.29-.29-.68-.44-1.09-.42-.31,0-7.47.31-15.95,3.3-6.81,2.4-12.5,5.86-16.88,10.23-.95.93-1.87,1.96-2.77,3.02-4.36-2.52-7.84-1.69-10.01-.51-5.09,2.73-8.24,10.11-8.24,15.39,0,.6.36,1.13.91,1.36.55.22,1.19.09,1.6-.33,2.6-2.6,5.84-2.44,6.84-2.31l.36.36c-.91,2.15-1.62,4.29-2.16,6.37-.18.73-.15,1.51.12,2.26-1.26.6-2.47,1.46-3.49,2.51-3.46,3.46-4.13,11.81-4.17,12.15-.04.42.12.85.42,1.16s.75.46,1.16.42c.36-.04,8.71-.71,12.15-4.17,1.04-1.04,1.91-2.24,2.51-3.49.75.27,1.53.31,2.26.12,2.08-.53,4.2-1.26,6.37-2.16l.36.36c.12,1,.27,4.26-2.31,6.84-.42.42-.55,1.06-.33,1.6s.77.91,1.36.91c5.28,0,12.66-3.15,15.39-8.24,1.16-2.16,2.01-5.65-.51-10.01,1.06-.91,2.08-1.84,3.02-2.77,4.39-4.39,7.83-10.06,10.24-16.88,3-8.48,3.29-15.64,3.3-15.95,0-.4-.13-.8-.42-1.09h-.02l-.02-.02Zm-27.89,51.64c1.19-2.44,1.4-5.38.95-7.1-.07-.27-.2-.47-.31-.6,3.1-1.51,6.06-3.33,8.79-5.4,1.28,2.42,1.36,4.7.26,6.77-1.75,3.27-6.08,5.5-9.7,6.31h.02Zm-1.53-9.9l-12.3-12.3c1.73-3.75,3.91-7.26,6.48-10.43,1.07-1.33,2.23-2.62,3.42-3.82,3.88-3.88,8.9-7,14.92-9.22l10.96,10.96c-2.24,6.01-5.35,11.03-9.22,14.91-1.19,1.19-2.47,2.33-3.82,3.42-3.18,2.57-6.69,4.75-10.43,6.48h-.02,0Zm-16.01-.63l4.33,4.33c-.44,1.16-1.19,2.28-2.16,3.25-1.96,1.96-6.79,2.84-8.53,3.1.26-1.71,1.16-6.57,3.1-8.53.98-.97,2.11-1.71,3.25-2.16l.02.02Zm.87-14.19c-.15-.04-3.57-.77-7.06.97.82-3.62,3.04-7.95,6.31-9.7.97-.51,1.98-.77,3.02-.77,1.2,0,2.47.34,3.76,1.02-2.06,2.74-3.88,5.68-5.4,8.79-.18-.15-.4-.26-.63-.33v.02h0Zm.02,10.25c.4-1.57.93-3.2,1.57-4.84l10.66,10.64c-1.64.65-3.27,1.16-4.84,1.57-.34.09-.73-.05-1.02-.34l-6.01-6.01c-.29-.29-.42-.68-.34-1.02h-.02,0Zm41.92-34.53c-.22,2.18-.8,6.38-2.28,11.2l-8.92-8.92c4.82-1.48,9.02-2.06,11.2-2.28h0Z"/><path class="cls-6" d="m202.67,620.75c-.58-.58-1.49-.58-2.08,0l-3.75,3.75c-.27.27-.42.65-.42,1.04s.15.75.42,1.04c.29.29.66.42,1.04.42s.75-.13,1.04-.42l3.75-3.75c.27-.27.42-.65.42-1.04s-.15-.75-.42-1.04h0Z"/><path class="cls-6" d="m179.14,608.27c.4,0,.77-.15,1.04-.42l3.75-3.75c.27-.27.42-.65.42-1.04s-.15-.77-.42-1.04c-.58-.58-1.49-.58-2.08,0l-3.75,3.75c-.58.58-.58,1.49,0,2.08.27.27.65.42,1.04.42h0Z"/><path class="cls-6" d="m192.26,622.2h0c-.4,0-.77.15-1.04.42l-8.97,8.97c-.27.27-.42.65-.42,1.04s.15.77.42,1.04.65.42,1.04.42h0c.4,0,.77-.15,1.04-.42l8.97-8.97c.27-.27.42-.65.42-1.04s-.15-.77-.42-1.04-.65-.42-1.04-.42Z"/><path class="cls-6" d="m183.13,623.66c0-.4-.15-.77-.42-1.04-.58-.56-1.49-.58-2.08,0l-8.97,8.97c-.27.27-.42.65-.42,1.04s.15.77.42,1.04.65.42,1.04.42h0c.4,0,.77-.15,1.04-.42l8.97-8.97c.27-.27.42-.65.42-1.04h0Z"/><path class="cls-6" d="m173.08,622.43l8.97-8.97c.58-.58.58-1.49,0-2.08h0c-.58-.58-1.49-.56-2.08,0l-8.97,8.97c-.58.58-.58,1.49,0,2.08.27.27.65.42,1.04.42s.77-.15,1.04-.42h0Z"/><path class="cls-6" d="m212.03,592.67c-.58-.58-1.49-.58-2.08,0l-1.87,1.87c-.56.58-.56,1.49,0,2.08.29.29.66.42,1.04.42s.75-.13,1.04-.42l1.87-1.87c.56-.58.56-1.49,0-2.08h0Z"/><path class="cls-6" d="m722.24,578.01c.78,0,1.43-.65,1.43-1.43v-7.28c0-.78-.65-1.43-1.43-1.43s-1.43.65-1.43,1.43v7.28c0,.78.65,1.43,1.43,1.43Z"/><path class="cls-6" d="m711.48,580.35c.27.42.73.66,1.2.66.26,0,.53-.07.77-.22.66-.42.87-1.31.44-1.98l-3.82-6.04c-.42-.66-1.31-.87-1.98-.44-.66.42-.87,1.31-.44,1.98l3.82,6.04h0Z"/><path class="cls-6" d="m731.02,580.81c.24.15.49.22.77.22.47,0,.93-.24,1.2-.66l3.82-6.04c.42-.66.22-1.55-.44-1.98s-1.55-.22-1.98.44l-3.82,6.04c-.42.66-.22,1.55.44,1.98h0Z"/><path class="cls-6" d="m758.37,601.53l-2.49-4.39c-.4-.68-1.26-.93-1.94-.55-.68.4-.93,1.26-.55,1.94l2.49,4.39c.12.22.09.42.07.55-.04.11-.11.29-.33.4l-3.83,2.13c-.34.18-.78.07-.97-.26l-.97-1.71v-.02l-10.06-17.79c-.12-.22-.09-.42-.07-.53.04-.11.11-.29.33-.4l3.83-2.13c.34-.18.78-.07.97.26l2.24,3.97c.4.68,1.26.93,1.94.55.68-.4.93-1.26.55-1.94l-2.24-3.95c-.95-1.69-3.13-2.3-4.84-1.36l-3.83,2.13c-.84.46-1.43,1.2-1.69,2.13-.24.87-.15,1.77.24,2.55l-2.11.62c-.91.26-1.45.4-1.75.4h0c-.2,0-.44-.09-1.09-.33-.29-.12-.66-.26-1.11-.4l-3.75-1.31c-2.08-.71-3-.68-4.36-.56l-6.38.58c-2.91.26-4.77.92-5.79,2.04l-3.64-1.06c.4-.78.47-1.69.24-2.53-.26-.92-.85-1.67-1.69-2.13l-3.83-2.13c-1.71-.95-3.88-.34-4.84,1.35l-11.03,19.52c-.47.84-.6,1.8-.33,2.73.26.92.85,1.69,1.69,2.13l3.83,2.13c.55.31,1.14.44,1.73.44,1.24,0,2.47-.65,3.11-1.8l.4-.71c1.11.49,2.02,1.19,2.66,2.02-.62.71-1,1.62-1.13,2.59-.13,1.28.22,2.53,1.02,3.54.8.98,1.93,1.62,3.2,1.77-.13,1.28.22,2.52,1.02,3.51.82,1.02,1.98,1.64,3.2,1.77-.13,1.26.22,2.51,1.02,3.51.8.98,1.93,1.62,3.2,1.77-.13,1.28.22,2.52,1.02,3.51.95,1.19,2.35,1.8,3.76,1.8,1.06,0,2.11-.34,3-1.06l3-2.4c.24-.18.46-.4.65-.63l1.71,1.36c.89.69,1.94,1.06,3,1.06,1.42,0,2.81-.62,3.76-1.8.49-.63.82-1.35.95-2.08.49.17,1.02.26,1.57.26.18,0,.36,0,.55-.04,1.28-.13,2.44-.77,3.22-1.77.8-.98,1.16-2.23,1.02-3.51,1.2-.13,2.38-.75,3.2-1.77.82-1.02,1.16-2.28,1.02-3.51,1.28-.15,2.4-.77,3.2-1.77.8-1,1.16-2.24,1.02-3.54-.11-.97-.49-1.87-1.13-2.59.63-.84,1.55-1.55,2.66-2.02l.4.71c.65,1.16,1.86,1.8,3.11,1.8.6,0,1.18-.13,1.73-.44l3.83-2.13c.84-.46,1.43-1.2,1.69-2.13s.15-1.89-.33-2.73h.02Zm-64.73,4.22c-.18.33-.63.44-.97.26l-3.83-2.13c-.2-.12-.29-.31-.33-.4s-.07-.33.07-.55l11.03-19.52c.12-.22.36-.36.62-.36.12,0,.24.04.36.09l3.83,2.13h0c.2.12.29.31.33.4s.07.33-.07.55l-11.03,19.52v.02h0Zm10.43,7.35c-.4.33-.92.47-1.43.4-.53-.05-.98-.31-1.31-.71s-.47-.92-.4-1.43c.05-.51.31-.98.71-1.29l5.35-4.27c.84-.66,2.08-.53,2.74.31.33.4.47.92.4,1.43-.05.51-.31.97-.71,1.29l-.02.02-5.33,4.26h0Zm1.48,4.97c-.33-.4-.47-.91-.4-1.43.05-.51.31-.98.71-1.31h0l7.71-6.16c.84-.66,2.08-.53,2.74.31.33.4.46.91.4,1.43-.05.51-.31.98-.71,1.31l-7.71,6.16c-.84.66-2.08.53-2.74-.31h0Zm5.53,5.99c-.53-.05-.98-.31-1.31-.71s-.46-.91-.4-1.43c.05-.51.31-.98.71-1.31h0l5.33-4.26h.02c.84-.66,2.06-.53,2.74.31.33.4.47.92.4,1.43-.05.51-.31.98-.71,1.29l-5.35,4.27c-.4.33-.92.47-1.43.4h0Zm9.37,1.16c-.05.51-.31.98-.71,1.31l-3,2.4c-.84.66-2.08.53-2.74-.31-.33-.4-.47-.91-.4-1.43s.31-.98.71-1.31h0l3-2.4h0c.84-.66,2.08-.53,2.74.31.33.4.46.91.4,1.43Zm22.69-12.43c-.33.4-.78.66-1.31.71s-1.02-.09-1.43-.4h0l-3.83-3.06c-.62-.49-1.51-.4-2.01.22-.49.62-.4,1.51.22,2.01l3.83,3.04c.84.66.97,1.91.31,2.74-.68.84-1.91.97-2.74.31l-4.15-3.32c-.62-.49-1.51-.4-2.01.22-.49.62-.4,1.51.22,2.01l4.15,3.3c.4.33.66.78.71,1.31.05.51-.09,1.02-.4,1.43s-.78.66-1.31.71-1.04-.09-1.43-.4l-2.06-1.65h0l-1.73-1.4-.33-.26c-.62-.49-1.51-.4-2.01.22-.07.09-.12.15-.15.24-.2.4-.2.89,0,1.28.09.18.22.36.4.49l2.08,1.67c.84.68.97,1.89.31,2.73-.66.84-1.91.97-2.74.31l-2.35-1.89c.11-1.22-.27-2.42-1.04-3.37-.47-.6-1.07-1.06-1.71-1.35.47-.66.78-1.43.87-2.26.13-1.28-.22-2.53-1.02-3.54-.47-.6-1.07-1.04-1.71-1.35.47-.66.78-1.45.87-2.28.13-1.28-.22-2.53-1.02-3.53-1.38-1.71-3.69-2.24-5.64-1.42-.15-.71-.47-1.38-.93-1.98-1.65-2.08-4.68-2.4-6.75-.75l-3.83,3.06c-.87-1.11-2.04-2.02-3.44-2.67l7.88-13.92,4.19,1.2c.02.22.05.46.12.71,1.02,4.17,4.85,6.11,10.03,5.07,4.36-.87,6.15.42,9.72,3.03.38.27.75.55,1.16.84,2.57,1.84,5.31,4.02,7.15,5.48l4.64,3.71c.4.33.66.78.71,1.31.05.51-.09,1.02-.4,1.43h0l-.04-.02h-.03Zm-.05-6.2l-3.11-2.49c-1.87-1.48-4.64-3.68-7.26-5.57-.4-.29-.78-.56-1.14-.84-3.71-2.69-6.38-4.64-11.97-3.53-1.71.34-5.79.75-6.69-2.95-.12-.53,0-.69.05-.78.18-.27.95-.92,3.97-1.18l6.38-.58c1.04-.11,1.57-.13,3.15.4l3.75,1.31c.4.15.75.27,1.04.38,1.8.68,2.28.68,4.64,0l2.76-.8,7.86,13.9c-1.4.65-2.57,1.57-3.44,2.67l.02.02v.02Z"/><path class="cls-6" d="m751.48,593.68c.78,0,1.43-.65,1.43-1.43s-.65-1.43-1.43-1.43-1.43.65-1.43,1.43h0c0,.8.65,1.43,1.43,1.43Z"/><path class="cls-6" d="m1001.87,597.94c.53.22,1.16.11,1.57-.31l8.58-8.58c.56-.56.56-1.46,0-2.02l-8.58-8.58c-.4-.4-1.02-.53-1.57-.31s-.89.75-.89,1.33v2.86h-2.86c-4.04,0-7.93,1.09-11.44,3.15v-10.59h2.86c.58,0,1.11-.34,1.33-.89.22-.53.11-1.16-.31-1.57l-8.58-8.58c-.56-.56-1.46-.56-2.02,0l-8.58,8.58c-.4.4-.53,1.02-.31,1.57.22.53.75.89,1.33.89h2.86v10.59c-3.51-2.08-7.4-3.15-11.44-3.15h-2.86v-2.86c0-.58-.34-1.11-.89-1.33-.53-.22-1.16-.11-1.57.31l-8.58,8.58c-.56.56-.56,1.46,0,2.02l8.58,8.58c.4.4,1.02.53,1.57.31.53-.22.89-.75.89-1.33v-2.86h2.86c4.58,0,8.73,2.79,10.52,6.95-4.82,1.86-8.73,5.68-10.64,10.52-.29.73.07,1.57.8,1.86.73.29,1.57-.07,1.86-.8,2.28-5.77,7.95-9.92,14.62-9.92,8.86,0,15.72,7.26,15.72,15.72,0,4.8-2.23,9.33-5.93,12.29-.93-4.64-5.07-8-9.81-8s-8.86,3.35-9.81,8c-2.13-1.71-3.82-3.95-4.82-6.5-.29-.73-1.13-1.09-1.86-.8s-1.09,1.13-.8,1.86c2.73,6.86,9.41,11.75,17.28,11.75,10.43,0,18.59-8.51,18.59-18.59,0-7.97-4.97-14.69-11.95-17.36,1.79-4.15,5.93-6.95,10.52-6.95h2.86v2.86c0,.58.34,1.11.89,1.33l-.02-.02h.03Zm-28.04,34.13c.13-3.75,3.22-6.86,7.15-6.86s7,3.11,7.15,6.86c-2.2,1.13-4.64,1.71-7.15,1.71s-4.93-.6-7.15-1.71Zm24.29-41.17c-5.84,0-11.12,3.62-13.28,8.99-1.28-.27-2.57-.4-3.88-.4s-2.62.13-3.88.4c-2.15-5.35-7.42-8.99-13.28-8.99h-4.29c-.78,0-1.43.65-1.43,1.43v.84l-5.13-5.13,5.13-5.13v.84c0,.78.65,1.43,1.43,1.43h4.29c4.31,0,8.46,1.42,12,4.1.42.33,1.02.38,1.49.13.49-.24.8-.73.8-1.28v-14.69c0-.78-.65-1.43-1.43-1.43h-.84l5.13-5.13,5.13,5.13h-.84c-.78,0-1.43.65-1.43,1.43v14.69c0,.55.31,1.04.8,1.28s1.07.18,1.49-.13c3.56-2.69,7.69-4.1,12-4.1h4.29c.78,0,1.43-.65,1.43-1.43v-.84l5.13,5.13-5.13,5.13v-.84c0-.78-.65-1.43-1.43-1.43h-4.29Z"/><path class="cls-6" d="m988.12,615.21c0-3.95-3.2-7.15-7.15-7.15s-7.15,3.2-7.15,7.15,3.2,7.15,7.15,7.15,7.15-3.2,7.15-7.15Zm-7.15,4.29c-2.37,0-4.29-1.93-4.29-4.29s1.93-4.29,4.29-4.29,4.29,1.93,4.29,4.29-1.93,4.29-4.29,4.29Z"/><path class="cls-6" d="m965.25,618.06c0,.78-.65,1.43-1.43,1.43s-1.43-.65-1.43-1.43.65-1.43,1.43-1.43,1.43.65,1.43,1.43Z"/><path class="cls-6" d="m483.38,579.97c-.26-.26-.6-.4-.97-.4h0c-.36,0-.71.13-.97.4-.2.2-.36.49-.4.78-.15,1.13-.75,2.13-1.67,2.81-.91.68-2.02.97-3.17.82-2.33-.34-3.95-2.51-3.61-4.82.27-1.86,1.75-3.35,3.61-3.61.75-.11,1.28-.8,1.18-1.55-.05-.29-.18-.58-.4-.78l-7.17-7.17c-.53-.53-1.43-.53-1.94,0l-5.93,5.93c-1.16-3.49-4.87-5.51-8.46-4.56-3.73,1-5.95,4.85-4.95,8.58.62,2.28,2.33,4.1,4.56,4.84l-5.93,5.93c-.53.53-.53,1.42,0,1.94l5.93,5.94c-1.64.55-2.98,1.65-3.84,3.15-.93,1.62-1.18,3.51-.69,5.31.55,2.02,1.99,3.71,3.88,4.56l-2.55,7.35c-.75,1.69-.66,3.57.18,5.15l3.95,9.35s.04.09.07.12c.26.47.4,1,.4,1.53v1.09c0,.75.62,1.38,1.38,1.38s1.38-.62,1.38-1.38v-1.09c0-.97-.24-1.94-.69-2.77l-3.95-9.35s-.04-.09-.07-.13c-.47-.89-.51-1.96-.09-2.89l2.69-7.77h.18c3.03,0,5.7-1.94,6.64-4.78l1.55,1.53v11.46c0,.75.62,1.38,1.38,1.38s1.38-.62,1.38-1.38v-15.78c0-1.71,1.42-3.13,3.13-3.13s3.13,1.42,3.13,3.13v13.65c0,1.6.38,3.2,1.09,4.64l.4.84c1.07,2.15,1.07,4.7,0,6.82l-1.13,2.24c-.26.49-.38,1.06-.38,1.62v1.71c0,.75.62,1.38,1.38,1.38s1.38-.62,1.38-1.38v-1.71c0-.13.04-.27.09-.4l1.13-2.24c1.45-2.91,1.45-6.38,0-9.3l-.4-.84c-.29-.58-.49-1.19-.63-1.8,1.45,1.2,3.32,1.89,5.21,1.89h0c1.99,0,3.62-1.62,3.62-3.62v-6.23c1.73-.47,3.2-1.58,4.12-3.13.97-1.6,1.24-3.49.8-5.29-.58-2.33-2.31-4.2-4.58-4.95l5.93-5.94c.53-.53.53-1.4,0-1.94l-7.17-7.17-.02.05v-.03Zm-2.74,15.13c-.26.26-.4.6-.4.97s.13.71.4.97c.31.31.75.46,1.18.4,1.13-.17,2.24.13,3.15.82.91.68,1.49,1.69,1.65,2.81s-.13,2.24-.82,3.15c-.68.91-1.69,1.49-2.81,1.65-2.33.33-4.49-1.29-4.82-3.62-.05-.4-.05-.8,0-1.19.05-.36-.04-.73-.26-1.02s-.55-.49-.91-.55h-.2c-.36,0-.71.15-.97.4l-.62.62c-.29-2.98-2.81-5.29-5.86-5.29h0c-1.57,0-3.04.62-4.15,1.73-1.11,1.11-1.71,2.59-1.71,4.15v.42l-1.64-1.65c-.26-.26-.6-.4-.97-.4h0c-.36,0-.69.13-.97.4-.31.31-.46.75-.4,1.18.33,2.33-1.29,4.49-3.62,4.82-2.31.33-4.49-1.29-4.82-3.62s1.29-4.49,3.62-4.82c.4-.05.8-.05,1.19,0,.75.12,1.45-.4,1.57-1.16.07-.42-.09-.87-.4-1.18l-7-7,7-7c.55-.53.55-1.4,0-1.94-.31-.31-.75-.46-1.18-.4-1.13.15-2.24-.13-3.15-.82-.91-.68-1.49-1.69-1.65-2.81-.18-1.31.27-2.66,1.19-3.59,1.69-1.62,4.34-1.62,6.02,0,.93.93,1.4,2.3,1.2,3.61-.05.36.04.73.26,1.02.22.29.55.49.91.55.42.07.87-.09,1.18-.4l7-7,4.63,4.63c-3.27,1.75-4.62,5.8-3,9.19,1.67,3.49,5.86,4.97,9.35,3.3,1.35-.63,2.44-1.69,3.15-3l4.63,4.63-7,7.01.04.02v.04Zm-5.38,9.26l.49-.49c.85,2.53,3.1,4.41,5.77,4.73v6.02c0,.49-.4.89-.89.89-2.96,0-5.38-2.42-5.38-5.38v-5.77h0Z"/><path class="cls-6" d="m502.06,587.34h-6.75c-.75,0-1.38.62-1.38,1.38s.62,1.38,1.38,1.38h6.75c.75,0,1.38-.62,1.38-1.38s-.62-1.38-1.38-1.38h0Z"/><path class="cls-6" d="m494.08,577.13h0c.24,0,.47-.07.68-.18l5.86-3.39c.65-.38.87-1.2.49-1.86-.18-.33-.47-.55-.84-.65s-.71-.05-1.04.13l-5.86,3.39c-.42.24-.68.69-.68,1.19,0,.75.62,1.38,1.38,1.38v-.02h0Z"/><path class="cls-6" d="m500.61,603.86l-5.87-3.39c-.66-.38-1.49-.13-1.87.51-.38.66-.13,1.49.51,1.87l5.86,3.39c.2.12.44.18.68.18.49,0,.95-.26,1.19-.68.38-.66.15-1.49-.49-1.87v-.02h0Z"/><path class="cls-6" d="m444.85,588.7c0-.75-.62-1.38-1.38-1.38h-6.75c-.77,0-1.38.62-1.38,1.38s.62,1.38,1.38,1.38h6.75c.75,0,1.38-.62,1.38-1.38Z"/><path class="cls-6" d="m438.15,573.55l5.86,3.39c.2.12.44.18.68.18h0c.49,0,.93-.26,1.19-.68.38-.66.15-1.49-.49-1.87l-5.86-3.39c-.65-.38-1.48-.15-1.86.49-.18.33-.24.68-.13,1.04.09.36.33.65.63.84h-.02Z"/><path class="cls-6" d="m445.06,600.33c-.36-.09-.71-.04-1.04.13l-5.86,3.39c-.42.24-.68.69-.68,1.19,0,.75.62,1.38,1.38,1.38.24,0,.47-.07.68-.18l5.82-3.35.07-.04c.65-.4.87-1.22.49-1.87-.18-.33-.47-.55-.84-.63l-.04-.02h0Z"/></svg>