<?xml version="1.0" encoding="UTF-8"?><svg id="Layer_1" xmlns="http://www.w3.org/2000/svg" viewBox="0 0 32 32"><defs><style>.cls-1{stroke-width:0px;}</style></defs><path class="cls-1" d="m31.12,0H.88c-.49,0-.88.39-.88.88v24.19c0,.49.39.88.88.88h11.21v4.28h-2.14c-.49,0-.88.39-.88.88s.39.88.88.88h12.09c.49,0,.88-.39.88-.88s-.39-.88-.88-.88h-2.14v-4.28h11.21c.49,0,.88-.39.88-.88V.88c0-.49-.39-.88-.88-.88Zm-12.98,30.24h-4.28v-4.28h4.28v4.28Zm12.09-6.05H1.76v-2.27h28.47v2.27Zm0-4.03H1.76V1.76h28.47v18.39Z"/><path class="cls-1" d="m17.01,17.89h10.58c.49,0,.88-.39.88-.88s-.39-.88-.88-.88h-10.58c-.49,0-.88.39-.88.88s.39.88.88.88Z"/><path class="cls-1" d="m17.01,13.86h10.58c.49,0,.88-.39.88-.88s-.39-.88-.88-.88h-10.58c-.49,0-.88.39-.88.88s.39.88.88.88Z"/><path class="cls-1" d="m4.41,17.39h9.07c.49,0,.88-.39.88-.88v-1.51c0-2.01-1.11-3.85-2.89-4.79,1.26-1.4,1.14-3.55-.25-4.8s-3.55-1.14-4.8.25c-1.16,1.29-1.16,3.26,0,4.55-1.78.94-2.89,2.78-2.89,4.79v1.51c0,.49.39.88.88.88Zm4.54-11.09c.9,0,1.64.73,1.64,1.64s-.73,1.64-1.64,1.64-1.64-.73-1.64-1.64c0-.9.73-1.64,1.64-1.64Zm-3.65,8.69c0-2.02,1.64-3.65,3.65-3.65s3.65,1.64,3.65,3.65v.63h-7.31v-.63Z"/><path class="cls-1" d="m20.79,9.57c.34.34.9.34,1.25,0,0,0,0,0,0,0l3.53-3.53c.34-.34.34-.9,0-1.25,0,0,0,0,0,0-.34-.34-.9-.34-1.25,0,0,0,0,0,0,0l-2.9,2.9-1.14-1.14c-.34-.34-.9-.34-1.25,0-.34.34-.34.9,0,1.25h0l1.76,1.76Z"/></svg>