<?xml version="1.0" encoding="UTF-8"?><svg id="Layer_1" xmlns="http://www.w3.org/2000/svg" viewBox="0 0 32 32"><defs><style>.cls-1{stroke-width:0px;}</style></defs><path class="cls-1" d="m13.57,8.76c-.3-.33-.78-.41-1.17-.19l-2.94,1.7c-.38.22-.56.68-.42,1.1l.45,1.38c.18.56-.16,1.16-.74,1.28l-1.42.3c-.43.09-.75.47-.75.92v3.39c0,.44.31.83.75.92l1.42.3c.58.12.92.72.74,1.28l-.45,1.37c-.14.42.04.88.42,1.1l2.94,1.7c.15.08.31.13.47.13.26,0,.52-.11.7-.31l.96-1.08c.39-.44,1.08-.44,1.48,0l.96,1.08c.3.33.78.41,1.17.19l2.94-1.7c.38-.22.56-.68.42-1.1l-.45-1.37c-.18-.56.16-1.16.74-1.28l1.42-.3c.43-.09.75-.47.75-.92v-3.39c0-.44-.31-.83-.75-.92l-1.42-.3c-.58-.12-.92-.72-.74-1.28l.45-1.37c.14-.42-.04-.88-.42-1.1l-2.94-1.7c-.38-.22-.87-.14-1.17.19l-.96,1.08c-.39.44-1.08.44-1.48,0l-.96-1.08Zm3.84,2.33l.46-.51,1.62.93-.21.65c-.53,1.62.46,3.35,2.14,3.7l.67.14v1.87l-.67.14c-1.67.35-2.67,2.08-2.14,3.7l.21.65-1.62.93-.46-.51c-1.14-1.27-3.13-1.27-4.27,0l-.46.51-1.62-.93.21-.65c.53-1.62-.46-3.35-2.14-3.7l-.67-.14v-1.87l.67-.14c1.67-.35,2.67-2.08,2.14-3.7l-.21-.65,1.62-.93.46.51c1.14,1.27,3.13,1.27,4.27,0h0Z"/><path class="cls-1" d="m11.53,16.94c0,2.07,1.68,3.75,3.75,3.75s3.75-1.68,3.75-3.75-1.68-3.75-3.75-3.75-3.75,1.68-3.75,3.75h0Zm3.75-1.88c1.03,0,1.87.84,1.87,1.88s-.84,1.88-1.87,1.88-1.87-.84-1.87-1.88.84-1.88,1.87-1.88h0Z"/><path class="cls-1" d="m11.57,3.96l-.31.44c-.29.43-.19,1.01.24,1.3.43.29,1.01.19,1.3-.24l1.62-2.35c.27-.41.2-.99-.27-1.31L11.75.16c-.43-.29-1.01-.18-1.3.24-.29.43-.18,1.01.24,1.3l.57.39C3.18,4.27-1.81,12.72.61,21.04c.12.41.49.68.9.68.62,0,1.07-.6.9-1.2C.31,13.28,4.59,5.94,11.57,3.96h0Z"/><path class="cls-1" d="m24.97,25.97c-5.1,5.36-13.64,5.58-19.02.4l.54.04c.52.04.97-.35,1.01-.86.04-.52-.35-.97-.86-1.01l-2.85-.22c-.53-.03-.97.38-.99.89l-.23,2.9c-.04.52.35.97.86,1.01.52.04.97-.35,1.01-.86l.05-.69c6.14,6.1,16.01,5.83,21.84-.3.36-.38.34-.97-.03-1.33-.38-.36-.97-.34-1.33.03Z"/><path class="cls-1" d="m31.91,20.78c-.22-.47-.78-.67-1.25-.44l-.63.3c1.25-4.78.14-10.09-3.4-14.01-2.08-2.31-4.76-3.91-7.77-4.64-.5-.12-1.01.19-1.13.69-.12.5.19,1.01.69,1.13,2.64.64,4.99,2.04,6.82,4.07,1.86,2.07,3.01,4.62,3.33,7.39.18,1.58.08,3.17-.3,4.7l-.23-.49c-.22-.47-.78-.66-1.25-.44-.47.22-.66.78-.44,1.25l1.23,2.56c.23.48.81.67,1.28.43l2.63-1.25c.47-.22.67-.78.44-1.25h0Z"/></svg>