<?xml version="1.0" encoding="UTF-8"?><svg id="Layer_1" xmlns="http://www.w3.org/2000/svg" viewBox="0 0 32 32"><defs><style>.cls-1{stroke-width:0px;}</style></defs><path class="cls-1" d="m29.12,0H2.88C1.32,0,.06,1.26.06,2.81v22.5c0,1.55,1.26,2.81,2.81,2.81h12.88v1.39c0,.7.74,1.15,1.37.83l2.68-1.37,1.27,2.51c.23.46.8.65,1.26.41l3.34-1.7c.46-.23.65-.8.41-1.26l-.41-.82h3.45c1.55,0,2.81-1.26,2.81-2.81V2.81c0-1.55-1.26-2.81-2.81-2.81ZM1.94,2.81c0-.52.42-.94.94-.94h26.25c.52,0,.94.42.94.94v4.69H1.94V2.81Zm24.37,19.51l-9.11-6.53c-.62-.44-1.49,0-1.48.76l.02,5.94H5.69v-9.37h20.62v9.2Zm-3.99,7.48l-1.27-2.51c-.23-.46-.8-.65-1.26-.41l-2.16,1.1-.03-9.6,7.85,5.63-2.32,1.17c-.46.23-.65.8-.41,1.26l1.27,2.51-1.67.85Zm7.74-4.49c0,.52-.42.94-.94.94h-3.95l2.49-1.26c.31-.16.52-.46.52-.9v-11.9c0-.52-.42-.94-.94-.94H4.75c-.52,0-.94.42-.94.94v11.25c0,.52.42.94.94.94h10.99v1.87s-12.86,0-12.86,0c-.52,0-.94-.42-.94-.94v-15.94h28.12v15.94Z"/><path class="cls-1" d="m18.84,3.75h-5.69c-.52,0-.94.42-.94.94s.42.94.94.94h5.69c.52,0,.94-.42.94-.94s-.42-.94-.94-.94Z"/><path class="cls-1" d="m16.5,10.29c0,.52-.42.94-.94.94s-.94-.42-.94-.94.42-.94.94-.94.94.42.94.94Z"/><path class="cls-1" d="m16.5,10.29c0,.52-.42.94-.94.94s-.94-.42-.94-.94.42-.94.94-.94.94.42.94.94Z"/><path class="cls-1" d="m16.5,10.29c0,.52-.42.94-.94.94s-.94-.42-.94-.94.42-.94.94-.94.94.42.94.94Z"/></svg>