<?xml version="1.0" encoding="UTF-8"?><svg id="Layer_1" xmlns="http://www.w3.org/2000/svg" viewBox="0 0 32 32"><defs><style>.cls-1{stroke-width:0px;}</style></defs><path class="cls-1" d="m26,25.33c.37,0,.67.31.67.67s-.29.67-.67.67h-.67v-1.33h.67Z"/><path class="cls-1" d="m6.67,25.33h18.67v1.33H6.67v-1.33Z"/><path class="cls-1" d="m26.67,16.67v9.33c0-.36-.29-.67-.67-.67h-.67v-8.67c0-.36-.31-.67-.67-.67h-2.67c-.37,0-.67-.29-.67-.67s.29-.67.67-.67h2.67c1.11,0,2,.91,2,2Z"/><path class="cls-1" d="m24.67,29.33h-5.35c-.16-.28-.31-.59-.41-.89-.09-.27-.36-.44-.63-.44h6.39c.36,0,.67-.29.67-.67v-.67h.67c.37,0,.67-.29.67-.67v1.33c0,1.11-.89,2-2,2Z"/><path class="cls-1" d="m18.67,11.61v5.05c0,.37-.29.67-.67.67s-.67-.29-.67-.67v-5.05l.67-.67.67.67Z"/><path class="cls-1" d="m18.91,28.44c.11.31.25.61.41.89h-1.49c-.07-.15-.12-.29-.17-.44-.12-.35.05-.72.4-.85.08-.03.15-.04.23-.04.27,0,.53.17.63.44h0Z"/><path class="cls-1" d="m18.67,10.33v1.28l-.67-.67-.67.67v-1.28c0-.36.29-.67.67-.67s.67.31.67.67h0Z"/><path class="cls-1" d="m13.71,28h4.57c-.08,0-.15.01-.23.04-.35.13-.52.51-.4.85.05.15.11.29.17.44h-3.67c.07-.15.12-.31.17-.45.12-.35-.07-.72-.41-.84-.07-.03-.15-.04-.21-.04Z"/><path class="cls-1" d="m15.53,11.53l2-2c.25-.27.68-.27.93,0l2,2c.27.25.27.68,0,.95-.12.12-.29.19-.47.19s-.35-.07-.47-.19l-.87-.87v-1.28c0-.36-.29-.67-.67-.67s-.67.31-.67.67v1.28l-.87.87c-.25.25-.68.25-.93,0-.27-.27-.27-.69,0-.95Z"/><path class="cls-1" d="m14.67,19.07v1.27c0,.37-.29.67-.67.67s-.67-.29-.67-.67v-1.27l.67.67.67-.67Z"/><path class="cls-1" d="m14.67,14v5.07l-.67.67-.67-.67v-5.07c0-.36.29-.67.67-.67s.67.31.67.67Z"/><path class="cls-1" d="m13.92,28.04c.35.12.53.49.41.84-.05.15-.11.31-.17.45h-1.48c.17-.28.29-.57.4-.88.09-.28.35-.45.63-.45.07,0,.15.01.21.04h0Z"/><path class="cls-1" d="m16.47,19.15l-2,2c-.12.12-.29.19-.47.19s-.35-.07-.47-.19l-2-2c-.27-.27-.27-.68,0-.95s.68-.25.93,0l.87.87v1.27c0,.37.29.67.67.67s.67-.29.67-.67v-1.27l.85-.87c.27-.25.69-.25.95,0,.27.27.27.68,0,.95h0Z"/><path class="cls-1" d="m13.43,30.67h5.15c-.29-.41-.55-.87-.75-1.33h1.49c.29.55.68,1.07,1.15,1.53.2.19.25.48.15.72-.11.25-.35.41-.61.41h-8c-.27,0-.52-.16-.61-.41-.11-.24-.05-.53.15-.72.47-.48.85-.99,1.15-1.53h1.48c-.19.47-.43.91-.73,1.33h0Z"/><path class="cls-1" d="m6.67,25.33v1.33h-.67c-.37,0-.67-.29-.67-.67s.29-.67.67-.67h.67Z"/><path class="cls-1" d="m7.33,16c-.37,0-.67.31-.67.67v8.67h-.67c-.37,0-.67.31-.67.67v-9.33c0-1.09.89-2,2-2h2.67c.37,0,.67.31.67.67s-.29.67-.67.67h-2.67Z"/><path class="cls-1" d="m7.33,28h6.37c-.28,0-.53.17-.63.45-.11.31-.23.6-.4.88h-5.35c-1.11,0-2-.89-2-2v-1.33c0,.37.29.67.67.67h.67v.67c0,.37.29.67.67.67Z"/><path class="cls-1" d="m6.21,8.03C7.13,3.41,11.24,0,16,0,19.73,0,23.17,2.11,24.87,5.4c4.03.41,7.13,3.84,7.13,7.93,0,1.67-.51,3.25-1.45,4.6-.21.31-.63.37-.93.16-.19-.13-.28-.33-.28-.55,0-.13.04-.27.12-.39.8-1.11,1.21-2.44,1.21-3.83,0-3.52-2.75-6.44-6.27-6.64-.24-.01-.47-.16-.56-.39-1.41-3.01-4.49-4.97-7.84-4.97-4.29,0-7.97,3.2-8.57,7.43-.04.33-.32.57-.65.57-3.05,0-5.44,2.4-5.44,5.33,0,1.24.41,2.4,1.19,3.35.09.12.15.27.15.41,0,.2-.08.39-.24.52-.13.11-.28.15-.43.15-.19,0-.39-.08-.52-.24-.97-1.19-1.48-2.63-1.48-4.19,0-3.52,2.75-6.41,6.21-6.64h0Z"/></svg>