<?xml version="1.0" encoding="UTF-8"?><svg id="Layer_1" xmlns="http://www.w3.org/2000/svg" viewBox="0 0 32 32"><defs><style>.cls-1{stroke-width:0px;}</style></defs><path class="cls-1" d="m15,32H1c-.55,0-1-.45-1-1V8.33c0-1.29,1.05-2.33,2.33-2.33h10c.55,0,1,.45,1,1s-.45,1-1,1H2.33c-.18,0-.33.15-.33.33v21.67h12v-12.85c0-.55.45-1,1-1s1,.45,1,1v13.85c0,.55-.45,1-1,1Z"/><path class="cls-1" d="m12.33,8H3.67c-.55,0-1-.45-1-1v-2c0-1.29,1.05-2.33,2.33-2.33h6c1.29,0,2.33,1.05,2.33,2.33v2c0,.55-.45,1-1,1Zm-7.67-2h6.67v-1c0-.18-.15-.33-.33-.33h-6c-.18,0-.33.15-.33.33v1Z"/><path class="cls-1" d="m8,4.67c-.55,0-1-.45-1-1V1C7,.45,7.45,0,8,0s1,.45,1,1v2.67c0,.55-.45,1-1,1Z"/><path class="cls-1" d="m20,32c-.55,0-1-.45-1-1v-4.99c0-.55.45-1,1-1s1,.45,1,1v4.99c0,.55-.45,1-1,1Z"/><path class="cls-1" d="m20,26.67c-1.47,0-2.67-1.2-2.67-2.67s1.2-2.67,2.67-2.67,2.67,1.2,2.67,2.67-1.2,2.67-2.67,2.67Zm0-3.33c-.37,0-.67.3-.67.67s.3.67.67.67.67-.3.67-.67-.3-.67-.67-.67Z"/><path class="cls-1" d="m10.33,32h-4.67c-.55,0-1-.45-1-1v-6c0-.55.45-1,1-1h4.67c.55,0,1,.45,1,1v6c0,.55-.45,1-1,1Zm-3.67-2h2.67v-4h-2.67v4Z"/><path class="cls-1" d="m9.67,20h-3.33c-.55,0-1-.45-1-1s.45-1,1-1h3.33c.55,0,1,.45,1,1s-.45,1-1,1Z"/><path class="cls-1" d="m9.67,12h-3.33c-.55,0-1-.45-1-1s.45-1,1-1h3.33c.55,0,1,.45,1,1s-.45,1-1,1Z"/><path class="cls-1" d="m9.67,16h-3.33c-.55,0-1-.45-1-1s.45-1,1-1h3.33c.55,0,1,.45,1,1s-.45,1-1,1Z"/><path class="cls-1" d="m24.33,32h-11.33c-.55,0-1-.45-1-1s.45-1,1-1h11.33c.55,0,1,.45,1,1s-.45,1-1,1Z"/><path class="cls-1" d="m24,20c-.13,0-.27-.03-.39-.08-.31-.13-7.61-3.31-7.61-9.85v-5.36c0-.43.27-.81.68-.95l7-2.38c.21-.07.43-.07.64,0l7,2.38c.41.14.68.52.68.95v5.36c0,6.54-7.3,9.72-7.61,9.85-.13.05-.26.08-.39.08h0Zm-6-14.57v4.64c0,4.46,4.61,7.12,6,7.82,1.39-.7,6-3.37,6-7.82v-4.64l-6-2.04-6,2.04Z"/><path class="cls-1" d="m23.67,14c-.26,0-.52-.11-.71-.29l-2.67-2.67c-.39-.39-.39-1.02,0-1.41s1.02-.39,1.41,0l1.85,1.85,3.31-4.41c.33-.44.96-.53,1.4-.2.44.33.53.96.2,1.4l-4,5.33c-.17.23-.44.38-.73.4-.02,0-.05,0-.07,0h0Z"/></svg>