<?xml version="1.0" encoding="UTF-8"?><svg id="Layer_1" xmlns="http://www.w3.org/2000/svg" viewBox="0 0 32 32"><defs><style>.cls-1{stroke-width:0px;}</style></defs><path class="cls-1" d="m32,13.75V1.02h-12.73v5.43h-6.53V1.02H0v12.73h12.73v-5.43h6.53v5.43h5.43v4.49h-5.43v5.43h-6.53v-5.43H0v12.73h12.73v-5.43h6.53v5.43h12.73v-12.73h-5.43v-4.49h5.43Zm-21.14-1.88H1.88V2.9h8.98v8.98ZM1.88,29.1v-8.98h8.98v1.6l-4.68,3.12-1.96-1.96-1.33,1.33,3.05,3.05,4.92-3.28v5.13H1.88Zm28.25,0h-8.98v-8.98h8.98v8.98ZM21.14,2.9h8.98v8.98h-8.98V2.9Z"/><path class="cls-1" d="m5.43,6.39h1.88v2h-1.88v-2Z"/><path class="cls-1" d="m24.7,6.39h1.88v2h-1.88v-2Z"/><path class="cls-1" d="m24.7,23.5h1.88v2h-1.88v-2Z"/></svg>