<?xml version="1.0" encoding="UTF-8"?><svg id="Layer_1" xmlns="http://www.w3.org/2000/svg" viewBox="0 0 32 32"><defs><style>.cls-1{stroke-width:0px;}</style></defs><path class="cls-1" d="m12.1,7.82c-4.16,1.61-6.94,5.69-6.94,10.16v2.97c0,.41-.36.75-.77.75h-1.53c-1.25,0-2.28-1.03-2.28-2.28v-3.36c0-.99.64-1.86,1.58-2.16.39-.12.8.09.93.48s-.09.8-.48.93c-.33.11-.56.42-.56.76v3.36c0,.44.37.81.81.81h.83v-2.25c0-2.54.75-4.99,2.2-7.06,1.42-2.03,3.36-3.57,5.66-4.47.38-.15.81.04.95.42.15.38-.03.81-.4.95Zm11.96.42c0,1.54-1.26,2.8-2.8,2.8s-2.8-1.26-2.8-2.8,1.26-2.8,2.8-2.8c1.54,0,2.8,1.26,2.8,2.8Zm-1.47,0c0-.73-.6-1.33-1.33-1.33s-1.33.6-1.33,1.33.6,1.33,1.33,1.33c.73,0,1.33-.6,1.33-1.33Zm8.83,7.82v3.36c0,1.25-.99,2.28-2.24,2.28h-1.36c-.45,1.39-1.16,2.76-2.11,3.97-1.57,1.98-3.73,3.44-6.12,4.16-.11,1.21-1.13,2.17-2.37,2.17h-2.4c-1.31,0-2.38-1.06-2.38-2.37s1.07-2.37,2.38-2.37h2.4c.86,0,1.62.45,2.04,1.14,4.54-1.4,7.65-5.61,7.65-10.42,0-1.48-.29-2.92-.87-4.27l-.97-.43c-.42.32-.87.58-1.35.78l-.12,1.16c-.04.77-.93,1.24-2.34,1.24s-2.31-.47-2.34-1.24l-.12-1.16c-.48-.2-.93-.46-1.35-.78l-1.07.48c-.68.35-1.54-.19-2.24-1.41-.25-.44-.44-.9-.51-1.3-.16-.82.17-1.2.42-1.35l.95-.69c-.03-.25-.05-.51-.05-.77s.02-.52.05-.78l-.95-.69c-.65-.42-.61-1.42.1-2.65.71-1.22,1.56-1.76,2.24-1.41l1.08.48c.41-.31.86-.57,1.34-.77l.12-1.17c.04-.77.93-1.24,2.34-1.24s2.3.47,2.34,1.24l.12,1.18c.48.2.92.46,1.34.77l1.08-.48c.26-.13.75-.23,1.38.32.3.26.61.65.87,1.09.71,1.22.74,2.23.1,2.65l-.95.69c.03.26.05.52.05.78s-.02.51-.05.77l.95.69c.64.42.61,1.43-.1,2.65-.25.44-.56.83-.87,1.09,0,0,0,0,0,0,.57,1.44.86,2.97.86,4.54,0,.76-.07,1.5-.2,2.24h1c.44,0,.77-.37.77-.81v-3.36c0-.34-.22-.66-.54-.76-.39-.12-.59-.54-.46-.93.12-.39.53-.6.92-.48.94.3,1.56,1.17,1.56,2.16Zm-13.29,13.56c0-.06,0-.13-.02-.18,0,0,0,0,0-.02-.09-.4-.45-.69-.88-.69h-2.4c-.5,0-.9.4-.9.9s.41.9.9.9h2.4c.5,0,.9-.41.9-.91ZM26.3,6.53l1.16-.84c-.03-.17-.13-.47-.34-.84-.21-.37-.42-.6-.56-.72l-1.31.58c-.26.12-.57.07-.79-.12-.49-.43-1.05-.75-1.66-.96-.27-.09-.47-.34-.5-.62l-.15-1.42c-.17-.06-.48-.12-.9-.12s-.73.07-.9.12l-.15,1.42c-.03.29-.22.53-.5.62-.61.21-1.17.53-1.66.96-.22.19-.52.24-.79.12l-1.31-.58c-.13.12-.35.35-.56.72-.21.37-.31.67-.34.84l1.16.84c.23.17.35.46.29.74-.06.32-.1.64-.1.97s.03.64.09.96c.06.28-.06.57-.29.74l-1.15.84c.03.17.13.47.34.84.21.37.42.6.56.72l1.3-.58c.26-.12.57-.07.79.12.49.43,1.05.76,1.67.96.27.09.47.33.5.62l.15,1.41c.17.06.48.12.9.12s.73-.07.9-.12l.15-1.41c.03-.29.22-.53.5-.62.62-.21,1.18-.53,1.67-.96.22-.19.52-.24.79-.12l1.3.58c.13-.12.35-.35.56-.72.21-.37.31-.67.34-.84l-1.15-.84c-.23-.17-.35-.46-.29-.74.06-.31.09-.63.09-.96s-.03-.65-.1-.97c-.06-.28.06-.57.29-.74Z"/></svg>