<?xml version="1.0" encoding="UTF-8"?><svg id="Layer_1" xmlns="http://www.w3.org/2000/svg" viewBox="0 0 32 32"><defs><style>.cls-1{stroke-width:0px;}</style></defs><g id="Layer_2"><g id="layer_1-2"><path class="cls-1" d="m27.33,5.33c-1.47,0-2.67-1.19-2.67-2.67s1.19-2.67,2.67-2.67,2.67,1.19,2.67,2.67-1.19,2.67-2.67,2.67Zm0-4c-.74,0-1.33.6-1.33,1.33s.6,1.33,1.33,1.33,1.33-.6,1.33-1.33-.6-1.33-1.33-1.33Z"/><path class="cls-1" d="m27.33,32c-1.47,0-2.67-1.19-2.67-2.67s1.19-2.67,2.67-2.67,2.67,1.19,2.67,2.67-1.19,2.67-2.67,2.67Zm0-4c-.74,0-1.33.6-1.33,1.33s.6,1.33,1.33,1.33,1.33-.6,1.33-1.33-.6-1.33-1.33-1.33Z"/><path class="cls-1" d="m29.33,22.67c-1.47,0-2.67-1.19-2.67-2.67s1.19-2.67,2.67-2.67,2.67,1.19,2.67,2.67-1.19,2.67-2.67,2.67Zm0-4c-.74,0-1.33.6-1.33,1.33s.6,1.33,1.33,1.33,1.33-.6,1.33-1.33-.6-1.33-1.33-1.33Z"/><path class="cls-1" d="m29.33,14.67c-1.47,0-2.67-1.19-2.67-2.67s1.19-2.67,2.67-2.67,2.67,1.19,2.67,2.67-1.19,2.67-2.67,2.67Zm0-4c-.74,0-1.33.6-1.33,1.33s.6,1.33,1.33,1.33,1.33-.6,1.33-1.33-.6-1.33-1.33-1.33Z"/><path class="cls-1" d="m4.67,5.33c-1.47,0-2.67-1.19-2.67-2.67S3.19,0,4.67,0s2.67,1.19,2.67,2.67-1.19,2.67-2.67,2.67Zm0-4c-.74,0-1.33.6-1.33,1.33s.6,1.33,1.33,1.33,1.33-.6,1.33-1.33-.6-1.33-1.33-1.33Z"/><path class="cls-1" d="m4.67,32c-1.47,0-2.67-1.19-2.67-2.67s1.19-2.67,2.67-2.67,2.67,1.19,2.67,2.67-1.19,2.67-2.67,2.67Zm0-4c-.74,0-1.33.6-1.33,1.33s.6,1.33,1.33,1.33,1.33-.6,1.33-1.33-.6-1.33-1.33-1.33Z"/><path class="cls-1" d="m2.67,22.67c-1.47,0-2.67-1.19-2.67-2.67s1.19-2.67,2.67-2.67,2.67,1.19,2.67,2.67-1.19,2.67-2.67,2.67Zm0-4c-.74,0-1.33.6-1.33,1.33s.6,1.33,1.33,1.33,1.33-.6,1.33-1.33-.6-1.33-1.33-1.33Z"/><path class="cls-1" d="m2.67,14.67c-1.47,0-2.67-1.19-2.67-2.67s1.19-2.67,2.67-2.67,2.67,1.19,2.67,2.67-1.19,2.67-2.67,2.67Zm0-4c-.74,0-1.33.6-1.33,1.33s.6,1.33,1.33,1.33,1.33-.6,1.33-1.33-.6-1.33-1.33-1.33Z"/><path class="cls-1" d="m9.33,30h-2.67v-1.33h2.39l2.27-2.27v-1.73h1.33v2c0,.18-.07.35-.19.47l-2.67,2.67c-.13.12-.3.19-.47.19h0Z"/><path class="cls-1" d="m25.33,30h-2.67c-.18,0-.35-.07-.47-.19l-2.67-2.67c-.12-.13-.19-.3-.19-.47v-2h1.33v1.73l2.27,2.27h2.39v1.33Z"/><path class="cls-1" d="m20.67,7.33h-1.33v-2c0-.18.07-.35.19-.47l2.67-2.67c.13-.12.3-.19.47-.19h2.67v1.33h-2.39l-2.27,2.27v1.73Z"/><path class="cls-1" d="m12.67,7.33h-1.33v-1.73l-2.27-2.27h-2.39v-1.33h2.67c.18,0,.35.07.47.19l2.67,2.67c.12.13.19.3.19.47v2Z"/><path class="cls-1" d="m24.67,11.33h2.67v1.33h-2.67v-1.33Z"/><path class="cls-1" d="m24.67,19.33h2.67v1.33h-2.67v-1.33Z"/><path class="cls-1" d="m4.67,11.33h2.67v1.33h-2.67v-1.33Z"/><path class="cls-1" d="m4.67,19.33h2.67v1.33h-2.67v-1.33Z"/><path class="cls-1" d="m16,19.33c-1.84,0-3.33-1.49-3.33-3.33s1.49-3.33,3.33-3.33,3.33,1.49,3.33,3.33-1.49,3.33-3.33,3.33Zm0-5.33c-1.1,0-2,.9-2,2s.9,2,2,2,2-.9,2-2-.9-2-2-2Z"/><path class="cls-1" d="m17.33,24.67h-2.67c-.31,0-.59-.2-.67-.51l-.53-2.11-1.87,1.12c-.26.16-.6.12-.81-.1l-1.89-1.89c-.22-.22-.26-.55-.1-.81l1.12-1.87-2.09-.51c-.3-.08-.52-.35-.51-.67v-2.67c0-.31.2-.59.51-.67l2.11-.53-1.12-1.87c-.16-.26-.12-.6.1-.81l1.89-1.89c.22-.22.55-.26.81-.1l1.87,1.12.51-2.09c.08-.3.35-.52.67-.51h2.67c.31,0,.59.2.67.51l.53,2.11,1.87-1.12c.26-.16.6-.12.81.1l1.89,1.89c.22.22.26.55.1.81l-1.12,1.87,2.11.53c.29.08.49.35.49.65v2.67c0,.31-.2.59-.51.67l-2.11.53,1.12,1.87c.16.26.12.6-.1.81l-1.89,1.89c-.22.22-.55.26-.81.1l-1.87-1.12-.51,2.09c-.08.3-.35.52-.67.51h0Zm-2.15-1.33h1.63l.62-2.47c.05-.21.2-.38.39-.46.19-.08.41-.06.59.05l2.19,1.33,1.15-1.15-1.33-2.19c-.11-.18-.13-.4-.05-.59.08-.2.25-.34.46-.39l2.49-.64v-1.63l-2.47-.62c-.21-.05-.38-.2-.46-.39-.08-.19-.06-.41.05-.59l1.33-2.19-1.15-1.15-2.19,1.33c-.18.11-.4.13-.59.05-.2-.08-.34-.25-.39-.46l-.64-2.49h-1.63l-.62,2.47c-.05.21-.2.38-.39.46-.19.08-.41.06-.59-.05l-2.19-1.33-1.15,1.15,1.33,2.19c.11.18.13.4.05.59-.08.2-.25.34-.46.39l-2.49.64v1.63l2.47.62c.21.05.38.2.46.39.08.19.06.41-.05.59l-1.33,2.19,1.15,1.15,2.19-1.33c.18-.11.4-.13.59-.05.2.08.34.25.39.46l.64,2.49Z"/></g></g></svg>