<?xml version="1.0" encoding="UTF-8"?><svg id="Layer_1" xmlns="http://www.w3.org/2000/svg" viewBox="0 0 32 32"><defs><style>.cls-1{stroke-width:0px;}</style></defs><path class="cls-1" d="m17.07,17.76H7.53l-.33-.47c-.32-.46-.84-.73-1.4-.73H1.08c-.6,0-1.08.48-1.08,1.08v6.01c0,.35.28.62.62.62s.62-.28.62-.62v-.37c0-.19.15-.34.34-.34h14.97c.19,0,.34.15.34.34v7.4s-.03.07-.07.07H1.32s-.07-.03-.07-.07v-1.44c0-.35-.28-.62-.62-.62s-.62.28-.62.62v1.44c0,.73.59,1.32,1.32,1.32h15.51c.73,0,1.32-.59,1.32-1.32v-11.84c0-.6-.48-1.08-1.08-1.08Zm-1.66,3.93H2.74v-.79s.04-.08.08-.08h12.5s.08.04.08.08v.79h0Zm1.25,0v-.79c0-.74-.6-1.33-1.33-1.33H2.83c-.74,0-1.33.6-1.33,1.33v.79c-.08,0-.16.02-.24.03v-3.92h4.55c.15,0,.29.07.38.2l.52.74c.12.17.31.27.51.27h9.7v2.71c-.08-.02-.16-.03-.24-.03Z"/><path class="cls-1" d="m.62,27.16s-.08,0-.12-.01-.08-.02-.12-.04c-.04-.02-.07-.03-.11-.06-.03-.02-.07-.05-.1-.08s-.05-.06-.08-.09c-.02-.03-.04-.07-.06-.11-.02-.04-.03-.08-.04-.12,0-.04-.01-.08-.01-.12s0-.08.01-.12c0-.04.02-.08.04-.12.02-.04.03-.07.06-.11.02-.03.05-.07.08-.1s.06-.06.1-.08c.03-.02.07-.04.11-.06.04-.02.08-.03.12-.04.08-.02.16-.02.24,0,.04,0,.08.02.12.04.04.02.07.03.11.06.03.02.07.05.09.08.03.03.06.06.08.1.02.03.04.07.06.11.02.04.03.08.04.12,0,.04.01.08.01.12s0,.08-.01.12c0,.04-.02.08-.04.12-.02.04-.03.07-.06.11-.02.03-.05.07-.08.09-.03.03-.06.06-.09.08-.03.02-.07.04-.11.06-.04.02-.08.03-.12.04-.04,0-.08.01-.12.01Z"/><path class="cls-1" d="m11.89,29.85c-.35,0-.62-.28-.62-.62v-1.44h-4.37v.81h2.44c.35,0,.62.28.62.62s-.28.62-.62.62h-3.06c-.35,0-.62-.28-.62-.62v-2.06c0-.35.28-.62.62-.62h5.62c.35,0,.62.28.62.62v2.06c0,.35-.28.62-.62.62Z"/><path class="cls-1" d="m30.92,1.21h-9.54l-.33-.47C20.73.27,20.2,0,19.64,0h-4.72C14.33,0,13.84.48,13.84,1.08v13.05c0,.73.59,1.32,1.32,1.32h15.51c.73,0,1.32-.59,1.32-1.32V2.29c0-.6-.48-1.08-1.08-1.08Zm-11.28.04c.15,0,.29.07.38.2l.52.74c.12.17.31.27.51.27h9.7v2.71c-.08-.02-.16-.03-.24-.03v-.79c0-.74-.6-1.33-1.33-1.33h-12.5c-.74,0-1.33.6-1.33,1.33v.79c-.08,0-.16.02-.24.03V1.25h4.55Zm-3.06,3.88v-.79s.04-.08.08-.08h12.5s.08.04.08.08v.79h-12.67Zm14.16,9s-.03.07-.07.07h-15.51s-.07-.03-.07-.07v-7.4c0-.19.15-.34.34-.34h14.97c.19,0,.34.15.34.34v7.4h0Z"/><path class="cls-1" d="m25.73,13.3c-.35,0-.62-.28-.62-.62v-1.44h-4.37v.81h2.44c.35,0,.62.28.62.62s-.28.62-.62.62h-3.06c-.35,0-.62-.28-.62-.62v-2.06c0-.35.28-.62.62-.62h5.62c.35,0,.62.28.62.62v2.06c0,.35-.28.62-.62.62Z"/><path class="cls-1" d="m8.34,11.47c-.11,0-.21-.03-.31-.08-.2-.11-.32-.32-.32-.55v-.31H2.21c-.35,0-.62-.28-.62-.62v-2.25c0-.35.28-.62.62-.62h5.5v-.31c0-.23.12-.44.32-.55.2-.11.44-.11.63.01l3.35,2.06c.19.11.3.32.3.53s-.11.42-.3.53l-3.35,2.06c-.1.06-.21.09-.33.09Zm-5.5-2.19h5.5c.29,0,.53.19.6.46l1.56-.96-1.56-.96c-.07.27-.31.46-.6.46H2.83v1Z"/><path class="cls-1" d="m23.66,25.91c-.11,0-.23-.03-.33-.09l-3.35-2.06c-.18-.11-.3-.32-.3-.53s.11-.42.3-.53l3.35-2.06c.19-.12.43-.12.63-.01.2.11.32.32.32.55v.31h5.5c.35,0,.62.28.62.62v2.25c0,.35-.28.62-.62.62h-5.5v.31c0,.23-.12.44-.32.55-.09.05-.2.08-.31.08Zm-2.16-2.69l1.56.96c.07-.27.31-.46.6-.46h5.5v-1h-5.5c-.29,0-.53-.19-.6-.46l-1.56.96Z"/></svg>