<?xml version="1.0" encoding="UTF-8"?><svg id="Layer_1" xmlns="http://www.w3.org/2000/svg" viewBox="0 0 32 32"><defs><style>.cls-1{fill-rule:evenodd;stroke-width:0px;}</style></defs><g id="Icon"><path class="cls-1" d="m19.81,9.82H6.93v-.69c0-1.15-.93-2.08-2.08-2.08h-1.39c-.92,0-1.8.37-2.45,1.01-.65.65-1.01,1.53-1.01,2.45v16.63c0,.92.37,1.8,1.01,2.45.65.65,1.53,1.01,2.45,1.01h26.34c1.15,0,2.08-.93,2.08-2.08V11.9c0-1.15-.93-2.08-2.08-2.08h-2.49l4.07-4.07c.39-.39.61-.92.61-1.47s-.22-1.08-.61-1.47c-.26-.26-.55-.55-.81-.81-.39-.39-.92-.61-1.47-.61s-1.08.22-1.47.61l-7.83,7.83Zm6.12,1.39l-7.88,7.88c-.23.23-.51.4-.81.5-.96.32-3.85,1.28-3.85,1.28-.25.08-.52.02-.71-.17s-.25-.46-.17-.71c0,0,.96-2.88,1.28-3.85.1-.31.27-.58.5-.81l4.13-4.13H6.93v11.78c0,.55-.22,1.08-.61,1.47-.39.39-.92.61-1.47.61h-1.39c-.55,0-1.08.22-1.47.61-.39.39-.61.92-.61,1.47s.22,1.08.61,1.47c.39.39.92.61,1.47.61h26.34c.38,0,.69-.31.69-.69V11.9c0-.38-.31-.69-.69-.69h-3.87ZM5.54,22.99v-13.86c0-.38-.31-.69-.69-.69h-1.39c-.55,0-1.08.22-1.47.61-.39.39-.61.92-.61,1.47v13.86c.6-.45,1.33-.69,2.08-.69h1.39c.18,0,.36-.07.49-.2.13-.13.2-.31.2-.49Zm8.72-3.87l1.78-.59-1.19-1.19-.59,1.78Zm1.27-3.06l1.79,1.79,10.11-10.11-1.79-1.79-10.11,10.11Zm12.88-9.3l-1.79-1.79,2-2c.13-.13.31-.2.49-.2s.36.07.49.2l.81.81c.13.13.2.31.2.49s-.07.36-.2.49l-2,2Z"/><path class="cls-1" d="m25.64,22.3c-1.15,0-2.08.93-2.08,2.08s.93,2.08,2.08,2.08,2.08-.93,2.08-2.08-.93-2.08-2.08-2.08Zm0,1.39c.38,0,.69.31.69.69s-.31.69-.69.69-.69-.31-.69-.69.31-.69.69-.69Z"/><path class="cls-1" d="m10.4,13.98c-1.15,0-2.08.93-2.08,2.08s.93,2.08,2.08,2.08,2.08-.93,2.08-2.08-.93-2.08-2.08-2.08Zm0,1.39c.38,0,.69.31.69.69s-.31.69-.69.69-.69-.31-.69-.69.31-.69.69-.69Z"/><path class="cls-1" d="m19.81,25.07l-.2.2c-.27.27-.27.71,0,.98s.71.27.98,0l1.39-1.39c.27-.27.27-.71,0-.98l-1.39-1.39c-.27-.27-.71-.27-.98,0s-.27.71,0,.98l.2.2h-6.64c-.55,0-1.08-.22-1.47-.61-.39-.39-.61-.92-.61-1.47v-1.39c0-.38-.31-.69-.69-.69s-.69.31-.69.69v1.39c0,.92.37,1.8,1.01,2.45.65.65,1.53,1.01,2.45,1.01h6.64Z"/><path class="cls-1" d="m24.66,18.83l-.9.9c-.27.27-.27.71,0,.98s.71.27.98,0l.9-.9.9.9c.27.27.71.27.98,0s.27-.71,0-.98l-.9-.9.9-.9c.27-.27.27-.71,0-.98s-.71-.27-.98,0l-.9.9-.9-.9c-.27-.27-.71-.27-.98,0s-.27.71,0,.98l.9.9Z"/></g></svg>