<?xml version="1.0" encoding="UTF-8"?><svg id="Layer_1" xmlns="http://www.w3.org/2000/svg" viewBox="0 0 32 32"><defs><style>.cls-1{stroke-width:0px;}</style></defs><path class="cls-1" d="m5.69,23.5h22.5V6.62H5.69v3.75h-1.88v1.88h1.88v5.62h-1.88v1.88h1.88v3.75Zm1.88-15h18.75v13.12H7.56v-13.12Z"/><path class="cls-1" d="m13.19,14.12h1.88v1.88h-1.88v-1.88Z"/><path class="cls-1" d="m22.56,10.38h1.88v9.38h-1.88v-9.38Z"/><path class="cls-1" d="m0,2.88v24.38h3.81v1.88h5.62v-1.88h13.12v1.88h5.62v-1.88h3.81V2.88H0Zm30.12,22.5h-3.81v1.88h-1.88v-1.88H7.56v1.88h-1.88v-1.88H1.88V4.75h28.25v20.62Z"/><path class="cls-1" d="m14.12,10.38c-2.58,0-4.69,2.1-4.69,4.69s2.1,4.69,4.69,4.69,4.69-2.1,4.69-4.69-2.1-4.69-4.69-4.69Zm0,7.5c-1.55,0-2.81-1.26-2.81-2.81s1.26-2.81,2.81-2.81,2.81,1.26,2.81,2.81-1.26,2.81-2.81,2.81Z"/></svg>