<?xml version="1.0" encoding="UTF-8"?><svg id="Layer_1" xmlns="http://www.w3.org/2000/svg" viewBox="0 0 32 32"><defs><style>.cls-1{stroke-width:0px;}</style></defs><path class="cls-1" d="m23.81,4.36v-1.54c0-.42-.28-.79-.69-.9L16.25.03c-.16-.04-.33-.04-.49,0l-6.87,1.87c-.41.11-.69.48-.69.9v1.54c0,5.17,2.82,9.93,7.36,12.4.28.15.62.15.9,0,4.54-2.48,7.36-7.23,7.36-12.4Zm-7.81,10.5c-3.68-2.22-5.94-6.2-5.94-10.5v-.83l5.94-1.62,5.94,1.62v.83c0,4.3-2.25,8.29-5.94,10.5h0Z"/><path class="cls-1" d="m8.36,15.89c-.53-.53-1.24-.83-1.99-.82-.25,0-.5.03-.74.1v-4.79c0-1.55-1.26-2.81-2.81-2.81S0,8.82,0,10.38v10.75c0,.88.34,1.74.95,2.37l4.05,4.24v2.07c0,1.21.98,2.19,2.19,2.19h5c1.21,0,2.19-.98,2.19-2.19h0v-6.48c0-.91-.36-1.79-1.01-2.43l-5.01-5.01Zm4.14,13.93c0,.17-.14.31-.31.31h-5c-.17,0-.31-.14-.31-.31v-2.45c0-.24-.09-.47-.26-.65l-4.31-4.51c-.28-.29-.43-.68-.43-1.08v-10.75c0-.52.42-.94.94-.94s.94.42.94.94v6.47c-.41,1.04-.17,2.23.62,3.02l2.52,2.52c.37.37.96.37,1.33,0,.37-.37.37-.96,0-1.33l-2.52-2.52c-.28-.28-.36-.71-.18-1.07,0,0,0,0,0,0,.05-.09.11-.17.18-.25.37-.37.96-.37,1.33,0l5.01,5.01c.29.29.46.69.46,1.11v6.48Z"/><path class="cls-1" d="m29.19,7.56c-1.55,0-2.81,1.26-2.81,2.81v4.79c-.24-.07-.49-.1-.74-.1-.75,0-1.46.29-1.99.82l-5.01,5.01c-.65.64-1.01,1.52-1.01,2.43v6.48c0,1.21.98,2.19,2.19,2.19h5c1.21,0,2.19-.98,2.19-2.19h0v-2.07l4.05-4.24c.61-.64.95-1.49.95-2.37v-10.75c0-1.55-1.26-2.81-2.81-2.81Zm.94,13.56c0,.4-.15.79-.43,1.08l-4.31,4.51c-.17.17-.26.41-.26.65v2.45c0,.17-.14.31-.31.31h-5c-.17,0-.31-.14-.31-.31v-6.48c0-.41.16-.81.46-1.1l5.01-5.01c.37-.37.96-.37,1.33,0,.07.07.13.16.18.25,0,0,0,0,0,0,.17.36.1.79-.18,1.07l-2.52,2.52c-.37.37-.37.96,0,1.33s.96.37,1.33,0l2.52-2.52c.79-.79,1.04-1.98.62-3.02v-6.47c0-.52.42-.94.94-.94s.94.42.94.94v10.75Z"/><path class="cls-1" d="m18.05,5.07l-2.66,2.83-.93-1.14c-.33-.4-.92-.46-1.32-.14-.4.33-.46.92-.14,1.32l1.61,1.98c.17.21.42.34.69.34.01,0,.02,0,.03,0,.26,0,.51-.11.68-.3l3.39-3.61c.35-.38.34-.97-.04-1.33-.38-.35-.97-.34-1.33.04Z"/></svg>