<?xml version="1.0" encoding="UTF-8"?><svg id="Layer_1" xmlns="http://www.w3.org/2000/svg" viewBox="0 0 32 32"><defs><style>.cls-1{stroke-width:0px;}</style></defs><g id="_70_Setting_Arrow_Configuration_Gear_Options"><path class="cls-1" d="m22.67,21.43c.31-.55.55-1.13.71-1.72l2.43-.54c.31-.07.53-.34.53-.66v-1.9c0-.32-.22-.59-.53-.66l-2.43-.54c-.17-.6-.41-1.18-.71-1.72l1.34-2.11c.17-.27.13-.62-.09-.84l-1.34-1.34c-.22-.22-.57-.26-.84-.09l-2.11,1.34c-.54-.3-1.12-.54-1.72-.72l-.54-2.44c-.07-.31-.34-.53-.66-.53h-1.9c-.32,0-.59.22-.66.53l-.54,2.44c-.6.17-1.18.41-1.72.72l-2.11-1.34c-.27-.17-.62-.13-.84.09l-1.34,1.34c-.22.22-.26.57-.09.84l1.34,2.11c-.31.55-.55,1.12-.71,1.72l-2.43.54c-.31.07-.53.34-.53.66v1.9c0,.32.22.59.53.66l2.43.54c.17.6.41,1.18.71,1.72l-1.34,2.11c-.17.27-.13.62.09.84l1.34,1.35c.22.22.57.26.84.09l2.11-1.34c.55.31,1.12.55,1.72.71l.54,2.43c.07.31.34.53.66.53h1.9c.32,0,.59-.22.66-.53l.54-2.43c.6-.17,1.18-.41,1.72-.71l2.11,1.34c.27.17.62.13.84-.09l1.34-1.35c.22-.22.26-.57.09-.84l-1.34-2.11Zm-.67,2.96l-2.01-1.27c-.22-.14-.5-.14-.72,0-.64.41-1.34.7-2.09.86-.26.06-.46.26-.51.51l-.52,2.31h-.82l-.52-2.31c-.06-.26-.26-.46-.51-.51-.74-.16-1.44-.45-2.09-.87-.22-.14-.5-.14-.72,0l-2.01,1.27-.58-.58,1.27-2.01c.14-.22.14-.5,0-.72-.41-.64-.7-1.34-.86-2.09-.06-.26-.26-.46-.51-.51l-2.31-.52v-.82l2.31-.52c.26-.06.46-.26.51-.51.16-.74.45-1.44.87-2.09.14-.22.14-.5,0-.72l-1.27-2.01.58-.58,2,1.27c.22.14.5.14.73,0,.64-.41,1.34-.7,2.09-.87.25-.06.45-.26.51-.51l.52-2.31h.82l.52,2.31c.06.25.26.45.51.51.75.17,1.45.46,2.09.87.22.14.5.14.73,0l2.01-1.27.58.58-1.27,2.01c-.14.22-.14.5,0,.72.41.65.7,1.35.87,2.09.06.26.26.46.51.51l2.31.52v.82l-2.31.52c-.26.06-.46.26-.51.51-.16.74-.45,1.44-.87,2.09-.14.22-.14.5,0,.72l1.27,2.01-.58.58Z"/><path class="cls-1" d="m15.74,12.95c-2.54,0-4.61,2.07-4.61,4.61s2.07,4.6,4.61,4.6,4.6-2.06,4.6-4.6-2.06-4.61-4.6-4.61h0Zm0,7.86c-1.8,0-3.26-1.46-3.26-3.25s1.46-3.26,3.26-3.26,3.25,1.46,3.25,3.26c0,1.79-1.46,3.25-3.25,3.25Z"/><path class="cls-1" d="m15.74,15.65c-1.05,0-1.91.86-1.91,1.91s.86,1.9,1.91,1.9,1.9-.85,1.9-1.9c0-1.05-.85-1.91-1.9-1.91h0Zm0,2.46c-.31,0-.56-.25-.56-.55s.25-.56.56-.56.55.25.55.56-.25.55-.55.55Z"/><path class="cls-1" d="m1.78,17.5c0-5.94,4.02-11.2,9.66-12.82v1.8c0,.5.53.83.98.61l5.99-2.96c.23-.11.37-.35.38-.6,0-.26-.14-.49-.37-.61L12.42-.11c-.45-.23-.98.1-.98.6v2.78c-3.01.78-5.74,2.52-7.72,4.95C1.6,10.83.42,14.13.42,17.5c0,.37.3.68.68.68s.68-.3.68-.68h0ZM16.59,3.51l-3.8,1.88V1.6l3.8,1.92Z"/><path class="cls-1" d="m22.59,28.53c-5.25,3.56-12.24,2.9-16.74-1.45l1.56-.9c.43-.25.45-.87.04-1.15l-5.56-3.7c-.21-.14-.49-.15-.71-.02-.22.13-.35.37-.34.62l.38,6.69c.03.5.58.8,1.01.55l2.41-1.39c4.94,5.03,12.82,5.87,18.72,1.87.31-.21.39-.63.18-.94-.21-.31-.63-.39-.94-.18h0ZM2.26,23.2l3.53,2.35c-.47.27-2.82,1.63-3.29,1.9l-.24-4.25Z"/><path class="cls-1" d="m31.66,22.82l-2.41-1.39c1.82-6.54-1.08-13.53-7.13-16.83-.33-.18-.74-.06-.92.27-.18.33-.06.74.27.92,5.36,2.92,8.03,9.07,6.56,14.94l-1.56-.9c-.43-.25-.98.04-1.01.54l-.42,6.67c-.02.39.29.72.67.72.13,0,.26-.04.37-.11l5.61-3.67c.42-.28.4-.9-.03-1.15h0Zm-5.19,2.95l.27-4.23c.63.36,2.64,1.52,3.29,1.9l-3.56,2.33Z"/><path class="cls-1" d="m29.05,5.87c1.12,0,2.03-.91,2.03-2.03s-.91-2.03-2.03-2.03-2.03.91-2.03,2.03.91,2.03,2.03,2.03Zm0-2.7c.37,0,.68.3.68.68s-.3.68-.68.68-.68-.3-.68-.68.3-.68.68-.68Z"/><path class="cls-1" d="m2.36,5.87c1.3,0,2.36-1.06,2.36-2.36S3.67,1.14,2.36,1.14,0,2.2,0,3.5s1.06,2.36,2.36,2.36Zm0-3.38c.56,0,1.01.45,1.01,1.01s-.45,1.01-1.01,1.01-1.01-.45-1.01-1.01c0-.56.45-1.01,1.01-1.01Z"/></g></svg>