<?xml version="1.0" encoding="UTF-8"?><svg id="Layer_1" xmlns="http://www.w3.org/2000/svg" viewBox="0 0 32 32"><defs><style>.cls-1{stroke-width:0px;}</style></defs><path class="cls-1" d="m29.94,6.44c0-3.55-2.89-6.44-6.44-6.44-1.56,0-2.99.56-4.11,1.49-1.4-.53-2.88-.8-4.39-.8C8.14.69,2.56,6.27,2.56,13.12c0,2.5.75,4.93,2.16,7-1.48.08-2.66,1.31-2.66,2.81v6.25c0,1.55,1.26,2.81,2.81,2.81h20.25c1.55,0,2.81-1.26,2.81-2.81v-6.25c0-1.5-1.18-2.73-2.66-2.81,1.72-2.52,2.43-5.54,2.07-8.53,1.57-1.17,2.59-3.05,2.59-5.16Zm-1.88,0c0,2.52-2.05,4.56-4.56,4.56s-4.56-2.05-4.56-4.56,2.05-4.56,4.56-4.56,4.56,2.05,4.56,4.56Zm-5.15,13.69H7.09c-.24-.27-.47-.56-.68-.86,1.33-1.8,3.19-3.14,5.32-3.82,1.99,1.32,4.58,1.31,6.56,0,2.12.68,3.98,2.02,5.31,3.82-.21.3-.44.58-.68.86h0Zm-5.32-6.49s-.09.06-.13.1c-.68.52-1.54.83-2.46.83-2.24,0-4.06-1.82-4.06-4.06s1.82-4.06,4.06-4.06c.75,0,1.46.2,2.09.58.14,1.58.86,3,1.94,4.04-.14,1.04-.67,1.95-1.43,2.58Zm-2.59-11.07c1.05,0,2.07.15,3.05.45-.38.6-.66,1.27-.83,1.98-.7-.28-1.45-.43-2.23-.43-3.27,0-5.94,2.66-5.94,5.94,0,1.31.43,2.52,1.15,3.51-1.86.77-3.51,1.97-4.82,3.52-.63-1.37-.96-2.87-.96-4.4,0-5.82,4.74-10.56,10.56-10.56h0Zm11.06,20.38v6.25c0,.52-.42.94-.94.94H4.88c-.52,0-.94-.42-.94-.94v-6.25c0-.52.42-.94.94-.94h20.25c.52,0,.94.42.94.94Zm-1.46-5.41c-1.3-1.54-2.95-2.75-4.81-3.52.4-.54.7-1.14.89-1.78,1.53.75,3.29.85,4.86.32.09,1.73-.23,3.43-.94,4.98Z"/><path class="cls-1" d="m22.84,8.16c.37.37.96.37,1.33,0l2-2c.37-.37.37-.96,0-1.33-.37-.37-.96-.37-1.33,0l-1.34,1.34-.34-.34c-.37-.37-.96-.37-1.33,0s-.37.96,0,1.33l1,1Z"/><circle class="cls-1" cx="23" cy="26" r=".94"/><circle class="cls-1" cx="19" cy="26" r=".94"/><circle class="cls-1" cx="15" cy="26" r=".94"/><circle class="cls-1" cx="11" cy="26" r=".94"/><circle class="cls-1" cx="7" cy="26" r=".94"/></svg>