<?xml version="1.0" encoding="UTF-8"?><svg id="Layer_1" xmlns="http://www.w3.org/2000/svg" viewBox="0 0 32 32"><defs><style>.cls-1{stroke-width:0px;}</style></defs><path class="cls-1" d="m31.06,0H.94C.42,0,0,.42,0,.94v19.94c0,.52.42.94.94.94h7.79c.29,1.66,1.13,3.14,2.33,4.22v5.03c0,.52.42.94.94.94h8c.52,0,.94-.42.94-.94v-5.03c1.2-1.09,2.05-2.56,2.33-4.22h7.79c.52,0,.94-.42.94-.94V.94c0-.52-.42-.94-.94-.94Zm-12,30.12h-6.12v-2.85c1.84.88,4.28.88,6.12,0v2.85Zm-3.06-4.06c-3.03,0-5.5-2.47-5.5-5.5.28-7.29,10.72-7.28,11,0,0,3.03-2.47,5.5-5.5,5.5Zm14.12-6.12h-6.78c-.99-8.94-13.71-8.93-14.7,0H1.87V1.88h28.25v18.06Z"/><path class="cls-1" d="m17.52,18.36l-2.54,2.73-.99-1.04c-.36-.38-.95-.39-1.33-.04-.38.36-.39.95-.04,1.33l1.67,1.77c.18.19.42.29.68.29h0c.26,0,.51-.11.68-.3l3.22-3.47c.35-.38.33-.97-.05-1.32-.38-.35-.97-.33-1.32.05h0Z"/><path class="cls-1" d="m4.69,11.31h22.62c1.24-.05,1.24-1.83,0-1.88H4.69c-1.24.05-1.24,1.83,0,1.88Z"/><path class="cls-1" d="m4.69,15.06h3.19c1.24-.05,1.24-1.83,0-1.88h-3.19c-1.24.05-1.24,1.83,0,1.88Z"/><path class="cls-1" d="m27.31,13.19h-3.19c-1.24.05-1.24,1.83,0,1.88h3.19c1.24-.05,1.24-1.83,0-1.88Z"/><path class="cls-1" d="m16,5.63c.52,0,.94-.42.94-.94-.05-1.24-1.83-1.24-1.88,0,0,.52.42.94.94.94Z"/><path class="cls-1" d="m12.31,6.06c.52,0,.94-.42.94-.94-.05-1.24-1.83-1.24-1.88,0,0,.52.42.94.94.94Z"/><path class="cls-1" d="m8.56,7c.52,0,.94-.42.94-.94-.05-1.24-1.83-1.24-1.88,0,0,.52.42.94.94.94Z"/><path class="cls-1" d="m19.75,6.06c.52,0,.94-.42.94-.94-.05-1.24-1.83-1.24-1.88,0,0,.52.42.94.94.94Z"/><path class="cls-1" d="m23.5,7c.52,0,.94-.42.94-.94-.05-1.24-1.83-1.24-1.88,0,0,.52.42.94.94.94Z"/></svg>