<?xml version="1.0" encoding="UTF-8"?><svg id="Layer_1" xmlns="http://www.w3.org/2000/svg" viewBox="0 0 32 32"><defs><style>.cls-1{stroke-width:0px;}</style></defs><path class="cls-1" d="m21.37,20.52c-.76,0-1.37-.53-1.37-1.19s.62-1.19,1.37-1.19,1.37.53,1.37,1.19c0,.35.28.62.62.62s.62-.28.62-.62c0-1.15-.85-2.11-2-2.37v-.33c0-.35-.28-.62-.62-.62s-.62.28-.62.62v.33c-1.15.26-2,1.22-2,2.37,0,1.35,1.18,2.44,2.62,2.44.76,0,1.37.53,1.37,1.19s-.62,1.19-1.37,1.19-1.37-.53-1.37-1.19c0-.35-.28-.62-.62-.62s-.62.28-.62.62c0,1.15.85,2.11,2,2.37v.27c0,.35.28.62.62.62s.62-.28.62-.62v-.27c1.15-.26,2-1.22,2-2.37,0-1.35-1.18-2.44-2.62-2.44Z"/><path class="cls-1" d="m28.22,16.8c-.82-1.27-1.97-2.29-3.33-2.94-.31-.15-.68-.02-.83.29-.15.31-.02.68.29.83,2.37,1.14,3.9,3.57,3.9,6.2,0,1.12-.28,2.24-.8,3.22-.16.3-.05.68.26.85.09.05.19.07.29.07.22,0,.44-.12.55-.33.62-1.17.95-2.48.95-3.81,0-1.56-.44-3.08-1.28-4.38Z"/><path class="cls-1" d="m22.35,13.06h-.04c-.35,0-.62.28-.62.62s.28.62.62.62h.04s0,0,0,0c.34,0,.62-.28.62-.62,0-.35-.28-.63-.62-.63Z"/><path class="cls-1" d="m18.4,27.39c-2.37-1.14-3.9-3.57-3.9-6.2,0-1.12.28-2.24.8-3.22.16-.3.05-.68-.26-.85-.3-.16-.68-.05-.85.26-.62,1.17-.95,2.48-.95,3.81,0,1.56.44,3.08,1.28,4.38.82,1.27,1.97,2.29,3.33,2.94.09.04.18.06.27.06.23,0,.46-.13.56-.35.15-.31.02-.68-.29-.83Z"/><path class="cls-1" d="m20.44,28.06h-.04c-.35,0-.63.28-.63.62,0,.35.28.63.62.63h.04c.35,0,.62-.28.62-.62s-.28-.62-.62-.62Z"/><path class="cls-1" d="m24.21,10.95c-.08-.18-.17-.35-.28-.51h1.63c1.59,0,2.87-1.29,2.87-2.87s-1.29-2.87-2.87-2.87h-5c.32-.46.5-1.02.5-1.62,0-1.59-1.29-2.87-2.87-2.87H2.87C1.29.19,0,1.48,0,3.06s1.29,2.87,2.87,2.87h5c-.32.46-.5,1.02-.5,1.62s.19,1.16.5,1.62h-1.63c-1.59,0-2.87,1.29-2.87,2.87,0,.91.43,1.72,1.09,2.25-.66.53-1.09,1.34-1.09,2.25s.43,1.72,1.09,2.25c-.66.53-1.09,1.34-1.09,2.25s.43,1.72,1.09,2.25c-.66.53-1.09,1.34-1.09,2.25,0,1.59,1.29,2.87,2.87,2.87h7.37c1.94,2.08,4.7,3.38,7.76,3.38,5.86,0,10.62-4.77,10.62-10.62,0-4.88-3.3-8.99-7.79-10.24Zm1.35-5.01c.9,0,1.62.73,1.62,1.62s-.73,1.62-1.62,1.62h-15.31c-.9,0-1.62-.73-1.62-1.62s.73-1.62,1.62-1.62h15.31ZM2.87,4.69c-.9,0-1.62-.73-1.62-1.62s.73-1.62,1.62-1.62h15.31c.9,0,1.62.73,1.62,1.62s-.73,1.62-1.62,1.62H2.87Zm3.37,5.75h15.31c.25,0,.49.06.71.16-.3-.02-.59-.04-.9-.04-2.93,0-5.59,1.2-7.52,3.12h-7.61c-.9,0-1.62-.73-1.62-1.62s.73-1.62,1.62-1.62Zm0,4.5h6.54c-.71.97-1.26,2.07-1.61,3.25h-4.93c-.9,0-1.62-.73-1.62-1.62s.73-1.62,1.62-1.62Zm0,4.5h4.64c-.09.57-.14,1.15-.14,1.75,0,.51.04,1.01.11,1.5h-4.61c-.9,0-1.62-.73-1.62-1.62s.73-1.62,1.62-1.62Zm0,7.75c-.9,0-1.62-.73-1.62-1.62s.73-1.62,1.62-1.62h4.86c.32,1.18.83,2.27,1.5,3.25h-6.36Zm15.13,3.38c-5.17,0-9.37-4.21-9.37-9.37s4.21-9.37,9.37-9.37,9.37,4.21,9.37,9.37-4.21,9.37-9.37,9.37Z"/></svg>