<?xml version="1.0" encoding="UTF-8"?><svg id="Layer_1" xmlns="http://www.w3.org/2000/svg" viewBox="0 0 32 32"><defs><style>.cls-1{stroke-width:0px;}</style></defs><path class="cls-1" d="m1.97,20.43c.35,0,.63-.28.63-.63s-.28-.63-.63-.63-.63.28-.63.63h0c0,.35.28.63.63.63Z"/><path class="cls-1" d="m29.68,22.06l-3.62-1.95v-6.6c0-1.24-.88-2.25-1.96-2.25h-.57v-1.42c0-2.62-1.03-5.08-2.89-6.95-1.86-1.86-4.33-2.89-6.94-2.89s-5.08,1.03-6.94,2.89c-1.86,1.86-2.89,4.33-2.89,6.95v1.42h-.57c-1.08,0-1.96,1.01-1.96,2.25v3.49c0,.35.28.63.63.63s.63-.28.63-.63v-3.49c0-.53.33-.99.7-.99h20.81c.37,0,.7.46.7.99v6.6l-3.62,1.96c-.59.32-.96.57-.97,1.5-.01,1.48.41,3.07,1.22,4.58.05.1.1.19.16.28H3.3c-.37,0-.7-.46-.7-.99v-4.84c0-.35-.28-.63-.63-.63s-.63.28-.63.63v4.84c0,1.24.88,2.25,1.96,2.25h19.12c.65.86,1.37,1.54,2.16,2.01.34.2.6.3.86.3.26,0,.52-.1.86-.3,1.21-.72,2.26-1.92,3.13-3.55.81-1.51,1.24-3.1,1.22-4.58,0-.94-.37-1.18-.97-1.5h0Zm-10.41-10.8h-11.15v-1.42c0-3.08,2.5-5.58,5.57-5.58s5.58,2.5,5.58,5.58v1.42h0Zm3,0h-1.74v-1.42c0-1.82-.71-3.53-2.01-4.83-1.3-1.3-3.01-2.01-4.82-2.01s-3.53.71-4.82,2.01c-1.3,1.3-2.01,3.01-2.01,4.83v1.42h-1.74v-1.42C5.13,5.11,8.98,1.26,13.7,1.26s8.57,3.85,8.57,8.58v1.42Zm6.05,16.3c-.75,1.41-1.68,2.47-2.67,3.06-.12.07-.18.1-.22.12-.03-.01-.1-.04-.22-.12,0,0,0,0,0,0-.71-.42-1.36-1.06-1.96-1.9,0,0,0,0-.01-.01-.25-.35-.48-.73-.7-1.15-.71-1.33-1.08-2.7-1.07-3.98,0-.14.01-.21.02-.24.05-.04.18-.11.29-.17l3.66-1.97,3.64,1.96h.02c.11.07.24.14.29.18,0,.03.02.1.02.24.01,1.27-.36,2.65-1.07,3.98h0Z"/><path class="cls-1" d="m15.23,17.94h5.57c.35,0,.63-.28.63-.63s-.28-.63-.63-.63h-5.57c-.35,0-.63.28-.63.63s.28.63.63.63h0Z"/><path class="cls-1" d="m15.23,21.32h3.85c.35,0,.63-.28.63-.63s-.28-.63-.63-.63h-3.85c-.35,0-.63.28-.63.63s.28.63.63.63h0Z"/><path class="cls-1" d="m4.65,24.53c0,.89.72,1.61,1.61,1.61h5.97c.89,0,1.61-.72,1.61-1.61,0-1.17-.52-2.34-1.42-3.21-.34-.33-.73-.61-1.13-.82.71-.59,1.17-1.48,1.17-2.48,0-1.77-1.44-3.21-3.21-3.21s-3.21,1.44-3.21,3.21c0,1,.46,1.89,1.17,2.48-.41.22-.79.49-1.13.82-.9.87-1.42,2.05-1.42,3.21h0Zm4.59-8.47c1.08,0,1.95.88,1.95,1.95s-.88,1.95-1.95,1.95-1.95-.88-1.95-1.95.87-1.95,1.95-1.95Zm0,5.16c1.71,0,3.33,1.6,3.33,3.3,0,.19-.16.35-.35.35h-5.97c-.19,0-.35-.16-.35-.35,0-1.7,1.62-3.3,3.33-3.3h0Z"/><path class="cls-1" d="m26.79,24.34l-1.8,1.84-.62-.58c-.25-.24-.65-.22-.89.03-.24.25-.22.65.03.89l1.07,1.01c.12.11.28.17.43.17.16,0,.33-.06.45-.19l2.23-2.29c.24-.25.24-.65-.01-.89-.25-.24-.65-.24-.89.01h0Z"/></svg>