<?xml version="1.0" encoding="UTF-8"?><svg id="Layer_1" xmlns="http://www.w3.org/2000/svg" viewBox="0 0 32 32"><defs><style>.cls-1{stroke-width:0px;}</style></defs><path class="cls-1" d="m9.47,13.06c-.12-.12-.28-.18-.44-.18s-.33.07-.44.18c-.12.12-.18.28-.18.44s.07.33.18.44c.12.12.28.18.44.18s.33-.07.44-.18c.12-.12.18-.28.18-.44s-.07-.33-.18-.44Z"/><path class="cls-1" d="m30.12,0H5.25c-1.03,0-1.87.84-1.87,1.87v10.37c0,1.03.84,1.87,1.87,1.87h1.12c.35,0,.62-.28.62-.62s-.28-.62-.62-.62h-1.12c-.34,0-.62-.28-.62-.62V1.87c0-.34.28-.62.62-.62h24.87c.34,0,.62.28.62.62v10.37c0,.34-.28.62-.62.62h-4.18c-.17,0-.32.07-.44.18l-2.06,2.06-2.06-2.06c-.12-.12-.28-.18-.44-.18h-4.87c-.05-.12-.1-.23-.16-.35-.45-.87-1.21-1.5-2.14-1.79l-.9-.27c-.32-.1-.66.07-.77.39l-1.42,3.92c-.39,1.09-1.17,1.99-2.19,2.55l-1.33.73c-.33-.4-.82-.65-1.38-.65H1.78C.8,17.39,0,18.19,0,19.18v11.04c0,.98.8,1.78,1.78,1.78h3.99c.62,0,1.17-.32,1.49-.8l.64.25c.94.37,1.92.55,2.93.55h8.43c1.27,0,2.29-1.03,2.29-2.29,0-.42-.11-.81-.31-1.15.93-.29,1.61-1.16,1.61-2.19,0-.43-.12-.83-.32-1.18.89-.32,1.53-1.17,1.53-2.16s-.69-1.92-1.64-2.2c.19-.34.3-.72.3-1.14,0-1.27-1.03-2.29-2.29-2.29h-5.01l.7-2.08c.13-.39.19-.79.19-1.19h4.37l2.32,2.32c.12.12.28.18.44.18s.32-.06.44-.18l2.32-2.32h3.92c1.03,0,1.87-.84,1.87-1.87V1.87c0-1.03-.84-1.87-1.87-1.87ZM6.31,30.22c0,.29-.24.53-.53.53H1.78c-.29,0-.53-.24-.53-.53v-11.04c0-.29.24-.53.53-.53h1.37v7.7c0,.35.28.62.62.62s.62-.28.62-.62v-7.7h1.37c.23,0,.43.15.5.36,0,.03.01.06.02.09,0,.03,0,.06,0,.08v11.04Zm14.12-11.57h0c.58,0,1.04.47,1.04,1.04s-.47,1.04-1.04,1.04h-3.39c-.35,0-.62.28-.62.62s.28.62.62.62h4.73c.58,0,1.04.47,1.04,1.04s-.47,1.04-1.04,1.04h-4.73c-.35,0-.62.28-.62.62s.28.62.62.62h3.52c.58,0,1.04.47,1.04,1.04s-.47,1.04-1.04,1.04h-3.52c-.35,0-.62.28-.62.62s.28.62.62.62h2.23c.58,0,1.04.47,1.04,1.04s-.47,1.04-1.04,1.04h-8.43c-.85,0-1.68-.16-2.47-.47l-.8-.31v-10.72l1.52-.83c1.29-.7,2.27-1.84,2.76-3.22l1.22-3.37.34.1c.61.19,1.11.6,1.4,1.17s.34,1.21.14,1.81l-.98,2.91c-.06.19-.03.4.08.56.12.16.31.26.51.26h5.88Z"/><path class="cls-1" d="m29.14,6.06c-.12-.36-.43-.62-.81-.68l-1.11-.16-.49-1c-.17-.34-.51-.56-.9-.56h0c-.38,0-.73.21-.9.56l-.49,1-1.11.16c-.38.06-.69.32-.81.68-.12.36-.02.76.25,1.02l.8.78-.19,1.1c-.06.38.09.75.4.98.17.13.38.19.59.19.16,0,.32-.04.47-.12l.99-.52.99.52c.34.18.74.15,1.05-.08.31-.23.46-.6.4-.98l-.19-1.1.8-.78c.27-.27.37-.66.25-1.02Zm-2.02,1c-.24.23-.34.56-.29.88l.13.73-.65-.34c-.29-.15-.64-.15-.93,0l-.65.34.12-.73c.06-.32-.05-.65-.29-.88l-.53-.52.73-.11c.33-.05.61-.25.75-.55l.33-.66.33.66c.15.29.43.5.75.55l.73.11-.53.52Z"/><path class="cls-1" d="m21.19,6.06c-.12-.36-.43-.62-.81-.68l-1.11-.16-.49-1c-.17-.34-.51-.56-.9-.56h0c-.38,0-.73.21-.9.56l-.49,1-1.11.16c-.38.06-.69.32-.81.68-.12.36-.02.76.25,1.02l.8.78-.19,1.1c-.06.38.09.75.4.98.17.13.38.19.59.19.16,0,.32-.04.47-.12l.99-.52.99.52c.34.18.74.15,1.05-.08.31-.23.46-.6.4-.98l-.19-1.1.8-.78c.27-.27.37-.66.25-1.02Zm-2.02,1c-.24.23-.34.56-.29.88l.13.73-.65-.34c-.29-.15-.64-.15-.93,0l-.65.34.12-.73c.06-.32-.05-.65-.29-.88l-.53-.52.73-.11c.33-.05.61-.25.75-.55l.33-.66.33.66c.15.29.43.5.75.55l.73.11-.53.52Z"/><path class="cls-1" d="m13.24,6.06c-.12-.36-.43-.62-.81-.68l-1.11-.16-.49-1c-.17-.34-.51-.56-.9-.56h0c-.38,0-.73.21-.9.56l-.49,1-1.11.16c-.38.06-.69.32-.81.68-.12.36-.02.76.25,1.02l.8.78-.19,1.1c-.06.38.09.75.4.98.17.13.38.19.59.19.16,0,.32-.04.47-.12l.99-.52.99.52c.34.18.74.15,1.05-.08.31-.23.46-.6.4-.98l-.19-1.1.8-.78c.27-.27.37-.66.25-1.02Zm-2.02,1c-.24.23-.34.56-.29.88l.13.73-.65-.34c-.29-.15-.64-.15-.93,0l-.65.34.12-.73c.06-.32-.05-.65-.29-.88l-.53-.52.73-.11c.33-.05.61-.25.75-.55l.33-.66.33.66c.15.29.43.5.75.55l.73.11-.53.52Z"/><path class="cls-1" d="m3.78,27.96c-.35,0-.62.28-.62.62h0c0,.35.28.63.62.63s.62-.28.62-.62h0c0-.35-.28-.63-.62-.63Z"/></svg>