<?xml version="1.0" encoding="UTF-8"?><svg id="Layer_1" xmlns="http://www.w3.org/2000/svg" viewBox="0 0 32 32"><defs><style>.cls-1{stroke-width:0px;}</style></defs><path class="cls-1" d="m12.58,13.37h-7.24c-.52,0-.94.42-.94.94s.42.94.94.94h7.24c.52,0,.94-.42.94-.94s-.42-.94-.94-.94Z"/><path class="cls-1" d="m12.58,9.62h-7.24c-.52,0-.94.42-.94.94s.42.94.94.94h7.24c.52,0,.94-.42.94-.94s-.42-.94-.94-.94Z"/><path class="cls-1" d="m5.34,7.74h13.98c.52,0,.94-.42.94-.94s-.42-.94-.94-.94H5.34c-.52,0-.94.42-.94.94s.42.94.94.94Z"/><path class="cls-1" d="m12.58,17.09h-7.24c-.52,0-.94.42-.94.94s.42.94.94.94h7.24c.52,0,.94-.42.94-.94s-.42-.94-.94-.94Z"/><path class="cls-1" d="m12.58,20.22h-7.24c-.52,0-.94.42-.94.94s.42.94.94.94h7.24c.52,0,.94-.42.94-.94s-.42-.94-.94-.94Z"/><path class="cls-1" d="m12.58,23.97h-7.24c-.52,0-.94.42-.94.94s.42.94.94.94h7.24c.52,0,.94-.42.94-.94s-.42-.94-.94-.94Z"/><path class="cls-1" d="m31.97,16.48c0-.52-.42-.93-.94-.93,0,0-.02,0-.03,0-1.15,0-2.2-.66-2.69-1.68-.16-.33-.48-.53-.85-.53h0l-2.73.02V1.56C24.73.7,24.02,0,23.16,0H1.56C.7,0,0,.7,0,1.56v28.87c0,.86.7,1.56,1.56,1.56h22.28s.09,0,.09,0c.13-.01.26-.06.38-.13l2.13-1.26c1.7-1.01,3.12-2.44,4.09-4.15.97-1.71,1.48-3.65,1.47-5.62l-.03-4.36ZM1.87,1.88h20.98v11.5l-2.9.02c-.36,0-.69.22-.85.55-.47,1.04-1.53,1.71-2.68,1.72-.25,0-.49.1-.66.28-.17.18-.27.42-.27.67l.03,4.36c.01,1.96.55,3.9,1.55,5.59.83,1.41,1.97,2.63,3.33,3.57H1.87s0-28.25,0-28.25Zm23.61,27.12l-1.66.98-1.67-.96c-2.91-1.66-4.73-4.76-4.76-8.07l-.03-3.51c1.3-.27,2.44-1.05,3.14-2.17l6.4-.05c.72,1.11,1.88,1.88,3.18,2.13l.03,3.51c.03,3.31-1.75,6.43-4.63,8.14h0Z"/><path class="cls-1" d="m25.83,19.92l-2.66,2.83-.93-1.14c-.33-.4-.92-.46-1.32-.14-.4.33-.46.92-.14,1.32l1.61,1.98c.17.21.42.34.69.34.01,0,.02,0,.03,0,.26,0,.51-.11.68-.3l3.39-3.61c.35-.38.34-.97-.04-1.33-.38-.35-.97-.34-1.33.04Z"/></svg>