<?xml version="1.0" encoding="UTF-8"?><svg id="Layer_1" xmlns="http://www.w3.org/2000/svg" viewBox="0 0 32 32"><defs><style>.cls-1{stroke-width:0px;}</style></defs><path class="cls-1" d="m13.19,11.25h1.88v1.88h-1.88v-1.88Z"/><path class="cls-1" d="m16.94,11.25h1.88v1.88h-1.88v-1.88Z"/><path class="cls-1" d="m1.94,5.62h1.88v5.62h5.69c-.09.61-.09,1.25,0,1.88H3.81v15.12h9.8l2.39,3.75,2.39-3.75h9.8v-15.12h-5.7c.1-.61.1-1.25,0-1.88h5.69v-5.62h1.88V0h-5.62v5.62h1.88v3.75h-4.38c-.93-1.95-2.78-3.37-4.99-3.68V0h-1.88v5.69c-2.21.32-4.06,1.74-4.99,3.68h-4.38v-3.75h1.88V0H1.94v5.62ZM26.31,1.88h1.88v1.88h-1.88v-1.88Zm-10.31,5.62c2.58,0,4.69,2.1,4.69,4.69,0,2.04-1.56,2.97-1.88,3.33v3.23h-1.88v-3.75h-1.88v3.75h-1.88v-3.17c-.26-.3-1.88-1.3-1.88-3.4,0-2.58,2.1-4.69,4.69-4.69Zm-4.69,8.91v4.22h9.38v-4.28c.4-.39.79-.83,1.11-1.35h4.52v11.38h-8.95l-1.36,2.14-1.36-2.14H5.69v-11.38h4.49c.33.56.73,1.02,1.13,1.41ZM3.81,1.88h1.88v1.88h-1.88v-1.88Z"/></svg>