<?xml version="1.0" encoding="UTF-8"?><svg id="Layer_1" xmlns="http://www.w3.org/2000/svg" viewBox="0 0 32 32"><defs><style>.cls-1{stroke-width:0px;}</style></defs><path class="cls-1" d="m32,6.69c0-.24-.1-.48-.27-.65L25.96.28c-.17-.17-.42-.27-.66-.28H7.16c-.52,0-.94.42-.94.94v5.12c-2.51,2.44-3.08,6.15-1.7,9.17l-3.7,3.71c-1.09,1.1-1.09,2.88,0,3.98.53.53,1.24.82,1.99.82s1.46-.29,1.99-.82l1.43-1.43v9.59c0,.52.42.94.94.94h23.9c.52,0,.94-.42.94-.94V6.71s0,0,0-.01Zm-5.76-3.49l2.56,2.57h-2.56v-2.57ZM7.48,7.45c2.31-2.41,6.47-2.41,8.78,0,2.42,2.42,2.42,6.37,0,8.79-2.31,2.41-6.48,2.41-8.78,0-2.42-2.42-2.42-6.37,0-8.79h0Zm-4.01,14.14c-.35.36-.97.36-1.32,0-.37-.37-.37-.96,0-1.33l3.38-3.39c.19.24.4.48.62.7.22.22.46.43.7.63l-3.39,3.39Zm4.63,8.54v-10.53l.4-.4c1.04.48,2.19.74,3.37.74,2.16,0,4.19-.84,5.72-2.37.43-.43.79-.89,1.1-1.38h8.63c.52,0,.94-.42.94-.94s-.42-.94-.94-.94h-7.75c.89-2.79.23-5.98-1.98-8.19-1.53-1.53-3.56-2.37-5.72-2.37-1.34,0-2.62.32-3.77.93V1.88h16.26v4.83c0,.52.42.94.94.94h4.82v22.48H8.1Z"/><path class="cls-1" d="m27.32,10.56h-4.46c-.52,0-.94.42-.94.94s.42.94.94.94h4.46c.52,0,.94-.42.94-.94s-.42-.94-.94-.94Z"/><path class="cls-1" d="m27.32,18.06h-6.33c-.52,0-.94.42-.94.94s.42.94.94.94h6.33c.52,0,.94-.42.94-.94s-.42-.94-.94-.94h0Z"/><path class="cls-1" d="m27.32,25.63H10.91c-.52,0-.94.42-.94.94s.42.94.94.94h16.41c.52,0,.94-.42.94-.94s-.42-.94-.94-.94Z"/><path class="cls-1" d="m27.32,21.88h-6.33c-.52,0-.94.42-.94.94s.42.94.94.94h6.33c.52,0,.94-.42.94-.94s-.42-.94-.94-.94h0Z"/><path class="cls-1" d="m10.91,23.75h6.33c.52,0,.94-.42.94-.94s-.42-.94-.94-.94h-6.33c-.52,0-.94.42-.94.94s.42.94.94.94h0Z"/><path class="cls-1" d="m10.51,14.01c.18.18.42.27.66.27s.48-.09.66-.27l3.01-3.01c.37-.37.37-.96,0-1.33-.37-.37-.96-.37-1.33,0l-2.35,2.35-.96-.96c-.37-.37-.96-.37-1.33,0s-.37.96,0,1.33l1.62,1.62Z"/></svg>