<?xml version="1.0" encoding="UTF-8"?><svg id="Layer_1" xmlns="http://www.w3.org/2000/svg" viewBox="0 0 32 32"><defs><style>.cls-1{stroke-width:0px;}</style></defs><path class="cls-1" d="m16,12.44c-1.96,0-3.56,1.6-3.56,3.56s1.6,3.56,3.56,3.56,3.56-1.6,3.56-3.56-1.6-3.56-3.56-3.56Zm0,5.25c-.93,0-1.69-.76-1.69-1.69s.76-1.69,1.69-1.69,1.69.76,1.69,1.69-.76,1.69-1.69,1.69Z"/><path class="cls-1" d="m1.87,16C1.87,8.21,8.21,1.87,16,1.87c3.12,0,6.08,1.01,8.53,2.86l-1.69.27c-.51.08-.86.56-.78,1.07.07.46.47.79.92.79.05,0,.1,0,.15-.01l3.67-.58c.51-.08.86-.56.78-1.07l-.58-3.67c-.08-.51-.56-.86-1.07-.78-.51.08-.86.56-.78,1.07l.19,1.17c-2.7-1.95-5.93-3-9.33-3C11.73,0,7.71,1.66,4.69,4.69,1.66,7.71,0,11.73,0,16,0,18.71.69,21.39,2,23.75c.17.31.49.48.82.48.15,0,.31-.04.45-.12.45-.25.62-.82.36-1.27-1.15-2.08-1.76-4.45-1.76-6.84h0Z"/><path class="cls-1" d="m29.96,8.18c-.25-.45-.82-.61-1.28-.36-.45.25-.61.82-.36,1.28,1.18,2.1,1.8,4.48,1.8,6.9,0,7.79-6.34,14.13-14.13,14.13-3.12,0-6.08-1.01-8.53-2.86l1.69-.27c.51-.08.86-.56.78-1.07-.08-.51-.56-.86-1.07-.78l-3.67.58c-.51.08-.86.56-.78,1.07l.58,3.67c.07.46.47.79.92.79.05,0,.1,0,.15-.01.51-.08.86-.56.78-1.07l-.19-1.17c2.7,1.95,5.93,3,9.33,3,4.27,0,8.29-1.66,11.31-4.69s4.69-7.04,4.69-11.31c0-2.74-.7-5.44-2.04-7.82h0Z"/><path class="cls-1" d="m25.32,18.58c.52,0,.94-.42.94-.94v-3.29c0-.52-.42-.94-.94-.94h-1.45c-.13-.4-.29-.78-.48-1.15l1.02-1.02c.37-.37.37-.96,0-1.33l-2.33-2.33c-.37-.37-.96-.37-1.33,0l-1.02,1.02c-.37-.19-.76-.35-1.15-.48v-1.45c0-.52-.42-.94-.94-.94h-3.29c-.52,0-.94.42-.94.94v1.45c-.4.13-.78.29-1.15.48l-1.02-1.02c-.37-.37-.96-.37-1.33,0l-2.33,2.33c-.37.37-.37.96,0,1.33l1.02,1.02c-.19.37-.35.76-.48,1.15h-1.45c-.52,0-.94.42-.94.94v3.29c0,.52.42.94.94.94h1.45c.13.4.29.78.48,1.15l-1.02,1.02c-.37.37-.37.96,0,1.33l2.33,2.33c.37.37.96.37,1.33,0l1.02-1.02c.37.19.76.35,1.15.48v1.45c0,.52.42.94.94.94h3.29c.52,0,.94-.42.94-.94v-1.45c.4-.13.78-.29,1.15-.48l1.02,1.02c.37.37.96.37,1.33,0l2.33-2.33c.37-.37.37-.96,0-1.33l-1.02-1.02c.19-.37.35-.76.48-1.15h1.45Zm-2.16-1.88c-.44,0-.82.3-.91.73-.16.69-.43,1.35-.81,1.96-.23.37-.18.85.13,1.16l.86.86-1,1-.86-.86c-.31-.31-.79-.36-1.16-.13-.6.38-1.26.65-1.96.81-.43.1-.73.48-.73.91v1.22h-1.42v-1.22c0-.44-.3-.82-.73-.91-.7-.16-1.36-.43-1.96-.81-.37-.23-.85-.18-1.16.13l-.86.86-1-1,.86-.86c.31-.31.36-.79.13-1.16-.38-.61-.65-1.27-.81-1.96-.1-.43-.48-.73-.91-.73h-1.22v-1.42h1.22c.44,0,.82-.3.91-.73.16-.69.43-1.35.81-1.96.23-.37.18-.85-.13-1.16l-.86-.86,1-1,.86.86c.31.31.79.36,1.16.13.61-.38,1.27-.65,1.96-.81.43-.1.73-.48.73-.91v-1.22h1.42v1.22c0,.44.3.82.73.91.69.16,1.35.43,1.96.81.37.23.85.18,1.16-.13l.86-.86,1,1-.86.86c-.31.31-.36.79-.13,1.16.38.61.65,1.27.81,1.96.1.43.48.73.91.73h1.22v1.42h-1.22Z"/></svg>