<?xml version="1.0" encoding="UTF-8"?><svg id="Layer_1" xmlns="http://www.w3.org/2000/svg" viewBox="0 0 32 32"><defs><style>.cls-1{stroke-width:0px;}</style></defs><path class="cls-1" d="m31.37,18.8c-.7-.67-1.78-.75-2.58-.2,0,0-.02.01-.02.02l-6.53,4.91c-.27.21-.61.31-.95.29l-6.4-.37s-.04-.01-.05-.03c-.02-.03-.03-.06-.03-.09,0-.07.11-.1.18-.1h0l5.58.04c1.99.15,2.31-.99,2.36-1.35.16-1.12-.95-2.39-2.33-2.67-.01,0-.03,0-.04,0l-8.35-1.17c-.47-.07-.95-.02-1.39.14l-4.41,1.57-.15-.85c-.07-.41-.46-.68-.86-.61,0,0,0,0,0,0l-4.77.81c-.41.07-.68.46-.61.87l1.9,11.13c.07.41.46.68.86.61,0,0,0,0,0,0l4.77-.81c.41-.07.68-.46.61-.87l-.15-.88,1.56-.57,12.09,1.07c.09,0,.19.01.28.01.76,0,1.48-.29,2.02-.83l7.61-7.37s.08-.09.11-.14c.51-.82.38-1.89-.32-2.57h0ZM3.27,30.14l-1.65-9.65,3.29-.56,1.65,9.65-3.29.56Zm27.19-9.63l-7.53,7.29c-.29.3-.71.45-1.13.4l-12.26-1.08c-.11,0-.22,0-.32.04l-1.46.53-1.09-6.4,4.66-1.66c.22-.08.45-.11.68-.07l8.32,1.17c.7.15,1.12.76,1.12.96-.07.04-.3.12-.78.08-.02,0-.04,0-.06,0l-5.61-.04h-.01c-.88,0-1.6.63-1.67,1.48-.04.44.11.87.39,1.2.28.32.67.52,1.1.54l6.4.37c.69.05,1.38-.16,1.94-.59l6.52-4.9c.25-.17.59-.1.75.15.1.16.12.36.04.53h0ZM24.29,3.25c.41,1.17,1.7,1.78,2.87,1.37,1.17-.41,1.78-1.7,1.37-2.87-.41-1.17-1.7-1.78-2.87-1.37-.64.23-1.14.73-1.37,1.37h-2.38c-.41,0-.75.34-.75.75v6.5h-.95c-.41-2.9-3.1-4.92-6-4.5s-4.92,3.1-4.5,6c.41,2.9,3.1,4.92,6,4.5,2.34-.33,4.17-2.17,4.5-4.5h.95v6.5c0,.41.34.75.75.75h2.38c.41,1.17,1.7,1.78,2.87,1.37,1.17-.41,1.78-1.7,1.37-2.87-.41-1.17-1.7-1.78-2.87-1.37-.64.23-1.14.73-1.37,1.37h-1.63v-5.75h1.63c.41,1.17,1.7,1.78,2.87,1.37,1.17-.41,1.78-1.7,1.37-2.87-.41-1.17-1.7-1.78-2.87-1.37-.64.23-1.14.73-1.37,1.37h-1.63V3.25h1.63Zm2.12-1.5c.41,0,.75.34.75.75,0,.41-.34.75-.75.75-.41,0-.75-.34-.75-.75h0c0-.41.34-.75.75-.75Zm-13.21,11.37c0-.06,0-.11,0-.17,0-.98.78-1.78,1.76-1.78s1.78.78,1.78,1.76c0,0,0,.01,0,.02,0,.06,0,.11,0,.17-1.1.58-2.42.58-3.53,0h0Zm1.76-3.9c-.22,0-.39-.18-.39-.39,0-.22.18-.39.39-.39.22,0,.39.18.39.39,0,.22-.18.39-.39.39Zm3.11,2.72c-.27-.83-.87-1.52-1.65-1.91.67-.81.55-2-.26-2.67-.81-.67-2-.55-2.67.26-.58.7-.58,1.71,0,2.41-.78.39-1.37,1.08-1.65,1.91-1.21-1.72-.8-4.09.91-5.3s4.09-.8,5.3.91c.93,1.32.93,3.07,0,4.39h0Zm8.34,4.31c.41,0,.75.34.75.75,0,.41-.34.75-.75.75-.41,0-.75-.34-.75-.75h0c0-.41.34-.75.75-.75h0Zm0-7.25c.41,0,.75.34.75.75,0,.41-.34.75-.75.75-.41,0-.75-.34-.75-.75h0c0-.41.34-.75.75-.75h0Z"/></svg>