<?xml version="1.0" encoding="UTF-8"?><svg id="Layer_1" xmlns="http://www.w3.org/2000/svg" viewBox="0 0 32 32"><defs><style>.cls-1{stroke-width:0px;}</style></defs><path class="cls-1" d="m29.13,25.52c.58-.7.93-1.6.93-2.58,0-2.24-1.82-4.06-4.06-4.06s-4.06,1.82-4.06,4.06c0,.98.35,1.88.93,2.58-.74.33-1.39.84-1.87,1.48-.48-.64-1.12-1.16-1.87-1.48.58-.7.93-1.6.93-2.58,0-2.24-1.82-4.06-4.06-4.06s-4.06,1.82-4.06,4.06c0,.98.35,1.88.93,2.58-.74.33-1.39.84-1.87,1.48-.48-.64-1.12-1.16-1.87-1.48.58-.7.93-1.6.93-2.58,0-2.24-1.82-4.06-4.06-4.06s-4.06,1.82-4.06,4.06c0,.98.35,1.88.93,2.58-1.65.73-2.8,2.38-2.8,4.29v1.25c0,.52.42.94.94.94h30c.52,0,.94-.42.94-.94v-1.25c0-1.92-1.16-3.56-2.8-4.29Zm-3.13-4.77c1.21,0,2.19.98,2.19,2.19s-.98,2.19-2.19,2.19-2.19-.98-2.19-2.19.98-2.19,2.19-2.19Zm-10,0c1.21,0,2.19.98,2.19,2.19s-.98,2.19-2.19,2.19-2.19-.98-2.19-2.19.98-2.19,2.19-2.19Zm-10,0c1.21,0,2.19.98,2.19,2.19s-.98,2.19-2.19,2.19-2.19-.98-2.19-2.19.98-2.19,2.19-2.19ZM1.94,29.81c0-1.55,1.26-2.81,2.81-2.81h2.5c1.55,0,2.81,1.26,2.81,2.81v.31H1.94v-.31Zm10,0c0-1.55,1.26-2.81,2.81-2.81h2.5c1.55,0,2.81,1.26,2.81,2.81v.31h-8.12v-.31Zm18.12.31h-8.12v-.31c0-1.55,1.26-2.81,2.81-2.81h2.5c1.55,0,2.81,1.26,2.81,2.81v.31Z"/><path class="cls-1" d="m11,16.88h10c1.9,0,3.44-1.54,3.44-3.44V3.44c0-1.9-1.54-3.44-3.44-3.44h-10c-1.9,0-3.44,1.54-3.44,3.44v10c0,1.9,1.54,3.44,3.44,3.44Zm0-15h4.06v.31c0,.52.42.94.94.94s.94-.42.94-.94v-.31h4.06c.86,0,1.56.7,1.56,1.56v4.06h-.31c-.52,0-.94.42-.94.94s.42.94.94.94h.31v4.06c0,.86-.7,1.56-1.56,1.56h-4.06v-.31c0-.52-.42-.94-.94-.94s-.94.42-.94.94v.31h-4.06c-.86,0-1.56-.7-1.56-1.56v-4.06h.31c.52,0,.94-.42.94-.94s-.42-.94-.94-.94h-.31V3.44c0-.86.7-1.56,1.56-1.56Z"/><path class="cls-1" d="m16,9.38h2.5c.52,0,.94-.42.94-.94s-.42-.94-.94-.94h-1.56v-1.56c0-.52-.42-.94-.94-.94s-.94.42-.94.94v2.5c0,.52.42.94.94.94Z"/></svg>