<?xml version="1.0" encoding="UTF-8"?><svg id="Layer_1" xmlns="http://www.w3.org/2000/svg" viewBox="0 0 32 32"><defs><style>.cls-1{stroke-width:0px;}</style></defs><path class="cls-1" d="m31.06,11.44c.52,0,.94-.42.94-.94v-2.14c0-1.45-.74-2.72-1.87-3.47.33-.46.52-1.02.52-1.63v-.46c-.09-3.39-4.83-3.84-5.57-.56H6.91C6.17-1.04,1.43-.59,1.34,2.8v.46c0,.61.19,1.17.52,1.63C.74,5.64,0,6.91,0,8.36v2.14C0,11.02.42,11.44.94,11.44h2.28v9.14s0,.08,0,.13c-1.1.38-1.88,1.43-1.88,2.65v.46c0,.61.19,1.17.52,1.63-1.12.74-1.87,2.02-1.87,3.47v2.14c0,.52.42.94.94.94h6.44c.52,0,.94-.42.94-.94v-1.31h15.37v1.31c0,.52.42.94.94.94h6.44c.52,0,.94-.42.94-.94v-2.14c0-1.45-.74-2.72-1.87-3.47.33-.46.52-1.02.52-1.63v-.46c0-1.22-.78-2.26-1.87-2.65v-9.27h2.28Zm-.94-1.87h-4.56v-1.2c0-.92.55-1.72,1.34-2.08v.62c.05,1.24,1.83,1.24,1.87,0v-.62c.79.36,1.34,1.16,1.34,2.08v1.2Zm-3.22-6.76c0-.52.42-.94.94-.94s.94.42.94.94v.46c-.05,1.24-1.83,1.24-1.87,0v-.46ZM3.22,2.8c.05-1.24,1.83-1.24,1.87,0v.46c-.05,1.24-1.83,1.24-1.87,0v-.46Zm-1.34,5.55c0-.92.55-1.72,1.34-2.08v.62c.05,1.24,1.83,1.24,1.87,0v-.62c.79.36,1.34,1.16,1.34,2.08v1.2H1.88v-1.2Zm1.34,15c.05-1.24,1.83-1.24,1.87,0v.46c-.05,1.24-1.83,1.24-1.87,0v-.46Zm3.22,6.76H1.88v-1.2c0-.92.55-1.72,1.34-2.08v.62c.05,1.24,1.83,1.24,1.87,0v-.62c.79.36,1.34,1.16,1.34,2.08v1.2Zm23.69,0h-4.56v-1.2c0-.92.55-1.72,1.34-2.08v.62c.05,1.24,1.83,1.24,1.87,0v-.62c.79.36,1.34,1.16,1.34,2.08v1.2Zm-1.34-6.3c-.05,1.24-1.83,1.24-1.87,0v-.46c0-.52.42-.94.94-.94s.94.42.94.94v.46Zm-1.87-3.11c-1.09.39-1.87,1.43-1.87,2.65v.46c0,.61.19,1.17.52,1.63-.84.56-1.47,1.42-1.73,2.42h-15.64c-.26-1-.89-1.86-1.73-2.42.33-.46.52-1.02.52-1.63v-.46c0-1.23-.79-2.27-1.88-2.65,0-.04,0-.08,0-.13v-9.14h2.28c.52,0,.94-.42.94-.94v-2.14c0-1.45-.74-2.72-1.87-3.47.17-.23.3-.49.39-.77h18.33c.09.28.22.54.39.77-1.12.74-1.87,2.02-1.87,3.47v2.14c0,.52.42.94.94.94h2.28v9.27Z"/><path class="cls-1" d="m21.63,13.24h-.99s0-.08,0-.11c-.06-2.06-1.68-3.94-3.7-4.32v-1.19c-.05-1.24-1.83-1.24-1.87,0v1.19c-2.02.39-3.63,2.26-3.7,4.32,0,.04,0,.08,0,.11h-.99c-.52,0-.94.42-.94.94v8.75c0,.52.42.94.94.94h11.25c.52,0,.94-.42.94-.94v-8.75c0-.52-.42-.94-.94-.94h0Zm-8.39-.02c.27-3.49,5.26-3.49,5.53,0,0,0,0,.02,0,.02h-5.53s0-.02,0-.02Zm7.45,8.77h-1.87v-3.94c-.05-1.24-1.83-1.24-1.87,0v3.94h-1.87v-3.94c-.05-1.24-1.83-1.24-1.87,0v3.94h-1.87v-6.87h9.37v6.87Z"/></svg>