<?xml version="1.0" encoding="UTF-8"?><svg id="Layer_1" xmlns="http://www.w3.org/2000/svg" viewBox="0 0 32 32"><defs><style>.cls-1{stroke-width:0px;}</style></defs><path class="cls-1" d="m25.66,19.05c.57-1.35.84-2.78.81-4.26-.12-5.65-4.81-10.25-10.47-10.25h-.12c-2.77.03-5.37,1.14-7.32,3.11-1.95,1.97-3.03,4.59-3.03,7.36s1.13,5.54,3.2,7.53c1.13,1.1,1.92,2.49,2.27,4v.45c0,2.76,2.25,5.01,5.01,5.01s5.01-2.25,5.01-5.01v-.43c.35-1.53,1.15-2.93,2.31-4.06,1.01-.99,1.8-2.15,2.35-3.45Zm-9.66-1.59c-1.62,0-2.94-1.32-2.94-2.94s1.32-2.94,2.94-2.94,2.94,1.32,2.94,2.94-1.32,2.94-2.94,2.94Zm-2.38,1.46c1.46.79,3.3.79,4.76,0,1.07.36,2.06.98,2.86,1.78.16.16.31.33.46.51-1.17,1.2-2.04,2.65-2.52,4.21h-6.36c-.48-1.58-1.35-3.03-2.52-4.21.88-1.06,2.03-1.84,3.32-2.28Zm7.38-4.4c0-2.76-2.25-5.01-5.01-5.01s-5.01,2.25-5.01,5.01c0,1.04.31,2.03.91,2.88-1.13.54-2.12,1.28-2.95,2.21-.89-1.36-1.36-2.95-1.36-4.6,0-4.58,3.73-8.36,8.31-8.41h.1c4.55,0,8.32,3.67,8.41,8.23.03,1.72-.43,3.36-1.36,4.77-.11-.13-.23-.25-.35-.36-.76-.76-1.64-1.38-2.61-1.85.6-.85.91-1.84.91-2.88Zm-2.1,12.96c-.23,1.42-1.46,2.47-2.91,2.47s-2.68-1.05-2.91-2.47h5.81Z"/><path class="cls-1" d="m16,3.12c.57,0,1.03-.46,1.03-1.03v-1.06c0-.57-.46-1.03-1.03-1.03s-1.03.46-1.03,1.03v1.06c0,.57.46,1.03,1.03,1.03Z"/><path class="cls-1" d="m25.14,6.9c.28,0,.53-.11.73-.3l.7-.7c.4-.4.4-1.06,0-1.46-.4-.4-1.06-.4-1.46,0l-.7.7c-.4.4-.4,1.06,0,1.46.19.2.45.3.73.3Z"/><path class="cls-1" d="m29.91,13.98h-.99c-.57,0-1.03.46-1.03,1.03s.46,1.03,1.03,1.03h.99c.57,0,1.03-.46,1.03-1.03s-.46-1.03-1.03-1.03Z"/><path class="cls-1" d="m25.86,23.41c-.19-.2-.45-.3-.73-.3s-.53.11-.73.3-.3.45-.3.73c0,.28.11.54.3.73l.7.7c.19.2.45.3.73.3s.53-.11.73-.3c.2-.19.3-.45.3-.73,0-.27-.11-.53-.3-.73l-.7-.7Z"/><path class="cls-1" d="m6.86,23.11c-.28,0-.53.11-.73.3l-.7.7c-.2.2-.3.45-.3.73,0,.28.11.54.3.73.19.2.45.3.73.3s.53-.11.73-.3l.7-.7c.2-.19.3-.45.3-.73s-.11-.53-.3-.73c-.19-.2-.45-.3-.73-.3Z"/><path class="cls-1" d="m3.08,13.98h-.99c-.57,0-1.03.46-1.03,1.03s.46,1.03,1.03,1.03h.99c.57,0,1.03-.46,1.03-1.03s-.46-1.03-1.03-1.03Z"/><path class="cls-1" d="m6.14,6.6c.19.2.45.3.73.3s.53-.11.73-.3c.4-.4.4-1.06,0-1.46l-.7-.7c-.4-.4-1.06-.4-1.46,0-.2.19-.3.45-.3.73s.11.53.3.73l.7.7Z"/></svg>