<?xml version="1.0" encoding="UTF-8"?><svg id="Layer_1" xmlns="http://www.w3.org/2000/svg" viewBox="0 0 32 32"><defs><style>.cls-1{stroke-width:0px;}</style></defs><path class="cls-1" d="m15.41,0H1.09C.49,0,0,.5,0,1.1v9.79c0,.6.49,1.09,1.09,1.09h4.68l-.85,2.09c-.08.19-.06.41.06.59s.31.28.52.28h5.49c.21,0,.4-.1.52-.28s.14-.39.06-.59l-.85-2.09h4.68c.6,0,1.09-.49,1.09-1.09V1.1c0-.6-.49-1.09-1.09-1.09h0Zm-.16,1.25v6.53H1.25V1.26h14Zm-5.18,12.43h-3.63l.69-1.7h2.25l.69,1.7ZM1.25,10.73v-1.69h14v1.69H1.25Z"/><circle class="cls-1" cx="29.17" cy="28.82" r=".63"/><circle class="cls-1" cx="29.19" cy="18.6" r=".63"/><path class="cls-1" d="m32,16.98c0-.86-.7-1.57-1.57-1.57h-8.46c-.86,0-1.57.7-1.57,1.57v3.23c0,.35.12.68.31.94-.2.26-.31.59-.31.94v3.23c0,.35.12.68.31.94-.2.26-.31.59-.31.94v3.23c0,.86.7,1.57,1.57,1.57h8.46c.86,0,1.57-.7,1.57-1.57v-3.23c0-.35-.12-.68-.31-.94.2-.26.31-.59.31-.94v-3.23c0-.35-.12-.68-.31-.94.2-.26.31-.59.31-.94v-3.23Zm-10.34,0c0-.17.14-.31.31-.31h8.46c.17,0,.31.14.31.31v3.23c0,.17-.14.31-.31.31h-8.46c-.17,0-.31-.14-.31-.31v-3.23Zm9.09,5.11v.99h-3.62c-.35,0-.63.28-.63.63s.28.63.63.63h3.62v.99c0,.17-.14.31-.31.31h-8.46c-.17,0-.31-.14-.31-.31v-3.23c0-.17.14-.31.31-.31h8.46c.17,0,.31.14.31.31Zm0,8.34c0,.17-.14.31-.31.31h-8.46c-.17,0-.31-.14-.31-.31v-3.23c0-.17.14-.31.31-.31h8.46c.17,0,.31.14.31.31v3.23Z"/><path class="cls-1" d="m15.93,28.21c-.92-.24-3.19-1.04-4.35-3.24-.38-.73-.62-1.54-.69-2.39h1.27c.24,0,.46-.14.57-.36.1-.22.07-.48-.09-.67l-3.73-4.47c-.12-.14-.3-.23-.48-.23h0c-.19,0-.36.08-.48.22l-3.73,4.47c-.16.19-.19.45-.09.67s.32.36.57.36h1.34c.36,2.24,1.4,3.96,3.07,5.13,1.65,1.15,3.89,1.73,6.65,1.73.31,0,.58-.23.62-.55.04-.31-.16-.61-.46-.69h0Zm-6.1-1.53c-1.5-1.05-2.39-2.66-2.62-4.8-.03-.32-.3-.56-.62-.56h-.55l2.39-2.86,2.39,2.86h-.58c-.34,0-.62.28-.63.62-.01,1.27.28,2.52.86,3.61.5.95,1.17,1.69,1.87,2.25-.97-.25-1.81-.62-2.51-1.11Z"/><path class="cls-1" d="m22.92,6.04c.38.73.62,1.54.69,2.39h-1.27c-.24,0-.46.14-.57.36-.1.22-.07.48.09.67l3.73,4.47c.12.14.3.23.48.23h0c.19,0,.36-.08.48-.22l3.73-4.47c.16-.19.19-.45.09-.67-.1-.22-.32-.36-.57-.36h-1.34c-.36-2.24-1.4-3.96-3.07-5.13-1.65-1.15-3.89-1.73-6.65-1.73-.31,0-.58.23-.62.55-.04.31.16.61.46.69.92.24,3.19,1.04,4.35,3.24h0Zm1.74-1.72c1.5,1.05,2.39,2.66,2.62,4.8.03.32.3.56.62.56h.55l-2.39,2.86-2.39-2.86h.58c.34,0,.62-.28.63-.62.01-1.27-.28-2.52-.86-3.61-.5-.95-1.17-1.69-1.87-2.25.97.25,1.81.62,2.51,1.11h0Z"/><circle class="cls-1" cx="24.31" cy="23.71" r=".63"/></svg>