<?xml version="1.0" encoding="UTF-8"?><svg id="Layer_1" xmlns="http://www.w3.org/2000/svg" viewBox="0 0 32 32"><defs><style>.cls-1{stroke-width:0px;}</style></defs><path class="cls-1" d="m24.28,18.57h-2.43c-.21,0-.41.11-.52.28-.12.18-.13.4-.05.59.12.28.17.57.15.88-.06.96-.82,1.74-1.78,1.8-.54.04-1.06-.14-1.45-.51-.39-.37-.61-.87-.61-1.41,0-.27.05-.52.16-.76.08-.19.06-.42-.05-.59-.12-.18-.31-.28-.52-.28h-3.75v-2.31c.19.02.38.03.57.02,1.59-.09,2.87-1.36,2.98-2.94.06-.89-.24-1.74-.84-2.39-.6-.64-1.44-1.01-2.32-1.01-.13,0-.26,0-.39.02v-2.94c0-.35-.28-.62-.62-.62H1.95C.87,6.4,0,7.27,0,8.35v9.53c0,.51.2.97.52,1.32-.32.35-.52.81-.52,1.32v9.53c0,1.07.87,1.95,1.95,1.95h22.33c1.07,0,1.95-.87,1.95-1.95v-9.53c0-1.07-.87-1.94-1.95-1.95h0ZM1.25,8.35c0-.38.31-.7.7-.7h10.23v3.12c0,.21.11.41.28.52.18.12.4.13.59.05.24-.1.5-.16.76-.16.54,0,1.04.22,1.41.61.37.39.55.91.51,1.45-.07.96-.84,1.73-1.8,1.78-.31.02-.6-.03-.88-.15-.19-.08-.42-.06-.59.05-.18.12-.28.31-.28.52v3.12h-3.12c-.21,0-.41.11-.52.28s-.13.4-.05.59c.1.24.16.5.16.76,0,.54-.22,1.04-.61,1.41-.39.37-.91.55-1.45.51-.96-.07-1.73-.84-1.78-1.8-.02-.31.03-.6.15-.88.08-.19.06-.42-.05-.59s-.31-.28-.52-.28H1.95c-.38,0-.7-.31-.7-.7v-9.53Zm10.93,22.4H1.95c-.38,0-.7-.31-.7-.7v-9.53c0-.38.31-.7.7-.7h1.62c-.02.19-.03.38-.02.57.09,1.59,1.36,2.87,2.94,2.98.08,0,.15,0,.23,0,.81,0,1.57-.3,2.16-.85.64-.6,1.01-1.44,1.01-2.32,0-.13,0-.26-.02-.39h2.31v3.12c0,.21.11.41.28.52.18.12.4.13.59.05.28-.12.57-.17.88-.15.96.06,1.74.82,1.8,1.78.04.54-.14,1.06-.51,1.45-.37.39-.87.61-1.41.61-.27,0-.52-.05-.76-.16-.19-.08-.42-.06-.59.05-.18.12-.28.31-.28.52v3.12Zm12.8-.7c0,.38-.31.7-.7.7h-10.85v-2.31c.13.02.26.02.39.02.88,0,1.72-.37,2.32-1.01.61-.65.91-1.5.84-2.39-.11-1.59-1.39-2.85-2.98-2.94-.19-.01-.39,0-.57.02v-2.31h2.94c-.02.13-.02.26-.02.39,0,.88.37,1.72,1.01,2.32.65.61,1.5.91,2.39.84,1.59-.11,2.85-1.39,2.94-2.98.01-.19,0-.39-.02-.57h1.62c.38,0,.69.31.69.7v9.53h0Z"/><path class="cls-1" d="m30.05,0h-10.85C18.85,0,18.57.28,18.57.63v3.75c0,.21.11.41.28.52.18.12.4.13.59.05.24-.1.5-.16.76-.16.54,0,1.04.22,1.41.61.37.39.55.91.51,1.45-.07.96-.84,1.73-1.8,1.78-.31.02-.6-.03-.88-.15-.19-.08-.42-.06-.59.05-.18.12-.28.31-.28.52v3.75c0,.35.28.62.62.62h2.94c-.02.13-.02.26-.02.39,0,.88.37,1.72,1.01,2.32.59.55,1.35.85,2.16.85.08,0,.15,0,.23,0,1.59-.11,2.85-1.39,2.94-2.98.01-.19,0-.39-.02-.57h1.62c1.07,0,1.95-.87,1.95-1.95v-1.78c0-.35-.28-.62-.62-.62s-.62.28-.62.62v1.78c0,.38-.31.7-.7.7h-2.43c-.21,0-.41.11-.52.28-.12.18-.13.4-.05.59.12.28.17.57.15.88-.06.96-.82,1.74-1.78,1.8-.54.04-1.06-.14-1.45-.51-.39-.37-.61-.87-.61-1.41,0-.27.05-.52.16-.76.08-.19.06-.42-.05-.59s-.31-.28-.52-.28h-3.12v-2.31c.19.02.38.03.57.02,1.59-.09,2.87-1.36,2.98-2.94.06-.89-.24-1.74-.84-2.39-.6-.64-1.44-1.01-2.32-1.01-.13,0-.26,0-.39.02V1.25h10.23c.38,0,.7.31.7.7v2.1c0,.35.28.62.62.62s.62-.28.62-.62V1.95C32,.87,31.13,0,30.05,0h0Z"/><path class="cls-1" d="m31.89,6.54c-.15-.22-.43-.33-.69-.25-.25.07-.43.29-.45.55-.02.26.13.51.36.62.23.11.52.05.7-.13.21-.21.24-.54.08-.79Z"/></svg>