<?xml version="1.0" encoding="UTF-8"?><svg id="Layer_1" xmlns="http://www.w3.org/2000/svg" viewBox="0 0 32 32"><defs><style>.cls-1{stroke-width:0px;}</style></defs><path class="cls-1" d="m15.06,0h1.88v1.88h-1.88V0Z"/><path class="cls-1" d="m15.06,3.77h1.88v1.88h-1.88v-1.88Z"/><path class="cls-1" d="m15.06,7.53h1.88v1.88h-1.88v-1.88Z"/><path class="cls-1" d="m15.06,11.3h1.88v1.87h-1.88v-1.87Z"/><path class="cls-1" d="m15.06,15.06h1.88v1.88h-1.88v-1.88Z"/><path class="cls-1" d="m15.06,18.83h1.88v1.88h-1.88v-1.88Z"/><path class="cls-1" d="m15.06,22.59h1.88v1.88h-1.88v-1.88Z"/><path class="cls-1" d="m15.06,26.36h1.88v1.88h-1.88v-1.88Z"/><path class="cls-1" d="m15.06,30.12h1.88v1.88h-1.88v-1.88Z"/><path class="cls-1" d="m23.5,8.12c2.24,0,4.06-1.82,4.06-4.06s-1.82-4.06-4.06-4.06-4.06,1.82-4.06,4.06,1.82,4.06,4.06,4.06Zm0-6.25c1.21,0,2.19.98,2.19,2.19s-.98,2.19-2.19,2.19-2.19-.98-2.19-2.19.98-2.19,2.19-2.19Z"/><path class="cls-1" d="m27.25,10h-8.44v22h9.38v-9.04c.29.1.61.16.94.16,1.55,0,2.81-1.26,2.81-2.81v-5.63c0-2.58-2.1-4.69-4.69-4.69Zm2.81,10.31c0,.52-.42.94-.94.94s-.94-.42-.94-.94v-6.56h-1.88v16.38h-1.88v-9.81h-1.88v9.81h-1.88V11.87h6.56c1.55,0,2.81,1.26,2.81,2.81v5.63Z"/><path class="cls-1" d="m8.5,8.12c2.24,0,4.06-1.82,4.06-4.06S10.74,0,8.5,0s-4.06,1.82-4.06,4.06,1.82,4.06,4.06,4.06Zm0-6.25c1.21,0,2.19.98,2.19,2.19s-.98,2.19-2.19,2.19-2.19-.98-2.19-2.19.98-2.19,2.19-2.19Z"/><path class="cls-1" d="m.06,14.69v5.63c0,1.55,1.26,2.81,2.81,2.81.33,0,.64-.06.94-.16v9.04h9.38V10H4.75C2.17,10,.06,12.1.06,14.69Zm11.25,15.44h-1.88v-9.81h-1.88v9.81h-1.88V13.75h-1.88v6.56c0,.52-.42.94-.94.94s-.94-.42-.94-.94v-5.63c0-1.55,1.26-2.81,2.81-2.81h6.56v18.25Z"/></svg>