<?xml version="1.0" encoding="UTF-8"?><svg id="Layer_1" xmlns="http://www.w3.org/2000/svg" viewBox="0 0 32 32"><defs><style>.cls-1{stroke-width:0px;}</style></defs><path class="cls-1" d="m20.45,16h.8c.72,0,1.31-.59,1.31-1.31s-.59-1.31-1.31-1.31h-.8c-.14-.66-.41-1.27-.76-1.82l.8-.8c.54.03,1.09-.16,1.5-.58.77-.77.77-2.02,0-2.78s-2.02-.77-2.78,0c-.41.41-.6.96-.58,1.5l-.8.8c-.55-.35-1.17-.62-1.82-.76v-.8c0-.72-.59-1.31-1.31-1.31s-1.31.59-1.31,1.31v.8c-.66.14-1.27.41-1.82.76l-.8-.8c.03-.54-.16-1.09-.58-1.5-.77-.77-2.02-.77-2.78,0s-.77,2.02,0,2.78c.41.41.96.6,1.5.58l.8.8c-.35.55-.62,1.17-.76,1.82h-.8c-.72,0-1.31.59-1.31,1.31s.59,1.31,1.31,1.31h.8c.14.66.41,1.27.76,1.82l-.8.8c-.54-.03-1.09.16-1.5.58-.77.77-.77,2.02,0,2.78.77.76,2.02.77,2.78,0,.41-.41.6-.96.58-1.5l.8-.8c.55.35,1.17.62,1.82.76v.8c0,.72.59,1.31,1.31,1.31s1.31-.59,1.31-1.31v-.8c.66-.14,1.27-.41,1.82-.76l.8.8c-.03.54.16,1.09.58,1.5.77.77,2.02.77,2.78,0s.77-2.02,0-2.78c-.41-.41-.96-.6-1.5-.58l-.8-.8c.35-.55.62-1.17.76-1.82h0Zm-5.76,1.97c-1.81,0-3.28-1.47-3.28-3.28s1.47-3.28,3.28-3.28,3.28,1.47,3.28,3.28-1.47,3.28-3.28,3.28Zm11.55-11.92C23.03,1.77,17.95-.34,12.65.39,6.1,1.28.9,6.74.31,13.35c-.33,3.64.71,7.22,2.9,10.1.63.81.97,1.92.97,3.1v1.27c0,2.17,1.77,3.94,3.94,3.94h9.19c2.17,0,3.94-1.77,3.94-3.94h.64c3.28,0,6.08-2.45,6.51-5.7l.29-2.18h.43c1.71,0,2.63-1.35,2.63-2.63,0-1.86-3.85-9.2-5.51-11.26h0Zm1.3,11.26c-.66,0-1.22.49-1.3,1.14l-.43,3.31c-.26,1.96-1.93,3.43-3.9,3.43h-1.96c-.72,0-1.31.59-1.31,1.31v1.31c0,.72-.59,1.31-1.31,1.31h-9.2c-.72,0-1.31-.59-1.31-1.31v-1.27c0-1.75-.54-3.41-1.51-4.69-1.8-2.35-2.64-5.29-2.38-8.27.49-5.41,4.73-9.86,10.1-10.59.56-.08,1.13-.12,1.68-.12,3.72,0,7.17,1.71,9.48,4.79,1.72,2.13,4.79,8.47,4.96,9.65h-1.6Z"/></svg>