<svg xmlns="http://www.w3.org/2000/svg" width="57.645" height="57.642" viewBox="0 0 57.645 57.642">
  <g id="idea_841743" transform="translate(0 -0.012)">
    <g id="Group_3392" data-name="Group 3392" transform="translate(27.132 6.765)">
      <g id="Group_3391" data-name="Group 3391">
        <path id="Path_85164" data-name="Path 85164" d="M242.674,59.99a1.689,1.689,0,0,0,0,3.378A10.145,10.145,0,0,1,252.808,73.5a1.689,1.689,0,1,0,3.378,0A13.527,13.527,0,0,0,242.674,59.99Z" transform="translate(-240.985 -59.99)"/>
      </g>
    </g>
    <g id="Group_3394" data-name="Group 3394" transform="translate(8.558 0.012)">
      <g id="Group_3393" data-name="Group 3393">
        <path id="Path_85165" data-name="Path 85165" d="M91.921.464a20.254,20.254,0,0,0-10.8,33.256,13.157,13.157,0,0,1,3.329,8.622V45.72a5.075,5.075,0,0,0,3.5,4.818,8.423,8.423,0,0,0,16.642,0,5.075,5.075,0,0,0,3.5-4.818V42.342a13.332,13.332,0,0,1,3.427-8.733A20.268,20.268,0,0,0,91.921.464Zm4.353,53.812a5.168,5.168,0,0,1-4.777-3.5h9.554A5.168,5.168,0,0,1,96.274,54.276Zm8.444-8.557a1.691,1.691,0,0,1-1.689,1.689H89.519A1.691,1.691,0,0,1,87.83,45.72V44.031h16.888Zm4.265-14.337a16.935,16.935,0,0,0-4.172,9.271H87.738a16.69,16.69,0,0,0-4.09-9.178,16.888,16.888,0,1,1,25.336-.093Z" transform="translate(-76.01 -0.012)"/>
      </g>
    </g>
    <g id="Group_3396" data-name="Group 3396" transform="translate(0 20.275)">
      <g id="Group_3395" data-name="Group 3395">
        <path id="Path_85166" data-name="Path 85166" d="M5.066,179.99H1.689a1.689,1.689,0,1,0,0,3.378H5.066a1.689,1.689,0,1,0,0-3.378Z" transform="translate(0 -179.99)"/>
      </g>
    </g>
    <g id="Group_3398" data-name="Group 3398" transform="translate(0.495 8.948)">
      <g id="Group_3397" data-name="Group 3397">
        <path id="Path_85167" data-name="Path 85167" d="M9.665,82.266,7.276,79.878a1.689,1.689,0,0,0-2.388,2.388l2.388,2.388a1.689,1.689,0,0,0,2.388-2.388Z" transform="translate(-4.394 -79.383)"/>
      </g>
    </g>
    <g id="Group_3400" data-name="Group 3400" transform="translate(0.495 29.214)">
      <g id="Group_3399" data-name="Group 3399">
        <path id="Path_85168" data-name="Path 85168" d="M9.665,259.878a1.689,1.689,0,0,0-2.388,0l-2.388,2.388a1.689,1.689,0,0,0,2.388,2.388l2.388-2.388A1.689,1.689,0,0,0,9.665,259.878Z" transform="translate(-4.393 -259.384)"/>
      </g>
    </g>
    <g id="Group_3402" data-name="Group 3402" transform="translate(50.889 20.275)">
      <g id="Group_3401" data-name="Group 3401">
        <path id="Path_85169" data-name="Path 85169" d="M457.066,179.99h-3.378a1.689,1.689,0,1,0,0,3.378h3.378a1.689,1.689,0,1,0,0-3.378Z" transform="translate(-452 -179.99)"/>
      </g>
    </g>
    <g id="Group_3404" data-name="Group 3404" transform="translate(51.384 8.948)">
      <g id="Group_3403" data-name="Group 3403">
        <path id="Path_85170" data-name="Path 85170" d="M461.665,79.878a1.689,1.689,0,0,0-2.388,0l-2.388,2.388a1.689,1.689,0,0,0,2.388,2.388l2.388-2.388A1.689,1.689,0,0,0,461.665,79.878Z" transform="translate(-456.393 -79.383)"/>
      </g>
    </g>
    <g id="Group_3406" data-name="Group 3406" transform="translate(51.384 29.214)">
      <g id="Group_3405" data-name="Group 3405">
        <path id="Path_85171" data-name="Path 85171" d="M461.665,262.266l-2.388-2.388a1.689,1.689,0,0,0-2.388,2.388l2.388,2.388a1.689,1.689,0,1,0,2.388-2.388Z" transform="translate(-456.393 -259.384)"/>
      </g>
    </g>
  </g>
</svg>
