<?xml version="1.0" encoding="utf-8"?>
<!-- Generator: Adobe Illustrator 25.0.0, SVG Export Plug-In . SVG Version: 6.00 Build 0)  -->
<svg version="1.1" id="Layer_3" xmlns="http://www.w3.org/2000/svg" xmlns:xlink="http://www.w3.org/1999/xlink" x="0px" y="0px"
	 viewBox="0 0 1360.3 340" style="enable-background:new 0 0 1360.3 340;" xml:space="preserve">
<style type="text/css">
	.st0{fill:#FFFFFF;}
	.st1{clip-path:url(#SVGID_2_);}
	.st2{fill:url(#SVGID_3_);}
</style>
<g>
	<path class="st0" d="M389.8,242.7h7.6l17.2,48.3h-5.6l-3.9-11.3h-22.8l-4,11.3h-5.5L389.8,242.7z M383.4,275h20.2l-9.7-27.8h-1
		L383.4,275z"/>
	<path class="st0" d="M474.6,250h-15.9v40.9h-8.4V250h-15.9v-7.3h40.3L474.6,250z"/>
	<path class="st0" d="M505.9,289.4c-4.6,1.5-9.5,2.3-14.3,2.3c-11.9,0-18.2-5.9-18.2-19.1c0-12.7,6.5-19.1,17.3-19.1
		c12.8,0,15.9,8.4,15.9,17.5v3.8H482c0.1,7,4.3,9.7,11.5,9.7c4.2-0.2,8.4-1,12.4-2.3L505.9,289.4z M498.2,268.9
		c-0.1-4-1.2-8.8-8-8.8c-5.5,0-8.4,4-8.4,8.8H498.2z"/>
	<path class="st0" d="M544.8,282.9v7.2c-3.7,1.1-7.6,1.7-11.5,1.7c-8.8,0-18.2-4-18.2-19.1s9.4-19.1,18.2-19.1
		c3.9,0,7.8,0.5,11.5,1.7v7.3c-3.3-1.1-6.8-1.6-10.2-1.7c-7.2,0-11.1,3.6-11.1,11.8c0,7,3.3,11.9,11.1,11.9
		C538.1,284.5,541.5,283.9,544.8,282.9z"/>
	<path class="st0" d="M577.6,290.9v-25c0-3.1-1.7-4.8-4.8-4.8s-6.8,1.6-10.6,3.6v26.2h-8.2v-51.1h8.2v18.4c4.6-2.7,9.1-4.6,13-4.6
		c6.6,0,10.6,3.3,10.6,10.7v26.6L577.6,290.9z"/>
	<path class="st0" d="M597.2,290.9v-48.2h17.1c13.1,0,22.5,8,22.5,24.2s-9.4,24-22.5,24L597.2,290.9z M613.4,250h-7.7v33.6h7.7
		c9.8,0,14.8-7,14.8-16.7S623.1,250,613.4,250L613.4,250z"/>
	<path class="st0" d="M676.8,289.4c-4.6,1.5-9.5,2.3-14.3,2.3c-11.9,0-18.2-5.9-18.2-19.1c0-12.7,6.5-19.1,17.3-19.1
		c12.8,0,15.9,8.4,15.9,17.5v3.8h-24.6c0.1,7,4.3,9.7,11.5,9.7c4.2-0.2,8.4-1,12.4-2.3L676.8,289.4z M669.1,268.9
		c-0.1-4-1.2-8.8-8-8.8c-5.5,0-8.4,4-8.4,8.8H669.1z"/>
	<path class="st0" d="M709.4,290.9v-25.1c0-3.1-1.5-4.8-5-4.8c-2.9,0-6.1,1.5-9.6,3.7v26.2h-8.2v-36.5h7.7v4.1h0.3
		c3.9-2.7,8.2-4.9,12.6-4.9s7.8,1.7,9.4,5.3c4.5-3.2,8.9-5.3,13.5-5.3c6.1,0,10.4,3.2,10.4,10.8V291h-8.2v-25.1c0-3.1-1.5-4.8-5-4.8
		c-2.3,0-6.6,1.5-9.6,3.7V291L709.4,290.9z"/>
	<path class="st0" d="M767.5,253.6c10,0,18.4,5.6,18.4,19.1s-8.4,19.1-18.4,19.1s-18.3-5.5-18.3-19.1S757.5,253.6,767.5,253.6z
		 M767.6,284.7c7,0,9.8-4.5,9.8-12s-2.9-12-9.8-12s-10,4.5-10,12S760.6,284.7,767.6,284.7z"/>
	<path class="st0" d="M822.6,282.9v7.2c-3.7,1.1-7.6,1.7-11.5,1.7c-8.8,0-18.2-4-18.2-19.1s9.4-19.1,18.2-19.1
		c3.9,0,7.8,0.5,11.5,1.7v7.3c-3.3-1.1-6.8-1.6-10.2-1.7c-7.2,0-11.1,3.6-11.1,11.8c0,7,3.3,11.9,11.1,11.9
		C815.8,284.5,819.3,283.9,822.6,282.9z"/>
	<path class="st0" d="M853.3,262.7c-4.8,0.7-8.6,2.4-13.5,4.5v23.7h-8.2v-36.5h7.8v6.1c4-2.5,8.1-6,13.8-6.4V262.7z"/>
	<path class="st0" d="M882.1,268.8V266c0-3.4-2-5.6-8-5.6c-4.1,0.1-8.1,0.6-12,1.7v-7c4.6-0.9,9.2-1.5,13.9-1.5
		c8.9,0,14.2,4.4,14.2,13v24.4h-7l-0.6-4.1h-0.3c-4,2.9-8,4.5-12,4.5c-6.2,0-11.4-3.7-11.4-11.3c0-7,5.1-11.3,13.7-11.3L882.1,268.8
		z M882.1,274.6h-8.2c-4.5,0-6.6,1.7-6.6,4.9c0,3.4,2.4,5.1,5.8,5.1c3.2-0.1,6.4-1.2,9-3.1L882.1,274.6z"/>
	<path class="st0" d="M929.4,282.9v7.2c-3.7,1.1-7.6,1.7-11.5,1.7c-8.8,0-18.2-4-18.2-19.1s9.4-19.1,18.2-19.1
		c3.9,0,7.8,0.5,11.5,1.7v7.3c-3.3-1.1-6.8-1.6-10.2-1.7c-7.2,0-11.1,3.6-11.1,11.8c0,7,3.3,11.9,11.1,11.9
		C922.6,284.5,926.1,283.9,929.4,282.9z"/>
	<path class="st0" d="M945.6,304.6l4.6-13.7h-3.5c-3.9-12.2-7.8-24.4-11.8-36.5h9c2.8,9.2,5.6,18.5,8.4,27.7h0.6
		c2.9-9.2,5.7-18.5,8.6-27.7h8.8l-16,50.3H945.6z"/>
	<path class="st0" d="M1015,241.9c4.1,0,8.2,0.6,12.2,1.6v4.9c-3.7-1.1-7.6-1.7-11.5-1.8c-10.1,0-16.9,5.4-16.9,20.1
		c0,15,7.4,20.5,16.5,20.5c4.1,0,8.1-0.7,12-2v4.8c-4,1.2-8.1,1.8-12.2,1.8c-14.9,0-21.6-9.6-21.6-25
		C993.4,251.6,1000.4,241.9,1015,241.9z"/>
	<path class="st0" d="M1050.8,254c8.9,0,17.7,4.8,17.7,18.9s-8.8,18.8-17.7,18.8s-17.7-4.7-17.7-18.8S1041.9,254,1050.8,254z
		 M1050.9,287.4c8.5,0,12.4-5.6,12.4-14.5s-3.9-14.4-12.4-14.4s-12.6,5.7-12.6,14.5S1042.3,287.4,1050.9,287.4L1050.9,287.4z"/>
	<path class="st0" d="M1132.3,264.5v26.4h-5v-25.8c0-4.1-2.2-6.4-6.8-6.4c-3.5,0-7.7,1.8-12.7,4.9c0.1,0.9,0.1,1.9,0.1,2.8v24.6h-5
		v-25.8c0-4.1-2.1-6.4-6.7-6.4c-3.8,0-7.5,1.7-12.6,4.8v27.4h-5v-36.1h4.7v4.6c4.1-2.5,9.2-5.3,14.2-5.3c4.7,0,8,1.9,9.5,5.7
		c4.6-3.1,9.7-5.7,14.8-5.7C1128.4,254.1,1132.3,257.5,1132.3,264.5z"/>
	<path class="st0" d="M1144.4,304.6v-49.8h5v4.3c4.8-3.3,9.4-5.1,13.8-5.1c7,0,13,5.1,13,18c0,14.3-6.9,19.5-17.1,19.5
		c-3.3-0.1-6.5-0.5-9.7-1.3v14.3L1144.4,304.6z M1161.7,258.5c-3.5,0-7.8,1.5-12.4,4.8V286c3.1,0.8,6.2,1.2,9.4,1.3
		c8.4,0,12.2-5.5,12.2-15.1C1170.9,262.6,1167.1,258.5,1161.7,258.5z"/>
	<path class="st0" d="M1207.7,270.1v-4.4c0-4.4-2.5-7.4-8.8-7.4c-4.1,0.1-8.1,0.6-12,1.7v-4.4c4.3-1,8.6-1.5,13-1.6
		c8,0,12.8,4,12.8,12v24.9h-4.3l-0.4-4.7c-4.2,3-8.7,5-13,5c-6,0-11.2-3.1-11.2-10.4s5.2-10.7,12.6-10.7L1207.7,270.1z
		 M1207.7,273.8h-10.8c-5.4,0-8,2.5-8,6.8c0,4.4,3,6.5,7.5,6.5c3.7,0,8.4-2.2,11.3-4.7L1207.7,273.8z"/>
	<path class="st0" d="M1249.9,290.9v-25.8c0-4-2-6.5-6.7-6.5c-3.8,0-8.6,2.1-13.5,4.9v27.4h-5v-36.1h4.7v4.6
		c5.3-3,10.5-5.4,15.1-5.4c6.8,0,10.3,3.6,10.3,10.2v26.7H1249.9z"/>
	<path class="st0" d="M1277.9,290.9h-2.6l-12-36.1h5.4l9.9,30.8h0.9l9.9-30.8h5.4l-16.2,49.8h-5.3L1277.9,290.9z"/>
	<path class="st0" d="M419,47.7c11.6-0.1,23.1,1.4,34.3,4.3v20.6c-7.9-2.5-20.4-5.4-30.2-5.4c-25,0-40.4,12.5-40.4,46.3
		c0,35.9,18.1,47.7,39.2,47.7c10.9-0.2,21.7-2.3,31.8-6.3v20.2c-11.3,3.9-24.7,5.5-34.5,5.5c-40.2,0-59.5-24.9-59.5-66.7
		C359.7,73.3,380,47.7,419,47.7z"/>
	<path class="st0" d="M517.7,78.8c26.8,0,49.2,15,49.2,51s-22.3,51-49.2,51s-49-14.7-49-51C468.7,93.7,490.9,78.8,517.7,78.8z
		 M517.9,162c18.6,0,26.3-12,26.3-32.2c0-20-7.7-32-26.3-32c-18.8,0-26.7,12-26.7,32C491.2,150,499.1,162,517.9,162L517.9,162z"/>
	<path class="st0" d="M741.3,174.5c-13.1,3.9-24.5,6.3-38.3,6.3c-31.8,0-48.7-15.7-48.7-51c0-34,17.3-51,46.3-51
		c34.2,0,42.4,22.5,42.4,46.9v10h-65.6c0.2,18.8,11.5,25.9,30.8,25.9c9.1,0,22.4-2.7,33.1-6.1V174.5z M720.8,119.8
		c-0.2-10.7-3.2-23.6-21.3-23.6c-14.8,0-22.4,10.6-22.4,23.6H720.8z"/>
	<path class="st0" d="M787.9,178.6h-21.8V42.2h21.8L787.9,178.6z"/>
	<path class="st0" d="M837.7,178.6h-21.8V42.2h21.8V178.6z"/>
	<path class="st0" d="M887.5,67.8h-22.5V45.9h22.5V67.8z M887.3,178.6h-22V81h22V178.6z"/>
	<path class="st0" d="M952.7,78.8h61.2l-7.5,17.7h-19.1c4.8,4.1,7.7,10.4,7.7,18.2c0,25.2-21.1,32.5-42.4,32.5
		c-4.1,0-8.2-0.2-12.3-0.7c-1.8,2.3-2.8,5.1-2.9,8.1c0,3.9,2.2,7,7.7,7h29.2c15.6,0,30,4.6,30,24.9c0,21.3-19.3,30.9-52.9,30.9
		c-28.8,0-42-7.9-42-23.4c0-8.8,3.8-17.2,16.5-21.5v-0.9c-4.6-2.7-7.5-7.6-7.6-12.9c0-5.7,3-12.3,9.1-17
		c-10-4.8-16.5-14.1-16.5-27.5C910.7,92.3,926.6,78.8,952.7,78.8z M946.1,178.5c-8.6,1.2-14.3,5.2-14.3,12.9
		c0,8.8,7.5,10.7,22.4,10.7c17.9,0,27.4-3,27.4-13.4c0-6.8-4.7-10.2-12.2-10.2H946.1z M953.1,95.9c-14.3,0-20,7.2-20,18.2
		s5.7,17.9,20,17.9c14,0,19.8-6.6,19.8-18.1C972.9,103,967,95.8,953.1,95.9L953.1,95.9z"/>
	<path class="st0" d="M1106.8,174.5c-13.1,3.9-24.5,6.3-38.3,6.3c-31.8,0-48.7-15.7-48.7-51c0-34,17.3-51,46.3-51
		c34.2,0,42.4,22.5,42.4,46.9v10h-65.6c0.2,18.8,11.4,25.9,30.8,25.9c9.1,0,22.4-2.7,33.1-6.1L1106.8,174.5z M1086.2,119.8
		c-0.2-10.7-3.2-23.6-21.3-23.6c-14.8,0-22.4,10.6-22.4,23.6H1086.2z"/>
	<path class="st0" d="M1194.5,178.6v-60.5c0-14.6-8.1-19.5-17.6-19.5c-8.1,0-14.1,1.5-23.9,6.9v73h-21.8V81h20.4c0,0,0,8.6,0,8.6
		c9.2-6.2,21-10.8,32-10.8c17.7,0,32.8,7.5,32.8,35.9v63.9H1194.5z"/>
	<path class="st0" d="M615.4,96.8v48.5c0,10,1.7,17,10.7,17c3.7,0,8.3-1.5,12.2-3l3,16.2c-5.5,3.3-13.8,5.4-21.4,5.4
		c-18.5,0-26.4-11.1-26.4-32.5V96.8h-15.9V78.5h15.9v-26l22-10.5v36.5h23.6v18.3H615.4z"/>
	<path class="st0" d="M1270,96.8v48.5c0,10,1.7,17,10.7,17c3.7,0,8.3-1.5,12.2-3l2.9,16.2c-5.5,3.3-13.8,5.4-21.4,5.4
		c-18.5,0-26.4-11.1-26.4-32.5V96.8h-15.9V78.5h15.9v-26l22-10.5v36.5h23.6v18.3H1270z"/>
	<g>
		<defs>
			<path id="SVGID_1_" d="M104.2,106.3c-0.2-0.3-0.2-0.8,0-1.1l9.2-16c0.1-0.3,0.5-0.4,0.7-0.3c0.1,0.1,0.2,0.2,0.3,0.3l38.3,66.4
				c0.1,0.3,0.1,0.6-0.2,0.7c-0.1,0-0.2,0.1-0.3,0.1H75.6c-0.3,0-0.5-0.2-0.5-0.5c0-0.1,0-0.2,0.1-0.3l9.2-16c0.2-0.4,0.6-0.6,1-0.6
				h37.8L104.2,106.3z M169.4,219.3l18.9,32.8c0.2,0.3,0.6,0.6,1,0.5h18.5c0.3,0,0.5-0.2,0.5-0.6c0-0.1,0-0.2-0.1-0.3l-38.4-66.4
				c-0.1-0.3-0.5-0.4-0.7-0.3c-0.1,0.1-0.2,0.2-0.3,0.3l-38.4,66.4c-0.2,0.3-0.1,0.6,0.2,0.8c0.1,0.1,0.2,0.1,0.3,0.1h18.5
				c0.4,0,0.8-0.2,1-0.5L169.4,219.3z M188.4,79.5l-18.9,32.8l-18.9-32.8c-0.2-0.4-0.6-0.6-1-0.6h-18.4c-0.3,0-0.6,0.2-0.6,0.5
				c0,0.1,0,0.2,0.1,0.3l38.4,66.5c0.1,0.3,0.5,0.4,0.7,0.3c0.1-0.1,0.2-0.2,0.3-0.3l38.4-66.4c0.2-0.3,0.1-0.6-0.2-0.8
				c-0.1,0-0.2-0.1-0.3-0.1h-18.6C188.9,79,188.6,79.2,188.4,79.5z M152.3,175.1H75.6c-0.3,0-0.5,0.2-0.5,0.6c0,0.1,0,0.2,0.1,0.3
				l9.2,16c0.2,0.4,0.6,0.6,1,0.6h37.8l-18.9,32.8c-0.2,0.3-0.2,0.8,0,1.1l9.2,16c0.1,0.3,0.5,0.4,0.8,0.2c0.1-0.1,0.2-0.1,0.2-0.2
				l38.4-66.4c0.1-0.3,0-0.6-0.2-0.8C152.5,175.1,152.4,175.1,152.3,175.1L152.3,175.1z M283,175.1h-96.4c-0.3,0-0.5,0.2-0.5,0.6
				c0,0.1,0,0.2,0.1,0.3l38.4,66.4c0.2,0.3,0.5,0.4,0.8,0.2c0.1,0,0.1-0.1,0.2-0.2l9.2-16c0.2-0.3,0.2-0.8,0-1.1l-18.9-32.8H280
				c-14.8,61-76.2,98.4-137.1,83.7C81.9,261.4,44.4,200,59.2,139c14.8-61,76.2-98.4,137.1-83.7c41.4,10,73.6,42.3,83.7,83.7h-64.2
				l18.9-32.7c0.2-0.3,0.2-0.8,0-1.1l-9.2-16c-0.2-0.3-0.5-0.4-0.8-0.2c-0.1,0-0.1,0.1-0.2,0.2l-38.3,66.4c-0.2,0.3-0.1,0.6,0.2,0.7
				c0.1,0.1,0.2,0.1,0.3,0.1H283c8,0,14.5-6.5,14.5-14.4c0-1-0.1-2-0.3-2.9l0,0c-12.7-60.4-66-103.7-127.7-103.7
				c-71.9,0-130.4,58.5-130.4,130.4l0,0c0,72,58.4,130.4,130.4,130.4c62.7,0,115.3-44.5,127.6-103.7v-0.2
				c1.6-7.8-3.4-15.3-11.2-16.9C284.9,175.2,284,175.1,283,175.1L283,175.1z"/>
		</defs>
		<clipPath id="SVGID_2_">
			<use xlink:href="#SVGID_1_"  style="overflow:visible;"/>
		</clipPath>
		<g class="st1">
			
				<linearGradient id="SVGID_3_" gradientUnits="userSpaceOnUse" x1="227.4324" y1="59.7361" x2="115.3624" y2="277.6061" gradientTransform="matrix(1 0 0 -1 0 341)">
				<stop  offset="0" style="stop-color:#D6023E"/>
				<stop  offset="0.28" style="stop-color:#F00245"/>
				<stop  offset="0.97" style="stop-color:#FF7E6E"/>
			</linearGradient>
			<rect x="38.1" y="34.7" class="st2" width="259.7" height="261.9"/>
		</g>
	</g>
</g>
</svg>
