<svg xmlns="http://www.w3.org/2000/svg" width="49.06" height="49.062" viewBox="0 0 49.06 49.062">
  <g id="repair-tool_2760290" transform="translate(-2 -1.999)">
    <path id="XMLID_1644_" d="M28.389,51.061a6.139,6.139,0,0,1-6.133-6.133V21.917A11.377,11.377,0,0,1,23.21,2.192a1.752,1.752,0,0,1,2.551,1.561v7.575l2.628,1.051,2.628-1.051V3.753a1.752,1.752,0,0,1,2.551-1.561,11.378,11.378,0,0,1,.953,19.728V44.928a6.139,6.139,0,0,1-6.133,6.133ZM22.256,7.373a7.877,7.877,0,0,0,2.551,11.972,1.752,1.752,0,0,1,.953,1.559V44.928a2.628,2.628,0,1,0,5.256,0V20.9a1.752,1.752,0,0,1,.953-1.559A7.875,7.875,0,0,0,34.522,7.374v5.139a1.756,1.756,0,0,1-1.1,1.628l-4.38,1.752a1.742,1.742,0,0,1-1.3,0l-4.38-1.752a1.755,1.755,0,0,1-1.1-1.628Z" transform="translate(11.282)"/>
    <path id="Path_85162" data-name="Path 85162" d="M28.412,51.06H24.65a3.519,3.519,0,0,1-3.494-3.234l-.221-2.865a19.117,19.117,0,0,1-3.478-1.444l-2.183,1.87a3.519,3.519,0,0,1-4.757-.18L7.854,42.541a3.521,3.521,0,0,1-.182-4.759L9.541,35.6A19.117,19.117,0,0,1,8.1,32.123L5.234,31.9A3.516,3.516,0,0,1,2,28.412V24.648a3.519,3.519,0,0,1,3.236-3.494L8.1,20.936a19.015,19.015,0,0,1,1.444-3.478L7.672,15.273a3.52,3.52,0,0,1,.184-4.759l2.66-2.662a3.52,3.52,0,0,1,4.759-.182l2.183,1.87A19.117,19.117,0,0,1,20.936,8.1l.221-2.865A3.518,3.518,0,0,1,24.648,2H26.53a1.752,1.752,0,1,1,0,3.5H24.648l-.315,4.1a1.753,1.753,0,0,1-1.353,1.572,15.6,15.6,0,0,0-4.79,1.989,1.743,1.743,0,0,1-2.069-.156l-3.128-2.679-2.66,2.663,2.679,3.126a1.75,1.75,0,0,1,.154,2.069,15.675,15.675,0,0,0-1.989,4.79A1.75,1.75,0,0,1,9.6,24.333l-4.1.315v3.764l4.1.315a1.752,1.752,0,0,1,1.573,1.353,15.6,15.6,0,0,0,1.989,4.79,1.753,1.753,0,0,1-.154,2.069l-2.679,3.126,2.662,2.663,3.126-2.679a1.748,1.748,0,0,1,2.069-.156,15.675,15.675,0,0,0,4.79,1.989,1.752,1.752,0,0,1,1.353,1.572l.315,4.1H28.41a1.752,1.752,0,0,1,3.494.27,3.518,3.518,0,0,1-3.492,3.234Z" transform="translate(0 0.001)"/>
    <path id="Path_85163" data-name="Path 85163" d="M9,21.2a12.219,12.219,0,0,1,10.224-12.1,1.752,1.752,0,1,1,.578,3.455,8.763,8.763,0,1,0,4.384,16.9,1.751,1.751,0,1,1,1.17,3.3A12.28,12.28,0,0,1,9,21.2Z" transform="translate(5.265 5.327)"/>
  </g>
</svg>
