<?xml version="1.0" encoding="UTF-8"?>
<svg id="Outline" xmlns="http://www.w3.org/2000/svg" viewBox="0 0 960 638">
  <defs>
    <style>
      .cls-1 {
        fill: none;
        stroke: #939598;
        stroke-dasharray: 0 0 6.02 6.02;
        stroke-width: 2px;
      }

      .cls-1, .cls-2, .cls-3 {
        stroke-miterlimit: 10;
      }

      .cls-2 {
        fill: #fff;
        stroke: #4a3592;
        stroke-width: 4px;
      }

      .cls-3 {
        fill: #d7c9e3;
        stroke: #fff;
        stroke-width: 3px;
      }

      .cls-4 {
        fill: #493393;
      }

      .cls-4, .cls-5, .cls-6, .cls-7, .cls-8 {
        stroke-width: 0px;
      }

      .cls-5 {
        fill: #231f20;
      }

      .cls-6 {
        fill: #dedede;
      }

      .cls-7 {
        fill: #333;
      }

      .cls-8 {
        fill: #010101;
      }
    </style>
  </defs>
  <circle class="cls-1" cx="481.45" cy="318.14" r="264.35"/>
  <circle class="cls-2" cx="295.7" cy="131.21" r="75"/>
  <circle class="cls-2" cx="295.81" cy="504.1" r="75"/>
  <circle class="cls-2" cx="669.53" cy="504.35" r="75"/>
  <circle class="cls-2" cx="670.11" cy="130.8" r="75"/>
  <circle class="cls-6" cx="480.28" cy="312.2" r="109.98"/>
  <circle class="cls-3" cx="480.28" cy="312.2" r="102.99"/>
  <g>
    <path class="cls-5" d="M773.98,112.15c-.06-.56-.31-.99-.75-1.3-.44-.31-1.01-.47-1.72-.47-.5,0-.92.07-1.27.22-.35.15-.62.35-.81.61-.19.26-.28.55-.29.88,0,.27.06.51.19.71.13.2.3.37.51.51.22.14.46.25.72.35s.53.17.8.24l1.23.31c.49.12.97.27,1.43.47.46.2.87.44,1.23.74s.65.66.87,1.08.32.92.32,1.48c0,.77-.2,1.44-.59,2.02-.39.58-.96,1.04-1.7,1.36-.74.33-1.63.49-2.68.49s-1.9-.16-2.65-.47c-.75-.32-1.33-.78-1.75-1.38-.42-.6-.65-1.34-.68-2.21h2.33c.03.46.17.84.42,1.14.25.3.57.53.97.68.4.15.84.22,1.34.22s.97-.08,1.36-.23c.39-.16.7-.37.92-.65s.33-.61.34-.98c0-.34-.1-.62-.3-.85-.2-.22-.47-.41-.82-.56s-.76-.29-1.23-.41l-1.49-.38c-1.08-.28-1.93-.7-2.55-1.26-.62-.56-.94-1.32-.94-2.25,0-.77.21-1.45.63-2.03.42-.58.99-1.03,1.72-1.35.72-.32,1.54-.48,2.46-.48s1.74.16,2.45.48,1.25.77,1.65,1.34.61,1.22.62,1.96h-2.28Z"/>
    <path class="cls-5" d="M785.66,112.15c-.06-.56-.31-.99-.75-1.3-.44-.31-1.01-.47-1.72-.47-.5,0-.92.07-1.27.22-.35.15-.62.35-.81.61-.19.26-.28.55-.29.88,0,.27.06.51.19.71.13.2.3.37.51.51.22.14.46.25.72.35s.53.17.8.24l1.23.31c.49.12.97.27,1.43.47.46.2.87.44,1.23.74s.65.66.87,1.08.32.92.32,1.48c0,.77-.2,1.44-.59,2.02-.39.58-.96,1.04-1.7,1.36-.74.33-1.63.49-2.68.49s-1.9-.16-2.65-.47c-.75-.32-1.33-.78-1.75-1.38-.42-.6-.65-1.34-.68-2.21h2.33c.03.46.17.84.42,1.14.25.3.57.53.97.68.4.15.84.22,1.34.22s.97-.08,1.36-.23c.39-.16.7-.37.92-.65s.33-.61.34-.98c0-.34-.1-.62-.3-.85-.2-.22-.47-.41-.82-.56s-.76-.29-1.23-.41l-1.49-.38c-1.08-.28-1.93-.7-2.55-1.26-.62-.56-.94-1.32-.94-2.25,0-.77.21-1.45.63-2.03.42-.58.99-1.03,1.72-1.35.72-.32,1.54-.48,2.46-.48s1.74.16,2.45.48,1.25.77,1.65,1.34.61,1.22.62,1.96h-2.28Z"/>
    <path class="cls-5" d="M801.93,115.1c0,1.41-.26,2.62-.79,3.62s-1.24,1.77-2.15,2.3c-.91.53-1.93.8-3.08.8s-2.17-.27-3.08-.8c-.91-.54-1.62-1.3-2.15-2.31s-.79-2.21-.79-3.61.26-2.62.79-3.62,1.24-1.77,2.15-2.3c.91-.53,1.93-.8,3.08-.8s2.17.27,3.08.8c.91.53,1.62,1.3,2.15,2.3s.79,2.21.79,3.62ZM799.54,115.1c0-.99-.15-1.83-.46-2.52-.31-.68-.74-1.2-1.28-1.55s-1.17-.53-1.89-.53-1.34.18-1.89.53c-.54.35-.97.87-1.28,1.55-.31.68-.46,1.52-.46,2.52s.15,1.83.46,2.52c.31.68.74,1.2,1.28,1.55.55.35,1.17.53,1.89.53s1.34-.18,1.89-.53.97-.87,1.28-1.55c.31-.68.46-1.52.46-2.52Z"/>
    <path class="cls-5" d="M767.34,136.7c0-1.6.21-3.07.64-4.41s1.06-2.58,1.9-3.72h2.18c-.32.42-.63.94-.91,1.55s-.53,1.28-.73,2.01c-.21.73-.37,1.48-.49,2.26s-.18,1.55-.18,2.31c0,1.01.1,2.03.3,3.07.2,1.04.48,2,.82,2.88.35.88.74,1.61,1.17,2.17h-2.18c-.84-1.14-1.47-2.38-1.9-3.72s-.64-2.81-.64-4.4Z"/>
    <path class="cls-5" d="M781.06,133.75c-.06-.56-.31-.99-.75-1.3-.44-.31-1.01-.47-1.72-.47-.5,0-.92.07-1.27.22-.35.15-.62.35-.81.61-.19.26-.28.55-.29.88,0,.27.06.51.19.71.13.2.3.37.51.51.22.14.46.25.72.35s.53.17.8.24l1.23.31c.49.12.97.27,1.43.47.46.2.87.44,1.23.74s.65.66.87,1.08.32.92.32,1.48c0,.77-.2,1.44-.59,2.02-.39.58-.96,1.04-1.7,1.36-.74.33-1.63.49-2.68.49s-1.9-.16-2.65-.47c-.75-.32-1.33-.78-1.75-1.38-.42-.6-.65-1.34-.68-2.21h2.33c.03.46.17.84.42,1.14.25.3.57.53.97.68.4.15.84.22,1.34.22s.97-.08,1.36-.23c.39-.16.7-.37.92-.65s.33-.61.34-.98c0-.34-.1-.62-.3-.85-.2-.22-.47-.41-.82-.56s-.76-.29-1.23-.41l-1.49-.38c-1.08-.28-1.93-.7-2.55-1.26-.62-.56-.94-1.32-.94-2.25,0-.77.21-1.45.63-2.03.42-.58.99-1.03,1.72-1.35.72-.32,1.54-.48,2.46-.48s1.74.16,2.45.48,1.25.77,1.65,1.34.61,1.22.62,1.96h-2.28Z"/>
    <path class="cls-5" d="M786.69,132.03c-.37,0-.68-.12-.95-.37-.26-.25-.4-.54-.4-.89s.13-.64.4-.89c.26-.25.58-.37.95-.37s.69.12.95.37c.26.25.39.54.39.89s-.13.64-.39.89c-.26.25-.58.37-.95.37ZM785.53,143.24v-9.82h2.31v9.82h-2.31Z"/>
    <path class="cls-5" d="M792.53,137.49v5.75h-2.31v-9.82h2.21v1.67h.12c.23-.55.59-.99,1.08-1.31.5-.32,1.11-.49,1.84-.49.68,0,1.27.14,1.77.43.5.29.9.71,1.18,1.26.28.55.42,1.22.41,2v6.25h-2.31v-5.89c0-.66-.17-1.17-.51-1.54-.34-.37-.81-.56-1.4-.56-.4,0-.76.09-1.08.27-.31.18-.56.43-.73.76-.18.33-.27.73-.27,1.21Z"/>
    <path class="cls-5" d="M805.46,147.13c-.83,0-1.54-.11-2.14-.34s-1.08-.52-1.44-.9-.61-.79-.75-1.25l2.08-.5c.09.19.23.38.41.57.18.19.42.35.73.47.3.13.69.19,1.15.19.66,0,1.2-.16,1.63-.48s.65-.84.65-1.56v-1.86h-.12c-.12.24-.29.48-.52.73-.23.25-.53.46-.9.63-.37.17-.84.26-1.4.26-.75,0-1.44-.18-2.05-.53-.61-.36-1.1-.89-1.46-1.6s-.54-1.6-.54-2.67.18-1.99.54-2.73c.36-.74.85-1.31,1.46-1.69.61-.39,1.3-.58,2.05-.58.58,0,1.05.1,1.42.29s.67.43.89.7.39.53.5.76h.13v-1.62h2.28v9.98c0,.84-.2,1.53-.6,2.08s-.95.96-1.64,1.23c-.7.27-1.48.41-2.37.41ZM805.48,141.29c.49,0,.91-.12,1.25-.36.35-.24.61-.58.79-1.03.18-.45.27-.98.27-1.61s-.09-1.16-.26-1.62c-.18-.46-.44-.83-.78-1.08s-.76-.39-1.26-.39-.95.13-1.29.4c-.34.27-.6.64-.78,1.1-.17.47-.26,1-.26,1.59s.09,1.13.27,1.58c.18.45.44.8.79,1.05.35.25.77.37,1.28.37Z"/>
    <path class="cls-5" d="M814.76,130.15v13.09h-2.31v-13.09h2.31Z"/>
    <path class="cls-5" d="M821.49,143.44c-.98,0-1.83-.21-2.55-.62-.71-.41-1.26-.99-1.65-1.75-.38-.76-.58-1.65-.58-2.68s.19-1.9.58-2.66c.39-.77.93-1.36,1.62-1.79s1.51-.64,2.45-.64c.61,0,1.18.1,1.72.29s1.02.49,1.43.9c.42.41.74.92.98,1.54.24.62.36,1.37.36,2.23v.71h-8.05v-1.56h5.83c0-.44-.1-.84-.29-1.19-.19-.35-.45-.62-.78-.82-.33-.2-.72-.3-1.17-.3-.47,0-.89.11-1.25.34-.36.23-.64.53-.83.89s-.3.77-.3,1.21v1.36c0,.57.1,1.06.31,1.47.21.41.5.72.88.93s.81.32,1.32.32c.34,0,.64-.05.91-.14.27-.1.51-.24.71-.43.2-.19.35-.42.45-.7l2.16.24c-.14.57-.4,1.07-.78,1.49-.38.42-.87.75-1.46.98-.59.23-1.27.35-2.03.35Z"/>
    <path class="cls-5" d="M839.49,133.75c-.06-.56-.31-.99-.75-1.3-.44-.31-1.01-.47-1.72-.47-.5,0-.92.07-1.27.22-.35.15-.62.35-.81.61-.19.26-.28.55-.29.88,0,.27.06.51.19.71.13.2.3.37.51.51.22.14.46.25.72.35s.53.17.8.24l1.23.31c.49.12.97.27,1.43.47.46.2.87.44,1.23.74s.65.66.87,1.08.32.92.32,1.48c0,.77-.2,1.44-.59,2.02-.39.58-.96,1.04-1.7,1.36-.74.33-1.63.49-2.68.49s-1.9-.16-2.65-.47c-.75-.32-1.33-.78-1.75-1.38-.42-.6-.65-1.34-.68-2.21h2.33c.03.46.17.84.42,1.14.25.3.57.53.97.68.4.15.84.22,1.34.22s.97-.08,1.36-.23c.39-.16.7-.37.92-.65s.33-.61.34-.98c0-.34-.1-.62-.3-.85-.2-.22-.47-.41-.82-.56s-.76-.29-1.23-.41l-1.49-.38c-1.08-.28-1.93-.7-2.55-1.26-.62-.56-.94-1.32-.94-2.25,0-.77.21-1.45.63-2.03.42-.58.99-1.03,1.72-1.35.72-.32,1.54-.48,2.46-.48s1.74.16,2.45.48,1.25.77,1.65,1.34.61,1.22.62,1.96h-2.28Z"/>
    <path class="cls-5" d="M845.13,132.03c-.37,0-.68-.12-.95-.37-.26-.25-.4-.54-.4-.89s.13-.64.4-.89c.26-.25.58-.37.95-.37s.69.12.95.37c.26.25.39.54.39.89s-.13.64-.39.89c-.26.25-.58.37-.95.37ZM843.96,143.24v-9.82h2.31v9.82h-2.31Z"/>
    <path class="cls-5" d="M852.92,147.13c-.83,0-1.54-.11-2.14-.34s-1.08-.52-1.44-.9-.61-.79-.75-1.25l2.08-.5c.09.19.23.38.41.57.18.19.42.35.73.47.3.13.69.19,1.15.19.66,0,1.2-.16,1.63-.48s.65-.84.65-1.56v-1.86h-.12c-.12.24-.29.48-.52.73-.23.25-.53.46-.9.63-.37.17-.84.26-1.4.26-.75,0-1.44-.18-2.05-.53-.61-.36-1.1-.89-1.46-1.6s-.54-1.6-.54-2.67.18-1.99.54-2.73c.36-.74.85-1.31,1.46-1.69.61-.39,1.3-.58,2.05-.58.58,0,1.05.1,1.42.29s.67.43.89.7.39.53.5.76h.13v-1.62h2.28v9.98c0,.84-.2,1.53-.6,2.08s-.95.96-1.64,1.23c-.7.27-1.48.41-2.37.41ZM852.94,141.29c.49,0,.91-.12,1.25-.36.35-.24.61-.58.79-1.03.18-.45.27-.98.27-1.61s-.09-1.16-.26-1.62c-.18-.46-.44-.83-.78-1.08s-.76-.39-1.26-.39-.95.13-1.29.4c-.34.27-.6.64-.78,1.1-.17.47-.26,1-.26,1.59s.09,1.13.27,1.58c.18.45.44.8.79,1.05.35.25.77.37,1.28.37Z"/>
    <path class="cls-5" d="M862.22,137.49v5.75h-2.31v-9.82h2.21v1.67h.12c.23-.55.59-.99,1.08-1.31.5-.32,1.11-.49,1.84-.49.68,0,1.27.14,1.77.43.5.29.9.71,1.18,1.26.28.55.42,1.22.41,2v6.25h-2.31v-5.89c0-.66-.17-1.17-.51-1.54-.34-.37-.81-.56-1.4-.56-.4,0-.76.09-1.08.27-.31.18-.56.43-.73.76-.18.33-.27.73-.27,1.21Z"/>
    <path class="cls-5" d="M876.84,136.84v1.9h-5.89v-1.9h5.89Z"/>
    <path class="cls-5" d="M891.07,136.7c0,1.41-.26,2.62-.79,3.62s-1.24,1.77-2.15,2.3c-.91.53-1.93.8-3.08.8s-2.17-.27-3.08-.8c-.91-.54-1.62-1.3-2.15-2.31s-.79-2.21-.79-3.61.26-2.62.79-3.62,1.24-1.77,2.15-2.3c.91-.53,1.93-.8,3.08-.8s2.17.27,3.08.8c.91.53,1.62,1.3,2.15,2.3s.79,2.21.79,3.62ZM888.69,136.7c0-.99-.15-1.83-.46-2.52-.31-.68-.74-1.2-1.28-1.55s-1.17-.53-1.89-.53-1.34.18-1.89.53c-.54.35-.97.87-1.28,1.55-.31.68-.46,1.52-.46,2.52s.15,1.83.46,2.52c.31.68.74,1.2,1.28,1.55.55.35,1.17.53,1.89.53s1.34-.18,1.89-.53.97-.87,1.28-1.55c.31-.68.46-1.52.46-2.52Z"/>
    <path class="cls-5" d="M895.53,137.49v5.75h-2.31v-9.82h2.21v1.67h.12c.23-.55.59-.99,1.08-1.31.5-.32,1.11-.49,1.84-.49.68,0,1.27.14,1.77.43.5.29.9.71,1.18,1.26.28.55.42,1.22.41,2v6.25h-2.31v-5.89c0-.66-.17-1.17-.51-1.54-.34-.37-.81-.56-1.4-.56-.4,0-.76.09-1.08.27-.31.18-.56.43-.73.76-.18.33-.27.73-.27,1.21Z"/>
    <path class="cls-5" d="M908.32,137.91c0,1.59-.21,3.06-.64,4.4-.42,1.34-1.06,2.58-1.9,3.72h-2.18c.33-.42.63-.94.91-1.55.28-.61.52-1.28.73-2.01.21-.73.37-1.48.49-2.26s.18-1.55.18-2.3c0-1.01-.1-2.03-.3-3.07-.2-1.04-.48-2-.82-2.88-.35-.89-.74-1.61-1.17-2.17h2.18c.84,1.14,1.47,2.38,1.9,3.72.42,1.34.64,2.81.64,4.41Z"/>
  </g>
  <g>
    <path class="cls-5" d="M766.86,491.93h2.9l3.89,9.49h.15l3.89-9.49h2.9v13.09h-2.28v-8.99h-.12l-3.62,8.96h-1.7l-3.62-8.97h-.12v9.01h-2.28v-13.09Z"/>
    <path class="cls-5" d="M783.17,505.02v-13.09h8.39v1.99h-6.01v3.55h5.44v1.99h-5.44v5.56h-2.37Z"/>
    <path class="cls-5" d="M793.76,505.02h-2.53l4.61-13.09h2.93l4.62,13.09h-2.53l-3.5-10.41h-.1l-3.49,10.41ZM793.84,499.88h6.9v1.91h-6.9v-1.91Z"/>
    <path class="cls-5" d="M810.05,498.47c0-1.6.21-3.07.64-4.41.42-1.34,1.06-2.58,1.9-3.72h2.18c-.32.42-.63.94-.91,1.55-.28.61-.53,1.28-.73,2.01-.21.73-.37,1.48-.49,2.26-.12.78-.18,1.55-.18,2.31,0,1.01.1,2.03.3,3.07.2,1.04.48,2,.82,2.88.35.88.74,1.61,1.17,2.17h-2.18c-.84-1.14-1.47-2.38-1.9-3.72s-.64-2.81-.64-4.4Z"/>
    <path class="cls-5" d="M816.66,491.93h2.9l3.89,9.49h.15l3.89-9.49h2.9v13.09h-2.28v-8.99h-.12l-3.62,8.96h-1.7l-3.62-8.97h-.12v9.01h-2.28v-13.09Z"/>
    <path class="cls-5" d="M839.12,500.89v-5.69h2.31v9.82h-2.24v-1.75h-.1c-.22.55-.58,1-1.09,1.35s-1.13.52-1.86.52c-.64,0-1.21-.14-1.7-.43-.49-.29-.88-.71-1.15-1.26s-.42-1.22-.42-2v-6.25h2.31v5.89c0,.62.17,1.12.51,1.48.34.37.79.55,1.34.55.34,0,.67-.08.99-.25.32-.17.58-.41.79-.74s.31-.75.31-1.24Z"/>
    <path class="cls-5" d="M846.13,491.93v13.09h-2.31v-13.09h2.31Z"/>
    <path class="cls-5" d="M853.41,495.2v1.79h-5.64v-1.79h5.64ZM849.16,492.85h2.31v9.22c0,.31.05.55.14.71s.22.28.38.33c.16.06.33.09.52.09.14,0,.28-.01.4-.03.12-.02.21-.04.28-.06l.39,1.81c-.12.04-.3.09-.53.14-.23.05-.51.08-.83.09-.58.02-1.1-.07-1.57-.26-.46-.19-.83-.5-1.1-.9s-.4-.92-.4-1.53v-9.6Z"/>
    <path class="cls-5" d="M856.51,493.8c-.37,0-.68-.12-.95-.37s-.4-.54-.4-.89.13-.64.4-.89.58-.37.95-.37.69.12.95.37c.26.25.39.54.39.89s-.13.64-.39.89c-.26.25-.58.37-.95.37ZM855.35,505.02v-9.82h2.31v9.82h-2.31Z"/>
    <path class="cls-5" d="M864.61,505.02v-13.09h8.39v1.99h-6.01v3.55h5.44v1.99h-5.44v5.56h-2.37Z"/>
    <path class="cls-5" d="M877.79,505.21c-.62,0-1.18-.11-1.68-.34-.5-.22-.89-.55-1.18-.99-.29-.44-.43-.98-.43-1.62,0-.55.1-1.01.31-1.37.21-.36.48-.65.84-.87.35-.22.75-.38,1.2-.5.45-.11.91-.19,1.38-.25.58-.06,1.04-.11,1.4-.16.36-.05.62-.12.78-.23s.25-.27.25-.49v-.04c0-.48-.14-.85-.43-1.12-.29-.26-.7-.4-1.23-.4-.57,0-1.02.12-1.35.37s-.55.54-.67.88l-2.16-.31c.17-.6.45-1.1.84-1.5.39-.4.87-.71,1.44-.91s1.19-.3,1.88-.3c.47,0,.94.06,1.41.17.47.11.9.29,1.29.55.39.25.7.6.94,1.03.24.43.35.98.35,1.63v6.57h-2.22v-1.35h-.08c-.14.27-.34.53-.59.76s-.57.43-.95.57c-.38.14-.83.21-1.34.21ZM878.39,503.51c.46,0,.87-.09,1.21-.28s.6-.43.79-.74.28-.64.28-1v-1.16c-.07.06-.2.12-.37.17-.17.05-.37.1-.58.13-.21.04-.42.07-.63.1-.21.03-.39.06-.54.08-.35.05-.65.12-.93.23s-.49.25-.65.44c-.16.19-.24.43-.24.73,0,.43.16.75.47.96.31.22.71.33,1.19.33Z"/>
    <path class="cls-5" d="M889.59,505.21c-.98,0-1.82-.21-2.52-.65-.7-.43-1.24-1.03-1.62-1.79s-.57-1.64-.57-2.63.19-1.88.58-2.64c.38-.76.93-1.36,1.63-1.79.7-.43,1.53-.64,2.49-.64.8,0,1.5.15,2.12.44.62.29,1.11.7,1.47,1.23.37.53.58,1.15.63,1.86h-2.21c-.09-.47-.3-.87-.64-1.19-.33-.32-.78-.48-1.34-.48-.47,0-.89.13-1.25.38-.36.25-.64.62-.83,1.09s-.3,1.04-.3,1.7.1,1.24.29,1.72c.2.48.47.85.83,1.11.36.26.77.39,1.26.39.34,0,.65-.06.92-.19s.5-.32.68-.57c.18-.25.31-.55.38-.9h2.21c-.06.69-.26,1.31-.61,1.84-.35.54-.83.95-1.44,1.25s-1.33.45-2.15.45Z"/>
    <path class="cls-5" d="M900.6,495.2v1.79h-5.64v-1.79h5.64ZM896.35,492.85h2.31v9.22c0,.31.05.55.14.71s.22.28.38.33c.16.06.33.09.52.09.14,0,.28-.01.4-.03.12-.02.21-.04.28-.06l.39,1.81c-.12.04-.3.09-.53.14-.23.05-.51.08-.83.09-.58.02-1.1-.07-1.57-.26-.46-.19-.83-.5-1.1-.9s-.4-.92-.4-1.53v-9.6Z"/>
    <path class="cls-5" d="M906.72,505.21c-.96,0-1.79-.21-2.49-.63s-1.25-1.01-1.63-1.77c-.39-.76-.58-1.64-.58-2.66s.19-1.9.58-2.67.93-1.36,1.63-1.78,1.53-.63,2.49-.63,1.79.21,2.49.63,1.25,1.01,1.63,1.78.58,1.65.58,2.67-.19,1.9-.58,2.66c-.39.76-.93,1.35-1.63,1.77s-1.53.63-2.49.63ZM906.73,503.35c.52,0,.95-.14,1.3-.43.35-.29.61-.67.78-1.16.17-.49.26-1.03.26-1.62s-.09-1.15-.26-1.63c-.17-.49-.43-.88-.78-1.17s-.78-.43-1.3-.43-.97.14-1.33.43-.61.68-.79,1.17c-.17.49-.26,1.03-.26,1.63s.09,1.14.26,1.62c.17.49.43.87.79,1.16.35.29.79.43,1.33.43Z"/>
    <path class="cls-5" d="M913.38,505.02v-9.82h2.24v1.64h.1c.18-.57.49-1,.92-1.31.44-.31.94-.46,1.5-.46.13,0,.27,0,.43.02.16,0,.29.03.4.05v2.13c-.1-.03-.25-.06-.46-.09-.21-.03-.42-.04-.61-.04-.42,0-.8.09-1.13.27-.33.18-.6.43-.79.75-.19.32-.29.69-.29,1.11v5.77h-2.31Z"/>
    <path class="cls-5" d="M768.54,526.62h-2.53l4.61-13.09h2.93l4.62,13.09h-2.53l-3.5-10.41h-.1l-3.49,10.41ZM768.63,521.48h6.9v1.91h-6.9v-1.91Z"/>
    <path class="cls-5" d="M786.04,522.49v-5.69h2.31v9.82h-2.24v-1.75h-.1c-.22.55-.58,1-1.09,1.35s-1.13.52-1.86.52c-.64,0-1.21-.14-1.7-.43-.49-.29-.88-.71-1.15-1.26s-.42-1.22-.42-2v-6.25h2.31v5.89c0,.62.17,1.12.51,1.48.34.37.79.55,1.34.55.34,0,.67-.08.99-.25.32-.17.58-.41.79-.74s.31-.75.31-1.24Z"/>
    <path class="cls-5" d="M795.64,516.8v1.79h-5.64v-1.79h5.64ZM791.39,514.45h2.31v9.22c0,.31.05.55.14.71s.22.28.38.33c.16.06.33.09.52.09.14,0,.28-.01.4-.03.12-.02.21-.04.28-.06l.39,1.81c-.12.04-.3.09-.53.14-.23.05-.51.08-.83.09-.58.02-1.1-.07-1.57-.26-.46-.19-.83-.5-1.1-.9s-.4-.92-.4-1.53v-9.6Z"/>
    <path class="cls-5" d="M800.09,520.86v5.75h-2.31v-13.09h2.26v4.94h.11c.23-.55.59-.99,1.07-1.31.48-.32,1.1-.48,1.85-.48.68,0,1.28.14,1.78.43.51.29.9.7,1.18,1.25.28.55.42,1.22.42,2.01v6.25h-2.31v-5.89c0-.66-.17-1.17-.51-1.54-.34-.37-.81-.55-1.42-.55-.41,0-.77.09-1.1.27-.32.18-.57.43-.75.76-.18.33-.27.74-.27,1.21Z"/>
    <path class="cls-5" d="M813.16,526.81c-.98,0-1.83-.21-2.55-.62s-1.26-1-1.65-1.75c-.38-.76-.58-1.65-.58-2.67s.19-1.9.58-2.66.93-1.36,1.62-1.79c.69-.43,1.51-.64,2.45-.64.61,0,1.18.1,1.72.29.54.19,1.02.49,1.43.9.42.4.74.92.98,1.54.24.62.36,1.37.36,2.23v.71h-8.05v-1.56h5.83c0-.44-.1-.84-.29-1.19s-.45-.62-.78-.82c-.33-.2-.72-.3-1.17-.3-.47,0-.89.11-1.25.34-.36.23-.64.53-.83.9-.2.37-.3.77-.3,1.21v1.36c0,.57.1,1.06.31,1.47.21.41.5.72.88.93s.81.32,1.32.32c.34,0,.64-.05.91-.14s.51-.24.71-.42c.2-.19.35-.42.45-.7l2.16.24c-.14.57-.4,1.07-.78,1.49-.38.42-.87.75-1.46.98-.59.23-1.27.35-2.03.35Z"/>
    <path class="cls-5" d="M821.79,520.86v5.75h-2.31v-9.82h2.21v1.67h.12c.23-.55.59-.99,1.08-1.31.5-.32,1.11-.49,1.84-.49.68,0,1.27.15,1.77.43.5.29.9.71,1.18,1.26.28.55.42,1.22.41,2v6.25h-2.31v-5.89c0-.66-.17-1.17-.51-1.54-.34-.37-.81-.56-1.4-.56-.4,0-.76.09-1.08.27-.31.18-.56.43-.73.76-.18.33-.27.74-.27,1.21Z"/>
    <path class="cls-5" d="M835.36,516.8v1.79h-5.64v-1.79h5.64ZM831.11,514.45h2.31v9.22c0,.31.05.55.14.71s.22.28.38.33c.16.06.33.09.52.09.14,0,.28-.01.4-.03.12-.02.21-.04.28-.06l.39,1.81c-.12.04-.3.09-.53.14-.23.05-.51.08-.83.09-.58.02-1.1-.07-1.57-.26-.46-.19-.83-.5-1.1-.9s-.4-.92-.4-1.53v-9.6Z"/>
    <path class="cls-5" d="M838.46,515.4c-.37,0-.68-.12-.95-.37s-.4-.54-.4-.89.13-.64.4-.89.58-.37.95-.37.69.12.95.37c.26.25.39.54.39.89s-.13.64-.39.89c-.26.25-.58.37-.95.37ZM837.29,526.62v-9.82h2.31v9.82h-2.31Z"/>
    <path class="cls-5" d="M846.27,526.81c-.98,0-1.82-.21-2.52-.65-.7-.43-1.24-1.03-1.62-1.79s-.57-1.64-.57-2.63.19-1.88.58-2.64c.38-.76.93-1.36,1.63-1.79.7-.43,1.53-.64,2.49-.64.8,0,1.5.15,2.12.44.62.29,1.11.7,1.47,1.23.37.53.58,1.15.63,1.86h-2.21c-.09-.47-.3-.87-.64-1.19-.33-.32-.78-.48-1.34-.48-.47,0-.89.13-1.25.38-.36.25-.64.62-.83,1.09s-.3,1.04-.3,1.7.1,1.24.29,1.72c.2.48.47.85.83,1.11.36.26.77.39,1.26.39.34,0,.65-.06.92-.19s.5-.32.68-.57c.18-.25.31-.55.38-.9h2.21c-.06.69-.26,1.31-.61,1.84-.35.54-.83.95-1.44,1.25s-1.33.45-2.15.45Z"/>
    <path class="cls-5" d="M855.21,526.81c-.62,0-1.18-.11-1.68-.34-.5-.22-.89-.55-1.18-.99-.29-.44-.43-.98-.43-1.62,0-.55.1-1.01.31-1.37.21-.36.48-.65.84-.87.35-.22.75-.38,1.2-.5.45-.11.91-.19,1.38-.25.58-.06,1.04-.11,1.4-.16.36-.05.62-.12.78-.23s.25-.27.25-.49v-.04c0-.48-.14-.85-.43-1.12-.29-.26-.7-.4-1.23-.4-.57,0-1.02.12-1.35.37s-.55.54-.67.88l-2.16-.31c.17-.6.45-1.1.84-1.5.39-.4.87-.71,1.44-.91s1.19-.3,1.88-.3c.47,0,.94.06,1.41.17.47.11.9.29,1.29.55.39.25.7.6.94,1.03.24.43.35.98.35,1.63v6.57h-2.22v-1.35h-.08c-.14.27-.34.53-.59.76s-.57.43-.95.57c-.38.14-.83.21-1.34.21ZM855.81,525.11c.46,0,.87-.09,1.21-.28s.6-.43.79-.74.28-.64.28-1v-1.16c-.07.06-.2.12-.37.17-.17.05-.37.1-.58.13-.21.04-.42.07-.63.1-.21.03-.39.06-.54.08-.35.05-.65.12-.93.23s-.49.25-.65.44c-.16.19-.24.43-.24.73,0,.43.16.75.47.96.31.22.71.33,1.19.33Z"/>
    <path class="cls-5" d="M867.62,516.8v1.79h-5.64v-1.79h5.64ZM863.37,514.45h2.31v9.22c0,.31.05.55.14.71s.22.28.38.33c.16.06.33.09.52.09.14,0,.28-.01.4-.03.12-.02.21-.04.28-.06l.39,1.81c-.12.04-.3.09-.53.14-.23.05-.51.08-.83.09-.58.02-1.1-.07-1.57-.26-.46-.19-.83-.5-1.1-.9s-.4-.92-.4-1.53v-9.6Z"/>
    <path class="cls-5" d="M870.73,515.4c-.37,0-.68-.12-.95-.37s-.4-.54-.4-.89.13-.64.4-.89.58-.37.95-.37.69.12.95.37c.26.25.39.54.39.89s-.13.64-.39.89c-.26.25-.58.37-.95.37ZM869.56,526.62v-9.82h2.31v9.82h-2.31Z"/>
    <path class="cls-5" d="M878.54,526.81c-.96,0-1.79-.21-2.49-.63s-1.25-1.01-1.63-1.77c-.39-.76-.58-1.64-.58-2.66s.19-1.9.58-2.67.93-1.36,1.63-1.78,1.53-.63,2.49-.63,1.79.21,2.49.63,1.25,1.01,1.63,1.78.58,1.65.58,2.67-.19,1.9-.58,2.66c-.39.76-.93,1.35-1.63,1.77s-1.53.63-2.49.63ZM878.55,524.95c.52,0,.95-.14,1.3-.43.35-.29.61-.67.78-1.16.17-.49.26-1.03.26-1.62s-.09-1.15-.26-1.63c-.17-.49-.43-.88-.78-1.17s-.78-.43-1.3-.43-.97.14-1.33.43-.61.68-.79,1.17c-.17.49-.26,1.03-.26,1.63s.09,1.14.26,1.62c.17.49.43.87.79,1.16.35.29.79.43,1.33.43Z"/>
    <path class="cls-5" d="M887.51,520.86v5.75h-2.31v-9.82h2.21v1.67h.12c.23-.55.59-.99,1.08-1.31.5-.32,1.11-.49,1.84-.49.68,0,1.27.15,1.77.43.5.29.9.71,1.18,1.26.28.55.42,1.22.41,2v6.25h-2.31v-5.89c0-.66-.17-1.17-.51-1.54-.34-.37-.81-.56-1.4-.56-.4,0-.76.09-1.08.27-.31.18-.56.43-.73.76-.18.33-.27.74-.27,1.21Z"/>
    <path class="cls-5" d="M900.3,521.28c0,1.59-.21,3.06-.64,4.4-.42,1.34-1.06,2.58-1.9,3.72h-2.18c.33-.42.63-.94.91-1.55.28-.61.52-1.28.73-2.01.21-.73.37-1.48.49-2.26.12-.78.18-1.55.18-2.3,0-1.01-.1-2.03-.3-3.07-.2-1.04-.48-2-.82-2.88-.35-.89-.74-1.61-1.17-2.17h2.18c.84,1.14,1.47,2.38,1.9,3.72.42,1.34.64,2.81.64,4.41Z"/>
  </g>
  <g>
    <path class="cls-5" d="M36.81,505.02v-13.09h2.37v11.1h5.77v1.99h-8.14Z"/>
    <path class="cls-5" d="M51.24,505.21c-.98,0-1.83-.21-2.55-.62s-1.26-1-1.65-1.75c-.38-.76-.58-1.65-.58-2.67s.19-1.9.58-2.66.93-1.36,1.62-1.79c.7-.43,1.51-.64,2.45-.64.6,0,1.18.1,1.72.29.54.19,1.02.49,1.43.9.42.4.74.92.98,1.54.24.62.36,1.37.36,2.23v.71h-8.05v-1.56h5.83c0-.44-.1-.84-.29-1.19s-.45-.62-.78-.82c-.33-.2-.72-.3-1.17-.3-.47,0-.89.11-1.25.34-.36.23-.64.53-.83.9-.2.37-.3.77-.3,1.21v1.36c0,.57.1,1.06.31,1.47.21.41.5.72.88.93s.81.32,1.32.32c.34,0,.64-.05.91-.14.27-.1.51-.24.71-.42.2-.19.35-.42.46-.7l2.16.24c-.14.57-.4,1.07-.78,1.49-.38.42-.87.75-1.46.98-.59.23-1.27.35-2.03.35Z"/>
    <path class="cls-5" d="M60.39,505.21c-.62,0-1.18-.11-1.68-.34s-.89-.55-1.18-.99c-.29-.44-.43-.98-.43-1.62,0-.55.1-1.01.31-1.37s.48-.65.84-.87c.35-.22.75-.38,1.2-.5.45-.11.91-.19,1.38-.25.58-.06,1.04-.11,1.4-.16s.62-.12.78-.23.25-.27.25-.49v-.04c0-.48-.14-.85-.43-1.12-.29-.26-.7-.4-1.23-.4-.57,0-1.01.12-1.34.37-.33.25-.55.54-.67.88l-2.16-.31c.17-.6.45-1.1.84-1.5.39-.4.87-.71,1.44-.91s1.19-.3,1.88-.3c.47,0,.94.06,1.41.17.47.11.9.29,1.29.55.39.25.7.6.94,1.03.24.43.35.98.35,1.63v6.57h-2.22v-1.35h-.08c-.14.27-.34.53-.59.76-.25.24-.57.43-.95.57-.38.14-.83.21-1.34.21ZM60.99,503.51c.46,0,.87-.09,1.21-.28.34-.19.6-.43.79-.74.18-.31.28-.64.28-1v-1.16c-.07.06-.2.12-.37.17s-.37.1-.58.13c-.21.04-.42.07-.63.1-.21.03-.39.06-.54.08-.34.05-.65.12-.93.23-.27.11-.49.25-.65.44s-.24.43-.24.73c0,.43.16.75.47.96s.71.33,1.19.33Z"/>
    <path class="cls-5" d="M75.67,497.79l-2.11.23c-.06-.21-.16-.41-.31-.6s-.34-.34-.59-.45c-.25-.12-.55-.17-.91-.17-.48,0-.89.1-1.21.31-.33.21-.49.48-.48.81,0,.29.1.52.32.7.22.18.57.33,1.07.44l1.67.36c.93.2,1.62.52,2.07.95.45.44.68,1,.69,1.71,0,.62-.18,1.16-.54,1.63-.36.47-.85.84-1.48,1.1-.63.26-1.36.4-2.17.4-1.2,0-2.17-.25-2.9-.76s-1.17-1.21-1.31-2.11l2.26-.22c.1.44.32.78.65,1,.33.23.77.34,1.3.34s.99-.11,1.33-.34c.33-.23.5-.51.5-.84,0-.28-.11-.51-.32-.7-.21-.18-.55-.32-1-.42l-1.67-.35c-.94-.2-1.64-.53-2.09-.99s-.67-1.06-.67-1.77c0-.6.16-1.13.5-1.58s.8-.79,1.4-1.04c.6-.25,1.29-.37,2.07-.37,1.15,0,2.06.25,2.72.74.66.49,1.07,1.15,1.23,1.99Z"/>
    <path class="cls-5" d="M82.69,495.2v1.79h-5.64v-1.79h5.64ZM78.44,492.85h2.31v9.22c0,.31.05.55.14.71.1.16.22.28.38.33.16.06.33.09.52.09.15,0,.28-.01.4-.03.12-.02.21-.04.28-.06l.39,1.81c-.12.04-.3.09-.53.14-.23.05-.51.08-.83.09-.58.02-1.1-.07-1.57-.26-.46-.19-.83-.5-1.1-.9s-.4-.92-.4-1.53v-9.6Z"/>
    <path class="cls-5" d="M89.2,505.02v-13.09h4.91c1.01,0,1.85.19,2.54.56s1.2.89,1.55,1.54.53,1.4.53,2.23-.18,1.58-.53,2.24c-.35.65-.88,1.16-1.57,1.54-.69.37-1.54.56-2.55.56h-3.25v-1.95h2.93c.59,0,1.07-.1,1.45-.31s.65-.49.83-.84.27-.77.27-1.23-.09-.87-.27-1.23-.46-.63-.84-.83c-.38-.2-.86-.3-1.45-.3h-2.17v11.11h-2.37Z"/>
    <path class="cls-5" d="M100.68,505.02v-9.82h2.24v1.64h.1c.18-.57.49-1,.92-1.31.44-.31.94-.46,1.5-.46.13,0,.27,0,.43.02.16,0,.29.03.4.05v2.13c-.1-.03-.25-.06-.46-.09-.21-.03-.41-.04-.61-.04-.42,0-.8.09-1.13.27-.33.18-.6.43-.79.75-.19.32-.29.69-.29,1.11v5.77h-2.31Z"/>
    <path class="cls-5" d="M108.98,493.8c-.37,0-.68-.12-.95-.37s-.4-.54-.4-.89.13-.64.4-.89.58-.37.95-.37.69.12.95.37.39.54.39.89-.13.64-.39.89-.58.37-.95.37ZM107.82,505.02v-9.82h2.31v9.82h-2.31Z"/>
    <path class="cls-5" d="M121.28,495.2l-3.5,9.82h-2.56l-3.5-9.82h2.47l2.26,7.29h.1l2.26-7.29h2.46Z"/>
    <path class="cls-5" d="M124.04,493.8c-.37,0-.68-.12-.95-.37s-.4-.54-.4-.89.13-.64.4-.89.58-.37.95-.37.69.12.95.37c.26.25.39.54.39.89s-.13.64-.39.89c-.26.25-.58.37-.95.37ZM122.88,505.02v-9.82h2.31v9.82h-2.31Z"/>
    <path class="cls-5" d="M129.89,491.93v13.09h-2.31v-13.09h2.31Z"/>
    <path class="cls-5" d="M136.61,505.21c-.98,0-1.83-.21-2.55-.62-.71-.41-1.26-1-1.65-1.75-.38-.76-.58-1.65-.58-2.67s.19-1.9.58-2.66c.39-.76.93-1.36,1.62-1.79.69-.43,1.51-.64,2.45-.64.61,0,1.18.1,1.72.29.54.19,1.02.49,1.43.9.42.4.74.92.98,1.54.24.62.36,1.37.36,2.23v.71h-8.05v-1.56h5.83c0-.44-.1-.84-.29-1.19s-.45-.62-.78-.82c-.33-.2-.72-.3-1.17-.3-.47,0-.89.11-1.25.34-.36.23-.64.53-.83.9-.2.37-.3.77-.3,1.21v1.36c0,.57.1,1.06.31,1.47.21.41.5.72.88.93s.81.32,1.32.32c.34,0,.64-.05.91-.14.27-.1.51-.24.71-.42s.35-.42.45-.7l2.16.24c-.14.57-.4,1.07-.78,1.49-.38.42-.87.75-1.46.98-.59.23-1.27.35-2.03.35Z"/>
    <path class="cls-5" d="M147.2,508.9c-.83,0-1.54-.11-2.14-.34s-1.08-.52-1.44-.9c-.36-.38-.61-.79-.75-1.25l2.08-.5c.09.19.23.38.41.57.18.19.42.35.72.47s.69.19,1.15.19c.66,0,1.2-.16,1.63-.48.43-.32.65-.84.65-1.56v-1.86h-.12c-.12.24-.29.48-.52.74-.23.25-.53.46-.9.63-.37.17-.84.26-1.4.26-.75,0-1.44-.18-2.05-.53-.61-.36-1.1-.89-1.46-1.6-.36-.71-.54-1.6-.54-2.67s.18-1.99.54-2.73c.36-.74.85-1.31,1.46-1.69.61-.39,1.3-.58,2.05-.58.58,0,1.05.1,1.42.29.37.19.67.43.89.7.22.27.39.52.5.76h.13v-1.62h2.28v9.98c0,.84-.2,1.53-.6,2.08-.4.55-.95.96-1.64,1.23-.69.27-1.48.41-2.36.41ZM147.22,503.06c.49,0,.91-.12,1.25-.36.34-.24.61-.58.79-1.03.18-.45.27-.98.27-1.61s-.09-1.16-.27-1.62c-.18-.46-.44-.83-.78-1.08s-.76-.39-1.26-.39-.95.13-1.29.4c-.34.27-.61.64-.78,1.1-.17.47-.26,1-.26,1.59s.09,1.13.26,1.58c.18.45.44.8.79,1.05s.77.37,1.28.37Z"/>
    <path class="cls-5" d="M158.53,505.21c-.98,0-1.83-.21-2.55-.62-.71-.41-1.26-1-1.65-1.75-.38-.76-.58-1.65-.58-2.67s.19-1.9.58-2.66c.38-.76.93-1.36,1.62-1.79.7-.43,1.51-.64,2.45-.64.6,0,1.18.1,1.72.29.54.19,1.02.49,1.43.9.42.4.74.92.98,1.54.24.62.36,1.37.36,2.23v.71h-8.05v-1.56h5.83c0-.44-.1-.84-.29-1.19s-.45-.62-.78-.82-.72-.3-1.17-.3c-.47,0-.89.11-1.25.34-.36.23-.64.53-.83.9-.2.37-.3.77-.3,1.21v1.36c0,.57.1,1.06.31,1.47.21.41.5.72.88.93s.81.32,1.32.32c.34,0,.64-.05.91-.14.27-.1.51-.24.71-.42s.35-.42.45-.7l2.16.24c-.14.57-.39,1.07-.78,1.49-.38.42-.87.75-1.46.98-.59.23-1.27.35-2.03.35Z"/>
    <path class="cls-5" d="M172.15,505.21c-.62,0-1.18-.11-1.68-.34-.5-.22-.89-.55-1.18-.99-.29-.44-.43-.98-.43-1.62,0-.55.1-1.01.31-1.37.2-.36.48-.65.84-.87.35-.22.75-.38,1.2-.5.45-.11.91-.19,1.38-.25.58-.06,1.04-.11,1.4-.16.36-.05.62-.12.78-.23s.25-.27.25-.49v-.04c0-.48-.14-.85-.43-1.12-.29-.26-.7-.4-1.23-.4-.57,0-1.01.12-1.34.37-.33.25-.55.54-.67.88l-2.16-.31c.17-.6.45-1.1.84-1.5.39-.4.87-.71,1.44-.91.57-.2,1.19-.3,1.88-.3.47,0,.94.06,1.41.17.47.11.9.29,1.29.55.39.25.7.6.94,1.03.24.43.36.98.36,1.63v6.57h-2.22v-1.35h-.08c-.14.27-.34.53-.59.76s-.57.43-.95.57c-.38.14-.83.21-1.34.21ZM172.75,503.51c.46,0,.87-.09,1.21-.28s.6-.43.79-.74.28-.64.28-1v-1.16c-.07.06-.19.12-.37.17-.17.05-.37.1-.58.13-.21.04-.42.07-.63.1-.21.03-.39.06-.54.08-.35.05-.65.12-.93.23s-.49.25-.65.44c-.16.19-.24.43-.24.73,0,.43.16.75.47.96.31.22.71.33,1.19.33Z"/>
    <path class="cls-5" d="M181.98,499.26v5.75h-2.31v-9.82h2.21v1.67h.12c.23-.55.59-.99,1.08-1.31.5-.32,1.11-.49,1.84-.49.68,0,1.27.15,1.77.43.5.29.9.71,1.18,1.26s.42,1.22.41,2v6.25h-2.31v-5.89c0-.66-.17-1.17-.51-1.54-.34-.37-.81-.56-1.4-.56-.41,0-.76.09-1.08.27-.31.18-.56.43-.73.76-.18.33-.27.74-.27,1.21Z"/>
    <path class="cls-5" d="M194.28,505.19c-.77,0-1.46-.2-2.07-.59s-1.09-.97-1.44-1.73c-.35-.75-.53-1.67-.53-2.75s.18-2.01.54-2.76c.36-.75.85-1.32,1.46-1.71.61-.39,1.3-.58,2.05-.58.58,0,1.05.1,1.42.29.37.19.66.43.88.7.22.27.39.52.5.76h.1v-4.9h2.32v13.09h-2.28v-1.55h-.14c-.12.24-.29.49-.52.76-.23.27-.52.49-.89.68-.37.19-.84.28-1.4.28ZM194.93,503.29c.49,0,.91-.13,1.25-.4.35-.27.61-.64.79-1.12.18-.48.27-1.03.27-1.67s-.09-1.19-.27-1.66c-.18-.47-.44-.83-.78-1.09-.34-.26-.76-.39-1.26-.39s-.95.13-1.29.4-.61.64-.78,1.11c-.17.47-.26,1.01-.26,1.62s.09,1.16.27,1.64c.18.48.44.86.79,1.13.35.27.78.41,1.28.41Z"/>
    <path class="cls-5" d="M24.5,526.62v-13.09h8.51v1.99h-6.14v3.55h5.7v1.99h-5.7v3.57h6.19v1.99h-8.57Z"/>
    <path class="cls-5" d="M37.65,520.86v5.75h-2.31v-9.82h2.21v1.67h.12c.23-.55.59-.99,1.08-1.31.5-.32,1.11-.49,1.84-.49.68,0,1.27.15,1.77.43.5.29.9.71,1.18,1.26s.42,1.22.41,2v6.25h-2.31v-5.89c0-.66-.17-1.17-.51-1.54-.34-.37-.81-.56-1.4-.56-.41,0-.76.09-1.08.27-.31.18-.56.43-.73.76-.18.33-.27.74-.27,1.21Z"/>
    <path class="cls-5" d="M49.95,526.79c-.77,0-1.46-.2-2.07-.59s-1.09-.97-1.44-1.73c-.35-.75-.53-1.67-.53-2.75s.18-2.01.54-2.76c.36-.75.85-1.32,1.46-1.71.61-.39,1.3-.58,2.05-.58.58,0,1.05.1,1.42.29.37.19.66.43.88.7.22.27.39.52.5.76h.1v-4.9h2.32v13.09h-2.28v-1.55h-.14c-.12.24-.29.49-.52.76-.23.27-.52.49-.89.68-.37.19-.84.28-1.4.28ZM50.6,524.89c.49,0,.91-.13,1.25-.4.35-.27.61-.64.79-1.12.18-.48.27-1.03.27-1.67s-.09-1.19-.27-1.66c-.18-.47-.44-.83-.78-1.09-.34-.26-.76-.39-1.26-.39s-.95.13-1.29.4-.61.64-.78,1.11c-.17.47-.26,1.01-.26,1.62s.09,1.16.27,1.64c.18.48.44.86.79,1.13.35.27.78.41,1.28.41Z"/>
    <path class="cls-5" d="M62.23,526.62v-13.09h4.91c1.01,0,1.85.19,2.54.56.68.38,1.2.89,1.55,1.54s.53,1.4.53,2.23-.18,1.58-.53,2.24c-.35.65-.88,1.16-1.57,1.54s-1.54.56-2.55.56h-3.25v-1.95h2.93c.59,0,1.07-.1,1.45-.31s.65-.49.83-.84c.18-.36.27-.77.27-1.23s-.09-.87-.27-1.23c-.18-.35-.46-.63-.84-.83s-.86-.3-1.45-.3h-2.17v11.11h-2.37Z"/>
    <path class="cls-5" d="M77.85,526.81c-.96,0-1.79-.21-2.49-.63s-1.25-1.01-1.63-1.77c-.39-.76-.58-1.64-.58-2.66s.19-1.9.58-2.67.93-1.36,1.63-1.78,1.53-.63,2.49-.63,1.79.21,2.49.63,1.25,1.01,1.63,1.78.58,1.65.58,2.67-.19,1.9-.58,2.66c-.39.76-.93,1.35-1.63,1.77s-1.53.63-2.49.63ZM77.86,524.95c.52,0,.95-.14,1.3-.43.35-.29.61-.67.78-1.16.17-.49.26-1.03.26-1.62s-.09-1.15-.26-1.63c-.17-.49-.43-.88-.78-1.17s-.78-.43-1.3-.43-.97.14-1.33.43-.61.68-.79,1.17c-.17.49-.26,1.03-.26,1.63s.09,1.14.26,1.62c.17.49.43.87.79,1.16.35.29.79.43,1.33.43Z"/>
    <path class="cls-5" d="M85.67,515.4c-.37,0-.68-.12-.95-.37-.26-.25-.4-.54-.4-.89s.13-.64.4-.89c.26-.25.58-.37.95-.37s.69.12.95.37c.26.25.39.54.39.89s-.13.64-.39.89c-.26.25-.58.37-.95.37ZM84.51,526.62v-9.82h2.31v9.82h-2.31Z"/>
    <path class="cls-5" d="M91.51,520.86v5.75h-2.31v-9.82h2.21v1.67h.12c.23-.55.59-.99,1.08-1.31.5-.32,1.11-.49,1.84-.49.68,0,1.27.15,1.77.43.5.29.9.71,1.18,1.26s.42,1.22.41,2v6.25h-2.31v-5.89c0-.66-.17-1.17-.51-1.54-.34-.37-.81-.56-1.4-.56-.41,0-.76.09-1.08.27-.31.18-.56.43-.73.76-.18.33-.27.74-.27,1.21Z"/>
    <path class="cls-5" d="M105.08,516.8v1.79h-5.64v-1.79h5.64ZM100.83,514.45h2.31v9.22c0,.31.05.55.14.71.1.16.22.28.38.33.16.06.33.09.52.09.14,0,.28-.01.4-.03.12-.02.21-.04.28-.06l.39,1.81c-.12.04-.3.09-.53.14-.23.05-.51.08-.83.09-.58.02-1.1-.07-1.57-.26-.46-.19-.83-.5-1.1-.9-.27-.41-.4-.92-.4-1.53v-9.6Z"/>
    <path class="cls-5" d="M111.58,526.62v-13.09h4.91c1.01,0,1.85.19,2.53.56s1.2.89,1.55,1.54.53,1.4.53,2.23-.18,1.58-.53,2.24c-.35.65-.88,1.16-1.57,1.54s-1.54.56-2.55.56h-3.25v-1.95h2.93c.59,0,1.07-.1,1.44-.31s.65-.49.83-.84c.18-.36.27-.77.27-1.23s-.09-.87-.27-1.23c-.18-.35-.46-.63-.84-.83-.38-.2-.86-.3-1.45-.3h-2.17v11.11h-2.37Z"/>
    <path class="cls-5" d="M123.06,526.62v-9.82h2.24v1.64h.1c.18-.57.49-1,.92-1.31.44-.31.94-.46,1.5-.46.13,0,.27,0,.43.02.16,0,.29.03.4.05v2.13c-.1-.03-.25-.06-.46-.09-.21-.03-.41-.04-.61-.04-.42,0-.8.09-1.13.27-.33.18-.6.43-.79.75s-.29.69-.29,1.11v5.77h-2.31Z"/>
    <path class="cls-5" d="M134.08,526.81c-.96,0-1.79-.21-2.49-.63s-1.25-1.01-1.63-1.77c-.38-.76-.58-1.64-.58-2.66s.19-1.9.58-2.67c.39-.76.93-1.36,1.63-1.78s1.54-.63,2.49-.63,1.79.21,2.49.63,1.25,1.01,1.63,1.78c.39.76.58,1.65.58,2.67s-.19,1.9-.58,2.66c-.38.76-.93,1.35-1.63,1.77s-1.53.63-2.49.63ZM134.09,524.95c.52,0,.96-.14,1.3-.43.35-.29.61-.67.78-1.16.17-.49.26-1.03.26-1.62s-.09-1.15-.26-1.63c-.17-.49-.43-.88-.78-1.17s-.78-.43-1.3-.43-.97.14-1.33.43-.61.68-.79,1.17c-.17.49-.26,1.03-.26,1.63s.09,1.14.26,1.62c.17.49.43.87.79,1.16.35.29.79.43,1.33.43Z"/>
    <path class="cls-5" d="M145.64,516.8v1.79h-5.64v-1.79h5.64ZM141.39,514.45h2.31v9.22c0,.31.05.55.14.71s.22.28.38.33c.16.06.33.09.52.09.14,0,.28-.01.4-.03.12-.02.21-.04.28-.06l.39,1.81c-.12.04-.3.09-.53.14-.23.05-.51.08-.83.09-.58.02-1.1-.07-1.57-.26-.46-.19-.83-.5-1.1-.9s-.4-.92-.4-1.53v-9.6Z"/>
    <path class="cls-5" d="M151.82,526.81c-.98,0-1.83-.21-2.55-.62s-1.26-1-1.65-1.75c-.38-.76-.58-1.65-.58-2.67s.19-1.9.58-2.66.93-1.36,1.62-1.79c.7-.43,1.51-.64,2.45-.64.6,0,1.18.1,1.72.29.54.19,1.02.49,1.43.9.42.4.74.92.98,1.54.24.62.36,1.37.36,2.23v.71h-8.05v-1.56h5.83c0-.44-.1-.84-.29-1.19s-.45-.62-.78-.82c-.33-.2-.72-.3-1.17-.3-.47,0-.89.11-1.25.34-.36.23-.64.53-.83.9-.2.37-.3.77-.3,1.21v1.36c0,.57.1,1.06.31,1.47.21.41.5.72.88.93s.81.32,1.32.32c.34,0,.64-.05.91-.14.27-.1.51-.24.71-.42.2-.19.35-.42.46-.7l2.16.24c-.14.57-.4,1.07-.78,1.49-.38.42-.87.75-1.46.98-.59.23-1.27.35-2.03.35Z"/>
    <path class="cls-5" d="M162.43,526.81c-.98,0-1.82-.21-2.52-.65-.7-.43-1.24-1.03-1.62-1.79s-.57-1.64-.57-2.63.19-1.88.58-2.64c.38-.76.93-1.36,1.63-1.79.7-.43,1.53-.64,2.49-.64.8,0,1.5.15,2.12.44.62.29,1.11.7,1.47,1.23.37.53.57,1.15.63,1.86h-2.21c-.09-.47-.3-.87-.64-1.19s-.78-.48-1.34-.48c-.47,0-.89.13-1.25.38s-.64.62-.83,1.09-.3,1.04-.3,1.7.1,1.24.29,1.72c.2.48.47.85.83,1.11.36.26.77.39,1.26.39.34,0,.65-.06.92-.19s.5-.32.68-.57.31-.55.38-.9h2.21c-.06.69-.26,1.31-.61,1.84s-.83.95-1.44,1.25-1.33.45-2.15.45Z"/>
    <path class="cls-5" d="M173.44,516.8v1.79h-5.64v-1.79h5.64ZM169.19,514.45h2.31v9.22c0,.31.05.55.14.71s.22.28.38.33c.16.06.33.09.52.09.14,0,.28-.01.4-.03.12-.02.21-.04.28-.06l.39,1.81c-.12.04-.3.09-.53.14-.23.05-.51.08-.83.09-.58.02-1.1-.07-1.57-.26-.46-.19-.83-.5-1.1-.9s-.4-.92-.4-1.53v-9.6Z"/>
    <path class="cls-5" d="M176.54,515.4c-.37,0-.68-.12-.95-.37-.26-.25-.4-.54-.4-.89s.13-.64.4-.89c.26-.25.58-.37.95-.37s.69.12.95.37.39.54.39.89-.13.64-.39.89-.58.37-.95.37ZM175.38,526.62v-9.82h2.31v9.82h-2.31Z"/>
    <path class="cls-5" d="M184.35,526.81c-.96,0-1.79-.21-2.49-.63s-1.25-1.01-1.63-1.77c-.39-.76-.58-1.64-.58-2.66s.19-1.9.58-2.67c.38-.76.93-1.36,1.63-1.78s1.53-.63,2.49-.63,1.79.21,2.49.63,1.25,1.01,1.63,1.78.58,1.65.58,2.67-.19,1.9-.58,2.66c-.39.76-.93,1.35-1.63,1.77s-1.54.63-2.49.63ZM184.36,524.95c.52,0,.96-.14,1.3-.43.35-.29.61-.67.78-1.16.17-.49.26-1.03.26-1.62s-.09-1.15-.26-1.63c-.17-.49-.43-.88-.78-1.17-.35-.29-.79-.43-1.3-.43s-.97.14-1.33.43-.61.68-.79,1.17c-.17.49-.26,1.03-.26,1.63s.09,1.14.26,1.62c.17.49.44.87.79,1.16.35.29.79.43,1.33.43Z"/>
    <path class="cls-5" d="M193.32,520.86v5.75h-2.31v-9.82h2.21v1.67h.12c.22-.55.59-.99,1.08-1.31.5-.32,1.11-.49,1.84-.49.68,0,1.27.15,1.77.43.5.29.9.71,1.18,1.26s.42,1.22.41,2v6.25h-2.31v-5.89c0-.66-.17-1.17-.51-1.54-.34-.37-.81-.56-1.4-.56-.41,0-.76.09-1.08.27s-.56.43-.74.76-.27.74-.27,1.21Z"/>
  </g>
  <g>
    <path class="cls-5" d="M146.21,121.64v-13.09h4.91c1.01,0,1.85.19,2.54.56s1.2.89,1.55,1.54c.35.65.53,1.4.53,2.23s-.18,1.59-.53,2.24c-.35.65-.88,1.16-1.57,1.54-.69.37-1.54.56-2.55.56h-3.25v-1.95h2.93c.59,0,1.07-.1,1.45-.31s.65-.49.83-.84.27-.77.27-1.23-.09-.87-.27-1.23-.46-.63-.84-.83c-.38-.2-.86-.3-1.45-.3h-2.17v11.11h-2.37Z"/>
    <path class="cls-5" d="M161.83,121.84c-.96,0-1.79-.21-2.49-.63s-1.25-1.01-1.63-1.77c-.39-.76-.58-1.65-.58-2.66s.19-1.9.58-2.67c.38-.76.93-1.35,1.63-1.78s1.53-.63,2.49-.63,1.79.21,2.49.63,1.25,1.01,1.63,1.78.58,1.65.58,2.67-.19,1.9-.58,2.66c-.39.76-.93,1.35-1.63,1.77s-1.54.63-2.49.63ZM161.84,119.98c.52,0,.96-.14,1.3-.43.35-.29.61-.67.78-1.16s.26-1.03.26-1.62-.09-1.15-.26-1.63-.43-.88-.78-1.17c-.35-.29-.79-.43-1.3-.43s-.97.14-1.33.43c-.35.29-.61.68-.79,1.17-.17.49-.26,1.03-.26,1.63s.09,1.14.26,1.62c.17.49.44.87.79,1.16s.79.43,1.33.43Z"/>
    <path class="cls-5" d="M170.8,108.55v13.09h-2.31v-13.09h2.31Z"/>
    <path class="cls-5" d="M174.34,110.43c-.37,0-.68-.12-.95-.37-.26-.25-.4-.54-.4-.89s.13-.64.4-.89c.26-.25.58-.37.95-.37s.69.12.95.37.39.54.39.89-.13.64-.39.89-.58.37-.95.37ZM173.18,121.64v-9.82h2.31v9.82h-2.31Z"/>
    <path class="cls-5" d="M182.16,121.84c-.98,0-1.82-.22-2.52-.65-.7-.43-1.24-1.03-1.62-1.79-.38-.76-.56-1.64-.56-2.63s.19-1.88.57-2.64c.38-.77.93-1.36,1.63-1.79s1.53-.64,2.49-.64c.8,0,1.5.15,2.12.44.62.29,1.11.7,1.47,1.23.37.53.58,1.15.63,1.86h-2.21c-.09-.47-.3-.87-.64-1.19-.33-.32-.78-.48-1.34-.48-.47,0-.89.13-1.25.38s-.64.62-.83,1.09-.3,1.04-.3,1.7.1,1.24.29,1.72c.2.48.47.85.83,1.11s.78.39,1.26.39c.34,0,.65-.06.92-.19.27-.13.5-.32.68-.57.18-.25.31-.55.38-.9h2.21c-.06.69-.26,1.31-.61,1.84-.35.53-.84.95-1.45,1.25s-1.33.45-2.15.45Z"/>
    <path class="cls-5" d="M189.7,125.33c-.32,0-.61-.02-.87-.07-.27-.05-.48-.11-.64-.17l.54-1.8c.34.1.64.15.9.14s.5-.09.7-.25c.2-.16.37-.42.51-.8l.2-.53-3.56-10.02h2.46l2.26,7.42h.1l2.27-7.42h2.46l-3.93,11.01c-.18.52-.43.97-.73,1.34-.3.37-.67.66-1.11.86-.44.2-.96.3-1.56.3Z"/>
    <path class="cls-5" d="M84.2,130.15h2.9l3.89,9.49h.15l3.89-9.49h2.9v13.09h-2.28v-8.99h-.12l-3.62,8.96h-1.7l-3.62-8.97h-.12v9.01h-2.28v-13.09Z"/>
    <path class="cls-5" d="M103.23,143.44c-.62,0-1.18-.11-1.68-.34-.5-.22-.89-.56-1.18-.99-.29-.44-.43-.98-.43-1.62,0-.55.1-1.01.31-1.37.2-.36.48-.65.84-.87s.75-.38,1.2-.5c.45-.11.91-.19,1.38-.25.58-.06,1.04-.11,1.4-.16.36-.05.62-.13.78-.23.16-.1.25-.27.25-.49v-.04c0-.48-.14-.85-.43-1.12-.29-.26-.7-.4-1.23-.4-.57,0-1.02.12-1.35.37s-.55.54-.67.88l-2.16-.31c.17-.6.45-1.1.84-1.5.39-.4.87-.71,1.44-.91.57-.2,1.19-.3,1.88-.3.47,0,.94.06,1.41.17s.9.29,1.28.55c.39.25.7.6.94,1.03.24.44.36.98.36,1.63v6.57h-2.22v-1.35h-.08c-.14.27-.34.53-.59.76-.25.24-.57.43-.95.57-.38.14-.83.21-1.34.21ZM103.83,141.74c.46,0,.87-.09,1.21-.28.34-.19.6-.43.79-.74.19-.31.28-.64.28-1v-1.16c-.07.06-.19.12-.37.17-.17.05-.37.1-.58.13-.21.04-.42.07-.63.1s-.39.06-.54.08c-.35.05-.65.12-.93.23-.27.11-.49.25-.65.44-.16.19-.24.43-.24.73,0,.43.16.75.47.97s.71.33,1.19.33Z"/>
    <path class="cls-5" d="M113.06,137.49v5.75h-2.31v-9.82h2.21v1.67h.12c.23-.55.59-.99,1.08-1.31.5-.32,1.11-.49,1.84-.49.68,0,1.27.14,1.77.43.5.29.9.71,1.18,1.26.28.55.42,1.22.41,2v6.25h-2.31v-5.89c0-.66-.17-1.17-.51-1.54-.34-.37-.81-.56-1.4-.56-.41,0-.76.09-1.08.27-.31.18-.56.43-.73.76-.18.33-.27.73-.27,1.21Z"/>
    <path class="cls-5" d="M124.55,143.44c-.62,0-1.18-.11-1.68-.34-.5-.22-.89-.56-1.18-.99-.29-.44-.43-.98-.43-1.62,0-.55.1-1.01.31-1.37.21-.36.48-.65.84-.87.35-.22.75-.38,1.2-.5.45-.11.91-.19,1.38-.25.58-.06,1.04-.11,1.4-.16.36-.05.62-.13.78-.23.16-.1.25-.27.25-.49v-.04c0-.48-.14-.85-.43-1.12-.29-.26-.7-.4-1.23-.4-.57,0-1.01.12-1.34.37-.33.25-.55.54-.67.88l-2.16-.31c.17-.6.45-1.1.84-1.5.39-.4.87-.71,1.44-.91.57-.2,1.19-.3,1.88-.3.47,0,.94.06,1.41.17s.9.29,1.29.55c.39.25.7.6.94,1.03.24.44.35.98.35,1.63v6.57h-2.22v-1.35h-.08c-.14.27-.34.53-.59.76-.25.24-.57.43-.95.57-.38.14-.83.21-1.34.21ZM125.15,141.74c.46,0,.87-.09,1.21-.28.34-.19.6-.43.79-.74.18-.31.28-.64.28-1v-1.16c-.07.06-.2.12-.37.17s-.37.1-.58.13c-.21.04-.42.07-.63.1-.21.03-.39.06-.54.08-.34.05-.65.12-.93.23-.27.11-.49.25-.65.44-.16.19-.24.43-.24.73,0,.43.16.75.47.97s.71.33,1.19.33Z"/>
    <path class="cls-5" d="M136.34,147.13c-.83,0-1.54-.11-2.14-.34s-1.08-.52-1.44-.9c-.36-.38-.61-.79-.75-1.25l2.08-.5c.09.19.23.38.41.57.18.19.42.35.73.47.3.13.69.19,1.15.19.66,0,1.2-.16,1.63-.48.43-.32.65-.84.65-1.56v-1.86h-.12c-.12.24-.29.48-.52.73-.23.25-.53.46-.9.63-.37.17-.84.26-1.4.26-.75,0-1.44-.18-2.05-.53s-1.1-.89-1.46-1.6c-.36-.71-.54-1.6-.54-2.67s.18-1.99.54-2.73c.36-.74.85-1.31,1.46-1.69.61-.39,1.3-.58,2.05-.58.58,0,1.05.1,1.42.29.37.19.67.43.89.7.22.27.39.53.51.76h.13v-1.62h2.28v9.98c0,.84-.2,1.53-.6,2.08s-.95.96-1.64,1.23c-.7.27-1.48.41-2.37.41ZM136.36,141.29c.49,0,.91-.12,1.25-.36.35-.24.61-.58.79-1.03.18-.45.27-.98.27-1.61s-.09-1.16-.27-1.62c-.18-.46-.44-.83-.78-1.08-.34-.26-.76-.39-1.26-.39s-.95.13-1.29.4c-.35.27-.61.64-.78,1.1-.17.47-.26,1-.26,1.59s.09,1.13.27,1.58c.18.45.44.8.79,1.05.35.25.77.37,1.28.37Z"/>
    <path class="cls-5" d="M147.67,143.44c-.98,0-1.83-.21-2.55-.62-.71-.41-1.26-.99-1.65-1.75s-.58-1.65-.58-2.68.19-1.9.58-2.66c.39-.77.93-1.36,1.62-1.79.69-.43,1.51-.64,2.45-.64.61,0,1.18.1,1.72.29s1.02.49,1.43.9c.42.41.74.92.98,1.54.24.62.36,1.37.36,2.23v.71h-8.05v-1.56h5.83c0-.44-.1-.84-.29-1.19-.19-.35-.45-.62-.78-.82-.33-.2-.72-.3-1.17-.3-.47,0-.89.11-1.25.34s-.64.53-.83.89c-.2.37-.3.77-.3,1.21v1.36c0,.57.1,1.06.31,1.47.21.41.5.72.88.93s.81.32,1.32.32c.34,0,.64-.05.91-.14.27-.1.51-.24.71-.43s.35-.42.45-.7l2.16.24c-.14.57-.4,1.07-.78,1.49-.38.42-.87.75-1.46.98-.59.23-1.27.35-2.03.35Z"/>
    <path class="cls-5" d="M153.99,143.24v-9.82h2.21v1.67h.12c.21-.56.54-1,1.02-1.32.47-.32,1.04-.48,1.69-.48s1.23.16,1.68.48c.46.32.78.76.97,1.31h.1c.22-.55.58-.98,1.1-1.31s1.13-.49,1.84-.49c.9,0,1.64.29,2.21.86.57.57.86,1.4.86,2.5v6.59h-2.32v-6.23c0-.61-.16-1.06-.49-1.34-.32-.28-.72-.43-1.19-.43-.56,0-.99.17-1.31.52-.31.35-.47.8-.47,1.35v6.12h-2.27v-6.33c0-.51-.15-.91-.46-1.21-.3-.3-.7-.45-1.19-.45-.33,0-.63.08-.91.25-.27.17-.49.41-.65.71-.16.31-.24.66-.24,1.06v5.97h-2.31Z"/>
    <path class="cls-5" d="M174.5,143.44c-.98,0-1.83-.21-2.55-.62-.71-.41-1.26-.99-1.65-1.75-.38-.76-.58-1.65-.58-2.68s.19-1.9.58-2.66c.38-.77.93-1.36,1.62-1.79.7-.43,1.51-.64,2.45-.64.6,0,1.18.1,1.72.29s1.02.49,1.43.9c.42.41.74.92.98,1.54s.36,1.37.36,2.23v.71h-8.05v-1.56h5.83c0-.44-.1-.84-.29-1.19-.19-.35-.45-.62-.78-.82-.33-.2-.72-.3-1.17-.3-.47,0-.89.11-1.25.34s-.64.53-.83.89c-.2.37-.3.77-.3,1.21v1.36c0,.57.1,1.06.31,1.47.21.41.5.72.88.93s.81.32,1.32.32c.34,0,.64-.05.91-.14.27-.1.51-.24.71-.43s.35-.42.45-.7l2.16.24c-.14.57-.39,1.07-.78,1.49-.38.42-.87.75-1.46.98-.59.23-1.27.35-2.03.35Z"/>
    <path class="cls-5" d="M183.13,137.49v5.75h-2.31v-9.82h2.21v1.67h.12c.23-.55.59-.99,1.08-1.31.5-.32,1.11-.49,1.84-.49.68,0,1.27.14,1.77.43.51.29.9.71,1.18,1.26.28.55.42,1.22.41,2v6.25h-2.31v-5.89c0-.66-.17-1.17-.51-1.54-.34-.37-.81-.56-1.4-.56-.4,0-.76.09-1.08.27-.31.18-.56.43-.74.76-.18.33-.26.73-.26,1.21Z"/>
    <path class="cls-5" d="M196.7,133.43v1.79h-5.64v-1.79h5.64ZM192.45,131.07h2.31v9.22c0,.31.05.55.14.71s.22.28.38.34c.16.06.33.09.52.09.15,0,.28-.01.4-.03.12-.02.21-.04.28-.06l.39,1.81c-.12.04-.3.09-.53.14-.23.05-.51.08-.83.09-.58.02-1.1-.07-1.57-.27s-.83-.5-1.1-.9c-.27-.41-.4-.92-.4-1.53v-9.6Z"/>
  </g>
  <g>
    <path class="cls-7" d="M448.13,300.18h-2.81l5.12-14.55h3.25l5.13,14.55h-2.81l-3.88-11.56h-.11l-3.88,11.56ZM448.22,294.47h7.67v2.12h-7.67v-2.12Z"/>
    <path class="cls-7" d="M465.04,300.39c-1.09,0-2.02-.24-2.8-.72-.78-.48-1.38-1.14-1.8-1.98-.42-.85-.63-1.82-.63-2.92s.21-2.09.64-2.94c.43-.85,1.03-1.51,1.81-1.99.78-.48,1.7-.71,2.77-.71.89,0,1.67.16,2.36.49.68.32,1.23.78,1.64,1.37.41.59.64,1.28.7,2.06h-2.46c-.1-.53-.34-.96-.71-1.32-.37-.35-.87-.53-1.49-.53-.53,0-.99.14-1.38.42-.4.28-.71.69-.93,1.21-.22.53-.33,1.16-.33,1.89s.11,1.38.33,1.91c.22.53.52.94.92,1.23.39.29.86.43,1.39.43.38,0,.72-.07,1.02-.22s.55-.35.76-.63c.21-.27.34-.61.42-1h2.46c-.06.77-.29,1.45-.68,2.05s-.93,1.06-1.61,1.39c-.68.33-1.47.5-2.39.5Z"/>
    <path class="cls-7" d="M476.59,300.39c-1.09,0-2.02-.24-2.8-.72-.78-.48-1.38-1.14-1.8-1.98-.42-.85-.63-1.82-.63-2.92s.21-2.09.64-2.94c.43-.85,1.03-1.51,1.81-1.99.78-.48,1.7-.71,2.77-.71.88,0,1.67.16,2.35.49s1.23.78,1.64,1.37c.41.59.64,1.28.7,2.06h-2.46c-.1-.53-.34-.96-.71-1.32-.37-.35-.87-.53-1.49-.53-.53,0-.99.14-1.38.42-.4.28-.71.69-.93,1.21-.22.53-.33,1.16-.33,1.89s.11,1.38.33,1.91c.22.53.53.94.92,1.23.4.29.86.43,1.4.43.38,0,.72-.07,1.02-.22s.55-.35.76-.63c.2-.27.34-.61.42-1h2.46c-.06.77-.29,1.45-.68,2.05-.39.59-.93,1.06-1.61,1.39-.68.33-1.47.5-2.39.5Z"/>
    <path class="cls-7" d="M488.21,300.39c-1.09,0-2.04-.23-2.83-.69s-1.4-1.11-1.83-1.95c-.43-.84-.64-1.83-.64-2.97s.21-2.11.64-2.96c.43-.85,1.03-1.51,1.8-1.99.77-.48,1.68-.71,2.72-.71.67,0,1.31.11,1.91.32s1.13.55,1.59,1c.46.45.82,1.02,1.09,1.71.27.69.4,1.52.4,2.48v.79h-8.94v-1.73h6.48c0-.49-.11-.93-.32-1.32s-.5-.69-.87-.91c-.37-.22-.8-.33-1.3-.33-.53,0-.99.13-1.38.38-.4.25-.71.58-.93.99-.22.41-.33.86-.34,1.35v1.51c0,.63.12,1.18.35,1.63s.56.8.97,1.04.9.36,1.46.36c.38,0,.71-.05,1.02-.16s.57-.26.79-.47.39-.47.5-.77l2.4.27c-.15.63-.44,1.19-.86,1.66s-.96.84-1.62,1.09c-.66.26-1.41.39-2.26.39Z"/>
    <path class="cls-7" d="M503.85,292.15l-2.34.26c-.07-.24-.18-.46-.35-.67-.16-.21-.38-.38-.66-.5s-.61-.19-1.01-.19c-.54,0-.98.12-1.35.35-.36.23-.54.53-.54.9,0,.32.11.58.35.77.24.2.63.36,1.19.49l1.86.4c1.03.22,1.8.58,2.3,1.06.5.48.76,1.12.76,1.9,0,.69-.21,1.29-.6,1.81-.39.52-.94.93-1.64,1.23-.7.29-1.51.44-2.42.44-1.33,0-2.41-.28-3.22-.84s-1.3-1.34-1.46-2.35l2.51-.24c.12.49.36.86.72,1.12s.85.38,1.44.38,1.1-.12,1.47-.38.56-.56.56-.93c0-.31-.12-.57-.36-.77-.24-.2-.61-.36-1.11-.47l-1.86-.39c-1.05-.22-1.82-.59-2.32-1.1s-.75-1.18-.75-1.97c0-.67.18-1.26.55-1.75s.89-.88,1.55-1.15c.67-.27,1.43-.41,2.3-.41,1.28,0,2.29.27,3.02.82s1.19,1.28,1.37,2.21Z"/>
    <path class="cls-7" d="M514.83,292.15l-2.34.26c-.07-.24-.18-.46-.35-.67-.16-.21-.38-.38-.66-.5s-.61-.19-1.01-.19c-.54,0-.98.12-1.35.35-.36.23-.54.53-.54.9,0,.32.11.58.35.77.24.2.63.36,1.19.49l1.86.4c1.03.22,1.8.58,2.3,1.06.5.48.76,1.12.76,1.9,0,.69-.21,1.29-.6,1.81-.39.52-.94.93-1.64,1.23-.7.29-1.51.44-2.42.44-1.33,0-2.41-.28-3.22-.84s-1.3-1.34-1.46-2.35l2.51-.24c.12.49.36.86.72,1.12s.85.38,1.44.38,1.1-.12,1.47-.38.56-.56.56-.93c0-.31-.12-.57-.36-.77-.24-.2-.61-.36-1.11-.47l-1.86-.39c-1.05-.22-1.82-.59-2.32-1.1s-.75-1.18-.75-1.97c0-.67.18-1.26.55-1.75s.89-.88,1.55-1.15c.67-.27,1.43-.41,2.3-.41,1.28,0,2.29.27,3.02.82s1.19,1.28,1.37,2.21Z"/>
    <path class="cls-7" d="M420.63,309.63h3.22l4.32,10.54h.17l4.32-10.54h3.22v14.55h-2.53v-9.99h-.14l-4.02,9.95h-1.89l-4.02-9.97h-.14v10.01h-2.53v-14.55Z"/>
    <path class="cls-7" d="M441.78,324.4c-.69,0-1.31-.12-1.86-.37-.55-.25-.99-.62-1.31-1.1s-.48-1.09-.48-1.8c0-.62.11-1.12.34-1.53s.54-.72.93-.97c.39-.24.84-.42,1.33-.55.49-.13,1.01-.22,1.54-.27.64-.07,1.16-.13,1.56-.18.4-.05.69-.14.87-.26.18-.12.27-.3.27-.54v-.04c0-.54-.16-.95-.48-1.24-.32-.29-.77-.44-1.37-.44-.63,0-1.13.14-1.5.41s-.61.6-.74.97l-2.4-.34c.19-.66.5-1.22.94-1.67.44-.45.97-.78,1.6-1.01.63-.22,1.33-.34,2.09-.34.53,0,1.05.06,1.57.18.52.12,1,.33,1.43.61.43.28.78.66,1.04,1.15s.39,1.09.39,1.81v7.3h-2.47v-1.5h-.09c-.16.3-.38.59-.66.85-.28.26-.63.47-1.06.63s-.92.24-1.49.24ZM442.45,322.51c.52,0,.96-.1,1.34-.31s.67-.48.88-.82c.21-.34.31-.71.31-1.12v-1.29c-.08.07-.22.13-.41.18-.19.06-.41.11-.64.15-.24.04-.47.08-.7.11-.23.03-.43.06-.6.09-.38.05-.73.14-1.03.26-.3.12-.54.28-.72.49-.18.21-.26.48-.26.81,0,.47.17.83.52,1.07.35.24.79.36,1.32.36Z"/>
    <path class="cls-7" d="M452.71,317.78v6.39h-2.57v-10.91h2.46v1.85h.13c.25-.61.65-1.1,1.2-1.46.55-.36,1.24-.54,2.05-.54.75,0,1.41.16,1.97.48.56.32,1,.79,1.31,1.4.31.61.46,1.35.46,2.22v6.95h-2.57v-6.55c0-.73-.19-1.3-.56-1.71-.38-.41-.9-.62-1.56-.62-.45,0-.85.1-1.2.29s-.62.48-.82.85c-.2.37-.29.82-.29,1.34Z"/>
    <path class="cls-7" d="M465.47,324.4c-.69,0-1.31-.12-1.86-.37-.55-.25-.99-.62-1.31-1.1s-.48-1.09-.48-1.8c0-.62.11-1.12.34-1.53.23-.4.54-.72.93-.97.39-.24.84-.42,1.33-.55s1.01-.22,1.54-.27c.64-.07,1.16-.13,1.56-.18.4-.05.69-.14.87-.26.18-.12.27-.3.27-.54v-.04c0-.54-.16-.95-.48-1.24-.32-.29-.77-.44-1.37-.44-.63,0-1.13.14-1.5.41s-.61.6-.74.97l-2.4-.34c.19-.66.5-1.22.94-1.67.44-.45.97-.78,1.6-1.01.63-.22,1.33-.34,2.09-.34.53,0,1.05.06,1.57.18.52.12,1,.33,1.43.61s.78.66,1.04,1.15c.26.48.39,1.09.39,1.81v7.3h-2.47v-1.5h-.09c-.16.3-.38.59-.66.85s-.63.47-1.06.63-.92.24-1.49.24ZM466.14,322.51c.52,0,.96-.1,1.34-.31.38-.21.67-.48.88-.82.21-.34.31-.71.31-1.12v-1.29c-.08.07-.22.13-.41.18-.19.06-.41.11-.64.15-.24.04-.47.08-.7.11-.23.03-.43.06-.61.09-.38.05-.73.14-1.03.26-.3.12-.54.28-.72.49-.18.21-.26.48-.26.81,0,.47.17.83.52,1.07.35.24.79.36,1.32.36Z"/>
    <path class="cls-7" d="M478.57,328.5c-.92,0-1.72-.12-2.38-.37-.66-.25-1.2-.58-1.6-1-.4-.42-.68-.88-.84-1.38l2.32-.56c.1.21.26.42.45.64.2.21.47.39.81.53s.77.21,1.28.21c.73,0,1.33-.18,1.81-.53.48-.35.72-.93.72-1.74v-2.07h-.13c-.13.27-.33.54-.58.82-.25.28-.59.51-1,.7-.42.19-.94.28-1.56.28-.84,0-1.6-.2-2.28-.59s-1.22-.99-1.62-1.78-.6-1.78-.6-2.97.2-2.21.6-3.04.94-1.45,1.62-1.88c.68-.43,1.44-.64,2.28-.64.64,0,1.17.11,1.58.32s.74.47.99.77c.25.3.43.58.56.85h.14v-1.8h2.54v11.09c0,.93-.22,1.71-.67,2.32s-1.05,1.07-1.83,1.37c-.77.3-1.65.45-2.63.45ZM478.59,322c.54,0,1.01-.13,1.39-.4.38-.27.68-.65.88-1.14.2-.5.3-1.09.3-1.79s-.1-1.29-.29-1.8c-.2-.52-.48-.92-.87-1.2-.38-.29-.85-.43-1.4-.43s-1.05.15-1.44.45-.67.71-.87,1.23c-.19.52-.29,1.11-.29,1.76s.1,1.25.29,1.75c.2.5.49.89.88,1.16.38.28.86.42,1.42.42Z"/>
    <path class="cls-7" d="M491.16,324.39c-1.09,0-2.04-.23-2.83-.68s-1.4-1.11-1.83-1.95c-.43-.84-.64-1.83-.64-2.97s.21-2.11.64-2.96c.43-.85,1.03-1.51,1.8-1.99.77-.48,1.68-.71,2.72-.71.67,0,1.31.11,1.91.32s1.13.55,1.59,1c.46.45.82,1.02,1.09,1.71.27.69.4,1.52.4,2.48v.79h-8.94v-1.73h6.48c0-.49-.11-.93-.32-1.32s-.5-.69-.87-.91c-.37-.22-.8-.33-1.3-.33-.53,0-.99.13-1.38.38-.4.25-.71.58-.93.99-.22.41-.33.86-.34,1.35v1.51c0,.63.12,1.18.35,1.63s.56.8.97,1.04.9.36,1.46.36c.38,0,.71-.05,1.02-.16s.57-.26.79-.47c.22-.21.39-.47.5-.77l2.4.27c-.15.63-.44,1.19-.86,1.66-.42.47-.96.84-1.62,1.09s-1.41.39-2.26.39Z"/>
    <path class="cls-7" d="M498.18,324.18v-10.91h2.46v1.85h.13c.23-.62.6-1.11,1.13-1.47s1.15-.53,1.88-.53,1.36.18,1.87.54c.51.36.87.84,1.08,1.46h.11c.24-.61.65-1.09,1.22-1.45.58-.36,1.26-.54,2.05-.54,1,0,1.82.32,2.46.95.63.63.95,1.56.95,2.78v7.32h-2.58v-6.92c0-.68-.18-1.17-.54-1.49-.36-.31-.8-.47-1.32-.47-.62,0-1.11.19-1.45.58-.35.39-.52.89-.52,1.5v6.8h-2.52v-7.03c0-.56-.17-1.01-.51-1.35-.34-.34-.78-.5-1.32-.5-.37,0-.71.09-1.01.28-.3.19-.54.45-.72.79s-.27.73-.27,1.18v6.63h-2.57Z"/>
    <path class="cls-7" d="M520.97,324.39c-1.09,0-2.04-.23-2.83-.68s-1.4-1.11-1.83-1.95c-.43-.84-.64-1.83-.64-2.97s.21-2.11.64-2.96c.43-.85,1.03-1.51,1.8-1.99.77-.48,1.68-.71,2.72-.71.67,0,1.31.11,1.91.32s1.13.55,1.59,1c.46.45.82,1.02,1.09,1.71.27.69.4,1.52.4,2.48v.79h-8.94v-1.73h6.48c0-.49-.11-.93-.32-1.32s-.5-.69-.87-.91c-.37-.22-.8-.33-1.3-.33-.53,0-.99.13-1.38.38-.4.25-.71.58-.93.99-.22.41-.33.86-.34,1.35v1.51c0,.63.12,1.18.35,1.63s.56.8.97,1.04.9.36,1.46.36c.38,0,.71-.05,1.02-.16s.57-.26.79-.47c.22-.21.39-.47.5-.77l2.4.27c-.15.63-.44,1.19-.86,1.66-.42.47-.96.84-1.62,1.09s-1.41.39-2.26.39Z"/>
    <path class="cls-7" d="M530.56,317.78v6.39h-2.57v-10.91h2.46v1.85h.13c.25-.61.65-1.1,1.2-1.46.55-.36,1.23-.54,2.05-.54.75,0,1.41.16,1.97.48.56.32,1,.79,1.31,1.4.31.61.46,1.35.46,2.22v6.95h-2.57v-6.55c0-.73-.19-1.3-.57-1.71-.38-.41-.89-.62-1.56-.62-.45,0-.85.1-1.2.29-.35.2-.62.48-.82.85-.2.37-.29.82-.29,1.34Z"/>
    <path class="cls-7" d="M545.63,313.27v1.99h-6.27v-1.99h6.27ZM540.91,310.65h2.57v10.24c0,.35.05.61.16.79.11.18.25.31.42.37s.37.1.58.1c.16,0,.31-.01.45-.04.13-.02.24-.04.31-.06l.43,2.01c-.14.05-.33.1-.59.16-.25.06-.56.09-.93.1-.64.02-1.22-.08-1.74-.29-.52-.21-.92-.55-1.22-1-.3-.45-.45-1.02-.44-1.7v-10.67Z"/>
    <path class="cls-7" d="M446.24,348.18v-14.54h5.46c1.12,0,2.06.19,2.82.58.76.39,1.33.93,1.73,1.63s.59,1.51.59,2.44-.2,1.74-.59,2.43c-.4.68-.98,1.21-1.74,1.58-.77.37-1.71.56-2.83.56h-3.88v-2.19h3.53c.65,0,1.19-.09,1.6-.27.42-.18.73-.45.93-.8.2-.35.3-.79.3-1.3s-.1-.96-.31-1.32c-.2-.37-.51-.65-.93-.84-.42-.19-.95-.29-1.61-.29h-2.42v12.34h-2.63ZM453.75,341.59l3.6,6.59h-2.94l-3.54-6.59h2.88Z"/>
    <path class="cls-7" d="M463.81,348.39c-1.09,0-2.04-.23-2.83-.69-.79-.46-1.4-1.11-1.83-1.95-.43-.84-.64-1.83-.64-2.97s.21-2.11.64-2.96c.43-.85,1.03-1.51,1.8-1.99.77-.48,1.68-.71,2.72-.71.67,0,1.31.11,1.91.32.6.21,1.13.55,1.59,1,.46.45.83,1.02,1.09,1.72.27.69.4,1.52.4,2.47v.79h-8.94v-1.73h6.48c0-.49-.11-.93-.32-1.32-.21-.39-.5-.69-.87-.91-.37-.22-.8-.33-1.3-.33-.53,0-.99.13-1.38.38-.4.25-.71.58-.93.99-.22.41-.33.86-.34,1.35v1.51c0,.63.12,1.18.35,1.63.23.45.56.8.97,1.04.42.24.9.36,1.46.36.37,0,.71-.05,1.02-.16.3-.11.56-.26.79-.47s.39-.47.5-.77l2.4.27c-.15.63-.44,1.19-.86,1.66-.42.47-.96.84-1.62,1.09s-1.41.39-2.26.39Z"/>
    <path class="cls-7" d="M476.36,337.27v1.99h-6.45v-1.99h6.45ZM471.52,348.18v-11.94c0-.73.15-1.34.46-1.83.3-.49.72-.85,1.23-1.09.52-.24,1.09-.36,1.72-.36.45,0,.84.04,1.19.11.35.07.6.13.77.19l-.51,1.99c-.11-.03-.25-.07-.41-.1-.17-.04-.35-.05-.55-.05-.48,0-.81.12-1.01.34-.2.23-.29.56-.29.98v11.77h-2.58Z"/>
    <path class="cls-7" d="M482.79,348.39c-1.09,0-2.04-.23-2.83-.69-.79-.46-1.4-1.11-1.83-1.95-.43-.84-.64-1.83-.64-2.97s.21-2.11.64-2.96c.43-.85,1.03-1.51,1.8-1.99.77-.48,1.68-.71,2.72-.71.67,0,1.31.11,1.91.32.6.21,1.13.55,1.59,1,.46.45.83,1.02,1.09,1.72.27.69.4,1.52.4,2.47v.79h-8.94v-1.73h6.48c0-.49-.11-.93-.32-1.32-.21-.39-.5-.69-.87-.91-.37-.22-.8-.33-1.3-.33-.53,0-.99.13-1.38.38-.4.25-.71.58-.93.99-.22.41-.33.86-.34,1.35v1.51c0,.63.12,1.18.35,1.63s.56.8.97,1.04c.42.24.9.36,1.46.36.37,0,.71-.05,1.02-.16.3-.11.56-.26.79-.47s.39-.47.5-.77l2.4.27c-.15.63-.44,1.19-.86,1.66-.42.47-.96.84-1.62,1.09s-1.41.39-2.26.39Z"/>
    <path class="cls-7" d="M489.82,348.18v-10.91h2.49v1.82h.11c.2-.63.54-1.12,1.03-1.46.48-.34,1.04-.51,1.66-.51.14,0,.3,0,.48.02s.32.03.44.05v2.37c-.11-.04-.28-.07-.52-.1-.23-.03-.46-.05-.68-.05-.47,0-.89.1-1.26.3-.37.2-.66.48-.88.83-.21.35-.32.76-.32,1.23v6.41h-2.57Z"/>
    <path class="cls-7" d="M497.75,348.18v-10.91h2.49v1.82h.12c.2-.63.54-1.12,1.03-1.46.49-.34,1.04-.51,1.67-.51.14,0,.3,0,.48.02s.33.03.45.05v2.37c-.11-.04-.28-.07-.52-.1-.23-.03-.46-.05-.68-.05-.47,0-.89.1-1.26.3s-.66.48-.88.83c-.21.35-.32.76-.32,1.23v6.41h-2.57Z"/>
    <path class="cls-7" d="M508.62,348.4c-.69,0-1.31-.12-1.87-.37-.55-.25-.99-.62-1.31-1.1-.32-.49-.48-1.09-.48-1.8,0-.62.11-1.12.34-1.53.23-.4.54-.72.93-.97.39-.24.84-.42,1.33-.55.49-.12,1.01-.22,1.54-.27.64-.07,1.16-.13,1.55-.18.4-.05.69-.14.87-.26.18-.12.27-.3.27-.54v-.04c0-.54-.16-.95-.48-1.24-.32-.29-.77-.44-1.37-.44-.63,0-1.13.14-1.49.41s-.62.6-.74.97l-2.4-.34c.19-.66.5-1.22.94-1.67s.97-.78,1.6-1.01c.63-.22,1.33-.34,2.09-.34.53,0,1.05.06,1.57.18.52.12,1,.33,1.43.61.43.28.78.66,1.04,1.15.26.48.39,1.09.39,1.81v7.3h-2.47v-1.5h-.09c-.16.3-.38.59-.66.85-.28.26-.63.47-1.06.63-.42.16-.92.24-1.49.24ZM509.28,346.51c.52,0,.96-.1,1.34-.31.38-.21.67-.48.88-.82.21-.34.31-.71.31-1.12v-1.29c-.08.07-.22.13-.41.18-.19.06-.41.11-.64.15-.24.04-.47.08-.7.11s-.43.06-.6.08c-.38.05-.73.14-1.03.26-.3.12-.54.28-.72.49-.17.21-.26.48-.26.81,0,.47.17.83.52,1.07s.79.36,1.32.36Z"/>
    <path class="cls-7" d="M519.54,333.63v14.54h-2.57v-14.54h2.57Z"/>
  </g>
  <path class="cls-8" d="M528.22,137.67l-2.66,2.83-.93-1.14c-.33-.4-.92-.46-1.32-.14-.4.33-.46.92-.14,1.32l1.61,1.98c.17.21.42.34.69.34.01,0,.02,0,.03,0,.26,0,.51-.11.68-.3l3.39-3.61c.35-.38.34-.97-.04-1.33-.38-.35-.97-.34-1.33.04Z"/>
  <g>
    <path class="cls-4" d="M671.41,137.25c9.24,0,16.76-7.52,16.76-16.76s-7.52-16.76-16.76-16.76-16.76,7.52-16.76,16.76,7.52,16.76,16.76,16.76ZM663.3,131.54c1.22-3.41,4.43-5.71,8.11-5.71s6.9,2.31,8.11,5.71c-2.27,1.67-5.08,2.67-8.11,2.67s-5.84-.99-8.11-2.67ZM667.22,118.59c0-2.31,1.88-4.19,4.19-4.19s4.19,1.88,4.19,4.19-1.88,4.19-4.19,4.19-4.19-1.88-4.19-4.19ZM671.41,106.78c7.56,0,13.71,6.15,13.71,13.71,0,3.36-1.22,6.45-3.23,8.83-.76-1.54-1.85-2.91-3.2-3.99-.72-.58-1.51-1.07-2.35-1.45,1.42-1.32,2.3-3.2,2.3-5.29,0-3.99-3.25-7.24-7.24-7.24s-7.24,3.25-7.24,7.24c0,2.09.89,3.97,2.3,5.29-.83.39-1.63.88-2.35,1.45-1.35,1.08-2.44,2.45-3.2,3.99-2.02-2.39-3.23-5.47-3.23-8.83,0-7.56,6.15-13.71,13.71-13.71h0Z"/>
    <path class="cls-4" d="M693.86,140.5h-44.89c-1.96,0-3.55,1.59-3.55,3.55v8.13c0,1.96,1.59,3.55,3.55,3.55h44.89c1.96,0,3.55-1.59,3.55-3.55v-8.13c0-1.96-1.59-3.55-3.55-3.55ZM694.36,152.18c0,.28-.23.51-.51.51h-44.89c-.28,0-.51-.23-.51-.51v-8.13c0-.28.23-.51.51-.51h44.89c.28,0,.51.23.51.51v8.13Z"/>
    <circle class="cls-4" cx="680.55" cy="148.12" r="1.52"/>
    <circle class="cls-4" cx="674.46" cy="148.12" r="1.52"/>
    <circle class="cls-4" cx="668.36" cy="148.12" r="1.52"/>
    <circle class="cls-4" cx="662.27" cy="148.12" r="1.52"/>
    <circle class="cls-4" cx="686.65" cy="148.12" r="1.52"/>
    <circle class="cls-4" cx="656.18" cy="148.12" r="1.52"/>
  </g>
  <g>
    <path class="cls-4" d="M696.86,499.75v-20.69h-20.69v8.82h-10.62v-8.82h-20.69v20.69h20.69v-8.82h10.62v8.82h8.82v7.3h-8.82v8.82h-10.62v-8.82h-20.69v20.69h20.69v-8.82h10.62v8.82h20.69v-20.69h-8.82v-7.3h8.82ZM662.5,496.7h-14.59v-14.59h14.59v14.59ZM647.91,524.69v-14.59h14.59v2.6l-7.6,5.06-3.18-3.18-2.16,2.16,4.95,4.95,7.99-5.32v8.33h-14.59ZM693.81,524.69h-14.59v-14.59h14.59v14.59ZM679.22,482.11h14.59v14.59h-14.59v-14.59Z"/>
    <path class="cls-4" d="M653.68,487.78h3.05v3.25h-3.05v-3.25Z"/>
    <path class="cls-4" d="M684.99,487.78h3.05v3.25h-3.05v-3.25Z"/>
    <path class="cls-4" d="M684.99,515.59h3.05v3.25h-3.05v-3.25Z"/>
  </g>
  <g>
    <path class="cls-4" d="M294.75,498.79h-11.76c-.84,0-1.52.68-1.52,1.52s.68,1.52,1.52,1.52h11.76c.84,0,1.52-.68,1.52-1.52s-.68-1.52-1.52-1.52Z"/>
    <path class="cls-4" d="M294.75,492.7h-11.76c-.84,0-1.52.68-1.52,1.52s.68,1.52,1.52,1.52h11.76c.84,0,1.52-.68,1.52-1.52s-.68-1.52-1.52-1.52Z"/>
    <path class="cls-4" d="M282.99,489.65h22.72c.84,0,1.52-.68,1.52-1.52s-.68-1.52-1.52-1.52h-22.72c-.84,0-1.52.68-1.52,1.52s.68,1.52,1.52,1.52Z"/>
    <path class="cls-4" d="M294.75,504.85h-11.76c-.84,0-1.52.68-1.52,1.52s.68,1.52,1.52,1.52h11.76c.84,0,1.52-.68,1.52-1.52s-.68-1.52-1.52-1.52Z"/>
    <path class="cls-4" d="M294.75,509.92h-11.76c-.84,0-1.52.68-1.52,1.52s.68,1.52,1.52,1.52h11.76c.84,0,1.52-.68,1.52-1.52s-.68-1.52-1.52-1.52Z"/>
    <path class="cls-4" d="M294.75,516.02h-11.76c-.84,0-1.52.68-1.52,1.52s.68,1.52,1.52,1.52h11.76c.84,0,1.52-.68,1.52-1.52s-.68-1.52-1.52-1.52Z"/>
    <path class="cls-4" d="M326.26,503.86c0-.84-.69-1.51-1.52-1.51-.02,0-.03,0-.05,0-1.86,0-3.58-1.07-4.37-2.73-.25-.53-.79-.87-1.38-.87h-.01l-4.44.03v-19.17c0-1.4-1.14-2.54-2.54-2.54h-35.1c-1.4,0-2.54,1.14-2.54,2.54v46.92c0,1.4,1.14,2.54,2.54,2.54h36.2s.14,0,.15,0c.21-.02.43-.09.62-.2l3.46-2.05c2.77-1.64,5.07-3.97,6.65-6.75,1.58-2.78,2.41-5.94,2.38-9.13l-.05-7.08ZM277.36,480.12h34.09v18.68l-4.71.03c-.59,0-1.13.35-1.37.89-.77,1.68-2.48,2.78-4.36,2.79-.4,0-.79.17-1.07.45-.28.29-.44.68-.44,1.08l.05,7.08c.02,3.19.9,6.33,2.52,9.09,1.35,2.3,3.21,4.28,5.4,5.8h-30.1s0-45.91,0-45.91ZM315.73,524.19l-2.7,1.6-2.72-1.56c-4.73-2.71-7.69-7.73-7.73-13.12l-.04-5.7c2.11-.43,3.97-1.71,5.11-3.53l10.41-.08c1.17,1.8,3.05,3.05,5.16,3.45l.04,5.7c.04,5.39-2.85,10.46-7.53,13.23h0Z"/>
    <path class="cls-4" d="M316.28,509.45l-4.32,4.59-1.51-1.86c-.53-.65-1.49-.75-2.14-.22-.65.53-.75,1.49-.22,2.14l2.61,3.21c.28.34.69.54,1.13.56.02,0,.04,0,.05,0,.42,0,.82-.17,1.11-.48l5.51-5.86c.58-.61.55-1.58-.07-2.15-.61-.58-1.58-.55-2.15.07Z"/>
  </g>
  <g>
    <path class="cls-4" d="M320.71,120.57c.84,0,1.52-.68,1.52-1.52v-3.48c0-2.35-1.21-4.42-3.04-5.63.54-.75.85-1.66.85-2.65v-.74c-.14-5.51-7.84-6.24-9.05-.91h-29.54c-1.21-5.33-8.91-4.6-9.05.91v.74c0,.99.32,1.9.85,2.65-1.83,1.21-3.04,3.28-3.04,5.63v3.48c0,.84.68,1.52,1.52,1.52h3.71v14.85c0,.07,0,.14.02.2-1.78.62-3.06,2.32-3.06,4.31v.74c0,.99.32,1.9.85,2.65-1.83,1.21-3.04,3.28-3.04,5.63v3.48c0,.84.68,1.52,1.52,1.52h10.46c.84,0,1.52-.68,1.52-1.52v-2.13h24.98v2.13c0,.84.68,1.52,1.52,1.52h10.46c.84,0,1.52-.68,1.52-1.52v-3.48c0-2.35-1.21-4.42-3.04-5.63.54-.75.85-1.66.85-2.65v-.74c0-1.99-1.27-3.68-3.05-4.31v-15.06h3.71ZM319.19,117.53h-7.41v-1.96c0-1.5.9-2.8,2.18-3.38v1.01c.07,2.02,2.97,2.02,3.05,0v-1.01c1.29.58,2.18,1.88,2.18,3.38v1.96ZM313.96,106.55c0-.84.68-1.52,1.52-1.52s1.52.68,1.52,1.52v.74c-.08,2.02-2.97,2.02-3.05,0v-.74ZM275.47,106.55c.08-2.02,2.97-2.02,3.05,0v.74c-.08,2.02-2.97,2.02-3.05,0v-.74ZM273.28,115.57c0-1.5.9-2.8,2.18-3.38v1.01c.07,2.02,2.97,2.02,3.05,0v-1.01c1.29.58,2.18,1.88,2.18,3.38v1.96h-7.41v-1.96ZM275.47,139.95c.08-2.02,2.97-2.02,3.05,0v.74c-.08,2.02-2.97,2.02-3.05,0v-.74ZM280.7,150.93h-7.41v-1.96c0-1.5.9-2.8,2.18-3.38v1.01c.07,2.02,2.97,2.02,3.05,0v-1.01c1.29.58,2.18,1.88,2.18,3.38v1.96ZM319.19,150.93h-7.41v-1.96c0-1.5.9-2.8,2.18-3.38v1.01c.07,2.02,2.97,2.02,3.05,0v-1.01c1.29.58,2.18,1.88,2.18,3.38v1.96ZM317.01,140.68c-.08,2.02-2.97,2.02-3.05,0v-.74c0-.84.68-1.52,1.52-1.52s1.52.68,1.52,1.52v.74ZM313.96,135.64c-1.77.63-3.05,2.32-3.05,4.31v.74c0,.99.32,1.9.85,2.65-1.37.91-2.39,2.3-2.82,3.93h-25.42c-.42-1.63-1.45-3.03-2.82-3.93.54-.75.85-1.66.85-2.65v-.74c0-1.99-1.28-3.69-3.06-4.31,0-.07.02-.13.02-.2v-14.85h3.71c.84,0,1.52-.68,1.52-1.52v-3.48c0-2.35-1.21-4.42-3.04-5.63.27-.38.49-.8.63-1.26h29.79c.15.45.36.88.63,1.26-1.83,1.21-3.04,3.28-3.04,5.63v3.48c0,.84.68,1.52,1.52,1.52h3.71v15.06Z"/>
    <path class="cls-4" d="M305.38,123.51h-1.61c0-.06,0-.12,0-.18-.11-3.35-2.73-6.4-6.01-7.02v-1.93c-.07-2.02-2.97-2.02-3.05,0v1.93c-3.28.63-5.9,3.68-6.01,7.02,0,.06,0,.12,0,.18h-1.61c-.84,0-1.52.68-1.52,1.52v14.22c0,.84.68,1.52,1.52,1.52h18.28c.84,0,1.52-.68,1.52-1.52v-14.22c0-.84-.68-1.52-1.52-1.52h0ZM291.75,123.47c.43-5.67,8.55-5.66,8.98,0,0,.01,0,.03,0,.04h-8.99s0-.03,0-.04ZM303.86,137.72h-3.05v-6.4c-.07-2.02-2.97-2.02-3.05,0v6.4h-3.05v-6.4c-.07-2.02-2.97-2.02-3.05,0v6.4h-3.05v-11.17h15.23v11.17Z"/>
  </g>
</svg>