<?xml version="1.0" encoding="UTF-8"?><svg id="Layer_1" xmlns="http://www.w3.org/2000/svg" viewBox="0 0 960 638"><defs><style>.cls-1{letter-spacing:-.01em;}.cls-2{letter-spacing:-.07em;}.cls-3{letter-spacing:-.02em;}.cls-4{letter-spacing:0em;}.cls-5{letter-spacing:0em;}.cls-6{fill:#fff;stroke:#2358a3;stroke-width:4px;}.cls-6,.cls-7,.cls-8,.cls-9{stroke-miterlimit:10;}.cls-7{fill:#7dcff4;}.cls-7,.cls-8{stroke:#fff;stroke-width:3px;}.cls-10{letter-spacing:-.02em;}.cls-11{letter-spacing:0em;}.cls-12{font-size:15.79px;}.cls-12,.cls-13{fill:#333;font-family:InterV-SemiBold, 'Inter V';font-variation-settings:'wght' 600, 'slnt' 0;font-weight:600;}.cls-14{letter-spacing:.03em;}.cls-8{fill:#bde7fb;}.cls-15{letter-spacing:-.02em;}.cls-16{fill:#dedede;}.cls-16,.cls-17{stroke-width:0px;}.cls-18{letter-spacing:-.01em;}.cls-17{fill:#2358a3;}.cls-19{letter-spacing:0em;}.cls-20{letter-spacing:0em;}.cls-21{letter-spacing:-.02em;}.cls-22{letter-spacing:-.02em;}.cls-23{letter-spacing:-.02em;}.cls-24{letter-spacing:0em;}.cls-9{fill:none;stroke:#939598;stroke-dasharray:0 0 6.02 6.02;stroke-width:2px;}.cls-13{font-size:17.54px;}.cls-25{letter-spacing:-.02em;}.cls-26{letter-spacing:0em;}.cls-27{letter-spacing:-.02em;}.cls-28{letter-spacing:-.02em;}.cls-29{letter-spacing:-.02em;}</style></defs><circle class="cls-9" cx="478.14" cy="359.14" r="231.86"/><circle class="cls-6" cx="477.84" cy="128.75" r="51.95"/><circle class="cls-6" cx="256.99" cy="288.35" r="51.95"/><circle class="cls-6" cx="342.19" cy="546.21" r="51.95"/><circle class="cls-6" cx="613.98" cy="546.21" r="51.95"/><circle class="cls-6" cx="699.59" cy="289.34" r="51.95"/><circle class="cls-16" cx="477.11" cy="353.93" r="96.46"/><circle class="cls-8" cx="477.11" cy="353.93" r="90.33"/><text class="cls-12" transform="translate(446.98 36.92)"><tspan x="0" y="0">Sys</tspan><tspan class="cls-26" x="28.01" y="0">t</tspan><tspan x="33.92" y="0">em</tspan><tspan class="cls-2" x="-12.75" y="18.94">A</tspan><tspan class="cls-15" x="-2.4" y="18.94">v</tspan><tspan class="cls-19" x="6.44" y="18.94">ailability</tspan></text><text class="cls-12" transform="translate(771.43 278.04)"><tspan x="0" y="0">Identity</tspan><tspan x="0" y="18.94">Management</tspan></text><text class="cls-12" transform="translate(684.34 550.56)"><tspan x="0" y="0">Maximi</tspan><tspan class="cls-3" x="54.66" y="0">z</tspan><tspan x="63.28" y="0">e</tspan><tspan x="0" y="18.95">I</tspan><tspan class="cls-10" x="4.34" y="18.95">n</tspan><tspan class="cls-22" x="13.65" y="18.95">v</tspan><tspan class="cls-24" x="22.45" y="18.95">estment</tspan></text><text class="cls-12" transform="translate(195.6 550.56)"><tspan x="0" y="0">Enhanced</tspan><tspan x="12.22" y="18.95">Security</tspan></text><text class="cls-12" transform="translate(122.47 276.66)"><tspan x="0" y="0">Solution</tspan><tspan x="-37.56" y="18.94">Management</tspan></text><text class="cls-12" transform="translate(450.15 219.26)"><tspan class="cls-21" x="0" y="0">A</tspan><tspan x="11.16" y="0">ccess</tspan><tspan x="-19.73" y="18.94">Ce</tspan><tspan class="cls-14" x="1.37" y="18.94">r</tspan><tspan x="8.1" y="18.94">tification</tspan></text><text class="cls-12" transform="translate(325.18 347.71)"><tspan x="0" y="0">User</tspan><tspan x="-58.32" y="18.95">P</tspan><tspan class="cls-25" x="-48.16" y="18.95">r</tspan><tspan class="cls-22" x="-42.26" y="18.95">o</tspan><tspan class="cls-19" x="-32.96" y="18.95">visioning</tspan></text><text class="cls-12" transform="translate(593.54 347.71)"><tspan class="cls-27" x="0" y="0">A</tspan><tspan x="11.16" y="0">ccess</tspan><tspan class="cls-5" x="0" y="18.95">R</tspan><tspan class="cls-24" x="10.15" y="18.95">equest</tspan></text><text class="cls-12" transform="translate(440.76 478.35)"><tspan class="cls-4" x="0" y="0">P</tspan><tspan class="cls-19" x="10.01" y="0">ass</tspan><tspan class="cls-1" x="36.41" y="0">w</tspan><tspan x="49.4" y="0">o</tspan><tspan class="cls-23" x="59" y="0">r</tspan><tspan x="64.9" y="0">d</tspan><tspan x="-12.81" y="18.95">Management</tspan></text><text class="cls-13" transform="translate(449.54 336.67)"><tspan x="0" y="0">Identity</tspan><tspan x="-18.86" y="21.05">G</tspan><tspan class="cls-29" x="-5.62" y="21.05">ov</tspan><tspan x="14.49" y="21.05">ernance</tspan><tspan x="-37.9" y="42.1">&amp; </tspan><tspan class="cls-28" x="-21.92" y="42.1">A</tspan><tspan class="cls-11" x="-9.52" y="42.1">dminist</tspan><tspan class="cls-18" x="53.42" y="42.1">r</tspan><tspan class="cls-20" x="60.2" y="42.1">ation</tspan></text><circle class="cls-7" cx="478.19" cy="259.28" r="13.75"/><circle class="cls-7" cx="478.19" cy="446.08" r="13.75"/><circle class="cls-7" cx="570.71" cy="352.89" r="13.75"/><circle class="cls-7" cx="382.83" cy="352.89" r="13.75"/><path class="cls-17" d="m593.25,565.99v1.56h6.22c.43,0,.78-.35.78-.78h3.11c.33,0,.63-.22.73-.54l9.04,2.58c1.67.48,3.45.36,5.04-.32l6.89-2.96c.09-.04.17-.09.24-.16l5.19-5.19c1.16-1.16,1.16-3.05,0-4.21-.56-.56-1.31-.87-2.1-.87h-.08c-.74,0-1.45.28-2,.78l-4.29,4.35c-.17-1.58-1.5-2.79-3.1-2.79h-5.23c-2.62-1.53-5.6-2.33-8.64-2.33h-.91c0-.43-.35-.78-.78-.78h-3.11c0-.43-.35-.78-.78-.78h-6.22v1.56h5.45v10.89h-5.45Zm11.8-9.34c2.83,0,5.6.77,8.03,2.22.12.07.26.11.4.11h5.45c.86,0,1.56.7,1.56,1.56v.78h-7.78v1.56h8.56c.21,0,.41-.09.55-.23l5.56-5.64c.26-.23.59-.35.93-.35h.08c.79,0,1.42.64,1.42,1.42,0,.38-.15.74-.42,1.01l-5.08,5.08-6.76,2.9c-1.26.54-2.68.63-4,.25l-9.42-2.69v-7.97h.91Zm-2.47-.78v9.34h-2.33v-9.34h2.33Z"/><path class="cls-17" d="m611.15,540.32v.92c-1.21.43-1.85,1.76-1.42,2.97.33.93,1.21,1.56,2.2,1.56.43,0,.78.35.78.78s-.35.78-.78.78-.78-.35-.78-.78h-1.56c0,.99.63,1.86,1.56,2.19v.92h1.56v-.92c1.21-.43,1.85-1.76,1.42-2.97-.33-.93-1.21-1.56-2.2-1.56-.43,0-.78-.35-.78-.78s.35-.78.78-.78.78.35.78.78h1.56c0-.99-.63-1.86-1.56-2.19v-.92h-1.56Z"/><path class="cls-17" d="m592.7,552.54c.3.3.77.31,1.08.02l10.34-9.6.23.23c-1,4.18,1.58,8.38,5.76,9.37,4.18,1,8.38-1.58,9.37-5.76.75-3.13-.51-6.4-3.17-8.22l4.16-4.16,2.56,2.56c.3.3.8.3,1.1,0l5.77-5.77,1.8,1.2c.36.24.84.15,1.08-.21.07-.11.12-.23.13-.36l.78-7.78c.04-.43-.27-.81-.7-.85-.1-.01-.2,0-.3.03l-7.78,2.33c-.41.12-.65.56-.52.97.04.12.1.24.2.33l1.39,1.4-2.4,2.4-2.56-2.56c-.3-.3-.8-.3-1.1,0l-9.21,9.21c-1.36.21-2.65.78-3.72,1.66l-2.31-2.31c-.3-.3-.78-.3-1.08-.02l-13.23,12.45c-.31.29-.33.79-.03,1.1,0,0,.01.01.02.02l2.33,2.33Zm25.45-7.55c0,3.44-2.79,6.22-6.22,6.22s-6.22-2.79-6.22-6.22,2.79-6.22,6.22-6.22c3.44,0,6.22,2.79,6.22,6.22Zm2.33-15.24l2.56,2.56c.3.3.8.3,1.1,0l3.5-3.5c.3-.3.3-.8,0-1.1l-1.02-1.02,5.42-1.63-.53,5.34-1.26-.84c-.31-.21-.72-.17-.98.1l-5.67,5.67-2.56-2.56c-.3-.3-.8-.3-1.1,0l-5.03,5.03c-.62-.26-1.28-.43-1.95-.52l7.53-7.53Zm-16.36,8.54l1.78,1.78c-.38.46-.7.97-.96,1.51l-.25-.25c-.3-.3-.77-.31-1.08-.02l-10.34,9.6-1.24-1.24,12.09-11.38Z"/><path class="cls-17" d="m601.81,525.53h1.56v8.56h-1.56v-8.56Z"/><path class="cls-17" d="m606.48,520.86h1.56v8.56h-1.56v-8.56Z"/><path class="cls-17" d="m622.82,541.09h1.56v9.34h-1.56v-9.34Z"/><path class="cls-17" d="m626.71,538.76h1.56v7h-1.56v-7Z"/><path class="cls-17" d="m360.57,531.33c-6.48-1.73-10.57-4.77-12.43-6.44-1.45-1.28-3.33-1.99-5.29-1.99s-3.84.71-5.29,1.99c-1.86,1.66-5.95,4.71-12.43,6.44-1.99.53-3.39,2.33-3.39,4.38v9.37c0,11.4,7.2,21.64,17.92,25.5,1.02.37,2.09.56,3.18.56s2.16-.19,3.18-.56c10.72-3.86,17.92-14.11,17.92-25.5v-9.37c0-2.05-1.39-3.85-3.39-4.38Zm1.88,13.75c0,10.76-6.8,20.44-16.93,24.08h0c-1.71.62-3.62.62-5.34,0-10.13-3.64-16.93-13.32-16.93-24.08v-9.37c0-1.37.93-2.57,2.27-2.93,6.45-1.72,10.65-4.63,13.04-6.77,1.17-1.04,2.7-1.61,4.29-1.61s3.11.57,4.28,1.61c2.39,2.14,6.6,5.05,13.05,6.77,1.33.36,2.27,1.56,2.27,2.93v9.37h0Z"/><path class="cls-17" d="m357.05,547.78c-.41-.06-.79.24-.85.65-.9,6.72-4.47,11.94-10.08,14.82-.47-1.36-1.75-2.35-3.27-2.35s-2.8.99-3.27,2.35c-5.61-2.88-9.18-8.1-10.08-14.82-.06-.41-.43-.7-.85-.65-.41.06-.7.43-.65.85.99,7.44,5.05,13.18,11.43,16.22.24,1.68,1.67,2.97,3.42,2.97s3.17-1.3,3.42-2.97c6.38-3.05,10.43-8.79,11.43-16.22.06-.41-.24-.79-.65-.85h0Zm-14.2,18.54c-1.08,0-1.96-.88-1.96-1.96s.88-1.96,1.96-1.96,1.96.88,1.96,1.96-.88,1.96-1.96,1.96h0Z"/><path class="cls-17" d="m357.18,533.75c-.99,0-1.9.42-2.56,1.13-3.09-1.24-5.89-2.81-8.33-4.71.02-.17.04-.33.04-.49,0-1.91-1.55-3.47-3.47-3.47s-3.47,1.55-3.47,3.47c0,.16.01.33.04.49-2.45,1.9-5.25,3.48-8.33,4.71-.65-.71-1.57-1.13-2.56-1.13-1.91,0-3.47,1.55-3.47,3.47,0,1.65,1.16,3.03,2.71,3.38v4.48c0,.42.34.75.75.75s.75-.34.75-.75v-4.48c1.55-.35,2.71-1.73,2.71-3.38,0-.35-.06-.69-.15-1.02,2.99-1.21,5.72-2.75,8.14-4.57.63.93,1.69,1.52,2.87,1.52s2.23-.58,2.86-1.52c2.42,1.82,5.15,3.35,8.14,4.57-.1.33-.15.67-.15,1.02,0,1.65,1.16,3.03,2.71,3.38v4.48c0,.42.34.75.75.75s.75-.34.75-.75v-4.48c1.55-.35,2.71-1.73,2.71-3.38,0-1.91-1.55-3.47-3.47-3.47h0Zm-28.64,5.43c-1.08,0-1.96-.88-1.96-1.96s.88-1.96,1.96-1.96c.69,0,1.31.35,1.68.94.18.3.28.65.28,1.02,0,1.08-.88,1.96-1.96,1.96h0Zm16.19-8.91c-.26.82-1.01,1.37-1.87,1.37s-1.61-.55-1.87-1.37c-.06-.2-.09-.4-.09-.59,0-1.08.88-1.96,1.96-1.96s1.96.88,1.96,1.96c0,.2-.03.4-.09.59h0Zm12.45,8.91c-1.08,0-1.96-.88-1.96-1.96,0-.37.1-.72.28-1.02.37-.59.99-.94,1.68-.94,1.08,0,1.96.88,1.96,1.96s-.88,1.96-1.96,1.96h0Z"/><path class="cls-17" d="m347.38,557.57c2.08,0,3.77-1.69,3.77-3.77v-9.8c0-4.57-3.72-8.29-8.29-8.29-2.21,0-4.29.86-5.86,2.43-1.57,1.57-2.43,3.65-2.43,5.86v9.8c0,2.08,1.69,3.77,3.77,3.77h9.04Zm-9.32-18.36c1.28-1.28,2.99-1.99,4.8-1.99,3.74,0,6.78,3.04,6.78,6.78v1.51h-2.26v-1.51c0-2.49-2.03-4.52-4.52-4.52-1.2,0-2.34.47-3.2,1.32-.85.86-1.32,1.99-1.32,3.2v1.51h-2.26v-1.51c0-1.81.71-3.51,1.99-4.8h0Zm7.81,6.3h-6.03v-1.51c0-.8.31-1.56.88-2.13.58-.57,1.33-.88,2.14-.88,1.66,0,3.01,1.35,3.01,3.01v1.51Zm-9.8,8.29v-6.78h13.57v6.78c0,1.25-1.01,2.26-2.26,2.26h-9.04c-1.25,0-2.26-1.01-2.26-2.26Z"/><path class="cls-17" d="m342.86,554.56c1.25,0,2.26-1.01,2.26-2.26,0-.98-.63-1.81-1.51-2.12v-.89c0-.42-.34-.75-.75-.75s-.75.34-.75.75v.89c-.88.31-1.51,1.14-1.51,2.12,0,1.25,1.01,2.26,2.26,2.26Zm0-3.01c.42,0,.75.34.75.75s-.34.75-.75.75-.75-.34-.75-.75.34-.75.75-.75Z"/><path class="cls-17" d="m238.98,298.74l3.71-3.71c.29-.3.77-.31,1.07-.02.3.29.31.77.02,1.07,0,0-.01.01-.02.02l-3.71,3.71c-.3.29-.77.29-1.07,0-.29-.29-.29-.77,0-1.06Zm32.63,1.29c.42,0,.75-.34.75-.75,0-.2-.08-.39-.22-.53l-3.71-3.71c-.29-.29-.77-.29-1.07,0-.29.29-.29.77,0,1.07l3.71,3.71c.14.14.33.22.53.22Zm-16.05-32.46c.42,0,.75.34.75.75v3.85c0,.42-.34.75-.75.75-1.25,0-2.25,1.03-2.24,2.27,0,1.24,1.01,2.23,2.24,2.24.42,0,.75.34.75.75v4.28h3.6c.42-2.04,2.41-3.35,4.44-2.93,1.48.3,2.63,1.46,2.93,2.93h3.17c.42,0,.75.34.75.75.01,5.34-2.71,10.31-7.2,13.18-1.09.68-1.75,1.87-1.72,3.16v3.04c0,1.04-.72,1.95-1.73,2.19l-.4,1.54c-.25,1-1.15,1.69-2.18,1.68h-4.83c-1.03,0-1.93-.69-2.18-1.68l-.4-1.54c-1.01-.24-1.73-1.15-1.73-2.19v-3.04c.02-1.28-.63-2.48-1.72-3.16-4.5-2.87-7.21-7.84-7.2-13.18,0-8.63,7.02-15.66,15.66-15.66Zm-5.22,32.33v.85h10.44v-.85h-10.44Zm8.36,6.06l.29-1.09h-6.85l.29,1.09c.08.33.38.56.72.56h4.83c.34,0,.64-.23.72-.56h0Zm2.09-3.35v-.34h-10.44v.34c0,.41.34.75.75.75h8.95c.41,0,.75-.34.75-.75h0Zm-4.47-15.02c2.04.42,3.35,2.41,2.93,4.44-.3,1.48-1.46,2.63-2.93,2.93v3.43h4.6c.3-1.35,1.12-2.52,2.29-3.25,3.84-2.45,6.26-6.61,6.49-11.16h-3.07c-.42,0-.75-.34-.75-.75,0-1.25-1.01-2.26-2.26-2.26-1.25,0-2.26,1.01-2.26,2.26,0,.42-.34.75-.75.75h-4.28v3.6Zm-1.51.68v-4.28h-3.6c-.42,2.04-2.41,3.35-4.44,2.93-1.48-.3-2.63-1.46-2.93-2.93h-2.4c.23,4.55,2.65,8.7,6.49,11.16,1.17.73,1.99,1.91,2.29,3.25h4.6v-4.11c0-.42.34-.75.75-.75,1.25,0,2.26-1.01,2.26-2.26,0-1.25-1.01-2.26-2.26-2.26h0c-.42,0-.75-.34-.75-.75h0Zm-13.37-5.79h3.07c.42,0,.75.34.75.75,0,1.25,1.01,2.26,2.26,2.26,1.25,0,2.26-1.01,2.26-2.26,0-.42.34-.75.75-.75h4.28v-3.6c-2.04-.42-3.35-2.41-2.93-4.44.3-1.48,1.46-2.63,2.93-2.93v-2.4c-7.2.38-13,6.17-13.37,13.38Zm14.88-16.7v-5.25c0-.42-.34-.75-.75-.75s-.75.34-.75.75v5.25c0,.42.34.75.75.75s.75-.34.75-.75Zm16.7,18.2h5.25c.42,0,.75-.34.75-.75s-.34-.75-.75-.75h-5.25c-.42,0-.75.34-.75.75s.34.75.75.75Zm-40.14,0h5.25c.42,0,.75-.34.75-.75s-.34-.75-.75-.75h-5.25c-.42,0-.75.34-.75.75s.34.75.75.75h0Zm6.11-16.27l3.71,3.71c.29.3.76.31,1.07.03.3-.29.31-.76.03-1.07,0,0-.02-.02-.03-.03l-3.71-3.71c-.3-.29-.78-.28-1.07.03-.28.29-.28.75,0,1.04h0Zm22.31-5.98c8.63,0,15.66,7.02,15.66,15.66,0,.42-.34.75-.75.75h-3.85c-.42,0-.75-.34-.75-.75,0-1.25-1.01-2.26-2.26-2.26-1.25,0-2.26,1.01-2.26,2.26,0,.42-.34.75-.75.75h-5.03c-.42,0-.75-.34-.75-.75v-4.35c-2.04-.42-3.35-2.41-2.93-4.44.3-1.48,1.46-2.63,2.93-2.93v-3.17c0-.42.34-.75.75-.75Zm0,5.36c-1.25,0-2.26,1.01-2.26,2.26,0,1.25,1.01,2.26,2.26,2.26.42,0,.75.34.75.75v4.28h3.6c.42-2.04,2.41-3.35,4.44-2.93,1.48.3,2.63,1.46,2.93,2.93h2.4c-.38-7.2-6.17-13-13.38-13.38v3.07c0,.42-.34.75-.75.75h0Z"/><path class="cls-17" d="m474.9,147.58l-1.13,1.13c-.51.48-.12,1.4.57,1.38.21,0,.41-.08.57-.24l2.42-2.42c.31-.3.31-.84,0-1.14l-2.42-2.42c-.75-.74-1.88.39-1.14,1.14l.93.93c-24.07-3.36-22.37-37.73,2.06-38.57,10.66,0,19.34,8.68,19.34,19.34,0,.45.36.81.81.81s.81-.36.81-.81c0-11.55-9.4-20.95-20.95-20.95-26.68.94-28.23,38.58-1.86,41.82h0Z"/><path class="cls-17" d="m478.6,123.73l-1.58,1.58-1.95-4.55c-.44-.97-1.88-.35-1.48.64l2.42,5.64c.2.51.93.65,1.31.25l2.42-2.42c.74-.75-.39-1.88-1.14-1.14h0Z"/><path class="cls-17" d="m500.12,129.94h-7.58c2.11-9.81-5.74-19.45-15.79-19.34-8.89,0-16.12,7.23-16.12,16.12-.18,10.68,10.84,18.75,20.95,15.36v3.17c0,2.22,1.81,4.03,4.03,4.03h14.5c2.22,0,4.03-1.81,4.03-4.03v-11.28c0-2.22-1.81-4.03-4.03-4.03Zm-18.53,10.44c-9.16,3.46-19.52-3.85-19.34-13.66,0-8,6.51-14.5,14.5-14.5,9.17-.12,16.29,8.83,14.14,17.73h-1.65c2.17-7.99-4.19-16.23-12.48-16.12-7.11,0-12.89,5.78-12.89,12.89-.17,8.96,9.51,15.46,17.73,11.95v1.71Zm0-6.41v2.92c-1.28.61-2.63.96-4.03,1.06v-.76c0-.45-.36-.81-.81-.81s-.81.36-.81.81v.76c-5.58-.4-10.04-4.86-10.43-10.43h.76c.45,0,.81-.36.81-.81s-.36-.81-.81-.81h-.76c.4-5.58,4.86-10.04,10.43-10.43v.76c0,.45.36.81.81.81s.81-.36.81-.81v-.76c5.58.4,10.04,4.86,10.43,10.43h-.76c-.45,0-.81.36-.81.81s.36.81.81.81h.77c-.06.82-.21,1.63-.45,2.42h-1.94c-2.22,0-4.03,1.81-4.03,4.03h0Zm20.95,11.28c0,1.33-1.08,2.42-2.42,2.42h-14.5c-1.33,0-2.42-1.08-2.42-2.42v-11.28c0-1.33,1.08-2.42,2.42-2.42h14.5c1.33,0,2.42,1.08,2.42,2.42v11.28Z"/><path class="cls-17" d="m495.39,135.08l-3.93,3.93-1.11-1.11c-2.31-2.19-5.61,1.11-3.42,3.42l2.82,2.82c.9.94,2.52.94,3.42,0l5.64-5.64c2.19-2.31-1.1-5.61-3.42-3.42h0Zm2.28,2.28l-5.64,5.64c-.31.3-.83.3-1.14,0l-2.82-2.82c-.31-.31-.31-.83,0-1.14.31-.31.82-.31,1.14,0l1.68,1.68c.31.31.82.31,1.14,0l4.5-4.5c.74-.74,1.88.39,1.14,1.14Z"/><path class="cls-17" d="m677.05,290.69l2.32.93c.26,1.1.61,2.18,1.05,3.22v11.28c0,2.66,2.16,4.82,4.82,4.82h28.94c2.66,0,4.82-2.16,4.82-4.82v-11.28c.44-1.04.79-2.12,1.05-3.22l2.33-.93c.75-.3,1.27-.99,1.35-1.8.12-1.38.12-2.76,0-4.14-.08-.8-.61-1.5-1.36-1.8l-2.32-.93c-.52-2.19-1.38-4.29-2.57-6.2l.98-2.3c.33-.74.21-1.61-.32-2.24-.88-1.05-1.86-2.02-2.91-2.91-.62-.53-1.49-.65-2.24-.32l-2.3.99c-1.91-1.19-4.01-2.06-6.2-2.57l-.93-2.33c-.3-.75-.99-1.27-1.8-1.35-1.38-.13-2.76-.13-4.14,0-.81.08-1.5.6-1.8,1.36l-.93,2.32c-2.19.51-4.29,1.38-6.2,2.57l-2.3-.98c-.75-.33-1.62-.21-2.24.32-1.05.88-2.02,1.86-2.91,2.91-.53.62-.65,1.49-.32,2.24l.98,2.3c-1.19,1.91-2.06,4.01-2.57,6.2l-2.33.93c-.75.3-1.27.99-1.35,1.8-.13,1.38-.13,2.76,0,4.14.08.81.6,1.5,1.36,1.8Zm40.36,15.43c0,1.78-1.44,3.22-3.22,3.22h-28.94c-1.78,0-3.22-1.44-3.22-3.22v-17.69c0-1.78,1.44-3.22,3.22-3.22h10.6c.34.96,1.25,1.6,2.26,1.61h3.22c1.02,0,1.92-.65,2.26-1.61h10.6c1.78,0,3.22,1.44,3.22,3.22v17.69Zm-17.69-30.55c-2.22,0-4.02,1.8-4.02,4.02v4.02h-10.45c-.45,0-.89.06-1.32.19,1.66-8.72,10.08-14.45,18.81-12.78,6.48,1.24,11.55,6.3,12.78,12.78-.43-.12-.88-.19-1.32-.19h-10.45v-4.02c0-2.22-1.8-4.02-4.02-4.02Zm2.41,4.02v4.82c0,.44-.36.8-.8.8h-3.22c-.44,0-.8-.36-.8-.8v-4.82c0-1.33,1.08-2.41,2.41-2.41s2.41,1.08,2.41,2.41Zm-24.84,5.31c.03-.2.16-.37.35-.45l2.72-1.08c.25-.1.43-.32.49-.58.49-2.29,1.39-4.48,2.67-6.44.15-.22.17-.51.07-.75l-1.15-2.69c-.09-.19-.06-.41.07-.57.83-.98,1.74-1.89,2.72-2.72.16-.13.38-.15.56-.06l2.69,1.15c.25.11.53.08.75-.07,1.97-1.28,4.15-2.18,6.44-2.67.26-.06.48-.24.58-.49l1.08-2.71c.07-.19.25-.33.46-.36,1.28-.12,2.57-.12,3.85,0,.2.03.37.16.45.35l1.08,2.72c.1.25.32.43.58.49,2.29.49,4.48,1.39,6.44,2.67.22.15.51.17.75.07l2.69-1.15c.19-.09.41-.06.57.07.98.83,1.89,1.74,2.72,2.72.13.16.15.38.06.56l-1.15,2.69c-.11.25-.08.53.07.75,1.28,1.97,2.18,4.15,2.67,6.44.06.26.24.48.49.58l2.71,1.08c.19.07.33.25.36.46.12,1.28.12,2.57,0,3.84-.03.2-.16.37-.35.45l-2.72,1.08s-.04.02-.06.03v-1.88c0-1.43-.64-2.79-1.74-3.71-1.15-9.69-9.95-16.62-19.64-15.46-8.11.96-14.5,7.36-15.46,15.46-1.1.91-1.74,2.27-1.74,3.71v1.88s-.04-.02-.06-.03l-2.71-1.08c-.19-.07-.33-.25-.36-.46-.12-1.28-.12-2.57,0-3.85Z"/><path class="cls-17" d="m691.67,288.43c-4.44,0-8.04,3.6-8.04,8.04s3.6,8.04,8.04,8.04,8.04-3.6,8.04-8.04c0-4.44-3.6-8.03-8.04-8.04Zm-3.74,13.27c2.23-1.61,5.24-1.61,7.47,0-2.23,1.61-5.24,1.61-7.47,0Zm1.32-5.23c0-1.33,1.08-2.41,2.41-2.41s2.41,1.08,2.41,2.41-1.08,2.41-2.41,2.41-2.41-1.08-2.41-2.41Zm7.35,4.11c-.66-.51-1.39-.92-2.18-1.21,1.61-1.53,1.68-4.07.16-5.68-1.53-1.61-4.07-1.68-5.68-.16s-1.68,4.07-.16,5.68c.05.05.1.11.16.16-.78.29-1.52.69-2.18,1.21-2.27-2.73-1.91-6.78.82-9.06,2.73-2.27,6.78-1.91,9.06.82,1.99,2.39,1.99,5.85,0,8.24Z"/><path class="cls-17" d="m698.91,279.59v.8c0,.44.36.8.8.8s.8-.36.8-.8v-.8c0-.44-.36-.8-.8-.8s-.8.36-.8.8Z"/><path class="cls-17" d="m694.89,306.12h-6.43c-.44,0-.8.36-.8.8s.36.8.8.8h6.43c.44,0,.8-.36.8-.8s-.36-.8-.8-.8Z"/><path class="cls-17" d="m705.34,291.65h6.43c.44,0,.8-.36.8-.8s-.36-.8-.8-.8h-6.43c-.44,0-.8.36-.8.8s.36.8.8.8Z"/><path class="cls-17" d="m714.18,294.87h-11.26c-.44,0-.8.36-.8.8s.36.8.8.8h11.26c.44,0,.8-.36.8-.8s-.36-.8-.8-.8Z"/><path class="cls-17" d="m714.18,298.08h-11.26c-.44,0-.8.36-.8.8s.36.8.8.8h11.26c.44,0,.8-.36.8-.8s-.36-.8-.8-.8Z"/><path class="cls-17" d="m714.18,301.3h-11.26c-.44,0-.8.36-.8.8s.36.8.8.8h11.26c.44,0,.8-.36.8-.8s-.36-.8-.8-.8Z"/><path class="cls-17" d="m714.18,304.51h-11.26c-.44,0-.8.36-.8.8s.36.8.8.8h11.26c.44,0,.8-.36.8-.8s-.36-.8-.8-.8Z"/></svg>