<?xml version="1.0" encoding="UTF-8"?>
<svg id="Outline" xmlns="http://www.w3.org/2000/svg" viewBox="0 0 960 638">
  <defs>
    <style>
      .cls-1 {
        fill: #fff;
        stroke: #2358a3;
        stroke-width: 4px;
      }

      .cls-1, .cls-2, .cls-3, .cls-4 {
        stroke-miterlimit: 10;
      }

      .cls-2 {
        fill: none;
        stroke: #939598;
        stroke-dasharray: 0 0 6.02 6.02;
        stroke-width: 2px;
      }

      .cls-3 {
        fill: #bde7fb;
      }

      .cls-3, .cls-4 {
        stroke: #fff;
        stroke-width: 3px;
      }

      .cls-4 {
        fill: #7dcff4;
      }

      .cls-5 {
        fill: #2358a3;
      }

      .cls-5, .cls-6, .cls-7 {
        stroke-width: 0px;
      }

      .cls-6 {
        fill: #dedede;
      }

      .cls-7 {
        fill: #333;
      }
    </style>
  </defs>
  <circle class="cls-2" cx="478.14" cy="359.14" r="231.86"/>
  <circle class="cls-1" cx="477.84" cy="128.75" r="51.95"/>
  <circle class="cls-1" cx="256.99" cy="288.35" r="51.95"/>
  <circle class="cls-1" cx="342.19" cy="546.21" r="51.95"/>
  <circle class="cls-1" cx="613.98" cy="546.21" r="51.95"/>
  <circle class="cls-1" cx="699.59" cy="289.34" r="51.95"/>
  <circle class="cls-6" cx="477.11" cy="353.93" r="96.46"/>
  <circle class="cls-3" cx="477.11" cy="353.93" r="90.33"/>
  <g>
    <path class="cls-7" d="M454.36,28.59c-.05-.49-.27-.87-.66-1.14-.39-.27-.89-.41-1.51-.41-.43,0-.81.07-1.12.2-.31.13-.55.31-.71.53-.16.22-.25.48-.25.77,0,.24.06.45.17.62.11.18.26.32.45.45.19.12.4.22.63.31.23.08.47.15.7.21l1.08.27c.43.1.85.24,1.25.41s.76.39,1.08.65c.32.26.57.58.76.95s.28.8.28,1.3c0,.67-.17,1.26-.52,1.77-.34.51-.84.91-1.49,1.19-.65.29-1.43.43-2.35.43s-1.67-.14-2.32-.42c-.66-.28-1.17-.68-1.54-1.21s-.57-1.18-.6-1.94h2.05c.03.4.15.73.37,1,.22.27.5.46.85.59.35.13.74.2,1.17.2s.85-.07,1.19-.2c.34-.14.61-.33.8-.57s.29-.53.3-.86c0-.3-.09-.55-.26-.74s-.41-.36-.72-.49c-.31-.13-.67-.25-1.08-.36l-1.31-.34c-.95-.24-1.69-.61-2.24-1.11-.55-.5-.82-1.15-.82-1.98,0-.68.18-1.27.55-1.78s.87-.9,1.51-1.19c.64-.28,1.35-.42,2.16-.42s1.53.14,2.14.42,1.1.67,1.45,1.17c.35.5.53,1.07.54,1.72h-2Z"/>
    <path class="cls-7" d="M459.54,40.15c-.28,0-.53-.02-.77-.06-.23-.04-.42-.09-.56-.15l.47-1.58c.29.09.56.13.79.12.23,0,.44-.08.61-.22.18-.14.33-.37.45-.7l.17-.47-3.12-8.79h2.15l1.98,6.5h.09l1.99-6.5h2.16l-3.45,9.65c-.16.46-.37.85-.64,1.17-.27.33-.59.58-.97.75-.38.17-.84.26-1.37.26Z"/>
    <path class="cls-7" d="M474.17,30.58l-1.85.2c-.05-.19-.14-.36-.27-.53-.13-.16-.3-.3-.52-.4-.22-.1-.48-.15-.8-.15-.42,0-.78.09-1.06.27-.29.18-.43.42-.42.71,0,.25.09.45.28.61.19.16.5.29.94.39l1.47.31c.81.18,1.42.45,1.82.84.4.38.6.88.6,1.5,0,.54-.16,1.02-.47,1.43s-.74.74-1.3.97c-.55.23-1.19.35-1.91.35-1.05,0-1.9-.22-2.54-.66-.64-.44-1.03-1.06-1.15-1.85l1.98-.19c.09.39.28.68.57.88.29.2.67.3,1.14.3s.87-.1,1.16-.3c.29-.2.44-.44.44-.73,0-.25-.09-.45-.28-.61-.19-.16-.48-.28-.88-.37l-1.47-.31c-.83-.17-1.44-.46-1.83-.87s-.59-.93-.59-1.56c0-.53.14-.99.43-1.38.29-.39.7-.69,1.23-.91.52-.21,1.13-.32,1.82-.32,1.01,0,1.8.22,2.39.65s.94,1.01,1.08,1.74Z"/>
    <path class="cls-7" d="M480.33,28.31v1.57h-4.95v-1.57h4.95ZM476.61,26.24h2.03v8.08c0,.27.04.48.13.63.08.14.2.24.33.29.14.05.29.08.46.08.13,0,.24,0,.35-.03s.19-.04.24-.05l.34,1.59c-.11.04-.26.08-.46.12-.2.04-.44.07-.73.08-.51.02-.97-.06-1.37-.23-.41-.17-.73-.43-.97-.79s-.35-.81-.35-1.35v-8.42Z"/>
    <path class="cls-7" d="M485.76,37.09c-.86,0-1.61-.18-2.23-.54-.63-.36-1.11-.87-1.44-1.54-.34-.66-.5-1.45-.5-2.35s.17-1.66.51-2.33c.34-.67.81-1.19,1.42-1.57s1.33-.56,2.15-.56c.53,0,1.03.08,1.5.26.47.17.89.43,1.26.79s.65.81.86,1.35c.21.55.31,1.2.31,1.95v.62h-7.06v-1.37h5.11c0-.39-.09-.74-.25-1.04-.16-.3-.39-.54-.69-.72-.29-.18-.63-.26-1.02-.26-.42,0-.78.1-1.09.3-.31.2-.56.46-.73.79s-.26.68-.27,1.06v1.19c0,.5.09.93.27,1.29.18.36.44.63.77.82.33.19.71.28,1.15.28.3,0,.56-.04.8-.13s.45-.21.62-.37c.17-.16.31-.37.4-.61l1.9.21c-.12.5-.35.94-.68,1.31-.33.37-.76.66-1.28.86s-1.11.31-1.78.31Z"/>
    <path class="cls-7" d="M491.3,36.92v-8.61h1.94v1.46h.1c.18-.49.48-.88.89-1.16s.91-.42,1.49-.42,1.08.14,1.48.42c.4.28.69.67.85,1.15h.09c.19-.48.51-.86.97-1.15.45-.29.99-.43,1.62-.43.79,0,1.44.25,1.94.75s.75,1.23.75,2.19v5.78h-2.04v-5.47c0-.53-.14-.93-.43-1.17s-.63-.37-1.04-.37c-.49,0-.87.15-1.15.46s-.41.7-.41,1.19v5.37h-1.99v-5.55c0-.44-.13-.8-.4-1.07-.27-.27-.62-.4-1.05-.4-.29,0-.56.07-.8.22-.24.15-.43.35-.57.62-.14.27-.21.58-.21.93v5.24h-2.03Z"/>
    <path class="cls-7" d="M436.84,55.86h-2.22l4.04-11.48h2.57l4.05,11.48h-2.22l-3.07-9.13h-.09l-3.06,9.13ZM436.91,51.36h6.06v1.67h-6.06v-1.67Z"/>
    <path class="cls-7" d="M453.32,47.25l-3.07,8.61h-2.24l-3.07-8.61h2.16l1.98,6.4h.09l1.98-6.4h2.16Z"/>
    <path class="cls-7" d="M456.94,56.04c-.55,0-1.04-.1-1.47-.29-.44-.2-.78-.49-1.03-.87-.25-.39-.38-.86-.38-1.42,0-.49.09-.89.27-1.21.18-.32.42-.57.73-.76.31-.19.66-.34,1.05-.43.39-.1.79-.17,1.21-.22.5-.05.91-.1,1.23-.14s.54-.11.69-.2c.14-.09.22-.23.22-.43v-.03c0-.42-.13-.75-.38-.98-.25-.23-.61-.35-1.08-.35-.5,0-.89.11-1.18.33-.29.22-.48.47-.59.77l-1.9-.27c.15-.52.4-.96.74-1.31.34-.35.76-.62,1.26-.8.5-.18,1.05-.27,1.65-.27.41,0,.83.05,1.24.15s.79.26,1.13.48c.34.22.61.52.82.91s.31.86.31,1.43v5.76h-1.95v-1.18h-.07c-.12.24-.3.46-.52.67-.22.21-.5.37-.84.5-.33.13-.73.19-1.17.19ZM457.47,54.54c.41,0,.76-.08,1.06-.24.3-.16.53-.38.69-.65s.24-.56.24-.88v-1.02c-.06.05-.17.1-.32.15s-.32.08-.51.12-.37.06-.56.09c-.18.03-.34.05-.48.07-.3.04-.57.11-.81.2-.24.09-.43.22-.57.39-.14.17-.21.38-.21.64,0,.37.14.66.41.85.27.19.62.29,1.04.29Z"/>
    <path class="cls-7" d="M464.56,46.03c-.32,0-.6-.11-.83-.33s-.35-.48-.35-.78.12-.56.35-.78.51-.32.83-.32.6.11.83.33c.23.22.35.48.35.78s-.12.56-.35.78c-.23.21-.51.32-.83.32ZM463.54,55.86v-8.61h2.03v8.61h-2.03Z"/>
    <path class="cls-7" d="M469.68,44.38v11.48h-2.03v-11.48h2.03Z"/>
    <path class="cls-7" d="M474.24,56.04c-.55,0-1.04-.1-1.47-.29-.44-.2-.78-.49-1.03-.87-.25-.39-.38-.86-.38-1.42,0-.49.09-.89.27-1.21.18-.32.42-.57.73-.76.31-.19.66-.34,1.05-.43.39-.1.79-.17,1.21-.22.5-.05.91-.1,1.23-.14s.54-.11.69-.2c.14-.09.22-.23.22-.43v-.03c0-.42-.13-.75-.38-.98-.25-.23-.61-.35-1.08-.35-.5,0-.89.11-1.18.33-.29.22-.48.47-.59.77l-1.9-.27c.15-.52.4-.96.74-1.31.34-.35.76-.62,1.26-.8.5-.18,1.05-.27,1.65-.27.41,0,.83.05,1.24.15.41.1.79.26,1.13.48.34.22.61.52.82.91.21.38.31.86.31,1.43v5.76h-1.95v-1.18h-.07c-.12.24-.3.46-.52.67-.22.21-.5.37-.84.5-.33.13-.73.19-1.17.19ZM474.77,54.54c.41,0,.76-.08,1.06-.24.3-.16.53-.38.69-.65.16-.27.24-.56.24-.88v-1.02c-.06.05-.17.1-.32.15s-.32.08-.51.12-.37.06-.56.09c-.18.03-.34.05-.48.07-.3.04-.57.11-.81.2-.24.09-.43.22-.57.39-.14.17-.21.38-.21.64,0,.37.14.66.41.85.27.19.62.29,1.04.29Z"/>
    <path class="cls-7" d="M480.93,55.86v-11.48h2.03v4.29h.08c.1-.21.25-.43.44-.67.19-.24.45-.44.77-.61.33-.17.74-.26,1.24-.26.67,0,1.27.17,1.8.51.54.34.96.84,1.28,1.5.32.66.47,1.47.47,2.42s-.16,1.75-.46,2.41c-.31.66-.73,1.17-1.27,1.51s-1.14.52-1.82.52c-.49,0-.9-.08-1.23-.25s-.59-.36-.78-.6-.35-.46-.46-.66h-.12v1.36h-2ZM482.92,51.56c0,.56.08,1.04.24,1.46.16.42.39.74.69.98.3.23.67.35,1.1.35s.82-.12,1.13-.36c.3-.24.53-.57.69-.99s.23-.9.23-1.44-.08-1.01-.23-1.42c-.15-.42-.38-.74-.68-.98-.3-.24-.68-.35-1.13-.35s-.8.11-1.1.34-.53.55-.69.96-.23.9-.23,1.45Z"/>
    <path class="cls-7" d="M491.81,46.03c-.32,0-.6-.11-.83-.33s-.35-.48-.35-.78.12-.56.35-.78.51-.32.83-.32.6.11.83.33c.23.22.34.48.34.78s-.11.56-.34.78c-.23.21-.51.32-.83.32ZM490.79,55.86v-8.61h2.03v8.61h-2.03Z"/>
    <path class="cls-7" d="M496.93,44.38v11.48h-2.03v-11.48h2.03Z"/>
    <path class="cls-7" d="M500.04,46.03c-.32,0-.6-.11-.83-.33s-.35-.48-.35-.78.12-.56.35-.78.51-.32.83-.32.6.11.83.33c.23.22.34.48.34.78s-.11.56-.34.78c-.23.21-.51.32-.83.32ZM499.02,55.86v-8.61h2.03v8.61h-2.03Z"/>
    <path class="cls-7" d="M507.43,47.25v1.57h-4.95v-1.57h4.95ZM503.71,45.19h2.03v8.08c0,.27.04.48.13.63.08.14.2.24.33.29.14.05.29.08.46.08.13,0,.24,0,.35-.03s.19-.04.24-.05l.34,1.59c-.11.04-.26.08-.46.12-.2.04-.44.07-.73.08-.51.02-.97-.06-1.37-.23-.41-.17-.73-.43-.97-.79s-.35-.81-.35-1.35v-8.42Z"/>
    <path class="cls-7" d="M510.39,59.09c-.28,0-.53-.02-.77-.06s-.42-.09-.56-.15l.47-1.58c.29.09.56.13.79.12.23,0,.44-.08.61-.22s.33-.37.45-.7l.17-.47-3.12-8.79h2.15l1.98,6.5h.09l1.99-6.5h2.16l-3.45,9.65c-.16.46-.37.85-.64,1.17s-.59.58-.97.75-.84.26-1.37.26Z"/>
  </g>
  <g>
    <path class="cls-7" d="M774.65,266.55v11.48h-2.08v-11.48h2.08Z"/>
    <path class="cls-7" d="M780.01,278.19c-.68,0-1.28-.17-1.82-.52s-.96-.85-1.27-1.51c-.31-.66-.47-1.46-.47-2.41s.16-1.77.47-2.42c.32-.66.74-1.16,1.28-1.5.54-.34,1.14-.51,1.8-.51.5,0,.92.08,1.24.26.33.17.58.37.77.61.19.24.34.46.44.67h.08v-4.29h2.04v11.48h-2v-1.36h-.12c-.1.21-.26.43-.45.66s-.46.43-.79.6-.73.25-1.23.25ZM780.58,276.52c.43,0,.8-.12,1.1-.35.3-.23.53-.56.69-.98.16-.42.24-.91.24-1.46s-.08-1.04-.23-1.45-.38-.73-.68-.96-.67-.34-1.11-.34-.83.12-1.13.35c-.3.24-.53.56-.68.98-.15.41-.23.89-.23,1.42s.08,1.02.23,1.44.38.75.69.99c.3.24.68.36,1.12.36Z"/>
    <path class="cls-7" d="M790.58,278.2c-.86,0-1.61-.18-2.23-.54-.63-.36-1.11-.87-1.44-1.54-.34-.66-.5-1.45-.5-2.35s.17-1.66.51-2.33c.34-.67.81-1.19,1.42-1.57s1.33-.56,2.15-.56c.53,0,1.03.08,1.5.26.47.17.89.43,1.26.79s.65.81.86,1.35c.21.55.31,1.2.31,1.95v.62h-7.06v-1.37h5.11c0-.39-.09-.74-.25-1.04-.16-.3-.39-.54-.69-.72-.29-.18-.63-.26-1.02-.26-.42,0-.78.1-1.09.3-.31.2-.56.46-.73.79s-.26.68-.27,1.06v1.19c0,.5.09.93.27,1.29.18.36.44.63.77.82.33.19.71.28,1.15.28.3,0,.56-.04.8-.13s.45-.21.62-.37c.17-.16.31-.37.4-.61l1.9.21c-.12.5-.35.94-.68,1.31-.33.37-.76.66-1.28.86s-1.11.31-1.78.31Z"/>
    <path class="cls-7" d="M798.15,272.99v5.05h-2.03v-8.61h1.94v1.46h.1c.2-.48.51-.87.95-1.15.43-.28.97-.43,1.62-.43.59,0,1.11.13,1.56.38.44.25.79.62,1.03,1.1.25.48.37,1.07.36,1.75v5.48h-2.03v-5.17c0-.58-.15-1.03-.45-1.35s-.71-.49-1.23-.49c-.36,0-.67.08-.95.23-.27.16-.49.38-.64.67s-.23.65-.23,1.06Z"/>
    <path class="cls-7" d="M810.05,269.42v1.57h-4.95v-1.57h4.95ZM806.32,267.36h2.03v8.08c0,.27.04.48.13.63.08.14.2.24.33.29.14.05.29.08.46.08.13,0,.24,0,.35-.03s.19-.04.24-.05l.34,1.59c-.11.04-.26.08-.46.12-.2.04-.44.07-.73.08-.51.02-.97-.06-1.37-.23-.41-.17-.73-.43-.97-.79s-.35-.81-.35-1.35v-8.42Z"/>
    <path class="cls-7" d="M812.77,268.2c-.32,0-.6-.11-.83-.33s-.35-.48-.35-.78.12-.56.35-.78.51-.32.83-.32.6.11.83.33c.23.22.34.48.34.78s-.11.56-.34.78c-.23.21-.51.32-.83.32ZM811.75,278.04v-8.61h2.03v8.61h-2.03Z"/>
    <path class="cls-7" d="M820.17,269.42v1.57h-4.95v-1.57h4.95ZM816.44,267.36h2.03v8.08c0,.27.04.48.13.63.08.14.2.24.33.29.14.05.29.08.46.08.13,0,.24,0,.35-.03s.19-.04.24-.05l.34,1.59c-.11.04-.26.08-.46.12-.2.04-.44.07-.73.08-.51.02-.97-.06-1.37-.23-.41-.17-.73-.43-.97-.79s-.35-.81-.35-1.35v-8.42Z"/>
    <path class="cls-7" d="M823.12,281.27c-.28,0-.53-.02-.77-.06s-.42-.09-.56-.15l.47-1.58c.29.09.56.13.79.12.23,0,.44-.08.61-.22s.33-.37.45-.7l.17-.47-3.12-8.79h2.15l1.98,6.5h.09l1.99-6.5h2.16l-3.45,9.65c-.16.46-.37.85-.64,1.17s-.59.58-.97.75-.84.26-1.37.26Z"/>
    <path class="cls-7" d="M772.57,285.5h2.54l3.41,8.32h.13l3.41-8.32h2.54v11.48h-2v-7.89h-.11l-3.17,7.85h-1.49l-3.17-7.87h-.11v7.9h-2v-11.48Z"/>
    <path class="cls-7" d="M789.26,297.15c-.55,0-1.04-.1-1.47-.29s-.78-.49-1.03-.87c-.25-.39-.38-.86-.38-1.42,0-.49.09-.89.27-1.21.18-.32.42-.57.73-.76.31-.19.66-.34,1.05-.43.39-.1.79-.17,1.21-.22.5-.05.91-.1,1.23-.14.31-.04.54-.11.69-.2.14-.09.22-.23.22-.43v-.03c0-.42-.12-.75-.38-.98-.25-.23-.61-.35-1.08-.35-.5,0-.89.11-1.18.33-.29.22-.49.47-.59.77l-1.89-.27c.15-.52.4-.96.74-1.31s.76-.62,1.26-.8c.5-.18,1.05-.27,1.65-.27.42,0,.83.05,1.24.15s.79.26,1.13.48c.34.22.61.52.82.91.21.38.31.86.31,1.43v5.76h-1.95v-1.18h-.07c-.12.24-.3.46-.52.67-.22.21-.5.37-.83.5-.33.13-.73.19-1.17.19ZM789.79,295.66c.41,0,.76-.08,1.06-.24s.53-.38.69-.65c.16-.27.24-.56.24-.88v-1.02c-.06.05-.17.1-.32.15s-.32.08-.51.12-.37.06-.55.09c-.18.03-.34.05-.48.07-.3.04-.57.11-.81.2s-.43.22-.57.39c-.14.17-.21.38-.21.64,0,.37.14.66.41.85.27.19.62.29,1.04.29Z"/>
    <path class="cls-7" d="M797.89,291.93v5.05h-2.03v-8.61h1.94v1.46h.1c.2-.48.51-.87.95-1.15.43-.28.97-.43,1.62-.43.59,0,1.11.13,1.56.38.44.25.79.62,1.03,1.1.25.48.37,1.07.36,1.75v5.48h-2.03v-5.17c0-.58-.15-1.03-.45-1.35s-.71-.49-1.23-.49c-.36,0-.67.08-.95.23-.27.16-.49.38-.64.67s-.23.65-.23,1.06Z"/>
    <path class="cls-7" d="M807.96,297.15c-.55,0-1.04-.1-1.47-.29s-.78-.49-1.03-.87c-.25-.39-.38-.86-.38-1.42,0-.49.09-.89.27-1.21.18-.32.42-.57.73-.76.31-.19.66-.34,1.05-.43.39-.1.79-.17,1.21-.22.5-.05.91-.1,1.23-.14.31-.04.54-.11.69-.2.14-.09.22-.23.22-.43v-.03c0-.42-.12-.75-.38-.98-.25-.23-.61-.35-1.08-.35-.5,0-.89.11-1.18.33-.29.22-.49.47-.59.77l-1.89-.27c.15-.52.4-.96.74-1.31s.76-.62,1.26-.8c.5-.18,1.05-.27,1.65-.27.42,0,.83.05,1.24.15s.79.26,1.13.48c.34.22.61.52.82.91.21.38.31.86.31,1.43v5.76h-1.95v-1.18h-.07c-.12.24-.3.46-.52.67-.22.21-.5.37-.83.5-.33.13-.73.19-1.17.19ZM808.49,295.66c.41,0,.76-.08,1.06-.24s.53-.38.69-.65c.16-.27.24-.56.24-.88v-1.02c-.06.05-.17.1-.32.15s-.32.08-.51.12-.37.06-.55.09c-.18.03-.34.05-.48.07-.3.04-.57.11-.81.2s-.43.22-.57.39c-.14.17-.21.38-.21.64,0,.37.14.66.41.85.27.19.62.29,1.04.29Z"/>
    <path class="cls-7" d="M818.3,300.39c-.73,0-1.36-.1-1.88-.29-.52-.2-.94-.46-1.26-.79-.32-.33-.54-.69-.66-1.09l1.83-.44c.08.17.2.34.36.5.16.17.37.3.64.41s.6.17,1.01.17c.58,0,1.05-.14,1.43-.42.38-.28.57-.74.57-1.37v-1.63h-.1c-.11.21-.26.42-.46.64-.2.22-.46.41-.79.56s-.74.22-1.23.22c-.66,0-1.26-.16-1.8-.47s-.96-.78-1.28-1.4c-.32-.62-.47-1.4-.47-2.34s.16-1.74.47-2.4c.32-.65.74-1.15,1.28-1.49.54-.34,1.14-.51,1.8-.51.5,0,.92.08,1.25.26.33.17.59.37.78.61s.34.46.44.67h.11v-1.42h2v8.75c0,.74-.18,1.35-.53,1.83-.35.48-.83.84-1.44,1.08s-1.3.36-2.07.36ZM818.31,295.27c.43,0,.8-.1,1.1-.31.3-.21.53-.51.69-.9.16-.39.24-.86.24-1.41s-.08-1.02-.23-1.42c-.16-.41-.38-.72-.68-.95s-.67-.34-1.11-.34-.83.12-1.13.35c-.3.24-.53.56-.68.97-.15.41-.23.87-.23,1.39s.08.99.23,1.38.38.7.69.92.68.33,1.12.33Z"/>
    <path class="cls-7" d="M828.24,297.15c-.86,0-1.61-.18-2.23-.54-.63-.36-1.11-.87-1.44-1.54-.34-.66-.5-1.45-.5-2.35s.17-1.66.51-2.33c.34-.67.81-1.19,1.42-1.57s1.33-.56,2.15-.56c.53,0,1.03.08,1.5.26.47.17.89.43,1.26.79s.65.81.86,1.35c.21.55.31,1.2.31,1.95v.62h-7.06v-1.37h5.11c0-.39-.09-.74-.25-1.04-.16-.3-.39-.54-.69-.72-.29-.18-.63-.26-1.02-.26-.42,0-.78.1-1.09.3-.31.2-.56.46-.73.79s-.26.68-.27,1.06v1.19c0,.5.09.93.27,1.29.18.36.44.63.77.82.33.19.71.28,1.15.28.3,0,.56-.04.8-.13s.45-.21.62-.37c.17-.16.31-.37.4-.61l1.9.21c-.12.5-.35.94-.68,1.31-.33.37-.76.66-1.28.86s-1.11.31-1.78.31Z"/>
    <path class="cls-7" d="M833.78,296.98v-8.61h1.94v1.46h.1c.18-.49.48-.88.89-1.16s.91-.42,1.49-.42,1.08.14,1.48.42c.4.28.69.67.85,1.15h.09c.19-.48.51-.86.97-1.15.45-.29.99-.43,1.62-.43.79,0,1.44.25,1.94.75s.75,1.23.75,2.19v5.78h-2.04v-5.47c0-.53-.14-.93-.43-1.17s-.63-.37-1.04-.37c-.49,0-.87.15-1.15.46s-.41.7-.41,1.19v5.37h-1.99v-5.55c0-.44-.13-.8-.4-1.07-.27-.27-.62-.4-1.05-.4-.29,0-.56.07-.8.22-.24.15-.43.35-.57.62-.14.27-.21.58-.21.93v5.24h-2.03Z"/>
    <path class="cls-7" d="M851.77,297.15c-.86,0-1.61-.18-2.23-.54-.63-.36-1.11-.87-1.44-1.54-.34-.66-.5-1.45-.5-2.35s.17-1.66.51-2.33c.34-.67.81-1.19,1.42-1.57s1.33-.56,2.15-.56c.53,0,1.03.08,1.5.26.47.17.89.43,1.26.79s.65.81.86,1.35c.21.55.31,1.2.31,1.95v.62h-7.06v-1.37h5.11c0-.39-.09-.74-.25-1.04-.16-.3-.39-.54-.69-.72-.29-.18-.63-.26-1.02-.26-.42,0-.78.1-1.09.3-.31.2-.56.46-.73.79s-.26.68-.27,1.06v1.19c0,.5.09.93.27,1.29.18.36.44.63.77.82.33.19.71.28,1.15.28.3,0,.56-.04.8-.13s.45-.21.62-.37c.17-.16.31-.37.4-.61l1.9.21c-.12.5-.35.94-.68,1.31-.33.37-.76.66-1.28.86s-1.11.31-1.78.31Z"/>
    <path class="cls-7" d="M859.34,291.93v5.05h-2.03v-8.61h1.94v1.46h.1c.2-.48.51-.87.95-1.15.43-.28.97-.43,1.62-.43.59,0,1.11.13,1.56.38.44.25.79.62,1.03,1.1.25.48.37,1.07.36,1.75v5.48h-2.03v-5.17c0-.58-.15-1.03-.45-1.35s-.71-.49-1.23-.49c-.36,0-.67.08-.95.23-.27.16-.49.38-.64.67s-.23.65-.23,1.06Z"/>
    <path class="cls-7" d="M871.24,288.37v1.57h-4.95v-1.57h4.95ZM867.51,286.31h2.03v8.08c0,.27.04.48.13.63.08.14.2.24.33.29.14.05.29.08.46.08.13,0,.24,0,.35-.03s.19-.04.24-.05l.34,1.59c-.11.04-.26.08-.46.12-.2.04-.44.07-.73.08-.51.02-.97-.06-1.37-.23-.41-.17-.73-.43-.97-.79s-.35-.81-.35-1.35v-8.42Z"/>
  </g>
  <g>
    <path class="cls-7" d="M685.47,539.08h2.54l3.41,8.32h.13l3.41-8.32h2.54v11.48h-2v-7.89h-.11l-3.17,7.85h-1.49l-3.17-7.87h-.11v7.91h-2v-11.48Z"/>
    <path class="cls-7" d="M702.16,550.73c-.55,0-1.04-.1-1.47-.29s-.78-.49-1.03-.87-.38-.86-.38-1.42c0-.49.09-.89.27-1.21.18-.32.42-.57.73-.76.31-.19.66-.34,1.05-.43.39-.1.79-.17,1.21-.22.5-.05.91-.1,1.23-.14.31-.04.54-.11.69-.2.14-.09.22-.24.22-.43v-.03c0-.42-.12-.75-.38-.98-.25-.23-.61-.35-1.08-.35-.5,0-.89.11-1.18.33-.29.22-.49.47-.59.77l-1.89-.27c.15-.52.4-.96.74-1.31s.76-.62,1.26-.8,1.05-.27,1.65-.27c.42,0,.83.05,1.24.15.41.1.79.26,1.13.48.34.22.61.52.82.91.21.38.31.86.31,1.43v5.76h-1.95v-1.18h-.07c-.12.24-.3.46-.52.67-.22.21-.5.37-.83.5-.33.12-.73.19-1.17.19ZM702.69,549.24c.41,0,.76-.08,1.06-.24.3-.16.53-.38.69-.65.16-.27.24-.56.24-.88v-1.01c-.06.05-.17.1-.32.15s-.32.08-.51.12c-.19.03-.37.06-.55.09-.18.03-.34.05-.48.07-.3.04-.57.11-.81.2s-.43.22-.57.39c-.14.17-.21.38-.21.64,0,.37.14.66.41.85s.62.29,1.04.29Z"/>
    <path class="cls-7" d="M710.42,541.95l1.74,3.18,1.77-3.18h2.15l-2.6,4.31,2.64,4.31h-2.14l-1.82-3.1-1.81,3.1h-2.15l2.62-4.31-2.56-4.31h2.15Z"/>
    <path class="cls-7" d="M718.66,540.73c-.32,0-.6-.11-.83-.33-.23-.22-.35-.48-.35-.78s.12-.56.35-.78.51-.32.83-.32.6.11.83.33c.23.22.34.48.34.78s-.11.56-.34.78c-.23.21-.51.32-.83.32ZM717.64,550.56v-8.61h2.03v8.61h-2.03Z"/>
    <path class="cls-7" d="M721.75,550.56v-8.61h1.94v1.46h.1c.18-.49.48-.88.89-1.16s.91-.42,1.49-.42,1.08.14,1.48.42c.4.28.69.67.85,1.15h.09c.19-.48.51-.86.97-1.15.45-.29.99-.43,1.62-.43.79,0,1.44.25,1.94.75.5.5.75,1.23.75,2.19v5.78h-2.04v-5.47c0-.54-.14-.93-.43-1.17-.28-.25-.63-.37-1.04-.37-.49,0-.87.15-1.15.46s-.41.7-.41,1.19v5.37h-1.99v-5.55c0-.44-.13-.8-.4-1.06-.27-.27-.62-.4-1.05-.4-.29,0-.56.07-.8.22s-.43.36-.57.62c-.14.27-.21.58-.21.93v5.24h-2.03Z"/>
    <path class="cls-7" d="M736.95,540.73c-.32,0-.6-.11-.83-.33-.23-.22-.35-.48-.35-.78s.12-.56.35-.78.51-.32.83-.32.6.11.83.33c.23.22.34.48.34.78s-.11.56-.34.78c-.23.21-.51.32-.83.32ZM735.92,550.56v-8.61h2.03v8.61h-2.03Z"/>
    <path class="cls-7" d="M739.93,550.56v-1.29l4.44-5.57v-.07h-4.29v-1.68h6.78v1.38l-4.23,5.47v.07h4.37v1.68h-7.07Z"/>
    <path class="cls-7" d="M752.47,550.73c-.86,0-1.61-.18-2.23-.54-.63-.36-1.11-.87-1.44-1.54-.34-.66-.5-1.45-.5-2.35s.17-1.66.51-2.33c.34-.67.81-1.19,1.42-1.57s1.33-.56,2.15-.56c.53,0,1.03.08,1.5.25.47.17.89.43,1.26.79s.65.81.86,1.35c.21.55.31,1.2.31,1.95v.62h-7.06v-1.37h5.11c0-.39-.09-.74-.25-1.04-.16-.3-.39-.54-.69-.72-.29-.18-.63-.26-1.02-.26-.42,0-.78.1-1.09.3-.31.2-.56.46-.73.79s-.26.68-.27,1.06v1.19c0,.5.09.93.27,1.29.18.36.44.63.77.82.33.19.71.28,1.15.28.3,0,.56-.04.8-.13s.45-.21.62-.37c.17-.16.31-.37.4-.61l1.9.21c-.12.5-.35.94-.68,1.31s-.76.66-1.28.86c-.52.2-1.11.31-1.78.31Z"/>
    <path class="cls-7" d="M687.55,558.02v11.48h-2.08v-11.48h2.08Z"/>
    <path class="cls-7" d="M691.75,564.46v5.05h-2.03v-8.61h1.94v1.46h.1c.2-.48.51-.87.95-1.15.43-.28.97-.43,1.62-.43.59,0,1.11.13,1.56.38.44.25.79.62,1.03,1.1.25.48.37,1.07.36,1.75v5.48h-2.03v-5.17c0-.58-.15-1.03-.45-1.35s-.71-.49-1.23-.49c-.36,0-.67.08-.95.23-.27.16-.49.38-.64.67-.16.29-.23.64-.23,1.06Z"/>
    <path class="cls-7" d="M706.72,560.89l-3.07,8.61h-2.24l-3.07-8.61h2.16l1.98,6.4h.09l1.98-6.4h2.16Z"/>
    <path class="cls-7" d="M711.64,569.67c-.86,0-1.61-.18-2.23-.54-.63-.36-1.11-.87-1.44-1.54-.34-.66-.5-1.45-.5-2.35s.17-1.66.51-2.33c.34-.67.81-1.19,1.42-1.57s1.33-.56,2.15-.56c.53,0,1.03.08,1.5.25.47.17.89.43,1.26.79s.65.81.86,1.35c.21.55.31,1.2.31,1.95v.62h-7.06v-1.37h5.11c0-.39-.09-.74-.25-1.04-.16-.3-.39-.54-.69-.72-.29-.18-.63-.26-1.02-.26-.42,0-.78.1-1.09.3-.31.2-.56.46-.73.79s-.26.68-.27,1.06v1.19c0,.5.09.93.27,1.29.18.36.44.63.77.82.33.19.71.28,1.15.28.3,0,.56-.04.8-.13s.45-.21.62-.37c.17-.16.31-.37.4-.61l1.9.21c-.12.5-.35.94-.68,1.31s-.76.66-1.28.86c-.52.2-1.11.31-1.78.31Z"/>
    <path class="cls-7" d="M723.99,563.17l-1.85.2c-.05-.19-.14-.36-.27-.53-.13-.17-.3-.3-.52-.4-.22-.1-.48-.15-.8-.15-.42,0-.78.09-1.06.27-.29.18-.43.42-.42.71,0,.25.09.45.28.61.19.16.5.29.94.39l1.47.31c.81.18,1.42.45,1.82.83.4.38.6.88.6,1.5,0,.54-.16,1.02-.47,1.43-.31.41-.75.74-1.3.97-.55.23-1.19.35-1.91.35-1.05,0-1.9-.22-2.55-.66-.64-.44-1.03-1.06-1.15-1.85l1.98-.19c.09.39.28.68.57.88.29.2.67.3,1.14.3s.87-.1,1.16-.3c.29-.2.44-.44.44-.73,0-.25-.09-.45-.28-.61-.19-.16-.48-.28-.88-.37l-1.47-.31c-.83-.17-1.44-.46-1.83-.87-.4-.41-.59-.93-.59-1.56,0-.53.14-.99.43-1.38.29-.39.7-.69,1.23-.91.53-.21,1.13-.32,1.82-.32,1.01,0,1.8.21,2.39.64.58.43.94,1.01,1.08,1.74Z"/>
    <path class="cls-7" d="M730.15,560.89v1.57h-4.95v-1.57h4.95ZM726.42,558.83h2.03v8.08c0,.27.04.48.13.62s.2.24.33.29c.14.05.29.08.46.08.13,0,.24,0,.35-.03s.19-.04.24-.05l.34,1.59c-.11.04-.26.08-.46.12s-.44.07-.73.08c-.51.01-.97-.06-1.37-.23-.41-.17-.73-.43-.97-.79s-.35-.81-.35-1.35v-8.42Z"/>
    <path class="cls-7" d="M731.85,569.51v-8.61h1.94v1.46h.1c.18-.49.48-.88.89-1.16s.91-.42,1.49-.42,1.08.14,1.48.42c.4.28.69.67.85,1.15h.09c.19-.48.51-.86.97-1.15.45-.29.99-.43,1.62-.43.79,0,1.44.25,1.94.75.5.5.75,1.23.75,2.19v5.78h-2.04v-5.47c0-.54-.14-.93-.43-1.17-.28-.25-.63-.37-1.04-.37-.49,0-.87.15-1.15.46s-.41.7-.41,1.19v5.37h-1.99v-5.55c0-.44-.13-.8-.4-1.06-.27-.27-.62-.4-1.05-.4-.29,0-.56.07-.8.22s-.43.36-.57.62c-.14.27-.21.58-.21.93v5.24h-2.03Z"/>
    <path class="cls-7" d="M749.83,569.67c-.86,0-1.61-.18-2.23-.54-.63-.36-1.11-.87-1.44-1.54-.34-.66-.5-1.45-.5-2.35s.17-1.66.51-2.33c.34-.67.81-1.19,1.42-1.57s1.33-.56,2.15-.56c.53,0,1.03.08,1.5.25.47.17.89.43,1.26.79s.65.81.86,1.35c.21.55.31,1.2.31,1.95v.62h-7.06v-1.37h5.11c0-.39-.09-.74-.25-1.04-.16-.3-.39-.54-.69-.72-.29-.18-.63-.26-1.02-.26-.42,0-.78.1-1.09.3-.31.2-.56.46-.73.79s-.26.68-.27,1.06v1.19c0,.5.09.93.27,1.29.18.36.44.63.77.82.33.19.71.28,1.15.28.3,0,.56-.04.8-.13s.45-.21.62-.37c.17-.16.31-.37.4-.61l1.9.21c-.12.5-.35.94-.68,1.31s-.76.66-1.28.86c-.52.2-1.11.31-1.78.31Z"/>
    <path class="cls-7" d="M757.41,564.46v5.05h-2.03v-8.61h1.94v1.46h.1c.2-.48.51-.87.95-1.15.43-.28.97-.43,1.62-.43.59,0,1.11.13,1.56.38.44.25.79.62,1.03,1.1.25.48.37,1.07.36,1.75v5.48h-2.03v-5.17c0-.58-.15-1.03-.45-1.35s-.71-.49-1.23-.49c-.36,0-.67.08-.95.23-.27.16-.49.38-.64.67-.16.29-.23.64-.23,1.06Z"/>
    <path class="cls-7" d="M769.3,560.89v1.57h-4.95v-1.57h4.95ZM765.58,558.83h2.03v8.08c0,.27.04.48.13.62s.2.24.33.29c.14.05.29.08.46.08.13,0,.24,0,.35-.03s.19-.04.24-.05l.34,1.59c-.11.04-.26.08-.46.12s-.44.07-.73.08c-.51.01-.97-.06-1.37-.23-.41-.17-.73-.43-.97-.79s-.35-.81-.35-1.35v-8.42Z"/>
  </g>
  <g>
    <path class="cls-7" d="M196.73,550.56v-11.48h7.47v1.74h-5.39v3.12h5v1.74h-5v3.13h5.43v1.74h-7.51Z"/>
    <path class="cls-7" d="M208.26,545.51v5.05h-2.03v-8.61h1.94v1.46h.1c.2-.48.51-.87.95-1.15.44-.28.97-.43,1.62-.43.59,0,1.11.13,1.56.38.44.25.79.62,1.03,1.1.24.48.37,1.07.36,1.75v5.48h-2.03v-5.17c0-.58-.15-1.03-.45-1.35-.3-.33-.71-.49-1.23-.49-.36,0-.67.08-.94.23s-.49.38-.64.67c-.16.29-.23.64-.23,1.06Z"/>
    <path class="cls-7" d="M217.89,545.51v5.05h-2.03v-11.48h1.98v4.33h.1c.2-.49.51-.87.94-1.15s.97-.42,1.62-.42c.6,0,1.12.12,1.56.38.44.25.79.62,1.03,1.1.24.48.37,1.07.37,1.77v5.48h-2.03v-5.17c0-.58-.15-1.03-.45-1.35-.3-.32-.71-.48-1.25-.48-.36,0-.68.08-.96.23s-.5.38-.66.67c-.16.29-.24.64-.24,1.06Z"/>
    <path class="cls-7" d="M228.01,550.73c-.55,0-1.04-.1-1.47-.29-.44-.2-.78-.49-1.03-.87s-.38-.86-.38-1.42c0-.49.09-.89.27-1.21.18-.32.42-.57.73-.76.31-.19.66-.34,1.05-.43.39-.1.79-.17,1.21-.22.5-.05.91-.1,1.23-.14s.54-.11.69-.2c.14-.09.22-.24.22-.43v-.03c0-.42-.13-.75-.38-.98-.25-.23-.61-.35-1.08-.35-.5,0-.89.11-1.18.33-.29.22-.48.47-.59.77l-1.9-.27c.15-.52.4-.96.74-1.31.34-.35.76-.62,1.26-.8s1.05-.27,1.65-.27c.41,0,.83.05,1.24.15.41.1.79.26,1.13.48.34.22.61.52.82.91.21.38.31.86.31,1.43v5.76h-1.95v-1.18h-.07c-.12.24-.3.46-.52.67-.22.21-.5.37-.84.5-.33.12-.73.19-1.17.19ZM228.54,549.24c.41,0,.76-.08,1.06-.24.3-.16.53-.38.69-.65.16-.27.24-.56.24-.88v-1.01c-.06.05-.17.1-.32.15s-.32.08-.51.12c-.19.03-.37.06-.56.09-.18.03-.34.05-.48.07-.3.04-.57.11-.81.2-.24.09-.43.22-.57.39s-.21.38-.21.64c0,.37.14.66.41.85s.62.29,1.04.29Z"/>
    <path class="cls-7" d="M236.64,545.51v5.05h-2.03v-8.61h1.94v1.46h.1c.2-.48.51-.87.95-1.15.44-.28.97-.43,1.62-.43.59,0,1.11.13,1.56.38.44.25.79.62,1.03,1.1.24.48.37,1.07.36,1.75v5.48h-2.03v-5.17c0-.58-.15-1.03-.45-1.35-.3-.33-.71-.49-1.23-.49-.36,0-.67.08-.94.23s-.49.38-.64.67c-.16.29-.23.64-.23,1.06Z"/>
    <path class="cls-7" d="M247.99,550.73c-.86,0-1.6-.19-2.21-.57-.61-.38-1.09-.9-1.42-1.57s-.5-1.44-.5-2.31.17-1.65.5-2.32.81-1.19,1.43-1.57,1.34-.56,2.18-.56c.7,0,1.32.13,1.86.38.54.26.97.62,1.29,1.08.32.47.5,1.01.55,1.63h-1.94c-.08-.42-.26-.76-.56-1.04s-.68-.42-1.17-.42c-.42,0-.78.11-1.09.33s-.56.54-.73.96c-.17.42-.26.91-.26,1.49s.09,1.09.26,1.51c.17.42.41.74.73.97.31.23.68.34,1.1.34.3,0,.57-.06.8-.17.24-.11.44-.28.6-.5.16-.22.27-.48.33-.79h1.94c-.05.61-.23,1.15-.54,1.62-.31.47-.73.84-1.27,1.1-.53.26-1.16.4-1.88.4Z"/>
    <path class="cls-7" d="M257.16,550.73c-.86,0-1.61-.18-2.23-.54-.63-.36-1.11-.87-1.44-1.54-.34-.66-.5-1.45-.5-2.35s.17-1.66.51-2.33.81-1.19,1.42-1.57c.61-.38,1.32-.56,2.15-.56.53,0,1.03.08,1.51.25.47.17.89.43,1.26.79s.65.81.86,1.35c.21.55.31,1.2.31,1.95v.62h-7.06v-1.37h5.11c0-.39-.09-.74-.25-1.04-.16-.3-.39-.54-.69-.72s-.63-.26-1.02-.26c-.42,0-.78.1-1.09.3-.31.2-.56.46-.73.79s-.26.68-.27,1.06v1.19c0,.5.09.93.27,1.29.18.36.44.63.77.82.33.19.71.28,1.16.28.29,0,.56-.04.8-.13.24-.08.45-.21.62-.37.18-.16.31-.37.4-.61l1.9.21c-.12.5-.35.94-.68,1.31s-.76.66-1.28.86c-.52.2-1.11.31-1.78.31Z"/>
    <path class="cls-7" d="M265.9,550.71c-.68,0-1.28-.17-1.82-.52s-.96-.85-1.27-1.51c-.31-.66-.47-1.46-.47-2.41s.16-1.76.47-2.42c.32-.66.74-1.16,1.28-1.5.54-.34,1.14-.51,1.8-.51.5,0,.92.08,1.24.25.33.17.58.37.77.61.19.24.34.46.44.67h.08v-4.29h2.03v11.48h-2v-1.36h-.12c-.1.21-.26.43-.45.66s-.46.43-.78.6c-.33.17-.73.25-1.23.25ZM266.47,549.05c.43,0,.8-.12,1.1-.35s.53-.56.69-.98c.16-.42.24-.91.24-1.46s-.08-1.04-.23-1.45c-.15-.41-.38-.73-.68-.96-.3-.23-.67-.34-1.11-.34s-.83.12-1.13.35-.53.56-.68.98-.23.89-.23,1.42.08,1.02.23,1.44c.15.42.38.75.69.99s.68.36,1.12.36Z"/>
    <path class="cls-7" d="M215.19,561.18c-.05-.49-.27-.87-.66-1.14-.39-.27-.89-.41-1.51-.41-.43,0-.81.07-1.12.2-.31.13-.55.31-.71.53-.16.22-.25.48-.25.77,0,.24.06.45.17.62.11.18.26.32.45.45.19.12.4.22.63.31.23.08.47.15.7.21l1.08.27c.43.1.85.24,1.25.41s.76.39,1.08.65c.32.26.57.58.76.95s.28.8.28,1.3c0,.67-.17,1.26-.52,1.77-.34.51-.84.91-1.49,1.19s-1.43.43-2.35.43-1.67-.14-2.32-.42c-.66-.28-1.17-.68-1.54-1.21-.37-.53-.57-1.18-.6-1.94h2.05c.03.4.15.73.37,1,.22.26.5.46.85.59.35.13.74.2,1.17.2s.85-.07,1.19-.2c.34-.14.61-.33.8-.57s.29-.53.3-.86c0-.3-.09-.55-.26-.74s-.41-.36-.72-.49c-.31-.13-.67-.25-1.08-.36l-1.31-.34c-.95-.24-1.69-.61-2.24-1.11-.55-.5-.82-1.15-.82-1.98,0-.68.18-1.27.55-1.78.37-.51.87-.9,1.51-1.19.64-.28,1.35-.42,2.16-.42s1.53.14,2.14.42,1.1.67,1.45,1.17c.35.5.53,1.07.54,1.72h-2Z"/>
    <path class="cls-7" d="M222.92,569.67c-.86,0-1.61-.18-2.23-.54-.63-.36-1.11-.87-1.44-1.54-.34-.66-.5-1.45-.5-2.35s.17-1.66.51-2.33.81-1.19,1.42-1.57c.61-.38,1.32-.56,2.15-.56.53,0,1.03.08,1.51.25.47.17.89.43,1.26.79s.65.81.86,1.35c.21.55.31,1.2.31,1.95v.62h-7.06v-1.37h5.11c0-.39-.09-.74-.25-1.04-.16-.3-.39-.54-.69-.72s-.63-.26-1.02-.26c-.42,0-.78.1-1.09.3-.31.2-.56.46-.73.79s-.26.68-.27,1.06v1.19c0,.5.09.93.27,1.29.18.36.44.63.77.82.33.19.71.28,1.16.28.29,0,.56-.04.8-.13.24-.08.45-.21.62-.37.18-.16.31-.37.4-.61l1.9.21c-.12.5-.35.94-.68,1.31s-.76.66-1.28.86c-.52.2-1.11.31-1.78.31Z"/>
    <path class="cls-7" d="M232.22,569.67c-.86,0-1.6-.19-2.21-.57-.61-.38-1.09-.9-1.42-1.57s-.5-1.44-.5-2.31.17-1.65.5-2.32.81-1.19,1.43-1.57,1.34-.56,2.18-.56c.7,0,1.32.13,1.86.38.54.26.97.62,1.29,1.08.32.47.5,1.01.55,1.63h-1.94c-.08-.42-.26-.76-.56-1.04s-.68-.42-1.17-.42c-.42,0-.78.11-1.09.33s-.56.54-.73.96c-.17.42-.26.91-.26,1.49s.09,1.09.26,1.51c.17.42.41.74.73.97.31.23.68.34,1.1.34.3,0,.57-.06.8-.17.24-.11.44-.28.6-.5.16-.22.27-.48.33-.79h1.94c-.05.61-.23,1.15-.54,1.62-.31.47-.73.84-1.27,1.1-.53.26-1.16.4-1.88.4Z"/>
    <path class="cls-7" d="M243.07,565.88v-4.99h2.03v8.61h-1.97v-1.53h-.09c-.19.48-.51.88-.96,1.18s-.99.46-1.63.46c-.56,0-1.06-.13-1.49-.38-.43-.25-.77-.62-1.01-1.1-.24-.48-.36-1.07-.36-1.76v-5.48h2.03v5.17c0,.55.15.98.45,1.3.3.32.69.48,1.18.48.3,0,.59-.07.87-.22.28-.15.51-.36.69-.65.18-.29.27-.65.27-1.09Z"/>
    <path class="cls-7" d="M247.19,569.51v-8.61h1.97v1.44h.09c.16-.5.43-.88.81-1.15.38-.27.82-.41,1.31-.41.11,0,.24,0,.38.01s.26.02.35.04v1.87c-.09-.03-.22-.06-.41-.08-.19-.02-.36-.04-.54-.04-.37,0-.7.08-1,.24-.29.16-.52.38-.69.66-.17.28-.25.6-.25.97v5.06h-2.03Z"/>
    <path class="cls-7" d="M254.47,559.67c-.32,0-.6-.11-.83-.33-.23-.22-.35-.48-.35-.78s.12-.56.35-.78.51-.32.83-.32.6.11.83.33c.23.22.35.48.35.78s-.12.56-.35.78c-.23.21-.51.32-.83.32ZM253.45,569.51v-8.61h2.03v8.61h-2.03Z"/>
    <path class="cls-7" d="M261.86,560.89v1.57h-4.95v-1.57h4.95ZM258.14,558.83h2.03v8.08c0,.27.04.48.13.62.08.14.19.24.33.29.14.05.29.08.46.08.13,0,.24,0,.35-.03s.19-.04.24-.05l.34,1.59c-.11.04-.26.08-.46.12-.2.04-.44.07-.73.08-.51.01-.97-.06-1.37-.23s-.73-.43-.97-.79-.35-.81-.35-1.35v-8.42Z"/>
    <path class="cls-7" d="M264.82,572.74c-.28,0-.53-.02-.77-.06-.23-.04-.42-.09-.56-.15l.47-1.58c.29.09.56.13.79.12.23,0,.44-.08.61-.22.18-.14.33-.37.45-.7l.17-.46-3.12-8.79h2.15l1.98,6.5h.09l1.99-6.5h2.16l-3.45,9.65c-.16.46-.37.85-.64,1.17-.27.33-.59.58-.97.75-.38.17-.84.26-1.37.26Z"/>
  </g>
  <g>
    <path class="cls-7" d="M129.84,268.34c-.05-.49-.27-.87-.66-1.14-.39-.27-.89-.41-1.51-.41-.43,0-.81.07-1.12.2-.31.13-.55.31-.71.53-.16.22-.25.48-.25.77,0,.24.06.45.17.62.11.18.26.32.45.45.19.12.4.22.63.31.23.08.47.15.7.21l1.08.27c.43.1.85.24,1.25.41s.76.39,1.08.65c.32.26.57.58.76.95s.28.8.28,1.3c0,.67-.17,1.26-.52,1.77-.34.51-.84.91-1.49,1.19-.65.29-1.43.43-2.35.43s-1.67-.14-2.32-.42c-.66-.28-1.17-.68-1.54-1.21s-.57-1.18-.6-1.94h2.05c.03.4.15.73.37,1,.22.27.5.46.85.59.35.13.74.2,1.17.2s.85-.07,1.19-.2c.34-.14.61-.33.8-.57s.29-.53.3-.86c0-.3-.09-.55-.26-.74s-.41-.36-.72-.49c-.31-.13-.67-.25-1.08-.36l-1.31-.34c-.95-.24-1.69-.61-2.24-1.11-.55-.5-.82-1.15-.82-1.98,0-.68.18-1.27.55-1.78s.87-.9,1.51-1.19c.64-.28,1.35-.42,2.16-.42s1.53.14,2.14.42,1.1.67,1.45,1.17c.35.5.53,1.07.54,1.72h-2Z"/>
    <path class="cls-7" d="M137.51,276.83c-.84,0-1.57-.18-2.19-.55s-1.09-.89-1.43-1.55c-.34-.67-.51-1.44-.51-2.33s.17-1.67.51-2.34.82-1.19,1.43-1.56,1.35-.56,2.19-.56,1.57.19,2.19.56,1.09.89,1.43,1.56.51,1.45.51,2.34-.17,1.67-.51,2.33c-.34.67-.82,1.18-1.43,1.55s-1.35.55-2.19.55ZM137.53,275.2c.46,0,.84-.13,1.14-.38.31-.25.54-.59.69-1.02.15-.43.23-.9.23-1.42s-.08-1-.23-1.43c-.15-.43-.38-.77-.69-1.02-.31-.25-.69-.38-1.14-.38s-.85.13-1.16.38c-.31.25-.54.6-.69,1.02-.15.43-.23.91-.23,1.43s.08,1,.23,1.42c.15.43.38.77.69,1.02.31.25.7.38,1.16.38Z"/>
    <path class="cls-7" d="M145.39,265.18v11.48h-2.03v-11.48h2.03Z"/>
    <path class="cls-7" d="M152.96,273.04v-4.99h2.03v8.61h-1.97v-1.53h-.09c-.19.48-.51.88-.96,1.18-.44.31-.99.46-1.63.46-.56,0-1.06-.13-1.49-.38-.43-.25-.77-.62-1.01-1.1-.24-.48-.36-1.07-.36-1.76v-5.48h2.03v5.17c0,.55.15.98.45,1.3.3.32.69.48,1.18.48.3,0,.59-.07.87-.22.28-.15.51-.36.69-.65.18-.29.27-.65.27-1.09Z"/>
    <path class="cls-7" d="M161.37,268.05v1.57h-4.95v-1.57h4.95ZM157.65,265.99h2.03v8.08c0,.27.04.48.13.63.08.14.19.24.33.29.14.05.29.08.46.08.13,0,.24,0,.35-.03s.19-.04.24-.05l.34,1.59c-.11.04-.26.08-.46.12-.2.04-.44.07-.73.08-.51.02-.97-.06-1.37-.23-.41-.17-.73-.43-.97-.79s-.35-.81-.35-1.35v-8.42Z"/>
    <path class="cls-7" d="M164.09,266.83c-.32,0-.6-.11-.83-.33s-.35-.48-.35-.78.12-.56.35-.78.51-.32.83-.32.6.11.83.33c.23.22.35.48.35.78s-.12.56-.35.78c-.23.21-.51.32-.83.32ZM163.07,276.66v-8.61h2.03v8.61h-2.03Z"/>
    <path class="cls-7" d="M170.94,276.83c-.84,0-1.57-.18-2.19-.55s-1.09-.89-1.43-1.55c-.34-.67-.51-1.44-.51-2.33s.17-1.67.51-2.34.82-1.19,1.43-1.56,1.35-.56,2.19-.56,1.57.19,2.19.56,1.09.89,1.43,1.56.51,1.45.51,2.34-.17,1.67-.51,2.33c-.34.67-.82,1.18-1.43,1.55s-1.35.55-2.19.55ZM170.96,275.2c.46,0,.84-.13,1.14-.38.31-.25.54-.59.69-1.02.15-.43.23-.9.23-1.42s-.08-1-.23-1.43c-.15-.43-.38-.77-.69-1.02-.31-.25-.69-.38-1.14-.38s-.85.13-1.16.38c-.31.25-.54.6-.69,1.02-.15.43-.23.91-.23,1.43s.08,1,.23,1.42c.15.43.38.77.69,1.02.31.25.7.38,1.16.38Z"/>
    <path class="cls-7" d="M178.82,271.62v5.05h-2.03v-8.61h1.94v1.46h.1c.2-.48.51-.87.95-1.15s.97-.43,1.62-.43c.59,0,1.11.13,1.56.38.44.25.79.62,1.03,1.1.24.48.37,1.07.36,1.75v5.48h-2.03v-5.17c0-.58-.15-1.03-.45-1.35-.3-.33-.71-.49-1.23-.49-.36,0-.67.08-.94.23-.27.16-.49.38-.64.67-.16.29-.23.65-.23,1.06Z"/>
    <path class="cls-7" d="M86.04,284.12h2.55l3.41,8.32h.13l3.41-8.32h2.54v11.48h-2v-7.89h-.11l-3.17,7.85h-1.49l-3.17-7.87h-.11v7.9h-2v-11.48Z"/>
    <path class="cls-7" d="M102.74,295.78c-.55,0-1.04-.1-1.47-.29-.44-.2-.78-.49-1.03-.87-.25-.39-.38-.86-.38-1.42,0-.49.09-.89.27-1.21.18-.32.42-.57.73-.76.31-.19.66-.34,1.05-.43.39-.1.79-.17,1.21-.22.5-.05.91-.1,1.23-.14s.54-.11.69-.2c.14-.09.22-.23.22-.43v-.03c0-.42-.13-.75-.38-.98-.25-.23-.61-.35-1.08-.35-.5,0-.89.11-1.18.33-.29.22-.48.47-.59.77l-1.9-.27c.15-.52.4-.96.74-1.31.34-.35.76-.62,1.26-.8.5-.18,1.05-.27,1.65-.27.41,0,.83.05,1.24.15s.79.26,1.13.48c.34.22.61.52.82.91s.31.86.31,1.43v5.76h-1.95v-1.18h-.07c-.12.24-.3.46-.52.67-.22.21-.5.37-.84.5-.33.13-.73.19-1.17.19ZM103.26,294.29c.41,0,.76-.08,1.06-.24.3-.16.53-.38.69-.65s.24-.56.24-.88v-1.02c-.06.05-.17.1-.32.15s-.32.08-.51.12-.37.06-.56.09c-.18.03-.34.05-.48.07-.3.04-.57.11-.81.2-.24.09-.43.22-.57.39-.14.17-.21.38-.21.64,0,.37.14.66.41.85.27.19.62.29,1.04.29Z"/>
    <path class="cls-7" d="M111.36,290.56v5.05h-2.03v-8.61h1.94v1.46h.1c.2-.48.51-.87.95-1.15s.97-.43,1.62-.43c.59,0,1.11.13,1.56.38.44.25.79.62,1.03,1.1.24.48.37,1.07.36,1.75v5.48h-2.03v-5.17c0-.58-.15-1.03-.45-1.35-.3-.33-.71-.49-1.23-.49-.36,0-.67.08-.94.23-.27.16-.49.38-.64.67-.16.29-.23.65-.23,1.06Z"/>
    <path class="cls-7" d="M121.43,295.78c-.55,0-1.04-.1-1.47-.29-.44-.2-.78-.49-1.03-.87-.25-.39-.38-.86-.38-1.42,0-.49.09-.89.27-1.21.18-.32.42-.57.73-.76.31-.19.66-.34,1.05-.43.39-.1.79-.17,1.21-.22.5-.05.91-.1,1.23-.14s.54-.11.69-.2c.14-.09.22-.23.22-.43v-.03c0-.42-.13-.75-.38-.98-.25-.23-.61-.35-1.08-.35-.5,0-.89.11-1.18.33-.29.22-.48.47-.59.77l-1.9-.27c.15-.52.4-.96.74-1.31.34-.35.76-.62,1.26-.8.5-.18,1.05-.27,1.65-.27.41,0,.83.05,1.24.15s.79.26,1.13.48c.34.22.61.52.82.91s.31.86.31,1.43v5.76h-1.95v-1.18h-.07c-.12.24-.3.46-.52.67-.22.21-.5.37-.84.5-.33.13-.73.19-1.17.19ZM121.96,294.29c.41,0,.76-.08,1.06-.24.3-.16.53-.38.69-.65s.24-.56.24-.88v-1.02c-.06.05-.17.1-.32.15s-.32.08-.51.12-.37.06-.56.09c-.18.03-.34.05-.48.07-.3.04-.57.11-.81.2-.24.09-.43.22-.57.39-.14.17-.21.38-.21.64,0,.37.14.66.41.85.27.19.62.29,1.04.29Z"/>
    <path class="cls-7" d="M131.77,299.02c-.73,0-1.35-.1-1.88-.29s-.94-.46-1.26-.79c-.32-.33-.54-.69-.66-1.09l1.83-.44c.08.17.2.34.36.5.16.17.37.3.64.41s.6.17,1.01.17c.58,0,1.05-.14,1.43-.42.38-.28.57-.74.57-1.37v-1.63h-.1c-.1.21-.26.42-.46.64-.2.22-.46.41-.79.56-.33.15-.74.22-1.23.22-.66,0-1.26-.16-1.8-.47-.54-.31-.96-.78-1.28-1.4-.32-.62-.47-1.4-.47-2.34s.16-1.74.47-2.4c.32-.65.74-1.15,1.28-1.49.54-.34,1.14-.51,1.8-.51.5,0,.92.08,1.25.26.33.17.59.37.78.61s.34.46.44.67h.11v-1.42h2v8.75c0,.74-.18,1.35-.53,1.83-.35.48-.83.84-1.44,1.08-.61.24-1.3.36-2.07.36ZM131.79,293.89c.43,0,.8-.1,1.1-.31.3-.21.53-.51.69-.9.16-.39.24-.86.24-1.41s-.08-1.02-.23-1.42c-.15-.41-.38-.72-.68-.95-.3-.23-.67-.34-1.11-.34s-.83.12-1.13.35c-.3.24-.53.56-.68.97-.15.41-.23.87-.23,1.39s.08.99.23,1.38c.15.39.38.7.69.92s.68.33,1.12.33Z"/>
    <path class="cls-7" d="M141.71,295.77c-.86,0-1.61-.18-2.23-.54-.63-.36-1.11-.87-1.44-1.54-.34-.66-.5-1.45-.5-2.35s.17-1.66.51-2.33.81-1.19,1.42-1.57c.61-.38,1.32-.56,2.15-.56.53,0,1.03.08,1.51.26.47.17.89.43,1.26.79s.65.81.86,1.35c.21.55.31,1.2.31,1.95v.62h-7.06v-1.37h5.11c0-.39-.09-.74-.25-1.04-.16-.3-.39-.54-.69-.72s-.63-.26-1.02-.26c-.42,0-.78.1-1.09.3-.31.2-.56.46-.73.79s-.26.68-.27,1.06v1.19c0,.5.09.93.27,1.29.18.36.44.63.77.82.33.19.71.28,1.16.28.29,0,.56-.04.8-.13.24-.08.45-.21.62-.37s.31-.37.4-.61l1.9.21c-.12.5-.35.94-.68,1.31-.33.37-.76.66-1.28.86s-1.11.31-1.78.31Z"/>
    <path class="cls-7" d="M147.26,295.61v-8.61h1.94v1.46h.1c.18-.49.48-.88.89-1.16.41-.28.91-.42,1.49-.42s1.08.14,1.48.42.68.67.85,1.15h.09c.19-.48.51-.86.97-1.15.45-.29.99-.43,1.62-.43.79,0,1.44.25,1.94.75.5.5.75,1.23.75,2.19v5.78h-2.04v-5.47c0-.53-.14-.93-.43-1.17-.28-.25-.63-.37-1.04-.37-.49,0-.87.15-1.15.46-.27.3-.41.7-.41,1.19v5.37h-1.99v-5.55c0-.44-.13-.8-.4-1.07-.27-.27-.62-.4-1.05-.4-.29,0-.56.07-.8.22-.24.15-.43.35-.57.62-.14.27-.21.58-.21.93v5.24h-2.03Z"/>
    <path class="cls-7" d="M165.24,295.77c-.86,0-1.61-.18-2.23-.54-.63-.36-1.11-.87-1.44-1.54-.34-.66-.5-1.45-.5-2.35s.17-1.66.51-2.33.81-1.19,1.42-1.57c.61-.38,1.32-.56,2.15-.56.53,0,1.03.08,1.51.26.47.17.89.43,1.26.79s.65.81.86,1.35c.21.55.31,1.2.31,1.95v.62h-7.06v-1.37h5.11c0-.39-.09-.74-.25-1.04-.16-.3-.39-.54-.69-.72s-.63-.26-1.02-.26c-.42,0-.78.1-1.09.3-.31.2-.56.46-.73.79s-.26.68-.27,1.06v1.19c0,.5.09.93.27,1.29.18.36.44.63.77.82.33.19.71.28,1.16.28.29,0,.56-.04.8-.13.24-.08.45-.21.62-.37s.31-.37.4-.61l1.9.21c-.12.5-.35.94-.68,1.31-.33.37-.76.66-1.28.86s-1.11.31-1.78.31Z"/>
    <path class="cls-7" d="M172.82,290.56v5.05h-2.03v-8.61h1.94v1.46h.1c.2-.48.51-.87.95-1.15s.97-.43,1.62-.43c.59,0,1.11.13,1.56.38.44.25.79.62,1.03,1.1.24.48.37,1.07.36,1.75v5.48h-2.03v-5.17c0-.58-.15-1.03-.45-1.35-.3-.33-.71-.49-1.23-.49-.36,0-.67.08-.94.23-.27.16-.49.38-.64.67-.16.29-.23.65-.23,1.06Z"/>
    <path class="cls-7" d="M184.71,287v1.57h-4.95v-1.57h4.95ZM180.98,284.93h2.03v8.08c0,.27.04.48.13.63.08.14.19.24.33.29.14.05.29.08.46.08.13,0,.24,0,.35-.03s.19-.04.24-.05l.34,1.59c-.11.04-.26.08-.46.12-.2.04-.44.07-.73.08-.51.02-.97-.06-1.37-.23-.41-.17-.73-.43-.97-.79s-.35-.81-.35-1.35v-8.42Z"/>
  </g>
  <g>
    <path class="cls-7" d="M452.75,219.26h-2.22l4.04-11.48h2.57l4.05,11.48h-2.22l-3.07-9.13h-.09l-3.06,9.13ZM452.83,214.75h6.06v1.67h-6.06v-1.67Z"/>
    <path class="cls-7" d="M466.1,219.42c-.86,0-1.6-.19-2.21-.57s-1.09-.9-1.42-1.57c-.33-.67-.5-1.44-.5-2.31s.17-1.65.5-2.32.81-1.19,1.43-1.57,1.34-.56,2.18-.56c.7,0,1.32.13,1.86.38s.97.62,1.29,1.08c.32.47.5,1.01.55,1.63h-1.94c-.08-.41-.26-.76-.56-1.04-.29-.28-.68-.42-1.17-.42-.42,0-.78.11-1.09.33-.31.22-.56.54-.73.96-.17.41-.26.91-.26,1.49s.09,1.09.26,1.51.41.74.73.97.68.34,1.1.34c.3,0,.57-.06.8-.17.24-.11.44-.28.6-.5s.27-.48.33-.79h1.94c-.05.61-.23,1.15-.54,1.62-.31.47-.73.83-1.27,1.1-.53.26-1.16.4-1.88.4Z"/>
    <path class="cls-7" d="M475.22,219.42c-.86,0-1.6-.19-2.21-.57s-1.09-.9-1.42-1.57c-.33-.67-.5-1.44-.5-2.31s.17-1.65.5-2.32.81-1.19,1.43-1.57,1.34-.56,2.18-.56c.7,0,1.32.13,1.86.38s.97.62,1.29,1.08.5,1.01.55,1.63h-1.94c-.08-.41-.27-.76-.56-1.04-.29-.28-.68-.42-1.17-.42-.42,0-.78.11-1.09.33-.31.22-.56.54-.73.96-.17.41-.26.91-.26,1.49s.09,1.09.26,1.51.41.74.73.97.68.34,1.1.34c.3,0,.57-.06.8-.17.24-.11.44-.28.6-.5.16-.22.27-.48.33-.79h1.94c-.05.61-.23,1.15-.54,1.62-.31.47-.73.83-1.27,1.1s-1.16.4-1.88.4Z"/>
    <path class="cls-7" d="M484.39,219.42c-.86,0-1.61-.18-2.23-.54-.63-.36-1.11-.87-1.44-1.54-.34-.66-.5-1.45-.5-2.35s.17-1.66.51-2.33c.34-.67.81-1.19,1.42-1.57s1.33-.56,2.15-.56c.53,0,1.03.08,1.5.26.47.17.89.43,1.26.79s.65.81.86,1.35c.21.55.31,1.2.31,1.95v.62h-7.06v-1.37h5.11c0-.39-.09-.74-.25-1.04-.16-.3-.39-.54-.69-.72-.29-.18-.63-.26-1.02-.26-.42,0-.78.1-1.09.3-.31.2-.56.46-.73.79s-.26.68-.27,1.06v1.19c0,.5.09.93.27,1.29.18.36.44.63.77.82.33.19.71.28,1.15.28.3,0,.56-.04.8-.13s.45-.21.62-.37c.17-.16.31-.37.4-.61l1.9.21c-.12.5-.35.94-.68,1.31-.33.37-.76.66-1.28.86s-1.11.31-1.78.31Z"/>
    <path class="cls-7" d="M496.74,212.92l-1.85.2c-.05-.19-.14-.36-.27-.53-.13-.16-.3-.3-.52-.4-.22-.1-.48-.15-.8-.15-.42,0-.78.09-1.06.27s-.43.42-.42.71c0,.25.09.45.28.61.19.16.5.29.94.39l1.47.31c.81.18,1.42.45,1.82.84.4.38.6.88.6,1.5,0,.54-.16,1.02-.47,1.43-.31.41-.75.74-1.3.97-.55.23-1.19.35-1.91.35-1.05,0-1.9-.22-2.55-.66-.64-.44-1.03-1.06-1.15-1.85l1.98-.19c.09.39.28.68.57.88.29.2.67.3,1.14.3s.87-.1,1.16-.3c.29-.2.44-.44.44-.73,0-.25-.09-.45-.28-.61s-.48-.28-.88-.37l-1.47-.31c-.83-.17-1.44-.46-1.83-.87s-.59-.93-.59-1.56c0-.53.14-.99.43-1.38.29-.39.7-.69,1.23-.91.53-.21,1.13-.32,1.82-.32,1.01,0,1.8.22,2.39.65s.94,1.01,1.08,1.74Z"/>
    <path class="cls-7" d="M505.41,212.92l-1.85.2c-.05-.19-.14-.36-.27-.53-.13-.16-.3-.3-.52-.4-.22-.1-.48-.15-.8-.15-.42,0-.78.09-1.06.27s-.43.42-.42.71c0,.25.09.45.28.61.19.16.5.29.94.39l1.47.31c.81.18,1.42.45,1.82.84.4.38.6.88.6,1.5,0,.54-.16,1.02-.47,1.43-.31.41-.75.74-1.3.97-.55.23-1.19.35-1.91.35-1.05,0-1.9-.22-2.55-.66-.64-.44-1.03-1.06-1.15-1.85l1.98-.19c.09.39.28.68.57.88.29.2.67.3,1.14.3s.87-.1,1.16-.3c.29-.2.44-.44.44-.73,0-.25-.09-.45-.28-.61s-.48-.28-.88-.37l-1.47-.31c-.83-.17-1.44-.46-1.83-.87s-.59-.93-.59-1.56c0-.53.14-.99.43-1.38.29-.39.7-.69,1.23-.91.53-.21,1.13-.32,1.82-.32,1.01,0,1.8.22,2.39.65s.94,1.01,1.08,1.74Z"/>
    <path class="cls-7" d="M441.38,230.59h-2.1c-.06-.34-.17-.65-.33-.92s-.36-.49-.6-.68-.51-.33-.82-.42-.63-.14-.98-.14c-.62,0-1.18.16-1.66.47-.48.31-.86.77-1.13,1.37-.27.6-.41,1.33-.41,2.2s.14,1.62.41,2.22c.27.6.65,1.05,1.13,1.36.48.3,1.03.46,1.65.46.34,0,.67-.05.97-.14.3-.09.57-.23.81-.41.24-.18.44-.4.61-.66.17-.26.28-.56.34-.9h2.1c-.08.56-.25,1.07-.51,1.55-.26.48-.6.9-1.02,1.26-.42.36-.91.65-1.47.85s-1.18.31-1.87.31c-1.01,0-1.91-.23-2.7-.7-.79-.47-1.42-1.14-1.87-2.02-.46-.88-.68-1.94-.68-3.17s.23-2.3.69-3.18c.46-.88,1.09-1.55,1.88-2.02s1.69-.7,2.69-.7c.64,0,1.23.09,1.78.27.55.18,1.04.44,1.47.79.43.35.78.77,1.06,1.27.28.5.46,1.07.55,1.71Z"/>
    <path class="cls-7" d="M447.02,238.37c-.86,0-1.61-.18-2.23-.54-.63-.36-1.11-.87-1.44-1.54-.34-.66-.5-1.45-.5-2.35s.17-1.66.51-2.33.81-1.19,1.42-1.57c.61-.38,1.32-.56,2.15-.56.53,0,1.03.08,1.51.26.47.17.89.43,1.26.79s.65.81.86,1.35c.21.55.31,1.2.31,1.95v.62h-7.06v-1.37h5.11c0-.39-.09-.74-.25-1.04-.16-.3-.39-.54-.69-.72s-.63-.26-1.02-.26c-.42,0-.78.1-1.09.3-.31.2-.56.46-.73.79s-.26.68-.27,1.06v1.19c0,.5.09.93.27,1.29.18.36.44.63.77.82.33.19.71.28,1.16.28.29,0,.56-.04.8-.13.24-.08.45-.21.62-.37s.31-.37.4-.61l1.9.21c-.12.5-.35.94-.68,1.31-.33.37-.76.66-1.28.86s-1.11.31-1.78.31Z"/>
    <path class="cls-7" d="M452.56,238.2v-8.61h1.97v1.44h.09c.16-.5.43-.88.81-1.15.38-.27.82-.41,1.31-.41.11,0,.24,0,.38.01s.26.02.35.04v1.87c-.09-.03-.22-.06-.41-.08s-.36-.04-.54-.04c-.37,0-.7.08-1,.24-.29.16-.52.38-.69.66-.17.28-.25.6-.25.97v5.06h-2.03Z"/>
    <path class="cls-7" d="M463.59,229.59v1.57h-4.95v-1.57h4.95ZM459.86,227.53h2.03v8.08c0,.27.04.48.13.63.08.14.19.24.33.29.14.05.29.08.46.08.13,0,.24,0,.35-.03s.19-.04.24-.05l.34,1.59c-.11.04-.26.08-.46.12-.2.04-.44.07-.73.08-.51.02-.97-.06-1.37-.23-.41-.17-.73-.43-.97-.79s-.35-.81-.35-1.35v-8.42Z"/>
    <path class="cls-7" d="M466.31,228.37c-.32,0-.6-.11-.83-.33s-.35-.48-.35-.78.12-.56.35-.78.51-.32.83-.32.6.11.83.33c.23.22.35.48.35.78s-.12.56-.35.78c-.23.21-.51.32-.83.32ZM465.29,238.2v-8.61h2.03v8.61h-2.03Z"/>
    <path class="cls-7" d="M473.76,229.59v1.57h-5.09v-1.57h5.09ZM469.94,238.2v-9.42c0-.58.12-1.06.36-1.45.24-.39.57-.67.97-.86.41-.19.86-.29,1.36-.29.35,0,.66.03.94.08s.47.11.61.15l-.4,1.57c-.09-.03-.19-.05-.32-.08-.13-.03-.28-.04-.44-.04-.38,0-.64.09-.8.27-.16.18-.23.44-.23.78v9.29h-2.04Z"/>
    <path class="cls-7" d="M476.38,228.37c-.32,0-.6-.11-.83-.33s-.35-.48-.35-.78.12-.56.35-.78.51-.32.83-.32.6.11.83.33c.23.22.34.48.34.78s-.11.56-.34.78c-.23.21-.51.32-.83.32ZM475.36,238.2v-8.61h2.03v8.61h-2.03Z"/>
    <path class="cls-7" d="M483.23,238.37c-.86,0-1.6-.19-2.21-.57-.61-.38-1.09-.9-1.42-1.57-.33-.67-.5-1.44-.5-2.31s.17-1.65.5-2.32c.34-.67.81-1.19,1.43-1.57.61-.38,1.34-.56,2.18-.56.7,0,1.32.13,1.86.38s.97.62,1.29,1.08.5,1.01.55,1.63h-1.94c-.08-.41-.26-.76-.56-1.04-.29-.28-.68-.42-1.17-.42-.41,0-.78.11-1.09.33-.31.22-.56.54-.73.96-.17.41-.26.91-.26,1.49s.09,1.09.26,1.51.41.74.73.97c.31.23.68.34,1.1.34.3,0,.57-.06.8-.17.24-.11.44-.28.6-.5.16-.22.27-.48.33-.79h1.94c-.05.61-.23,1.15-.54,1.62-.31.47-.73.83-1.27,1.1s-1.16.4-1.88.4Z"/>
    <path class="cls-7" d="M491.06,238.38c-.55,0-1.04-.1-1.47-.29s-.78-.49-1.03-.87c-.25-.39-.38-.86-.38-1.42,0-.49.09-.89.27-1.21.18-.32.42-.57.73-.76.31-.19.66-.34,1.05-.43.39-.1.79-.17,1.21-.22.5-.05.91-.1,1.23-.14.31-.04.54-.11.69-.2.14-.09.22-.23.22-.43v-.03c0-.42-.12-.75-.38-.98-.25-.23-.61-.35-1.08-.35-.5,0-.89.11-1.18.33-.29.22-.49.47-.59.77l-1.89-.27c.15-.52.4-.96.74-1.31s.76-.62,1.26-.8c.5-.18,1.05-.27,1.65-.27.42,0,.83.05,1.24.15s.79.26,1.13.48c.34.22.61.52.82.91.21.38.31.86.31,1.43v5.76h-1.95v-1.18h-.07c-.12.24-.3.46-.52.67-.22.21-.5.37-.83.5-.33.13-.73.19-1.17.19ZM491.59,236.88c.41,0,.76-.08,1.06-.24s.53-.38.69-.65c.16-.27.24-.56.24-.88v-1.02c-.06.05-.17.1-.32.15s-.32.08-.51.12-.37.06-.55.09c-.18.03-.34.05-.48.07-.3.04-.57.11-.81.2s-.43.22-.57.39c-.14.17-.21.38-.21.64,0,.37.14.66.41.85.27.19.62.29,1.04.29Z"/>
    <path class="cls-7" d="M501.96,229.59v1.57h-4.95v-1.57h4.95ZM498.23,227.53h2.03v8.08c0,.27.04.48.13.63.08.14.2.24.33.29.14.05.29.08.46.08.13,0,.24,0,.35-.03s.19-.04.24-.05l.34,1.59c-.11.04-.26.08-.46.12-.2.04-.44.07-.73.08-.51.02-.97-.06-1.37-.23-.41-.17-.73-.43-.97-.79s-.35-.81-.35-1.35v-8.42Z"/>
    <path class="cls-7" d="M504.68,228.37c-.32,0-.6-.11-.83-.33s-.35-.48-.35-.78.12-.56.35-.78.51-.32.83-.32.6.11.83.33c.23.22.34.48.34.78s-.11.56-.34.78c-.23.21-.51.32-.83.32ZM503.66,238.2v-8.61h2.03v8.61h-2.03Z"/>
    <path class="cls-7" d="M511.53,238.37c-.84,0-1.57-.18-2.19-.55-.62-.37-1.09-.89-1.43-1.55-.34-.67-.51-1.44-.51-2.33s.17-1.67.51-2.34c.34-.67.82-1.19,1.43-1.56.62-.37,1.35-.56,2.19-.56s1.57.19,2.19.56c.62.37,1.09.89,1.43,1.56s.51,1.45.51,2.34-.17,1.67-.51,2.33c-.34.67-.82,1.18-1.43,1.55-.62.37-1.35.55-2.19.55ZM511.54,236.74c.46,0,.84-.13,1.14-.38.31-.25.54-.59.69-1.02.15-.43.23-.9.23-1.42s-.08-1-.23-1.43c-.15-.43-.38-.77-.69-1.02-.31-.25-.69-.38-1.14-.38s-.86.13-1.16.38c-.31.25-.54.6-.69,1.02-.15.43-.23.91-.23,1.43s.08,1,.23,1.42c.15.43.38.77.69,1.02.31.25.7.38,1.16.38Z"/>
    <path class="cls-7" d="M519.4,233.16v5.05h-2.03v-8.61h1.94v1.46h.1c.2-.48.51-.87.95-1.15.43-.28.97-.43,1.62-.43.59,0,1.11.13,1.56.38.44.25.79.62,1.03,1.1.25.48.37,1.07.36,1.75v5.48h-2.03v-5.17c0-.58-.15-1.03-.45-1.35s-.71-.49-1.23-.49c-.36,0-.67.08-.95.23-.27.16-.49.38-.64.67s-.23.65-.23,1.06Z"/>
  </g>
  <g>
    <path class="cls-7" d="M333.55,336.23h2.08v7.5c0,.82-.19,1.55-.58,2.17s-.93,1.11-1.63,1.46c-.7.35-1.52.52-2.45.52s-1.76-.17-2.46-.52c-.7-.35-1.24-.84-1.63-1.46-.39-.62-.58-1.35-.58-2.17v-7.5h2.08v7.33c0,.48.11.9.32,1.28.21.37.51.67.89.88.38.21.84.32,1.37.32s.98-.11,1.37-.32c.39-.21.69-.5.89-.88.21-.37.31-.8.31-1.28v-7.33Z"/>
    <path class="cls-7" d="M344.61,341.37l-1.85.2c-.05-.19-.14-.36-.27-.53s-.3-.3-.52-.4c-.22-.1-.48-.15-.8-.15-.42,0-.78.09-1.06.28-.29.18-.43.42-.42.71,0,.25.09.45.28.61.19.16.5.29.94.39l1.47.31c.81.18,1.42.45,1.82.84.4.38.6.88.6,1.5,0,.54-.16,1.02-.47,1.43s-.74.74-1.3.97c-.55.23-1.19.35-1.91.35-1.05,0-1.9-.22-2.54-.66-.64-.44-1.03-1.06-1.15-1.85l1.98-.19c.09.39.28.68.57.88s.67.3,1.14.3.87-.1,1.16-.3.44-.44.44-.73c0-.25-.09-.45-.28-.61-.19-.16-.48-.28-.88-.37l-1.47-.31c-.83-.17-1.44-.46-1.83-.87s-.59-.93-.59-1.56c0-.53.14-.99.43-1.38.29-.39.7-.69,1.23-.91.52-.21,1.13-.32,1.82-.32,1.01,0,1.8.22,2.39.65s.94,1.01,1.08,1.74Z"/>
    <path class="cls-7" d="M350.28,347.88c-.86,0-1.61-.18-2.23-.54-.63-.36-1.11-.87-1.44-1.54-.34-.66-.5-1.45-.5-2.35s.17-1.66.51-2.33.81-1.19,1.42-1.57c.61-.38,1.32-.56,2.15-.56.53,0,1.03.08,1.51.26.47.17.89.43,1.26.79.36.36.65.81.86,1.35.21.55.31,1.2.31,1.95v.62h-7.06v-1.37h5.11c0-.39-.09-.74-.25-1.04-.16-.3-.39-.54-.69-.72s-.63-.26-1.02-.26c-.42,0-.78.1-1.09.3-.31.2-.56.46-.73.79s-.26.68-.27,1.06v1.19c0,.5.09.93.27,1.29.18.36.44.63.77.82.33.19.71.28,1.16.28.29,0,.56-.04.8-.13.24-.08.45-.21.62-.37.18-.17.31-.37.4-.61l1.9.21c-.12.5-.35.94-.68,1.31-.33.37-.76.66-1.28.86-.52.2-1.11.3-1.78.3Z"/>
    <path class="cls-7" d="M355.83,347.71v-8.61h1.97v1.44h.09c.16-.5.43-.88.81-1.15.38-.27.82-.41,1.31-.41.11,0,.24,0,.38.01.14,0,.26.02.35.04v1.87c-.09-.03-.22-.06-.41-.08s-.36-.04-.54-.04c-.37,0-.7.08-1,.24-.29.16-.52.38-.69.66-.17.28-.25.6-.25.97v5.06h-2.03Z"/>
    <path class="cls-7" d="M267.99,366.65v-11.48h4.31c.88,0,1.62.16,2.22.49.6.33,1.05.78,1.36,1.35.31.57.46,1.23.46,1.95s-.15,1.39-.47,1.96c-.31.57-.77,1.02-1.37,1.35s-1.35.49-2.24.49h-2.85v-1.71h2.57c.52,0,.94-.09,1.27-.27.33-.18.57-.43.73-.74.16-.31.24-.67.24-1.08s-.08-.77-.24-1.08c-.16-.31-.4-.55-.73-.73s-.76-.26-1.28-.26h-1.91v9.74h-2.08Z"/>
    <path class="cls-7" d="M278.06,366.65v-8.61h1.97v1.44h.09c.16-.5.43-.88.81-1.15.38-.27.82-.41,1.31-.41.11,0,.24,0,.38.01s.26.02.35.04v1.87c-.09-.03-.22-.06-.41-.08-.19-.02-.36-.04-.54-.04-.37,0-.7.08-1,.24-.29.16-.52.38-.69.66-.17.28-.25.6-.25.97v5.06h-2.03Z"/>
    <path class="cls-7" d="M287.71,366.82c-.84,0-1.57-.18-2.19-.55s-1.09-.89-1.43-1.55c-.34-.67-.51-1.44-.51-2.33s.17-1.67.51-2.34c.34-.67.82-1.19,1.43-1.56.62-.37,1.35-.55,2.19-.55s1.57.19,2.19.55c.62.37,1.09.89,1.43,1.56.34.67.51,1.45.51,2.34s-.17,1.67-.51,2.33c-.34.67-.82,1.18-1.43,1.55s-1.35.55-2.19.55ZM287.73,365.19c.46,0,.84-.13,1.14-.38.31-.25.54-.59.69-1.02s.23-.9.23-1.42-.08-1-.23-1.43-.38-.77-.69-1.02c-.31-.25-.69-.38-1.14-.38s-.85.13-1.16.38c-.31.25-.54.6-.69,1.02s-.23.91-.23,1.43.08,1,.23,1.42.38.77.69,1.02c.31.25.7.38,1.16.38Z"/>
    <path class="cls-7" d="M300.95,358.04l-3.07,8.61h-2.24l-3.07-8.61h2.16l1.98,6.4h.09l1.98-6.4h2.16Z"/>
    <path class="cls-7" d="M303.37,356.82c-.32,0-.6-.11-.83-.33-.23-.22-.35-.48-.35-.78s.12-.56.35-.78.51-.32.83-.32.6.11.83.33c.23.22.35.48.35.78s-.12.56-.35.78c-.23.21-.51.32-.83.32ZM302.35,366.65v-8.61h2.03v8.61h-2.03Z"/>
    <path class="cls-7" d="M313.27,360.32l-1.85.2c-.05-.19-.14-.36-.27-.53-.13-.17-.3-.3-.52-.4-.22-.1-.48-.15-.8-.15-.42,0-.78.09-1.06.27-.29.18-.43.42-.42.71,0,.25.09.45.28.61.19.16.5.29.94.39l1.47.31c.81.18,1.42.45,1.82.83.4.38.6.88.6,1.5,0,.54-.16,1.02-.47,1.43s-.74.74-1.3.97c-.55.23-1.19.35-1.91.35-1.05,0-1.9-.22-2.54-.66-.64-.44-1.03-1.06-1.15-1.85l1.98-.19c.09.39.28.68.57.88s.67.3,1.14.3.87-.1,1.16-.3.44-.44.44-.73c0-.25-.09-.45-.28-.61-.19-.16-.48-.28-.88-.37l-1.47-.31c-.83-.17-1.44-.46-1.83-.87-.4-.41-.59-.93-.59-1.56,0-.53.14-.99.43-1.38s.7-.69,1.23-.91c.52-.21,1.13-.32,1.82-.32,1.01,0,1.8.21,2.39.64.58.43.94,1.01,1.08,1.74Z"/>
    <path class="cls-7" d="M316.16,356.82c-.32,0-.6-.11-.83-.33-.23-.22-.35-.48-.35-.78s.12-.56.35-.78.51-.32.83-.32.6.11.83.33c.23.22.35.48.35.78s-.12.56-.35.78c-.23.21-.51.32-.83.32ZM315.14,366.65v-8.61h2.03v8.61h-2.03Z"/>
    <path class="cls-7" d="M323.01,366.82c-.84,0-1.57-.18-2.19-.55s-1.09-.89-1.43-1.55c-.34-.67-.51-1.44-.51-2.33s.17-1.67.51-2.34c.34-.67.82-1.19,1.43-1.56.62-.37,1.35-.55,2.19-.55s1.57.19,2.19.55c.62.37,1.09.89,1.43,1.56.34.67.51,1.45.51,2.34s-.17,1.67-.51,2.33c-.34.67-.82,1.18-1.43,1.55s-1.35.55-2.19.55ZM323.02,365.19c.46,0,.84-.13,1.14-.38.31-.25.54-.59.69-1.02s.23-.9.23-1.42-.08-1-.23-1.43-.38-.77-.69-1.02c-.31-.25-.69-.38-1.14-.38s-.85.13-1.16.38c-.31.25-.54.6-.69,1.02s-.23.91-.23,1.43.08,1,.23,1.42.38.77.69,1.02c.31.25.7.38,1.16.38Z"/>
    <path class="cls-7" d="M330.88,361.61v5.05h-2.03v-8.61h1.94v1.46h.1c.2-.48.51-.87.95-1.15.44-.28.97-.43,1.62-.43.59,0,1.11.13,1.56.38.44.25.79.62,1.03,1.1.24.48.37,1.07.36,1.75v5.48h-2.03v-5.17c0-.58-.15-1.03-.45-1.35-.3-.33-.71-.49-1.23-.49-.36,0-.67.08-.94.23s-.49.38-.64.67c-.16.29-.23.64-.23,1.06Z"/>
    <path class="cls-7" d="M339.49,356.82c-.32,0-.6-.11-.83-.33-.23-.22-.35-.48-.35-.78s.12-.56.35-.78.51-.32.83-.32.6.11.83.33c.23.22.35.48.35.78s-.12.56-.35.78c-.23.21-.51.32-.83.32ZM338.47,366.65v-8.61h2.03v8.61h-2.03Z"/>
    <path class="cls-7" d="M344.62,361.61v5.05h-2.03v-8.61h1.94v1.46h.1c.2-.48.51-.87.95-1.15.44-.28.97-.43,1.62-.43.59,0,1.11.13,1.56.38.44.25.79.62,1.03,1.1.24.48.37,1.07.36,1.75v5.48h-2.03v-5.17c0-.58-.15-1.03-.45-1.35-.3-.33-.71-.49-1.23-.49-.36,0-.67.08-.94.23s-.49.38-.64.67c-.16.29-.23.64-.23,1.06Z"/>
    <path class="cls-7" d="M355.96,370.06c-.73,0-1.35-.1-1.88-.29s-.94-.46-1.26-.79c-.32-.33-.54-.69-.66-1.09l1.83-.44c.08.17.2.34.36.5.16.17.37.3.64.42s.6.17,1.01.17c.58,0,1.05-.14,1.43-.42s.57-.74.57-1.37v-1.63h-.1c-.1.21-.26.42-.46.64-.2.22-.46.41-.79.55-.33.15-.74.22-1.23.22-.66,0-1.26-.16-1.8-.47-.54-.31-.96-.78-1.28-1.4-.32-.62-.47-1.4-.47-2.34s.16-1.74.47-2.4c.32-.65.74-1.15,1.28-1.49.54-.34,1.14-.51,1.8-.51.5,0,.92.08,1.25.25.33.17.59.37.78.61s.34.46.44.67h.11v-1.42h2v8.75c0,.74-.18,1.34-.53,1.83-.35.48-.83.84-1.44,1.08-.61.24-1.3.36-2.07.36ZM355.98,364.94c.43,0,.8-.1,1.1-.31.3-.21.53-.51.69-.9.16-.39.24-.86.24-1.41s-.08-1.02-.23-1.42c-.15-.41-.38-.72-.68-.95-.3-.23-.67-.34-1.11-.34s-.83.12-1.13.35-.53.56-.68.97-.23.87-.23,1.39.08.99.23,1.38c.15.39.38.7.69.92.3.22.68.33,1.12.33Z"/>
  </g>
  <g>
    <path class="cls-7" d="M596.14,347.71h-2.22l4.04-11.48h2.57l4.05,11.48h-2.22l-3.07-9.13h-.09l-3.06,9.13ZM596.22,343.21h6.05v1.67h-6.05v-1.67Z"/>
    <path class="cls-7" d="M609.49,347.88c-.86,0-1.6-.19-2.21-.57-.61-.38-1.09-.9-1.42-1.57s-.5-1.44-.5-2.31.17-1.65.5-2.32c.34-.67.81-1.19,1.43-1.57.61-.38,1.34-.56,2.18-.56.7,0,1.32.13,1.86.38s.97.62,1.29,1.08c.32.46.5,1.01.55,1.63h-1.94c-.08-.41-.26-.76-.56-1.04-.29-.28-.68-.42-1.17-.42-.41,0-.78.11-1.09.33-.31.22-.56.54-.73.96s-.26.91-.26,1.49.09,1.09.26,1.51c.17.42.41.74.73.97.31.23.68.34,1.1.34.3,0,.57-.06.8-.17s.44-.28.6-.5c.16-.22.27-.48.33-.79h1.94c-.05.61-.23,1.15-.54,1.62-.31.47-.73.83-1.27,1.1s-1.16.39-1.88.39Z"/>
    <path class="cls-7" d="M618.61,347.88c-.86,0-1.6-.19-2.21-.57-.61-.38-1.09-.9-1.42-1.57s-.5-1.44-.5-2.31.17-1.65.5-2.32c.34-.67.81-1.19,1.43-1.57.61-.38,1.34-.56,2.18-.56.7,0,1.32.13,1.86.38s.97.62,1.29,1.08c.32.46.5,1.01.55,1.63h-1.94c-.08-.41-.26-.76-.56-1.04-.29-.28-.68-.42-1.17-.42-.41,0-.78.11-1.09.33-.31.22-.56.54-.73.96s-.26.91-.26,1.49.09,1.09.26,1.51c.17.42.41.74.73.97.31.23.68.34,1.1.34.3,0,.57-.06.8-.17s.44-.28.6-.5c.16-.22.27-.48.33-.79h1.94c-.05.61-.23,1.15-.54,1.62-.31.47-.73.83-1.27,1.1s-1.16.39-1.88.39Z"/>
    <path class="cls-7" d="M627.78,347.88c-.86,0-1.61-.18-2.23-.54-.63-.36-1.11-.87-1.44-1.54-.34-.66-.5-1.45-.5-2.35s.17-1.66.51-2.33c.34-.67.81-1.19,1.42-1.57.61-.38,1.33-.56,2.15-.56.53,0,1.03.08,1.5.26.47.17.89.43,1.26.79.36.36.65.81.86,1.35.21.55.31,1.2.31,1.95v.62h-7.06v-1.37h5.11c0-.39-.09-.74-.25-1.04-.16-.3-.39-.54-.69-.72-.29-.18-.63-.26-1.02-.26-.42,0-.78.1-1.09.3-.31.2-.56.46-.73.79s-.26.68-.27,1.06v1.19c0,.5.09.93.27,1.29.18.36.44.63.77.82.33.19.71.28,1.15.28.3,0,.56-.04.8-.13s.45-.21.62-.37c.17-.17.31-.37.4-.61l1.9.21c-.12.5-.35.94-.68,1.31-.33.37-.76.66-1.28.86-.52.2-1.11.3-1.78.3Z"/>
    <path class="cls-7" d="M640.13,341.37l-1.85.2c-.05-.19-.14-.36-.27-.53s-.3-.3-.52-.4c-.22-.1-.48-.15-.8-.15-.42,0-.78.09-1.06.28-.29.18-.43.42-.42.71,0,.25.09.45.28.61.19.16.5.29.94.39l1.47.31c.81.18,1.42.45,1.82.84.4.38.6.88.6,1.5,0,.54-.16,1.02-.47,1.43-.31.41-.75.74-1.3.97-.55.23-1.19.35-1.91.35-1.05,0-1.9-.22-2.55-.66-.64-.44-1.03-1.06-1.15-1.85l1.98-.19c.09.39.28.68.57.88.29.2.67.3,1.14.3s.87-.1,1.16-.3c.29-.2.44-.44.44-.73,0-.25-.09-.45-.28-.61-.19-.16-.48-.28-.88-.37l-1.47-.31c-.83-.17-1.44-.46-1.83-.87s-.59-.93-.59-1.56c0-.53.14-.99.43-1.38.29-.39.7-.69,1.23-.91.53-.21,1.13-.32,1.82-.32,1.01,0,1.8.22,2.39.65s.94,1.01,1.08,1.74Z"/>
    <path class="cls-7" d="M648.8,341.37l-1.85.2c-.05-.19-.14-.36-.27-.53s-.3-.3-.52-.4c-.22-.1-.48-.15-.8-.15-.42,0-.78.09-1.06.28-.29.18-.43.42-.42.71,0,.25.09.45.28.61.19.16.5.29.94.39l1.47.31c.81.18,1.42.45,1.82.84.4.38.6.88.6,1.5,0,.54-.16,1.02-.47,1.43-.31.41-.75.74-1.3.97-.55.23-1.19.35-1.91.35-1.05,0-1.9-.22-2.55-.66-.64-.44-1.03-1.06-1.15-1.85l1.98-.19c.09.39.28.68.57.88.29.2.67.3,1.14.3s.87-.1,1.16-.3c.29-.2.44-.44.44-.73,0-.25-.09-.45-.28-.61-.19-.16-.48-.28-.88-.37l-1.47-.31c-.83-.17-1.44-.46-1.83-.87s-.59-.93-.59-1.56c0-.53.14-.99.43-1.38.29-.39.7-.69,1.23-.91.53-.21,1.13-.32,1.82-.32,1.01,0,1.8.22,2.39.65s.94,1.01,1.08,1.74Z"/>
    <path class="cls-7" d="M594.67,366.65v-11.48h4.31c.88,0,1.62.15,2.22.46.6.31,1.05.74,1.36,1.29.31.55.46,1.19.46,1.93s-.16,1.37-.47,1.91c-.31.54-.77.96-1.38,1.25-.61.29-1.35.44-2.23.44h-3.07v-1.73h2.79c.52,0,.94-.07,1.27-.22.33-.14.57-.35.73-.63.16-.28.24-.62.24-1.03s-.08-.76-.24-1.05c-.16-.29-.41-.51-.73-.66-.33-.15-.75-.23-1.27-.23h-1.91v9.74h-2.08ZM600.6,361.45l2.84,5.2h-2.32l-2.79-5.2h2.27Z"/>
    <path class="cls-7" d="M608.54,366.82c-.86,0-1.61-.18-2.23-.54-.63-.36-1.11-.87-1.44-1.54-.34-.66-.5-1.45-.5-2.35s.17-1.66.51-2.33c.34-.67.81-1.19,1.42-1.57s1.33-.56,2.15-.56c.53,0,1.03.08,1.5.25.47.17.89.43,1.26.79s.65.81.86,1.35c.21.55.31,1.2.31,1.95v.62h-7.06v-1.37h5.11c0-.39-.09-.74-.25-1.04-.16-.3-.39-.54-.69-.72-.29-.18-.63-.26-1.02-.26-.42,0-.78.1-1.09.3-.31.2-.56.46-.73.79s-.26.68-.27,1.06v1.19c0,.5.09.93.27,1.29.18.36.44.63.77.82.33.19.71.28,1.15.28.3,0,.56-.04.8-.13s.45-.21.62-.37c.17-.16.31-.37.4-.61l1.9.21c-.12.5-.35.94-.68,1.31s-.76.66-1.28.86c-.52.2-1.11.31-1.78.31Z"/>
    <path class="cls-7" d="M619.83,369.88v-4.59h-.08c-.1.21-.26.43-.45.66s-.46.43-.79.6c-.33.17-.73.25-1.23.25-.68,0-1.28-.17-1.82-.52s-.96-.85-1.27-1.51c-.31-.66-.47-1.46-.47-2.41s.16-1.76.47-2.42c.32-.66.74-1.16,1.28-1.5.54-.34,1.14-.51,1.8-.51.5,0,.92.08,1.24.25.33.17.58.37.77.61.19.24.34.46.44.67h.12v-1.42h2v11.84h-2.04ZM617.85,365.14c.43,0,.8-.12,1.1-.35s.53-.56.69-.98c.16-.42.24-.91.24-1.46s-.08-1.04-.23-1.45-.38-.73-.68-.96c-.3-.23-.67-.34-1.11-.34s-.83.12-1.13.35-.53.56-.68.98-.23.89-.23,1.42.08,1.02.23,1.44c.16.42.38.75.69.99s.68.36,1.12.36Z"/>
    <path class="cls-7" d="M629.43,363.03v-4.99h2.03v8.61h-1.97v-1.53h-.09c-.19.48-.51.88-.96,1.18-.44.31-.99.46-1.63.46-.56,0-1.06-.13-1.49-.38-.43-.25-.77-.62-1.01-1.1-.24-.48-.36-1.07-.36-1.76v-5.48h2.03v5.17c0,.55.15.98.45,1.3s.69.48,1.18.48c.3,0,.59-.07.87-.22s.51-.36.69-.65c.18-.29.27-.65.27-1.09Z"/>
    <path class="cls-7" d="M637.36,366.82c-.86,0-1.61-.18-2.23-.54-.63-.36-1.11-.87-1.44-1.54-.34-.66-.5-1.45-.5-2.35s.17-1.66.51-2.33c.34-.67.81-1.19,1.42-1.57s1.33-.56,2.15-.56c.53,0,1.03.08,1.5.25.47.17.89.43,1.26.79s.65.81.86,1.35c.21.55.31,1.2.31,1.95v.62h-7.06v-1.37h5.11c0-.39-.09-.74-.25-1.04-.16-.3-.39-.54-.69-.72-.29-.18-.63-.26-1.02-.26-.42,0-.78.1-1.09.3-.31.2-.56.46-.73.79s-.26.68-.27,1.06v1.19c0,.5.09.93.27,1.29.18.36.44.63.77.82.33.19.71.28,1.15.28.3,0,.56-.04.8-.13s.45-.21.62-.37c.17-.16.31-.37.4-.61l1.9.21c-.12.5-.35.94-.68,1.31s-.76.66-1.28.86c-.52.2-1.11.31-1.78.31Z"/>
    <path class="cls-7" d="M649.71,360.32l-1.85.2c-.05-.19-.14-.36-.27-.53-.13-.17-.3-.3-.52-.4-.22-.1-.48-.15-.8-.15-.42,0-.78.09-1.06.27-.29.18-.43.42-.42.71,0,.25.09.45.28.61.19.16.5.29.94.39l1.47.31c.81.18,1.42.45,1.82.83.4.38.6.88.6,1.5,0,.54-.16,1.02-.47,1.43-.31.41-.75.74-1.3.97-.55.23-1.19.35-1.91.35-1.05,0-1.9-.22-2.55-.66-.64-.44-1.03-1.06-1.15-1.85l1.98-.19c.09.39.28.68.57.88.29.2.67.3,1.14.3s.87-.1,1.16-.3c.29-.2.44-.44.44-.73,0-.25-.09-.45-.28-.61-.19-.16-.48-.28-.88-.37l-1.47-.31c-.83-.17-1.44-.46-1.83-.87-.4-.41-.59-.93-.59-1.56,0-.53.14-.99.43-1.38.29-.39.7-.69,1.23-.91.53-.21,1.13-.32,1.82-.32,1.01,0,1.8.21,2.39.64.58.43.94,1.01,1.08,1.74Z"/>
    <path class="cls-7" d="M655.87,358.04v1.57h-4.95v-1.57h4.95ZM652.15,355.98h2.03v8.08c0,.27.04.48.13.62s.2.24.33.29c.14.05.29.08.46.08.13,0,.24,0,.35-.03s.19-.04.24-.05l.34,1.59c-.11.04-.26.08-.46.12s-.44.07-.73.08c-.51.01-.97-.06-1.37-.23-.41-.17-.73-.43-.97-.79s-.35-.81-.35-1.35v-8.42Z"/>
  </g>
  <g>
    <path class="cls-7" d="M441.9,478.35v-11.48h4.31c.88,0,1.62.16,2.22.49.6.33,1.05.78,1.36,1.35.31.57.46,1.23.46,1.95s-.15,1.39-.47,1.96c-.31.57-.77,1.02-1.37,1.35s-1.35.49-2.24.49h-2.85v-1.71h2.57c.52,0,.94-.09,1.27-.27.33-.18.57-.43.73-.74.16-.31.24-.67.24-1.08s-.08-.77-.24-1.08c-.16-.31-.4-.55-.73-.73s-.76-.26-1.28-.26h-1.91v9.74h-2.08Z"/>
    <path class="cls-7" d="M454.29,478.52c-.55,0-1.04-.1-1.47-.29-.44-.2-.78-.49-1.03-.87s-.38-.86-.38-1.42c0-.49.09-.89.27-1.21.18-.32.42-.57.73-.76.31-.19.66-.34,1.05-.43.39-.1.79-.17,1.21-.22.5-.05.91-.1,1.23-.14s.54-.11.69-.2c.14-.09.22-.24.22-.43v-.03c0-.42-.13-.75-.38-.98-.25-.23-.61-.35-1.08-.35-.5,0-.89.11-1.18.33-.29.22-.48.47-.59.77l-1.9-.27c.15-.52.4-.96.74-1.31.34-.35.76-.62,1.26-.8s1.05-.27,1.65-.27c.41,0,.83.05,1.24.15.41.1.79.26,1.13.48.34.22.61.52.82.91.21.38.31.86.31,1.43v5.76h-1.95v-1.18h-.07c-.12.24-.3.46-.52.67-.22.21-.5.37-.84.5-.33.12-.73.19-1.17.19ZM454.82,477.03c.41,0,.76-.08,1.06-.24.3-.16.53-.38.69-.65.16-.27.24-.56.24-.88v-1.01c-.06.05-.17.1-.32.15s-.32.08-.51.12c-.19.03-.37.06-.56.09-.18.03-.34.05-.48.07-.3.04-.57.11-.81.2-.24.09-.43.22-.57.39s-.21.38-.21.64c0,.37.14.66.41.85s.62.29,1.04.29Z"/>
    <path class="cls-7" d="M467.69,472.02l-1.85.2c-.05-.19-.14-.36-.27-.53-.13-.17-.3-.3-.52-.4-.22-.1-.48-.15-.8-.15-.42,0-.78.09-1.06.27-.29.18-.43.42-.42.71,0,.25.09.45.28.61.19.16.5.29.94.39l1.47.31c.81.18,1.42.45,1.82.83.4.38.6.88.6,1.5,0,.54-.16,1.02-.47,1.43s-.74.74-1.3.97c-.55.23-1.19.35-1.91.35-1.05,0-1.9-.22-2.54-.66-.64-.44-1.03-1.06-1.15-1.85l1.98-.19c.09.39.28.68.57.88s.67.3,1.14.3.87-.1,1.16-.3.44-.44.44-.73c0-.25-.09-.45-.28-.61-.19-.16-.48-.28-.88-.37l-1.47-.31c-.83-.17-1.44-.46-1.83-.87-.4-.41-.59-.93-.59-1.56,0-.53.14-.99.43-1.38s.7-.69,1.23-.91c.52-.21,1.13-.32,1.82-.32,1.01,0,1.8.21,2.39.64.58.43.94,1.01,1.08,1.74Z"/>
    <path class="cls-7" d="M476.36,472.02l-1.85.2c-.05-.19-.14-.36-.27-.53-.13-.17-.3-.3-.52-.4-.22-.1-.48-.15-.8-.15-.42,0-.78.09-1.06.27-.29.18-.43.42-.42.71,0,.25.09.45.28.61.19.16.5.29.94.39l1.47.31c.81.18,1.42.45,1.82.83.4.38.6.88.6,1.5,0,.54-.16,1.02-.47,1.43s-.74.74-1.3.97c-.55.23-1.19.35-1.91.35-1.05,0-1.9-.22-2.54-.66-.64-.44-1.03-1.06-1.15-1.85l1.98-.19c.09.39.28.68.57.88s.67.3,1.14.3.87-.1,1.16-.3.44-.44.44-.73c0-.25-.09-.45-.28-.61-.19-.16-.48-.28-.88-.37l-1.47-.31c-.83-.17-1.44-.46-1.83-.87-.4-.41-.59-.93-.59-1.56,0-.53.14-.99.43-1.38s.7-.69,1.23-.91c.52-.21,1.13-.32,1.82-.32,1.01,0,1.8.21,2.39.64.58.43.94,1.01,1.08,1.74Z"/>
    <path class="cls-7" d="M480,478.35l-2.43-8.61h2.07l1.51,6.05h.08l1.55-6.05h2.05l1.55,6.02h.08l1.49-6.02h2.07l-2.44,8.61h-2.11l-1.61-5.82h-.12l-1.61,5.82h-2.12Z"/>
    <path class="cls-7" d="M494.96,478.52c-.84,0-1.57-.18-2.19-.55-.62-.37-1.09-.89-1.43-1.55-.34-.67-.51-1.44-.51-2.33s.17-1.67.51-2.34c.34-.67.82-1.19,1.43-1.56.62-.37,1.35-.55,2.19-.55s1.57.19,2.19.55c.62.37,1.09.89,1.43,1.56.34.67.51,1.45.51,2.34s-.17,1.67-.51,2.33c-.34.67-.82,1.18-1.43,1.55-.62.37-1.35.55-2.19.55ZM494.97,476.89c.46,0,.84-.13,1.14-.38s.54-.59.69-1.02.23-.9.23-1.42-.08-1-.23-1.43-.38-.77-.69-1.02-.69-.38-1.14-.38-.86.13-1.16.38c-.31.25-.54.6-.69,1.02s-.23.91-.23,1.43.08,1,.23,1.42.38.77.69,1.02c.31.25.7.38,1.16.38Z"/>
    <path class="cls-7" d="M500.8,478.35v-8.61h1.97v1.44h.09c.16-.5.43-.88.81-1.15.38-.27.82-.41,1.32-.41.11,0,.24,0,.38.01.14,0,.26.02.35.04v1.87c-.09-.03-.22-.06-.41-.08-.19-.02-.36-.04-.54-.04-.37,0-.7.08-1,.24-.29.16-.52.38-.69.66-.17.28-.25.6-.25.97v5.06h-2.03Z"/>
    <path class="cls-7" d="M509.9,478.5c-.68,0-1.28-.17-1.82-.52s-.96-.85-1.27-1.51c-.31-.66-.47-1.46-.47-2.41s.16-1.76.47-2.42c.32-.66.74-1.16,1.28-1.5.54-.34,1.14-.51,1.8-.51.5,0,.92.08,1.24.25.33.17.58.37.77.61.19.24.34.46.44.67h.08v-4.29h2.04v11.48h-2v-1.36h-.12c-.1.21-.26.43-.45.66s-.46.43-.79.6c-.33.17-.73.25-1.23.25ZM510.47,476.84c.43,0,.8-.12,1.1-.35s.53-.56.69-.98c.16-.42.24-.91.24-1.46s-.08-1.04-.23-1.45-.38-.73-.68-.96c-.3-.23-.67-.34-1.11-.34s-.83.12-1.13.35-.53.56-.68.98-.23.89-.23,1.42.08,1.02.23,1.44c.16.42.38.75.69.99s.68.36,1.12.36Z"/>
    <path class="cls-7" d="M429.09,485.81h2.55l3.41,8.32h.13l3.41-8.32h2.54v11.48h-2v-7.89h-.11l-3.17,7.85h-1.49l-3.17-7.87h-.11v7.91h-2v-11.48Z"/>
    <path class="cls-7" d="M445.79,497.47c-.55,0-1.04-.1-1.47-.29-.44-.2-.78-.49-1.03-.87s-.38-.86-.38-1.42c0-.49.09-.89.27-1.21.18-.32.42-.57.73-.76.31-.19.66-.34,1.05-.43.39-.1.79-.17,1.21-.22.5-.05.91-.1,1.23-.14s.54-.11.69-.2c.14-.09.22-.24.22-.43v-.03c0-.42-.13-.75-.38-.98-.25-.23-.61-.35-1.08-.35-.5,0-.89.11-1.18.33-.29.22-.48.47-.59.77l-1.9-.27c.15-.52.4-.96.74-1.31.34-.35.76-.62,1.26-.8s1.05-.27,1.65-.27c.41,0,.83.05,1.24.15.41.1.79.26,1.13.48.34.22.61.52.82.91.21.38.31.86.31,1.43v5.76h-1.95v-1.18h-.07c-.12.24-.3.46-.52.67-.22.21-.5.37-.84.5-.33.12-.73.19-1.17.19ZM446.31,495.98c.41,0,.76-.08,1.06-.24.3-.16.53-.38.69-.65.16-.27.24-.56.24-.88v-1.01c-.06.05-.17.1-.32.15s-.32.08-.51.12c-.19.03-.37.06-.56.09-.18.03-.34.05-.48.07-.3.04-.57.11-.81.2-.24.09-.43.22-.57.39s-.21.38-.21.64c0,.37.14.66.41.85s.62.29,1.04.29Z"/>
    <path class="cls-7" d="M454.41,492.25v5.05h-2.03v-8.61h1.94v1.46h.1c.2-.48.51-.87.95-1.15.44-.28.97-.43,1.62-.43.59,0,1.11.13,1.56.38.44.25.79.62,1.03,1.1.24.48.37,1.07.36,1.75v5.48h-2.03v-5.17c0-.58-.15-1.03-.45-1.35-.3-.33-.71-.49-1.23-.49-.36,0-.67.08-.94.23s-.49.38-.64.67c-.16.29-.23.64-.23,1.06Z"/>
    <path class="cls-7" d="M464.48,497.47c-.55,0-1.04-.1-1.47-.29-.44-.2-.78-.49-1.03-.87s-.38-.86-.38-1.42c0-.49.09-.89.27-1.21.18-.32.42-.57.73-.76.31-.19.66-.34,1.05-.43.39-.1.79-.17,1.21-.22.5-.05.91-.1,1.23-.14s.54-.11.69-.2c.14-.09.22-.24.22-.43v-.03c0-.42-.13-.75-.38-.98-.25-.23-.61-.35-1.08-.35-.5,0-.89.11-1.18.33-.29.22-.48.47-.59.77l-1.9-.27c.15-.52.4-.96.74-1.31.34-.35.76-.62,1.26-.8s1.05-.27,1.65-.27c.41,0,.83.05,1.24.15.41.1.79.26,1.13.48.34.22.61.52.82.91.21.38.31.86.31,1.43v5.76h-1.95v-1.18h-.07c-.12.24-.3.46-.52.67-.22.21-.5.37-.84.5-.33.12-.73.19-1.17.19ZM465.01,495.98c.41,0,.76-.08,1.06-.24.3-.16.53-.38.69-.65.16-.27.24-.56.24-.88v-1.01c-.06.05-.17.1-.32.15s-.32.08-.51.12c-.19.03-.37.06-.56.09-.18.03-.34.05-.48.07-.3.04-.57.11-.81.2-.24.09-.43.22-.57.39s-.21.38-.21.64c0,.37.14.66.41.85s.62.29,1.04.29Z"/>
    <path class="cls-7" d="M474.82,500.7c-.73,0-1.35-.1-1.88-.29s-.94-.46-1.26-.79c-.32-.33-.54-.69-.66-1.09l1.83-.44c.08.17.2.34.36.5.16.17.37.3.64.42s.6.17,1.01.17c.58,0,1.05-.14,1.43-.42.38-.28.57-.74.57-1.37v-1.63h-.1c-.1.21-.26.42-.46.64-.2.22-.46.41-.79.55-.33.15-.74.22-1.23.22-.66,0-1.26-.16-1.8-.47-.54-.31-.96-.78-1.28-1.4-.32-.62-.47-1.4-.47-2.34s.16-1.74.47-2.4c.32-.65.74-1.15,1.28-1.49.54-.34,1.14-.51,1.8-.51.5,0,.92.08,1.25.25.33.17.59.37.78.61s.34.46.44.67h.11v-1.42h2v8.75c0,.74-.18,1.34-.53,1.83-.35.48-.83.84-1.44,1.08s-1.3.36-2.07.36ZM474.84,495.58c.43,0,.8-.1,1.1-.31.3-.21.53-.51.69-.9.16-.39.24-.86.24-1.41s-.08-1.02-.23-1.42c-.15-.41-.38-.72-.68-.95-.3-.23-.67-.34-1.11-.34s-.83.12-1.13.35-.53.56-.68.97-.23.87-.23,1.39.08.99.23,1.38c.15.39.38.7.69.92.3.22.68.33,1.12.33Z"/>
    <path class="cls-7" d="M484.76,497.46c-.86,0-1.61-.18-2.23-.54-.63-.36-1.11-.87-1.44-1.54-.34-.66-.5-1.45-.5-2.35s.17-1.66.51-2.33c.34-.67.81-1.19,1.42-1.57s1.33-.56,2.15-.56c.53,0,1.03.08,1.5.25.47.17.89.43,1.26.79s.65.81.86,1.35c.21.55.31,1.2.31,1.95v.62h-7.06v-1.37h5.11c0-.39-.09-.74-.25-1.04-.16-.3-.39-.54-.69-.72-.29-.18-.63-.26-1.02-.26-.42,0-.78.1-1.09.3-.31.2-.56.46-.73.79s-.26.68-.27,1.06v1.19c0,.5.09.93.27,1.29.18.36.44.63.77.82.33.19.71.28,1.15.28.3,0,.56-.04.8-.13s.45-.21.62-.37c.17-.16.31-.37.4-.61l1.9.21c-.12.5-.35.94-.68,1.31s-.76.66-1.28.86c-.52.2-1.11.31-1.78.31Z"/>
    <path class="cls-7" d="M490.31,497.3v-8.61h1.94v1.46h.1c.18-.49.48-.88.89-1.16s.91-.42,1.49-.42,1.08.14,1.48.42c.4.28.69.67.85,1.15h.09c.19-.48.51-.86.97-1.15.45-.29.99-.43,1.62-.43.79,0,1.44.25,1.94.75.5.5.75,1.23.75,2.19v5.78h-2.04v-5.47c0-.54-.14-.93-.43-1.17-.28-.25-.63-.37-1.04-.37-.49,0-.87.15-1.15.46s-.41.7-.41,1.19v5.37h-1.99v-5.55c0-.44-.13-.8-.4-1.06-.27-.27-.62-.4-1.05-.4-.29,0-.56.07-.8.22s-.43.36-.57.62c-.14.27-.21.58-.21.93v5.24h-2.03Z"/>
    <path class="cls-7" d="M508.29,497.46c-.86,0-1.61-.18-2.23-.54-.63-.36-1.11-.87-1.44-1.54-.34-.66-.5-1.45-.5-2.35s.17-1.66.51-2.33c.34-.67.81-1.19,1.42-1.57s1.33-.56,2.15-.56c.53,0,1.03.08,1.5.25.47.17.89.43,1.26.79s.65.81.86,1.35c.21.55.31,1.2.31,1.95v.62h-7.06v-1.37h5.11c0-.39-.09-.74-.25-1.04-.16-.3-.39-.54-.69-.72-.29-.18-.63-.26-1.02-.26-.42,0-.78.1-1.09.3-.31.2-.56.46-.73.79s-.26.68-.27,1.06v1.19c0,.5.09.93.27,1.29.18.36.44.63.77.82.33.19.71.28,1.15.28.3,0,.56-.04.8-.13s.45-.21.62-.37c.17-.16.31-.37.4-.61l1.9.21c-.12.5-.35.94-.68,1.31s-.76.66-1.28.86c-.52.2-1.11.31-1.78.31Z"/>
    <path class="cls-7" d="M515.87,492.25v5.05h-2.03v-8.61h1.94v1.46h.1c.2-.48.51-.87.95-1.15.43-.28.97-.43,1.62-.43.59,0,1.11.13,1.56.38.44.25.79.62,1.03,1.1.25.48.37,1.07.36,1.75v5.48h-2.03v-5.17c0-.58-.15-1.03-.45-1.35s-.71-.49-1.23-.49c-.36,0-.67.08-.95.23-.27.16-.49.38-.64.67-.16.29-.23.64-.23,1.06Z"/>
    <path class="cls-7" d="M527.76,488.68v1.57h-4.95v-1.57h4.95ZM524.03,486.62h2.03v8.08c0,.27.04.48.13.62s.2.24.33.29c.14.05.29.08.46.08.13,0,.24,0,.35-.03s.19-.04.24-.05l.34,1.59c-.11.04-.26.08-.46.12s-.44.07-.73.08c-.51.01-.97-.06-1.37-.23-.41-.17-.73-.43-.97-.79s-.35-.81-.35-1.35v-8.42Z"/>
  </g>
  <g>
    <path class="cls-7" d="M453.11,323.92v12.76h-2.31v-12.76h2.31Z"/>
    <path class="cls-7" d="M459.07,336.84c-.75,0-1.42-.19-2.02-.58-.59-.39-1.06-.95-1.41-1.68s-.52-1.63-.52-2.68.18-1.96.53-2.69c.35-.73.83-1.29,1.42-1.66.6-.38,1.26-.56,2-.56.56,0,1.02.09,1.38.28.36.19.65.42.86.68s.38.51.49.75h.09v-4.77h2.26v12.76h-2.22v-1.51h-.14c-.12.23-.28.48-.5.74-.22.26-.51.48-.87.66s-.82.27-1.36.27ZM459.7,334.99c.48,0,.88-.13,1.22-.39.34-.26.59-.62.77-1.09.17-.46.26-1.01.26-1.63s-.09-1.16-.26-1.61-.43-.81-.76-1.07c-.33-.25-.74-.38-1.23-.38s-.92.13-1.26.39-.59.62-.76,1.08c-.17.46-.26.99-.26,1.58s.09,1.13.26,1.6c.17.47.43.83.77,1.1.34.27.75.4,1.25.4Z"/>
    <path class="cls-7" d="M470.82,336.86c-.96,0-1.79-.2-2.48-.6-.7-.4-1.23-.97-1.6-1.71-.37-.74-.56-1.61-.56-2.61s.19-1.85.56-2.59c.38-.75.9-1.33,1.58-1.74.68-.42,1.47-.63,2.39-.63.59,0,1.15.09,1.67.28.53.19.99.48,1.4.88s.72.9.96,1.5.35,1.33.35,2.17v.69h-7.84v-1.52h5.68c0-.43-.1-.82-.28-1.16-.18-.34-.44-.61-.76-.8-.33-.19-.71-.29-1.14-.29-.46,0-.87.11-1.21.33-.35.22-.62.51-.81.87-.19.36-.29.75-.3,1.18v1.33c0,.56.1,1.03.31,1.43.2.4.49.7.85.91.37.21.79.31,1.28.31.33,0,.62-.05.89-.14.27-.09.5-.23.69-.41s.34-.41.44-.68l2.11.24c-.13.56-.39,1.04-.76,1.46s-.85.73-1.42.96-1.24.34-1.98.34Z"/>
    <path class="cls-7" d="M479.23,331.07v5.61h-2.26v-9.57h2.16v1.63h.11c.22-.54.57-.96,1.06-1.28.48-.32,1.08-.47,1.8-.47.66,0,1.24.14,1.73.42.49.28.88.69,1.15,1.23.27.54.41,1.19.4,1.95v6.09h-2.26v-5.74c0-.64-.16-1.14-.49-1.5s-.79-.54-1.37-.54c-.39,0-.75.09-1.05.26-.3.17-.54.42-.72.75-.17.32-.26.72-.26,1.18Z"/>
    <path class="cls-7" d="M492.45,327.11v1.74h-5.5v-1.74h5.5ZM488.31,324.81h2.25v8.98c0,.3.05.54.14.69.09.16.22.27.37.33.15.06.32.09.51.09.14,0,.27-.01.39-.03s.21-.04.27-.06l.38,1.76c-.12.04-.29.09-.51.14-.22.05-.49.08-.81.09-.56.02-1.07-.07-1.53-.26-.45-.19-.81-.48-1.07-.88s-.39-.9-.39-1.5v-9.36Z"/>
    <path class="cls-7" d="M495.47,325.75c-.36,0-.66-.12-.92-.36-.26-.24-.39-.53-.39-.87s.13-.62.39-.86c.26-.24.57-.36.92-.36s.67.12.93.36c.25.24.38.53.38.87s-.13.62-.38.86c-.26.24-.56.36-.93.36ZM494.34,336.67v-9.57h2.26v9.57h-2.26Z"/>
    <path class="cls-7" d="M503.69,327.11v1.74h-5.5v-1.74h5.5ZM499.54,324.81h2.25v8.98c0,.3.05.54.14.69.09.16.22.27.37.33.15.06.32.09.51.09.14,0,.27-.01.39-.03s.21-.04.27-.06l.38,1.76c-.12.04-.29.09-.51.14-.22.05-.49.08-.81.09-.56.02-1.07-.07-1.53-.26-.45-.19-.81-.48-1.07-.88s-.39-.9-.39-1.5v-9.36Z"/>
    <path class="cls-7" d="M506.98,340.26c-.31,0-.59-.02-.85-.07s-.47-.1-.62-.17l.52-1.76c.33.1.62.14.88.14.26,0,.48-.08.68-.24s.36-.41.5-.78l.19-.52-3.47-9.77h2.39l2.21,7.23h.1l2.21-7.23h2.4l-3.83,10.73c-.18.51-.42.94-.71,1.3s-.66.64-1.08.83-.93.29-1.52.29Z"/>
    <path class="cls-7" d="M440.49,349.04c-.1-.34-.25-.64-.43-.91s-.4-.5-.65-.69c-.25-.19-.54-.33-.86-.43-.32-.1-.68-.15-1.06-.15-.69,0-1.3.17-1.83.52-.54.34-.96.85-1.26,1.52-.31.67-.46,1.48-.46,2.43s.15,1.78.46,2.45c.3.67.72,1.18,1.26,1.52.54.35,1.17.52,1.88.52.65,0,1.21-.12,1.69-.37s.84-.6,1.1-1.06c.26-.46.39-1,.39-1.62l.52.08h-3.46v-1.81h5.18v1.53c0,1.09-.23,2.04-.7,2.83-.47.8-1.1,1.41-1.92,1.84-.81.43-1.75.65-2.8.65-1.18,0-2.21-.26-3.09-.79-.89-.53-1.58-1.28-2.07-2.26-.5-.98-.74-2.14-.74-3.49,0-1.03.15-1.95.44-2.76.29-.81.7-1.5,1.23-2.06.53-.57,1.15-1,1.86-1.3.71-.3,1.48-.45,2.32-.45.71,0,1.36.1,1.97.31.61.21,1.15.5,1.63.88.48.38.87.83,1.17,1.35.31.52.51,1.09.6,1.72h-2.35Z"/>
    <path class="cls-7" d="M449.26,357.91c-.93,0-1.74-.21-2.43-.62s-1.22-.99-1.59-1.73c-.38-.74-.56-1.6-.56-2.59s.19-1.85.56-2.6c.38-.74.91-1.32,1.59-1.73s1.5-.62,2.43-.62,1.74.21,2.43.62,1.22.99,1.59,1.73c.38.74.56,1.61.56,2.6s-.19,1.85-.56,2.59c-.38.74-.91,1.31-1.59,1.73s-1.5.62-2.43.62ZM449.27,356.1c.51,0,.93-.14,1.27-.42.34-.28.59-.66.76-1.13.17-.47.25-1,.25-1.58s-.08-1.12-.25-1.59c-.17-.47-.42-.85-.76-1.14-.34-.28-.76-.42-1.27-.42s-.95.14-1.29.42c-.34.28-.6.66-.77,1.14-.17.48-.25,1.01-.25,1.59s.08,1.11.25,1.58c.17.47.42.85.77,1.13.34.28.77.42,1.29.42Z"/>
    <path class="cls-7" d="M463.96,348.16l-3.41,9.57h-2.49l-3.41-9.57h2.4l2.2,7.11h.1l2.21-7.11h2.4Z"/>
    <path class="cls-7" d="M469.43,357.91c-.96,0-1.79-.2-2.48-.6-.7-.4-1.23-.97-1.6-1.71-.37-.74-.56-1.61-.56-2.61s.19-1.85.56-2.59c.38-.75.9-1.33,1.58-1.74.68-.42,1.47-.63,2.39-.63.59,0,1.15.09,1.67.28.53.19.99.48,1.4.88s.72.9.96,1.5.35,1.33.35,2.17v.69h-7.84v-1.52h5.68c0-.43-.1-.82-.28-1.16-.18-.34-.44-.61-.76-.8-.33-.19-.71-.29-1.14-.29-.46,0-.87.11-1.21.33-.35.22-.62.51-.81.87-.19.36-.29.75-.3,1.18v1.33c0,.56.1,1.03.31,1.43s.49.7.85.91c.37.21.79.32,1.28.32.33,0,.62-.05.89-.14s.5-.23.69-.41.34-.41.44-.68l2.11.24c-.13.56-.39,1.04-.76,1.45-.37.41-.85.73-1.42.96-.58.23-1.24.34-1.98.34Z"/>
    <path class="cls-7" d="M475.59,357.72v-9.57h2.19v1.59h.1c.17-.55.47-.98.9-1.28.43-.3.91-.45,1.46-.45.12,0,.26,0,.42.02.16.01.29.03.39.05v2.07c-.1-.03-.25-.06-.45-.09-.21-.03-.4-.04-.59-.04-.41,0-.78.09-1.11.26-.33.18-.58.42-.77.73-.19.31-.28.67-.28,1.08v5.62h-2.26Z"/>
    <path class="cls-7" d="M484.8,352.12v5.61h-2.26v-9.57h2.16v1.63h.11c.22-.54.57-.96,1.06-1.28.48-.32,1.08-.47,1.8-.47.66,0,1.24.14,1.73.42.49.28.87.69,1.15,1.23.27.54.41,1.19.4,1.95v6.09h-2.25v-5.74c0-.64-.17-1.14-.5-1.5s-.79-.54-1.37-.54c-.39,0-.75.09-1.05.26-.31.17-.54.42-.72.75-.17.32-.26.72-.26,1.18Z"/>
    <path class="cls-7" d="M495.99,357.92c-.61,0-1.15-.11-1.64-.33-.48-.22-.87-.54-1.15-.97s-.42-.96-.42-1.58c0-.54.1-.99.3-1.34.2-.35.47-.64.82-.85s.73-.37,1.17-.48c.43-.11.88-.19,1.35-.24.56-.06,1.02-.11,1.36-.16.35-.05.6-.12.76-.22.16-.1.24-.26.24-.48v-.04c0-.47-.14-.83-.42-1.09-.28-.26-.68-.39-1.2-.39-.55,0-.99.12-1.31.36-.32.24-.54.53-.65.85l-2.11-.3c.17-.58.44-1.07.82-1.46.38-.39.85-.69,1.4-.88.55-.2,1.16-.3,1.83-.3.46,0,.92.05,1.38.16.46.11.88.29,1.25.53.38.25.68.58.91,1.01s.35.95.35,1.59v6.4h-2.17v-1.31h-.07c-.14.27-.33.51-.58.74s-.56.42-.93.55c-.37.14-.81.21-1.3.21ZM496.58,356.26c.45,0,.85-.09,1.18-.27.33-.18.59-.42.77-.72s.27-.62.27-.98v-1.13c-.07.06-.19.11-.36.16-.17.05-.36.09-.56.13-.21.04-.41.07-.62.1-.2.03-.38.05-.53.08-.34.05-.64.12-.9.22-.27.1-.48.25-.63.43-.15.18-.23.42-.23.71,0,.42.15.73.46.94s.69.32,1.16.32Z"/>
    <path class="cls-7" d="M505.58,352.12v5.61h-2.26v-9.57h2.16v1.63h.11c.22-.54.57-.96,1.06-1.28.48-.32,1.08-.47,1.8-.47.66,0,1.24.14,1.73.42.49.28.87.69,1.15,1.23.27.54.41,1.19.4,1.95v6.09h-2.25v-5.74c0-.64-.17-1.14-.5-1.5s-.79-.54-1.37-.54c-.39,0-.75.09-1.05.26-.31.17-.54.42-.72.75-.17.32-.26.72-.26,1.18Z"/>
    <path class="cls-7" d="M518.19,357.91c-.96,0-1.77-.21-2.46-.63-.68-.42-1.21-1-1.58-1.74s-.55-1.6-.55-2.56.19-1.83.56-2.58c.37-.75.9-1.33,1.58-1.74.68-.42,1.49-.63,2.43-.63.78,0,1.47.14,2.07.43.6.28,1.08.68,1.44,1.2.36.52.56,1.12.61,1.81h-2.16c-.09-.46-.29-.85-.62-1.16s-.76-.46-1.31-.46c-.46,0-.87.12-1.21.37-.35.25-.62.6-.81,1.06s-.29,1.01-.29,1.66.1,1.21.29,1.68c.19.47.46.83.81,1.08.35.25.75.38,1.22.38.33,0,.63-.06.89-.19s.48-.31.66-.55c.18-.24.3-.53.37-.88h2.16c-.05.68-.25,1.28-.6,1.8-.34.52-.81.93-1.41,1.22-.59.29-1.29.44-2.09.44Z"/>
    <path class="cls-7" d="M528.38,357.91c-.96,0-1.79-.2-2.48-.6-.7-.4-1.23-.97-1.6-1.71-.37-.74-.56-1.61-.56-2.61s.19-1.85.56-2.59.9-1.33,1.58-1.74,1.47-.63,2.39-.63c.59,0,1.15.09,1.67.28.52.19.99.48,1.39.88.41.39.72.9.96,1.5.23.61.35,1.33.35,2.17v.69h-7.84v-1.52h5.68c0-.43-.1-.82-.28-1.16-.18-.34-.44-.61-.76-.8-.33-.19-.71-.29-1.14-.29-.46,0-.87.11-1.21.33-.35.22-.62.51-.81.87-.19.36-.29.75-.3,1.18v1.33c0,.56.1,1.03.31,1.43s.49.7.85.91c.37.21.79.32,1.28.32.33,0,.62-.05.89-.14s.5-.23.69-.41.34-.41.44-.68l2.11.24c-.13.56-.38,1.04-.76,1.45-.37.41-.85.73-1.42.96-.58.23-1.24.34-1.98.34Z"/>
    <path class="cls-7" d="M416.62,378.96c-.87,0-1.62-.16-2.25-.47-.63-.32-1.11-.74-1.45-1.28s-.51-1.15-.51-1.82c0-.51.1-.96.31-1.36.21-.39.5-.76.87-1.1.37-.34.8-.67,1.29-1l2.26-1.54c.33-.22.58-.44.76-.69.17-.24.26-.52.26-.85,0-.27-.12-.53-.35-.78s-.55-.37-.95-.37c-.27,0-.51.06-.71.19s-.37.29-.48.5c-.11.2-.17.42-.17.65,0,.28.08.56.23.85.16.29.36.58.61.89.25.31.52.63.81.98l5.99,7.01h-2.44l-4.97-5.69c-.37-.43-.73-.86-1.07-1.28-.34-.42-.62-.86-.84-1.31-.22-.45-.33-.95-.33-1.48,0-.6.14-1.14.42-1.62.28-.48.67-.85,1.17-1.12.5-.27,1.09-.41,1.76-.41s1.25.13,1.73.4c.48.27.85.62,1.12,1.06.26.44.39.92.39,1.44,0,.6-.15,1.14-.45,1.62-.3.48-.71.91-1.25,1.29l-2.58,1.89c-.42.31-.73.62-.91.93-.18.31-.27.58-.27.8,0,.34.08.64.26.92.17.27.41.49.72.66.31.16.67.25,1.09.25.46,0,.91-.1,1.35-.31.44-.21.85-.5,1.21-.88s.66-.84.87-1.37c.22-.53.32-1.13.32-1.78h1.94c0,.81-.09,1.51-.27,2.1-.18.6-.41,1.1-.69,1.51-.28.41-.58.74-.9.98-.1.07-.2.14-.29.21-.09.07-.19.14-.29.21-.45.41-.97.71-1.57.9-.6.19-1.19.29-1.77.29Z"/>
    <path class="cls-7" d="M430.52,378.77h-2.47l4.49-12.76h2.85l4.5,12.76h-2.47l-3.41-10.14h-.1l-3.4,10.14ZM430.6,373.77h6.73v1.86h-6.73v-1.86Z"/>
    <path class="cls-7" d="M444.73,378.94c-.75,0-1.42-.19-2.02-.58s-1.06-.95-1.41-1.68c-.34-.74-.52-1.63-.52-2.68s.18-1.96.53-2.69.83-1.29,1.42-1.66c.6-.38,1.26-.56,2-.56.56,0,1.02.09,1.38.28.36.19.65.42.86.68s.38.51.49.74h.09v-4.77h2.26v12.76h-2.22v-1.51h-.14c-.12.23-.28.48-.5.74-.22.26-.51.48-.87.66-.36.18-.82.27-1.36.27ZM445.36,377.09c.48,0,.88-.13,1.22-.39s.59-.62.77-1.09.26-1.01.26-1.63-.09-1.16-.26-1.61-.43-.81-.76-1.07c-.33-.25-.74-.38-1.23-.38s-.92.13-1.26.39-.59.62-.76,1.08c-.17.46-.26.99-.26,1.58s.09,1.13.26,1.6c.17.47.43.83.77,1.1.34.27.75.4,1.25.4Z"/>
    <path class="cls-7" d="M452.24,378.77v-9.57h2.16v1.63h.11c.2-.55.53-.98.99-1.29s1.01-.46,1.65-.46,1.19.16,1.64.47c.45.31.76.74.94,1.28h.1c.21-.53.57-.96,1.07-1.27.5-.32,1.1-.48,1.8-.48.88,0,1.6.28,2.16.83.56.56.83,1.37.83,2.44v6.42h-2.26v-6.07c0-.59-.16-1.03-.47-1.31-.32-.28-.7-.41-1.16-.41-.54,0-.97.17-1.27.51s-.46.78-.46,1.32v5.97h-2.21v-6.17c0-.49-.15-.89-.45-1.18s-.68-.44-1.16-.44c-.32,0-.62.08-.88.25s-.48.39-.64.69-.24.64-.24,1.04v5.82h-2.25Z"/>
    <path class="cls-7" d="M469.12,367.85c-.36,0-.66-.12-.92-.36-.26-.24-.39-.53-.39-.87s.13-.62.39-.86c.26-.24.56-.36.92-.36s.67.12.92.36c.26.24.38.53.38.87s-.13.62-.38.86c-.26.24-.56.36-.92.36ZM467.98,378.77v-9.57h2.25v9.57h-2.25Z"/>
    <path class="cls-7" d="M474.81,373.17v5.61h-2.25v-9.57h2.16v1.63h.11c.22-.54.57-.96,1.06-1.28.48-.32,1.08-.47,1.8-.47.66,0,1.24.14,1.73.42.49.28.88.69,1.15,1.23s.41,1.19.4,1.95v6.09h-2.26v-5.74c0-.64-.16-1.14-.49-1.5s-.79-.54-1.37-.54c-.39,0-.74.09-1.05.26-.31.17-.54.42-.72.74-.17.32-.26.72-.26,1.18Z"/>
    <path class="cls-7" d="M484.39,367.85c-.36,0-.66-.12-.92-.36-.26-.24-.39-.53-.39-.87s.13-.62.39-.86c.26-.24.57-.36.92-.36s.67.12.93.36c.25.24.38.53.38.87s-.13.62-.38.86c-.26.24-.56.36-.93.36ZM483.25,378.77v-9.57h2.26v9.57h-2.26Z"/>
    <path class="cls-7" d="M495.39,371.74l-2.06.22c-.06-.21-.16-.4-.3-.59s-.34-.33-.58-.44c-.24-.11-.54-.17-.88-.17-.47,0-.86.1-1.18.3-.32.2-.47.47-.47.79,0,.28.1.5.31.68.21.17.56.32,1.04.43l1.63.35c.91.2,1.58.5,2.02.93.44.42.67.98.67,1.66,0,.6-.18,1.13-.53,1.59-.35.46-.83.82-1.44,1.07s-1.32.39-2.12.39c-1.17,0-2.11-.25-2.83-.74-.71-.49-1.14-1.18-1.28-2.06l2.2-.21c.1.43.31.76.64.98s.75.33,1.26.33.97-.11,1.29-.33c.33-.22.49-.49.49-.82,0-.27-.1-.5-.31-.68s-.53-.32-.97-.41l-1.63-.34c-.92-.19-1.6-.51-2.04-.97-.44-.45-.66-1.03-.65-1.73,0-.59.16-1.1.48-1.54.33-.43.78-.77,1.36-1.01.58-.24,1.26-.36,2.02-.36,1.12,0,2,.24,2.65.72.65.48,1.05,1.12,1.2,1.94Z"/>
    <path class="cls-7" d="M502.23,369.21v1.74h-5.5v-1.74h5.5ZM498.09,366.91h2.25v8.98c0,.3.05.54.14.69.09.16.22.27.37.33.15.06.32.09.51.09.14,0,.27,0,.39-.03.12-.02.21-.04.27-.06l.38,1.76c-.12.04-.29.09-.51.14-.22.05-.49.08-.81.09-.56.02-1.07-.07-1.53-.26-.45-.19-.81-.48-1.07-.88-.26-.4-.39-.9-.39-1.5v-9.36Z"/>
    <path class="cls-7" d="M504.12,378.77v-9.57h2.19v1.59h.1c.17-.55.47-.98.9-1.28.43-.3.91-.45,1.46-.45.12,0,.26,0,.42.02.16,0,.29.03.39.05v2.07c-.1-.03-.25-.06-.45-.09-.21-.03-.4-.04-.59-.04-.41,0-.78.09-1.11.26-.33.18-.58.42-.77.73-.19.31-.28.67-.28,1.08v5.62h-2.26Z"/>
    <path class="cls-7" d="M513.65,378.97c-.61,0-1.15-.11-1.64-.33-.48-.22-.87-.54-1.15-.97s-.42-.96-.42-1.58c0-.54.1-.99.3-1.34.2-.35.47-.63.82-.85s.73-.37,1.17-.48c.43-.11.88-.19,1.35-.24.56-.06,1.02-.11,1.36-.16s.6-.12.76-.22c.16-.1.24-.26.24-.48v-.04c0-.47-.14-.83-.42-1.09-.28-.26-.68-.39-1.2-.39-.55,0-.99.12-1.31.36-.32.24-.54.53-.65.85l-2.11-.3c.17-.58.44-1.07.82-1.46.38-.39.85-.69,1.4-.88.55-.2,1.16-.3,1.83-.3.46,0,.92.05,1.38.16.46.11.88.29,1.25.53.38.25.68.58.91,1.01s.35.95.35,1.59v6.4h-2.17v-1.31h-.07c-.14.27-.33.51-.58.74s-.56.42-.93.55c-.37.14-.81.21-1.3.21ZM514.24,377.31c.45,0,.85-.09,1.18-.27.33-.18.59-.42.77-.72s.27-.62.27-.98v-1.13c-.07.06-.19.11-.36.16-.17.05-.36.09-.56.13-.21.04-.41.07-.62.1-.2.03-.38.05-.53.07-.34.05-.64.12-.9.22-.27.1-.48.25-.63.43-.15.18-.23.42-.23.71,0,.42.15.73.46.94s.69.32,1.16.32Z"/>
    <path class="cls-7" d="M525.75,369.21v1.74h-5.5v-1.74h5.5ZM521.61,366.91h2.25v8.98c0,.3.05.54.14.69.09.16.22.27.37.33.15.06.32.09.51.09.14,0,.27,0,.39-.03.12-.02.21-.04.27-.06l.38,1.76c-.12.04-.29.09-.51.14-.22.05-.49.08-.81.09-.56.02-1.07-.07-1.53-.26-.45-.19-.81-.48-1.07-.88-.26-.4-.39-.9-.39-1.5v-9.36Z"/>
    <path class="cls-7" d="M528.78,367.85c-.36,0-.66-.12-.92-.36-.26-.24-.39-.53-.39-.87s.13-.62.39-.86c.26-.24.57-.36.92-.36s.67.12.93.36c.25.24.38.53.38.87s-.13.62-.38.86c-.26.24-.56.36-.93.36ZM527.64,378.77v-9.57h2.26v9.57h-2.26Z"/>
    <path class="cls-7" d="M536.39,378.96c-.93,0-1.74-.21-2.43-.62-.69-.41-1.22-.99-1.59-1.73s-.56-1.6-.56-2.59.19-1.85.56-2.6c.38-.74.91-1.32,1.59-1.73.68-.41,1.49-.62,2.43-.62s1.74.21,2.43.62,1.22.99,1.59,1.73c.38.74.56,1.61.56,2.6s-.19,1.85-.56,2.59-.91,1.31-1.59,1.73-1.5.62-2.43.62ZM536.4,377.16c.51,0,.93-.14,1.27-.42.34-.28.59-.66.76-1.13.17-.47.25-1,.25-1.58s-.08-1.12-.25-1.59c-.17-.48-.42-.85-.76-1.14-.34-.28-.76-.42-1.27-.42s-.95.14-1.29.42c-.34.28-.6.66-.77,1.14s-.25,1.01-.25,1.59.08,1.11.25,1.58.42.85.77,1.13c.34.28.77.42,1.29.42Z"/>
    <path class="cls-7" d="M545.13,373.17v5.61h-2.26v-9.57h2.16v1.63h.11c.22-.54.57-.96,1.06-1.28.48-.32,1.08-.47,1.8-.47.66,0,1.24.14,1.73.42.49.28.87.69,1.15,1.23.27.54.41,1.19.4,1.95v6.09h-2.25v-5.74c0-.64-.17-1.14-.5-1.5s-.79-.54-1.37-.54c-.39,0-.75.09-1.05.26-.31.17-.54.42-.72.74-.17.32-.26.72-.26,1.18Z"/>
  </g>
  <circle class="cls-4" cx="478.19" cy="259.28" r="13.75"/>
  <circle class="cls-4" cx="478.19" cy="446.08" r="13.75"/>
  <circle class="cls-4" cx="570.71" cy="352.89" r="13.75"/>
  <circle class="cls-4" cx="382.83" cy="352.89" r="13.75"/>
  <g>
    <path class="cls-5" d="M593.25,565.99v1.56h6.22c.43,0,.78-.35.78-.78h3.11c.33,0,.63-.22.73-.54l9.04,2.58c1.67.48,3.45.36,5.04-.32l6.89-2.96c.09-.04.17-.09.24-.16l5.19-5.19c1.16-1.16,1.16-3.05,0-4.21-.56-.56-1.31-.87-2.1-.87h-.08c-.74,0-1.45.28-2,.78l-4.29,4.35c-.17-1.58-1.5-2.79-3.1-2.79h-5.23c-2.62-1.53-5.6-2.33-8.64-2.33h-.91c0-.43-.35-.78-.78-.78h-3.11c0-.43-.35-.78-.78-.78h-6.22v1.56h5.45v10.89h-5.45ZM605.05,556.66c2.83,0,5.6.77,8.03,2.22.12.07.26.11.4.11h5.45c.86,0,1.56.7,1.56,1.56v.78h-7.78v1.56h8.56c.21,0,.41-.09.55-.23l5.56-5.64c.26-.23.59-.35.93-.35h.08c.79,0,1.42.64,1.42,1.42,0,.38-.15.74-.42,1.01l-5.08,5.08-6.76,2.9c-1.26.54-2.68.63-4,.25l-9.42-2.69v-7.97h.91ZM602.59,555.88v9.34h-2.33v-9.34h2.33Z"/>
    <path class="cls-5" d="M611.15,540.32v.92c-1.21.43-1.85,1.76-1.42,2.97.33.93,1.21,1.56,2.2,1.56.43,0,.78.35.78.78s-.35.78-.78.78-.78-.35-.78-.78h-1.56c0,.99.63,1.86,1.56,2.19v.92h1.56v-.92c1.21-.43,1.85-1.76,1.42-2.97-.33-.93-1.21-1.56-2.2-1.56-.43,0-.78-.35-.78-.78s.35-.78.78-.78.78.35.78.78h1.56c0-.99-.63-1.86-1.56-2.19v-.92h-1.56Z"/>
    <path class="cls-5" d="M592.7,552.54c.3.3.77.31,1.08.02l10.34-9.6.23.23c-1,4.18,1.58,8.38,5.76,9.37,4.18,1,8.38-1.58,9.37-5.76.75-3.13-.51-6.4-3.17-8.22l4.16-4.16,2.56,2.56c.3.3.8.3,1.1,0l5.77-5.77,1.8,1.2c.36.24.84.15,1.08-.21.07-.11.12-.23.13-.36l.78-7.78c.04-.43-.27-.81-.7-.85-.1-.01-.2,0-.3.03l-7.78,2.33c-.41.12-.65.56-.52.97.04.12.1.24.2.33l1.39,1.4-2.4,2.4-2.56-2.56c-.3-.3-.8-.3-1.1,0l-9.21,9.21c-1.36.21-2.65.78-3.72,1.66l-2.31-2.31c-.3-.3-.78-.3-1.08-.02l-13.23,12.45c-.31.29-.33.79-.03,1.1,0,0,.01.01.02.02l2.33,2.33ZM618.15,544.98c0,3.44-2.79,6.22-6.22,6.22s-6.22-2.79-6.22-6.22,2.79-6.22,6.22-6.22c3.44,0,6.22,2.79,6.22,6.22ZM620.48,529.75l2.56,2.56c.3.3.8.3,1.1,0l3.5-3.5c.3-.3.3-.8,0-1.1l-1.02-1.02,5.42-1.63-.53,5.34-1.26-.84c-.31-.21-.72-.17-.98.1l-5.67,5.67-2.56-2.56c-.3-.3-.8-.3-1.1,0l-5.03,5.03c-.62-.26-1.28-.43-1.95-.52l7.53-7.53ZM604.13,538.29l1.78,1.78c-.38.46-.7.97-.96,1.51l-.25-.25c-.3-.3-.77-.31-1.08-.02l-10.34,9.6-1.24-1.24,12.09-11.38Z"/>
    <path class="cls-5" d="M601.81,525.53h1.56v8.56h-1.56v-8.56Z"/>
    <path class="cls-5" d="M606.48,520.86h1.56v8.56h-1.56v-8.56Z"/>
    <path class="cls-5" d="M622.82,541.09h1.56v9.34h-1.56v-9.34Z"/>
    <path class="cls-5" d="M626.71,538.76h1.56v7h-1.56v-7Z"/>
  </g>
  <g>
    <path class="cls-5" d="M360.57,531.33c-6.48-1.73-10.57-4.77-12.43-6.44-1.45-1.28-3.33-1.99-5.29-1.99s-3.84.71-5.29,1.99c-1.86,1.66-5.95,4.71-12.43,6.44-1.99.53-3.39,2.33-3.39,4.38v9.37c0,11.4,7.2,21.64,17.92,25.5,1.02.37,2.09.56,3.18.56s2.16-.19,3.18-.56c10.72-3.86,17.92-14.11,17.92-25.5v-9.37c0-2.05-1.39-3.85-3.39-4.38ZM362.45,545.08c0,10.76-6.8,20.44-16.93,24.08h0c-1.71.62-3.62.62-5.34,0-10.13-3.64-16.93-13.32-16.93-24.08v-9.37c0-1.37.93-2.57,2.27-2.93,6.45-1.72,10.65-4.63,13.04-6.77,1.17-1.04,2.7-1.61,4.29-1.61s3.11.57,4.28,1.61c2.39,2.14,6.6,5.05,13.05,6.77,1.33.36,2.27,1.56,2.27,2.93v9.37h0Z"/>
    <path class="cls-5" d="M357.05,547.78c-.41-.06-.79.24-.85.65-.9,6.72-4.47,11.94-10.08,14.82-.47-1.36-1.75-2.35-3.27-2.35s-2.8.99-3.27,2.35c-5.61-2.88-9.18-8.1-10.08-14.82-.06-.41-.43-.7-.85-.65-.41.06-.7.43-.65.85.99,7.44,5.05,13.18,11.43,16.22.24,1.68,1.67,2.97,3.42,2.97s3.17-1.3,3.42-2.97c6.38-3.05,10.43-8.79,11.43-16.22.06-.41-.24-.79-.65-.85h0ZM342.86,566.31c-1.08,0-1.96-.88-1.96-1.96s.88-1.96,1.96-1.96,1.96.88,1.96,1.96-.88,1.96-1.96,1.96h0Z"/>
    <path class="cls-5" d="M357.18,533.75c-.99,0-1.9.42-2.56,1.13-3.09-1.24-5.89-2.81-8.33-4.71.02-.17.04-.33.04-.49,0-1.91-1.55-3.47-3.47-3.47s-3.47,1.55-3.47,3.47c0,.16.01.33.04.49-2.45,1.9-5.25,3.48-8.33,4.71-.65-.71-1.57-1.13-2.56-1.13-1.91,0-3.47,1.55-3.47,3.47,0,1.65,1.16,3.03,2.71,3.38v4.48c0,.42.34.75.75.75s.75-.34.75-.75v-4.48c1.55-.35,2.71-1.73,2.71-3.38,0-.35-.06-.69-.15-1.02,2.99-1.21,5.72-2.75,8.14-4.57.63.93,1.69,1.52,2.87,1.52s2.23-.58,2.86-1.52c2.42,1.82,5.15,3.35,8.14,4.57-.1.33-.15.67-.15,1.02,0,1.65,1.16,3.03,2.71,3.38v4.48c0,.42.34.75.75.75s.75-.34.75-.75v-4.48c1.55-.35,2.71-1.73,2.71-3.38,0-1.91-1.55-3.47-3.47-3.47h0ZM328.53,539.18c-1.08,0-1.96-.88-1.96-1.96s.88-1.96,1.96-1.96c.69,0,1.31.35,1.68.94.18.3.28.65.28,1.02,0,1.08-.88,1.96-1.96,1.96h0ZM344.73,530.27c-.26.82-1.01,1.37-1.87,1.37s-1.61-.55-1.87-1.37c-.06-.2-.09-.4-.09-.59,0-1.08.88-1.96,1.96-1.96s1.96.88,1.96,1.96c0,.2-.03.4-.09.59h0ZM357.18,539.18c-1.08,0-1.96-.88-1.96-1.96,0-.37.1-.72.28-1.02.37-.59.99-.94,1.68-.94,1.08,0,1.96.88,1.96,1.96s-.88,1.96-1.96,1.96h0Z"/>
    <path class="cls-5" d="M347.38,557.57c2.08,0,3.77-1.69,3.77-3.77v-9.8c0-4.57-3.72-8.29-8.29-8.29-2.21,0-4.29.86-5.86,2.43-1.57,1.57-2.43,3.65-2.43,5.86v9.8c0,2.08,1.69,3.77,3.77,3.77h9.04ZM338.06,539.21c1.28-1.28,2.99-1.99,4.8-1.99,3.74,0,6.78,3.04,6.78,6.78v1.51h-2.26v-1.51c0-2.49-2.03-4.52-4.52-4.52-1.2,0-2.34.47-3.2,1.32-.85.86-1.32,1.99-1.32,3.2v1.51h-2.26v-1.51c0-1.81.71-3.51,1.99-4.8h0ZM345.87,545.51h-6.03v-1.51c0-.8.31-1.56.88-2.13.58-.57,1.33-.88,2.14-.88,1.66,0,3.01,1.35,3.01,3.01v1.51ZM336.07,553.8v-6.78h13.57v6.78c0,1.25-1.01,2.26-2.26,2.26h-9.04c-1.25,0-2.26-1.01-2.26-2.26Z"/>
    <path class="cls-5" d="M342.86,554.56c1.25,0,2.26-1.01,2.26-2.26,0-.98-.63-1.81-1.51-2.12v-.89c0-.42-.34-.75-.75-.75s-.75.34-.75.75v.89c-.88.31-1.51,1.14-1.51,2.12,0,1.25,1.01,2.26,2.26,2.26ZM342.86,551.54c.42,0,.75.34.75.75s-.34.75-.75.75-.75-.34-.75-.75.34-.75.75-.75Z"/>
  </g>
  <path class="cls-5" d="M238.98,298.74l3.71-3.71c.29-.3.77-.31,1.07-.02.3.29.31.77.02,1.07,0,0-.01.01-.02.02l-3.71,3.71c-.3.29-.77.29-1.07,0-.29-.29-.29-.77,0-1.06ZM271.6,300.02c.42,0,.75-.34.75-.75,0-.2-.08-.39-.22-.53l-3.71-3.71c-.29-.29-.77-.29-1.07,0-.29.29-.29.77,0,1.07l3.71,3.71c.14.14.33.22.53.22ZM255.56,267.57c.42,0,.75.34.75.75v3.85c0,.42-.34.75-.75.75-1.25,0-2.25,1.03-2.24,2.27,0,1.24,1.01,2.23,2.24,2.24.42,0,.75.34.75.75v4.28h3.6c.42-2.04,2.41-3.35,4.44-2.93,1.48.3,2.63,1.46,2.93,2.93h3.17c.42,0,.75.34.75.75.01,5.34-2.71,10.31-7.2,13.18-1.09.68-1.75,1.87-1.72,3.16v3.04c0,1.04-.72,1.95-1.73,2.19l-.4,1.54c-.25,1-1.15,1.69-2.18,1.68h-4.83c-1.03,0-1.93-.69-2.18-1.68l-.4-1.54c-1.01-.24-1.73-1.15-1.73-2.19v-3.04c.02-1.28-.63-2.48-1.72-3.16-4.5-2.87-7.21-7.84-7.2-13.18,0-8.63,7.02-15.66,15.66-15.66ZM250.33,299.89v.85h10.44v-.85h-10.44ZM258.69,305.95l.29-1.09h-6.85l.29,1.09c.08.33.38.56.72.56h4.83c.34,0,.64-.23.72-.56h0ZM260.78,302.6v-.34h-10.44v.34c0,.41.34.75.75.75h8.95c.41,0,.75-.34.75-.75h0ZM256.31,287.58c2.04.42,3.35,2.41,2.93,4.44-.3,1.48-1.46,2.63-2.93,2.93v3.43h4.6c.3-1.35,1.12-2.52,2.29-3.25,3.84-2.45,6.26-6.61,6.49-11.16h-3.07c-.42,0-.75-.34-.75-.75,0-1.25-1.01-2.26-2.26-2.26-1.25,0-2.26,1.01-2.26,2.26,0,.42-.34.75-.75.75h-4.28v3.6ZM254.8,288.25v-4.28h-3.6c-.42,2.04-2.41,3.35-4.44,2.93-1.48-.3-2.63-1.46-2.93-2.93h-2.4c.23,4.55,2.65,8.7,6.49,11.16,1.17.73,1.99,1.91,2.29,3.25h4.6v-4.11c0-.42.34-.75.75-.75,1.25,0,2.26-1.01,2.26-2.26,0-1.25-1.01-2.26-2.26-2.26h0c-.42,0-.75-.34-.75-.75h0ZM241.43,282.47h3.07c.42,0,.75.34.75.75,0,1.25,1.01,2.26,2.26,2.26,1.25,0,2.26-1.01,2.26-2.26,0-.42.34-.75.75-.75h4.28v-3.6c-2.04-.42-3.35-2.41-2.93-4.44.3-1.48,1.46-2.63,2.93-2.93v-2.4c-7.2.38-13,6.17-13.37,13.38ZM256.31,265.77v-5.25c0-.42-.34-.75-.75-.75s-.75.34-.75.75v5.25c0,.42.34.75.75.75s.75-.34.75-.75ZM273.01,283.98h5.25c.42,0,.75-.34.75-.75s-.34-.75-.75-.75h-5.25c-.42,0-.75.34-.75.75s.34.75.75.75ZM232.86,283.98h5.25c.42,0,.75-.34.75-.75s-.34-.75-.75-.75h-5.25c-.42,0-.75.34-.75.75s.34.75.75.75h0ZM238.98,267.71l3.71,3.71c.29.3.76.31,1.07.03.3-.29.31-.76.03-1.07,0,0-.02-.02-.03-.03l-3.71-3.71c-.3-.29-.78-.28-1.07.03-.28.29-.28.75,0,1.04h0ZM261.29,261.72c8.63,0,15.66,7.02,15.66,15.66,0,.42-.34.75-.75.75h-3.85c-.42,0-.75-.34-.75-.75,0-1.25-1.01-2.26-2.26-2.26-1.25,0-2.26,1.01-2.26,2.26,0,.42-.34.75-.75.75h-5.03c-.42,0-.75-.34-.75-.75v-4.35c-2.04-.42-3.35-2.41-2.93-4.44.3-1.48,1.46-2.63,2.93-2.93v-3.17c0-.42.34-.75.75-.75ZM261.29,267.08c-1.25,0-2.26,1.01-2.26,2.26,0,1.25,1.01,2.26,2.26,2.26.42,0,.75.34.75.75v4.28h3.6c.42-2.04,2.41-3.35,4.44-2.93,1.48.3,2.63,1.46,2.93,2.93h2.4c-.38-7.2-6.17-13-13.38-13.38v3.07c0,.42-.34.75-.75.75h0Z"/>
  <g>
    <path class="cls-5" d="M474.9,147.58l-1.13,1.13c-.51.48-.12,1.4.57,1.38.21,0,.41-.08.57-.24l2.42-2.42c.31-.3.31-.84,0-1.14l-2.42-2.42c-.75-.74-1.88.39-1.14,1.14l.93.93c-24.07-3.36-22.37-37.73,2.06-38.57,10.66,0,19.34,8.68,19.34,19.34,0,.45.36.81.81.81s.81-.36.81-.81c0-11.55-9.4-20.95-20.95-20.95-26.68.94-28.23,38.58-1.86,41.82h0Z"/>
    <path class="cls-5" d="M478.6,123.73l-1.58,1.58-1.95-4.55c-.44-.97-1.88-.35-1.48.64l2.42,5.64c.2.51.93.65,1.31.25l2.42-2.42c.74-.75-.39-1.88-1.14-1.14h0Z"/>
    <path class="cls-5" d="M500.12,129.94h-7.58c2.11-9.81-5.74-19.45-15.79-19.34-8.89,0-16.12,7.23-16.12,16.12-.18,10.68,10.84,18.75,20.95,15.36v3.17c0,2.22,1.81,4.03,4.03,4.03h14.5c2.22,0,4.03-1.81,4.03-4.03v-11.28c0-2.22-1.81-4.03-4.03-4.03ZM481.59,140.38c-9.16,3.46-19.52-3.85-19.34-13.66,0-8,6.51-14.5,14.5-14.5,9.17-.12,16.29,8.83,14.14,17.73h-1.65c2.17-7.99-4.19-16.23-12.48-16.12-7.11,0-12.89,5.78-12.89,12.89-.17,8.96,9.51,15.46,17.73,11.95v1.71ZM481.59,133.97v2.92c-1.28.61-2.63.96-4.03,1.06v-.76c0-.45-.36-.81-.81-.81s-.81.36-.81.81v.76c-5.58-.4-10.04-4.86-10.43-10.43h.76c.45,0,.81-.36.81-.81s-.36-.81-.81-.81h-.76c.4-5.58,4.86-10.04,10.43-10.43v.76c0,.45.36.81.81.81s.81-.36.81-.81v-.76c5.58.4,10.04,4.86,10.43,10.43h-.76c-.45,0-.81.36-.81.81s.36.81.81.81h.77c-.06.82-.21,1.63-.45,2.42h-1.94c-2.22,0-4.03,1.81-4.03,4.03h0ZM502.54,145.25c0,1.33-1.08,2.42-2.42,2.42h-14.5c-1.33,0-2.42-1.08-2.42-2.42v-11.28c0-1.33,1.08-2.42,2.42-2.42h14.5c1.33,0,2.42,1.08,2.42,2.42v11.28Z"/>
    <path class="cls-5" d="M495.39,135.08l-3.93,3.93-1.11-1.11c-2.31-2.19-5.61,1.11-3.42,3.42l2.82,2.82c.9.94,2.52.94,3.42,0l5.64-5.64c2.19-2.31-1.1-5.61-3.42-3.42h0ZM497.67,137.36l-5.64,5.64c-.31.3-.83.3-1.14,0l-2.82-2.82c-.31-.31-.31-.83,0-1.14.31-.31.82-.31,1.14,0l1.68,1.68c.31.31.82.31,1.14,0l4.5-4.5c.74-.74,1.88.39,1.14,1.14Z"/>
  </g>
  <g>
    <path class="cls-5" d="M677.05,290.69l2.32.93c.26,1.1.61,2.18,1.05,3.22v11.28c0,2.66,2.16,4.82,4.82,4.82h28.94c2.66,0,4.82-2.16,4.82-4.82v-11.28c.44-1.04.79-2.12,1.05-3.22l2.33-.93c.75-.3,1.27-.99,1.35-1.8.12-1.38.12-2.76,0-4.14-.08-.8-.61-1.5-1.36-1.8l-2.32-.93c-.52-2.19-1.38-4.29-2.57-6.2l.98-2.3c.33-.74.21-1.61-.32-2.24-.88-1.05-1.86-2.02-2.91-2.91-.62-.53-1.49-.65-2.24-.32l-2.3.99c-1.91-1.19-4.01-2.06-6.2-2.57l-.93-2.33c-.3-.75-.99-1.27-1.8-1.35-1.38-.13-2.76-.13-4.14,0-.81.08-1.5.6-1.8,1.36l-.93,2.32c-2.19.51-4.29,1.38-6.2,2.57l-2.3-.98c-.75-.33-1.62-.21-2.24.32-1.05.88-2.02,1.86-2.91,2.91-.53.62-.65,1.49-.32,2.24l.98,2.3c-1.19,1.91-2.06,4.01-2.57,6.2l-2.33.93c-.75.3-1.27.99-1.35,1.8-.13,1.38-.13,2.76,0,4.14.08.81.6,1.5,1.36,1.8ZM717.4,306.12c0,1.78-1.44,3.22-3.22,3.22h-28.94c-1.78,0-3.22-1.44-3.22-3.22v-17.69c0-1.78,1.44-3.22,3.22-3.22h10.6c.34.96,1.25,1.6,2.26,1.61h3.22c1.02,0,1.92-.65,2.26-1.61h10.6c1.78,0,3.22,1.44,3.22,3.22v17.69ZM699.71,275.57c-2.22,0-4.02,1.8-4.02,4.02v4.02h-10.45c-.45,0-.89.06-1.32.19,1.66-8.72,10.08-14.45,18.81-12.78,6.48,1.24,11.55,6.3,12.78,12.78-.43-.12-.88-.19-1.32-.19h-10.45v-4.02c0-2.22-1.8-4.02-4.02-4.02ZM702.12,279.59v4.82c0,.44-.36.8-.8.8h-3.22c-.44,0-.8-.36-.8-.8v-4.82c0-1.33,1.08-2.41,2.41-2.41s2.41,1.08,2.41,2.41ZM677.29,284.9c.03-.2.16-.37.35-.45l2.72-1.08c.25-.1.43-.32.49-.58.49-2.29,1.39-4.48,2.67-6.44.15-.22.17-.51.07-.75l-1.15-2.69c-.09-.19-.06-.41.07-.57.83-.98,1.74-1.89,2.72-2.72.16-.13.38-.15.56-.06l2.69,1.15c.25.11.53.08.75-.07,1.97-1.28,4.15-2.18,6.44-2.67.26-.06.48-.24.58-.49l1.08-2.71c.07-.19.25-.33.46-.36,1.28-.12,2.57-.12,3.85,0,.2.03.37.16.45.35l1.08,2.72c.1.25.32.43.58.49,2.29.49,4.48,1.39,6.44,2.67.22.15.51.17.75.07l2.69-1.15c.19-.09.41-.06.57.07.98.83,1.89,1.74,2.72,2.72.13.16.15.38.06.56l-1.15,2.69c-.11.25-.08.53.07.75,1.28,1.97,2.18,4.15,2.67,6.44.06.26.24.48.49.58l2.71,1.08c.19.07.33.25.36.46.12,1.28.12,2.57,0,3.84-.03.2-.16.37-.35.45l-2.72,1.08s-.04.02-.06.03v-1.88c0-1.43-.64-2.79-1.74-3.71-1.15-9.69-9.95-16.62-19.64-15.46-8.11.96-14.5,7.36-15.46,15.46-1.1.91-1.74,2.27-1.74,3.71v1.88s-.04-.02-.06-.03l-2.71-1.08c-.19-.07-.33-.25-.36-.46-.12-1.28-.12-2.57,0-3.85Z"/>
    <path class="cls-5" d="M691.67,288.43c-4.44,0-8.04,3.6-8.04,8.04s3.6,8.04,8.04,8.04,8.04-3.6,8.04-8.04c0-4.44-3.6-8.03-8.04-8.04ZM687.94,301.7c2.23-1.61,5.24-1.61,7.47,0-2.23,1.61-5.24,1.61-7.47,0ZM689.26,296.47c0-1.33,1.08-2.41,2.41-2.41s2.41,1.08,2.41,2.41-1.08,2.41-2.41,2.41-2.41-1.08-2.41-2.41ZM696.61,300.59c-.66-.51-1.39-.92-2.18-1.21,1.61-1.53,1.68-4.07.16-5.68-1.53-1.61-4.07-1.68-5.68-.16s-1.68,4.07-.16,5.68c.05.05.1.11.16.16-.78.29-1.52.69-2.18,1.21-2.27-2.73-1.91-6.78.82-9.06,2.73-2.27,6.78-1.91,9.06.82,1.99,2.39,1.99,5.85,0,8.24Z"/>
    <path class="cls-5" d="M698.91,279.59v.8c0,.44.36.8.8.8s.8-.36.8-.8v-.8c0-.44-.36-.8-.8-.8s-.8.36-.8.8Z"/>
    <path class="cls-5" d="M694.89,306.12h-6.43c-.44,0-.8.36-.8.8s.36.8.8.8h6.43c.44,0,.8-.36.8-.8s-.36-.8-.8-.8Z"/>
    <path class="cls-5" d="M705.34,291.65h6.43c.44,0,.8-.36.8-.8s-.36-.8-.8-.8h-6.43c-.44,0-.8.36-.8.8s.36.8.8.8Z"/>
    <path class="cls-5" d="M714.18,294.87h-11.26c-.44,0-.8.36-.8.8s.36.8.8.8h11.26c.44,0,.8-.36.8-.8s-.36-.8-.8-.8Z"/>
    <path class="cls-5" d="M714.18,298.08h-11.26c-.44,0-.8.36-.8.8s.36.8.8.8h11.26c.44,0,.8-.36.8-.8s-.36-.8-.8-.8Z"/>
    <path class="cls-5" d="M714.18,301.3h-11.26c-.44,0-.8.36-.8.8s.36.8.8.8h11.26c.44,0,.8-.36.8-.8s-.36-.8-.8-.8Z"/>
    <path class="cls-5" d="M714.18,304.51h-11.26c-.44,0-.8.36-.8.8s.36.8.8.8h11.26c.44,0,.8-.36.8-.8s-.36-.8-.8-.8Z"/>
  </g>
</svg>