<?xml version="1.0" encoding="utf-8"?>
<!-- Generator: Adobe Illustrator 28.1.0, SVG Export Plug-In . SVG Version: 6.00 Build 0)  -->
<svg version="1.1" id="Layer_1" xmlns="http://www.w3.org/2000/svg" xmlns:xlink="http://www.w3.org/1999/xlink" x="0px" y="0px"
	 viewBox="0 0 832 300" style="enable-background:new 0 0 832 300;" xml:space="preserve">
<style type="text/css">
	.st0{fill:#414042;}
	.st1{fill:#CD2031;}
</style>
<g>
	<g id="g30">
		<path id="path2" class="st0" d="M46.8,235.9v-9.8h7v9.8h5.7v5.7h-5.7v16.7c0,1.6,0.7,2.1,2.5,2.1c1.1,0,2.2-0.4,3.1-0.6v5.8
			c-1.9,0.2-3.6,0.5-5.6,0.5c-5.2,0-7.1-2.7-7.1-6.8v-17.5h-4v-5.7L46.8,235.9L46.8,235.9L46.8,235.9z"/>
		<path id="path4" class="st0" d="M69.9,251.8c0.1,6,2.8,8.5,6.1,8.5s4.7-1.5,6.5-3.5l5.1,3.1c-2.7,4.2-6.6,6-12.2,6
			c-7.6,0-12.3-5.9-12.3-15.2s4.7-15.2,12.7-15.2s12,6.4,12,13.5v2.9L69.9,251.8L69.9,251.8L69.9,251.8L69.9,251.8z M81.1,247
			c-0.1-4.1-2.3-6.4-5.6-6.4s-5.4,2.4-5.6,6.4H81.1z"/>
		<path id="path6" class="st0" d="M110.2,245.5c-1.1-2.5-2.3-4.5-5.8-4.5c-3.9,0-5.7,3-5.7,9.7s1.8,9.5,5.9,9.5c3,0,4.7-2.1,6.2-4.7
			l5.3,3c-2.8,5.2-6.4,7.4-11.7,7.4c-7.9,0-12.7-5.9-12.7-15.2s4.7-15.2,12.7-15.2c5.6,0,9.9,2.9,11.5,7.9L110.2,245.5L110.2,245.5z
			"/>
		<path id="path8" class="st0" d="M121.3,265.3v-40.9h7V239c2.2-1.8,5-3.8,8.3-3.8c5.8,0,8.7,3.9,8.7,9.8v20.2h-7v-19.1
			c0-4-1.2-5.2-3.6-5.2c-3,0-5.3,1.8-6.5,3.1v21.3H121.3L121.3,265.3L121.3,265.3z"/>
		<path id="path10" class="st0" d="M152.5,265.3v-29.4h6.4v3.1c2.5-1.8,5.6-3.8,8.9-3.8c5.8,0,8.6,3.9,8.6,9.8v20.2h-6.9v-19.1
			c0-4-1.2-5.2-3.6-5.2c-3,0-5.3,1.8-6.5,3.1v21.3H152.5L152.5,265.3L152.5,265.3z"/>
		<path id="path12" class="st0" d="M194.1,235.3c8,0,12.7,5.9,12.7,15.2s-4.7,15.2-12.7,15.2s-12.7-5.9-12.7-15.2
			C181.5,241.2,186.2,235.3,194.1,235.3z M194.1,241c-3.9,0-5.7,3-5.7,9.7s1.8,9.5,5.7,9.5s5.7-3,5.7-9.5
			C199.9,244,197.9,241,194.1,241z"/>
		<path id="path14" class="st0" d="M212.5,265.3v-40.9h6.9v40.9H212.5z"/>
		<path id="path16" class="st0" d="M237.7,235.3c8,0,12.7,5.9,12.7,15.2s-4.7,15.2-12.7,15.2s-12.7-5.8-12.7-15.2
			C225.2,241.2,229.9,235.3,237.7,235.3z M237.7,241c-3.9,0-5.7,3-5.7,9.7s1.8,9.5,5.7,9.5s5.7-3,5.7-9.5
			C243.5,244,241.7,241,237.7,241z"/>
		<path id="path18" class="st0" d="M279.2,240.1c-1.6,0-3.4,0-4.5,0.7c1,1.2,1.6,2.9,1.6,5.2c0,5.6-3.8,9.5-11,9.5
			c-3,0-5.4,0.1-5.4,1.8c0,4.7,19.2-1.7,19.2,10c0,4.2-4.2,8.7-13.5,8.7c-7.9,0-13.1-2.4-13.1-7c0-3.6,2.8-5.4,5.2-5.4v-0.1
			c-1.3-0.9-4.4-1.6-4.4-4.7c0-2.8,3.3-5,4.6-5.3c-2.4-1.9-4.4-4.2-4.4-7.7c0-5.2,3.9-10.3,11.5-10.3c2.4,0,5.4,1.1,7.1,2.7
			c1.3-1.8,3.5-2.8,6.9-2.7v4.7L279.2,240.1L279.2,240.1z M258.9,268.2c0,2.2,1.9,3.3,7.7,3.3c4.5,0,6-2.3,6-3.3
			c0-1.3-2.1-3.4-8.8-3.4C260,264.8,258.9,266.9,258.9,268.2z M265.1,240.5c-3,0-5.1,2.2-5.1,4.8s2.1,4.8,5.1,4.8
			c2.7,0,4.7-2.2,4.7-4.8C269.9,242.7,267.7,240.5,265.1,240.5z"/>
		<path id="path20" class="st0" d="M284.2,230.5V224h6.9v6.5H284.2z M291.2,256.7v8.7h-6.9V236h6.9V256.7L291.2,256.7z"/>
		<path id="path22" class="st0" d="M303.8,251.8c0.1,6,2.8,8.5,6,8.5s4.7-1.5,6.5-3.5l5.1,3.1c-2.7,4.2-6.6,6-12.2,6
			c-7.6,0-12.3-5.9-12.3-15.2s4.7-15.2,12.7-15.2s12,6.4,12,13.5v2.9L303.8,251.8L303.8,251.8L303.8,251.8z M315,247
			c-0.1-4.1-2.3-6.4-5.7-6.4s-5.6,2.4-5.6,6.4H315L315,247z"/>
		<path id="path24" class="st0" d="M341.4,243.6c-1.5-1.6-3.3-3.1-5.4-3.1c-2.7,0-3.9,1.1-3.9,2.9c0,5.1,14.6,2.9,14.6,13.7
			c0,6-4.6,8.8-10.8,8.8c-4.6,0-8.5-2.1-11-5.9l4.7-3.5c1.6,2.3,3.8,4.2,6.8,4.2c2.4,0,4.1-1.3,4.1-3.4c0-5-14.6-3.1-14.6-13.4
			c0-5.4,4.6-8.6,9.7-8.6c3.9,0,7.7,1.5,10.3,4.5L341.4,243.6L341.4,243.6z"/>
		<path id="path26" class="st0" d="M253.7,152.6c-5.6,8.6-14.5,13.9-24.4,13.9c-13.5,0-24.8-6.2-24.8-20.8
			c0-21.6,31.6-29.3,55.7-30.7v6.4C260.3,135.4,260.1,142.9,253.7,152.6L253.7,152.6z M208.7,74.9c3.6-9.8,13.4-14,26.7-14
			c19,0,24.4,13.3,24.7,24.3l0.1,5.3c-52.5,2.5-101.8,12.3-100.8,60.3c0.7,33.6,31.1,47.4,52,47.3c24.3,0,37.9-6.5,51.3-23.1
			c0.2,7,1.1,14.4,2.3,19.8h47c-2.7-8.2-3.3-16.4-3.3-25V82.6c0-21.2-4-33-15.4-43.3c-10.8-9.8-28.4-15.2-52.2-15.2
			c-21.8,0-40.5,5-54.3,14.4l0,0C198.2,47.4,205.7,59.8,208.7,74.9L208.7,74.9L208.7,74.9z"/>
		<path id="path28" class="st0" d="M156.7,149v4.4c0.7,17.2,9.1,27.8,16.8,34.2l0,0c-13.1,7.5-28.5,10.6-42.4,10.6
			c-50.8,0-80.8-35.9-80.8-85.4S81.2,24,134.1,24c38.3,0,69.8,20.3,73.2,60.1h-46.1c0-15.1-10.6-23.2-25.5-23.2
			c-23.8,0-31.2,16.8-31.2,47.8s6.9,49.8,31.3,49.8C144.9,158.6,152.4,155.5,156.7,149L156.7,149L156.7,149z"/>
	</g>
	<path class="st1" d="M408.9,120.8h-27.3l-5.9,13.1h-5.4l22.4-49h5.1l22.4,49h-5.5L408.9,120.8L408.9,120.8z M407,116.6l-11.8-26.3
		l-11.8,26.3H407L407,116.6z"/>
	<path class="st1" d="M483.5,112.9c1.6,2.1,2.4,4.7,2.4,7.7c0,4.2-1.6,7.5-4.9,9.8c-3.3,2.3-8,3.5-14.3,3.5h-24.4v-49h23
		c5.8,0,10.2,1.1,13.4,3.4c3.1,2.3,4.7,5.4,4.7,9.3c0,2.4-0.6,4.6-1.7,6.4s-2.7,3.3-4.6,4.3C479.8,109.3,481.9,110.8,483.5,112.9
		L483.5,112.9z M451.4,92.1v13.5h12.9c3.2,0,5.6-0.6,7.3-1.7s2.6-2.8,2.6-5s-0.8-3.9-2.6-5.1c-1.7-1.1-4.1-1.7-7.3-1.7H451.4
		L451.4,92.1z M476.7,119.7c0-4.7-3.5-7.1-10.6-7.1h-14.7v14.1h14.7C473.2,126.8,476.7,124.4,476.7,119.7L476.7,119.7z"/>
	<path class="st1" d="M514.9,96.1v8.3c-0.8-0.1-1.4-0.2-2-0.2c-3.4,0-6.1,1-8,3s-2.9,4.8-2.9,8.6v18.1h-8.8V96.5h8.3v5.5
		C504.2,98.1,508.6,96.1,514.9,96.1z"/>
	<path class="st1" d="M527.1,132c-3-1.6-5.4-3.9-7.1-6.8c-1.7-2.9-2.5-6.2-2.5-9.9s0.8-7,2.5-9.9s4.1-5.2,7.1-6.8s6.4-2.4,10.2-2.4
		s7.3,0.8,10.3,2.4c3,1.6,5.4,3.9,7.1,6.8c1.7,2.9,2.6,6.2,2.6,9.9s-0.8,7-2.6,9.9c-1.7,2.9-4.1,5.2-7.1,6.8s-6.5,2.4-10.3,2.4
		S530.1,133.6,527.1,132z M545.3,123.7c2.1-2.1,3.2-5,3.2-8.5s-1-6.3-3.2-8.5c-2.1-2.1-4.8-3.2-8-3.2s-5.9,1.1-7.9,3.2
		c-2.1,2.1-3.1,5-3.1,8.5s1,6.3,3.1,8.5s4.7,3.2,7.9,3.2S543.2,125.9,545.3,123.7z"/>
	<path class="st1" d="M590.6,100.1c2.9,2.6,4.4,6.6,4.4,11.9v21.9h-8.3v-4.6c-1.1,1.6-2.6,2.9-4.6,3.8c-2,0.9-4.4,1.3-7.2,1.3
		s-5.2-0.5-7.3-1.4s-3.7-2.3-4.9-4c-1.1-1.7-1.7-3.6-1.7-5.8c0-3.4,1.2-6.1,3.8-8.1s6.4-3.1,11.8-3.1h9.7v-0.5c0-2.6-0.8-4.6-2.3-6
		c-1.6-1.4-3.9-2.1-7-2.1c-2.1,0-4.2,0.3-6.2,1s-3.8,1.6-5.2,2.7l-3.4-6.4c2-1.5,4.3-2.6,7.1-3.4s5.7-1.2,8.8-1.2
		C583.5,96.1,587.7,97.4,590.6,100.1L590.6,100.1z M582.7,126.5c1.7-1,2.9-2.4,3.6-4.3v-4.3h-9c-5,0-7.6,1.7-7.6,5
		c0,1.6,0.6,2.9,1.9,3.8s3,1.4,5.2,1.4S580.9,127.6,582.7,126.5L582.7,126.5z"/>
	<path class="st1" d="M641.7,82v51.9h-8.4v-4.8c-1.5,1.8-3.2,3.1-5.3,4s-4.5,1.3-7,1.3c-3.6,0-6.8-0.8-9.7-2.4s-5.1-3.8-6.8-6.8
		c-1.6-2.9-2.5-6.3-2.5-10s0.8-7.1,2.5-10s3.9-5.1,6.8-6.7s6.1-2.4,9.7-2.4c2.5,0,4.7,0.4,6.8,1.3s3.8,2.1,5.2,3.8V82L641.7,82
		L641.7,82z M627.6,125.5c1.7-1,3-2.3,4-4.1s1.5-3.8,1.5-6.2s-0.5-4.4-1.5-6.2s-2.3-3.1-4-4.1s-3.6-1.4-5.7-1.4s-4,0.5-5.7,1.4
		c-1.7,1-3,2.3-4,4.1s-1.5,3.8-1.5,6.2s0.5,4.4,1.5,6.2s2.3,3.1,4,4.1s3.6,1.4,5.7,1.4S626,126.5,627.6,125.5z"/>
	<path class="st1" d="M658.4,132c-3.1-1.6-5.5-3.9-7.2-6.8c-1.7-2.9-2.6-6.2-2.6-9.9s0.9-7,2.6-9.9c1.7-2.9,4.1-5.2,7.2-6.8
		c3.1-1.6,6.5-2.4,10.5-2.4c3.7,0,6.9,0.8,9.7,2.2c2.8,1.5,4.9,3.6,6.3,6.4l-6.7,3.9c-1.1-1.7-2.4-3-4-3.9s-3.4-1.3-5.3-1.3
		c-3.3,0-6,1.1-8.1,3.2s-3.2,5-3.2,8.5s1.1,6.4,3.2,8.5c2.1,2.1,4.8,3.2,8.2,3.2c1.9,0,3.7-0.4,5.3-1.3s3-2.2,4-3.9l6.7,3.9
		c-1.5,2.8-3.6,5-6.3,6.5c-2.8,1.5-6,2.3-9.6,2.3C665,134.4,661.5,133.6,658.4,132L658.4,132z"/>
	<path class="st1" d="M696.9,132c-3-1.6-5.4-3.9-7.1-6.8c-1.7-2.9-2.5-6.2-2.5-9.9s0.8-7,2.5-9.9s4.1-5.2,7.1-6.8s6.4-2.4,10.2-2.4
		s7.3,0.8,10.3,2.4c3,1.6,5.4,3.9,7.1,6.8c1.7,2.9,2.6,6.2,2.6,9.9s-0.8,7-2.6,9.9c-1.7,2.9-4.1,5.2-7.1,6.8s-6.5,2.4-10.3,2.4
		S700,133.6,696.9,132z M715.1,123.7c2.1-2.1,3.2-5,3.2-8.5s-1-6.3-3.2-8.5c-2.1-2.1-4.8-3.2-8-3.2s-5.9,1.1-7.9,3.2
		c-2.1,2.1-3.1,5-3.1,8.5s1,6.3,3.1,8.5s4.7,3.2,7.9,3.2S713,125.9,715.1,123.7z"/>
	<path class="st1" d="M792.4,100.2c2.8,2.7,4.1,6.8,4.1,12.3v21.4h-8.8v-20.3c0-3.3-0.7-5.7-2.2-7.4s-3.5-2.5-6.2-2.5
		c-2.9,0-5.3,1-7.1,2.9s-2.7,4.7-2.7,8.3v19h-8.8v-20.3c0-3.3-0.7-5.7-2.2-7.4s-3.5-2.5-6.2-2.5c-3,0-5.3,1-7.1,2.9
		s-2.6,4.7-2.6,8.3v19H734V96.5h8.3v4.8c1.4-1.7,3.2-3,5.2-3.9s4.4-1.3,7-1.3c2.8,0,5.3,0.5,7.5,1.6s3.9,2.6,5.2,4.7
		c1.5-2,3.5-3.5,6-4.6c2.4-1.1,5.1-1.6,8-1.6C785.9,96.1,789.7,97.5,792.4,100.2L792.4,100.2z"/>
	<path class="st1" d="M386.3,196.1c-3.9-2.1-7-5.1-9.2-8.9s-3.3-8.1-3.3-12.8c0-4.7,1.1-9,3.3-12.8c2.2-3.8,5.3-6.8,9.2-8.9
		c3.9-2.1,8.3-3.2,13.2-3.2c3.6,0,7,0.6,10.1,1.8c3.1,1.2,5.7,3,7.8,5.3l-3.3,3.3c-3.8-3.9-8.7-5.8-14.5-5.8
		c-3.9,0-7.4,0.9-10.6,2.7c-3.2,1.8-5.7,4.2-7.5,7.3s-2.7,6.5-2.7,10.4s0.9,7.3,2.7,10.4c1.8,3.1,4.3,5.5,7.5,7.3s6.7,2.7,10.6,2.7
		c5.9,0,10.7-2,14.5-5.9l3.3,3.3c-2.1,2.3-4.8,4.1-7.9,5.4c-3.1,1.2-6.5,1.9-10.1,1.9C394.6,199.3,390.2,198.3,386.3,196.1
		L386.3,196.1z"/>
	<path class="st1" d="M429.8,196.9c-2.9-1.6-5.1-3.8-6.7-6.7s-2.5-6.1-2.5-9.7c0-3.6,0.8-6.8,2.5-9.7s3.9-5.1,6.7-6.6
		c2.8-1.6,6-2.4,9.6-2.4s6.7,0.8,9.6,2.4c2.8,1.6,5.1,3.8,6.7,6.6c1.6,2.9,2.4,6.1,2.4,9.7c0,3.6-0.8,6.8-2.4,9.7s-3.8,5.1-6.7,6.7
		c-2.8,1.6-6,2.4-9.6,2.4S432.7,198.5,429.8,196.9z M446.4,193.1c2.1-1.2,3.7-2.9,4.9-5.1c1.2-2.2,1.8-4.7,1.8-7.5
		c0-2.8-0.6-5.3-1.8-7.5c-1.2-2.2-2.8-3.9-4.9-5.1c-2.1-1.2-4.4-1.8-7-1.8s-5,0.6-7,1.8c-2.1,1.2-3.7,2.9-4.9,5.1
		c-1.2,2.2-1.8,4.7-1.8,7.5c0,2.8,0.6,5.3,1.8,7.5c1.2,2.2,2.8,3.9,4.9,5.1s4.4,1.8,7,1.8S444.4,194.3,446.4,193.1z"/>
	<path class="st1" d="M523.6,165.8c2.6,2.7,4,6.6,4,11.8v21.3h-5V178c0-3.8-0.9-6.7-2.8-8.8c-1.8-2-4.5-3-7.8-3
		c-3.8,0-6.8,1.2-9,3.5c-2.2,2.3-3.3,5.6-3.3,9.8v19.3h-5v-20.9c0-3.8-0.9-6.7-2.8-8.8s-4.5-3-7.9-3c-3.8,0-6.8,1.2-9,3.5
		c-2.2,2.3-3.3,5.6-3.3,9.8v19.3h-5v-36.8h4.8v6.7c1.3-2.2,3.1-4,5.5-5.2c2.3-1.2,5-1.8,8-1.8s5.8,0.6,8,2c2.3,1.3,4,3.2,5.1,5.8
		c1.3-2.4,3.3-4.3,5.8-5.7s5.5-2.1,8.7-2.1C517.3,161.8,520.9,163.2,523.6,165.8L523.6,165.8z"/>
	<path class="st1" d="M567.9,164.2c2.8,1.6,5,3.8,6.6,6.6c1.6,2.9,2.4,6.1,2.4,9.7c0,3.6-0.8,6.9-2.4,9.8s-3.8,5-6.5,6.6
		c-2.8,1.6-5.9,2.4-9.4,2.4c-3,0-5.7-0.6-8.1-1.9c-2.4-1.2-4.4-3-5.9-5.4v20.5h-5v-50.4h4.8v7.3c1.5-2.4,3.5-4.3,5.9-5.6
		c2.5-1.3,5.2-2,8.3-2C562,161.8,565.1,162.6,567.9,164.2L567.9,164.2z M565.2,193.1c2.1-1.2,3.8-2.9,4.9-5.1s1.8-4.7,1.8-7.5
		c0-2.8-0.6-5.3-1.8-7.5c-1.2-2.2-2.8-3.9-4.9-5.1c-2.1-1.2-4.4-1.8-7-1.8s-5,0.6-7,1.8c-2.1,1.2-3.7,2.9-4.9,5.1s-1.8,4.7-1.8,7.5
		c0,2.8,0.6,5.3,1.8,7.5c1.2,2.2,2.8,3.9,4.9,5.1c2.1,1.2,4.4,1.8,7,1.8S563.1,194.3,565.2,193.1z"/>
	<path class="st1" d="M609.3,165.4c2.6,2.4,3.8,6,3.8,10.7v22.8h-4.8v-5.7c-1.1,1.9-2.8,3.4-4.9,4.5s-4.8,1.6-7.7,1.6
		c-4.1,0-7.4-1-9.8-2.9s-3.6-4.5-3.6-7.8s1.1-5.6,3.4-7.6c2.3-1.9,5.9-2.9,10.8-2.9h11.7v-2.2c0-3.2-0.9-5.6-2.7-7.2
		c-1.8-1.7-4.4-2.5-7.8-2.5c-2.3,0-4.6,0.4-6.7,1.2c-2.2,0.8-4,1.8-5.5,3.2l-2.2-3.7c1.9-1.6,4.1-2.8,6.7-3.7
		c2.6-0.9,5.4-1.3,8.3-1.3C603,161.8,606.7,163,609.3,165.4L609.3,165.4z M603.7,193.4c2-1.3,3.5-3.1,4.5-5.6v-6h-11.5
		c-6.3,0-9.5,2.2-9.5,6.6c0,2.1,0.8,3.8,2.5,5.1c1.6,1.2,3.9,1.9,6.9,1.9S601.7,194.7,603.7,193.4L603.7,193.4z"/>
	<path class="st1" d="M655,165.9c2.7,2.7,4.1,6.6,4.1,11.7V199h-5v-20.9c0-3.8-1-6.7-2.9-8.8s-4.6-3-8.2-3c-4,0-7.1,1.2-9.4,3.5
		c-2.3,2.3-3.5,5.6-3.5,9.8v19.3h-5v-36.8h4.8v6.8c1.3-2.2,3.2-4,5.6-5.2c2.4-1.2,5.2-1.9,8.4-1.9
		C648.6,161.8,652.2,163.2,655,165.9L655,165.9z"/>
	<path class="st1" d="M701.3,162.1l-18.4,41.2c-1.5,3.5-3.2,5.9-5.2,7.4s-4.3,2.2-7.1,2.2c-1.8,0-3.4-0.3-5-0.8s-2.9-1.4-4-2.5
		l2.3-3.7c1.9,1.9,4.1,2.8,6.7,2.8c1.7,0,3.1-0.5,4.3-1.4s2.3-2.5,3.3-4.8l1.6-3.6l-16.5-36.8h5.2l13.9,31.3l13.9-31.3L701.3,162.1
		L701.3,162.1z"/>
</g>
</svg>
