<?xml version="1.0" encoding="utf-8"?>
<!-- Generator: Adobe Illustrator 28.1.0, SVG Export Plug-In . SVG Version: 6.00 Build 0)  -->
<svg version="1.1" id="Layer_1" xmlns="http://www.w3.org/2000/svg" xmlns:xlink="http://www.w3.org/1999/xlink" x="0px" y="0px"
	 viewBox="0 0 659 300" style="enable-background:new 0 0 659 300;" xml:space="preserve">
<style type="text/css">
	.st0{fill:#231E57;}
</style>
<g>
	<path class="st0" d="M80.4,83.6H54.6V104H74c6.2,0,9.9,0,14.3,1c19.1,3.7,26.3,24,26.3,43.5s-7.2,39.8-26.3,43.5
		c-4.4,1-8.1,1-14.3,1H54.6v20.4h25.8c42.1,0,57.1-34.6,57.1-64.9S122.5,83.6,80.4,83.6 M587.1,167.6v-0.2V167.6z M587.1,167.4
		C587.1,167.1,587.1,167.1,587.1,167.4 M587.1,167.8c-7.2,1.1-14.5,2.3-22.2,3.9c-9.6,2-20.7,5.2-20.7,15.1
		c0,6.5,4.8,12.4,15.7,12.4c16,0,26.5-10.8,27.1-25.7C587,171.1,587.1,167.8,587.1,167.8 M608.8,153.8v59.8h-19.1v-13.1
		c-8.8,11.6-19.7,15.9-34.2,15.9c-21,0-32.7-13.2-32.7-29.4c0-15,7.6-24.3,22.2-29.1c12.7-4.1,28.8-5.8,42.4-7.9
		c-0.9-12.2-7.7-16.4-20-16.4c-7.8,0-18.3,3.2-21.2,13.6l-19.9-6.2c2.5-8.2,7-14.8,13.7-19.9c6.7-4.9,15.9-7.5,27.4-7.5
		c30.8,0,39.5,17.1,40.7,28.6C608.6,145.6,608.8,149.6,608.8,153.8 M374.9,113.4c-12.8,0-23.5,4.9-31.8,15.9v-13.2h-19.5v97.4h22
		v-50c0-16.6,6.1-29.7,22.8-29.7c18.1,0,22.7,15,22.7,32.9v46.9h22v-54.4C413.3,135.4,403.8,113.4,374.9,113.4 M286.1,106.4h21.7
		V83.8h-21.7V106.4z M286.1,213.5h21.7v-97.4h-21.7V213.5z M248.6,213.5h21.7V83.6h-21.7L248.6,213.5L248.6,213.5z M493.9,154.4
		c-1.7-14.1-8-22-22.4-22s-22.9,7.1-25.6,22H493.9L493.9,154.4z M516,170.9h-70.5c1.5,15,9.5,25,25.1,25c10.7,0,18.6-4.7,22.8-13.9
		l21.4,6.5c-7.6,18-24.6,27.8-43.1,27.8c-30.1,0-49.7-21.1-49.7-50.4c0-33.3,20.9-52.6,48.4-52.6C502.5,113.4,518.4,137.8,516,170.9
		 M216.9,154.4c-1.7-14.1-8-22-22.4-22s-22.9,7.1-25.5,22H216.9z M238.9,170.9h-70.5c1.5,15,9.5,25,25.1,25
		c10.7,0,18.5-4.7,22.8-13.9l21.4,6.5c-7.6,18-24.6,27.8-43.1,27.8c-30.1,0-49.7-21.1-49.7-50.4c0-33.3,20.9-52.6,48.4-52.6
		C225.4,113.4,241.3,137.8,238.9,170.9 M54.6,193.1H32.5v-89h22.1V193.1z M619.2,208.1v0.5h-1.9v4.9h-0.6v-4.9h-1.9v-0.5H619.2
		L619.2,208.1z M625.2,208.1v5.5h-0.5v-4.2l-2,4.2h-0.4l-2-4.2v4.2h-0.6v-5.5h0.5l2.2,4.6l2.2-4.6H625.2L625.2,208.1z"/>
</g>
</svg>
