<?xml version="1.0" encoding="UTF-8"?>
<svg id="Layer_1" data-name="Layer 1" xmlns="http://www.w3.org/2000/svg" xmlns:xlink="http://www.w3.org/1999/xlink" viewBox="0 0 570.9 400">
  <defs>
    <style>
      .cls-1 {
        clip-path: url(#clippath);
      }

      .cls-2 {
        fill: none;
      }

      .cls-2, .cls-3, .cls-4 {
        stroke-width: 0px;
      }

      .cls-3 {
        fill: #e22226;
      }

      .cls-4 {
        fill: #fff;
      }
    </style>
    <clipPath id="clippath">
      <rect class="cls-2" x="183.58" y="98.14" width="203.73" height="203.72"/>
    </clipPath>
  </defs>
  <g class="cls-1">
    <g>
      <path class="cls-3" d="M387.3,200c0,56.25-45.61,101.86-101.86,101.86s-101.86-45.61-101.86-101.86,45.61-101.86,101.87-101.86,101.85,45.61,101.85,101.86"/>
      <path class="cls-4" d="M216.29,237.64h50.5v-11.83h-37.43v-19.9h33.69v-11.83h-33.69v-18.04h35.56v-11.79h-48.62v73.39ZM333.44,210.11c-1.16,3.08-2.92,5.9-5.17,8.3-2.25,2.33-4.95,4.18-7.94,5.44-3.17,1.33-6.57,2-10,1.96-3.4.04-6.78-.63-9.91-1.96-2.95-1.27-5.61-3.13-7.83-5.44-2.25-2.4-4.01-5.22-5.17-8.3-1.27-3.33-1.9-6.86-1.86-10.42-.04-3.48.6-6.93,1.86-10.16,1.17-3,2.92-5.75,5.13-8.09,2.19-2.29,4.83-4.11,7.75-5.35,3.11-1.29,6.44-1.94,9.8-1.91,3.5-.04,6.97.61,10.21,1.91,2.98,1.22,5.69,3.04,7.94,5.35,2.23,2.33,3.99,5.08,5.17,8.09,1.26,3.24,1.89,6.69,1.86,10.16.03,3.56-.61,7.09-1.86,10.42M333.54,227.06v-.21c1.87-1.14,3.64-2.42,5.31-3.84,1.94-1.63,3.64-3.53,5.04-5.64,1.59-2.4,2.83-5.02,3.68-7.78.99-3.31,1.46-6.75,1.4-10.21.07-5.12-.97-10.2-3.05-14.89-1.96-4.43-4.8-8.41-8.33-11.72-3.58-3.31-7.75-5.91-12.3-7.67-9.58-3.66-20.18-3.66-29.76,0-4.54,1.76-8.71,4.36-12.28,7.68-7.38,6.86-11.52,16.52-11.41,26.6,0,5.94,1.03,11.28,3.06,16.01,1.91,4.56,4.77,8.65,8.39,12.02,3.67,3.35,7.97,5.93,12.66,7.57,5.12,1.81,10.51,2.71,15.94,2.65h42.72v-10.58h-21.06Z"/>
    </g>
  </g>
</svg>