<?xml version="1.0" encoding="utf-8"?>
<!-- Generator: Adobe Illustrator 28.1.0, SVG Export Plug-In . SVG Version: 6.00 Build 0)  -->
<svg version="1.1" id="Layer_1" xmlns="http://www.w3.org/2000/svg" xmlns:xlink="http://www.w3.org/1999/xlink" x="0px" y="0px"
	 viewBox="0 0 873 300" style="enable-background:new 0 0 873 300;" xml:space="preserve">
<style type="text/css">
	.st0{fill:#243254;}
	.st1{fill:#277BB6;}
</style>
<g>
	<path class="st0" d="M200.1,184.6c-6.4,0.3-17.6,0.6-23.3,0.6c-16.4,0-31.6-0.9-31.6-22.2V94h18.5v63.8c0,10.1,1.8,12.4,12.7,12.4
		H200L200.1,184.6L200.1,184.6z"/>
	<path class="st0" d="M205.4,150.2c0-25.9,8.3-35.7,31.1-35.7s31.2,10.1,31.2,35.7s-8.3,35.7-31.2,35.7S205.4,176.2,205.4,150.2
		 M250.4,150.3c0-16.8-2.9-21.7-13.9-21.7s-13.7,4.4-13.7,21.7s2.8,21.7,13.7,21.7S250.4,167.2,250.4,150.3"/>
	<path class="st0" d="M284.9,195.8c7,1,17.2,2,25.2,2c9.3,0,13.4-4.3,13.4-12.8v-2.1c-4.2,0.9-9,1.5-13.3,1.5
		c-21.1,0-30.9-8.5-30.9-34.9s10.3-34.9,32.9-34.9c9.4,0,20.1,1.9,28,6.4c0.4,4.4,0.6,8.5,0.6,13.2v54.8c0,18.1-13,22.5-28.5,22.5
		c-10.3,0-21.5-1.6-28.8-2.9L284.9,195.8L284.9,195.8z M296.7,149.5c0,12.1,0.7,21.2,17,21.2c3,0,6.9-0.6,9.8-1.5v-29.9
		c0-3.1-0.1-6.5-0.4-9.3c-2.6-1.2-7-1.8-10.8-1.8C297.9,128.2,296.7,138.7,296.7,149.5"/>
	<path class="st1" d="M381,185h-18.4V95.6c7.9-1.4,18.7-2.5,29.6-2.5c20.1,0,36.5,4,36.5,28.6c0,16.1-6.8,23.6-17.4,26.9l20.8,36.4
		h-21.2l-18.7-34.3c-3.7,0-7.9-0.2-11.1-0.4L381,185L381,185z M381,135.7c3.7,0.4,7.5,0.5,11.2,0.5c11.4,0,18.2-2.9,18.2-14.5
		c0-10.1-4.5-14.1-17.8-14.1c-3.6,0-7.9,0.3-11.6,0.8L381,135.7L381,135.7z"/>
	<path class="st1" d="M488.9,185v-42.3c0-9.9-1.8-14.1-14.4-14.1c-3.9,0-7.9,0.8-11.2,2.2v54.2H446V88.6h17.3v28.2
		c4.6-1.4,9.7-2.2,15.5-2.2c25,0,27.6,11.9,27.6,26.5v44L488.9,185L488.9,185z"/>
	<polygon class="st1" points="562.2,115.5 579.8,115.5 547.5,210.6 529.8,210.6 540.8,180.1 512.8,115.5 531.2,115.5 548.6,158.4 	
		"/>
	<path class="st1" d="M615.7,95.9v19.6h14v13.1h-14v35.9c0,5.8,2.4,8,8.2,8c2,0,3.9-0.1,5.9-0.2l1.3,12.3c-3.7,0.7-8.2,1.2-11.9,1.2
		c-14.6,0-20.8-6.4-20.8-19.6v-37.7H587v-13.1h11.4V98.6L615.7,95.9L615.7,95.9z"/>
	<path class="st1" d="M688.3,185v-42.3c0-9.9-1.8-14.1-14.4-14.1c-3.9,0-7.9,0.8-11.2,2.2v54.2h-17.3V88.6h17.3v28.2
		c4.6-1.4,9.7-2.2,15.5-2.2c25,0,27.6,11.9,27.6,26.5v44L688.3,185L688.3,185z"/>
	<path class="st1" d="M738.1,185h-17.3v-50.8c0-4.7,0.2-8.7,0.6-13.2c7.7-4.1,18.7-6.4,29.4-6.4c7.7,0,13,1.5,16.8,4
		c6.2-2.4,13.9-4,21.2-4c22.2,0,25.5,12,25.5,26.2v44.3H797v-42.7c0-9-2.2-13.9-11.9-13.9c-2.7,0-6.8,0.7-9.9,2.3
		c0.7,3.1,0.9,6.5,0.9,10v44.3H759v-42.7c0-8.9-2.1-13.9-11.6-13.9c-3,0-6.7,0.8-8.9,1.8c-0.3,2.8-0.4,6.2-0.4,9.3V185L738.1,185z"
		/>
	<path class="st1" d="M64.8,173.3c0-6.4,5.2-11.7,11.7-11.7s11.7,5.2,11.7,11.7S83,185,76.5,185S64.8,179.8,64.8,173.3"/>
	<path class="st1" d="M99,139.2c0-6.4,5.2-11.7,11.7-11.7s11.7,5.2,11.7,11.7s-5.2,11.7-11.7,11.7C104.2,150.9,99,145.6,99,139.2"/>
	<path class="st1" d="M30.7,173.3c0-6.4,5.2-11.7,11.7-11.7s11.7,5.2,11.7,11.7S48.9,185,42.4,185S30.7,179.8,30.7,173.3"/>
	<path class="st0" d="M64.8,139.2c0-6.5,5.2-11.7,11.7-11.7s11.7,5.2,11.7,11.7s-5.2,11.7-11.7,11.7S64.8,145.6,64.8,139.2"/>
	<path class="st1" d="M99,105c0-6.5,5.2-11.7,11.7-11.7s11.7,5.2,11.7,11.7s-5.2,11.7-11.7,11.7S99,111.5,99,105"/>
	<path class="st1" d="M30.7,139.2c0-6.4,5.2-11.7,11.7-11.7s11.7,5.2,11.7,11.7s-5.2,11.7-11.7,11.7S30.7,145.6,30.7,139.2"/>
	<path class="st1" d="M64.8,105c0-6.5,5.2-11.7,11.7-11.7s11.7,5.2,11.7,11.7s-5.2,11.7-11.7,11.7S64.8,111.5,64.8,105"/>
	<polygon class="st1" points="823.8,117.5 823.8,125.5 821.3,125.5 821.3,117.5 818.5,117.5 818.5,115.4 826.5,115.4 826.8,117.5 	
		"/>
	<polygon class="st1" points="837.3,125.5 836.8,118.8 834.9,125.5 832.6,125.5 830.7,118.8 830.2,125.5 828,125.5 828.8,115.4 
		832,115.4 834,122.3 836,115.4 839.1,115.4 839.8,125.5 	"/>
</g>
</svg>
