<?xml version="1.0" encoding="utf-8"?>
<!-- Generator: Adobe Illustrator 28.1.0, SVG Export Plug-In . SVG Version: 6.00 Build 0)  -->
<svg version="1.1" id="Layer_1" xmlns="http://www.w3.org/2000/svg" xmlns:xlink="http://www.w3.org/1999/xlink" x="0px" y="0px"
	 viewBox="0 0 656 300" style="enable-background:new 0 0 656 300;" xml:space="preserve">
<style type="text/css">
	.st0{fill:#0E497A;}
</style>
<g>
	<path id="path2635" class="st0" d="M41.9,94.5h112.9v27.3H69.1v85.7H41.9V94.5z"/>
	<path id="path2639" class="st0" d="M154.8,121.8H182v112.9H69.1v-27.2h85.7L154.8,121.8L154.8,121.8z"/>
	<path id="path2643" class="st0" d="M280.2,155V94.7h-11.6l-20.9,30.1l-20.9-30.1H215V155h11.9v-39.6l17.2,25.1h7.1l17.1-25.1V155
		H280.2L280.2,155z"/>
	<path id="path2645" class="st0" d="M322.5,94.7h-11.9V155h11.9V94.7z"/>
	<path id="path2657" class="st0" d="M412.2,149v-13.5l-11.8,1.4v6.3h-35.6v-36.8h35.6v6.4l11.8,1.4v-13.4c0-3.4-2.6-6.1-6-6.1h-47.4
		c-3.3,0-5.9,2.6-5.9,6.1V149c0,3.4,2.6,6,5.9,6h47.4C409.6,155,412.2,152.4,412.2,149"/>
	<path id="path2661" class="st0" d="M501.8,155L484,130.9h11.9c3.4,0,6-2.6,6-6v-24.2c0-3.4-2.6-6.1-6-6.1h-53.3V155h11.9v-24.2
		h14.7l17.7,24.2H501.8L501.8,155z M490,119h-35.5v-12.6H490V119z"/>
	<path id="path2665" class="st0" d="M591.5,149v-48.3c0-3.4-2.6-6.1-6-6.1h-47.4c-3.3,0-5.9,2.6-5.9,6.1V149c0,3.4,2.6,6,5.9,6h47.4
		C588.9,155,591.5,152.4,591.5,149 M579.7,143.2h-35.5v-36.8h35.5V143.2z"/>
	<path id="path2669" class="st0" d="M274.3,186v-11.8H215v60.4h11.9v-24.3h35.5v-11.9h-35.5V186H274.3L274.3,186z"/>
	<path id="path2681" class="st0" d="M350.1,228.6v-48.3c0-3.4-2.6-6.1-6-6.1h-47.4c-3.3,0-5.9,2.6-5.9,6.1v48.3c0,3.4,2.6,6,5.9,6
		h47.4C347.5,234.6,350.1,232,350.1,228.6 M338.2,222.8h-35.5V186h35.5V222.8z"/>
	<path id="path2685" class="st0" d="M430.5,228.6v-13.5l-11.8,1.4v6.3h-35.5V186h35.5v6.4l11.8,1.4v-13.4c0-3.4-2.6-6.1-6-6.1h-47.4
		c-3.3,0-5.9,2.6-5.9,6.1v48.3c0,3.4,2.6,6,5.9,6h47.4C428,234.6,430.5,232,430.5,228.6"/>
	<path id="path2689" class="st0" d="M511,228.6v-54.4h-11.8v48.6h-35.6v-48.6h-11.8v54.4c0,3.4,2.6,6,5.9,6h47.4
		C508.5,234.6,511,232,511,228.6"/>
	<path id="path2693" class="st0" d="M591.5,228.6v-24.1c0-3.4-2.6-6.1-6-6.1h-41.4V186h35.6v6.4l11.8,1.4v-13.4c0-3.4-2.6-6.1-6-6.1
		h-47.4c-3.3,0-5.9,2.6-5.9,6.1v24c0,3.4,2.6,6.1,5.9,6.1h41.5v12.4H544v-6.3l-11.8-1.4v13.5c0,3.4,2.6,6,5.9,6h47.4
		C588.9,234.6,591.5,232,591.5,228.6"/>
	<path id="path2697" class="st0" d="M604.8,90.8c7.1,0,12.8-5.8,12.8-12.8s-5.8-12.8-12.8-12.8S592,70.9,592,78
		S597.7,90.8,604.8,90.8 M604.8,88.3c-5.4,0-9.7-4.3-9.7-10.3s4.3-10.3,9.7-10.3s9.7,4.3,9.7,10.3S610.2,88.3,604.8,88.3
		 M599.9,85.2h2.7V79h1.6l3.8,6.2h2.8l-3.9-6.4c2.4-0.2,3.8-1.4,3.8-3.9c0-3.1-1.9-4.3-5.4-4.3h-5.4L599.9,85.2L599.9,85.2z
		 M602.6,72.7h2.4c1.4,0,3,0.3,3,2c0,1.9-1.4,2.2-3,2.2h-2.4C602.6,76.9,602.6,72.7,602.6,72.7z"/>
</g>
</svg>
