<?xml version="1.0" encoding="utf-8"?>
<!-- Generator: Adobe Illustrator 28.1.0, SVG Export Plug-In . SVG Version: 6.00 Build 0)  -->
<svg version="1.1" id="Layer_1" xmlns="http://www.w3.org/2000/svg" xmlns:xlink="http://www.w3.org/1999/xlink" x="0px" y="0px"
	 viewBox="0 0 540 300" style="enable-background:new 0 0 540 300;" xml:space="preserve">
<style type="text/css">
	.st0{fill:#0A7EC2;}
</style>
<g>
	<path class="st0" d="M101.5,112.1c-31.5,0-56.9,25.4-56.9,56.9s25.5,56.9,56.9,56.9s56.9-25.4,56.9-56.9S133,112.1,101.5,112.1
		L101.5,112.1z M101.5,197.5C85.8,197.5,73,184.7,73,169s12.8-28.5,28.5-28.5S130,153.3,130,169S117.2,197.5,101.5,197.5z"/>
	<path class="st0" d="M201.5,188.1c0-4.5,5.4-6.7,8.6-3.5c14.2,14.5,37.8,39.4,37.9,39.5c0.3,0.3,0.7,0.9,2,1.4
		c0.6,0.2,1.5,0.2,2.5,0.2h25.7c4.6,0,6-5.3,3.8-8l-42.5-43.6l-2.3-2.3c-4.9-5.8-4.3-8,1.2-13.9l33.7-37.7c2.2-2.7,0.8-7.9-4-7.9
		H245c-0.9,0-1.6,0-2.3,0.2c-1.4,0.4-1.9,0.9-2.3,1.4c-0.1,0.1-18.8,20.2-30.3,32.6c-3.2,3.4-8.8,1.1-8.8-3.5V78.4
		c0-3.3-2.7-4.5-4.9-4.5h-19c-3.3,0-4.9,2.2-4.9,4.1v143.2c0,3.3,2.7,4.2,5,4.2h19c2.9,0,4.9-2.1,4.9-4.3L201.5,188.1L201.5,188.1
		L201.5,188.1z"/>
	<path class="st0" d="M356.7,220.5l-2-19c-0.2-2.6-2.7-4.4-5.3-4c-1.5,0.2-2.9,0.3-4.4,0.3c-15.2,0-27.5-11.9-28.4-26.9V146
		c0-3.1,2.3-5.5,5.3-5.5h25.5c1.8,0,4.5-1.6,4.5-4.9v-18c0-3.5-2.3-5.3-4.3-5.3h-25.7c-2.9,0-5.3-2.1-5.4-5.1V78.4
		c0-1.8-1.4-4.5-4.9-4.5h-18.9c-2.4,0-4.6,1.5-4.6,4.4v92.6c0.8,30.8,26,55.3,56.9,55.3c2.6,0,5.1-0.2,7.6-0.6
		C355.2,225.2,357,223.1,356.7,220.5L356.7,220.5z"/>
	<path class="st0" d="M493.8,196.6c-16.1,0-18.5-5.8-18.5-27.4V117c0-1.8-1.4-4.9-5-4.9h-19c-2.4,0-5,1.9-5,4.9v2.4
		c-8.3-4.8-17.9-7.5-28-7.5c-31.5,0-56.9,25.4-56.9,56.9s25.5,56.9,56.9,56.9c14.1,0,27-5.2,37-13.7c5.3,8.1,13.9,13.6,27.4,13.7
		c2.3,0,14.5,0.5,14.5-5.3v-20.2C497.1,198.5,495.7,196.6,493.8,196.6L493.8,196.6z M418.4,197.5c-15.7,0-28.5-12.8-28.5-28.5
		s12.8-28.5,28.5-28.5s28.5,12.8,28.5,28.5C446.8,184.7,434,197.5,418.4,197.5z"/>
</g>
</svg>
