<?xml version="1.0" encoding="utf-8"?>
<!-- Generator: Adobe Illustrator 28.1.0, SVG Export Plug-In . SVG Version: 6.00 Build 0)  -->
<svg version="1.1" id="Layer_1" xmlns="http://www.w3.org/2000/svg" xmlns:xlink="http://www.w3.org/1999/xlink" x="0px" y="0px"
	 viewBox="0 0 868 300" style="enable-background:new 0 0 868 300;" xml:space="preserve">
<style type="text/css">
	.st0{fill:#C84634;}
</style>
<path class="st0" d="M379.5,165.7h53.3l-28.1-45.4L353,202.4h-23.5l62.9-98.5c4.7-6.8,14.1-8.4,20.9-3.7c1.4,1,2.6,2.2,3.6,3.5
	l63.1,98.6h-23.5l-11.1-18.4h-53.9l-11.7-18.3 M624,184V98.5h-20v94c0,2.6,1.1,5.2,3,7c1.9,2,4.5,3.1,7.3,3h90.9l11.8-18.4h-93.1
	 M293.5,168.7c19.4,0,35.1-15.7,35.1-35.1s-15.7-35.1-35.1-35.1h-87.4v103.9h20v-85.5h66.2c9.3,0,16.8,7.5,16.8,16.8
	s-7.5,16.8-16.8,16.8H236l59.6,51.9h29l-40.1-33.6L293.5,168.7 M83.3,202.3h60.4c28.7-0.7,51.3-24.6,50.6-53.3
	c-0.7-27.6-22.9-49.9-50.6-50.6H83.3C54.6,97.7,30.8,120.3,30,149c-0.7,28.7,22,52.6,50.6,53.3C81.5,202.3,82.4,202.3,83.3,202.3
	 M142.3,184H84.7c-18.6-0.6-33.1-16.1-32.5-34.7c0.6-17.7,14.8-31.9,32.5-32.5h57.7c18.6-0.6,34.1,14,34.7,32.5s-14,34.1-32.5,34.7
	C143.8,184,143,184,142.3,184 M521.5,202.3h61.6l11.7-18.3h-71.9c-18.6,0.6-34.1-14-34.7-32.5s14-34.1,32.5-34.7c0.7,0,1.5,0,2.2,0
	h58.5l11.8-18.4h-71.7c-28.7-0.7-52.5,21.9-53.3,50.6s21.9,52.5,50.6,53.3C519.7,202.3,520.6,202.3,521.5,202.3 M765.8,184
	c-15,0-28.3-10-32.4-24.5h85.4l11.7-18.3h-97.1c4.1-14.5,17.3-24.5,32.4-24.5h58.6l11.7-18.4h-71.7c-28.7,0.7-51.3,24.6-50.6,53.3
	c0.7,27.6,23,49.9,50.6,50.6H826l11.7-18.3L765.8,184"/>
</svg>
