<?xml version="1.0" encoding="utf-8"?>
<!-- Generator: Adobe Illustrator 28.1.0, SVG Export Plug-In . SVG Version: 6.00 Build 0)  -->
<svg version="1.1" id="Layer_1" xmlns="http://www.w3.org/2000/svg" xmlns:xlink="http://www.w3.org/1999/xlink" x="0px" y="0px"
	 viewBox="0 0 902 300" style="enable-background:new 0 0 902 300;" xml:space="preserve">
<style type="text/css">
	.st0{fill:#B92530;}
	.st1{fill:#273846;}
</style>
<g>
	<polygon id="Fill-1" class="st0" points="36.9,211.1 170.8,211.1 170.8,77.2 36.9,77.2 	"/>
	<path class="st1" d="M720.2,117.3l11.2-1.9v76.4h-11.2V117.3z M764.1,126v48.2c0,8.3,2.1,11.2,8.8,11.2c3,0,2.2,0,4.1-1l1.5,7.6
		c-3.4,1.9-4.7,2.5-9.6,2.5c-3.6,0-6.3-0.7-9-2.1c-4.8-2.6-6.6-7.3-6.6-14.9v-51.4h-9v-8.8h9V88.9h11.2v28.4h17.3l-3.3,8.8H764
		L764.1,126L764.1,126z M852.9,189.6c-4.3,0-7.8-3.7-7.8-8.8s3.4-8.8,7.8-8.8s7.8,3.7,7.8,8.8S857.4,189.6,852.9,189.6z
		 M852.9,169.9c-5.7,0-10.3,5-10.3,10.9s4.7,10.9,10.3,10.9s10.3-5,10.3-10.9S858.7,169.9,852.9,169.9z M851.2,179.8v-3.6h1.9
		c1.1,0,2.3,0.3,2.3,1.6c0,1.6-1.1,1.8-2.3,1.8h-1.9V179.8L851.2,179.8z M857.6,178.2c0-2.6-1.5-3.6-4.3-3.6H849V187h2.2v-5.4h1.2
		l3,5.4h2.2l-3.2-5.4C856.5,181.3,857.6,180.4,857.6,178.2L857.6,178.2z M848.4,117l-23.7,77.6c-4.7,15-10.2,24.9-22.3,28.1l-3.2-8
		c6.8-2.3,10.3-5.6,13.2-13.8c-1.1-5.9-1.8-8.4-1.8-8.4c-0.8-4.8-4.5-19.4-6.9-26.9l-14.9-46.8l10.7-3.9l14.2,48.5
		c2.1,7,4.1,18.6,4.1,18.6h0.3c0,0,2.6-9.6,4.3-15.7l13.6-49.2h12.3L848.4,117L848.4,117z M514.7,172.8c0,0-1.2,3.2-4.1,5.4
		c-4.4,3.4-7.6,4.8-13.4,4.8c-6.3,0-10.7-2.6-13.9-8.7c-2.2-4.4-2.8-10.9-2.8-19.6c0-10.5,1.1-16,4.4-21.6c2.9-5.1,7.4-7.9,13-7.9
		c8.1,0,13.4,2.6,16.8,7.9V172.8L514.7,172.8z M525.6,88.8h-10.7v24.9c0,5.4,0.1,11.6,0.1,11.6c-4.1-6.1-10.9-9.5-18.7-9.5
		c-5,0-8.8,1.4-13.4,4.7c-9.4,7-14.3,18.7-14.3,34.7c0,23.8,10.2,37.9,28.1,37.9c8,0,13.4-2.5,18.3-8.7c0.1,3.9,1.5,7.7,1.5,7.7
		h11.2c-1.5-4.4-2.1-11.3-2.1-24.1V88.8L525.6,88.8z M690.6,117.1h17.8l-3.3,8.8h-14.9v48.2c0,8.3,2.1,11.2,8.8,11.2
		c3,0,2.2,0,4.1-1l1.5,7.6c-3.4,1.9-4.7,2.5-9.6,2.5c-3.6,0-6.3-0.7-9-2.1c-4.8-2.6-6.6-7.3-6.6-14.9V126h-9v-8.8h9V88.8h11.2V117.1
		L690.6,117.1L690.6,117.1z M659.2,126.4c1.1,2.8,1.7,5.6,1.7,8.7v56.7h-11v-50.6c0-8-0.5-9.9-2.5-12.5c-1.5-1.9-4.4-3.2-7.6-3.2
		c-5.5,0-14.2,4.8-19.1,10.5v55.8h-10.5v-57.7c0-10.6-2.6-15.8-2.6-15.8l10.5-3.2c0,0,2.5,5.5,2.5,11.7c7.2-7.9,14.5-11.6,21.8-11.6
		C649.6,115.4,656.4,119.8,659.2,126.4L659.2,126.4z M552.1,147.6c0.5-15.4,6.1-23.3,16-23.3c5.2,0,10,2.6,12.5,6.6
		c2.1,3.6,3,8.5,3.2,16.7H552.1z M568.7,115.1c-8.3,0-15.2,3.3-20.7,10.3c-5.8,7.6-8.3,15.6-8.3,28.2c0,24.8,11.4,39.8,30.6,39.8
		c8.8,0,17.2-3.3,23.3-9.4l-4.1-7.6c-4.8,4.8-10.2,7-16.9,7s-13.4-2.8-17.2-9.1c-2.3-3.9-3.2-9.4-3.2-16.4v-1.8h43.1v-1.5
		c-0.3-17.9-1.9-24.9-7.8-31.5C582.6,118,576.1,115.1,568.7,115.1L568.7,115.1z M442.5,191.8h11.2v-103h-11.2V191.8z M430.8,113.8
		l7.9,12.5c-4,4-8,5.6-13.1,5.6c-1.8,0-3.7-0.3-5-0.4c2.8,3.6,4.1,7.4,4.1,12.4c0,12.9-11.2,22.4-26.4,22.4c-0.8,0-1.4,0-2.8-0.1
		c-4.7,2.3-7.4,4.1-7.4,6.2c0,1.1,1.1,1.8,3,1.8l0,0l10,0.1c10.9,0.1,16.5,1.9,21.6,6.8c4.1,4.1,6.2,9.4,6.2,16.1
		c0,6.3-1.8,11.3-5.8,15.7c-6.3,7.2-17.1,9.8-28.2,9.8c-10.2,0-20.7-1.8-27-8.1c-3.9-3.9-5.9-8.3-5.9-13.5c0-4.1,1-6.2,1.6-7.7H381
		c-0.7,1.8-0.8,2.8-0.8,4.8c0,6.1,4.8,9.4,13.4,9.4c4.7,0,8.8-0.6,11.7-2.5c2.8-1.8,4.5-4.6,4.5-7.7c0-6.8-5.6-8.8-13.1-8.9l0,0
		l-8-0.1c-8.4-0.1-13.8-0.8-17.2-2.3c-3.3-1.4-5.4-4.7-5.4-9.9c0-4.8,1.4-9.5,13.1-12.7c-10.2-2.8-15.2-9.9-15.2-21
		c0-15.6,11.8-25.6,30.2-25.6c4,0,7.7,0.6,12.8,1.9c3.9,1,6.5,1.6,8.8,1.6C421.2,120.2,426.5,117.9,430.8,113.8L430.8,113.8
		L430.8,113.8z M312.2,116.1c1.6,3.2,2.6,6.3,2.6,9.5c2.8-2.1,5.1-3.9,8.3-5.6c3.7-2.1,8.7-3.3,12.8-3.3c8,0,14.9,4.4,17.2,10.9
		c1,2.8,1.4,6.1,1.4,10.7v55.2H336v-49c0-8.5-1.4-11-6.3-11c-3.7,0-8.7,2.6-13,6.8v53.3H298v-54.8c0-6.5-0.8-12.7-2.5-17.8
		L312.2,116.1L312.2,116.1z M282.9,116.2v77.4h-18.7v-74.4L282.9,116.2L282.9,116.2z M215.5,91c16.5,0,21.5,1.8,27,5
		c9.1,5.4,13.9,14.7,13.9,26.6c0,13.6-6.2,24.5-16.7,29.9c-4.4,2.2-8.7,3.4-19.4,3.4h-10.7v37.9H190V91H215.5L215.5,91z
		 M394.3,131.2c-7.2,0-11.2,4.1-11.2,11.3c0,7.7,4.4,10.7,11,10.7c7.4,0,11.4-3.9,11.4-10.7C405.6,135.3,401.3,131.2,394.3,131.2
		L394.3,131.2z M221.9,107.8h-12.4v31.3h10.2c8,0,10.3-1.1,13-5.4c1.6-2.8,2.3-5.8,2.3-10.6C235.1,113.4,230.1,107.8,221.9,107.8
		L221.9,107.8L221.9,107.8z M273.8,84.9c6.3,0,11.3,5.5,11.3,12.3s-5.2,12.3-11.6,12.3s-11.4-5.5-11.4-12.3S267.4,84.9,273.8,84.9z"
		/>
</g>
</svg>
