<?xml version="1.0" encoding="UTF-8"?>
<svg id="Layer_1" data-name="Layer 1" xmlns="http://www.w3.org/2000/svg" xmlns:xlink="http://www.w3.org/1999/xlink" viewBox="0 0 871.32 400">
  <defs>
    <style>
      .cls-1 {
        clip-path: url(#clippath);
      }

      .cls-2 {
        fill: none;
      }

      .cls-2, .cls-3, .cls-4 {
        stroke-width: 0px;
      }

      .cls-5 {
        clip-path: url(#clippath-1);
      }

      .cls-6 {
        clip-path: url(#clippath-4);
      }

      .cls-7 {
        clip-path: url(#clippath-3);
      }

      .cls-8 {
        clip-path: url(#clippath-2);
      }

      .cls-9 {
        clip-path: url(#clippath-7);
      }

      .cls-10 {
        clip-path: url(#clippath-8);
      }

      .cls-11 {
        clip-path: url(#clippath-6);
      }

      .cls-12 {
        clip-path: url(#clippath-5);
      }

      .cls-13 {
        clip-path: url(#clippath-9);
      }

      .cls-3 {
        fill: #d71f2d;
      }

      .cls-4 {
        fill: #010101;
      }
    </style>
    <clipPath id="clippath">
      <rect class="cls-2" x="70.88" y="120.16" width="735.68" height="159.68"/>
    </clipPath>
    <clipPath id="clippath-1">
      <rect class="cls-2" x="70.88" y="120.16" width="735.68" height="159.68"/>
    </clipPath>
    <clipPath id="clippath-2">
      <rect class="cls-2" x="70.88" y="120.16" width="735.68" height="159.68"/>
    </clipPath>
    <clipPath id="clippath-3">
      <rect class="cls-2" x="70.88" y="120.16" width="735.68" height="159.68"/>
    </clipPath>
    <clipPath id="clippath-4">
      <rect class="cls-2" x="70.88" y="120.16" width="735.68" height="159.68"/>
    </clipPath>
    <clipPath id="clippath-5">
      <rect class="cls-2" x="70.88" y="120.16" width="735.68" height="159.68"/>
    </clipPath>
    <clipPath id="clippath-6">
      <rect class="cls-2" x="70.88" y="120.16" width="735.68" height="159.68"/>
    </clipPath>
    <clipPath id="clippath-7">
      <rect class="cls-2" x="70.88" y="120.16" width="735.68" height="159.68"/>
    </clipPath>
    <clipPath id="clippath-8">
      <rect class="cls-2" x="70.88" y="120.16" width="735.68" height="159.68"/>
    </clipPath>
    <clipPath id="clippath-9">
      <rect class="cls-2" x="70.88" y="120.16" width="735.68" height="159.68"/>
    </clipPath>
  </defs>
  <g class="cls-1">
    <path class="cls-3" d="M154.7,245.96c0,4.91-.81,9.13-2.43,12.67-1.62,3.54-3.71,6.58-6.26,9.14-4.02,4.02-8.91,6.9-14.66,8.61-5.75,1.72-11.86,2.58-18.34,2.58-5.6,0-11.12-.81-16.57-2.43s-10.34-4.39-14.66-8.32c-3.14-2.85-5.75-6.36-7.81-10.53-2.07-4.17-3.1-8.76-3.1-13.77h19.45c0,2.56.51,4.94,1.55,7.14,1.03,2.21,2.33,4.1,3.91,5.67,2.25,2.27,4.98,3.76,8.17,4.5,3.19.73,6.31,1.1,9.36,1.1,3.63,0,7.07-.41,10.31-1.25,3.24-.83,5.84-2.28,7.81-4.35,1.18-1.27,2.16-2.62,2.95-4.05.79-1.42,1.17-3.41,1.17-5.96,0-3.83-1.24-6.7-3.75-8.62-2.51-1.91-5.38-3.17-8.62-3.76-3.54-.69-7.41-1.18-11.64-1.47-4.22-.29-8.05-.75-11.49-1.34-3.64-.59-7.05-1.62-10.24-3.09-3.19-1.48-5.99-3.41-8.4-5.82-2.4-2.4-4.32-5.3-5.74-8.69-1.43-3.39-2.14-7.24-2.14-11.56s.84-7.9,2.51-11.34c1.67-3.44,3.88-6.53,6.63-9.28,3.43-3.44,7.85-6.14,13.26-8.1,5.4-1.96,11.2-2.95,17.38-2.95,5.6,0,10.97.86,16.13,2.58,5.16,1.72,9.51,4.25,13.04,7.59,3.14,2.95,5.67,6.29,7.59,10.02,1.92,3.73,2.92,7.81,3.02,12.23h-19.44c-.1-1.86-.57-3.71-1.4-5.52-.84-1.82-1.89-3.41-3.17-4.79-1.67-1.76-4.03-3.14-7.07-4.13-3.05-.98-5.99-1.47-8.84-1.47s-5.97.39-9.06,1.17c-3.1.79-5.72,2.31-7.88,4.57-1.08,1.17-1.94,2.45-2.58,3.83-.64,1.37-.95,3.04-.95,5.01,0,3.44.98,6.06,2.95,7.88s4.52,2.97,7.66,3.46c3.34.5,7.09.94,11.27,1.33,4.17.4,7.98.84,11.42,1.33,3.93.59,7.63,1.65,11.12,3.17,3.49,1.52,6.53,3.54,9.14,6.04,2.6,2.51,4.66,5.53,6.19,9.06,1.51,3.54,2.28,7.51,2.28,11.93"/>
  </g>
  <g class="cls-5">
    <path class="cls-3" d="M236.93,277.19l-7.36-8.25c-4.23,3.73-8.87,6.48-13.92,8.25-5.06,1.76-10.29,2.65-15.69,2.65-4.61,0-9.03-.73-13.26-2.21-4.22-1.46-7.9-3.56-11.05-6.26-3.14-2.7-5.64-6.01-7.51-9.94s-2.8-8.35-2.8-13.26c0-6.48,1.7-12.02,5.09-16.65,3.39-4.61,7.88-8.64,13.48-12.08-1.67-1.77-3.19-3.51-4.57-5.24-1.38-1.71-2.55-3.46-3.54-5.23-.99-1.76-1.74-3.63-2.29-5.6-.54-1.96-.81-4.17-.81-6.63,0-4.13.76-7.81,2.29-11.05,1.52-3.24,3.56-6.01,6.11-8.32,2.55-2.31,5.57-4.05,9.06-5.23,3.48-1.17,7.19-1.76,11.12-1.76s7.48.56,10.97,1.7c3.49,1.13,6.56,2.79,9.21,5.01,2.65,2.21,4.76,4.91,6.33,8.1,1.57,3.19,2.36,6.85,2.36,10.98,0,3.44-.49,6.5-1.48,9.21-.98,2.7-2.36,5.16-4.12,7.37-1.76,2.2-3.86,4.24-6.26,6.11-2.41,1.87-5.03,3.63-7.88,5.3l18.12,19.74c.89-1.67,1.5-3.61,1.84-5.82s.61-4.54.81-7c.2-2.36.3-4.66.3-6.93v-5.87h26.95v14.58h-12.08c-.2,4.13-.74,8.2-1.62,12.22-.89,4.03-2.46,7.76-4.72,11.2l19.29,20.91s-22.39,0-22.39,0ZM194.65,230.94c-1.76,1.08-3.39,2.12-4.86,3.1-1.47.98-2.78,2.12-3.91,3.39-1.13,1.28-2.01,2.72-2.65,4.35-.64,1.63-.95,3.51-.95,5.68,0,2.65.52,5.01,1.55,7.07,1.04,2.06,2.41,3.78,4.13,5.16,1.72,1.37,3.7,2.4,5.97,3.09,2.26.69,4.61,1.02,7.07,1.02,3.14,0,6.28-.44,9.43-1.33,3.14-.89,5.84-2.6,8.1-5.16l-23.86-26.37ZM212.92,196.92c0-3.63-1.11-6.43-3.32-8.4-2.2-1.96-4.98-2.95-8.32-2.95-3.04,0-5.75.91-8.1,2.73-2.36,1.82-3.54,4.54-3.54,8.18,0,1.67.32,3.24.95,4.71.64,1.48,1.42,2.88,2.36,4.2.93,1.33,1.98,2.57,3.17,3.76,1.17,1.17,2.31,2.31,3.39,3.39,1.57-.88,3.16-1.79,4.79-2.73,1.61-.93,3.06-1.98,4.34-3.17,1.28-1.18,2.31-2.55,3.1-4.13.79-1.56,1.18-3.43,1.18-5.59"/>
  </g>
  <g class="cls-8">
    <path class="cls-3" d="M350.98,206.05c0,5.01-.78,9.57-2.36,13.7-1.57,4.13-3.91,7.66-7,10.61-3.09,2.95-6.94,5.24-11.56,6.85-4.61,1.62-9.92,2.43-15.91,2.43h-22.09v37.41h-18.86v-104.43h40.95c5.99,0,11.29.81,15.91,2.43,4.62,1.62,8.47,3.88,11.56,6.78,3.1,2.9,5.43,6.41,7,10.53,1.57,4.13,2.36,8.69,2.36,13.7M331.84,206.2c0-5.01-1.48-9.08-4.42-12.23-2.95-3.14-7.61-4.71-13.99-4.71h-21.36v33.73h21.36c6.38,0,11.05-1.55,13.99-4.64,2.94-3.09,4.42-7.14,4.42-12.15"/>
  </g>
  <g class="cls-7">
    <path class="cls-3" d="M462.92,277.05l-2.21-11.5c-.78,1.48-1.96,3.02-3.53,4.64-1.58,1.62-3.51,3.07-5.82,4.35s-4.89,2.33-7.73,3.17c-2.84.83-5.9,1.24-9.13,1.24-6.09,0-11.76-.83-17.01-2.51-5.26-1.67-9.95-4.71-14.07-9.13-2.75-2.84-4.99-5.84-6.7-8.99-1.72-3.14-3.1-6.48-4.13-10.02-1.04-3.54-1.74-7.24-2.14-11.12-.39-3.88-.58-7.98-.58-12.31s.17-8.26.52-12.15c.34-3.88,1.01-7.53,1.98-10.97.98-3.44,2.36-6.73,4.13-9.87,1.77-3.14,4.07-6.14,6.93-8.99,4.02-4.02,8.81-7.07,14.36-9.13,5.55-2.07,11.13-3.1,16.72-3.1,6.48,0,12.37,1.08,17.68,3.24,5.3,2.16,9.72,5.06,13.26,8.69,2.56,2.66,4.71,5.67,6.48,9.06,1.76,3.39,2.8,7.39,3.09,12.01h-19.44c-.2-2.07-.73-3.83-1.62-5.31-.89-1.47-1.86-2.89-2.95-4.27-3.64-4.22-9.18-6.34-16.65-6.34-3.04,0-6.14.62-9.28,1.85-3.14,1.23-5.75,2.97-7.81,5.23-1.77,1.87-3.19,4.03-4.28,6.48-1.08,2.46-1.92,5.04-2.5,7.74-.59,2.7-.96,5.42-1.11,8.17-.15,2.75-.22,5.3-.22,7.66s.09,4.94.29,7.74c.2,2.8.59,5.57,1.18,8.32.59,2.76,1.42,5.38,2.51,7.89,1.08,2.51,2.5,4.69,4.27,6.56,2.06,2.26,4.64,3.92,7.74,5.01,3.09,1.08,6.16,1.63,9.2,1.63,3.44,0,6.46-.54,9.06-1.63,2.6-1.08,4.79-2.55,6.56-4.41,2.85-2.95,4.69-6.07,5.53-9.36.83-3.29,1.24-6.95,1.24-10.97h-24.89v-15.76h43.3v57.15s-12.22,0-12.22,0Z"/>
  </g>
  <g class="cls-6">
    <path class="cls-3" d="M521.24,276.9c-1.87.39-3.22.67-4.05.8-.83.15-2.18.22-4.05.22-6.29,0-11.34-1.62-15.17-4.86-3.83-3.24-5.75-8.49-5.75-15.76v-86.75h18.56v83.67c0,2.26.44,4.05,1.33,5.38.89,1.33,2.9,1.99,6.04,1.99.78,0,1.37-.03,1.76-.08s.83-.08,1.33-.08c0,0,0,15.47,0,15.47Z"/>
  </g>
  <g class="cls-12">
    <path class="cls-3" d="M599.4,238.75c0,6.48-.79,11.91-2.36,16.28-1.57,4.37-3.78,8.37-6.63,12-2.64,3.24-6.31,6.04-10.97,8.4-4.67,2.35-9.95,3.54-15.84,3.54s-11.17-1.19-15.83-3.54c-4.67-2.36-8.33-5.16-10.98-8.4-2.85-3.63-5.06-7.63-6.63-12-1.57-4.37-2.36-9.8-2.36-16.28s.79-11.91,2.36-16.28c1.57-4.37,3.78-8.37,6.63-12.01,2.64-3.24,6.31-6.04,10.98-8.4,4.66-2.36,9.94-3.54,15.83-3.54s11.17,1.18,15.84,3.54c4.66,2.36,8.33,5.16,10.97,8.4,2.85,3.64,5.06,7.64,6.63,12.01,1.56,4.37,2.36,9.8,2.36,16.28M580.68,238.75c0-3.63-.34-7.15-1.03-10.53-.69-3.4-2.16-6.31-4.42-8.77-1.28-1.37-2.9-2.53-4.86-3.46s-4.22-1.4-6.78-1.4-4.81.47-6.78,1.4-3.59,2.09-4.86,3.46c-2.26,2.46-3.73,5.38-4.42,8.77-.69,3.39-1.03,6.9-1.03,10.53s.34,7.15,1.03,10.53c.69,3.39,2.16,6.31,4.42,8.77,1.27,1.37,2.9,2.53,4.86,3.47,1.96.93,4.22,1.4,6.78,1.4s4.81-.47,6.78-1.4c1.96-.94,3.58-2.09,4.86-3.47,2.26-2.45,3.72-5.38,4.42-8.77.69-3.39,1.03-6.9,1.03-10.53"/>
  </g>
  <g class="cls-11">
    <path class="cls-3" d="M684.36,238.89c0,7.26-1.13,13.72-3.4,19.37-2.26,5.65-5.69,10.34-10.31,14.07-2.35,1.96-5.07,3.53-8.17,4.71-3.1,1.18-6.56,1.76-10.39,1.76-4.22,0-8.3-.8-12.22-2.42-3.93-1.63-7.03-4.2-9.28-7.74l-1.18,8.4h-15.9v-106.35h18.41v35.35c1.77-2.16,4.4-3.95,7.88-5.38,3.49-1.42,7.54-2.14,12.16-2.14,3.92,0,7.44.54,10.54,1.62,3.09,1.08,5.82,2.6,8.17,4.57,9.13,7.56,13.7,18.95,13.7,34.17M665.64,238.6c0-3.34-.33-6.63-.96-9.88-.64-3.24-1.94-6.13-3.91-8.68-1.38-1.68-3.07-3.1-5.08-4.28-2.02-1.17-4.44-1.76-7.29-1.76-3.63,0-6.58.76-8.84,2.28-2.26,1.52-4.03,3.48-5.29,5.9-1.28,2.4-2.14,5.06-2.58,7.95-.44,2.9-.66,5.72-.66,8.47,0,3.73.44,7.53,1.33,11.42.88,3.88,2.65,7.04,5.3,9.5,1.27,1.18,2.8,2.12,4.57,2.8,1.76.69,3.82,1.02,6.18,1.02,2.85,0,5.27-.58,7.29-1.77,2.01-1.17,3.7-2.6,5.08-4.27,1.96-2.55,3.26-5.47,3.91-8.77.63-3.29.95-6.59.95-9.94"/>
  </g>
  <g class="cls-9">
    <path class="cls-3" d="M766.1,276.16c-1.57.69-2.92,1.21-4.05,1.55-1.13.34-2.82.52-5.07.52-4.03,0-7.12-1.08-9.28-3.24-2.16-2.15-3.39-4.66-3.68-7.51-1.77,3.14-4.72,5.84-8.84,8.1-4.13,2.26-8.93,3.39-14.43,3.39-4.62,0-8.65-.66-12.09-1.98s-6.31-3.1-8.62-5.31c-2.3-2.21-4.05-4.76-5.23-7.66-1.18-2.9-1.76-5.92-1.76-9.06,0-3.64.66-6.87,1.98-9.73,1.32-2.85,3.17-5.31,5.52-7.37,2.36-2.06,5.11-3.66,8.25-4.79,3.14-1.13,6.52-1.85,10.17-2.14l22.53-1.62v-4.72c0-3.63-.86-6.56-2.58-8.77-1.72-2.21-5.18-3.32-10.39-3.32-4.32,0-7.68.94-10.09,2.79-2.4,1.87-3.7,4.57-3.91,8.11h-17.82c.3-4.32,1.3-8.06,3.02-11.2,1.71-3.14,4-5.72,6.84-7.73,2.85-2.01,6.14-3.51,9.87-4.49,3.73-.98,7.76-1.48,12.08-1.48,6.59,0,12.45,1.15,17.61,3.46,5.15,2.31,8.86,6.36,11.12,12.15.98,2.46,1.6,5.01,1.85,7.66.24,2.65.37,5.26.37,7.81v28.43c0,1.76.32,3.02.95,3.76.64.73,1.74,1.11,3.32,1.11.78,0,1.33-.05,1.62-.15.3,0,.54-.05.73-.14v13.55h0ZM741.5,243.02l-19.44,1.47c-2.84.2-5.4,1.13-7.66,2.79-2.26,1.68-3.39,4.08-3.39,7.23,0,2.95,1.11,5.27,3.32,7,2.21,1.72,4.74,2.57,7.59,2.57,5.79,0,10.51-1.49,14.14-4.49,3.63-2.99,5.45-7.34,5.45-13.04,0,0,0-3.53,0-3.53Z"/>
  </g>
  <g class="cls-10">
    <path class="cls-3" d="M806.56,276.9c-1.87.39-3.22.67-4.05.8-.84.15-2.19.22-4.05.22-6.29,0-11.34-1.62-15.17-4.86-3.83-3.24-5.75-8.49-5.75-15.76v-86.75h18.56v83.67c0,2.26.45,4.05,1.33,5.38s2.89,1.99,6.04,1.99c.79,0,1.37-.03,1.77-.08.39-.05.83-.08,1.33-.08v15.47h0Z"/>
  </g>
  <g class="cls-13">
    <rect class="cls-4" x="70.88" y="120.16" width="735.68" height="16.95"/>
  </g>
</svg>